<?xml version="1.0" encoding="UTF-8"?>
<svg version="1.1" xmlns="http://www.w3.org/2000/svg" width="512" height="512">
<path d="M0 0 C1.40393723 -0.00374379 2.80787237 -0.00834819 4.21180427 -0.01373065 C8.04209193 -0.02588626 11.87229177 -0.02570903 15.70259428 -0.02334189 C19.84456424 -0.02293183 23.98650675 -0.03399093 28.12846375 -0.04345703 C36.23336432 -0.06002742 44.3382358 -0.06556479 52.44315191 -0.06668179 C59.03599742 -0.0676342 65.62883338 -0.07175414 72.22167587 -0.07808304 C90.940672 -0.09568512 109.65964526 -0.1049236 128.37864973 -0.10342209 C129.89046936 -0.10330222 129.89046936 -0.10330222 131.43283081 -0.10317993 C132.44195065 -0.10309817 133.4510705 -0.10301641 134.49076973 -0.10293217 C150.8357041 -0.1021197 167.18054623 -0.12125023 183.52545394 -0.14945666 C200.33482529 -0.17823418 217.14415172 -0.19199426 233.95354831 -0.19026911 C243.38004319 -0.18960686 252.80644137 -0.19502653 262.23291397 -0.21662521 C270.26029797 -0.23490125 278.28754144 -0.23913194 286.31493731 -0.22560637 C290.40420628 -0.21910879 294.49320615 -0.21884208 298.58244896 -0.23631287 C330.14552981 -0.36283044 330.14552981 -0.36283044 343.84591675 4.26742554 C344.6981035 4.55295603 345.55029026 4.83848652 346.42830086 5.13266945 C372.0681776 14.61764026 391.8850462 33.77523021 403.76535034 58.15414429 C410.10285694 72.28158543 411.99674223 86.46564901 411.98635864 101.75740051 C411.98894495 103.13797258 411.99195884 104.5185439 411.99536204 105.89911419 C412.00340444 109.68334151 412.00522007 113.46754983 412.00595951 117.25178468 C412.00781494 121.33721889 412.01536483 125.42264335 412.02209473 129.5080719 C412.03565994 138.4381976 412.04170022 147.3683188 412.04610538 156.29845309 C412.04887142 161.87953775 412.05310949 167.46062069 412.05760956 173.04170418 C412.0698009 188.50787847 412.0800998 203.97405138 412.08348465 219.44023037 C412.08370422 220.42957691 412.08392378 221.41892345 412.08415 222.43825019 C412.08436828 223.42990866 412.08458656 224.42156714 412.08481145 225.44327587 C412.08525491 227.45261157 412.08570147 229.46194726 412.08615112 231.47128296 C412.08637255 232.46797404 412.08659398 233.46466513 412.08682212 234.49155898 C412.0907668 250.62724237 412.10821136 266.76288052 412.13151065 282.89854645 C412.15526356 299.48290911 412.16768833 316.0672491 412.16885257 332.65162903 C412.16976723 341.95573489 412.1754665 351.25978182 412.19367218 360.56387138 C412.20912656 368.48961781 412.21416237 376.41528709 412.20593408 384.34104573 C412.20204611 388.37949108 412.20286562 392.41778133 412.21699142 396.45620728 C412.31983612 427.63488307 412.31983612 427.63488307 408.84591675 440.26742554 C408.62863544 441.07186316 408.41135414 441.87630079 408.18748856 442.70511532 C400.60664156 467.91873308 382.46672913 488.4384334 359.7638855 501.22836304 C353.42557964 504.62507336 346.79400985 507.39145728 339.84591675 509.26742554 C338.45840887 509.64782706 338.45840887 509.64782706 337.04287052 510.03591347 C322.83169668 513.27729856 308.29175238 512.69561903 293.80230796 512.65959954 C289.72113125 512.65275258 285.63999171 512.66331793 281.55882263 512.67153931 C273.5842627 512.6848188 265.6097879 512.68202496 257.63522475 512.67330138 C251.14974425 512.66650281 244.66428745 512.66561747 238.1788044 512.66887283 C237.2527817 512.66933253 236.32675901 512.66979223 235.37267502 512.67026586 C233.49099353 512.67122512 231.60931204 512.67219776 229.72763056 512.67318363 C212.11924363 512.68172046 194.5109037 512.67193002 176.90252448 512.65578254 C161.81942274 512.64237869 146.73639029 512.64471132 131.65328979 512.65853882 C114.10271219 512.67462104 96.55217568 512.68089898 79.00159174 512.67170203 C77.12746561 512.67074646 75.25333948 512.66980335 73.37921333 512.66887283 C72.45730277 512.66841001 71.5353922 512.66794718 70.58554495 512.66747033 C64.1132377 512.66488852 57.64095668 512.66923386 51.16865349 512.67631149 C43.27346128 512.68475602 35.37835847 512.68238452 27.4831764 512.66646926 C23.46100269 512.65862642 19.43897762 512.65542623 15.41680527 512.66541672 C11.72496176 512.67444754 8.03340272 512.66929515 4.34158451 512.65348406 C2.39495898 512.64861897 0.44831323 512.65825705 -1.4982906 512.66865575 C-29.53950664 512.48437347 -55.02702394 500.66743118 -74.66775513 480.85385132 C-89.3014192 465.23467439 -100.25047421 442.90920597 -100.28830433 421.25389481 C-100.29276217 420.0652112 -100.29722002 418.8765276 -100.30181295 417.65182328 C-100.30162858 416.35476512 -100.30144422 415.05770695 -100.30125427 413.72134399 C-100.30455611 412.32243617 -100.30828236 410.9235293 -100.31239575 409.52462363 C-100.32238794 405.68499265 -100.32612807 401.8453773 -100.32878506 398.00573516 C-100.33269653 393.86230163 -100.34227444 389.71888038 -100.35099792 385.57545471 C-100.37074117 375.56962521 -100.38082698 365.56379473 -100.38972571 355.55795062 C-100.39411314 350.8402968 -100.39947887 346.12264409 -100.40471458 341.40499115 C-100.42172664 325.71153624 -100.43621846 310.01808201 -100.44346333 294.32461929 C-100.44537308 290.25395965 -100.44729343 286.18330001 -100.44924927 282.11264038 C-100.44973301 281.10095534 -100.45021675 280.0892703 -100.45071515 279.04692814 C-100.45900662 262.67648991 -100.48432871 246.30612495 -100.51682995 229.93571869 C-100.54996218 213.10955571 -100.56791775 196.28342989 -100.57110757 179.45723414 C-100.57326723 170.01777143 -100.58193574 160.57841549 -100.60756874 151.13898468 C-100.62936032 143.09577838 -100.63728491 135.05270481 -100.62760196 127.00947234 C-100.62308128 122.91200775 -100.62481178 118.81481651 -100.6443634 114.71739006 C-100.79654236 80.89331254 -95.26863917 53.46429443 -71.15408325 28.26742554 C-51.86966567 9.06416607 -26.94128282 -0.06502821 0 0 Z " fill="#FE5621" transform="translate(100.15408325195313,-0.267425537109375)"/>
<path d="M0 0 C1.40393723 -0.00374379 2.80787237 -0.00834819 4.21180427 -0.01373065 C8.04209193 -0.02588626 11.87229177 -0.02570903 15.70259428 -0.02334189 C19.84456424 -0.02293183 23.98650675 -0.03399093 28.12846375 -0.04345703 C36.23336432 -0.06002742 44.3382358 -0.06556479 52.44315191 -0.06668179 C59.03599742 -0.0676342 65.62883338 -0.07175414 72.22167587 -0.07808304 C90.940672 -0.09568512 109.65964526 -0.1049236 128.37864973 -0.10342209 C129.89046936 -0.10330222 129.89046936 -0.10330222 131.43283081 -0.10317993 C132.44195065 -0.10309817 133.4510705 -0.10301641 134.49076973 -0.10293217 C150.8357041 -0.1021197 167.18054623 -0.12125023 183.52545394 -0.14945666 C200.33482529 -0.17823418 217.14415172 -0.19199426 233.95354831 -0.19026911 C243.38004319 -0.18960686 252.80644137 -0.19502653 262.23291397 -0.21662521 C270.26029797 -0.23490125 278.28754144 -0.23913194 286.31493731 -0.22560637 C290.40420628 -0.21910879 294.49320615 -0.21884208 298.58244896 -0.23631287 C330.14552981 -0.36283044 330.14552981 -0.36283044 343.84591675 4.26742554 C344.6981035 4.55295603 345.55029026 4.83848652 346.42830086 5.13266945 C372.0681776 14.61764026 391.8850462 33.77523021 403.76535034 58.15414429 C410.10285694 72.28158543 411.99674223 86.46564901 411.98635864 101.75740051 C411.98894495 103.13797258 411.99195884 104.5185439 411.99536204 105.89911419 C412.00340444 109.68334151 412.00522007 113.46754983 412.00595951 117.25178468 C412.00781494 121.33721889 412.01536483 125.42264335 412.02209473 129.5080719 C412.03565994 138.4381976 412.04170022 147.3683188 412.04610538 156.29845309 C412.04887142 161.87953775 412.05310949 167.46062069 412.05760956 173.04170418 C412.0698009 188.50787847 412.0800998 203.97405138 412.08348465 219.44023037 C412.08370422 220.42957691 412.08392378 221.41892345 412.08415 222.43825019 C412.08436828 223.42990866 412.08458656 224.42156714 412.08481145 225.44327587 C412.08525491 227.45261157 412.08570147 229.46194726 412.08615112 231.47128296 C412.08637255 232.46797404 412.08659398 233.46466513 412.08682212 234.49155898 C412.0907668 250.62724237 412.10821136 266.76288052 412.13151065 282.89854645 C412.15526356 299.48290911 412.16768833 316.0672491 412.16885257 332.65162903 C412.16976723 341.95573489 412.1754665 351.25978182 412.19367218 360.56387138 C412.20912656 368.48961781 412.21416237 376.41528709 412.20593408 384.34104573 C412.20204611 388.37949108 412.20286562 392.41778133 412.21699142 396.45620728 C412.31983612 427.63488307 412.31983612 427.63488307 408.84591675 440.26742554 C408.62863544 441.07186316 408.41135414 441.87630079 408.18748856 442.70511532 C400.60664156 467.91873308 382.46672913 488.4384334 359.7638855 501.22836304 C353.42557964 504.62507336 346.79400985 507.39145728 339.84591675 509.26742554 C338.45840887 509.64782706 338.45840887 509.64782706 337.04287052 510.03591347 C322.83169668 513.27729856 308.29175238 512.69561903 293.80230796 512.65959954 C289.72113125 512.65275258 285.63999171 512.66331793 281.55882263 512.67153931 C273.5842627 512.6848188 265.6097879 512.68202496 257.63522475 512.67330138 C251.14974425 512.66650281 244.66428745 512.66561747 238.1788044 512.66887283 C237.2527817 512.66933253 236.32675901 512.66979223 235.37267502 512.67026586 C233.49099353 512.67122512 231.60931204 512.67219776 229.72763056 512.67318363 C212.11924363 512.68172046 194.5109037 512.67193002 176.90252448 512.65578254 C161.81942274 512.64237869 146.73639029 512.64471132 131.65328979 512.65853882 C114.10271219 512.67462104 96.55217568 512.68089898 79.00159174 512.67170203 C77.12746561 512.67074646 75.25333948 512.66980335 73.37921333 512.66887283 C72.45730277 512.66841001 71.5353922 512.66794718 70.58554495 512.66747033 C64.1132377 512.66488852 57.64095668 512.66923386 51.16865349 512.67631149 C43.27346128 512.68475602 35.37835847 512.68238452 27.4831764 512.66646926 C23.46100269 512.65862642 19.43897762 512.65542623 15.41680527 512.66541672 C11.72496176 512.67444754 8.03340272 512.66929515 4.34158451 512.65348406 C2.39495898 512.64861897 0.44831323 512.65825705 -1.4982906 512.66865575 C-29.53950664 512.48437347 -55.02702394 500.66743118 -74.66775513 480.85385132 C-89.3014192 465.23467439 -100.25047421 442.90920597 -100.28830433 421.25389481 C-100.29276217 420.0652112 -100.29722002 418.8765276 -100.30181295 417.65182328 C-100.30162858 416.35476512 -100.30144422 415.05770695 -100.30125427 413.72134399 C-100.30455611 412.32243617 -100.30828236 410.9235293 -100.31239575 409.52462363 C-100.32238794 405.68499265 -100.32612807 401.8453773 -100.32878506 398.00573516 C-100.33269653 393.86230163 -100.34227444 389.71888038 -100.35099792 385.57545471 C-100.37074117 375.56962521 -100.38082698 365.56379473 -100.38972571 355.55795062 C-100.39411314 350.8402968 -100.39947887 346.12264409 -100.40471458 341.40499115 C-100.42172664 325.71153624 -100.43621846 310.01808201 -100.44346333 294.32461929 C-100.44537308 290.25395965 -100.44729343 286.18330001 -100.44924927 282.11264038 C-100.44973301 281.10095534 -100.45021675 280.0892703 -100.45071515 279.04692814 C-100.45900662 262.67648991 -100.48432871 246.30612495 -100.51682995 229.93571869 C-100.54996218 213.10955571 -100.56791775 196.28342989 -100.57110757 179.45723414 C-100.57326723 170.01777143 -100.58193574 160.57841549 -100.60756874 151.13898468 C-100.62936032 143.09577838 -100.63728491 135.05270481 -100.62760196 127.00947234 C-100.62308128 122.91200775 -100.62481178 118.81481651 -100.6443634 114.71739006 C-100.79654236 80.89331254 -95.26863917 53.46429443 -71.15408325 28.26742554 C-51.86966567 9.06416607 -26.94128282 -0.06502821 0 0 Z M-53.431427 56.88461304 C-61.72874853 68.36163375 -68.26249503 81.61714294 -68.28830433 96.02573204 C-68.29276217 97.18292413 -68.29722002 98.34011622 -68.30181295 99.53237474 C-68.30162858 100.79937357 -68.30144422 102.0663724 -68.30125427 103.37176514 C-68.30455522 104.73482481 -68.30828128 106.0978835 -68.31239575 107.46094096 C-68.32239798 111.206009 -68.32612969 114.95106102 -68.32878506 118.69614053 C-68.3326935 122.73592065 -68.3422716 126.77568815 -68.35099792 130.81546021 C-68.37074913 140.57252332 -68.38082774 150.32958746 -68.38972571 160.08666557 C-68.39411162 164.68516446 -68.39947772 169.2836622 -68.40471458 173.88216019 C-68.42172702 189.17582904 -68.43621952 204.46949719 -68.44346333 219.76317406 C-68.44537313 223.73089982 -68.44729347 227.69862558 -68.44924927 231.66635132 C-68.44973301 232.65247326 -68.45021675 233.6385952 -68.45071515 234.65459962 C-68.45900916 250.61650457 -68.48433539 266.57833442 -68.51682995 282.5402066 C-68.54994344 298.94030879 -68.56791604 315.34037289 -68.57110757 331.74050868 C-68.5732689 340.94347135 -68.58196214 350.14632459 -68.60756874 359.34925461 C-68.62933457 367.18982 -68.63729741 375.03024937 -68.62760196 382.87084155 C-68.62307397 386.86666674 -68.62485515 390.86221161 -68.6443634 394.85799789 C-68.66211685 398.52628032 -68.66090026 402.19408049 -68.64546611 405.8623689 C-68.64200344 407.79661543 -68.65802505 409.73086775 -68.67507058 411.66504228 C-68.5321426 431.37421943 -60.87871325 447.90419914 -47.3611145 462.15805054 C-36.18258458 472.74071 -19.87953554 480.37384473 -4.41418743 480.40164661 C-3.26109544 480.40610446 -2.10800344 480.4105623 -0.91996926 480.41515523 C0.3424565 480.41497087 1.60488227 480.41478651 2.90556335 480.41459656 C4.26378553 480.41789753 5.62200674 480.42162359 6.9802267 480.42573804 C10.71196256 480.43574012 14.44368234 480.43947196 18.1754297 480.44212735 C22.20091392 480.44603587 26.22638546 480.45561401 30.25186157 480.46434021 C39.97481773 480.4840919 49.69777491 480.49417041 59.42074612 480.503068 C64.00367505 480.5074541 68.58660284 480.51282018 73.16953087 480.51805687 C88.41258536 480.53506989 103.65563914 480.54956199 118.89870167 480.55680561 C122.85335605 480.5587154 126.80801043 480.56063574 130.76266479 480.56259155 C131.74553381 480.56307529 132.72840282 480.56355903 133.74105575 480.56405743 C149.64731979 480.57234995 165.55350845 480.59767336 181.4597396 480.63017223 C197.80447602 480.66329359 214.1491742 480.68125906 230.49394435 480.68444985 C239.66508101 480.68661054 248.83610782 480.6952941 258.00721169 480.72091103 C265.8213982 480.7426877 273.63544817 480.75063444 281.44966159 480.74094424 C285.43143421 480.73641927 289.41292555 480.73817954 293.39465904 480.75770569 C318.45186292 480.87384126 340.79108945 479.61117186 359.83761597 461.47177124 C373.11055095 448.19200159 380.11716759 430.7818093 380.25180906 412.09890717 C380.24279399 410.22899376 380.24279399 410.22899376 380.2335968 408.32130432 C380.23777917 406.95219991 380.24326161 405.58309897 380.24991661 404.21400434 C380.26427183 400.4846829 380.2601579 396.75558432 380.2527498 393.0262512 C380.24799559 388.99135203 380.26054785 384.95649953 380.27076721 380.9216156 C380.28791708 373.02939798 380.2888031 365.13726011 380.28355431 357.2450287 C380.27950396 350.82619433 380.28096641 344.40738344 380.28630257 337.98855019 C380.28705099 337.07308698 380.28779941 336.15762377 380.28857051 335.21441925 C380.29010208 333.35431962 380.29164043 331.49422 380.29318548 329.63412038 C380.30689694 312.21078851 380.30148255 294.7875016 380.29000027 277.36417077 C380.28007112 261.44796774 380.29300547 245.53188101 380.31693446 229.61569592 C380.34135709 213.24700188 380.35092545 196.87836194 380.34428173 180.50965005 C380.34079631 171.33027884 380.34297667 162.15099701 380.36053276 152.97163963 C380.37529444 145.15684707 380.37583866 137.34220684 380.35846185 129.52741715 C380.34998165 125.54573117 380.3477286 121.56431684 380.3631134 117.58264542 C380.37706055 113.92757732 380.37207076 110.27301102 380.35287417 106.61797122 C380.3473966 104.69103091 380.36130163 102.7640644 380.37622827 100.83717412 C380.21059449 80.94022928 372.39105282 64.58679164 358.865448 50.15414429 C344.88042923 36.64141508 326.51680724 31.6226943 307.53903198 31.75949097 C306.16733613 31.75486718 304.79564526 31.74850447 303.4239645 31.74058199 C299.70135284 31.7240678 295.97915761 31.73205198 292.25654554 31.74452686 C288.22373776 31.7536495 284.19099716 31.73957221 280.15820312 31.72860718 C272.27639607 31.71089367 264.39474206 31.71462979 256.5129292 31.72625774 C250.10274333 31.73532017 243.69260012 31.73650396 237.28240967 31.73216248 C236.36735293 31.73154954 235.45229619 31.73093661 234.50951046 31.73030511 C232.65013543 31.7290261 230.79076041 31.72772925 228.9313854 31.72641474 C211.52805232 31.71502994 194.12480375 31.7280896 176.72148454 31.74961621 C161.81402642 31.76748527 146.90669293 31.76438057 131.99923706 31.74594116 C114.65484729 31.72449725 97.31053144 31.71612838 79.96613026 31.72839022 C78.11389479 31.72966431 76.26165932 31.73092179 74.40942383 31.73216248 C73.49827472 31.73277958 72.58712561 31.73339668 71.64836591 31.73403248 C65.25170413 31.73747483 58.85508954 31.73168118 52.45843506 31.72224426 C44.65468662 31.71098368 36.85109897 31.71414916 29.04736876 31.73536724 C25.07174322 31.74582336 21.09638497 31.75009338 17.12076187 31.73677063 C13.4713558 31.72472673 9.82246119 31.73160306 6.17310059 31.75268084 C4.24929252 31.75916571 2.32544806 31.74631894 0.40167904 31.73245192 C-20.40973221 31.91687391 -40.00771553 40.69999637 -53.431427 56.88461304 Z " fill="#000000" transform="translate(100.15408325195313,-0.267425537109375)"/>
<path d="M0 0 C0.84433594 0.4125 1.68867188 0.825 2.55859375 1.25 C14.08431468 7.42511989 20.44056418 16.98262987 25 29 C25.86925374 31.93272405 26.12210729 34.52980372 26.11352539 37.58496094 C26.11344986 38.48559265 26.11337433 39.38622437 26.11329651 40.31414795 C26.10813522 41.27782288 26.10297394 42.2414978 26.09765625 43.234375 C26.09553383 44.72411835 26.09553383 44.72411835 26.09336853 46.24395752 C26.08777588 49.41266912 26.0752247 52.58130979 26.0625 55.75 C26.05748405 57.89973856 26.05292131 60.04947823 26.04882812 62.19921875 C26.03780886 67.46616999 26.021078 72.73307993 26 78 C27.85177856 77.9685791 27.85177856 77.9685791 29.7409668 77.93652344 C34.37968054 77.86339243 39.01834478 77.81793785 43.6574707 77.78027344 C45.65430305 77.76032281 47.65107824 77.73315228 49.64770508 77.69824219 C66.70819528 77.40770541 80.48126932 78.45975589 93.6875 90.4375 C94.450625 91.283125 95.21375 92.12875 96 93 C96.48082031 93.48855469 96.96164062 93.97710937 97.45703125 94.48046875 C107.07899214 104.7357739 108.46699873 116.34408511 108.2734375 129.7421875 C108.05791138 135.80039192 106.92526247 140.66722064 104 146 C103.49082031 146.94101562 102.98164063 147.88203125 102.45703125 148.8515625 C95.81575705 160.12805096 85.85339646 168.0518138 73.11045837 171.58580017 C68.93254235 172.40576048 64.71415644 172.24148799 60.47265625 172.1953125 C59.48373886 172.1924826 58.49482147 172.18965271 57.47593689 172.18673706 C54.33799805 172.17560142 51.20035161 172.15050903 48.0625 172.125 C45.92643643 172.11496165 43.79036836 172.1058373 41.65429688 172.09765625 C36.43609927 172.0756838 31.21807054 172.04227254 26 172 C26.02094727 173.23451904 26.04189453 174.46903809 26.06347656 175.7409668 C26.13660757 180.37968054 26.18206215 185.01834478 26.21972656 189.6574707 C26.23967719 191.65430305 26.26684772 193.65107824 26.30175781 195.64770508 C26.57883742 211.91798236 25.86511226 224.96186529 15 238 C14.42636719 238.70898438 13.85273438 239.41796875 13.26171875 240.1484375 C6.5160516 247.68856223 -3.90340452 253.40821908 -14.06762695 254.15112305 C-30.78884211 255.01272222 -41.8696327 251.89495665 -54.5625 240.75 C-67.81018871 225.80388966 -68.58425687 211.80478571 -68.25 192.6875 C-68.22989432 190.67514808 -68.21165078 188.66277666 -68.1953125 186.65039062 C-68.15166244 181.76643723 -68.08286198 176.88343904 -68 172 C-69.20946289 172.01571045 -70.41892578 172.0314209 -71.66503906 172.04760742 C-76.20500885 172.10241195 -80.74495014 172.13653169 -85.28515625 172.16479492 C-87.2402846 172.1797675 -89.19538003 172.20015281 -91.15039062 172.22631836 C-109.04015144 172.45954377 -122.91947046 171.09452775 -137 159 C-147.6134316 146.95938347 -151.13759201 134.72909251 -150.4765625 118.97265625 C-149.61481172 107.43862004 -143.3830746 97.06199439 -135.05859375 89.15625 C-124.4471014 80.75280555 -113.27001426 77.64685822 -99.93359375 77.8046875 C-99.01409439 77.8075174 -98.09459503 77.81034729 -97.14723206 77.81326294 C-94.24384907 77.82435416 -91.34078791 77.84943737 -88.4375 77.875 C-86.45508262 77.88504412 -84.47266034 77.89416745 -82.49023438 77.90234375 C-77.66003445 77.92425714 -72.83007157 77.95870919 -68 78 C-68.01571045 76.79053711 -68.0314209 75.58107422 -68.04760742 74.33496094 C-68.10241195 69.79499115 -68.13653169 65.25504986 -68.16479492 60.71484375 C-68.1797675 58.7597154 -68.20015281 56.80461997 -68.22631836 54.84960938 C-68.45940321 36.97063033 -67.10400616 23.06561306 -55 9 C-39.90782187 -4.10636521 -18.53974965 -9.90437377 0 0 Z " fill="#010000" transform="translate(277,131)"/>
<path d="M0 0 C1.34150527 -0.00346374 2.68300769 -0.00823309 4.02450424 -0.01418173 C7.6820743 -0.0266233 11.33940739 -0.02055287 14.99697793 -0.01122308 C18.95275872 -0.00440456 22.90850022 -0.01492768 26.86427307 -0.02316284 C34.60255671 -0.03647297 42.34075285 -0.03363449 50.07903986 -0.02492492 C56.37111139 -0.01813756 62.66315848 -0.0172362 68.95523262 -0.02049637 C69.85226996 -0.02095607 70.7493073 -0.02141577 71.67352759 -0.0218894 C73.49610694 -0.02284862 75.3186863 -0.02382126 77.14126564 -0.02480717 C94.21494306 -0.03335322 111.28857209 -0.02353951 128.36224157 -0.00740607 C142.99608099 0.0059941 157.629849 0.00366997 172.26368713 -0.01016235 C189.27656814 -0.026236 206.28940677 -0.03252691 223.30229431 -0.02332556 C225.11830874 -0.02236996 226.93432317 -0.02142685 228.7503376 -0.02049637 C229.64374003 -0.02003354 230.53714245 -0.01957072 231.45761768 -0.01909386 C237.73791393 -0.01650916 244.01818319 -0.0208638 250.29847527 -0.02793503 C257.95818566 -0.03637018 265.61780388 -0.03402776 273.27750378 -0.0180928 C277.18180714 -0.01023675 281.08595712 -0.00707262 284.99025917 -0.01704025 C288.57112338 -0.02604351 292.15169343 -0.02096279 295.73253132 -0.0051076 C297.62693401 -0.00022049 299.52135745 -0.00990575 301.41573805 -0.02027929 C317.50632689 0.08925709 330.2412302 4.56815137 341.93922424 15.70516968 C350.69098216 25.1460424 355.52868345 37.43900325 355.56013489 50.23712158 C355.56459157 51.25292587 355.56459157 51.25292587 355.56913829 52.28925145 C355.5777885 54.55143866 355.57933039 56.81357273 355.58082581 59.07577515 C355.5854565 60.70060335 355.5904815 62.32543048 355.59587097 63.95025635 C355.60897077 68.35938016 355.61543494 72.76848877 355.61988163 77.17762899 C355.62281563 79.93341494 355.626921 82.68919676 355.6313858 85.44498062 C355.64505295 94.07071344 355.65472403 102.69643678 355.65858769 111.32217968 C355.66306984 121.27328851 355.68062828 131.22426008 355.70958829 141.17532718 C355.73120971 148.87229184 355.74129218 156.56921788 355.74262881 164.26621258 C355.7436763 168.86124333 355.74957242 173.45614491 355.76744843 178.05114365 C355.78393757 182.37350588 355.78608055 186.69564195 355.77730942 191.01802444 C355.77653956 192.60185095 355.78087507 194.18568967 355.79076767 195.76948547 C355.80350864 197.93686244 355.79759954 200.10344083 355.78718567 202.27081299 C355.78865223 203.48200743 355.79011879 204.69320187 355.79162979 205.94109917 C355.07759611 212.54482869 352.46709346 216.98065308 347.41969299 221.38095093 C343.14376421 223.51891532 338.03904842 223.08540263 333.41969299 222.38095093 C329.08723298 220.03871473 326.17732809 217.27666113 324.34020042 212.6799078 C323.34782223 209.1233772 323.16917238 206.16921389 323.1681366 202.48045349 C323.16368139 201.47561823 323.16368139 201.47561823 323.15913618 200.45048326 C323.15153342 198.21896533 323.15797471 195.98771352 323.1643219 193.75619507 C323.16157027 192.15092288 323.15788932 190.54565205 323.15335083 188.94038391 C323.1452527 185.48970257 323.14306687 182.03908598 323.145298 178.58839607 C323.14813555 173.12933705 323.13376296 167.67040698 323.11631775 162.21138 C323.06933197 146.69020516 323.04534876 131.16903946 323.03883362 115.64779663 C323.03508143 107.07077909 323.01704111 98.49390786 322.98373926 89.91695303 C322.96354001 84.49293494 322.96114749 79.06929457 322.97201943 73.64525425 C322.97462971 70.26767119 322.96060742 66.89030731 322.9419384 63.51278114 C322.93662396 61.94993133 322.93810044 60.38704096 322.9469738 58.82420731 C323.20603704 47.87959759 323.20603704 47.87959759 318.41969299 38.38095093 C313.61876332 34.65778098 310.08576784 33.25785129 304.07533741 33.24672985 C302.95961127 33.24227201 301.84388513 33.23781416 300.69434911 33.23322123 C299.46344114 33.2334056 298.23253317 33.23358996 296.96432495 33.23377991 C295.66066945 33.23010322 294.35701394 33.22642653 293.01385373 33.22263843 C289.38757153 33.21261377 285.76130588 33.20890089 282.13501179 33.20624912 C278.22689238 33.20234744 274.31878609 33.19276901 270.41067505 33.18403625 C260.96872344 33.16426793 251.52677075 33.15420515 242.08480361 33.14530846 C237.63931078 33.14092615 233.19381914 33.13555919 228.74832726 33.1303196 C213.97200041 33.11330692 199.19567431 33.09881251 184.41933918 33.09157085 C180.58425203 33.08966093 176.74916489 33.08774061 172.91407776 33.08578491 C171.96087602 33.08530117 171.00767428 33.08481743 170.02558764 33.08431903 C154.5826141 33.07601784 139.139718 33.05067961 123.69677828 33.01820423 C107.84482915 32.9851403 91.99291939 32.96712269 76.1409356 32.96392661 C67.23941922 32.96176089 58.33801576 32.95300322 49.43653297 32.92746544 C41.85592812 32.90576752 34.27546362 32.89770352 26.69483123 32.90743222 C22.82747568 32.91197959 18.96040977 32.91006558 15.09309387 32.89067078 C10.89851817 32.86981656 6.70458588 32.88001573 2.50997925 32.89320374 C1.29022488 32.88223449 0.07047052 32.87126524 -1.1862461 32.8599636 C-8.11644396 32.9126471 -12.71769218 33.58134371 -18.58030701 37.38095093 C-22.22023323 41.95419157 -23.69537609 45.52231165 -23.73802185 51.30795288 C-23.748284 52.30941849 -23.75854614 53.31088409 -23.76911926 54.34269714 C-23.77642059 55.4239537 -23.78372192 56.50521027 -23.79124451 57.61923218 C-23.81931389 59.9063487 -23.84797835 62.19345798 -23.87718201 64.4805603 C-23.91843771 68.0882242 -23.95532382 71.69575303 -23.98167419 75.30355835 C-24.00930295 78.78406737 -24.05517652 82.26396075 -24.10374451 85.74423218 C-24.10699738 86.81941605 -24.11025024 87.89459991 -24.11360168 89.00236511 C-24.20394817 94.51550521 -24.39712764 98.6614752 -27.58030701 103.38095093 C-32.98789563 108.26096993 -36.43869167 108.74000135 -43.59593201 108.65438843 C-47.65784474 108.28222365 -49.66491297 107.22346011 -52.58030701 104.38095093 C-57.12205727 98.17730447 -57.16685372 92.88335637 -57.11155701 85.34188843 C-57.11538391 84.18403839 -57.11921082 83.02618835 -57.12315369 81.83325195 C-57.12586937 79.38739145 -57.11853244 76.94150174 -57.10179138 74.49569702 C-57.08049574 70.78880408 -57.10154626 67.08387533 -57.12718201 63.37704468 C-57.12453639 60.99032171 -57.1194066 58.60359995 -57.11155701 56.21688843 C-57.11965393 55.12476044 -57.12775085 54.03263245 -57.13609314 52.90740967 C-56.96738354 38.756959 -52.02140155 25.23849838 -42.51780701 14.63095093 C-30.35775856 3.48196269 -16.08567335 -0.08792389 0 0 Z " fill="#010000" transform="translate(106.58030700683594,49.619049072265625)"/>
<path d="M0 0 C4.03654111 1.9828623 6.6500056 4.16579861 9 8 C10.05616834 11.16850502 10.13072341 13.42513013 10.1418457 16.75317383 C10.15239738 18.52565239 10.15239738 18.52565239 10.16316223 20.3339386 C10.16732651 21.61205917 10.17149078 22.89017975 10.17578125 24.20703125 C10.19303857 26.21367393 10.21031948 28.22031674 10.22898388 30.22694683 C10.27452901 35.1770666 10.31229871 40.1270747 10.32592773 45.07739258 C10.33407207 47.85385366 10.35266795 50.62986475 10.38285828 53.40617371 C10.41099277 56.02040099 10.42392044 58.63484607 10.41999817 61.2492218 C10.50247787 69.93265578 10.50247787 69.93265578 15 77 C19.06921522 80.57597702 22.43493655 81.1240722 27.75317383 81.1418457 C28.9348262 81.14888016 30.11647858 81.15591461 31.3339386 81.16316223 C33.25111946 81.16940865 33.25111946 81.16940865 35.20703125 81.17578125 C37.21367393 81.19303857 39.22031674 81.21031948 41.22694683 81.22898388 C46.1770666 81.27452901 51.1270747 81.31229871 56.07739258 81.32592773 C58.85385366 81.33407207 61.62986475 81.35266795 64.40617371 81.38285828 C67.02040099 81.41099277 69.63484607 81.42392044 72.2492218 81.41999817 C83.22022365 81.571892 83.22022365 81.571892 88 86 C91.11517742 89.7984017 92.33784471 93.7386119 92 98.625 C91.08073835 103.95671756 88.91769529 107.60967092 84.5 110.8125 C80.36368725 112.77724856 76.88386679 113.12600869 72.31689453 113.1418457 C70.60459152 113.15239738 70.60459152 113.15239738 68.85769653 113.16316223 C67.6284848 113.16732651 66.39927307 113.17149078 65.1328125 113.17578125 C62.52993979 113.19897521 59.92707518 113.22309237 57.32421875 113.24804688 C53.22053991 113.28443253 49.11701238 113.31421088 45.01318359 113.32592773 C41.05277975 113.33797367 37.09299157 113.38159145 33.1328125 113.42578125 C31.90764923 113.42387283 30.68248596 113.42196442 29.42019653 113.41999817 C20.87768744 113.4943015 20.87768744 113.4943015 14 118 C11.3291723 121.74152144 10.62676017 124.2824139 10.63110352 128.85668945 C10.62422012 130.01171463 10.61733673 131.16673981 10.61024475 132.35676575 C10.61948219 134.21624092 10.61948219 134.21624092 10.62890625 136.11328125 C10.61597129 138.07467798 10.60301352 140.03607485 10.58873653 141.99746227 C10.55880269 146.81946049 10.56222003 151.64155193 10.56420898 156.46362305 C10.56425036 159.17261999 10.55360795 161.88122032 10.53245544 164.59013367 C10.51381383 167.13548604 10.51181795 169.68103001 10.52870178 172.22639465 C10.46780854 179.29217967 9.86337344 184.01841542 6 190 C2.11272188 193.52567085 -1.54783686 194.80453004 -6.69140625 195.16015625 C-11.95325645 194.79512096 -15.56121137 192.55433028 -19.08251953 188.75024414 C-22.38534514 183.64537485 -21.54180352 177.34788675 -21.50390625 171.5 C-21.51830122 169.49987559 -21.53271208 167.49975114 -21.5480566 165.49963379 C-21.56496702 162.70773817 -21.56448079 159.9159617 -21.56335449 157.12402344 C-21.56138892 152.23817742 -21.56837209 147.35252806 -21.60325623 142.46679688 C-21.6200528 139.86919388 -21.62291423 137.27145452 -21.61024475 134.67382812 C-21.61712814 133.49240234 -21.62401154 132.31097656 -21.63110352 131.09375 C-21.63014175 130.05927734 -21.62917999 129.02480469 -21.62818909 127.95898438 C-22.23327017 123.14356504 -23.9797904 119.92067695 -27.5625 116.6875 C-31.25007384 114.13456426 -33.17255637 113.87009615 -37.63964844 113.84228516 C-38.82137634 113.83202301 -40.00310425 113.82176086 -41.22064209 113.81118774 C-42.50392395 113.80388641 -43.78720581 113.79658508 -45.109375 113.7890625 C-47.11818937 113.76818127 -49.12700373 113.74728262 -51.13580704 113.72536278 C-56.09795618 113.67218676 -61.0601132 113.62804542 -66.02246094 113.59863281 C-68.80305847 113.58170825 -71.58337996 113.55698724 -74.36383057 113.52377319 C-76.98363049 113.49281807 -79.60359751 113.47338861 -82.22357178 113.46670532 C-84.0150766 113.44185562 -84.0150766 113.44185562 -85.84277344 113.41650391 C-86.88931091 113.40841705 -87.93584839 113.4003302 -89.01409912 113.39199829 C-93.83684607 112.75885317 -97.06953342 111.03105756 -100.3125 107.4375 C-103.90519566 102.24805071 -103.58136105 97.17696114 -103 91 C-100.81488236 86.38697386 -98.50584696 84.26463349 -94 82 C-91.17472839 81.62818909 -91.17472839 81.62818909 -88.05151367 81.63110352 C-86.87646774 81.62422012 -85.70142181 81.61733673 -84.49076843 81.61024475 C-83.22924454 81.61640305 -81.96772064 81.62256134 -80.66796875 81.62890625 C-78.67266959 81.6159714 -76.67737028 81.60301374 -74.68208027 81.58873653 C-69.77598233 81.55879848 -64.86979266 81.56222021 -59.96362305 81.56420898 C-57.20755034 81.56425036 -54.45186758 81.55361082 -51.69587708 81.53245544 C-49.10600859 81.51380953 -46.51595176 81.51182198 -43.92607117 81.52870178 C-36.81971278 81.46849402 -32.00702 80.91164198 -26 77 C-22.38060291 72.3298102 -21.87784651 68.0043501 -21.8581543 62.22509766 C-21.85111984 61.06354156 -21.84408539 59.90198547 -21.83683777 58.70523071 C-21.83059135 56.82860245 -21.83059135 56.82860245 -21.82421875 54.9140625 C-21.80696141 52.94349438 -21.78968049 50.97292613 -21.77101612 49.00237083 C-21.72551557 44.14841905 -21.68769039 39.29458325 -21.67407227 34.44042969 C-21.6659274 31.71523947 -21.64733231 28.99050765 -21.61714172 26.26547241 C-21.58902131 23.7013267 -21.57607753 21.13695925 -21.58000183 18.57266235 C-21.42760414 7.78011388 -21.42760414 7.78011388 -17 3 C-11.78159935 -1.05304353 -6.34263919 -0.78208695 0 0 Z " fill="#FBE83A" transform="translate(262,159)"/>
<path d="M0 0 C3.95425676 3.37847633 5.66296268 7.32777385 6.32085419 12.3492651 C6.33956883 13.73995607 6.33684185 15.13104831 6.31628418 16.52171326 C6.32330266 17.67990502 6.32330266 17.67990502 6.33046293 18.8614946 C6.3413437 21.43331818 6.32394497 24.00415135 6.30664062 26.57592773 C6.30882779 28.42602832 6.31282652 30.27612751 6.3184967 32.1262207 C6.32704909 36.10297881 6.32329565 40.07946676 6.31007385 44.05621147 C6.28971172 50.34738346 6.29972561 56.63828402 6.31433105 62.92945862 C6.34334635 77.42018776 6.33263767 91.91083676 6.32163239 106.40158081 C6.31195418 119.68222576 6.31069038 132.9627289 6.34151316 146.24334961 C6.35487541 152.4942056 6.34894276 158.74465363 6.32814789 164.99548519 C6.31915159 168.88768448 6.32664529 172.77972708 6.3385601 176.67191315 C6.34068779 178.47301579 6.33598788 180.27414181 6.32385445 182.07520485 C6.30818885 184.54005341 6.31724693 187.00366395 6.33215332 189.4684906 C6.31641998 190.52945809 6.31641998 190.52945809 6.30036879 191.61185926 C6.37269723 197.00760976 7.92315476 201.09780453 10.82421875 205.55859375 C15.59264171 210.09441071 19.12810318 210.68237937 25.57128906 210.71630859 C26.2529866 210.72138931 26.93468414 210.72647003 27.63703918 210.73170471 C29.11680063 210.74239893 30.59657815 210.75102283 32.07636261 210.75782394 C34.42255531 210.76963298 36.7685656 210.78909228 39.11468506 210.8109436 C45.78521608 210.8724822 52.45572905 210.92652893 59.12646484 210.95996094 C63.20847438 210.98096834 67.29015194 211.01632208 71.37197113 211.06071854 C72.92357207 211.07483319 74.47523175 211.08359069 76.02689362 211.08677292 C78.20480291 211.09171108 80.38183991 211.11494245 82.55957031 211.14208984 C84.41464203 211.15422012 84.41464203 211.15422012 86.30718994 211.16659546 C92.22122038 211.82575691 96.97527432 213.85432834 100.82421875 218.55859375 C103.34390535 222.86381367 103.35965978 226.68013101 102.82421875 231.55859375 C100.99994969 236.82870437 98.25170189 239.39610579 93.82421875 242.55859375 C90.23798527 243.83555858 86.65187305 243.70582345 82.87524414 243.7355957 C82.18353119 243.7421669 81.49181824 243.7487381 80.77914429 243.75550842 C78.49338657 243.77518855 76.20769469 243.7868976 73.921875 243.796875 C73.13639219 243.80095053 72.35090939 243.80502605 71.54162407 243.80922508 C67.37695456 243.83007209 63.21231778 243.84437479 59.04760742 243.85375977 C54.77774412 243.86476873 50.50840993 243.89910779 46.23873234 243.93893147 C42.92953124 243.96528506 39.62045208 243.97346847 36.31115532 243.97704124 C34.73931783 243.98186591 33.16748423 243.99335983 31.59575081 244.01207924 C14.18433134 244.20641496 -0.01688825 240.07584997 -12.8828125 228.0078125 C-22.0722103 218.19222064 -26.32634764 205.0444663 -26.32295227 191.79801941 C-26.3284673 190.63626559 -26.3284673 190.63626559 -26.33409375 189.451042 C-26.34509424 186.85952578 -26.3489682 184.2680497 -26.3527832 181.67651367 C-26.35905047 179.81685764 -26.36569751 177.95720286 -26.37269592 176.09754944 C-26.39370294 169.99472928 -26.40409345 163.89190895 -26.4140625 157.7890625 C-26.41811096 155.68641967 -26.42222791 153.58377698 -26.42641258 151.48113441 C-26.44545488 141.6043898 -26.45968935 131.72765263 -26.46802455 121.8508932 C-26.47780132 110.45480361 -26.50413642 99.05890802 -26.54452544 87.6628868 C-26.57468678 78.84999336 -26.58949335 70.03715556 -26.59280556 61.22421151 C-26.59515551 55.96233112 -26.60410938 50.70065822 -26.62926674 45.43883324 C-26.65255346 40.48854185 -26.65677822 35.53859453 -26.64650536 30.58826256 C-26.64601008 28.77425492 -26.6523282 26.96023029 -26.6660614 25.14627457 C-26.68380035 22.66381257 -26.6766651 20.18258286 -26.66352844 17.70011902 C-26.67449769 16.98755217 -26.68546693 16.27498533 -26.69676858 15.54082555 C-26.62860212 10.18109916 -25.17730071 5.94333454 -22.17578125 1.55859375 C-15.49562868 -4.3283857 -7.65234656 -3.60959743 0 0 Z " fill="#010000" transform="translate(76.17578125,218.44140625)"/>
<path d="M0 0 C5.18737608 2.31579289 7.81617719 5.84505463 10 11 C10.36846377 13.84804197 10.53962974 16.29677836 10.50170898 19.1315918 C10.50981346 20.30390099 10.50981346 20.30390099 10.51808167 21.49989319 C10.53052017 24.06672839 10.51410355 26.6324305 10.49609375 29.19921875 C10.49624893 30.99892739 10.49774106 32.79863637 10.50050354 34.5983429 C10.50188563 38.36673803 10.48936766 42.13475173 10.46655273 45.90307617 C10.43827112 50.70314518 10.44088017 55.50257601 10.45364285 60.30269146 C10.46064476 64.02022116 10.45275793 67.73760688 10.44038582 71.45511818 C10.43590776 73.22311664 10.43550218 74.99113076 10.43945122 76.75913048 C10.46174443 95.53241113 7.48146206 110.50501921 -6.12109375 124.296875 C-18.86493562 136.26259898 -34.91335143 137.60722729 -51.54858398 137.53344727 C-53.25208781 137.54052418 -54.95558536 137.54927655 -56.65907288 137.55955505 C-61.23719335 137.58184602 -65.81496491 137.57915958 -70.39311862 137.57023358 C-74.22800211 137.565089 -78.06282201 137.5724432 -81.89769894 137.57970566 C-90.94284336 137.59663598 -99.98781873 137.59320364 -109.03295898 137.57641602 C-118.34739198 137.55945197 -127.66135777 137.57540344 -136.9757399 137.6076389 C-144.99906601 137.6343484 -153.02224678 137.64160859 -161.04561287 137.63312382 C-165.82669699 137.62820467 -170.60749935 137.63035718 -175.3885479 137.65091133 C-179.87783117 137.66929335 -184.36644081 137.66327932 -188.8556881 137.63871193 C-190.4987581 137.63371444 -192.14187973 137.63716619 -193.78490829 137.64986038 C-210.120697 137.76606056 -210.120697 137.76606056 -216 132 C-219.62826621 127.12451728 -219.81811632 121.86626592 -219 116 C-217.41170565 111.0176719 -214.49406335 108.29437879 -209.92627728 105.81388676 C-206.81674718 104.50005442 -203.98247722 104.50064941 -200.63084412 104.50120544 C-199.92264198 104.49582089 -199.21443984 104.49043634 -198.48477703 104.48488861 C-196.12938384 104.47169291 -193.77504701 104.48672037 -191.41967773 104.50170898 C-189.72396366 104.49788316 -188.02825283 104.49226187 -186.33255005 104.48498535 C-182.68973442 104.47305599 -179.04720713 104.47350753 -175.40438652 104.48357964 C-169.64302608 104.4991645 -163.8819608 104.48544625 -158.12062073 104.46754456 C-146.93258324 104.43675188 -135.74463636 104.43522267 -124.55656433 104.43719482 C-110.31184923 104.43858856 -96.06720361 104.42824623 -81.82253987 104.3886171 C-76.09637529 104.37368616 -70.37047273 104.37395128 -64.64430416 104.38609493 C-61.08217796 104.39080625 -57.52015204 104.3832857 -53.95804214 104.37255096 C-52.30768448 104.37014533 -50.65731001 104.37287839 -49.00697136 104.38115883 C-46.75177374 104.39179667 -44.49734534 104.3840166 -42.24217224 104.37181091 C-40.98103324 104.37239722 -39.71989424 104.37298353 -38.4205389 104.37358761 C-34.01522095 103.89244348 -30.64429842 102.49978763 -27.35546875 99.5 C-23.3393017 94.34211322 -22.85359246 90.68204282 -22.8581543 84.33496094 C-22.85467987 83.55572769 -22.85120544 82.77649445 -22.84762573 81.97364807 C-22.84027407 80.28107161 -22.83492554 78.58848553 -22.83133507 76.89589691 C-22.82416336 74.21366077 -22.80849078 71.53160691 -22.78999329 68.84942627 C-22.73756215 61.22304813 -22.6895665 53.59676929 -22.67407227 45.97021484 C-22.66397222 41.30461936 -22.63459551 36.63948194 -22.59275246 31.97406769 C-22.58046521 30.19917521 -22.57531704 28.42421797 -22.57755089 26.64928436 C-22.57991261 24.15990097 -22.55767244 21.6718236 -22.5300293 19.18261719 C-22.53663071 18.45508743 -22.54323212 17.72755768 -22.55003357 16.97798157 C-22.43035784 10.38513435 -20.20454718 6.1494335 -15.5 1.5625 C-10.3221111 -0.74905755 -5.5801538 -0.7435095 0 0 Z " fill="#010000" transform="translate(452,325)"/>
</svg>
