<?xml version="1.0" encoding="UTF-8"?>
<svg version="1.1" xmlns="http://www.w3.org/2000/svg" width="512" height="512">
<path d="M0 0 C1.20124008 -0.0071553 2.40248016 -0.01431061 3.64012146 -0.02168274 C4.95496521 -0.02437164 6.26980896 -0.02706055 7.62449646 -0.02983093 C9.02594164 -0.03609894 10.42738517 -0.04274604 11.8288269 -0.04974365 C16.42924347 -0.07075317 21.02966023 -0.08114579 25.63011169 -0.09111023 C27.21727452 -0.09515949 28.80443718 -0.09927646 30.39159966 -0.10346031 C37.85229279 -0.12250822 45.31297608 -0.13673791 52.77368885 -0.14507228 C61.36702224 -0.15483183 69.96009716 -0.18111933 78.55333954 -0.22157317 C85.20661776 -0.25181192 91.85982224 -0.26654864 98.5131678 -0.26985329 C102.48130298 -0.27219569 106.44916193 -0.28104923 110.41722298 -0.30631447 C114.15607777 -0.32973545 117.89447724 -0.33377282 121.63338661 -0.32355309 C123.64349415 -0.32282805 125.65357929 -0.34182189 127.66358948 -0.36161804 C138.3411391 -0.30089385 147.48363722 1.60130006 155.40354919 9.14717102 C160.58178404 15.15908993 163.25929676 21.37827862 163.23973083 29.28291321 C163.2396553 30.30366943 163.23957977 31.32442566 163.23950195 32.37611389 C163.23434067 33.47103149 163.22917938 34.5659491 163.22386169 35.69404602 C163.22173927 37.38355377 163.22173927 37.38355377 163.21957397 39.10719299 C163.21397744 42.70387937 163.20142554 46.30050346 163.18870544 49.89717102 C163.18369 52.3359722 163.17912717 54.77477436 163.17503357 57.21357727 C163.16400914 63.1914631 163.14727443 69.16931261 163.12620544 75.14717102 C164.4319754 75.13606796 165.73774536 75.1249649 167.08308411 75.11352539 C179.41202159 75.01199646 191.74087382 74.93713197 204.07013512 74.88811016 C210.40817619 74.86205989 216.74587871 74.82674433 223.08372498 74.76997375 C229.20456375 74.71549253 235.32507768 74.68571613 241.44614029 74.67278481 C243.77685787 74.66357395 246.10755844 74.6455873 248.43813705 74.61852074 C251.71263765 74.58201757 254.9858102 74.57723473 258.26048279 74.57954407 C259.69332108 74.5525795 259.69332108 74.5525795 261.15510559 74.52507019 C269.35480207 74.58730101 275.00986073 77.62123222 281.87620544 81.83467102 C294.16017478 94.45986172 292.42764378 111.12811191 292.39183044 127.49092102 C292.39317999 129.66845238 292.39512293 131.84598345 292.39762878 134.02351379 C292.40056641 138.57241198 292.39632636 143.12123127 292.38694763 147.67012024 C292.375554 153.47670016 292.38212078 159.28309513 292.39409256 165.08966827 C292.40134801 169.58173495 292.39900635 174.07375838 292.39383698 178.56582642 C292.39251066 180.70587181 292.39411217 182.84592124 292.39879608 184.98596191 C292.4494632 214.63635796 292.4494632 214.63635796 282.81370544 225.83467102 C275.26745142 232.32795937 269.55158272 234.30967836 259.64183044 234.24482727 C258.82623657 234.24341232 258.0106427 234.24199738 257.17033386 234.24053955 C254.57225333 234.23495405 251.97425981 234.22240423 249.37620544 234.20967102 C247.61188377 234.20465415 245.84756075 234.20009157 244.08323669 234.19599915 C239.76419289 234.18498937 235.44521391 234.16773471 231.12620544 234.14717102 C231.14191589 235.34317932 231.15762634 236.53918762 231.17381287 237.7714386 C231.22807605 242.20496395 231.26254234 246.6384599 231.29100037 251.07221985 C231.30609524 252.9918664 231.32657317 254.91147842 231.3525238 256.83100891 C231.38887653 259.58882666 231.40592456 262.34618882 231.41917419 265.10420227 C231.44239998 266.39340324 231.44239998 266.39340324 231.46609497 267.70864868 C231.46632156 268.50925217 231.46654816 269.30985565 231.46678162 270.13471985 C231.47344345 270.83865372 231.48010529 271.54258759 231.48696899 272.26785278 C231.00949373 274.75515497 230.13067421 275.63763753 228.12620544 277.14717102 C224.91014099 277.39912415 224.91014099 277.39912415 221.12620544 276.14717102 C218.23653469 273.43111357 215.96621778 270.27562994 213.58323669 267.11592102 C195.11843523 243.59779555 195.11843523 243.59779555 168.46060181 232.65312195 C155.45994895 231.53797749 142.18820852 232.23603072 129.24636841 233.70617676 C120.84015402 234.57826328 115.60504779 233.16353423 108.63792419 228.47138977 C102.75781227 223.19565766 97.66026719 216.78165455 96.88569641 208.60974121 C96.89013763 207.71483475 96.89457886 206.81992828 96.89915466 205.89790344 C96.89930573 204.87722275 96.89945679 203.85654205 96.89961243 202.80493164 C96.91509628 201.17029716 96.91509628 201.17029716 96.93089294 199.50263977 C96.93372284 198.37771622 96.93655273 197.25279266 96.93946838 196.09378052 C96.95064708 192.50730166 96.97574782 188.92107417 97.00120544 185.33467102 C97.01123821 182.90042984 97.02036355 180.46618474 97.02854919 178.03193665 C97.05057888 172.0702626 97.0840337 166.10873477 97.12620544 160.14717102 C89.85960525 159.00312247 82.859875 158.68980732 76.49919128 162.87617493 C70.21053996 168.10844528 64.6836269 174.13100112 59.17564392 180.16358948 C56.01415501 183.60745032 52.78311372 186.9862245 49.55731201 190.3697052 C47.8501547 192.16810342 46.15771797 193.98061838 44.48208618 195.8084259 C43.71971146 196.62597351 42.95733673 197.44352112 42.17185974 198.2858429 C41.50889389 199.00896667 40.84592804 199.73209045 40.16287231 200.47712708 C37.77322163 202.43661378 36.19072228 202.92609838 33.12620544 203.14717102 C30.83811951 201.76728821 30.83811951 201.76728821 29.12620544 199.14717102 C28.58863872 196.16463671 28.66062899 193.24741194 28.73558044 190.22529602 C28.74124023 189.36531006 28.74690002 188.5053241 28.75273132 187.61927795 C28.77508594 184.87800453 28.82527942 182.13804798 28.87620544 179.39717102 C28.89627168 177.53651284 28.91452224 175.67583413 28.93089294 173.81513977 C28.9749476 169.25864436 29.0439679 164.7031308 29.12620544 160.14717102 C27.65981628 160.17073669 27.65981628 160.17073669 26.1638031 160.19477844 C22.49233941 160.24960492 18.82091093 160.28371007 15.14915466 160.31196594 C13.56836333 160.32693373 11.98761266 160.34731539 10.40696716 160.37348938 C-1.13187721 160.55959977 -11.64492284 160.59307701 -21.05348206 152.95576477 C-26.64127747 147.40394229 -31.10860492 140.30056423 -31.14122009 132.27857971 C-31.14975006 131.32549927 -31.15828003 130.37241882 -31.16706848 129.39045715 C-31.16616211 128.35658875 -31.16525574 127.32272034 -31.1643219 126.25752258 C-31.17103912 125.15934204 -31.17775635 124.0611615 -31.18467712 122.92970276 C-31.20367532 119.29902114 -31.20758247 115.66852426 -31.20973206 112.03779602 C-31.21615938 109.51059391 -31.22288769 106.98339256 -31.22990417 104.45619202 C-31.241882 99.15687536 -31.24567026 93.85762739 -31.24440002 88.55830383 C-31.24320013 82.45012631 -31.26427472 76.34230299 -31.29588735 70.23421502 C-31.32529056 64.34117441 -31.33237338 58.44824093 -31.33118057 52.55512238 C-31.33353637 50.05615036 -31.34235863 47.55717556 -31.35784531 45.05825043 C-31.37751133 41.55667026 -31.37166354 38.0559933 -31.3596344 34.55439758 C-31.37087341 33.5286261 -31.38211243 32.50285461 -31.39369202 31.44599915 C-31.31169817 22.02034857 -28.3375751 14.86256854 -21.94020081 7.94013977 C-15.58454039 2.42549302 -8.27525974 0.03387595 0 0 Z " fill="#42A1FD" transform="translate(176.87379455566406,42.85282897949219)"/>
<path d="M0 0 C4.68930378 0.54614381 9.37955197 1.08370859 14.0703125 1.6171875 C15.79212486 1.81359077 15.79212486 1.81359077 17.54872131 2.01396179 C37.00774142 4.19177282 56.52546863 5.40772721 76.0871582 6.15405273 C90.55220672 6.71892176 106.0559584 7.47377089 117.4921875 17.50390625 C122.35987883 23.21038055 125.04690827 30.43523776 124.9375 37.875 C124.92847656 38.67421875 124.91945313 39.4734375 124.91015625 40.296875 C124.89275391 41.20179688 124.89275391 41.20179688 124.875 42.125 C155.05799255 33.69151679 185.01965677 24.68514145 214.58349609 14.28222656 C262.91338099 -2.70958878 262.91338099 -2.70958878 283.25 7 C284.47096683 7.68632759 285.68100497 8.39275591 286.875 9.125 C287.761875 9.66125 288.64875 10.1975 289.5625 10.75 C295.31083143 16.65369174 297.204741 22.62385276 297.375 30.8125 C296.95435972 40.77766864 296.95435972 40.77766864 293.875 45.125 C287.2485699 50.46438131 279.85036672 54.54957213 272.3125 58.4375 C271.1682959 59.02869629 270.0240918 59.61989258 268.84521484 60.22900391 C252.39413803 68.61792011 235.34055972 75.75399713 218.38415527 83.04486084 C214.54750135 84.69646056 210.71512267 86.35788341 206.8828125 88.01953125 C200.94884273 90.59111815 195.01228449 93.15663687 189.07421875 95.71875 C177.85308605 100.56154858 166.64261215 105.42888956 155.43188477 110.29571533 C151.9580524 111.80357895 148.4839479 113.31081387 145.00976562 114.81787109 C135.56888853 118.91366853 126.12830347 123.00992715 116.69921875 127.1328125 C53.21709899 154.8768536 53.21709899 154.8768536 15.75 150.6875 C15.01131683 150.60663147 14.27263367 150.52576294 13.51156616 150.44244385 C-5.14589422 148.37115968 -23.66345051 145.32137693 -42.18603516 142.29907227 C-72.29697688 137.3948842 -101.68552759 134.28138219 -132.125 138.125 C-133.18219238 138.25382568 -133.18219238 138.25382568 -134.26074219 138.38525391 C-141.18996807 139.08408666 -141.18996807 139.08408666 -146.55078125 142.95703125 C-147.54719857 145.00793205 -147.54719857 145.00793205 -148.0234375 147.08984375 C-149.78910414 150.35194418 -152.80772491 151.74058117 -156.125 153.125 C-158.98255067 153.66115689 -161.75452705 153.68752494 -164.65625 153.65625 C-165.45099731 153.6600769 -166.24574463 153.66390381 -167.0645752 153.66784668 C-168.73528316 153.67055367 -170.4060344 153.66327783 -172.07666016 153.64648438 C-174.61848388 153.62505494 -177.15748182 153.64632497 -179.69921875 153.671875 C-181.33073534 153.66923151 -182.96225018 153.66410607 -184.59375 153.65625 C-185.34499146 153.66434692 -186.09623291 153.67244385 -186.87023926 153.68078613 C-192.36772888 153.58419819 -195.64272612 152.36389388 -200.125 149.125 C-202.73499798 145.53830065 -203.50135964 143.03725543 -203.51268005 138.62879944 C-203.52258469 137.53675705 -203.53248932 136.44471466 -203.54269409 135.31958008 C-203.53819244 134.13138672 -203.5336908 132.94319336 -203.52905273 131.71899414 C-203.53591599 130.45993759 -203.54277924 129.20088104 -203.54985046 127.90367126 C-203.56777083 124.45731934 -203.56661567 121.01122219 -203.56090808 117.56483769 C-203.55781448 114.68463833 -203.5639106 111.80448778 -203.56994683 108.92429537 C-203.58398683 102.12795562 -203.58243527 95.33174159 -203.57104492 88.53540039 C-203.55956475 81.53080388 -203.57363855 74.52659029 -203.6004414 67.52204424 C-203.62261395 61.50148993 -203.62923228 55.48105569 -203.62336498 49.46046346 C-203.61999781 45.86755702 -203.6223942 42.274896 -203.63961601 38.682024 C-203.65798722 34.6745703 -203.64388228 30.66785936 -203.62670898 26.66040039 C-203.63637695 25.47423126 -203.64604492 24.28806213 -203.65600586 23.06594849 C-203.59978328 16.80653064 -203.43754427 12.82768889 -199.125 8.125 C-194.36188073 4.8860447 -190.21513265 4.68211797 -184.65625 4.7265625 C-183.85771606 4.72369232 -183.05918213 4.72082214 -182.2364502 4.71786499 C-180.55557543 4.71583217 -178.87467658 4.72130711 -177.19384766 4.73388672 C-174.63259589 4.74995235 -172.0729219 4.73401222 -169.51171875 4.71484375 C-167.87239238 4.71682632 -166.23306698 4.72067029 -164.59375 4.7265625 C-163.45444031 4.71745346 -163.45444031 4.71745346 -162.29211426 4.7081604 C-157.51925332 4.7707647 -154.28391529 5.54725722 -150.125 8.125 C-147.125 11.425 -147.125 11.425 -147.125 14.125 C-129.9788896 12.61805353 -113.46075038 10.01961384 -96.72998047 5.99267578 C-90.78301812 4.56131291 -84.82601228 3.17307016 -78.86978149 1.78088379 C-76.92352041 1.32389281 -74.97870595 0.86075462 -73.03393555 0.39746094 C-71.84195557 0.11547852 -70.64997559 -0.16650391 -69.421875 -0.45703125 C-68.37354492 -0.70686768 -67.32521484 -0.9567041 -66.24511719 -1.21411133 C-44.70040363 -5.77761208 -21.62090648 -2.59186586 0 0 Z " fill="#F8C694" transform="translate(209.125,315.875)"/>
<path d="M0 0 C1.1633638 -0.00852997 2.3267276 -0.01705994 3.52534485 -0.02584839 C4.7878154 -0.02494202 6.05028595 -0.02403564 7.35101318 -0.02310181 C8.70511748 -0.02909169 10.05921837 -0.03589829 11.41331482 -0.04345703 C15.08088774 -0.0610799 18.74836726 -0.0658109 22.41597843 -0.0670886 C24.71131668 -0.06851315 27.00663141 -0.07278853 29.30196381 -0.07808304 C37.32109578 -0.09657274 45.34016138 -0.10475519 53.35931396 -0.10317993 C60.81541799 -0.1019796 68.27123204 -0.12306325 75.72726274 -0.15466726 C82.14363654 -0.18088796 88.559916 -0.19154477 94.97634292 -0.19026911 C98.80188054 -0.18976107 102.62716045 -0.19535581 106.45264435 -0.21662521 C110.05448018 -0.23610517 113.65581511 -0.2360664 117.25766945 -0.22159195 C119.19517594 -0.21853091 121.132683 -0.23511281 123.07011414 -0.25247192 C131.02679174 -0.19564753 138.8503558 0.45864682 145.00706863 6.01748085 C150.83966079 12.31962805 151.36948034 18.20330842 151.37518311 26.49862671 C151.38350662 27.52692596 151.39183014 28.55522522 151.40040588 29.61468506 C151.42449478 33.01329339 151.43327766 36.41170964 151.43988037 39.81039429 C151.44884899 42.17825884 151.45797088 44.54612281 151.46723938 46.91398621 C151.48372995 51.87955094 151.49142938 56.84504826 151.49432373 61.81063843 C151.49970115 68.15802162 151.53735541 74.50476651 151.58306789 80.85196972 C151.61288743 85.74462669 151.6200484 90.63713105 151.62104988 95.52987099 C151.625244 97.86893951 151.63764561 100.20800882 151.65856743 102.54698753 C151.68557606 105.82821189 151.68062669 109.10797107 151.66815186 112.38925171 C151.69040329 113.82433327 151.69040329 113.82433327 151.71310425 115.28840637 C151.63082523 122.93038355 149.58726634 129.72339071 144.09082603 135.25975227 C137.70410181 140.53103822 130.59535572 140.01391917 122.68988037 139.82601929 C121.30944538 139.81947841 119.92898855 139.816622 118.54853821 139.81724548 C113.46438916 139.81222471 108.38147561 139.746565 103.2979126 139.67294312 C98.98647976 139.6117982 94.67670635 139.57887046 90.3648243 139.58473396 C88.35945717 139.57620879 86.35439998 139.52646126 84.34965515 139.4757843 C76.32649781 139.46811668 76.32649781 139.46811668 69.59417725 143.39877319 C68.39167713 144.66284032 67.2151343 145.95222242 66.06878662 147.26742554 C64.95165668 148.36513062 63.82819488 149.45643584 62.69793701 150.5406189 C61.60160942 151.64369369 60.50782682 152.74930302 59.41644287 153.85726929 C58.83084091 154.44665787 58.24523895 155.03604645 57.64189148 155.64329529 C55.80252708 157.49471635 53.96650692 159.34939718 52.13128662 161.20492554 C49.6875089 163.67520776 47.24048524 166.14220771 44.79144287 168.60726929 C44.23110855 169.17590195 43.67077423 169.74453461 43.09346008 170.33039856 C41.77068134 171.66166719 40.42235757 172.96747729 39.06878662 174.26742554 C38.73878662 174.26742554 38.40878662 174.26742554 38.06878662 174.26742554 C38.0542041 173.34405396 38.03962158 172.42068237 38.02459717 171.46932983 C37.96352354 168.04165349 37.88937052 164.61477891 37.80633545 161.18759155 C37.77309239 159.70462699 37.74505839 158.2215361 37.72235107 156.7383728 C37.68879194 154.60558261 37.63648025 152.47394942 37.58050537 150.34164429 C37.55432129 149.05862427 37.52813721 147.77560425 37.50115967 146.45370483 C37.03089608 142.98819944 36.75255189 142.31609572 34.06878662 140.26742554 C32.09444529 139.83206231 32.09444529 139.83206231 29.90789795 139.91439819 C29.07305374 139.91074249 28.23820953 139.90708679 27.37806702 139.90332031 C26.4780748 139.91261566 25.57808258 139.92191101 24.65081787 139.93148804 C22.73740307 139.91896874 20.82399159 139.90593131 18.9105835 139.89242554 C15.89996406 139.88850578 12.88967674 139.8923846 9.87908936 139.90707397 C6.96916837 139.91568958 4.06061845 139.8938778 1.15081787 139.86898804 C0.26094681 139.88233185 -0.62892426 139.89567566 -1.54576111 139.90942383 C-7.88775982 139.83516322 -11.98449279 138.25108954 -16.93121338 134.26742554 C-23.08382745 127.95290057 -23.23192031 121.15142362 -23.23760986 112.79916382 C-23.24593338 111.75775238 -23.2542569 110.71634094 -23.26283264 109.64337158 C-23.28688565 106.20812214 -23.29569861 102.7730627 -23.30230713 99.33773804 C-23.31127617 96.94409123 -23.32039807 94.55044499 -23.32966614 92.15679932 C-23.34614532 87.1417403 -23.35385447 82.12674797 -23.35675049 77.11166382 C-23.36213674 70.6934931 -23.39983241 64.275951 -23.44549465 57.85795784 C-23.47527063 52.91477175 -23.48247416 47.97173706 -23.48347664 43.02846909 C-23.48767688 40.6626281 -23.50010318 38.29678657 -23.52099419 35.93103409 C-23.54792157 32.6183804 -23.54307825 29.30718445 -23.53057861 25.99447632 C-23.5454129 25.02278503 -23.56024719 24.05109375 -23.57553101 23.04995728 C-23.49769914 15.78738923 -21.48649364 11.02302284 -16.48848629 5.74341011 C-11.57552721 1.30304872 -6.48427588 0.0215926 0 0 Z " fill="#FBC62D" transform="translate(178.93121337890625,52.732574462890625)"/>
<path d="M0 0 C4.68930378 0.54614381 9.37955197 1.08370859 14.0703125 1.6171875 C15.79212486 1.81359077 15.79212486 1.81359077 17.54872131 2.01396179 C37.00774142 4.19177282 56.52546863 5.40772721 76.0871582 6.15405273 C90.55220672 6.71892176 106.0559584 7.47377089 117.4921875 17.50390625 C122.35987883 23.21038055 125.04690827 30.43523776 124.9375 37.875 C124.92847656 38.67421875 124.91945313 39.4734375 124.91015625 40.296875 C124.89275391 41.20179688 124.89275391 41.20179688 124.875 42.125 C155.05799255 33.69151679 185.01965677 24.68514145 214.58349609 14.28222656 C262.91338099 -2.70958878 262.91338099 -2.70958878 283.25 7 C284.47096683 7.68632759 285.68100497 8.39275591 286.875 9.125 C287.761875 9.66125 288.64875 10.1975 289.5625 10.75 C295.31083143 16.65369174 297.204741 22.62385276 297.375 30.8125 C296.95435972 40.77766864 296.95435972 40.77766864 293.875 45.125 C287.2485699 50.46438131 279.85036672 54.54957213 272.3125 58.4375 C271.1682959 59.02869629 270.0240918 59.61989258 268.84521484 60.22900391 C252.39413803 68.61792011 235.34055972 75.75399713 218.38415527 83.04486084 C214.54750135 84.69646056 210.71512267 86.35788341 206.8828125 88.01953125 C200.94884273 90.59111815 195.01228449 93.15663687 189.07421875 95.71875 C177.85308605 100.56154858 166.64261215 105.42888956 155.43188477 110.29571533 C151.9580524 111.80357895 148.4839479 113.31081387 145.00976562 114.81787109 C135.56888853 118.91366853 126.12830347 123.00992715 116.69921875 127.1328125 C53.21709899 154.8768536 53.21709899 154.8768536 15.75 150.6875 C15.01131683 150.60663147 14.27263367 150.52576294 13.51156616 150.44244385 C-5.14589422 148.37115968 -23.66345051 145.32137693 -42.18603516 142.29907227 C-72.29697688 137.3948842 -101.68552759 134.28138219 -132.125 138.125 C-133.18219238 138.25382568 -133.18219238 138.25382568 -134.26074219 138.38525391 C-141.18996807 139.08408666 -141.18996807 139.08408666 -146.55078125 142.95703125 C-147.54719857 145.00793205 -147.54719857 145.00793205 -148.0234375 147.08984375 C-149.78910414 150.35194418 -152.80772491 151.74058117 -156.125 153.125 C-158.98255067 153.66115689 -161.75452705 153.68752494 -164.65625 153.65625 C-165.45099731 153.6600769 -166.24574463 153.66390381 -167.0645752 153.66784668 C-168.73528316 153.67055367 -170.4060344 153.66327783 -172.07666016 153.64648438 C-174.61848388 153.62505494 -177.15748182 153.64632497 -179.69921875 153.671875 C-181.33073534 153.66923151 -182.96225018 153.66410607 -184.59375 153.65625 C-185.34499146 153.66434692 -186.09623291 153.67244385 -186.87023926 153.68078613 C-192.36772888 153.58419819 -195.64272612 152.36389388 -200.125 149.125 C-202.73499798 145.53830065 -203.50135964 143.03725543 -203.51268005 138.62879944 C-203.52258469 137.53675705 -203.53248932 136.44471466 -203.54269409 135.31958008 C-203.53819244 134.13138672 -203.5336908 132.94319336 -203.52905273 131.71899414 C-203.53591599 130.45993759 -203.54277924 129.20088104 -203.54985046 127.90367126 C-203.56777083 124.45731934 -203.56661567 121.01122219 -203.56090808 117.56483769 C-203.55781448 114.68463833 -203.5639106 111.80448778 -203.56994683 108.92429537 C-203.58398683 102.12795562 -203.58243527 95.33174159 -203.57104492 88.53540039 C-203.55956475 81.53080388 -203.57363855 74.52659029 -203.6004414 67.52204424 C-203.62261395 61.50148993 -203.62923228 55.48105569 -203.62336498 49.46046346 C-203.61999781 45.86755702 -203.6223942 42.274896 -203.63961601 38.682024 C-203.65798722 34.6745703 -203.64388228 30.66785936 -203.62670898 26.66040039 C-203.63637695 25.47423126 -203.64604492 24.28806213 -203.65600586 23.06594849 C-203.59978328 16.80653064 -203.43754427 12.82768889 -199.125 8.125 C-194.36188073 4.8860447 -190.21513265 4.68211797 -184.65625 4.7265625 C-183.85771606 4.72369232 -183.05918213 4.72082214 -182.2364502 4.71786499 C-180.55557543 4.71583217 -178.87467658 4.72130711 -177.19384766 4.73388672 C-174.63259589 4.74995235 -172.0729219 4.73401222 -169.51171875 4.71484375 C-167.87239238 4.71682632 -166.23306698 4.72067029 -164.59375 4.7265625 C-163.45444031 4.71745346 -163.45444031 4.71745346 -162.29211426 4.7081604 C-157.51925332 4.7707647 -154.28391529 5.54725722 -150.125 8.125 C-147.125 11.425 -147.125 11.425 -147.125 14.125 C-129.9788896 12.61805353 -113.46075038 10.01961384 -96.72998047 5.99267578 C-90.78301812 4.56131291 -84.82601228 3.17307016 -78.86978149 1.78088379 C-76.92352041 1.32389281 -74.97870595 0.86075462 -73.03393555 0.39746094 C-71.84195557 0.11547852 -70.64997559 -0.16650391 -69.421875 -0.45703125 C-68.37354492 -0.70686768 -67.32521484 -0.9567041 -66.24511719 -1.21411133 C-44.70040363 -5.77761208 -21.62090648 -2.59186586 0 0 Z M-87.6875 14.625 C-107.30626795 19.889893 -125.479963 22.47339704 -146.125 24.125 C-146.125 58.775 -146.125 93.425 -146.125 129.125 C-140.32191817 128.40274796 -140.32191817 128.40274796 -134.53125 127.58984375 C-101.00731016 123.06411187 -67.57946933 127.36589964 -34.4907074 132.91372681 C-21.34946695 135.11593689 -8.19440879 137.04814407 5.02197266 138.75048828 C7.54320679 139.08144611 10.05852211 139.4383633 12.57421875 139.80859375 C29.7022993 142.2393049 47.44516958 143.10884492 63.875 137.125 C64.70837891 136.8347998 65.54175781 136.54459961 66.40039062 136.24560547 C80.39537858 131.356236 93.92495688 125.56040822 107.4296875 119.46484375 C115.64385461 115.76195288 123.91296991 112.19049871 132.1875 108.625 C135.37127883 107.25173087 138.5548081 105.87788383 141.73828125 104.50390625 C142.55630722 104.15091461 143.37433319 103.79792297 144.21714783 103.43423462 C156.02404991 98.33702843 167.8144101 93.20166664 179.60522461 88.06738281 C189.20258959 83.8893406 198.80375087 79.72051949 208.41546631 75.57557678 C213.19654044 73.51359551 217.97620661 71.4483606 222.75585938 69.38308716 C225.05234738 68.39191238 227.34952841 67.40234145 229.64746094 66.41452026 C245.34365463 59.66641179 260.8521345 52.76285895 275.6875 44.25 C276.35330078 43.87359375 277.01910156 43.4971875 277.70507812 43.109375 C283.07108747 40.57887162 283.07108747 40.57887162 286.546875 36.27734375 C287.28290998 31.44930479 287.58382571 26.89706427 285.75 22.3125 C281.25706521 17.07074275 275.6521411 14.68799962 268.85107422 13.88647461 C245.13121466 12.39815895 223.61386249 21.86076152 201.70237732 29.69358826 C180.17786925 37.38062352 158.38319523 44.97492224 135.89453125 49.31640625 C123.16491662 51.77581881 123.16491662 51.77581881 114 60.62890625 C105.33406218 70.80819719 86.32673736 74.57542028 73.47370911 75.92672729 C68.58014354 76.30008978 63.6865679 76.26699455 58.78125 76.2578125 C57.63571655 76.25876923 56.49018311 76.25972595 55.30993652 76.26071167 C52.89282171 76.2613895 50.47570503 76.25956299 48.05859375 76.25537109 C44.41401935 76.25005689 40.76957041 76.2553092 37.125 76.26171875 C8.13483176 76.27311114 8.13483176 76.27311114 -0.125 75.125 C-2.125 73.125 -2.125 73.125 -2.25 70 C-2.20875 69.05125 -2.1675 68.1025 -2.125 67.125 C-0.84072365 67.13166183 -0.84072365 67.13166183 0.46949768 67.13845825 C8.6028403 67.17880452 16.73614851 67.20911985 24.86956882 67.22862434 C29.04940174 67.23898939 33.22915084 67.25301266 37.40893555 67.27587891 C41.45493817 67.29787063 45.50086101 67.30962309 49.54691887 67.31475449 C51.07800487 67.31840365 52.60908732 67.32552677 54.14013863 67.33646011 C72.12624016 67.45960039 94.68225303 66.97207631 108.390625 53.65234375 C113.55889737 47.84546301 114.33529952 42.53777557 114.1875 35 C113.60489892 29.64007004 110.85733721 27.10733721 107.1875 23.4375 C99.9522742 17.82488821 90.98342136 17.56482611 82.1875 17.125 C80.1982486 17.00607533 78.20899912 16.88711628 76.21980286 16.76727295 C71.61008944 16.49367989 66.99908594 16.24240812 62.38830566 15.98754883 C56.02859135 15.6345183 49.67014566 15.2635333 43.3125 14.875 C42.35899658 14.81718353 41.40549316 14.75936707 40.4230957 14.69979858 C21.55161205 13.52889556 2.81191222 11.4637304 -15.94555664 9.10644531 C-41.59344103 5.93467618 -62.86204593 7.94661481 -87.6875 14.625 Z " fill="#020201" transform="translate(209.125,315.875)"/>
<path d="M0 0 C1.20124008 -0.0071553 2.40248016 -0.01431061 3.64012146 -0.02168274 C4.95496521 -0.02437164 6.26980896 -0.02706055 7.62449646 -0.02983093 C9.02594164 -0.03609894 10.42738517 -0.04274604 11.8288269 -0.04974365 C16.42924347 -0.07075317 21.02966023 -0.08114579 25.63011169 -0.09111023 C27.21727452 -0.09515949 28.80443718 -0.09927646 30.39159966 -0.10346031 C37.85229279 -0.12250822 45.31297608 -0.13673791 52.77368885 -0.14507228 C61.36702224 -0.15483183 69.96009716 -0.18111933 78.55333954 -0.22157317 C85.20661776 -0.25181192 91.85982224 -0.26654864 98.5131678 -0.26985329 C102.48130298 -0.27219569 106.44916193 -0.28104923 110.41722298 -0.30631447 C114.15607777 -0.32973545 117.89447724 -0.33377282 121.63338661 -0.32355309 C123.64349415 -0.32282805 125.65357929 -0.34182189 127.66358948 -0.36161804 C138.3411391 -0.30089385 147.48363722 1.60130006 155.40354919 9.14717102 C160.58178404 15.15908993 163.25929676 21.37827862 163.23973083 29.28291321 C163.2396553 30.30366943 163.23957977 31.32442566 163.23950195 32.37611389 C163.23434067 33.47103149 163.22917938 34.5659491 163.22386169 35.69404602 C163.22173927 37.38355377 163.22173927 37.38355377 163.21957397 39.10719299 C163.21397744 42.70387937 163.20142554 46.30050346 163.18870544 49.89717102 C163.18369 52.3359722 163.17912717 54.77477436 163.17503357 57.21357727 C163.16400914 63.1914631 163.14727443 69.16931261 163.12620544 75.14717102 C164.4319754 75.13606796 165.73774536 75.1249649 167.08308411 75.11352539 C179.41202159 75.01199646 191.74087382 74.93713197 204.07013512 74.88811016 C210.40817619 74.86205989 216.74587871 74.82674433 223.08372498 74.76997375 C229.20456375 74.71549253 235.32507768 74.68571613 241.44614029 74.67278481 C243.77685787 74.66357395 246.10755844 74.6455873 248.43813705 74.61852074 C251.71263765 74.58201757 254.9858102 74.57723473 258.26048279 74.57954407 C259.69332108 74.5525795 259.69332108 74.5525795 261.15510559 74.52507019 C269.35480207 74.58730101 275.00986073 77.62123222 281.87620544 81.83467102 C294.16017478 94.45986172 292.42764378 111.12811191 292.39183044 127.49092102 C292.39317999 129.66845238 292.39512293 131.84598345 292.39762878 134.02351379 C292.40056641 138.57241198 292.39632636 143.12123127 292.38694763 147.67012024 C292.375554 153.47670016 292.38212078 159.28309513 292.39409256 165.08966827 C292.40134801 169.58173495 292.39900635 174.07375838 292.39383698 178.56582642 C292.39251066 180.70587181 292.39411217 182.84592124 292.39879608 184.98596191 C292.4494632 214.63635796 292.4494632 214.63635796 282.81370544 225.83467102 C275.26745142 232.32795937 269.55158272 234.30967836 259.64183044 234.24482727 C258.82623657 234.24341232 258.0106427 234.24199738 257.17033386 234.24053955 C254.57225333 234.23495405 251.97425981 234.22240423 249.37620544 234.20967102 C247.61188377 234.20465415 245.84756075 234.20009157 244.08323669 234.19599915 C239.76419289 234.18498937 235.44521391 234.16773471 231.12620544 234.14717102 C231.14191589 235.34317932 231.15762634 236.53918762 231.17381287 237.7714386 C231.22807605 242.20496395 231.26254234 246.6384599 231.29100037 251.07221985 C231.30609524 252.9918664 231.32657317 254.91147842 231.3525238 256.83100891 C231.38887653 259.58882666 231.40592456 262.34618882 231.41917419 265.10420227 C231.44239998 266.39340324 231.44239998 266.39340324 231.46609497 267.70864868 C231.46632156 268.50925217 231.46654816 269.30985565 231.46678162 270.13471985 C231.47344345 270.83865372 231.48010529 271.54258759 231.48696899 272.26785278 C231.00949373 274.75515497 230.13067421 275.63763753 228.12620544 277.14717102 C224.91014099 277.39912415 224.91014099 277.39912415 221.12620544 276.14717102 C218.23653469 273.43111357 215.96621778 270.27562994 213.58323669 267.11592102 C195.11843523 243.59779555 195.11843523 243.59779555 168.46060181 232.65312195 C155.45994895 231.53797749 142.18820852 232.23603072 129.24636841 233.70617676 C120.84015402 234.57826328 115.60504779 233.16353423 108.63792419 228.47138977 C102.75781227 223.19565766 97.66026719 216.78165455 96.88569641 208.60974121 C96.89013763 207.71483475 96.89457886 206.81992828 96.89915466 205.89790344 C96.89930573 204.87722275 96.89945679 203.85654205 96.89961243 202.80493164 C96.91509628 201.17029716 96.91509628 201.17029716 96.93089294 199.50263977 C96.93372284 198.37771622 96.93655273 197.25279266 96.93946838 196.09378052 C96.95064708 192.50730166 96.97574782 188.92107417 97.00120544 185.33467102 C97.01123821 182.90042984 97.02036355 180.46618474 97.02854919 178.03193665 C97.05057888 172.0702626 97.0840337 166.10873477 97.12620544 160.14717102 C89.85960525 159.00312247 82.859875 158.68980732 76.49919128 162.87617493 C70.21053996 168.10844528 64.6836269 174.13100112 59.17564392 180.16358948 C56.01415501 183.60745032 52.78311372 186.9862245 49.55731201 190.3697052 C47.8501547 192.16810342 46.15771797 193.98061838 44.48208618 195.8084259 C43.71971146 196.62597351 42.95733673 197.44352112 42.17185974 198.2858429 C41.50889389 199.00896667 40.84592804 199.73209045 40.16287231 200.47712708 C37.77322163 202.43661378 36.19072228 202.92609838 33.12620544 203.14717102 C30.83811951 201.76728821 30.83811951 201.76728821 29.12620544 199.14717102 C28.58863872 196.16463671 28.66062899 193.24741194 28.73558044 190.22529602 C28.74124023 189.36531006 28.74690002 188.5053241 28.75273132 187.61927795 C28.77508594 184.87800453 28.82527942 182.13804798 28.87620544 179.39717102 C28.89627168 177.53651284 28.91452224 175.67583413 28.93089294 173.81513977 C28.9749476 169.25864436 29.0439679 164.7031308 29.12620544 160.14717102 C27.65981628 160.17073669 27.65981628 160.17073669 26.1638031 160.19477844 C22.49233941 160.24960492 18.82091093 160.28371007 15.14915466 160.31196594 C13.56836333 160.32693373 11.98761266 160.34731539 10.40696716 160.37348938 C-1.13187721 160.55959977 -11.64492284 160.59307701 -21.05348206 152.95576477 C-26.64127747 147.40394229 -31.10860492 140.30056423 -31.14122009 132.27857971 C-31.14975006 131.32549927 -31.15828003 130.37241882 -31.16706848 129.39045715 C-31.16616211 128.35658875 -31.16525574 127.32272034 -31.1643219 126.25752258 C-31.17103912 125.15934204 -31.17775635 124.0611615 -31.18467712 122.92970276 C-31.20367532 119.29902114 -31.20758247 115.66852426 -31.20973206 112.03779602 C-31.21615938 109.51059391 -31.22288769 106.98339256 -31.22990417 104.45619202 C-31.241882 99.15687536 -31.24567026 93.85762739 -31.24440002 88.55830383 C-31.24320013 82.45012631 -31.26427472 76.34230299 -31.29588735 70.23421502 C-31.32529056 64.34117441 -31.33237338 58.44824093 -31.33118057 52.55512238 C-31.33353637 50.05615036 -31.34235863 47.55717556 -31.35784531 45.05825043 C-31.37751133 41.55667026 -31.37166354 38.0559933 -31.3596344 34.55439758 C-31.37087341 33.5286261 -31.38211243 32.50285461 -31.39369202 31.44599915 C-31.31169817 22.02034857 -28.3375751 14.86256854 -21.94020081 7.94013977 C-15.58454039 2.42549302 -8.27525974 0.03387595 0 0 Z M-17.68238831 19.36592102 C-20.01061493 22.84681067 -21.12309788 25.44465859 -21.14122009 29.66772461 C-21.14975006 30.56894547 -21.15828003 31.47016632 -21.16706848 32.3986969 C-21.16616211 33.38005615 -21.16525574 34.36141541 -21.1643219 35.37251282 C-21.17103912 36.41202591 -21.17775635 37.451539 -21.18467712 38.52255249 C-21.20369541 41.96388006 -21.20758367 45.40501289 -21.20973206 48.84638977 C-21.2161587 51.24049968 -21.22288696 53.63460879 -21.22990417 56.02871704 C-21.24188752 61.05153727 -21.24558404 66.07428868 -21.24440002 71.09712219 C-21.2441971 77.52189201 -21.27146791 83.94621818 -21.30594444 90.37088299 C-21.3282266 95.31840017 -21.33223711 100.26581096 -21.33118057 105.21337318 C-21.33353574 107.58116493 -21.34235447 109.94895965 -21.35784531 112.31670189 C-21.3775254 115.63639846 -21.3716579 118.95514341 -21.3596344 122.27485657 C-21.37087341 123.24609467 -21.38211243 124.21733276 -21.39369202 125.21800232 C-21.33111111 132.04619525 -20.17404439 138.52135329 -15.42647362 143.7372694 C-11.42131095 147.21291533 -7.83761932 149.38793645 -2.52003479 149.41841125 C-1.66912766 149.42859787 -0.81822052 149.43878448 0.05847168 149.44927979 C0.96898788 149.45141983 1.87950409 149.45355988 2.81761169 149.45576477 C4.75055757 149.4809128 6.68350021 149.50631099 8.61643982 149.53193665 C11.66029607 149.56074286 14.70409631 149.58476559 17.74803162 149.60346985 C20.68817866 149.62506589 23.62768492 149.66448679 26.56761169 149.70576477 C27.93642235 149.70593849 27.93642235 149.70593849 29.33288574 149.70611572 C30.18064072 149.7194545 31.02839569 149.73279327 31.90184021 149.74653625 C32.64700394 149.7516069 33.39216766 149.75667755 34.15991211 149.76190186 C36.69597698 150.25881022 37.58293151 151.10156675 39.12620544 153.14717102 C39.55857849 156.33345032 39.55857849 156.33345032 39.63792419 160.22138977 C39.6558754 160.90522232 39.6738266 161.58905487 39.69232178 162.29360962 C39.7464262 164.47390102 39.78031884 166.65397358 39.81370544 168.83467102 C39.84687864 170.31451919 39.88136831 171.79433847 39.91722107 173.27412415 C40.00215068 176.89826271 40.06896179 180.52247754 40.12620544 184.14717102 C44.86120882 180.19967943 49.32065109 176.08069739 53.64573669 171.69013977 C54.23038193 171.10170792 54.81502716 170.51327606 55.41738892 169.90701294 C57.2603086 168.05200662 59.09990513 166.19376021 60.93870544 164.33467102 C63.37985563 161.86696941 65.82427652 159.40257586 68.27073669 156.94013977 C69.10820183 156.09022713 69.10820183 156.09022713 69.96258545 155.22314453 C74.95296217 150.20093345 74.95296217 150.20093345 78.69787598 150.02932739 C80.32927773 150.03315681 80.32927773 150.03315681 81.99363708 150.0370636 C83.84179771 150.03619499 83.84179771 150.03619499 85.72729492 150.03530884 C86.38816164 150.036737 87.04902836 150.03816517 87.72992134 150.03963661 C91.2390467 150.04316147 94.74801286 150.0173329 98.25706482 149.9967804 C102.71838169 149.97251336 107.17923633 149.95666879 111.64060974 149.97212219 C115.24842237 149.9838509 118.85508707 149.96620485 122.46272087 149.92967796 C123.83126294 149.92111439 125.19991633 149.92306324 126.56842232 149.93618202 C133.90443543 150.00119761 140.29052165 149.96894828 146.15500069 145.13305187 C151.63143792 139.61584125 153.68597196 132.81632741 153.79273987 125.20147705 C153.77520157 123.77346519 153.77520157 123.77346519 153.75730896 122.31660461 C153.76446426 121.28436264 153.77161957 120.25212067 153.7789917 119.18859863 C153.79577664 115.80713935 153.77653761 112.42702478 153.75511169 109.04560852 C153.7559412 106.68009838 153.75840365 104.3145883 153.76242065 101.94908142 C153.76527153 97.0048425 153.75064395 92.06105838 153.72312927 87.11689758 C153.68901109 80.79077556 153.69508435 74.46546431 153.71379185 68.13930321 C153.72437606 63.25955995 153.71541156 58.3800043 153.70040703 53.50027847 C153.69523777 51.16796552 153.6956917 48.83563288 153.70195198 46.5033226 C153.70742265 43.24143784 153.68696956 39.98070207 153.65965271 36.71894836 C153.66617859 35.762892 153.67270447 34.80683563 153.6794281 33.82180786 C153.57099859 26.1793512 151.76084369 20.84168741 146.37620544 15.33467102 C138.27260277 9.88032306 131.13193875 9.70898165 121.60105896 9.74311829 C120.2450352 9.73740719 118.88901624 9.73044008 117.53300476 9.72232056 C113.8696979 9.70445566 110.20663144 9.70554482 106.54329419 9.71126294 C103.47682869 9.71436445 100.41040873 9.7082517 97.34394974 9.7022242 C90.10588342 9.68820254 82.86793519 9.68972058 75.62986755 9.7011261 C68.1805036 9.71260568 60.73149975 9.69852916 53.28218323 9.67172962 C46.86916982 9.6495282 40.45626907 9.6429452 34.04321998 9.64880604 C30.22055458 9.65216616 26.39811996 9.64982388 22.57548714 9.63255501 C18.97935036 9.61701665 15.3837445 9.62111669 11.78762817 9.63986015 C9.85115721 9.6452655 7.914662 9.63108456 5.97824097 9.61616516 C-4.00837266 9.70007798 -11.28997614 11.35264082 -17.68238831 19.36592102 Z M163.12620544 85.14717102 C163.12255981 85.75358932 163.11891418 86.36000763 163.11515808 86.98480225 C163.073165 93.32861383 163.00370251 99.67171321 162.91868591 106.01509094 C162.89055822 108.37862505 162.86930314 110.7422518 162.85520935 113.10591125 C162.83366671 116.51467534 162.78695618 119.92233523 162.73558044 123.33076477 C162.73373749 124.90162086 162.73373749 124.90162086 162.7318573 126.50421143 C162.5393703 136.26938778 159.29252146 145.24854121 152.12620544 152.14717102 C142.76332599 158.70835309 133.83346432 159.04599633 122.87620544 159.02217102 C121.34101538 159.04034279 119.80585426 159.06115933 118.27073669 159.08467102 C114.55572838 159.13592275 110.8416145 159.15164434 107.12620544 159.14717102 C107.02440802 165.97890938 106.95457353 172.81045061 106.90647888 179.64277649 C106.88641968 181.96479095 106.85916553 184.28675525 106.82444763 186.6085968 C106.77568004 189.95491447 106.75317902 193.30056161 106.73558044 196.64717102 C106.7149353 197.67769592 106.69429016 198.70822083 106.67301941 199.76997375 C106.67074044 207.16536871 107.90689953 212.41652121 112.87229919 218.17060852 C113.70954529 218.83963196 113.70954529 218.83963196 114.56370544 219.52217102 C115.11929138 219.9836554 115.67487732 220.44513977 116.24729919 220.92060852 C120.49238884 223.69183128 123.82185634 224.38028124 128.84568787 223.9264679 C129.97792282 223.83796066 131.11015778 223.74945343 132.27670288 223.65826416 C133.49934341 223.56179092 134.72198395 223.46531769 135.98167419 223.36592102 C182.45635991 220.69293442 182.45635991 220.69293442 196.72386169 232.77607727 C204.29476489 239.70553693 210.81386639 247.6967411 216.76194763 256.04194641 C217.54215271 257.06667053 218.32235779 258.09139465 219.12620544 259.14717102 C219.78620544 259.14717102 220.44620544 259.14717102 221.12620544 259.14717102 C221.1512616 258.15273987 221.17631775 257.15830872 221.20213318 256.13374329 C221.29605426 252.45668355 221.39631163 248.77981952 221.4985199 245.10298157 C221.5419269 243.50927802 221.58359763 241.91552622 221.6235199 240.32173157 C221.68108352 238.03553194 221.74481694 235.74957653 221.80979919 233.46357727 C221.82651169 232.74690384 221.84322418 232.03023041 221.86044312 231.2918396 C222.01233374 226.26104273 222.01233374 226.26104273 223.12620544 225.14717102 C226.20636714 225.04853244 229.26818903 225.01002233 232.34886169 225.00654602 C234.26879531 224.98820524 236.18871749 224.96863378 238.10862732 224.94795227 C241.14129197 224.91907208 244.17322871 224.89717353 247.20603943 224.89668274 C250.12930671 224.89333064 253.05088884 224.85866046 255.97386169 224.81904602 C257.31807945 224.82965057 257.31807945 224.82965057 258.68945312 224.84046936 C265.74357821 224.70536065 270.57056658 222.59001766 275.65246582 217.66932678 C281.21184603 211.39514127 281.42716043 205.81299838 281.43260193 197.80830383 C281.4450872 196.24881516 281.4450872 196.24881516 281.45782471 194.65782166 C281.48191293 191.22194162 281.49069596 187.78625154 281.49729919 184.35029602 C281.50626714 181.9576156 281.51538902 179.56493575 281.5246582 177.17225647 C281.54114808 172.15541726 281.5488482 167.13864477 281.55174255 162.1217804 C281.55712303 155.70479977 281.59479028 149.28844962 281.64048672 142.87164688 C281.67028478 137.92841829 281.67746674 132.98534092 281.6784687 128.04203033 C281.6826663 125.67701585 281.69508193 123.31200071 281.71598625 120.94707489 C281.74295308 117.63212251 281.73805805 114.31862375 281.72557068 111.00361633 C281.74040497 110.03394928 281.75523926 109.06428223 281.77052307 108.06523132 C281.69952892 101.42019372 280.502066 96.29645986 276.12620544 91.14717102 C269.71840803 85.66858164 263.78390092 84.2741197 255.53587341 84.46601868 C254.02675636 84.46470444 254.02675636 84.46470444 252.4871521 84.46336365 C249.19674636 84.46750851 245.9084378 84.51401472 242.61839294 84.56123352 C240.32341118 84.57243666 238.02841499 84.58097156 235.7334137 84.58695984 C229.71942397 84.60976979 223.70631617 84.6686264 217.69267273 84.73518372 C211.5456383 84.79677501 205.3984601 84.82401082 199.25120544 84.85420227 C187.20915322 84.9183765 175.16775293 85.02066148 163.12620544 85.14717102 Z " fill="#010100" transform="translate(176.87379455566406,42.85282897949219)"/>
<path d="M0 0 C3.46826172 0.00854492 3.46826172 0.00854492 7 1 C8.52783203 3.52856445 8.52783203 3.52856445 9.5078125 6.86328125 C13.3381377 18.18471152 13.3381377 18.18471152 20 28 C28.10537242 31.9169727 37.34506031 31.95120897 46.20361328 31.83422852 C49 32 49 32 52 34 C52.66796875 36.65234375 52.66796875 36.65234375 52 40 C49.74080909 42.86195014 47.06037644 45.17813724 44.3125 47.5625 C42.17727196 49.4763818 40.04341863 51.39152655 37.91699219 53.31518555 C36.30430577 54.73255042 34.61449309 56.06146295 32.91015625 57.3671875 C30.73707257 60.36239896 30.76872714 60.97245763 31.1328125 64.50390625 C31.43483233 66.19548221 31.76662161 67.88196136 32.125 69.5625 C32.28226562 70.41263672 32.43953125 71.26277344 32.6015625 72.13867188 C33.170107 75.15906455 33.78228858 78.15312878 34.54760742 81.13012695 C35.08084802 83.33416891 35.16855415 85.35907651 35.1875 87.625 C35.20167969 88.40101563 35.21585937 89.17703125 35.23046875 89.9765625 C35 92 35 92 33 94 C25.00499232 94.03193745 18.63067074 89.04414947 12.00585938 85.04101562 C6.80299549 81.84729149 6.80299549 81.84729149 0.9453125 81.28515625 C-0.02664062 81.85105469 -0.99859375 82.41695313 -2 83 C-2.74145264 83.40226807 -3.48290527 83.80453613 -4.24682617 84.21899414 C-7.78304689 86.14508993 -11.26505011 88.1603533 -14.74414062 90.1875 C-15.60330078 90.67476563 -16.46246094 91.16203125 -17.34765625 91.6640625 C-18.12117432 92.11217285 -18.89469238 92.5602832 -19.69165039 93.02197266 C-22.3476431 94.14729331 -24.14306451 94.33168062 -27 94 C-29 92 -29 92 -29.27880859 89.99291992 C-29.2624656 82.5382859 -27.82174264 75.76988636 -25.89453125 68.59179688 C-24.71958467 63.72733318 -24.71958467 63.72733318 -25.96044922 59.04663086 C-27.51645943 57.16349591 -29.15492539 55.60054378 -31 54 C-31.6295459 53.42145264 -32.2590918 52.84290527 -32.90771484 52.24682617 C-35.55413954 49.84011625 -38.23689745 47.48060413 -40.9609375 45.16210938 C-45.8659308 40.777785 -45.8659308 40.777785 -46.5703125 36.69140625 C-46 34 -46 34 -44 32 C-41.89184008 31.86277594 -39.77662961 31.82862075 -37.6640625 31.84375 C-23.370871 31.87454808 -23.370871 31.87454808 -11.44238281 25.29980469 C-7.43883299 18.83282845 -4.93811936 11.84090175 -2.85253906 4.55029297 C-2 2 -2 2 0 0 Z " fill="#050402" transform="translate(240,76)"/>
<path d="M0 0 C0.70128525 -0.0004985 1.4025705 -0.00099701 2.12510681 -0.00151062 C3.60532469 0.00082705 5.08554676 0.01053762 6.56567383 0.02709961 C8.8351581 0.05073246 11.10347051 0.04765397 13.37304688 0.04101562 C24.49820941 0.08414691 24.49820941 0.08414691 26.77734375 2.36328125 C27.03181934 4.54034424 27.03181934 4.54034424 27.03804016 7.29785156 C27.04512497 8.34106567 27.05220978 9.38427979 27.05950928 10.45910645 C27.05703186 11.60826538 27.05455444 12.75742432 27.05200195 13.94140625 C27.05711288 15.14792847 27.06222382 16.35445068 27.06748962 17.59753418 C27.0790314 20.91157621 27.08145557 24.22536864 27.07892632 27.53941345 C27.07785849 30.3030197 27.08273507 33.06660272 27.08753175 35.83020401 C27.09863549 42.34775775 27.09905928 48.86525387 27.09301758 55.3828125 C27.08697385 62.11413712 27.09929677 68.84525292 27.12058765 75.5765419 C27.1381792 81.34982769 27.14420895 87.12304687 27.1409499 92.89635849 C27.1391332 96.34718246 27.1418115 99.79785744 27.15566444 103.24865723 C27.17052405 107.09424097 27.16129412 110.93955678 27.1496582 114.78515625 C27.16112381 116.50889465 27.16112381 116.50889465 27.17282104 118.26745605 C27.16580673 119.31067017 27.15879242 120.35388428 27.15156555 121.42871094 C27.15173329 122.33868835 27.15190104 123.24866577 27.15207386 124.18621826 C26.96658246 125.26386444 26.96658246 125.26386444 26.77734375 126.36328125 C21.90287553 129.61292673 16.17589957 128.69628876 10.47119141 128.67895508 C8.28497606 128.67579229 6.10011083 128.6992703 3.9140625 128.72460938 C2.52474129 128.72688219 1.13541644 128.72758595 -0.25390625 128.7265625 C-1.51783203 128.72954346 -2.78175781 128.73252441 -4.08398438 128.7355957 C-7.22265625 128.36328125 -7.22265625 128.36328125 -8.89501381 127.15077209 C-10.65383732 124.7827543 -10.59988796 123.32751466 -10.60360718 120.39111328 C-10.61206665 119.36479797 -10.62052612 118.33848267 -10.62924194 117.28106689 C-10.62316925 116.15577576 -10.61709656 115.03048462 -10.61083984 113.87109375 C-10.6160968 112.68553894 -10.62135376 111.49998413 -10.62677002 110.27850342 C-10.63772156 107.0263936 -10.63514038 103.77464928 -10.62563276 100.52254486 C-10.61804219 97.12065354 -10.62508009 93.7187868 -10.62979126 90.31689453 C-10.63525059 84.60379649 -10.62805263 78.89081476 -10.61376953 73.17773438 C-10.59744257 66.57079561 -10.60273096 59.96413456 -10.61924875 53.35720253 C-10.63285864 47.68662957 -10.63478574 42.01614027 -10.62693274 36.34555626 C-10.62225345 32.95788393 -10.62163827 29.57034218 -10.63154221 26.18267822 C-10.63913453 22.40674889 -10.6275828 18.63135784 -10.61083984 14.85546875 C-10.61691254 13.73017761 -10.62298523 12.60488647 -10.62924194 11.44549561 C-10.62078247 10.4191803 -10.612323 9.39286499 -10.60360718 8.33544922 C-10.6024761 7.4424411 -10.60134502 6.54943298 -10.60017967 5.62936401 C-9.60107344 -0.36776696 -5.22542582 -0.01187086 0 0 Z " fill="#42A1FE" transform="translate(26.22265625,330.63671875)"/>
<path d="M0 0 C2.64 0 5.28 0 8 0 C8 0.33 8 0.66 8 1 C5.69 1 3.38 1 1 1 C1 33.01 1 65.02 1 98 C9.91 96.515 9.91 96.515 19 95 C36.2169104 93.02447726 53.64977638 93.42689109 70.8671875 95.19921875 C72.14804733 95.32952988 73.42890717 95.459841 74.74858093 95.59410095 C89.15694506 97.10805408 103.44184782 99.3969751 117.73699951 101.72503662 C165.1106829 111.13699506 165.1106829 111.13699506 212 105 C212.84320801 104.7097998 213.68641602 104.41959961 214.55517578 104.12060547 C228.55976515 99.26466899 242.07998622 93.42185191 255.58203125 87.328125 C263.64261446 83.69463712 271.75535935 80.18658677 279.875 76.6875 C283.04051078 75.32195334 286.20580117 73.95589612 289.37109375 72.58984375 C290.20339508 72.2307341 291.03569641 71.87162445 291.89321899 71.50163269 C305.51045732 65.62430328 319.11367674 59.71453001 332.71704102 53.80517578 C334.98062471 52.82192446 337.24421521 51.83868878 339.5078125 50.85546875 C340.6278215 50.36894836 341.74783051 49.88242798 342.90177917 49.38116455 C349.54823657 46.4951606 356.19798606 43.61692433 362.85099792 40.74606323 C367.01995039 38.94665283 371.18744234 37.14387514 375.35476685 35.34069824 C377.2908112 34.5040276 379.22753342 33.66892334 381.16500854 32.83557129 C392.6347083 27.90145826 403.90906471 22.73790979 415 17 C415.86778076 16.55164795 416.73556152 16.1032959 417.62963867 15.64135742 C419.57243294 14.62718616 421.50707601 13.59996809 423.4375 12.5625 C424.07236328 12.22541016 424.70722656 11.88832031 425.36132812 11.54101562 C428.37092077 10.04294582 428.37092077 10.04294582 431 8 C431.36760731 5.67182036 431.70241581 3.3381615 432 1 C432.33 1 432.66 1 433 1 C433.0272415 2.41655793 433.04650467 3.83327045 433.0625 5.25 C433.07410156 6.03890625 433.08570313 6.8278125 433.09765625 7.640625 C432.916881 12.00815507 432.916881 12.00815507 432 14 C429.82638755 15.60383055 427.77449414 16.92944523 425.4375 18.25 C424.42538452 18.83696655 424.42538452 18.83696655 423.39282227 19.43579102 C403.27522904 30.95182802 381.7525892 39.86955786 360.462677 48.9487915 C348.14860638 54.20032899 335.87689374 59.54257442 323.625 64.9375 C308.84332003 71.44452992 294.04169197 77.9024555 279.2109375 84.296875 C277.70702896 84.94530718 276.20312268 85.59374462 274.69921875 86.2421875 C273.9672226 86.55774597 273.23522644 86.87330444 272.48104858 87.19842529 C267.59169343 89.30800232 262.7098962 91.43431711 257.83203125 93.5703125 C202.10455877 117.95011023 163.33226167 118.04681474 103.95336914 107.41186523 C72.49756973 101.790536 39.75579339 99.27114816 8 104 C5.36 104.33 2.72 104.66 0 105 C0 70.35 0 35.7 0 0 Z " fill="#E0AC79" transform="translate(63,340)"/>
<path d="M0 0 C0.66 0 1.32 0 2 0 C2.23187012 0.5347998 2.46374023 1.06959961 2.70263672 1.62060547 C3.75522962 4.0408853 4.81501804 6.45794771 5.875 8.875 C6.23980469 9.71675781 6.60460937 10.55851562 6.98046875 11.42578125 C7.33496094 12.23144531 7.68945312 13.03710938 8.0546875 13.8671875 C8.54171143 14.98262939 8.54171143 14.98262939 9.03857422 16.12060547 C9.96590354 18.17089061 9.96590354 18.17089061 12 20 C14.22053194 20.55456436 14.22053194 20.55456436 16.7890625 20.8515625 C18.20058594 21.04492188 18.20058594 21.04492188 19.640625 21.2421875 C21.11789062 21.43167969 21.11789062 21.43167969 22.625 21.625 C23.61757813 21.7590625 24.61015625 21.893125 25.6328125 22.03125 C28.08763775 22.36170724 30.54324252 22.68428484 33 23 C31.54752694 26.03766737 30.105961 28.14052586 27.6875 30.5 C27.07132812 31.10972656 26.45515625 31.71945313 25.8203125 32.34765625 C24 34 24 34 21.0625 35.9375 C18.60123989 37.93913814 18.60123989 37.93913814 18.80859375 41.59765625 C18.92199424 45.93780221 19.41101493 50.20200085 20 54.5 C20.14308594 55.59054688 20.14308594 55.59054688 20.2890625 56.703125 C20.52146167 58.46935867 20.76006638 60.23477406 21 62 C15.72869527 60.06620664 11.07832694 57.20553146 6.25390625 54.36328125 C2.38916861 52.74408145 0.97296332 52.77371521 -3 54 C-5.86154784 55.22840463 -8.61691691 56.61862106 -11.375 58.0625 C-12.11105469 58.43955078 -12.84710938 58.81660156 -13.60546875 59.20507812 C-15.40739646 60.12944364 -17.20423099 61.06372614 -19 62 C-18.43044584 55.05628655 -17.83701942 48.11605228 -17.18359375 41.1796875 C-16.97202261 39.03241048 -16.97202261 39.03241048 -17 37 C-17.56460938 36.76410156 -18.12921875 36.52820313 -18.7109375 36.28515625 C-21.52071963 34.70765058 -23.39619051 32.75948714 -25.625 30.4375 C-28.51070681 27.30957946 -28.51070681 27.30957946 -32 25 C-32 24.34 -32 23.68 -32 23 C-31.37544922 22.99291016 -30.75089844 22.98582031 -30.10742188 22.97851562 C-18.38332034 23.05960105 -18.38332034 23.05960105 -8.20507812 18.35205078 C-5.13870051 13.95799691 -3.57306474 9.08099912 -2 4 C-1.36810093 2.64984231 -0.72192895 1.30423956 0 0 Z " fill="#F9F9F9" transform="translate(242,93)"/>
<path d="M0 0 C1.1778154 -0.00274933 2.3556308 -0.00549866 3.56913757 -0.0083313 C5.48640907 0.00245453 5.48640907 0.00245453 7.44241333 0.01345825 C8.81273897 0.01402288 10.18306521 0.0137048 11.5533905 0.01257324 C15.26164802 0.01200073 18.96977547 0.0237385 22.67800283 0.03772116 C26.55772837 0.05024552 30.43745707 0.05140036 34.31719971 0.05377197 C41.65875859 0.05998173 49.00025772 0.07638572 56.34179032 0.09647095 C64.70210056 0.11884565 73.06241368 0.12982733 81.42274642 0.13986182 C98.61569726 0.1607524 115.80858999 0.19591857 133.00149536 0.24050903 C133.00149536 0.57050903 133.00149536 0.90050903 133.00149536 1.24050903 C132.29488927 1.2410538 131.58828318 1.24159857 130.86026478 1.24215984 C113.66725079 1.2571269 96.47452467 1.29957045 79.28165913 1.3725996 C70.96729409 1.4072534 62.65309492 1.43260562 54.33865356 1.43606567 C47.09179444 1.43910505 39.84523068 1.45959161 32.59848565 1.5010336 C28.76126473 1.52236812 24.92446376 1.53496214 21.087183 1.52666283 C17.47459732 1.51912516 13.86286268 1.53493208 10.25043297 1.56856918 C8.29407321 1.58073097 6.33760871 1.56820881 4.3812561 1.5549469 C-2.23125695 1.56273702 -2.23125695 1.56273702 -8.07572937 4.28172302 C-9.02750313 5.7463221 -9.02750313 5.7463221 -9.99850464 7.24050903 C-10.37891498 7.81207859 -10.75932531 8.38364815 -11.15126324 8.97253799 C-14.42948032 14.518467 -14.56847965 19.69372153 -14.51608276 26.01174927 C-14.52309204 27.06160004 -14.53010132 28.11145081 -14.537323 29.19311523 C-14.55485225 32.64538436 -14.54329675 36.09682607 -14.52975464 39.54910278 C-14.53245119 41.95991675 -14.53633498 44.37072966 -14.54135132 46.78153992 C-14.54723971 51.82762026 -14.53870502 56.87341683 -14.51998901 61.91946411 C-14.49721264 68.37331229 -14.51031915 74.82649455 -14.53427887 81.28031826 C-14.54876485 86.25702387 -14.54411771 91.23357283 -14.5337677 96.21028328 C-14.53110754 98.58922467 -14.53434504 100.96818049 -14.54368591 103.34710503 C-14.55389584 106.67840869 -14.53828646 110.00864933 -14.51608276 113.33987427 C-14.52417969 114.31417892 -14.53227661 115.28848358 -14.5406189 116.29231262 C-14.42511533 125.69244672 -11.32328033 132.3886687 -4.99850464 139.24050903 C-11.18380277 138.65143302 -14.9997121 136.35034561 -19.24850464 131.86550903 C-23.31337773 125.7681994 -23.30007779 119.85290173 -23.30490112 112.77224731 C-23.31322464 111.73083588 -23.32154816 110.68942444 -23.3301239 109.61645508 C-23.35417691 106.18120563 -23.36298987 102.7461462 -23.36959839 99.31082153 C-23.37856743 96.91717472 -23.38768933 94.52352848 -23.3969574 92.12988281 C-23.41343658 87.1148238 -23.42114573 82.09983147 -23.42404175 77.08474731 C-23.429428 70.6665766 -23.46712367 64.24903449 -23.51278591 57.83104134 C-23.54256189 52.88785525 -23.54976542 47.94482055 -23.5507679 43.00155258 C-23.55496814 40.63571159 -23.56739444 38.26987007 -23.58828545 35.90411758 C-23.61521283 32.59146389 -23.61036951 29.28026794 -23.59786987 25.96755981 C-23.61270416 24.99586853 -23.62753845 24.02417725 -23.64282227 23.02304077 C-23.5649904 15.76047273 -21.5537849 10.99610633 -16.55577755 5.71649361 C-11.6146622 1.25068441 -6.51954612 -0.01178941 0 0 Z " fill="#E9A202" transform="translate(178.99850463867188,52.759490966796875)"/>
<path d="M0 0 C1.05904289 0.00636726 1.05904289 0.00636726 2.13948059 0.01286316 C4.39155428 0.02963841 6.64272867 0.06728632 8.89453125 0.10546875 C10.4225131 0.12051718 11.95050901 0.13420531 13.47851562 0.14648438 C17.22169997 0.17953786 20.96421321 0.23131043 24.70703125 0.29296875 C24.70703125 0.62296875 24.70703125 0.95296875 24.70703125 1.29296875 C11.34203125 1.78796875 11.34203125 1.78796875 -2.29296875 2.29296875 C-2.62296875 43.54296875 -2.95296875 84.79296875 -3.29296875 127.29296875 C5.61703125 127.29296875 14.52703125 127.29296875 23.70703125 127.29296875 C23.70703125 127.62296875 23.70703125 127.95296875 23.70703125 128.29296875 C19.34712252 128.36714921 14.98754846 128.42158419 10.62719727 128.45776367 C9.14405926 128.47284643 7.66096581 128.49331564 6.17797852 128.51928711 C4.0456238 128.55569491 1.9138589 128.57269948 -0.21875 128.5859375 C-1.50177002 128.60164795 -2.78479004 128.6173584 -4.10668945 128.63354492 C-7.29296875 128.29296875 -7.29296875 128.29296875 -8.96830177 127.08244324 C-10.72238924 124.71287048 -10.67020216 123.25585507 -10.67391968 120.32080078 C-10.68237915 119.29448547 -10.69083862 118.26817017 -10.69955444 117.21075439 C-10.69348175 116.08546326 -10.68740906 114.96017212 -10.68115234 113.80078125 C-10.6864093 112.61522644 -10.69166626 111.42967163 -10.69708252 110.20819092 C-10.70803406 106.9560811 -10.70545288 103.70433678 -10.69594526 100.45223236 C-10.68835469 97.05034104 -10.69539259 93.6484743 -10.70010376 90.24658203 C-10.70556309 84.53348399 -10.69836513 78.82050226 -10.68408203 73.10742188 C-10.66775507 66.50048311 -10.67304346 59.89382206 -10.68956125 53.28689003 C-10.70317114 47.61631707 -10.70509824 41.94582777 -10.69724524 36.27524376 C-10.69256595 32.88757143 -10.69195077 29.50002968 -10.70185471 26.11236572 C-10.70944703 22.33643639 -10.6978953 18.56104534 -10.68115234 14.78515625 C-10.68722504 13.65986511 -10.69329773 12.53457397 -10.69955444 11.37518311 C-10.69109497 10.3488678 -10.6826355 9.32255249 -10.67391968 8.26513672 C-10.6727886 7.3721286 -10.67165752 6.47912048 -10.67049217 5.55905151 C-9.67128484 -0.43868633 -5.10182688 -0.11541066 0 0 Z " fill="#298EF3" transform="translate(26.29296875,330.70703125)"/>
<path d="M0 0 C1.04462402 -0.01029488 1.04462402 -0.01029488 2.11035156 -0.02079773 C4.40710975 -0.0390651 6.70318492 -0.03522904 9 -0.02954102 C10.59896059 -0.0341025 12.19791922 -0.03940797 13.796875 -0.04542542 C17.14591443 -0.05435607 20.49471538 -0.05193359 23.84375 -0.04199219 C28.13475013 -0.03049553 32.42492819 -0.05072414 36.71582031 -0.07990932 C40.01698022 -0.09825697 43.31794253 -0.09798191 46.61914062 -0.0922718 C48.20118362 -0.09211845 49.78323988 -0.0981746 51.36523438 -0.11056328 C53.5773476 -0.12544735 55.78793446 -0.11481806 58 -0.09765625 C59.258125 -0.09749008 60.51625 -0.09732391 61.8125 -0.09715271 C65 0.40405273 65 0.40405273 67.44921875 2.2674408 C69 4.40405273 69 4.40405273 68.8125 7.09155273 C68 9.40405273 68 9.40405273 67 10.40405273 C64.63777782 10.5096189 62.30464616 10.55083771 59.94165039 10.54931641 C58.83434319 10.55435432 58.83434319 10.55435432 57.70466614 10.55949402 C55.25231262 10.56903155 52.80002718 10.57094853 50.34765625 10.57202148 C48.64993765 10.57523213 46.95221934 10.57859605 45.25450134 10.58210754 C41.69090127 10.58810584 38.12732547 10.58994673 34.5637207 10.58935547 C29.98906956 10.58925381 25.4145735 10.60290693 20.83995914 10.62012768 C17.3321816 10.63122618 13.82444179 10.63327534 10.31664848 10.63274574 C8.62968855 10.63392908 6.94272773 10.63837052 5.25578499 10.64607811 C2.89965975 10.65583482 0.54387442 10.65301726 -1.81225586 10.64697266 C-2.51415039 10.65259216 -3.21604492 10.65821167 -3.93920898 10.66400146 C-8.77168423 10.63236851 -8.77168423 10.63236851 -11 8.40405273 C-11.375 5.96655273 -11.375 5.96655273 -11 3.40405273 C-7.65015435 -0.04921863 -4.66160902 0.02001916 0 0 Z " fill="#03080C" transform="translate(370,191.595947265625)"/>
<path d="M0 0 C0.70909012 -0.00350464 1.41818024 -0.00700928 2.14875793 -0.01062012 C4.49835937 -0.01944014 6.84766099 -0.01358746 9.19726562 -0.00683594 C10.82629454 -0.00818251 12.45532305 -0.01012298 14.08435059 -0.01263428 C17.50077129 -0.0155859 20.91708752 -0.0112867 24.33349609 -0.00195312 C28.71868964 0.00944148 33.10363838 0.00288221 37.48882294 -0.00909805 C40.85335138 -0.01631564 44.21782152 -0.0140292 47.58235168 -0.00884247 C49.1995293 -0.00750569 50.81671217 -0.00915468 52.43388367 -0.01380157 C54.69174272 -0.01886522 56.94920206 -0.0111592 59.20703125 0 C61.13657654 0.00238678 61.13657654 0.00238678 63.10510254 0.00482178 C66.10351562 0.25878906 66.10351562 0.25878906 68.10351562 2.25878906 C68.41601562 5.25878906 68.41601562 5.25878906 68.10351562 8.25878906 C64.44086788 10.70055423 62.66021206 10.51729308 58.29296875 10.53344727 C57.60484604 10.5385582 56.91672333 10.54366913 56.20774841 10.54893494 C53.93333234 10.56283431 51.65921912 10.56187417 49.38476562 10.55957031 C47.80440152 10.56345666 46.22403846 10.5677912 44.64367676 10.57255554 C41.3315899 10.58001818 38.01960963 10.57972589 34.70751953 10.57446289 C30.46025208 10.56866381 26.21342009 10.5856093 21.96622467 10.60880756 C18.7028752 10.62352783 15.43963106 10.62441903 12.17625427 10.62129784 C10.61013424 10.62181177 9.04400842 10.62706299 7.47792053 10.63710976 C5.28967841 10.6494262 3.10229061 10.64271262 0.9140625 10.63110352 C-0.33153442 10.63173294 -1.57713135 10.63236237 -2.86047363 10.63301086 C-5.89648438 10.25878906 -5.89648438 10.25878906 -7.8026123 8.89567566 C-9.3493623 6.58109573 -9.24531758 4.9796881 -8.89648438 2.25878906 C-6.02463171 -0.6130636 -4.02156793 0.00497454 0 0 Z " fill="#010305" transform="translate(369.896484375,224.7412109375)"/>
<path d="M0 0 C9.57 0 19.14 0 29 0 C29 0.33 29 0.66 29 1 C22.07 1 15.14 1 8 1 C8.07429232 7.36864517 8.15738854 13.73596106 8.26245117 20.10400391 C8.29554202 22.26669235 8.32362236 24.42946388 8.34643555 26.59228516 C8.38027426 29.71552674 8.43260351 32.83801777 8.48828125 35.9609375 C8.49467117 36.91551849 8.5010611 37.87009949 8.50764465 38.85360718 C8.7086287 48.19703891 10.2485873 56.2485873 17 63 C18.485 63.99 18.485 63.99 20 65 C13.09963185 64.44797055 8.80021598 62.22473333 4.25 57.0625 C1.06518884 52.72761815 -0.2548242 49.30848263 -0.22705078 43.93432617 C-0.22689972 42.95368698 -0.22674866 41.97304779 -0.22659302 40.96269226 C-0.21627045 39.9166835 -0.20594788 38.87067474 -0.1953125 37.79296875 C-0.1924826 36.71243729 -0.18965271 35.63190582 -0.18673706 34.51863098 C-0.17556132 31.07480699 -0.15046118 27.63124511 -0.125 24.1875 C-0.11496685 21.84961314 -0.10584158 19.51172219 -0.09765625 17.17382812 C-0.07733395 11.44903705 -0.03817955 5.72481119 0 0 Z " fill="#288BEE" transform="translate(284,202)"/>
<path d="M0 0 C1.02075623 -0.00287018 1.02075623 -0.00287018 2.06213379 -0.00579834 C3.50122446 -0.00715963 4.94032744 -0.00346705 6.37939453 0.00488281 C8.58524087 0.01558372 10.79027281 0.00498628 12.99609375 -0.0078125 C14.39323097 -0.00649089 15.79036768 -0.00392848 17.1875 0 C18.46302734 0.00225586 19.73855469 0.00451172 21.05273438 0.00683594 C24.09375 0.265625 24.09375 0.265625 26.09375 2.265625 C26.34375 5.265625 26.34375 5.265625 26.09375 8.265625 C22.5913812 11.7679938 17.37563586 10.56958754 12.640625 10.58789062 C11.52204102 10.58462769 11.52204102 10.58462769 10.38085938 10.58129883 C8.1023791 10.57813697 5.82519479 10.60160017 3.546875 10.62695312 C2.10416831 10.62922588 0.66145812 10.62992973 -0.78125 10.62890625 C-2.75738281 10.63337769 -2.75738281 10.63337769 -4.7734375 10.63793945 C-5.80726563 10.51507568 -6.84109375 10.39221191 -7.90625 10.265625 C-9.90625 7.265625 -9.90625 7.265625 -9.65625 4.703125 C-8.01621669 -0.62698325 -5.00075598 0.00884419 0 0 Z " fill="#010306" transform="translate(411.90625,159.734375)"/>
<path d="M0 0 C0.97259766 -0.00257813 1.94519531 -0.00515625 2.94726562 -0.0078125 C3.96626953 -0.00007812 4.98527344 0.00765625 6.03515625 0.015625 C7.05029297 0.00789062 8.06542969 0.00015625 9.11132812 -0.0078125 C10.08521484 -0.00523437 11.05910156 -0.00265625 12.0625 0 C12.95573975 0.00225586 13.84897949 0.00451172 14.76928711 0.00683594 C17.09765625 0.265625 17.09765625 0.265625 20.09765625 2.265625 C20.41015625 5.265625 20.41015625 5.265625 20.09765625 8.265625 C17.05662059 11.30666066 14.04924539 10.55893347 9.89257812 10.58789062 C8.82587891 10.58466797 7.75917969 10.58144531 6.66015625 10.578125 C5.59732422 10.59423828 4.53449219 10.61035156 3.43945312 10.62695312 C1.91094727 10.62791992 1.91094727 10.62791992 0.3515625 10.62890625 C-0.58357178 10.63188721 -1.51870605 10.63486816 -2.48217773 10.63793945 C-4.90234375 10.265625 -4.90234375 10.265625 -6.74243164 8.90307617 C-7.90234375 7.265625 -7.90234375 7.265625 -7.71484375 4.703125 C-6.22183054 0.22408537 -4.37265962 0.01105703 0 0 Z " fill="#020508" transform="translate(366.90234375,159.734375)"/>
<path d="M0 0 C-7.80878028 12.80639965 -19.11824443 18.11598671 -33.34838867 22.12231445 C-47.37631901 25.49400728 -61.73524237 25.25575242 -76.0625 25.125 C-78.00845887 25.11493665 -79.95442285 25.10581681 -81.90039062 25.09765625 C-86.60039021 25.07593946 -91.30013609 25.04160021 -96 25 C-96 24.67 -96 24.34 -96 24 C-94.91170898 23.98018066 -93.82341797 23.96036133 -92.70214844 23.93994141 C-88.60916568 23.86304599 -84.51650027 23.77446892 -80.42382812 23.68261719 C-78.66282481 23.64467007 -76.90175298 23.60976203 -75.140625 23.578125 C-65.26710526 23.39860646 -55.69273074 23.09310171 -46 21 C-45.3090625 20.85981445 -44.618125 20.71962891 -43.90625 20.57519531 C-29.86403455 17.57139504 -16.2327843 12.34917645 -8 0 C-2.66666667 -1.33333333 -2.66666667 -1.33333333 0 0 Z " fill="#D0A070" transform="translate(338,369)"/>
<path d="M0 0 C2.64 0 5.28 0 8 0 C8.20474001 3.68667002 8.32809831 7.37186743 8.4375 11.0625 C8.49615234 12.10083984 8.55480469 13.13917969 8.61523438 14.20898438 C8.78469403 21.83466896 8.78469403 21.83466896 6.44580078 25.30810547 C4.71307944 27.06562426 3.03132316 28.60060306 1 30 C0.67 30 0.34 30 0 30 C0 20.1 0 10.2 0 0 Z " fill="#F8AC01" transform="translate(217,197)"/>
<path d="M0 0 C0.33 0 0.66 0 1 0 C1 10.56 1 21.12 1 32 C-3.24446955 29.87776522 -6.01703972 27.25477904 -9.296875 23.93359375 C-9.89050842 23.33950211 -10.48414185 22.74541046 -11.09576416 22.13331604 C-12.34535316 20.88071283 -13.59251774 19.62568693 -14.83740234 18.3684082 C-16.75173412 16.43574928 -18.67401858 14.51128287 -20.59765625 12.58789062 C-21.8103702 11.37026394 -23.02262608 10.15218082 -24.234375 8.93359375 C-24.81241882 8.3544371 -25.39046265 7.77528046 -25.98602295 7.17857361 C-30 3.11606324 -30 3.11606324 -30 2 C-27.11327526 1.38580325 -25.7823072 1.18956915 -23 2 C-20.12956146 4.52487118 -17.81854378 7.46270478 -15.38623047 10.40283203 C-12.72970868 13.4635868 -9.82044588 16.27952773 -6.9375 19.125 C-4.978125 21.06375 -3.01875 23.0025 -1 25 C-0.67 16.75 -0.34 8.5 0 0 Z " fill="#257FD8" transform="translate(397,270)"/>
</svg>
