<?xml version="1.0" encoding="UTF-8"?>
<svg version="1.1" xmlns="http://www.w3.org/2000/svg" width="512" height="512">
<path d="M0 0 C0.80879136 -0.00581376 1.61758272 -0.01162753 2.45088291 -0.01761746 C5.16641021 -0.03223841 7.88103661 -0.01832261 10.59655762 -0.00457001 C12.56086947 -0.00917809 14.52517789 -0.01553038 16.48947906 -0.02347898 C21.89158199 -0.04020807 27.29340299 -0.0319096 32.69550705 -0.01953411 C38.51972127 -0.01050062 44.3438863 -0.0244449 50.16809082 -0.0354538 C61.57940987 -0.05326177 72.99062382 -0.04938887 84.40194702 -0.03780323 C93.67426416 -0.02877815 102.9465518 -0.0275409 112.21887207 -0.0318985 C113.53739874 -0.03251143 114.85592542 -0.03312436 116.21440744 -0.03375587 C118.2213245 -0.03470761 120.22824155 -0.03567246 122.23515859 -0.03666343 C147.31861731 -0.04890162 172.40201865 -0.03780214 197.48546851 -0.01627585 C219.77448207 0.00270683 242.06340423 0.00100833 264.35241699 -0.01811981 C289.38976189 -0.03953468 314.42705609 -0.04803372 339.46440887 -0.03567076 C342.13305154 -0.03438787 344.80169422 -0.03313905 347.47033691 -0.0318985 C349.43999035 -0.03097285 349.43999035 -0.03097285 351.44943476 -0.03002849 C360.71308778 -0.02657146 369.97670843 -0.03241156 379.24035645 -0.04181671 C390.52611101 -0.05302273 401.81175426 -0.05002602 413.09749603 -0.02869374 C418.85820138 -0.01816458 424.61872098 -0.01409335 430.37942505 -0.02729034 C435.64963442 -0.03918129 440.91948528 -0.03270606 446.18966198 -0.01138014 C448.09939817 -0.00690008 450.00916446 -0.00921164 451.91888142 -0.01888329 C454.50942475 -0.0309998 457.09873084 -0.0186209 459.68920898 0 C460.43540025 -0.00936466 461.18159151 -0.01872933 461.95039463 -0.02837777 C468.313585 0.06340643 471.84625292 2.4560261 476.18785858 6.90406036 C478.77516885 12.52502894 478.39447009 17.97682847 478.35253906 24.09223175 C478.35714958 25.49557263 478.36350352 26.89890868 478.37144804 28.30223465 C478.38814407 32.15376164 478.37989395 36.00489211 478.36750317 39.85642052 C478.35845605 44.01191518 478.37242071 48.16734147 478.38342285 52.32282257 C478.4012163 60.46152356 478.39736443 68.60007705 478.38577229 76.73878384 C478.37674148 83.35282795 478.37551244 89.9668307 478.37986755 96.58087921 C478.38048049 97.52195676 478.38109342 98.4630343 478.38172492 99.43262935 C478.38300382 101.34436577 478.38430067 103.25610218 478.38561529 105.16783857 C478.39702351 123.097348 478.38390359 141.02677564 478.36241382 158.95627165 C478.34454262 174.343104 478.34764666 189.72981564 478.36608887 205.11664581 C478.38749131 222.98166771 478.39592485 240.84661792 478.38363981 258.71165085 C478.38236561 260.61638386 478.38110812 262.52111688 478.37986755 264.42584991 C478.3789419 265.83162485 478.3789419 265.83162485 478.37799755 267.26579928 C478.37454277 273.87247103 478.38037575 280.47909732 478.38978577 287.08576202 C478.40100017 295.13628749 478.39797749 303.18665693 478.37666279 311.2371645 C478.36614481 315.34527741 478.36204316 319.45313012 478.3752594 323.56124115 C478.38717386 327.3215574 478.38063688 331.08137214 478.35934919 334.84164286 C478.35276051 336.84709251 478.36582775 338.85257693 478.37957811 340.85799026 C478.28469267 351.70647547 478.28469267 351.70647547 473.84460449 356.50336456 C468.29834823 361.63365161 463.78169169 361.65032981 456.46710205 361.62361908 C455.18790717 361.62490072 455.18790717 361.62490072 453.88286996 361.62620825 C451.02080969 361.62785743 448.15880782 361.62235083 445.29675293 361.61688995 C443.24692791 361.61660793 441.19710279 361.6167661 439.14727783 361.61733246 C433.57743558 361.61761986 428.00761478 361.61173234 422.43777752 361.6047585 C416.61881811 361.59851547 410.79985824 361.59792041 404.980896 361.59673309 C393.95957543 361.59362259 382.93826476 361.58541296 371.91694856 361.5753836 C359.37054202 361.56421378 346.82413501 361.55870982 334.27772474 361.55368817 C308.46667917 361.54323013 282.65564238 361.52563609 256.84460449 361.50336456 C259.02648607 365.41317672 261.21074802 369.32165436 263.39538574 373.22992706 C264.30665222 374.86296783 264.30665222 374.86296783 265.23632812 376.52899933 C272.15918073 388.90809558 279.33742929 401.13652808 286.52575684 413.36273956 C288.09411467 416.03244348 289.65726965 418.70513296 291.21960449 421.37836456 C291.92572876 422.5740506 291.92572876 422.5740506 292.64611816 423.79389191 C295.84460449 429.27649022 295.84460449 429.27649022 295.84460449 431.50336456 C296.66573982 431.49337181 296.66573982 431.49337181 297.50346375 431.48317719 C303.26351983 431.41618201 309.0234631 431.37130138 314.78381348 431.33856964 C316.92611191 431.32359529 319.06838028 431.30320861 321.21057129 431.2770462 C341.411396 431.03672848 357.94865639 432.08756107 373.29382324 446.69477081 C382.42132948 456.74481214 385.84460449 467.17729435 385.84460449 480.50336456 C282.88460449 480.50336456 179.92460449 480.50336456 73.84460449 480.50336456 C73.84460449 466.81805427 77.88445342 456.27226558 87.06335449 446.02680206 C98.84259834 434.59175689 112.93992895 431.13564096 128.88366699 431.30805206 C130.39396988 431.31229691 130.39396988 431.31229691 131.93478394 431.3166275 C135.1131845 431.32771628 138.29129081 431.35279913 141.46960449 431.37836456 C143.64017331 431.38840899 145.81074659 431.39753227 147.98132324 431.40570831 C153.26918204 431.4276184 158.55687223 431.46098121 163.84460449 431.50336456 C164.25513062 430.17063507 164.25513062 430.17063507 164.6739502 428.81098175 C165.74204607 425.79313755 166.94546471 423.32327519 168.57507324 420.58148956 C169.1234082 419.65126984 169.67174316 418.72105011 170.23669434 417.76264191 C170.82917969 416.76958038 171.42166504 415.77651886 172.03210449 414.75336456 C173.2996991 412.60532084 174.56660171 410.45686864 175.83288574 408.30805206 C176.49111328 407.1939798 177.14934082 406.07990753 177.82751465 404.9320755 C181.15984488 399.26767878 184.43981053 393.57329091 187.71960449 387.87836456 C188.31281494 386.85001495 188.90602539 385.82166534 189.51721191 384.76215363 C192.71237291 379.21979016 195.89495859 373.6703697 199.06774902 368.11518097 C199.43320328 367.4754686 199.79865753 366.83575623 200.17518616 366.17665863 C201.06506633 364.61893625 201.95484602 363.06115646 202.84460449 361.50336456 C201.77908072 361.50612994 200.71355696 361.50889532 199.61574459 361.5117445 C173.69311272 361.57833352 147.77049195 361.62763728 121.84779263 361.65880108 C109.31178689 361.67427209 96.77583764 361.69536618 84.23986816 361.72968292 C73.31393794 361.75957799 62.38804862 361.77893786 51.46207863 361.78563005 C45.67648986 361.7895421 39.89101812 361.79874102 34.10546684 361.82055473 C28.65955381 361.84092147 23.21380601 361.84719792 17.76785851 361.84268761 C15.76960604 361.84351272 13.77134803 361.84947718 11.77312851 361.86098099 C9.04284001 361.87592792 6.31317367 361.87231007 3.58287048 361.86412811 C2.79394313 361.87286664 2.00501577 361.88160516 1.19218153 361.89060849 C-4.52318264 361.84438038 -9.46005877 360.87840344 -13.89758301 356.96820831 C-17.19646312 352.52040789 -18.28005227 350.46574139 -18.28961658 344.96412277 C-18.29407443 343.77948637 -18.29853227 342.59484997 -18.3031252 341.3743155 C-18.30294084 340.06131148 -18.30275648 338.74830746 -18.30256653 337.39551544 C-18.30586426 335.99563232 -18.30958964 334.59575015 -18.31370801 333.19586921 C-18.32374646 329.33543506 -18.32744776 325.47501645 -18.33009732 321.61457109 C-18.33399491 317.45630002 -18.34357362 313.29804133 -18.35231018 309.13977814 C-18.37209004 299.09081396 -18.38214273 289.04184875 -18.39103797 278.99286997 C-18.39541838 274.26369894 -18.40078583 269.53452903 -18.40602684 264.80535889 C-18.42304065 249.08973803 -18.43753559 233.37411788 -18.44477558 217.65848923 C-18.44668556 213.57846068 -18.44860588 209.49843215 -18.45056152 205.41840363 C-18.45104526 204.40429947 -18.451529 203.39019531 -18.4520274 202.34536073 C-18.46033056 185.91159619 -18.48567162 169.47790437 -18.5181422 153.0441716 C-18.55118833 136.1820328 -18.56922213 119.31993098 -18.57241982 102.45775962 C-18.57458719 92.98620328 -18.58336893 83.51475298 -18.608881 74.04322815 C-18.63055462 65.97798925 -18.63865492 57.91288214 -18.62891421 49.84761742 C-18.62435978 45.73141555 -18.62632174 41.61548579 -18.64567566 37.49932098 C-18.66323907 33.73146997 -18.66236567 29.96409094 -18.64677837 26.19623539 C-18.64326076 24.18659819 -18.6594794 22.17695643 -18.67638284 20.16738725 C-18.59654092 9.04774336 -18.59654092 9.04774336 -14.15539551 4.50336456 C-9.4769342 0.74458787 -5.85132399 -0.07343384 0 0 Z " fill="#FEFEFE" transform="translate(26.1553955078125,15.496635437011719)"/>
<path d="M0 0 C0.80879136 -0.00581376 1.61758272 -0.01162753 2.45088291 -0.01761746 C5.16641021 -0.03223841 7.88103661 -0.01832261 10.59655762 -0.00457001 C12.56086947 -0.00917809 14.52517789 -0.01553038 16.48947906 -0.02347898 C21.89158199 -0.04020807 27.29340299 -0.0319096 32.69550705 -0.01953411 C38.51972127 -0.01050062 44.3438863 -0.0244449 50.16809082 -0.0354538 C61.57940987 -0.05326177 72.99062382 -0.04938887 84.40194702 -0.03780323 C93.67426416 -0.02877815 102.9465518 -0.0275409 112.21887207 -0.0318985 C113.53739874 -0.03251143 114.85592542 -0.03312436 116.21440744 -0.03375587 C118.2213245 -0.03470761 120.22824155 -0.03567246 122.23515859 -0.03666343 C147.31861731 -0.04890162 172.40201865 -0.03780214 197.48546851 -0.01627585 C219.77448207 0.00270683 242.06340423 0.00100833 264.35241699 -0.01811981 C289.38976189 -0.03953468 314.42705609 -0.04803372 339.46440887 -0.03567076 C342.13305154 -0.03438787 344.80169422 -0.03313905 347.47033691 -0.0318985 C349.43999035 -0.03097285 349.43999035 -0.03097285 351.44943476 -0.03002849 C360.71308778 -0.02657146 369.97670843 -0.03241156 379.24035645 -0.04181671 C390.52611101 -0.05302273 401.81175426 -0.05002602 413.09749603 -0.02869374 C418.85820138 -0.01816458 424.61872098 -0.01409335 430.37942505 -0.02729034 C435.64963442 -0.03918129 440.91948528 -0.03270606 446.18966198 -0.01138014 C448.09939817 -0.00690008 450.00916446 -0.00921164 451.91888142 -0.01888329 C454.50942475 -0.0309998 457.09873084 -0.0186209 459.68920898 0 C460.43540025 -0.00936466 461.18159151 -0.01872933 461.95039463 -0.02837777 C468.313585 0.06340643 471.84625292 2.4560261 476.18785858 6.90406036 C478.77516885 12.52502894 478.39447009 17.97682847 478.35253906 24.09223175 C478.35714958 25.49557263 478.36350352 26.89890868 478.37144804 28.30223465 C478.38814407 32.15376164 478.37989395 36.00489211 478.36750317 39.85642052 C478.35845605 44.01191518 478.37242071 48.16734147 478.38342285 52.32282257 C478.4012163 60.46152356 478.39736443 68.60007705 478.38577229 76.73878384 C478.37674148 83.35282795 478.37551244 89.9668307 478.37986755 96.58087921 C478.38048049 97.52195676 478.38109342 98.4630343 478.38172492 99.43262935 C478.38300382 101.34436577 478.38430067 103.25610218 478.38561529 105.16783857 C478.39702351 123.097348 478.38390359 141.02677564 478.36241382 158.95627165 C478.34454262 174.343104 478.34764666 189.72981564 478.36608887 205.11664581 C478.38749131 222.98166771 478.39592485 240.84661792 478.38363981 258.71165085 C478.38236561 260.61638386 478.38110812 262.52111688 478.37986755 264.42584991 C478.3789419 265.83162485 478.3789419 265.83162485 478.37799755 267.26579928 C478.37454277 273.87247103 478.38037575 280.47909732 478.38978577 287.08576202 C478.40100017 295.13628749 478.39797749 303.18665693 478.37666279 311.2371645 C478.36614481 315.34527741 478.36204316 319.45313012 478.3752594 323.56124115 C478.38717386 327.3215574 478.38063688 331.08137214 478.35934919 334.84164286 C478.35276051 336.84709251 478.36582775 338.85257693 478.37957811 340.85799026 C478.28469267 351.70647547 478.28469267 351.70647547 473.84460449 356.50336456 C468.29834823 361.63365161 463.78169169 361.65032981 456.46710205 361.62361908 C455.18790717 361.62490072 455.18790717 361.62490072 453.88286996 361.62620825 C451.02080969 361.62785743 448.15880782 361.62235083 445.29675293 361.61688995 C443.24692791 361.61660793 441.19710279 361.6167661 439.14727783 361.61733246 C433.57743558 361.61761986 428.00761478 361.61173234 422.43777752 361.6047585 C416.61881811 361.59851547 410.79985824 361.59792041 404.980896 361.59673309 C393.95957543 361.59362259 382.93826476 361.58541296 371.91694856 361.5753836 C359.37054202 361.56421378 346.82413501 361.55870982 334.27772474 361.55368817 C308.46667917 361.54323013 282.65564238 361.52563609 256.84460449 361.50336456 C259.02648607 365.41317672 261.21074802 369.32165436 263.39538574 373.22992706 C264.30665222 374.86296783 264.30665222 374.86296783 265.23632812 376.52899933 C272.15918073 388.90809558 279.33742929 401.13652808 286.52575684 413.36273956 C288.09411467 416.03244348 289.65726965 418.70513296 291.21960449 421.37836456 C291.92572876 422.5740506 291.92572876 422.5740506 292.64611816 423.79389191 C295.84460449 429.27649022 295.84460449 429.27649022 295.84460449 431.50336456 C296.66573982 431.49337181 296.66573982 431.49337181 297.50346375 431.48317719 C303.26351983 431.41618201 309.0234631 431.37130138 314.78381348 431.33856964 C316.92611191 431.32359529 319.06838028 431.30320861 321.21057129 431.2770462 C341.411396 431.03672848 357.94865639 432.08756107 373.29382324 446.69477081 C382.42132948 456.74481214 385.84460449 467.17729435 385.84460449 480.50336456 C282.88460449 480.50336456 179.92460449 480.50336456 73.84460449 480.50336456 C73.84460449 466.81805427 77.88445342 456.27226558 87.06335449 446.02680206 C98.84259834 434.59175689 112.93992895 431.13564096 128.88366699 431.30805206 C130.39396988 431.31229691 130.39396988 431.31229691 131.93478394 431.3166275 C135.1131845 431.32771628 138.29129081 431.35279913 141.46960449 431.37836456 C143.64017331 431.38840899 145.81074659 431.39753227 147.98132324 431.40570831 C153.26918204 431.4276184 158.55687223 431.46098121 163.84460449 431.50336456 C164.25513062 430.17063507 164.25513062 430.17063507 164.6739502 428.81098175 C165.74204607 425.79313755 166.94546471 423.32327519 168.57507324 420.58148956 C169.1234082 419.65126984 169.67174316 418.72105011 170.23669434 417.76264191 C170.82917969 416.76958038 171.42166504 415.77651886 172.03210449 414.75336456 C173.2996991 412.60532084 174.56660171 410.45686864 175.83288574 408.30805206 C176.49111328 407.1939798 177.14934082 406.07990753 177.82751465 404.9320755 C181.15984488 399.26767878 184.43981053 393.57329091 187.71960449 387.87836456 C188.31281494 386.85001495 188.90602539 385.82166534 189.51721191 384.76215363 C192.71237291 379.21979016 195.89495859 373.6703697 199.06774902 368.11518097 C199.43320328 367.4754686 199.79865753 366.83575623 200.17518616 366.17665863 C201.06506633 364.61893625 201.95484602 363.06115646 202.84460449 361.50336456 C201.77908072 361.50612994 200.71355696 361.50889532 199.61574459 361.5117445 C173.69311272 361.57833352 147.77049195 361.62763728 121.84779263 361.65880108 C109.31178689 361.67427209 96.77583764 361.69536618 84.23986816 361.72968292 C73.31393794 361.75957799 62.38804862 361.77893786 51.46207863 361.78563005 C45.67648986 361.7895421 39.89101812 361.79874102 34.10546684 361.82055473 C28.65955381 361.84092147 23.21380601 361.84719792 17.76785851 361.84268761 C15.76960604 361.84351272 13.77134803 361.84947718 11.77312851 361.86098099 C9.04284001 361.87592792 6.31317367 361.87231007 3.58287048 361.86412811 C2.79394313 361.87286664 2.00501577 361.88160516 1.19218153 361.89060849 C-4.52318264 361.84438038 -9.46005877 360.87840344 -13.89758301 356.96820831 C-17.19646312 352.52040789 -18.28005227 350.46574139 -18.28961658 344.96412277 C-18.29407443 343.77948637 -18.29853227 342.59484997 -18.3031252 341.3743155 C-18.30294084 340.06131148 -18.30275648 338.74830746 -18.30256653 337.39551544 C-18.30586426 335.99563232 -18.30958964 334.59575015 -18.31370801 333.19586921 C-18.32374646 329.33543506 -18.32744776 325.47501645 -18.33009732 321.61457109 C-18.33399491 317.45630002 -18.34357362 313.29804133 -18.35231018 309.13977814 C-18.37209004 299.09081396 -18.38214273 289.04184875 -18.39103797 278.99286997 C-18.39541838 274.26369894 -18.40078583 269.53452903 -18.40602684 264.80535889 C-18.42304065 249.08973803 -18.43753559 233.37411788 -18.44477558 217.65848923 C-18.44668556 213.57846068 -18.44860588 209.49843215 -18.45056152 205.41840363 C-18.45104526 204.40429947 -18.451529 203.39019531 -18.4520274 202.34536073 C-18.46033056 185.91159619 -18.48567162 169.47790437 -18.5181422 153.0441716 C-18.55118833 136.1820328 -18.56922213 119.31993098 -18.57241982 102.45775962 C-18.57458719 92.98620328 -18.58336893 83.51475298 -18.608881 74.04322815 C-18.63055462 65.97798925 -18.63865492 57.91288214 -18.62891421 49.84761742 C-18.62435978 45.73141555 -18.62632174 41.61548579 -18.64567566 37.49932098 C-18.66323907 33.73146997 -18.66236567 29.96409094 -18.64677837 26.19623539 C-18.64326076 24.18659819 -18.6594794 22.17695643 -18.67638284 20.16738725 C-18.59654092 9.04774336 -18.59654092 9.04774336 -14.15539551 4.50336456 C-9.4769342 0.74458787 -5.85132399 -0.07343384 0 0 Z M31.84460449 50.50336456 C31.84460449 136.30336456 31.84460449 222.10336456 31.84460449 310.50336456 C162.52460449 310.50336456 293.20460449 310.50336456 427.84460449 310.50336456 C427.84460449 224.70336456 427.84460449 138.90336456 427.84460449 50.50336456 C297.16460449 50.50336456 166.48460449 50.50336456 31.84460449 50.50336456 Z " fill="#E3E4E8" transform="translate(26.1553955078125,15.496635437011719)"/>
<path d="M0 0 C2.39049746 0.04955909 4.78113963 0.09259377 7.171875 0.12890625 C11.53155734 0.23054584 15.88976527 0.33474493 20.24560547 0.54638672 C21.11780731 0.58496796 21.99000916 0.62354919 22.88864136 0.66329956 C25.5717564 1.2172337 26.43591914 2.00917482 28.125 4.125 C29.26074599 5.93079377 30.34304222 7.77057894 31.390625 9.62890625 C32.34400757 11.31016602 32.34400757 11.31016602 33.31665039 13.02539062 C34.0027696 14.24609225 34.68888607 15.46679541 35.375 16.6875 C36.44840502 18.58420045 37.52359097 20.47988466 38.59877014 22.37557983 C39.33660076 23.67686836 40.0738482 24.97848771 40.81053162 26.28042603 C44.56639422 32.91644077 48.37266016 39.52272826 52.1875 46.125 C52.78143555 47.15439697 53.37537109 48.18379395 53.98730469 49.24438477 C54.5599707 50.23623779 55.13263672 51.22809082 55.72265625 52.25 C56.2758252 53.2090625 56.82899414 54.168125 57.39892578 55.15625 C58.62601419 57.26677263 59.86527096 59.37024086 61.11279297 61.46875 C61.75490723 62.5515625 62.39702148 63.634375 63.05859375 64.75 C63.64568115 65.73226562 64.23276855 66.71453125 64.83764648 67.7265625 C66.125 70.125 66.125 70.125 66.125 72.125 C66.94613533 72.11500725 66.94613533 72.11500725 67.78385925 72.10481262 C73.54391534 72.03781745 79.30385861 71.99293682 85.06420898 71.96020508 C87.20650741 71.94523073 89.34877579 71.92484405 91.4909668 71.89868164 C111.69179151 71.65836392 128.2290519 72.7091965 143.57421875 87.31640625 C152.70172499 97.36644758 156.125 107.79892978 156.125 121.125 C53.165 121.125 -49.795 121.125 -155.875 121.125 C-155.875 107.43968971 -151.83515107 96.89390102 -142.65625 86.6484375 C-130.87700615 75.21339233 -116.77967554 71.75727639 -100.8359375 71.9296875 C-99.82906891 71.9325174 -98.82220032 71.93534729 -97.78482056 71.93826294 C-94.60641999 71.94935171 -91.42831368 71.97443457 -88.25 72 C-86.07943119 72.01004443 -83.9088579 72.0191677 -81.73828125 72.02734375 C-76.45042245 72.04925384 -71.16273226 72.08261664 -65.875 72.125 C-65.46447388 70.79227051 -65.46447388 70.79227051 -65.0456543 69.43261719 C-63.97755842 66.41477298 -62.77413979 63.94491063 -61.14453125 61.203125 C-60.59627686 60.27298584 -60.04802246 59.34284668 -59.4831543 58.38452148 C-58.89058838 57.39137939 -58.29802246 56.3982373 -57.6875 55.375 C-56.41854544 53.22568852 -55.15034271 51.07593303 -53.8828125 48.92578125 C-52.89522949 47.25443115 -52.89522949 47.25443115 -51.88769531 45.54931641 C-47.97128669 38.88610106 -44.13474537 32.1765827 -40.2902832 25.47167969 C-39.11912454 23.43536581 -37.92096339 21.41436063 -36.69726562 19.40917969 C-35.30441364 16.89891109 -34.31211589 14.71132474 -33.33398438 12.05175781 C-27.14754229 -3.14131958 -14.4570734 -0.69379721 0 0 Z " fill="#98BDCD" transform="translate(255.875,374.875)"/>
<path d="M0 0 C15.65243647 4.77570689 26.55337217 16.46691949 34.34375 30.34765625 C38.11814491 38.15386618 39.53808748 45.74842579 39.4375 54.375 C39.42992676 55.2932959 39.42235352 56.2115918 39.41455078 57.15771484 C39.24036287 64.35536265 38.13810482 70.46228163 35 77 C34.54109375 77.96292969 34.0821875 78.92585938 33.609375 79.91796875 C29.8758582 87.19832651 29.8758582 87.19832651 27.48095703 89.39038086 C23.43839256 93.21260466 22.57815788 96.01332278 22.4140625 101.58984375 C22.45368364 104.0397512 22.52486466 106.4893192 22.625 108.9375 C22.65207031 110.19369141 22.67914063 111.44988281 22.70703125 112.74414062 C22.77745863 115.83120748 22.87591354 118.91470152 23 122 C26.37361038 118.20608933 28.62485914 115.13525658 30.375 110.3125 C36.40316625 95.20464235 45.10692893 86.49662195 59.5703125 79.4453125 C66.0633103 76.70908336 71.71917581 75.6353084 78.6875 75.6875 C79.47914551 75.69313965 80.27079102 75.6987793 81.08642578 75.70458984 C94.51571937 75.98032854 108.30667736 80.30667736 118 90 C118 90.66 118 91.32 118 92 C116.02673998 93.37511558 114.05509981 94.63242602 112 95.875 C100.32910834 103.16610679 89.58257657 111.36846912 79.515625 120.7421875 C69.98721446 129.29408391 61.75938583 133.38640819 48.92578125 133.20703125 C46.23164095 133.01639115 43.81526329 132.5239344 41.1875 131.9375 C39.0403783 131.57202412 39.0403783 131.57202412 37 132 C33.90418857 134.51818624 32.11298111 137.65475595 30 141 C29.39462402 141.86995605 28.78924805 142.73991211 28.16552734 143.63623047 C22.91453637 151.65355616 22.05894773 157.98041267 22.25 167.4375 C22.26788747 169.89447166 22.27358942 172.35156989 22.265625 174.80859375 C22.29317871 176.41432251 22.29317871 176.41432251 22.32128906 178.05249023 C21.95228214 181.43776424 21.01182355 183.27878572 19 186 C16.11138291 187.44430855 14.20352299 187.37688506 11 187 C8.33217346 185.01863175 6.30044475 183.45328835 5.6027832 180.07861328 C5.49805143 177.8355431 5.5129055 175.61985304 5.5625 173.375 C5.38954068 162.38099602 1.38861868 155.04055563 -6 147 C-7.2375 147.33 -8.475 147.66 -9.75 148 C-19.440095 150.09926705 -28.2289981 149.89544292 -37 145 C-41.24706044 142.17884794 -45.02402853 138.83617015 -48.890625 135.5234375 C-49.94749578 134.61929945 -51.00480212 133.71567033 -52.0625 132.8125 C-52.87702637 132.11664795 -52.87702637 132.11664795 -53.70800781 131.40673828 C-64.22588474 122.50071541 -75.41755643 114.45839169 -87 107 C-83.20917394 102.80667311 -79.43793232 100.28445176 -74.375 97.8125 C-73.66424316 97.46445313 -72.95348633 97.11640625 -72.22119141 96.7578125 C-59.64245529 90.81698441 -45.24960678 90.13108889 -31.87109375 93.96875 C-18.09127808 98.91823481 -7.78417042 108.0703724 -1 121 C0.4413608 124.19345653 1.78690483 127.39805284 3.0546875 130.6640625 C3.7914382 132.92150888 3.7914382 132.92150888 5 134 C5.22427135 128.7716023 5.38660029 123.54606283 5.49438477 118.31396484 C5.53935398 116.53872866 5.60055658 114.76382033 5.67895508 112.98974609 C6.36869415 102.45108359 6.36869415 102.45108359 3.06201172 92.73095703 C0.74141213 90.10660584 0.74141213 90.10660584 -1.75805664 88.02246094 C-6.80235632 83.47198957 -9.46081268 76.421336 -10.2734375 69.7578125 C-10.57897813 61.83725919 -8.92503481 54.76693517 -7.06884766 47.13793945 C-5.22745865 39.41149193 -3.89451578 31.67103955 -2.75 23.8125 C-2.58725586 22.70318115 -2.42451172 21.5938623 -2.25683594 20.45092773 C-1.29224279 13.6480885 -0.55055454 6.84859077 0 0 Z " fill="#37932F" transform="translate(170,98)"/>
<path d="M0 0 C0.9170246 0.00037972 1.8340492 0.00075944 2.77886242 0.00115067 C3.83283893 -0.00084038 4.88681544 -0.00283143 5.97273064 -0.00488281 C7.14488418 -0.00196997 8.31703772 0.00094287 9.52471107 0.00394398 C10.75879831 0.00308955 11.99288555 0.00223513 13.26436937 0.00135481 C16.70540629 -0.00001343 20.14638703 0.00313427 23.58741719 0.00813287 C27.29227404 0.01243389 30.99712903 0.0109912 34.70198768 0.0102306 C41.12608515 0.00970514 47.5501725 0.01285421 53.97426742 0.01846844 C63.26253715 0.0265805 72.55080196 0.02919836 81.83907484 0.03045643 C96.90709548 0.03264741 111.97511072 0.03930875 127.04312843 0.04875904 C141.68407868 0.05793196 156.32502746 0.06501338 170.96597999 0.06926686 C171.86778993 0.06952958 172.76959988 0.0697923 173.69873739 0.07006299 C178.22265627 0.07136798 182.74657515 0.0726317 187.27049404 0.07387489 C224.8267894 0.08424895 262.38307861 0.10186852 299.93936867 0.1241985 C300.58932164 1.53897985 301.23415589 2.95611337 301.87686867 4.3741985 C302.2365171 5.16310475 302.59616554 5.952011 302.96671242 6.7648235 C305.24627497 12.2943648 304.93936867 15.73707574 304.93936867 22.1241985 C201.97936867 22.1241985 99.01936867 22.1241985 -7.06063133 22.1241985 C-7.06063133 11.9747323 -7.06063133 11.9747323 -5.12313133 6.6241985 C-4.7634829 5.603261 -4.40383446 4.5823235 -4.03328758 3.5304485 C-2.67128812 0.16100404 -2.67128812 0.16100404 0 0 Z " fill="#6B99B0" transform="translate(107.06063133478165,473.8758015036583)"/>
<path d="M0 0 C12.48075257 5.87329533 19.29818854 18.56702204 24 31 C27.35466944 45.5369009 25.74289658 61.58128317 18.6875 74.6875 C16.14518802 78.46149107 13.42123648 79.08238488 9 80 C7.0549 82.91765 6.54723683 84.62537285 6 88 C-0.01651487 83.4274487 -3.54418231 78.70219189 -7 72 C-7.34289062 71.34 -7.68578125 70.68 -8.0390625 70 C-12.55409002 59.87283547 -9.57487902 49.39868936 -7.06933594 39.15454102 C-4.89753867 30.09393112 -3.53297124 20.9719867 -2.25683594 11.74780273 C-2.02915527 10.1034021 -2.02915527 10.1034021 -1.796875 8.42578125 C-1.66635742 7.45036377 -1.53583984 6.47494629 -1.40136719 5.4699707 C-1 3 -1 3 0 0 Z " fill="#64C35C" transform="translate(170,106)"/>
<path d="M0 0 C1.51060501 -0.01073296 1.51060501 -0.01073296 3.05172729 -0.02168274 C6.37739558 -0.03857796 9.70171748 -0.01916125 13.02734375 0.00219727 C15.33992627 0.00136865 17.65250872 -0.00109045 19.96508789 -0.00511169 C24.81056456 -0.00797028 29.65557915 0.00673814 34.50097656 0.03417969 C40.71207969 0.06826191 46.92235647 0.06224446 53.13349915 0.04351711 C57.90847663 0.03294875 62.68326183 0.0418836 67.45822144 0.05690193 C69.74835642 0.06208536 72.03851146 0.06160001 74.3286438 0.05535698 C77.52943099 0.04990699 80.7290351 0.07027439 83.9296875 0.09765625 C84.8763327 0.09113037 85.82297791 0.08460449 86.79830933 0.07788086 C90.98383715 0.13876731 93.36310835 0.27313979 97.02172852 2.44960022 C99.76138812 5.52537069 100.10832776 7.5418091 99.96484375 11.63110352 C97.95886288 14.51228327 96.34922851 16.33473949 92.82209587 17.08981514 C90.11304913 17.2767711 87.44562346 17.29504228 84.73022461 17.26220703 C83.18794945 17.27293999 83.18794945 17.27293999 81.61451721 17.28388977 C78.21912076 17.3007856 74.8250428 17.28136914 71.4296875 17.26000977 C69.06986888 17.26083831 66.71005032 17.26329715 64.35023499 17.26731873 C59.40640883 17.27017727 54.46303559 17.25546809 49.51928711 17.22802734 C43.17805464 17.19392649 36.83763115 17.19996882 30.49635983 17.21868992 C25.62448873 17.22925064 20.75280637 17.22033071 15.88095284 17.2053051 C13.54254275 17.20011731 11.20411301 17.20061229 8.86570549 17.20685005 C5.60006075 17.21229156 2.33558047 17.19196056 -0.92993164 17.16455078 C-1.8988736 17.17107666 -2.86781555 17.17760254 -3.86611938 17.18432617 C-10.37818019 17.09124042 -10.37818019 17.09124042 -13.63157654 14.81260681 C-15.73461841 11.54396967 -15.63526029 9.43176242 -15.03515625 5.63110352 C-10.82862344 -0.28465284 -6.69796914 -0.08272792 0 0 Z " fill="#E78194" transform="translate(330.03515625,109.368896484375)"/>
<path d="M0 0 C0.8621814 -0.0071553 1.72436279 -0.01431061 2.6126709 -0.02168274 C3.56075119 -0.02437164 4.50883148 -0.02706055 5.48564148 -0.02983093 C6.48251984 -0.03640213 7.47939819 -0.04297333 8.50648499 -0.04974365 C11.8155372 -0.06950402 15.12454399 -0.08114494 18.43363953 -0.09111023 C20.12605805 -0.09722352 20.12605805 -0.09722352 21.85266685 -0.10346031 C27.82358493 -0.12433205 33.79447995 -0.13862939 39.76542664 -0.147995 C45.93952298 -0.15906587 52.11325954 -0.19347078 58.28722858 -0.23316669 C63.02869345 -0.25928366 67.77007193 -0.26768244 72.5116024 -0.27127647 C74.78781249 -0.27615461 77.06401842 -0.28780328 79.34015846 -0.30631447 C82.52436138 -0.33060225 85.70762474 -0.32975964 88.89189148 -0.32279968 C89.83389908 -0.33560974 90.77590668 -0.3484198 91.74645996 -0.36161804 C95.92973909 -0.3282542 98.28042454 -0.21029245 101.94088745 1.96170044 C104.65898093 5.02061011 104.95404817 7.08934688 104.88285828 11.14717102 C103.51725769 13.8303833 103.51725769 13.8303833 100.88285828 16.14717102 C97.48608999 16.90108643 94.13730476 16.81964845 90.66996765 16.77827454 C89.63217667 16.78542984 88.59438568 16.79258514 87.52514648 16.79995728 C84.09185377 16.81687746 80.65986066 16.79742104 77.22660828 16.77607727 C74.84294018 16.77690566 72.45927214 16.77936388 70.0756073 16.78338623 C65.07872839 16.78624653 60.08229715 16.77151966 55.085495 16.74409485 C48.67585519 16.71001238 42.26701608 16.71602848 35.85733795 16.73475742 C30.93485322 16.74531879 26.01255525 16.7363973 21.09008789 16.7213726 C18.72655797 16.71618403 16.36300859 16.71668074 13.9994812 16.72291756 C10.69780946 16.7283591 7.39728947 16.70802713 4.0957489 16.68061829 C3.11588516 16.68714417 2.13602142 16.69367004 1.12646484 16.70039368 C-5.45601995 16.60733199 -5.45601995 16.60733199 -8.72419739 14.33258057 C-10.78287541 11.10269227 -10.65195654 8.89087476 -10.11714172 5.14717102 C-7.08636428 1.30818626 -4.7946654 0.02727553 0 0 Z " fill="#FA99B0" transform="translate(325.1171417236328,260.8528289794922)"/>
<path d="M0 0 C1.02643112 -0.00861557 2.05286224 -0.01723114 3.11039734 -0.02610779 C6.50622718 -0.04882608 9.90123568 -0.04201758 13.29711914 -0.03295898 C15.65597276 -0.03819213 18.01482428 -0.04446747 20.37367249 -0.05174255 C25.31920208 -0.06215778 30.26444414 -0.05756922 35.20996094 -0.04296875 C41.55008177 -0.0257841 47.88929611 -0.04926747 54.22931576 -0.08445835 C59.10122187 -0.10641144 63.97291043 -0.10499576 68.84485054 -0.09669304 C71.18244991 -0.09587229 73.52006507 -0.10275907 75.85761833 -0.11746407 C79.12569879 -0.13486942 82.39214191 -0.12039892 85.66015625 -0.09765625 C87.11053284 -0.11519455 87.11053284 -0.11519455 88.59020996 -0.13308716 C93.16624703 -0.06824343 95.25388639 0.05934947 99.02662659 2.85023499 C100.89477539 5.53344727 100.89477539 5.53344727 101.01977539 9.09594727 C99.64065061 13.30993965 98.6892192 14.27618731 94.89477539 16.53344727 C91.54950029 17.12142685 88.24937523 17.09026246 84.85961914 17.06689453 C83.85254913 17.0755101 82.84547913 17.08412567 81.80789185 17.09300232 C78.48242417 17.1156861 75.15779747 17.10891908 71.83227539 17.09985352 C69.51969146 17.10508776 67.20710967 17.1113635 64.89453125 17.11863708 C60.04913279 17.1290456 55.20402793 17.12447271 50.35864258 17.10986328 C44.14745916 17.09266934 37.93720025 17.1161769 31.72612 17.15135288 C26.95115013 17.17330539 22.17640225 17.17189062 17.40139771 17.16358757 C15.1112466 17.16276699 12.82107937 17.16965062 10.53097534 17.1843586 C7.33004783 17.20176535 4.13079167 17.18729312 0.92993164 17.16455078 C-0.01671356 17.17624298 -0.96335876 17.18793518 -1.93869019 17.19998169 C-6.46097909 17.13456087 -8.48259156 16.99997038 -12.19726562 14.21665955 C-14.69819947 10.69953131 -14.79704632 8.76124661 -14.10522461 4.53344727 C-10.65862383 -0.82340628 -5.75050519 -0.03872998 0 0 Z " fill="#FA98AF" transform="translate(329.105224609375,160.466552734375)"/>
<path d="M0 0 C1.0086763 -0.00394272 2.0173526 -0.00788544 3.05659485 -0.01194763 C6.38711376 -0.01865461 9.71625888 0.01049815 13.04663086 0.04077148 C15.36160517 0.04502187 17.67658373 0.04735019 19.99156189 0.0478363 C24.84125098 0.05400157 29.69047818 0.07670278 34.54003906 0.11230469 C40.76003599 0.1576021 46.97961476 0.17233199 53.19976139 0.1760416 C57.97895948 0.18046782 62.75806961 0.19576712 67.53722954 0.21491814 C69.83098056 0.22380416 72.12474098 0.23053231 74.41850471 0.23507881 C77.62161197 0.24411048 80.82433923 0.26649181 84.02734375 0.29296875 C85.45270447 0.29396576 85.45270447 0.29396576 86.90686035 0.29498291 C88.21687767 0.3099456 88.21687767 0.3099456 89.55335999 0.32521057 C90.31011048 0.32986108 91.06686098 0.33451159 91.84654331 0.33930302 C94.30034424 0.64282823 95.86182442 1.27916719 97.94897461 2.59936523 C99.94897461 5.59936523 99.94897461 5.59936523 99.76147461 9.09936523 C98.97738301 12.47699058 98.68072482 13.63250509 95.94897461 15.59936523 C93.65417324 16.74676592 92.34622308 16.73451691 89.79386902 16.75326538 C88.92327347 16.76186584 88.05267792 16.77046631 87.15570068 16.77932739 C86.19826965 16.78358734 85.24083862 16.78784729 84.25439453 16.79223633 C82.74444664 16.80450256 82.74444664 16.80450256 81.20399475 16.8170166 C77.86248373 16.84189232 74.52101523 16.85839147 71.17944336 16.87280273 C70.04013178 16.87812641 68.9008202 16.88345009 67.72698402 16.88893509 C61.69771624 16.91567504 55.66846923 16.93504801 49.63916016 16.94946289 C43.40444959 16.96612048 37.17026662 17.01090574 30.93575573 17.06183434 C26.1479683 17.09545109 21.360307 17.10703422 16.57241249 17.11268997 C14.27385739 17.11941691 11.97531099 17.13467614 9.67687035 17.15858078 C6.46138576 17.19011705 3.24733622 17.19028606 0.03173828 17.18286133 C-0.91962006 17.19926666 -1.87097839 17.215672 -2.85116577 17.23257446 C-7.41219193 17.18941356 -9.41147975 17.08536297 -13.14213562 14.25039673 C-15.05102539 11.59936523 -15.05102539 11.59936523 -15.67602539 8.59936523 C-13.8798609 -0.02222431 -7.34971241 -0.11498196 0 0 Z " fill="#E77F92" transform="translate(330.051025390625,210.400634765625)"/>
<path d="M0 0 C-3.89488648 4.29780577 -8.33910132 7.47265268 -13.046875 10.83984375 C-19.01434456 15.20493722 -24.68769055 19.94935089 -30.23046875 24.83984375 C-40.49042086 33.85351344 -47.84744051 38.58211646 -61.77734375 38.46875 C-65.27037029 37.96067341 -65.7727101 37.49746412 -68 35 C-70.05363606 34.6393369 -70.05363606 34.6393369 -72.1875 34.8125 C-73.445625 34.874375 -74.70375 34.93625 -76 35 C-74.67529577 23.68906388 -67.37959665 13.3015115 -58.7578125 6.13671875 C-41.03451732 -7.0849727 -20.13152632 -8.31283852 0 0 Z " fill="#64C35C" transform="translate(275,179)"/>
<path d="M0 0 C9.42238219 7.956362 14.69997848 17.32037442 18.3359375 28.99609375 C17.0984375 28.93421875 15.8609375 28.87234375 14.5859375 28.80859375 C11.7658612 28.66758993 10.70920018 28.70182027 8.453125 30.48046875 C4.13145328 33.5742116 -1.59645483 32.48460877 -6.6640625 31.99609375 C-15.83104565 30.29028599 -22.09488185 23.6370669 -28.79345703 17.64257812 C-31.8861936 14.92038869 -35.07565234 12.3239115 -38.2890625 9.74609375 C-38.90813477 9.24867676 -39.52720703 8.75125977 -40.16503906 8.23876953 C-45.10083702 4.32833876 -50.22298264 0.85653098 -55.56640625 -2.48046875 C-56.25863281 -2.98320312 -56.95085937 -3.4859375 -57.6640625 -4.00390625 C-57.6640625 -4.66390625 -57.6640625 -5.32390625 -57.6640625 -6.00390625 C-38.85017756 -15.20180555 -16.53924603 -12.44081117 0 0 Z " fill="#64C35B" transform="translate(154.6640625,201.00390625)"/>
<path d="M0 0 C2.74891481 1.17486623 4.84245045 2.58485553 7.1796875 4.44921875 C7.96988281 5.06667969 8.76007813 5.68414062 9.57421875 6.3203125 C10.16589844 6.87847656 10.75757813 7.43664062 11.3671875 8.01171875 C11.3671875 8.67171875 11.3671875 9.33171875 11.3671875 10.01171875 C9.39392748 11.38683433 7.42228731 12.64414477 5.3671875 13.88671875 C-6.30370416 21.17782554 -17.05023593 29.38018787 -27.1171875 38.75390625 C-36.538376 47.20956922 -44.92624106 51.56066087 -57.6796875 51.25 C-61.81914563 50.9159961 -65.62253342 50.08112651 -69.6328125 49.01171875 C-68.9728125 48.14546875 -68.3128125 47.27921875 -67.6328125 46.38671875 C-65.46435821 42.72745213 -65.44789792 41.13762539 -65.6328125 37.01171875 C-64.29089844 36.99044922 -64.29089844 36.99044922 -62.921875 36.96875 C-50.33333057 36.47218695 -43.43901069 33.06447804 -34.37890625 24.52734375 C-29.66747182 20.21132131 -24.60749557 16.35000764 -19.53417969 12.47167969 C-18.22477832 11.46625851 -16.92104059 10.45343238 -15.62207031 9.43457031 C-13.61605781 7.86177217 -11.59535042 6.30990982 -9.5703125 4.76171875 C-8.9513208 4.2713916 -8.3323291 3.78106445 -7.69458008 3.27587891 C-5.08139036 1.31017675 -3.33025876 0.01482311 0 0 Z " fill="#46AD3F" transform="translate(276.6328125,179.98828125)"/>
<path d="M0 0 C3.26903463 1.67252934 6.2231402 3.66112926 9.1875 5.8125 C9.79843506 6.25207031 10.40937012 6.69164062 11.03881836 7.14453125 C15.82862302 10.6401444 20.35462244 14.38775804 24.8503418 18.24975586 C37.65067778 29.23289258 46.33789215 35.60802038 63.6875 36.375 C63.64625 37.4475 63.605 38.52 63.5625 39.625 C63.6760825 43.03247485 63.90023364 44.58239631 65.6875 47.375 C57.44787906 51.17790197 49.15210857 51.93425613 40.5 48.8125 C34.09498571 45.88449347 29.10474349 41.44598969 23.796875 36.8984375 C22.74000422 35.99429945 21.68269788 35.09067033 20.625 34.1875 C20.08198242 33.72359863 19.53896484 33.25969727 18.97949219 32.78173828 C8.46161526 23.87571541 -2.73005643 15.83339169 -14.3125 8.375 C-4.89012581 -1.32165563 -4.89012581 -1.32165563 0 0 Z " fill="#46AD3F" transform="translate(97.3125,196.625)"/>
<path d="M0 0 C15.65243647 4.77570689 26.55337217 16.46691949 34.34375 30.34765625 C38.11814491 38.15386618 39.53808748 45.74842579 39.4375 54.375 C39.42992676 55.2932959 39.42235352 56.2115918 39.41455078 57.15771484 C39.24036287 64.35536265 38.13810482 70.46228163 35 77 C34.54109375 77.96292969 34.0821875 78.92585938 33.609375 79.91796875 C30.68595283 85.61864199 27.36617853 90.32195158 23 95 C22.72414062 94.40703125 22.44828125 93.8140625 22.1640625 93.203125 C21.06484675 91.12273009 19.90701529 89.52391244 18.375 87.75 C17.59125 86.8425 16.8075 85.935 16 85 C16.40992188 84.2265625 16.81984375 83.453125 17.2421875 82.65625 C17.78101563 81.6146875 18.31984375 80.573125 18.875 79.5 C19.40867188 78.4790625 19.94234375 77.458125 20.4921875 76.40625 C23.67370587 69.2189857 24.32084458 62.8140776 24.25 55.0625 C24.25773437 54.22009766 24.26546875 53.37769531 24.2734375 52.50976562 C24.24612142 43.63886807 22.62271945 36.20227138 18.3125 28.4375 C17.95873291 27.79055176 17.60496582 27.14360352 17.24047852 26.47705078 C13.54321377 19.90248253 9.55508888 14.48942208 3.0625 10.5 C0 8 0 8 -0.4375 5.91796875 C-0.4375 3.6875 -0.4375 3.6875 0 0 Z " fill="#46AD3F" transform="translate(170,98)"/>
</svg>
