<?xml version="1.0" encoding="UTF-8"?>
<svg version="1.1" xmlns="http://www.w3.org/2000/svg" width="512" height="512">
<path d="M0 0 C168.96 0 337.92 0 512 0 C512 168.96 512 337.92 512 512 C343.04 512 174.08 512 0 512 C0 343.04 0 174.08 0 0 Z " fill="#000000" transform="translate(0,0)"/>
<path d="M0 0 C155.76 0 311.52 0 472 0 C472.061875 52.18125 472.12375 104.3625 472.1875 158.125 C472.21481201 174.62000488 472.24212402 191.11500977 472.27026367 208.10986328 C472.28381348 228.20483398 472.28381348 228.20483398 472.28633118 237.60299683 C472.28913358 244.18693235 472.30015832 250.77079187 472.31672668 257.35470581 C472.33579801 264.94443855 472.34451362 272.53409816 472.34033485 280.12385505 C472.33852446 284.00788431 472.34143171 287.89175004 472.35764539 291.77574944 C472.3748901 295.93191862 472.3689961 300.08773034 472.36076355 304.243927 C472.37387054 306.06733518 472.37387054 306.06733518 472.38724232 307.92757988 C472.33216505 318.22381986 472.33216505 318.22381986 469 323 C463.85192039 327.64582794 460.63931013 328.13843785 453.875 328.0625 C453.12089844 328.05798828 452.36679687 328.05347656 451.58984375 328.04882812 C449.72652873 328.03703499 447.86325445 328.01909942 446 328 C445.99945523 327.19547299 445.99891047 326.39094599 445.99834919 325.56203938 C445.98338519 305.99066698 445.94095387 286.41953085 445.86790943 266.84828663 C445.83324881 257.38377617 445.80790251 247.91941152 445.80444336 238.45483398 C445.80140495 230.20597484 445.78093118 221.95737529 445.73947543 213.70861644 C445.7181324 209.34044216 445.70555142 204.97263707 445.71384621 200.60441017 C445.72137825 196.4928332 445.7055989 192.38200479 445.67193985 188.27056503 C445.66369623 186.76172148 445.66396891 185.25280364 445.67340279 183.74396706 C445.68501699 181.68229542 445.66592585 179.62308041 445.63923645 177.56159973 C445.63647107 176.40843671 445.63370569 175.25527369 445.63085651 174.06716633 C444.8038975 170.04656768 443.14281729 168.55504364 440 166 C436.6841779 164.89472597 434.18917253 164.85964839 430.69604492 164.83886719 C429.39426804 164.82925964 428.09249115 164.8196521 426.75126648 164.80975342 C425.32766902 164.80490503 423.90406952 164.8006263 422.48046875 164.796875 C421.01939391 164.79112078 419.55831908 164.78536308 418.09724426 164.77960205 C415.03316904 164.76909925 411.96911999 164.76325206 408.9050293 164.75976562 C404.98764899 164.75428635 401.07061721 164.73026774 397.15334606 164.70179367 C394.13437403 164.68312559 391.1154852 164.67795946 388.09646034 164.67642975 C386.65282603 164.67341143 385.20919289 164.66541064 383.76561546 164.65224457 C381.74119372 164.63510084 379.71662771 164.63892112 377.69213867 164.64355469 C376.54202805 164.63990906 375.39191742 164.63626343 374.20695496 164.63250732 C370.52539429 165.05438621 368.14647221 166.06424973 365 168 C362.75203707 171.37194439 362.73986695 172.54323732 362.70947266 176.49365234 C362.69671295 177.61847015 362.68395325 178.74328796 362.67080688 179.90219116 C362.66858124 181.11782745 362.66635559 182.33346375 362.6640625 183.5859375 C362.6574057 184.83500885 362.6507489 186.0840802 362.64389038 187.3710022 C362.63375582 190.01570871 362.62820937 192.66000426 362.62939453 195.3046875 C362.6295976 198.68652133 362.60230938 202.06751364 362.56785011 205.44914818 C362.54020472 208.6822129 362.54143104 211.91527063 362.5390625 215.1484375 C362.51750595 216.96581924 362.51750595 216.96581924 362.49551392 218.81991577 C362.50166718 219.9510379 362.50782043 221.08216003 362.51416016 222.24755859 C362.51131012 223.2400058 362.50846008 224.232453 362.50552368 225.25497437 C363.15089398 228.83766971 364.43093877 230.44969631 367 233 C368.65 233.66 370.3 234.32 372 235 C372 240.28 372 245.56 372 251 C369.69 251.99 367.38 252.98 365 254 C362.49968346 257.75047482 362.46396446 259.55856266 363 264 C365.79383765 267.49229706 367.97164007 268.98582003 372 271 C372 274.63 372 278.26 372 282 C371.071875 282.4125 370.14375 282.825 369.1875 283.25 C365.99231526 285.00421907 364.84648609 285.95795681 363 289 C362.54726262 291.25480979 362.54726262 291.25480979 362.60127258 293.69500732 C362.58873444 294.63447708 362.57619629 295.57394684 362.5632782 296.54188538 C362.56471329 297.56543625 362.56614838 298.58898712 362.56762695 299.64355469 C362.5574353 300.72678513 362.54724365 301.81001556 362.53674316 302.92607117 C362.50653862 306.50805788 362.49733559 310.0897775 362.48828125 313.671875 C362.47144015 316.1548146 362.45329068 318.63774564 362.43388367 321.1206665 C362.39117848 326.98893982 362.36167393 332.85716348 362.33856028 338.72554421 C362.308851 346.06321825 362.25865389 353.40071736 362.20898438 360.73828125 C362.12287418 373.82547215 362.05711279 386.91265039 362 400 C352.76 400 343.52 400 334 400 C333.97812622 394.22302612 333.97812622 394.22302612 333.95581055 388.3293457 C333.90551493 375.6167065 333.83907946 362.90419487 333.76428509 350.19167805 C333.71932446 342.48269836 333.67991046 334.7737649 333.65356445 327.06469727 C333.63058648 320.34526434 333.59719082 313.62597767 333.55129844 306.90666074 C333.52736334 303.34899456 333.50863652 299.79147326 333.50238609 296.23372841 C333.49521231 292.261533 333.46477971 288.28970063 333.43237305 284.31762695 C333.43452568 282.54924973 333.43452568 282.54924973 333.4367218 280.74514771 C333.41791458 279.11932014 333.41791458 279.11932014 333.39872742 277.46064758 C333.39411845 276.52134053 333.38950949 275.58203348 333.38476086 274.61426258 C332.91801566 271.44295635 331.87879988 269.58070853 330 267 C326.38344756 264.58896504 324.70872931 264.74181138 320.40478516 264.7253418 C319.73938217 264.72023087 319.07397919 264.71511993 318.38841248 264.70985413 C316.18853765 264.69595341 313.98897603 264.69691544 311.7890625 264.69921875 C310.25833011 264.69533155 308.72759881 264.69099683 307.1968689 264.68623352 C303.98733018 264.67876991 300.77790144 264.67906319 297.56835938 264.68432617 C293.46028714 264.69011548 289.35266655 264.6732039 285.24466896 264.6499815 C282.08246234 264.6352298 278.92036406 264.63437449 275.75812912 264.63749123 C274.24390139 264.63697855 272.7296675 264.63175084 271.21547318 264.62167931 C269.09468763 264.6093064 266.97477605 264.61611111 264.85400391 264.62768555 C263.64837799 264.62705612 262.44275208 264.6264267 261.20059204 264.6257782 C257.64272795 265.04177321 255.80478213 265.79520721 253 268 C251.00725084 271.15695783 250.74327928 273.64252234 250.7215271 277.34039307 C250.71036362 278.42290344 250.69920013 279.50541382 250.68769836 280.62072754 C250.68445808 282.39449768 250.68445808 282.39449768 250.68115234 284.20410156 C250.67110672 285.4531427 250.6610611 286.70218384 250.65071106 287.98907471 C250.62511939 291.41025258 250.60826412 294.83126462 250.59528303 298.25249958 C250.57964906 301.82933077 250.5528597 305.40607794 250.5272522 308.98284912 C250.48046909 315.75421725 250.44372275 322.5256012 250.41057932 329.29704833 C250.37235461 337.00684073 250.32294537 344.71654875 250.27259517 352.42627001 C250.16928225 368.28412518 250.08149629 384.14201543 250 400 C240.76 400 231.52 400 222 400 C221.99857498 397.33009476 221.99714996 394.66018951 221.99568176 391.90937805 C221.97990484 366.79038921 221.93663974 341.67155585 221.86790943 316.55265522 C221.83323561 303.63770465 221.80790076 290.72286109 221.80444336 277.80786133 C221.80140681 266.5529845 221.7809578 255.29829812 221.73947543 244.04349488 C221.71811588 238.08244507 221.70556011 232.12166622 221.71384621 226.16057777 C221.72136746 220.55198405 221.70564154 214.9439402 221.67193985 209.33544731 C221.66368339 207.27510321 221.66398377 205.21470466 221.67340279 203.15436554 C221.68498009 200.34410473 221.66597492 197.53565946 221.63923645 194.72554016 C221.64990971 193.90744143 221.66058297 193.08934271 221.67157966 192.24645311 C221.59644788 188.02320593 221.35602338 186.45142808 218.64754772 183.01715374 C214.59026101 179.92592672 211.57472133 179.86498075 206.60424805 179.82299805 C205.63781372 179.81314125 205.63781372 179.81314125 204.65185547 179.80308533 C202.52180864 179.78339155 200.39183219 179.77169854 198.26171875 179.76171875 C197.53277719 179.75764322 196.80383564 179.7535677 196.05280495 179.74936867 C192.19446727 179.72852457 188.33616497 179.71421575 184.4777832 179.70483398 C180.49976872 179.69377323 176.52231416 179.65937318 172.54449749 179.61966228 C169.47920211 179.5934748 166.41403975 179.5851403 163.34864235 179.58155251 C161.88266023 179.57669196 160.41668384 179.56509301 158.95081139 179.54651451 C156.89473884 179.52207561 154.84010989 179.52309547 152.78393555 179.5300293 C151.61606003 179.52416306 150.44818451 179.51829681 149.24491882 179.51225281 C145.28908733 180.10685804 143.10910944 181.53059571 140 184 C138.37901358 187.24197283 138.84599627 190.80194109 138.84178162 194.36477661 C138.83684364 195.24036567 138.83190566 196.11595472 138.82681805 197.01807678 C138.81138821 199.96924321 138.80306762 202.92038779 138.79467773 205.87158203 C138.78510352 207.98022658 138.77509371 210.0888692 138.76467896 212.19750977 C138.73757435 217.93686536 138.71659493 223.67622922 138.69667697 229.41561365 C138.6748516 235.40810317 138.64744608 241.40056704 138.62062073 247.39303589 C138.57064708 258.74731439 138.52572562 270.10160708 138.48259836 281.45591342 C138.43326585 294.37955191 138.37833297 307.30316466 138.32291877 320.22677827 C138.20902703 346.81782836 138.10240236 373.40890339 138 400 C128.76 400 119.52 400 110 400 C109.98541748 396.93630127 109.97083496 393.87260254 109.95581055 390.71606445 C109.90549164 380.59781277 109.83890127 370.47971541 109.76428509 360.36161518 C109.71954237 354.22652307 109.68029468 348.09149796 109.65356445 341.95629883 C109.62757067 336.03637739 109.58719568 330.11671328 109.53681374 324.19695091 C109.52011852 321.93754462 109.50862082 319.67809379 109.50238609 317.41863441 C109.49277409 314.25578406 109.46474869 311.09359602 109.43237305 307.9309082 C109.43380814 306.99510925 109.43524323 306.0593103 109.4367218 305.09515381 C109.36679052 300.26997992 109.20869986 296.87313818 106 293 C102.38344756 290.58896504 100.70872931 290.74181138 96.40478516 290.7253418 C95.73938217 290.72023087 95.07397919 290.71511993 94.38841248 290.70985413 C92.18853765 290.69595341 89.98897603 290.69691544 87.7890625 290.69921875 C86.25833011 290.69533155 84.72759881 290.69099683 83.1968689 290.68623352 C79.98733018 290.67876991 76.77790144 290.67906319 73.56835938 290.68432617 C69.46028714 290.69011548 65.35266655 290.6732039 61.24466896 290.6499815 C58.08246234 290.6352298 54.92036406 290.63437449 51.75812912 290.63749123 C50.24390139 290.63697855 48.7296675 290.63175084 47.21547318 290.62167931 C45.09468763 290.6093064 42.97477605 290.61611111 40.85400391 290.62768555 C39.64837799 290.62705612 38.44275208 290.6264267 37.20059204 290.6257782 C33.69357243 291.03582833 31.8214954 291.92024845 29 294 C26.51759639 297.38209828 26.69009707 300.85618188 26.5859375 304.953125 C26.56657135 305.61334656 26.5472052 306.27356812 26.5272522 306.95379639 C26.46770651 309.05240153 26.42117278 311.15106228 26.375 313.25 C26.33679706 314.6771066 26.29774398 316.10419072 26.2578125 317.53125 C26.1620267 321.02062691 26.07790358 324.51017286 26 328 C8.99645569 329.03283621 8.99645569 329.03283621 4.5625 325.3125 C0.77941731 321.32325477 -0.25034384 316.81012586 -0.24609566 311.43405437 C-0.2500774 310.31951445 -0.25405914 309.20497452 -0.25816154 308.05666065 C-0.25233622 306.83814254 -0.24651089 305.61962442 -0.24050903 304.36418152 C-0.24222107 303.06855789 -0.24393311 301.77293427 -0.24569702 300.43804932 C-0.25018411 296.83649771 -0.24215456 293.23506497 -0.23214546 289.63352846 C-0.22341779 285.69209671 -0.22633431 281.75067052 -0.2277813 277.80923176 C-0.22884505 270.15673383 -0.21960616 262.50428279 -0.20677864 254.85179691 C-0.1923862 246.00100612 -0.19078955 237.15024356 -0.18920898 228.29943848 C-0.17870564 204.92878488 -0.15078345 181.55814174 -0.125 158.1875 C-0.08375 105.985625 -0.0425 53.78375 0 0 Z " fill="#FEFEFE" transform="translate(20,92)"/>
<path d="M0 0 C0.71473242 -0.00235223 1.42946484 -0.00470446 2.16585582 -0.00712797 C4.56117163 -0.01378571 6.95643279 -0.01336073 9.35175705 -0.01294994 C11.08635024 -0.01625055 12.82094267 -0.01997654 14.55553412 -0.02409142 C19.32273563 -0.03409666 24.08992454 -0.03782582 28.85713506 -0.04048073 C33.99837862 -0.04438803 39.13961225 -0.0539659 44.28084946 -0.0626936 C56.6952605 -0.08244337 69.10967235 -0.09252118 81.52409518 -0.10142139 C87.37047607 -0.1058057 93.21685606 -0.11117204 99.06323624 -0.11641026 C118.49687258 -0.13341912 137.93050836 -0.14791424 157.364151 -0.155159 C162.40565364 -0.15706887 167.44715628 -0.15898921 172.48865891 -0.16094494 C173.74169161 -0.16142868 174.99472432 -0.16191242 176.28572771 -0.16241082 C196.59321165 -0.17071477 216.90063675 -0.19605938 237.20809498 -0.22852562 C258.0570632 -0.26158598 278.90600149 -0.27960673 299.75499606 -0.28280324 C311.46114804 -0.284969 323.16721416 -0.29372776 334.87334061 -0.31926441 C344.84034922 -0.34095718 354.8072511 -0.34902871 364.77428064 -0.33929763 C369.85906371 -0.33474918 374.9436265 -0.33667109 380.02837944 -0.35605907 C384.68568682 -0.37366389 389.34261275 -0.37271475 393.99992403 -0.35716178 C395.68228488 -0.35478168 397.36467196 -0.35913012 399.04699269 -0.37099043 C410.43514864 -0.44628638 420.47619428 0.24892745 429.18348312 8.44281483 C440.46273509 20.90178447 437.71473312 35.46366496 437.71473312 52.13422108 C281.95473312 52.13422108 126.19473312 52.13422108 -34.28526688 52.13422108 C-34.28526688 18.48806723 -34.28526688 18.48806723 -26.28526688 9.13422108 C-18.33950178 1.85708201 -10.65403203 0.01499017 0 0 Z " fill="#FE5959" transform="translate(54.2852668762207,19.865778923034668)"/>
<path d="M0 0 C6.70211758 4.21338336 11.20574828 9.06819398 15 16 C15.3403125 16.59039062 15.680625 17.18078125 16.03125 17.7890625 C19.90588027 25.93296131 19.08950848 36.86511064 16.47509766 45.26220703 C16.20025543 46.15247589 15.92541321 47.04274475 15.64224243 47.95999146 C15.43030243 48.63319427 15.21836243 49.30639709 15 50 C23.59118265 58.77643953 32.20377661 67.53123322 40.84446049 76.25895786 C44.85591282 80.312183 48.85957782 84.37252014 52.84643555 88.44995117 C56.69337476 92.38373321 60.55946042 96.29771876 64.43966484 100.19868279 C65.91748849 101.69130273 67.38824533 103.19095339 68.85176277 104.69760323 C70.90128543 106.80509958 72.97439621 108.88631281 75.05493164 110.96313477 C75.65626419 111.59322952 76.25759674 112.22332428 76.87715149 112.87251282 C78.53054492 114.49419399 79.99268093 115.84439988 82 117 C85.6919514 117.06563476 85.6919514 117.06563476 89 116 C97.33951911 114.61008015 104.05300677 114.20205196 111.95703125 117.44140625 C114.43227418 118.11819351 115.58494109 117.8117438 118 117 C120.18957133 115.11545726 122.2180225 113.22256979 124.25317383 111.18261719 C124.86983917 110.57602768 125.48650452 109.96943817 126.12185669 109.34446716 C128.15828238 107.33654443 130.18319739 105.31748374 132.20703125 103.296875 C133.61596189 101.89758161 135.02511923 100.49851645 136.43449402 99.09967041 C139.38610381 96.16602634 142.33144196 93.22624279 145.27319336 90.28271484 C149.04904403 86.50655882 152.84513047 82.75148167 156.6468401 79.00138474 C159.56264285 76.1188825 162.46476385 73.22290392 165.3631649 70.32291412 C166.75744824 68.93217813 168.15661525 67.5463209 169.56064796 66.16542816 C171.51953424 64.2358339 173.45860939 62.28827985 175.39379883 60.33496094 C175.98020645 59.76541183 176.56661407 59.19586273 177.17079163 58.60905457 C178.96331399 56.84298864 178.96331399 56.84298864 181 54 C181.06845973 51.27999852 181.06845973 51.27999852 180 49 C179.51853516 47.74123047 179.51853516 47.74123047 179.02734375 46.45703125 C178.66769531 45.58433594 178.30804688 44.71164063 177.9375 43.8125 C174.20596762 33.71700876 175.78169831 24.59328589 180.125 15 C184.12714772 7.34883523 190.1294223 1.52819001 198 -2 C208.53524227 -5.14971161 218.14640217 -5.16124518 228.19921875 -0.55859375 C232.3765588 1.76603481 235.69969026 4.5631811 239 8 C239.721875 8.7425 240.44375 9.485 241.1875 10.25 C247.34332355 19.58987021 249.42952368 27.776467 248 39 C245.57397683 48.72730821 239.91904582 57.26211817 231.37109375 62.66015625 C228.94381393 63.90092671 226.53236058 64.99376401 224 66 C223.21882813 66.36738281 222.43765625 66.73476562 221.6328125 67.11328125 C218.35163361 68.21836672 215.58233781 68.2291091 212.125 68.1875 C210.95195312 68.18105469 209.77890625 68.17460937 208.5703125 68.16796875 C205 68 205 68 201.7081604 67.12983704 C197.81878145 66.99365484 197.42005321 67.01158392 194.63241577 69.30461121 C193.43457859 70.43369814 192.25803351 71.58563345 191.09912109 72.75463867 C190.12475601 73.69110985 190.12475601 73.69110985 189.13070679 74.64649963 C186.99014216 76.71618275 184.88091559 78.81463838 182.7734375 80.91796875 C181.29717953 82.37105817 179.82025123 83.82346685 178.34268188 85.27522278 C175.2504921 88.32402131 172.17504 91.38865165 169.10888672 94.46362305 C165.18019329 98.39871897 161.20150955 102.27858682 157.2069149 106.14661694 C154.14069118 109.13132117 151.10937387 112.14966911 148.08681107 115.17852211 C146.63389337 116.62385317 145.16887901 118.05712999 143.69178391 119.47774315 C135.43592779 126.75166311 135.43592779 126.75166311 131.80072021 136.51345825 C132.56424244 139.60031773 133.6036074 142.15483442 135 145 C136.32652466 155.17002237 134.30097689 164.01390232 128.28515625 172.38671875 C126.60774131 174.37245504 124.87400924 176.2004257 123 178 C122.2575 178.721875 121.515 179.44375 120.75 180.1875 C111.41012979 186.34332355 103.223533 188.42952368 92 187 C82.27269179 184.57397683 73.73788183 178.91904582 68.33984375 170.37109375 C67.09907329 167.94381393 66.00623599 165.53236058 65 163 C64.63648438 162.21496094 64.27296875 161.42992187 63.8984375 160.62109375 C61.46031532 153.5081373 62.12668158 145.21169826 65.0625 138.375 C65.44535156 137.61960937 65.82820312 136.86421875 66.22265625 136.0859375 C67.17728723 133.52426442 66.87982675 132.55362035 66 130 C64.06053892 127.75002534 62.10998236 125.65906716 60.01489258 123.56323242 C59.07815704 122.60897369 59.07815704 122.60897369 58.12249756 121.63543701 C56.05460813 119.53393778 53.97544856 117.44406366 51.89453125 115.35546875 C50.45286491 113.90162597 49.01135393 112.44762913 47.56999207 110.9934845 C44.54655086 107.94756098 41.5167057 104.90816707 38.4831543 101.87231445 C34.59321466 97.97708432 30.72683959 94.05933107 26.86581898 90.13546276 C23.89654884 87.12538168 20.91165707 84.13117545 17.92215538 81.14119911 C16.489487 79.70313567 15.06257584 78.25931309 13.64155006 76.80974388 C11.65453994 74.78617275 9.64669755 72.78582973 7.63208008 70.78979492 C7.04742477 70.18468582 6.46276947 69.57957672 5.86039734 68.95613098 C4.02795795 67.09236714 4.02795795 67.09236714 1 65 C-2.38757744 65.07475789 -4.51207395 65.80250612 -7.625 67.0625 C-17.03872588 69.67742386 -24.59525132 67.56493146 -34 65 C-53.14 84.14 -72.28 103.28 -92 123 C-91.01 126.3 -90.02 129.6 -89 133 C-87.6784291 144.43158829 -89.22567361 153.8660758 -95.69140625 163.52734375 C-101.26240064 170.51725529 -108.62140439 174.2071348 -117 177 C-129.38820467 177.8577531 -138.51768446 177.07775066 -148.3125 168.75 C-155.76344556 161.62656853 -160.1261967 154.13236702 -160.48168945 143.68041992 C-160.56645036 133.00845722 -158.5967698 125.40120451 -151.5 117.0625 C-150.675 116.381875 -149.85 115.70125 -149 115 C-148.0925 114.154375 -147.185 113.30875 -146.25 112.4375 C-139.49571107 107.10161175 -133.50998224 105.63664396 -125 105.5625 C-124.25266602 105.5524292 -123.50533203 105.5423584 -122.73535156 105.53198242 C-118.60797729 105.5955429 -115.12554386 106.16311307 -111.21875 107.52709961 C-110.42404297 107.8016246 -109.62933594 108.0761496 -108.81054688 108.35899353 C-108.21306641 108.57052567 -107.61558594 108.7820578 -107 109 C-99.53033596 101.69242888 -92.07960987 94.36613081 -84.65255642 87.01524162 C-81.2033628 83.60260078 -77.747954 80.1967827 -74.27758789 76.80566406 C-70.92954685 73.53360528 -67.59883115 70.24480602 -64.27949715 66.94363785 C-63.00928485 65.68637328 -61.73292067 64.4352931 -60.45043755 63.19054794 C-58.65663795 61.44746893 -56.88586315 59.68379051 -55.11889648 57.91357422 C-54.58230911 57.40215378 -54.04572174 56.89073334 -53.49287415 56.36381531 C-51.8305689 54.74619018 -51.8305689 54.74619018 -50 52 C-50.11648587 48.73787082 -50.71941743 46.62867372 -52.0390625 43.671875 C-54.67942117 36.33038992 -54.39572985 25.0492334 -51.375 17.875 C-50.2578125 15.87890625 -50.2578125 15.87890625 -49 14 C-48.34644531 12.96166016 -48.34644531 12.96166016 -47.6796875 11.90234375 C-37.13095556 -3.51725076 -16.66523807 -9.67843723 0 0 Z " fill="#020202" transform="translate(212,140)"/>
<path d="M0 0 C14.52 0 29.04 0 44 0 C44 71.28 44 142.56 44 216 C29.48 216 14.96 216 0 216 C-0.0093457 212.66366455 -0.01869141 209.3273291 -0.02832031 205.88989258 C-0.06206916 194.87356652 -0.11760649 183.85742821 -0.18390274 172.84125233 C-0.22343223 166.16131644 -0.25559396 159.48155216 -0.27099609 152.80151367 C-0.28612642 146.35636289 -0.32050813 139.91157738 -0.36830902 133.46658897 C-0.38316014 131.00622416 -0.39104314 128.54580721 -0.39188385 126.08539772 C-0.39424393 122.64222778 -0.42124819 119.20007516 -0.45410156 115.75708008 C-0.4490712 114.73712448 -0.44404083 113.71716888 -0.43885803 112.66630554 C-0.50333671 108.30597881 -0.59147175 105.69647197 -2.83099365 101.87846375 C-5.51943285 99.55014619 -7.49633131 99.2388865 -11 99 C-10.67 95.04 -10.34 91.08 -10 87 C-10.9075 86.773125 -11.815 86.54625 -12.75 86.3125 C-16.58561847 84.76350023 -17.9380776 83.56871184 -20 80 C-20.5625 76.5 -20.5625 76.5 -20 73 C-16.75222985 68.73150209 -15.39926135 68.07985227 -10 67 C-10 61.72 -10 56.44 -10 51 C-8.02 50.01 -6.04 49.02 -4 48 C-1.31778653 45.23258662 -0.62246604 43.32363633 -0.56762695 39.50683594 C-0.53771667 38.16758057 -0.53771667 38.16758057 -0.50720215 36.80126953 C-0.50095825 35.87169434 -0.49471436 34.94211914 -0.48828125 33.984375 C-0.47164429 33.12344238 -0.45500732 32.26250977 -0.43786621 31.37548828 C-0.38014257 28.16723931 -0.34783319 24.95857368 -0.3125 21.75 C-0.209375 14.5725 -0.10625 7.395 0 0 Z " fill="#FE5959" transform="translate(402,276)"/>
<path d="M0 0 C14.52 0 29.04 0 44 0 C44 66.33 44 132.66 44 201 C29.48 201 14.96 201 0 201 C0 134.67 0 68.34 0 0 Z " fill="#F4C76D" transform="translate(178,291)"/>
<path d="M0 0 C14.52 0 29.04 0 44 0 C44 38.28 44 76.56 44 116 C29.48 116 14.96 116 0 116 C0 77.72 0 39.44 0 0 Z " fill="#78D2FA" transform="translate(290,376)"/>
<path d="M0 0 C1.41244571 -0.00657338 1.41244571 -0.00657338 2.85342568 -0.01327956 C6.02241823 -0.02668064 9.19138296 -0.03284933 12.36039734 -0.03897095 C14.62693915 -0.04687076 16.8934797 -0.05513964 19.16001892 -0.06375122 C26.61441342 -0.08998119 34.06881357 -0.10527799 41.52323914 -0.11953735 C44.08716015 -0.12489628 46.65108112 -0.13027379 49.21500206 -0.13566971 C59.87714998 -0.1572982 70.53929502 -0.1761877 81.20145893 -0.1872921 C83.96781735 -0.19022178 86.73417573 -0.19318345 89.50053406 -0.19619751 C90.1880957 -0.19694356 90.87565735 -0.19768961 91.58405419 -0.19845827 C102.72494644 -0.21111501 113.86567921 -0.24434336 125.00649688 -0.28599934 C136.44461816 -0.32841648 147.88261843 -0.35157906 159.32082528 -0.35721266 C165.74300376 -0.36087136 172.16491177 -0.37294839 178.58701515 -0.4053154 C184.62728848 -0.43532193 190.6671266 -0.44173412 196.7074585 -0.42993164 C198.92544868 -0.4297103 201.14345863 -0.43806513 203.36137962 -0.45558548 C206.38776882 -0.47819281 209.41256863 -0.47002072 212.43896484 -0.45410156 C213.75789332 -0.47492469 213.75789332 -0.47492469 215.10346681 -0.49616849 C219.34746725 -0.44110039 222.07405034 -0.14839759 225.44061565 2.56519127 C228.37232639 5.63861929 228.97491551 7.06945087 229.22245789 11.15390015 C228.64432178 14.85397125 226.57448159 16.61330778 223.90995789 19.15390015 C220.52044437 20.8486569 216.66227923 20.29797409 212.93344116 20.29434204 C211.99195955 20.29731316 211.05047793 20.30028429 210.08046657 20.30334544 C206.90602709 20.31206024 203.7316252 20.31354303 200.55717468 20.31503296 C198.28915831 20.31965916 196.02114272 20.32468355 193.75312805 20.33007812 C187.57748818 20.3432231 181.40185918 20.34965115 175.22620749 20.35408878 C171.37108764 20.3570161 167.51597078 20.36112025 163.66085243 20.36559296 C152.9901612 20.37770486 142.31947362 20.38808591 131.64877605 20.39146805 C130.62399083 20.3917974 130.62399083 20.3917974 129.57850288 20.3921334 C128.89366339 20.39235168 128.2088239 20.39256996 127.5032317 20.39279485 C126.11545098 20.39323832 124.72767025 20.39368488 123.33988953 20.39413452 C122.30730534 20.39446667 122.30730534 20.39446667 121.25386087 20.39480552 C110.09934426 20.39875357 98.94489297 20.41620713 87.7904016 20.43949404 C76.3421519 20.46320157 64.89394967 20.47541159 53.44567233 20.47683597 C47.01632188 20.47788585 40.58706353 20.48383267 34.15773582 20.50165558 C28.11098906 20.51809124 22.06440406 20.52031367 16.01764297 20.51151657 C13.79602056 20.51074378 11.57438962 20.51512059 9.35278893 20.52497482 C6.3241399 20.53762284 3.29606999 20.53185632 0.26742554 20.52139282 C-0.61545507 20.52944923 -1.49833568 20.53750563 -2.40797025 20.54580617 C-7.13659013 20.50749612 -10.24523986 20.21419148 -14.09004211 17.15390015 C-16.65604168 14.07470067 -17.09850196 12.63611136 -17.02754211 8.59140015 C-16.01060127 4.86261706 -15.12435756 3.47425902 -12.09004211 1.15390015 C-8.06888163 -0.18648668 -4.19355406 0.00235601 0 0 Z " fill="#000000" transform="translate(229.0900421142578,35.846099853515625)"/>
<path d="M0 0 C14.52 0 29.04 0 44 0 C44 29.7 44 59.4 44 90 C29.48 90 14.96 90 0 90 C0 60.3 0 30.6 0 0 Z " fill="#A5DC69" transform="translate(66,402)"/>
<path d="M0 0 C0.33 0 0.66 0 1 0 C1 27.39 1 54.78 1 83 C0.01 82.505 0.01 82.505 -1 82 C-1 81.34 -1 80.68 -1 80 C-3.68327394 79.10557535 -5.34149739 78.85418313 -8.10424805 78.79467773 C-8.93629761 78.77449585 -9.76834717 78.75431396 -10.62561035 78.73352051 C-11.49552612 78.71704468 -12.36544189 78.70056885 -13.26171875 78.68359375 C-14.06468384 78.66494263 -14.86764893 78.6462915 -15.69494629 78.6270752 C-18.69235304 78.5588142 -21.68993959 78.49864205 -24.6875 78.4375 C-31.390625 78.293125 -38.09375 78.14875 -45 78 C-45 61.17 -45 44.34 -45 27 C-39.72 26.67 -34.44 26.34 -29 26 C-18.39637966 23.59008629 -10.22343793 19.1539682 -4 10 C-2.42226928 6.73749489 -1.13490441 3.43995871 0 0 Z " fill="#FFFFFF" transform="translate(511,414)"/>
<path d="M0 0 C1.71975685 2.57963528 2.91174003 4.94594055 4.1875 7.75 C8.87431644 17.08287795 15.22962817 21.51264014 25 25 C31.895124 26.3790248 38.98201926 26.5613762 46 27 C46 43.83 46 60.66 46 78 C25.6875 78.4375 25.6875 78.4375 19.28393555 78.56811523 C17.60985485 78.60623966 15.93578196 78.64470892 14.26171875 78.68359375 C13.39180298 78.70006958 12.52188721 78.71654541 11.62561035 78.73352051 C10.79356079 78.75370239 9.96151123 78.77388428 9.10424805 78.79467773 C8.38254929 78.81022202 7.66085052 78.8257663 6.9172821 78.84178162 C4.77891856 78.94195257 4.77891856 78.94195257 2 80 C1.67 80.99 1.34 81.98 1 83 C0.67 83 0.34 83 0 83 C0 55.61 0 28.22 0 0 Z " fill="#FFFFFF" transform="translate(0,414)"/>
<path d="M0 0 C1.04150711 -0.01606293 2.08301422 -0.03212585 3.15608215 -0.04867554 C7.91410626 -0.09318505 12.67199219 -0.1341815 17.43017578 -0.15722656 C19.93938466 -0.17379329 22.44854622 -0.20109232 24.95751953 -0.23925781 C28.57699036 -0.29402252 32.19535621 -0.31590023 35.81518555 -0.33056641 C36.93411697 -0.35323578 38.0530484 -0.37590515 39.20588684 -0.39926147 C47.89500957 -0.37569803 47.89500957 -0.37569803 51.58056641 2.60107422 C54.25129619 5.59911454 55.11014425 7.08838573 55.16821289 11.01681519 C54.73423269 14.40396038 53.26444208 16.23442371 50.99487305 18.71734619 C46.63178445 21.77502438 41.40408908 21.18453186 36.2644043 21.12255859 C35.04414551 21.12925568 33.82388672 21.13595276 32.56665039 21.14285278 C29.99126656 21.14760814 27.41579796 21.13474726 24.84057617 21.10546875 C20.90180781 21.06798912 16.96862425 21.10512322 13.0300293 21.14990234 C10.52480865 21.14527654 8.01959148 21.13630768 5.5144043 21.12255859 C3.75169189 21.14381302 3.75169189 21.14381302 1.95336914 21.16549683 C-5.94434711 21.00726807 -5.94434711 21.00726807 -9.22045898 18.71954346 C-11.46397843 16.27243266 -12.94700286 14.45043589 -13.38208008 11.10592651 C-13.14405915 7.692756 -12.31106923 5.45348667 -10.2355957 2.75537109 C-6.85810006 0.27191842 -4.06890355 0.05707778 0 0 Z " fill="#020202" transform="translate(59.110595703125,173.80712890625)"/>
<path d="M0 0 C1.04150711 -0.01606293 2.08301422 -0.03212585 3.15608215 -0.04867554 C7.91410626 -0.09318505 12.67199219 -0.1341815 17.43017578 -0.15722656 C19.93938466 -0.17379329 22.44854622 -0.20109232 24.95751953 -0.23925781 C28.57699036 -0.29402252 32.19535621 -0.31590023 35.81518555 -0.33056641 C36.93411697 -0.35323578 38.0530484 -0.37590515 39.20588684 -0.39926147 C47.89500957 -0.37569803 47.89500957 -0.37569803 51.58056641 2.60107422 C54.25129619 5.59911454 55.11014425 7.08838573 55.16821289 11.01681519 C54.73423269 14.40396038 53.26444208 16.23442371 50.99487305 18.71734619 C46.63178445 21.77502438 41.40408908 21.18453186 36.2644043 21.12255859 C35.04414551 21.12925568 33.82388672 21.13595276 32.56665039 21.14285278 C29.99126656 21.14760814 27.41579796 21.13474726 24.84057617 21.10546875 C20.90180781 21.06798912 16.96862425 21.10512322 13.0300293 21.14990234 C10.52480865 21.14527654 8.01959148 21.13630768 5.5144043 21.12255859 C3.75169189 21.14381302 3.75169189 21.14381302 1.95336914 21.16549683 C-5.94434711 21.00726807 -5.94434711 21.00726807 -9.22045898 18.71954346 C-11.46397843 16.27243266 -12.94700286 14.45043589 -13.38208008 11.10592651 C-13.14405915 7.692756 -12.31106923 5.45348667 -10.2355957 2.75537109 C-6.85810006 0.27191842 -4.06890355 0.05707778 0 0 Z " fill="#020202" transform="translate(59.110595703125,125.80712890625)"/>
<path d="M0 0 C5.67476113 1.96434039 9.31400331 5.62800662 12 11 C12.81262128 17.54093522 11.85964688 21.67994619 8 27 C3.60076026 31.07734415 0.1776505 32.37025957 -5.875 32.28125 C-10.7297621 31.63870796 -14.08338535 28.98897897 -17.375 25.4375 C-20.42816903 20.85774646 -20.65922038 16.34700977 -20 11 C-15.50688549 2.18018263 -9.45094843 -0.86207976 0 0 Z " fill="#F95858" transform="translate(428,156)"/>
<path d="M0 0 C3.88446678 2.58964452 6.69907021 5.64814041 8.8125 9.875 C9.40307744 15.55362925 9.10620905 20.04422672 5.8125 24.875 C1.90083782 28.81872499 -1.32040708 30.71940892 -6.9375 31.1875 C-11.39602927 31.09751134 -14.80835275 29.79484568 -18.1875 26.875 C-21.34958362 23.26575305 -23.46713397 19.66836691 -23.75 14.8125 C-22.92035655 9.00499587 -21.00353709 5.55815633 -16.625 1.5 C-11.38219552 -1.99520299 -5.78544111 -2.04192039 0 0 Z " fill="#75CDF5" transform="translate(318.1875,276.125)"/>
<path d="M0 0 C3.83825408 2.17601806 5.92241722 4.26293874 7.75 8.375 C8.59104153 14.31062646 8.25412166 19.35242562 4.75 24.375 C0.85824422 28.2880222 -2.37236704 30.18405428 -7.9375 30.75 C-12.98597629 30.67548374 -16.48554945 28.6288699 -20.25 25.375 C-24.09541757 20.32788944 -24.05023137 14.47676422 -23.25 8.375 C-21.19834034 3.86134875 -18.52353999 1.28060238 -14.16796875 -0.9296875 C-9.07574369 -2.77574872 -4.80039203 -2.11965362 0 0 Z " fill="#F1C56C" transform="translate(202.25,157.625)"/>
<path d="M0 0 C5.37842846 1.85800256 8.46081756 4.92163513 11 10 C11.76038689 16.81855126 11.2542913 21.54578038 7 27 C2.20875698 30.73716955 -1.57674085 31.65868403 -7.63671875 31.3828125 C-12.50182948 30.59474498 -15.09353048 27.95417844 -18.375 24.5 C-20.77661667 19.32728717 -21.01207119 14.60012723 -20 9 C-15.37965474 0.61385609 -9.03171266 -0.82812265 0 0 Z " fill="#A3D967" transform="translate(92,266)"/>
<path d="M0 0 C13.2 0 26.4 0 40 0 C40 13.2 40 26.4 40 40 C38.54151506 37.08303012 37.44602422 34.47540515 36.375 31.4375 C31.16201096 18.39540934 21.85280739 9.92695851 9.375 4 C6.28564247 2.69921788 3.25822811 1.77914151 0 1 C0 0.67 0 0.34 0 0 Z " fill="#FFFFFF" transform="translate(472,0)"/>
<path d="M0 0 C13.2 0 26.4 0 40 0 C37.08303012 1.45848494 34.47540515 2.55397578 31.4375 3.625 C18.39540934 8.83798904 9.92695851 18.14719261 4 30.625 C2.69921788 33.71435753 1.77914151 36.74177189 1 40 C0.67 40 0.34 40 0 40 C0 26.8 0 13.6 0 0 Z " fill="#FFFFFF" transform="translate(0,0)"/>
<path d="M0 0 C2.875 2.4375 2.875 2.4375 5 5 C5.33 5.33 5.66 5.66 6 6 C6.29322866 8.93228663 6.50004247 11.14491883 6 14 C3.5625 16.9375 3.5625 16.9375 1 19 C0.67 19.33 0.34 19.66 0 20 C-4.34201004 20.51082471 -6.56700467 20.23617927 -10.4375 18.125 C-13.05817695 15.65266326 -13.52179741 13.55571474 -13.75 10 C-13.52179741 6.44428526 -13.05817695 4.34733674 -10.4375 1.875 C-6.44521601 -0.30260945 -4.47158412 -0.8130153 0 0 Z " fill="#080808" transform="translate(145,126)"/>
<path d="M0 0 C3.67123639 0.01977327 4.15668193 0.29756585 7.1875 2.8125 C8.2084375 4.0809375 8.2084375 4.0809375 9.25 5.375 C9.58 5.705 9.91 6.035 10.25 6.375 C10.65038554 10.53900962 10.69184328 12.69750696 8.375 16.25 C5.44961143 19.17538857 4.67659437 19.34003325 0.4375 19.6875 C-2.88227327 19.65732024 -3.74044521 19.3810988 -6.6875 17.5 C-9.32755824 14.77993999 -9.69363945 13.87285154 -10.125 10.0625 C-9.65786625 5.46901813 -8.22959782 4.26052015 -4.75 1.375 C-3.75 0.375 -3.75 0.375 0 0 Z " fill="#070505" transform="translate(391.75,342.625)"/>
<path d="M0 0 C3.23614894 2.12904535 4.29269525 4.18134969 5.0625 7.875 C5.334065 11.41859207 4.9214213 12.13505715 3 15.4375 C-0.54594585 18.46632874 -2.36299711 19.08280362 -7 19 C-10.62036655 17.4366599 -13.2601659 15.57632565 -15 12 C-15.21431243 7.84233882 -14.6796522 4.88354786 -12.125 1.5625 C-7.96492179 -1.49638104 -4.8863851 -1.11443871 0 0 Z " fill="#050202" transform="translate(149,37)"/>
<path d="M0 0 C3.23614894 2.12904535 4.29269525 4.18134969 5.0625 7.875 C5.334065 11.41859207 4.9214213 12.13505715 3 15.4375 C-0.54594585 18.46632874 -2.36299711 19.08280362 -7 19 C-10.62036655 17.4366599 -13.2601659 15.57632565 -15 12 C-15.21431243 7.84233882 -14.6796522 4.88354786 -12.125 1.5625 C-7.96492179 -1.49638104 -4.8863851 -1.11443871 0 0 Z " fill="#050202" transform="translate(109,37)"/>
<path d="M0 0 C3.23614894 2.12904535 4.29269525 4.18134969 5.0625 7.875 C5.334065 11.41859207 4.9214213 12.13505715 3 15.4375 C-0.54594585 18.46632874 -2.36299711 19.08280362 -7 19 C-10.62036655 17.4366599 -13.2601659 15.57632565 -15 12 C-15.21431243 7.84233882 -14.6796522 4.88354786 -12.125 1.5625 C-7.96492179 -1.49638104 -4.8863851 -1.11443871 0 0 Z " fill="#050202" transform="translate(69,37)"/>
</svg>
