<?xml version="1.0" encoding="UTF-8"?>
<svg version="1.1" xmlns="http://www.w3.org/2000/svg" width="512" height="512">
<path d="M0 0 C2.26190222 1.67842996 4.32881391 3.4426145 6.39453125 5.35546875 C7.33039063 6.17337891 7.33039063 6.17337891 8.28515625 7.0078125 C18.45793576 16.40657618 22.89874238 28.81050104 23.48415017 42.44234002 C23.51530232 44.67182904 23.51653597 46.89924133 23.50564575 49.12892151 C23.50564477 49.97611329 23.50564378 50.82330506 23.50564277 51.69616932 C23.50461527 54.51565122 23.49661644 57.33507051 23.48876953 60.15454102 C23.486889 62.18374592 23.48554485 64.21295138 23.48469543 66.24215698 C23.48241698 70.60241262 23.47770207 74.96265665 23.4715004 79.3229084 C23.46307982 86.21870469 23.46853972 93.11444549 23.47750854 100.01023865 C23.47897955 101.17520624 23.48045056 102.34017384 23.48196614 103.54044348 C23.48503659 105.92192911 23.48815661 108.30341467 23.49132514 110.68490016 C23.51249982 126.73229816 23.5261566 142.77951339 23.49414062 158.8269043 C23.47262402 169.66217979 23.47573365 180.49713579 23.50754917 191.33239025 C23.52340614 197.06324801 23.52662086 202.79349445 23.49979019 208.52432442 C23.47478622 213.91156215 23.48227457 219.29777423 23.51466942 224.68496323 C23.52076359 226.66063776 23.51491095 228.63639107 23.49617577 230.61198616 C23.03757332 240.67299033 23.03757332 240.67299033 25.93157578 250.01193047 C27.66495688 251.75172388 29.35452103 253.00883376 31.39453125 254.35546875 C43.77782778 271.00221858 48.43108328 290.70366097 45.9296875 311.15625 C43.49553307 325.02660928 38.18496394 336.41191389 29.39453125 347.35546875 C28.77578125 348.18175781 28.15703125 349.00804687 27.51953125 349.859375 C15.87467334 363.53780184 -2.13885662 371.20747114 -19.60546875 373.35546875 C-39.83360422 374.55076766 -59.01178308 369.76838334 -74.60546875 356.35546875 C-77.21039663 353.70895277 -79.75449274 351.03976088 -82.21875 348.26171875 C-85.19816817 345.88208525 -86.88695043 345.96912918 -90.60546875 346.35546875 C-90.70859375 347.28359375 -90.81171875 348.21171875 -90.91796875 349.16796875 C-91.60546875 352.35546875 -91.60546875 352.35546875 -92.66796875 354.10546875 C-98.94361543 358.15427306 -107.00920376 357.67605052 -114.18359375 357.69140625 C-115.27258972 357.69806305 -116.36158569 357.70471985 -117.48358154 357.71157837 C-119.77289144 357.72165828 -122.06223044 357.72639684 -124.3515625 357.72607422 C-127.85855771 357.73047262 -131.36431868 357.76691166 -134.87109375 357.8046875 C-137.10025613 357.8105515 -139.32942446 357.81452368 -141.55859375 357.81640625 C-142.60654114 357.83077728 -143.65448853 357.84514832 -144.73419189 357.85995483 C-151.95046622 357.81440865 -151.95046622 357.81440865 -155.23339844 355.51416016 C-156.60546875 353.35546875 -156.60546875 353.35546875 -157.60546875 350.35546875 C-159.62055233 349.62223079 -159.62055233 349.62223079 -161.60546875 349.35546875 C-161.54359375 350.55171875 -161.48171875 351.74796875 -161.41796875 352.98046875 C-162.23342026 360.14080328 -167.480664 365.15211631 -171.97460938 370.43017578 C-174.73940637 373.69412624 -177.41468588 377.03049869 -180.10546875 380.35546875 C-181.20959793 381.70966598 -182.31376437 383.06383283 -183.41796875 384.41796875 C-186.35468855 388.03239312 -189.23940556 391.6848966 -192.10546875 395.35546875 C-196.58746985 401.09557543 -201.16503432 406.75240121 -205.76953125 412.39453125 C-209.71964326 417.24324694 -213.59827413 422.1426975 -217.44580078 427.07299805 C-220.89921586 431.48652474 -224.43043021 435.83196721 -227.98046875 440.16796875 C-232.44724931 445.62839492 -236.78486489 451.16854533 -241.04296875 456.79296875 C-245.6530067 462.85569652 -250.32292671 468.86508893 -255.10546875 474.79296875 C-255.68095459 475.5212085 -256.25644043 476.24944824 -256.84936523 476.99975586 C-262.00854292 483.32882198 -262.00854292 483.32882198 -266.60546875 484.35546875 C-270.94786833 484.67621417 -273.95005406 483.80170854 -277.54296875 481.35546875 C-280.56935184 476.95345699 -281.01286861 472.41531722 -280.30908585 467.12943268 C-279.79428975 464.80604815 -279.18591065 462.5311963 -278.53173828 460.24316406 C-278.29940491 459.38181351 -278.06707153 458.52046295 -277.82769775 457.63301086 C-277.06289603 454.81219741 -276.27576019 451.99815209 -275.48828125 449.18359375 C-274.94971479 447.213428 -274.41261801 445.24285996 -273.87692261 443.27191162 C-272.46760017 438.10131935 -271.03945351 432.93611794 -269.60693359 427.77191162 C-267.86867696 421.49203586 -266.15266748 415.20605296 -264.43324089 408.92100143 C-263.09545211 404.0326706 -261.7544409 399.14529957 -260.40359497 394.26055908 C-260.15578278 393.36248032 -259.90797058 392.46440155 -259.65264893 391.53910828 C-259.19122338 389.86755886 -258.72845939 388.19637807 -258.2640686 386.52565002 C-257.24230245 382.81938576 -256.28895176 379.14286084 -255.60546875 375.35546875 C-257.35126221 375.16428467 -257.35126221 375.16428467 -259.13232422 374.96923828 C-265.41201925 374.18028854 -271.45858793 372.48535735 -277.55126953 370.81933594 C-279.0047418 370.42657601 -280.46120684 370.0447293 -281.92041016 369.67382812 C-296.80330777 365.88873711 -296.80330777 365.88873711 -300.77001953 360.0546875 C-301.87888456 357.79936879 -302.40306472 355.93359957 -302.48046875 353.41796875 C-302.51914062 352.64582031 -302.5578125 351.87367188 -302.59765625 351.078125 C-302.60023438 350.50964844 -302.6028125 349.94117188 -302.60546875 349.35546875 C-303.92546875 349.35546875 -305.24546875 349.35546875 -306.60546875 349.35546875 C-306.68796875 350.11859375 -306.77046875 350.88171875 -306.85546875 351.66796875 C-307.60546875 354.35546875 -307.60546875 354.35546875 -309.14068604 355.9981842 C-312.62498708 357.916888 -315.91511861 357.78206981 -319.79199219 357.75952148 C-321.02715828 357.76981636 -321.02715828 357.76981636 -322.28727722 357.78031921 C-325.01330791 357.79863375 -327.7387646 357.79473806 -330.46484375 357.7890625 C-332.37136012 357.79362697 -334.27787485 357.79893334 -336.18438721 357.8049469 C-340.18923601 357.81389079 -344.19388563 357.81144608 -348.19873047 357.80151367 C-353.28889899 357.79011047 -358.3783648 357.81009484 -363.46844101 357.83943081 C-367.41345483 357.8579505 -371.35830588 357.85746779 -375.30335236 357.85179329 C-377.17691269 357.85164152 -379.0504851 357.85756454 -380.9240036 357.87008476 C-403.64749007 358.00037565 -423.40320033 352.96957638 -440.20263672 336.79052734 C-454.08688138 322.58732684 -459.99204672 303.84948035 -459.8203125 284.3671875 C-459.08016778 265.29352009 -450.2466204 247.97817682 -436.62109375 234.9296875 C-426.32071739 226.13700872 -413.31549314 219.16194077 -399.60546875 218.35546875 C-399.93546875 217.69546875 -400.26546875 217.03546875 -400.60546875 216.35546875 C-402.5925444 198.5482139 -395.44473096 180.1028257 -384.60546875 166.35546875 C-380.80081826 162.15740069 -376.73176887 158.23419086 -372.60546875 154.35546875 C-375.19688406 153.65078564 -377.38985917 153.29944086 -380.10546875 153.10546875 C-384.48426401 152.16715548 -385.09226903 150.96352775 -387.60546875 147.35546875 C-391.98296814 139.38178404 -394.83085468 131.25502588 -396.60546875 122.35546875 C-396.83234375 121.24171875 -397.05921875 120.12796875 -397.29296875 118.98046875 C-399.10639192 97.94475999 -395.00716189 77.7983001 -381.8203125 60.94140625 C-367.58079128 44.3160746 -350.45962556 34.16342316 -328.60546875 31.35546875 C-306.90815896 29.80262207 -285.67107414 35.8742432 -268.95092773 50.11206055 C-260.62277031 57.54625745 -250.56235934 68.5636454 -249.16796875 79.91796875 C-249.67543564 83.90520861 -250.84422056 85.50793156 -253.60546875 88.35546875 C-249.7751709 88.35546875 -247.19380185 86.78549201 -243.85546875 85.10546875 C-220.89064142 73.9674291 -193.45408325 73.09616388 -169.41162109 81.35668945 C-157.93823335 85.53489893 -148.00706275 91.58495052 -138.60546875 99.35546875 C-138.03699219 99.77828125 -137.46851563 100.20109375 -136.8828125 100.63671875 C-118.92882963 114.55848325 -107.91066252 138.73667751 -104.83984375 160.78515625 C-104.51569921 164.33994142 -104.46829404 167.78892621 -104.60546875 171.35546875 C-103.99960937 171.39285156 -103.39375 171.43023437 -102.76953125 171.46875 C-86.97418773 172.70807695 -86.97418773 172.70807695 -82.48046875 177.73046875 C-81.57274757 180.45363229 -81.36121649 182.505859 -81.60546875 185.35546875 C-80.28546875 185.68546875 -78.96546875 186.01546875 -77.60546875 186.35546875 C-77.60823413 185.26162023 -77.60823413 185.26162023 -77.61105537 184.14567375 C-77.65534859 166.34880446 -77.68838064 148.55194627 -77.70909309 130.75503349 C-77.71937736 122.14835497 -77.7333828 113.54171339 -77.75634766 104.93505859 C-77.77636922 97.42785653 -77.78920586 89.92068124 -77.79364574 82.41345322 C-77.79623837 78.44356921 -77.80227179 74.47376175 -77.81692886 70.50390244 C-77.8306518 66.75616825 -77.83466217 63.00854108 -77.83168411 59.26078415 C-77.83248413 57.25243503 -77.84316788 55.24409718 -77.85430908 53.23577881 C-77.81177742 34.19421403 -74.40707845 19.75125053 -61.29296875 5.66796875 C-57.47651397 1.99348275 -53.37833235 -0.39756625 -48.60546875 -2.64453125 C-47.47625 -3.23621094 -47.47625 -3.23621094 -46.32421875 -3.83984375 C-32.07599287 -10.28761685 -13.02621332 -8.22194274 0 0 Z " fill="#65DDFE" transform="translate(462.60546875,22.64453125)"/>
<path d="M0 0 C2.26190222 1.67842996 4.32881391 3.4426145 6.39453125 5.35546875 C7.0184375 5.90074219 7.64234375 6.44601563 8.28515625 7.0078125 C18.45793576 16.40657618 22.89874238 28.81050104 23.48415017 42.44234002 C23.51530232 44.67182904 23.51653597 46.89924133 23.50564575 49.12892151 C23.50564477 49.97611329 23.50564378 50.82330506 23.50564277 51.69616932 C23.50461527 54.51565122 23.49661644 57.33507051 23.48876953 60.15454102 C23.486889 62.18374592 23.48554485 64.21295138 23.48469543 66.24215698 C23.48241698 70.60241262 23.47770207 74.96265665 23.4715004 79.3229084 C23.46307982 86.21870469 23.46853972 93.11444549 23.47750854 100.01023865 C23.47897955 101.17520624 23.48045056 102.34017384 23.48196614 103.54044348 C23.48503659 105.92192911 23.48815661 108.30341467 23.49132514 110.68490016 C23.51249982 126.73229816 23.5261566 142.77951339 23.49414062 158.8269043 C23.47262402 169.66217979 23.47573365 180.49713579 23.50754917 191.33239025 C23.52340614 197.06324801 23.52662086 202.79349445 23.49979019 208.52432442 C23.47478622 213.91156215 23.48227457 219.29777423 23.51466942 224.68496323 C23.52076359 226.66063776 23.51491095 228.63639107 23.49617577 230.61198616 C23.03757332 240.67299033 23.03757332 240.67299033 25.93157578 250.01193047 C27.66495688 251.75172388 29.35452103 253.00883376 31.39453125 254.35546875 C43.77782778 271.00221858 48.43108328 290.70366097 45.9296875 311.15625 C43.49553307 325.02660928 38.18496394 336.41191389 29.39453125 347.35546875 C28.77578125 348.18175781 28.15703125 349.00804687 27.51953125 349.859375 C15.87467334 363.53780184 -2.13885662 371.20747114 -19.60546875 373.35546875 C-39.93498651 374.55675844 -58.87029819 369.68436135 -74.60546875 356.35546875 C-80.27585073 351.24651073 -85.31006143 346.31099251 -88.60546875 339.35546875 C-89.41951172 337.82792969 -89.41951172 337.82792969 -90.25 336.26953125 C-99.41921729 318.78045574 -103.43382957 300.19258055 -98.16479492 280.56225586 C-93.99373821 267.43661019 -87.27761635 257.02761635 -77.60546875 247.35546875 C-77.51209791 244.74379691 -77.48444467 242.15875607 -77.49867249 239.54682922 C-77.49922919 238.71872449 -77.4997859 237.89061975 -77.50035948 237.03742093 C-77.50341484 234.24016903 -77.51361085 231.44298676 -77.52368164 228.64575195 C-77.52723524 226.64864171 -77.53032192 224.65153059 -77.53297424 222.65441895 C-77.53954386 218.34043153 -77.54911593 214.02646454 -77.56086922 209.71248817 C-77.57912496 202.882564 -77.5887526 196.05264488 -77.5967865 189.22270203 C-77.62096131 169.79582521 -77.65666266 150.36897865 -77.70141602 130.94213867 C-77.72603375 120.22269417 -77.74335598 109.50326183 -77.7529754 98.78379315 C-77.75949398 92.00450127 -77.77500439 85.22530963 -77.79729283 78.44605219 C-77.80909375 74.20835815 -77.81239441 69.97068788 -77.81339073 65.73297882 C-77.81552338 63.77959433 -77.82106324 61.82620984 -77.83042145 59.8728466 C-77.92753723 38.76876087 -76.27656084 21.75889328 -61.29296875 5.66796875 C-57.47651397 1.99348275 -53.37833235 -0.39756625 -48.60546875 -2.64453125 C-47.85265625 -3.03898437 -47.09984375 -3.4334375 -46.32421875 -3.83984375 C-32.07599287 -10.28761685 -13.02621332 -8.22194274 0 0 Z " fill="#FD8197" transform="translate(462.60546875,22.64453125)"/>
<path d="M0 0 C10.13072811 7.95166584 22.80259444 20.24969761 24.4375 33.5625 C23.93003311 37.54973986 22.76124819 39.15246281 20 42 C23.83029785 42 26.4116669 40.43002326 29.75 38.75 C52.71482733 27.61196035 80.1513855 26.74069513 104.19384766 35.0012207 C115.6672354 39.17943018 125.598406 45.22948177 135 53 C135.56847656 53.4228125 136.13695312 53.845625 136.72265625 54.28125 C154.67663912 68.2030145 165.69480623 92.38120876 168.765625 114.4296875 C169.08976954 117.98447267 169.13717471 121.43345746 169 125 C169.60585938 125.03738281 170.21171875 125.07476562 170.8359375 125.11328125 C186.48484168 126.34111835 186.48484168 126.34111835 191.1875 131.3125 C192.21624139 134.71525999 192.08050219 136.61442647 191 140 C189.375 142.375 189.375 142.375 187 144 C181.60799866 144.67400017 176.44709469 143.46773578 171.13671875 142.48828125 C167.24848594 141.88301462 163.40450668 141.75809657 159.47265625 141.734375 C156.46437156 140.8409192 154.85625526 139.38125297 152.97094727 136.890625 C151.12582663 133.29781277 151.3950594 129.58296477 151.4375 125.625 C150.89353791 102.32599865 141.73318016 83.01381668 124.8125 66.8125 C105.25543482 50.26681683 82.86354545 46.72522736 58 48 C43.04112004 49.58939909 27.94992524 57.95296333 17 68 C16.24460938 68.66386719 15.48921875 69.32773438 14.7109375 70.01171875 C1.12939734 82.63648375 -5.76567949 98.70614508 -8.48168945 116.79125977 C-9.54921319 123.38435933 -9.54921319 123.38435933 -11.890625 126.58203125 C-14.48951845 128.32906518 -16.68353438 128.73566071 -19.8046875 128.5859375 C-23.41366714 127.62268671 -25.77406209 125.27189262 -28.57421875 122.8828125 C-40.7834163 113.40643051 -56.21074361 112.65219676 -71 114 C-75.52004138 115.02080766 -79.06779414 116.57563248 -83 119 C-83.95003906 119.56976563 -84.90007812 120.13953125 -85.87890625 120.7265625 C-97.09370321 128.1420609 -105.50336305 140.35220645 -108.64257812 153.49536133 C-109.60711707 160.25438118 -108.9317335 167.28576463 -108.65820312 174.0859375 C-108.63306641 175.30023438 -108.60792969 176.51453125 -108.58203125 177.765625 C-108.54311768 178.86680664 -108.5042041 179.96798828 -108.46411133 181.10253906 C-109 184 -109 184 -111.30322266 186.34887695 C-114.68334812 188.41838524 -117.70533002 188.69144472 -121.5625 188.9375 C-135.88807543 190.33360195 -148.00905166 196.76278567 -157.375 207.8125 C-161.14764401 212.82980729 -163.7672597 218.14987425 -166 224 C-166.36867187 224.89460937 -166.73734375 225.78921875 -167.1171875 226.7109375 C-168.30720308 231.14453537 -168.2907345 235.30594661 -168.25 239.875 C-168.25773437 240.73480469 -168.26546875 241.59460938 -168.2734375 242.48046875 C-168.23075425 256.54459965 -162.34900108 269.68601074 -152.56640625 279.75 C-138.69325752 291.91276053 -123.73948061 294.60133657 -105.90038681 294.4858551 C-103.11702252 294.46835602 -100.33467482 294.47622296 -97.55130005 294.4901123 C-91.65912726 294.51522752 -85.76720435 294.50996948 -79.875 294.5 C-73.00642512 294.48845384 -66.13835152 294.4895582 -59.26984024 294.52406311 C-56.53083244 294.53115001 -53.79262487 294.51450361 -51.05368042 294.49694824 C-49.38067186 294.50265289 -47.7076666 294.50946858 -46.03466797 294.51757812 C-45.27623093 294.50626358 -44.51779388 294.49494904 -43.7363739 294.48329163 C-40.29628521 294.52322968 -38.35812228 294.73310098 -35.5642395 296.81530762 C-33.31555348 299.95593104 -32.93248908 302.15187735 -33 306 C-35.72205571 309.67923913 -37.23721686 310.87378461 -41.79646301 311.62818909 C-43.29742407 311.65472384 -44.7990261 311.65388419 -46.30004883 311.63110352 C-47.12363892 311.63825882 -47.947229 311.64541412 -48.79577637 311.65278625 C-51.51676109 311.66967961 -54.23609761 311.65024894 -56.95703125 311.62890625 C-58.86211787 311.62973576 -60.76720442 311.63219825 -62.67228699 311.63621521 C-66.67131021 311.6390748 -70.669774 311.62437177 -74.66870117 311.59692383 C-79.75105241 311.56309534 -84.83238681 311.56877246 -89.91478443 311.5875864 C-93.85554689 311.59825794 -97.79608078 311.58912327 -101.73682213 311.57420158 C-103.60757451 311.56907608 -105.47835137 311.56943179 -107.34910011 311.57574654 C-130.04902883 311.62354807 -149.81427518 306.59817497 -166.59716797 290.43505859 C-180.48141263 276.23185809 -186.38657797 257.4940116 -186.21484375 238.01171875 C-185.47469903 218.93805134 -176.64115165 201.62270807 -163.015625 188.57421875 C-152.71524864 179.78153997 -139.71002439 172.80647202 -126 172 C-126.33 171.34 -126.66 170.68 -127 170 C-128.98707565 152.19274515 -121.83926221 133.74735695 -111 120 C-107.19534951 115.80193194 -103.12630012 111.87872211 -99 108 C-101.59141531 107.29531689 -103.78439042 106.94397211 -106.5 106.75 C-110.87879526 105.81168673 -111.48680028 104.608059 -114 101 C-118.37749939 93.02631529 -121.22538593 84.89955713 -123 76 C-123.226875 74.88625 -123.45375 73.7725 -123.6875 72.625 C-125.50092317 51.58929124 -121.40169314 31.44283135 -108.21484375 14.5859375 C-80.14895348 -18.18235061 -35.83358575 -24.53973187 0 0 Z " fill="#FDE986" transform="translate(189,69)"/>
<path d="M0 0 C2.26190222 1.67842996 4.32881391 3.4426145 6.39453125 5.35546875 C7.0184375 5.90074219 7.64234375 6.44601563 8.28515625 7.0078125 C18.45793576 16.40657618 22.89874238 28.81050104 23.48415017 42.44234002 C23.51530232 44.67182904 23.51653597 46.89924133 23.50564575 49.12892151 C23.50564477 49.97611329 23.50564378 50.82330506 23.50564277 51.69616932 C23.50461527 54.51565122 23.49661644 57.33507051 23.48876953 60.15454102 C23.486889 62.18374592 23.48554485 64.21295138 23.48469543 66.24215698 C23.48241698 70.60241262 23.47770207 74.96265665 23.4715004 79.3229084 C23.46307982 86.21870469 23.46853972 93.11444549 23.47750854 100.01023865 C23.47897955 101.17520624 23.48045056 102.34017384 23.48196614 103.54044348 C23.48503659 105.92192911 23.48815661 108.30341467 23.49132514 110.68490016 C23.51249982 126.73229816 23.5261566 142.77951339 23.49414062 158.8269043 C23.47262402 169.66217979 23.47573365 180.49713579 23.50754917 191.33239025 C23.52340614 197.06324801 23.52662086 202.79349445 23.49979019 208.52432442 C23.47478622 213.91156215 23.48227457 219.29777423 23.51466942 224.68496323 C23.52076359 226.66063776 23.51491095 228.63639107 23.49617577 230.61198616 C23.03757332 240.67299033 23.03757332 240.67299033 25.93157578 250.01193047 C27.66495688 251.75172388 29.35452103 253.00883376 31.39453125 254.35546875 C43.77782778 271.00221858 48.43108328 290.70366097 45.9296875 311.15625 C43.49553307 325.02660928 38.18496394 336.41191389 29.39453125 347.35546875 C28.77578125 348.18175781 28.15703125 349.00804687 27.51953125 349.859375 C15.87467334 363.53780184 -2.13885662 371.20747114 -19.60546875 373.35546875 C-39.93498651 374.55675844 -58.87029819 369.68436135 -74.60546875 356.35546875 C-80.27585073 351.24651073 -85.31006143 346.31099251 -88.60546875 339.35546875 C-89.41951172 337.82792969 -89.41951172 337.82792969 -90.25 336.26953125 C-99.41921729 318.78045574 -103.43382957 300.19258055 -98.16479492 280.56225586 C-93.99373821 267.43661019 -87.27761635 257.02761635 -77.60546875 247.35546875 C-77.51209791 244.74379691 -77.48444467 242.15875607 -77.49867249 239.54682922 C-77.49922919 238.71872449 -77.4997859 237.89061975 -77.50035948 237.03742093 C-77.50341484 234.24016903 -77.51361085 231.44298676 -77.52368164 228.64575195 C-77.52723524 226.64864171 -77.53032192 224.65153059 -77.53297424 222.65441895 C-77.53954386 218.34043153 -77.54911593 214.02646454 -77.56086922 209.71248817 C-77.57912496 202.882564 -77.5887526 196.05264488 -77.5967865 189.22270203 C-77.62096131 169.79582521 -77.65666266 150.36897865 -77.70141602 130.94213867 C-77.72603375 120.22269417 -77.74335598 109.50326183 -77.7529754 98.78379315 C-77.75949398 92.00450127 -77.77500439 85.22530963 -77.79729283 78.44605219 C-77.80909375 74.20835815 -77.81239441 69.97068788 -77.81339073 65.73297882 C-77.81552338 63.77959433 -77.82106324 61.82620984 -77.83042145 59.8728466 C-77.92753723 38.76876087 -76.27656084 21.75889328 -61.29296875 5.66796875 C-57.47651397 1.99348275 -53.37833235 -0.39756625 -48.60546875 -2.64453125 C-47.85265625 -3.03898437 -47.09984375 -3.4334375 -46.32421875 -3.83984375 C-32.07599287 -10.28761685 -13.02621332 -8.22194274 0 0 Z M-60.60546875 65.35546875 C-60.599104 70.97835937 -60.59273926 76.60125 -60.58618164 82.39453125 C-60.57024976 100.95852803 -60.59227374 119.52233579 -60.63393497 138.08628845 C-60.65826884 149.34325436 -60.66957551 160.59995113 -60.65014648 171.85693359 C-60.63324393 181.66929715 -60.64085308 191.48128423 -60.67781633 201.29359818 C-60.69653219 206.48860882 -60.70302758 211.68298285 -60.68016243 216.87799072 C-60.6590172 221.7702619 -60.67070635 226.66136802 -60.70731354 231.55353737 C-60.71499159 233.34655522 -60.71079023 235.13967049 -60.69365501 236.93262291 C-60.55925172 252.16597595 -60.55925172 252.16597595 -65.00389099 257.29199219 C-66.18275251 258.33808654 -67.38163625 259.36236155 -68.60546875 260.35546875 C-73.92999437 266.90554615 -78.90524672 273.28463937 -81.60546875 281.35546875 C-81.82847656 282.00128906 -82.05148437 282.64710938 -82.28125 283.3125 C-86.27826129 297.5331592 -84.01046275 314.05873475 -77.48046875 327.04296875 C-69.65253105 340.56691101 -57.3518995 351.33748889 -42.12890625 355.765625 C-24.82602058 358.66222781 -8.33768782 356.18424492 6.39453125 346.35546875 C19.00551755 336.70741609 26.00709095 324.7903513 29.39453125 309.35546875 C30.8552952 292.99861069 29.01707045 278.4913766 18.39453125 265.35546875 C16.08894048 262.69936587 13.74749014 260.09078185 11.34765625 257.51953125 C7.5140626 253.27190949 7.1331424 250.86246369 7.07568359 245.22192383 C7.06563797 244.49972153 7.05559235 243.77751923 7.04524231 243.03343201 C7.01436186 240.64729607 6.99736191 238.26127258 6.98046875 235.875 C6.96176099 234.22017954 6.94218787 232.56536865 6.92178345 230.91056824 C6.87041476 226.55573162 6.83081447 222.20086406 6.79364014 217.84588623 C6.75363013 213.40173661 6.70252411 208.95771624 6.65234375 204.51367188 C6.55552839 195.79435906 6.47114165 187.07498238 6.39453125 178.35546875 C5.5025 178.3296875 4.61046875 178.30390625 3.69140625 178.27734375 C1.93570313 178.19226563 1.93570313 178.19226563 0.14453125 178.10546875 C-1.59570312 178.03585938 -1.59570312 178.03585938 -3.37109375 177.96484375 C-7.11671739 177.25914654 -8.38606848 176.41538447 -10.60546875 173.35546875 C-10.60546875 169.79296875 -10.60546875 169.79296875 -9.60546875 166.35546875 C-5.16622424 161.91622424 0.45026365 162.67852677 6.39453125 162.35546875 C6.39453125 154.43546875 6.39453125 146.51546875 6.39453125 138.35546875 C4.33203125 138.27296875 2.26953125 138.19046875 0.14453125 138.10546875 C-5.93247011 137.8623887 -5.93247011 137.8623887 -9.02734375 135.53125 C-10.60546875 133.35546875 -10.60546875 133.35546875 -10.60546875 129.79296875 C-9.48188768 125.93065881 -8.99574817 125.28952077 -5.60546875 123.35546875 C-1.60238709 122.67618935 2.32953014 122.57639272 6.39453125 122.35546875 C6.39453125 114.43546875 6.39453125 106.51546875 6.39453125 98.35546875 C4.33203125 98.27296875 2.26953125 98.19046875 0.14453125 98.10546875 C-5.93247011 97.8623887 -5.93247011 97.8623887 -9.02734375 95.53125 C-10.60546875 93.35546875 -10.60546875 93.35546875 -10.60546875 89.79296875 C-9.48188768 85.93065881 -8.99574817 85.28952077 -5.60546875 83.35546875 C-1.60238709 82.67618935 2.32953014 82.57639272 6.39453125 82.35546875 C6.39453125 76.74546875 6.39453125 71.13546875 6.39453125 65.35546875 C-15.71546875 65.35546875 -37.82546875 65.35546875 -60.60546875 65.35546875 Z " fill="#010101" transform="translate(462.60546875,22.64453125)"/>
<path d="M0 0 C2.70567626 1.82339052 4.53728718 3.07457436 6 6 C6.82694555 13.74960613 5.05658387 20.51776271 2.8125 27.875 C2.1617214 30.09566943 1.51331041 32.31703399 0.8671875 34.5390625 C0.38717285 36.1792334 0.38717285 36.1792334 -0.10253906 37.85253906 C-1.36846173 42.29222214 -2.47802212 46.76315894 -3.5625 51.25 C-5.43474321 58.93182856 -7.54997465 66.52190529 -9.76098633 74.11254883 C-11.80328751 81.17636053 -13.62630417 88.28218872 -15.3515625 95.4296875 C-16.38824038 99.69710809 -17.53559493 103.85307111 -19 108 C-17.94683594 108.09667969 -16.89367187 108.19335938 -15.80859375 108.29296875 C-9.75583507 109.05339234 -3.93902025 110.71711004 1.9375 112.3125 C3.63036133 112.75625977 3.63036133 112.75625977 5.35742188 113.20898438 C21.80331629 117.63856501 21.80331629 117.63856501 26.5 122.6875 C28.33797302 126.74635709 29.57278286 130.52513388 29 135 C26.33132595 140.45309781 22.81787668 144.92351887 18.9375 149.5625 C17.76856363 150.97967117 16.6006109 152.39765421 15.43359375 153.81640625 C14.85335449 154.52039551 14.27311523 155.22438477 13.67529297 155.94970703 C11.23863328 158.93179215 8.86617692 161.96189708 6.5 165 C2.01878737 170.74070807 -2.55958118 176.39695159 -7.1640625 182.0390625 C-10.65530083 186.32451618 -14.09818888 190.64329453 -17.5 195 C-21.44195165 200.0484644 -25.4503742 205.03751462 -29.5 210 C-35.42465971 217.26332952 -41.23269816 224.61143615 -47 232 C-50.15625989 236.04352475 -53.32105972 240.07989715 -56.50390625 244.10253906 C-57.56252071 245.44515518 -58.61678641 246.79120552 -59.66796875 248.13964844 C-61.39370888 250.35111655 -63.1331037 252.55124529 -64.875 254.75 C-65.6781665 255.78809814 -65.6781665 255.78809814 -66.49755859 256.84716797 C-69.32325933 260.38527491 -71.40343773 262.94567301 -76 264 C-80.34239958 264.32074542 -83.34458531 263.44623979 -86.9375 261 C-89.96388309 256.59798824 -90.40739986 252.05984847 -89.7036171 246.77396393 C-89.188821 244.4505794 -88.5804419 242.17572755 -87.92626953 239.88769531 C-87.69393616 239.02634476 -87.46160278 238.1649942 -87.222229 237.27754211 C-86.45742728 234.45672866 -85.67029144 231.64268334 -84.8828125 228.828125 C-84.34424604 226.85795925 -83.80714926 224.88739121 -83.27145386 222.91644287 C-81.86213142 217.7458506 -80.43398476 212.58064919 -79.00146484 207.41644287 C-77.26320821 201.13656711 -75.54719873 194.85058421 -73.82777214 188.56553268 C-72.48998336 183.67720185 -71.14897215 178.78983082 -69.79812622 173.90509033 C-69.55031403 173.00701157 -69.30250183 172.1089328 -69.04718018 171.18363953 C-68.58575463 169.51209011 -68.12299064 167.84090932 -67.65859985 166.17018127 C-66.6368337 162.46391701 -65.68348301 158.78739209 -65 155 C-66.1638623 154.87254395 -67.32772461 154.74508789 -68.52685547 154.61376953 C-74.8065505 153.82481979 -80.85311918 152.1298886 -86.94580078 150.46386719 C-88.39927305 150.07110726 -89.85573809 149.68926055 -91.31494141 149.31835938 C-105.94259448 145.5981834 -105.94259448 145.5981834 -110.12963867 139.78710938 C-112.23418251 135.46585808 -112.80458661 131.49191967 -111.31640625 126.8828125 C-108.22695321 120.70390642 -103.4535009 115.62424558 -98.953125 110.4453125 C-96.06567087 107.10941366 -93.33068368 103.67152428 -90.625 100.1875 C-86.64489349 95.07318479 -82.59890778 90.01962449 -78.5 85 C-74.45008576 80.0377555 -70.44194641 75.04845768 -66.5 70 C-62.0179989 64.25989332 -57.44043443 58.60306754 -52.8359375 52.9609375 C-48.88813664 48.11505872 -45.01201102 43.21829857 -41.16625977 38.29125977 C-37.10982486 33.1079151 -32.95274872 28.00954818 -28.78320312 22.91699219 C-24.4505179 17.60620976 -20.29948428 12.17807126 -16.21875 6.671875 C-11.17304267 0.59570632 -7.80178777 -1.71903798 0 0 Z " fill="#010201" transform="translate(272,243)"/>
<path d="M0 0 C0.85271484 0.63421875 0.85271484 0.63421875 1.72265625 1.28125 C19.67663912 15.2030145 30.69480623 39.38120876 33.765625 61.4296875 C34.08976954 64.98447267 34.13717471 68.43345746 34 72 C34.60585938 72.03738281 35.21171875 72.07476562 35.8359375 72.11328125 C51.48484168 73.34111835 51.48484168 73.34111835 56.1875 78.3125 C57.21624139 81.71525999 57.08050219 83.61442647 56 87 C54.375 89.375 54.375 89.375 52 91 C46.60799866 91.67400017 41.44709469 90.46773578 36.13671875 89.48828125 C32.24848594 88.88301462 28.40450668 88.75809657 24.47265625 88.734375 C21.46437156 87.8409192 19.85625526 86.38125297 17.97094727 83.890625 C16.12582663 80.29781277 16.3950594 76.58296477 16.4375 72.625 C15.89353791 49.32599865 6.73318016 30.01381668 -10.1875 13.8125 C-29.74456518 -2.73318317 -52.13645455 -6.27477264 -77 -5 C-91.95887996 -3.41060091 -107.05007476 4.95296333 -118 15 C-118.75539062 15.66386719 -119.51078125 16.32773438 -120.2890625 17.01171875 C-133.87060266 29.63648375 -140.76567949 45.70614508 -143.48168945 63.79125977 C-144.54921319 70.38435933 -144.54921319 70.38435933 -146.890625 73.58203125 C-149.48951845 75.32906518 -151.68353438 75.73566071 -154.8046875 75.5859375 C-158.41366714 74.62268671 -160.77406209 72.27189262 -163.57421875 69.8828125 C-175.7834163 60.40643051 -191.21074361 59.65219676 -206 61 C-210.52004138 62.02080766 -214.06779414 63.57563248 -218 66 C-218.95003906 66.56976563 -219.90007812 67.13953125 -220.87890625 67.7265625 C-232.09370321 75.1420609 -240.50336305 87.35220645 -243.64257812 100.49536133 C-244.60711707 107.25438118 -243.9317335 114.28576463 -243.65820312 121.0859375 C-243.63306641 122.30023438 -243.60792969 123.51453125 -243.58203125 124.765625 C-243.54311768 125.86680664 -243.5042041 126.96798828 -243.46411133 128.10253906 C-244 131 -244 131 -246.30322266 133.34887695 C-249.68334812 135.41838524 -252.70533002 135.69144472 -256.5625 135.9375 C-270.88807543 137.33360195 -283.00905166 143.76278567 -292.375 154.8125 C-296.14764401 159.82980729 -298.7672597 165.14987425 -301 171 C-301.36867188 171.89460937 -301.73734375 172.78921875 -302.1171875 173.7109375 C-303.30720308 178.14453537 -303.2907345 182.30594661 -303.25 186.875 C-303.25773437 187.73480469 -303.26546875 188.59460938 -303.2734375 189.48046875 C-303.23075425 203.54459965 -297.34900108 216.68601074 -287.56640625 226.75 C-273.69325752 238.91276053 -258.73948061 241.60133657 -240.90038681 241.4858551 C-238.11702252 241.46835602 -235.33467482 241.47622296 -232.55130005 241.4901123 C-226.65912726 241.51522752 -220.76720435 241.50996948 -214.875 241.5 C-208.00642512 241.48845384 -201.13835152 241.4895582 -194.26984024 241.52406311 C-191.53083244 241.53115001 -188.79262487 241.51450361 -186.05368042 241.49694824 C-184.38067186 241.50265289 -182.7076666 241.50946858 -181.03466797 241.51757812 C-180.27623093 241.50626358 -179.51779388 241.49494904 -178.7363739 241.48329163 C-175.29628521 241.52322968 -173.35812228 241.73310098 -170.5642395 243.81530762 C-168.31555348 246.95593104 -167.93248908 249.15187735 -168 253 C-170.72205571 256.67923913 -172.23721686 257.87378461 -176.79646301 258.62818909 C-178.29742407 258.65472384 -179.7990261 258.65388419 -181.30004883 258.63110352 C-182.12363892 258.63825882 -182.947229 258.64541412 -183.79577637 258.65278625 C-186.51676109 258.66967961 -189.23609761 258.65024894 -191.95703125 258.62890625 C-193.86211787 258.62973576 -195.76720442 258.63219825 -197.67228699 258.63621521 C-201.67131021 258.6390748 -205.669774 258.62437177 -209.66870117 258.59692383 C-214.75105241 258.56309534 -219.83238681 258.56877246 -224.91478443 258.5875864 C-228.85554689 258.59825794 -232.79608078 258.58912327 -236.73682213 258.57420158 C-238.60757451 258.56907608 -240.47835137 258.56943179 -242.34910011 258.57574654 C-265.04902883 258.62354807 -284.81427518 253.59817497 -301.59716797 237.43505859 C-315.48141263 223.23185809 -321.38657797 204.4940116 -321.21484375 185.01171875 C-320.47469903 165.93805134 -311.64115165 148.62270807 -298.015625 135.57421875 C-287.71524864 126.78153997 -274.71002439 119.80647202 -261 119 C-261.33 118.34 -261.66 117.68 -262 117 C-263.99798726 99.09496029 -256.76534092 80.88307168 -246 67 C-236.17230958 55.59152781 -222.94916248 47.1006412 -208 44 C-194.83186584 43.11529077 -181.2266304 42.48568399 -169 48 C-167.94039062 48.45503906 -166.88078125 48.91007812 -165.7890625 49.37890625 C-163.16600367 50.53847004 -160.57609807 51.74034483 -158 53 C-157.82984375 51.24042969 -157.82984375 51.24042969 -157.65625 49.4453125 C-154.7982126 26.86880175 -136.70827714 7.72583619 -119.74609375 -5.796875 C-83.94996237 -32.45231385 -33.48086528 -27.67229411 0 0 Z " fill="#000101" transform="translate(324,122)"/>
<path d="M0 0 C1.11440664 3.34321992 0.88325641 4.27879407 -0.00390625 7.5859375 C-0.2469751 8.50592529 -0.49004395 9.42591309 -0.74047852 10.3737793 C-1.01174561 11.36418213 -1.2830127 12.35458496 -1.5625 13.375 C-1.83698975 14.40214111 -2.11147949 15.42928223 -2.39428711 16.48754883 C-4.44274103 24.10101795 -6.60687691 31.68009933 -8.80761719 39.25073242 C-10.86624791 46.38455414 -12.69513134 53.56536035 -14.43969727 60.78198242 C-15.90423116 66.80846232 -15.90423116 66.80846232 -17 69 C-17.40288977 73.81143363 -17.61485588 78.39454299 -15.875 82.9375 C-9.89632933 89.51403773 -2.52572686 90.63354053 5.875 92.5625 C20.94496011 96.0913432 20.94496011 96.0913432 28 99 C19.91942694 109.91969332 11.42659728 120.50775307 2.84204102 131.03271484 C-2.52436715 137.62197985 -7.77122546 144.30135034 -13 151 C-14.78989551 153.29305793 -16.5812569 155.5849503 -18.375 157.875 C-18.82447998 158.44895508 -19.27395996 159.02291016 -19.73706055 159.61425781 C-23.24809409 164.08093164 -26.83674459 168.48054981 -30.4375 172.875 C-36.87172385 180.7350826 -42.96896461 188.82821872 -49 197 C-50.12569062 193.62292815 -49.85830677 192.62554592 -48.9609375 189.2734375 C-48.71279297 188.33314697 -48.46464844 187.39285645 -48.20898438 186.42407227 C-47.93376953 185.41787842 -47.65855469 184.41168457 -47.375 183.375 C-47.09720703 182.334646 -46.81941406 181.29429199 -46.53320312 180.22241211 C-44.76390027 173.64775154 -42.87972252 167.11422611 -40.90478516 160.59887695 C-38.6610218 153.08272028 -36.82106189 145.46393671 -34.96679688 137.84399414 C-34.72509766 136.85520264 -34.48339844 135.86641113 -34.234375 134.84765625 C-34.02006836 133.96086182 -33.80576172 133.07406738 -33.58496094 132.16040039 C-33 130 -33 130 -32 128 C-31.85148156 126.06640414 -31.77869167 124.12657903 -31.75 122.1875 C-31.71132812 120.63095703 -31.71132812 120.63095703 -31.671875 119.04296875 C-32.0554599 115.48567547 -32.75346559 113.77985035 -35 111 C-40.52542813 107.31638124 -47.39291104 106.13938443 -53.75 104.5 C-56.01598768 103.90763564 -58.28161846 103.31390421 -60.546875 102.71875 C-62.17399414 102.29142578 -62.17399414 102.29142578 -63.83398438 101.85546875 C-68.25110156 100.66194788 -72.62956955 99.35351958 -77 98 C-73.94217279 93.22536859 -70.54557734 88.86924802 -66.9375 84.5 C-62.701425 79.32867217 -58.49596086 74.13863514 -54.375 68.875 C-53.92809814 68.30442871 -53.48119629 67.73385742 -53.02075195 67.14599609 C-51.67941356 65.43151071 -50.33943765 63.71597064 -49 62 C-42.69319471 53.92027141 -36.31816934 45.90570911 -29.83862305 37.96362305 C-25.87565155 33.09845439 -21.97674348 28.18752563 -18.11352539 23.24291992 C-14.08193706 18.08689006 -9.99142655 12.97914437 -5.88256836 7.88452148 C-3.8122662 5.30911444 -1.83426968 2.75140451 0 0 Z " fill="#FDE058" transform="translate(255,276)"/>
<path d="M0 0 C3.46867075 0.54768486 5.13932906 1.10428198 7.52792358 3.67050171 C9.94981772 8.09957963 9.28534838 13.60866626 9.26953125 18.51953125 C9.28465256 19.77763107 9.29977386 21.0357309 9.31535339 22.33195496 C9.35101256 25.66465827 9.36538861 28.99606266 9.36938477 32.32885742 C9.37873055 35.73438011 9.41615285 39.13958354 9.45117188 42.54492188 C9.51410147 49.21745498 9.54897382 55.88969375 9.5625 62.5625 C10.16433105 62.821521 10.76616211 63.08054199 11.38623047 63.34741211 C12.18432129 63.69553955 12.98241211 64.04366699 13.8046875 64.40234375 C14.59214355 64.74386475 15.37959961 65.08538574 16.19091797 65.43725586 C25.40214881 69.80770706 30.96820942 77.08542118 34.734375 86.48828125 C37.29643261 95.99931587 36.08971807 105.88309967 31.5625 114.5625 C26.33374088 123.12357711 18.8408927 129.25777259 9.140625 132.08984375 C-1.45342269 134.03208583 -10.45440035 132.79240624 -19.6171875 127.2421875 C-28.04656676 121.42114446 -33.11992028 113.52288474 -35.4375 103.5625 C-36.60533969 93.77886343 -35.33816577 84.94541876 -29.484375 76.8671875 C-23.24738978 69.56162789 -17.0632386 64.02258856 -7.4375 62.5625 C-7.44638245 61.84475403 -7.45526489 61.12700806 -7.4644165 60.38751221 C-7.5446049 53.61942406 -7.60548592 46.85140703 -7.64474869 40.08296585 C-7.66561308 36.6032813 -7.69390821 33.12398967 -7.73925781 29.64453125 C-7.79108227 25.64319107 -7.81045453 21.64226281 -7.828125 17.640625 C-7.84877014 16.39259094 -7.86941528 15.14455688 -7.89068604 13.85870361 C-7.89098816 12.69780212 -7.89129028 11.53690063 -7.89160156 10.34082031 C-7.90048401 9.31933899 -7.90936646 8.29785767 -7.91851807 7.24542236 C-7.05978971 2.45578626 -4.65393337 0.76155273 0 0 Z " fill="#040202" transform="translate(435.4375,225.4375)"/>
<path d="M0 0 C10.35781003 8.12990372 18.55508103 17.89462969 24 30 C24.37194707 33.59548831 24.36034088 36.06311372 23.0625 39.4375 C20.17430126 41.62552935 17.79915422 41.48326018 14.25390625 41.53125 C11.1351712 40.7961582 10.02362174 39.45814174 8 37 C6.91082366 35.15219337 5.8721311 33.27405872 4.875 31.375 C-3.17072733 17.39278465 -16.59535351 7.89636464 -32.1171875 3.625 C-44.81248846 1.58149079 -59.30462577 1.10010139 -71 7 C-72.010625 7.50917969 -73.02125 8.01835938 -74.0625 8.54296875 C-88.47555937 16.41610243 -98.19653544 27.59594694 -104 43 C-108.23835187 57.61054076 -107.55884844 75.05552502 -100.62109375 88.71484375 C-99.75483725 90.19809206 -98.87849686 91.6755377 -97.98828125 93.14453125 C-96.49272027 95.95240265 -96.36734398 97.90701503 -97 101 C-98.9739191 104.41639845 -100.18538459 105.72268412 -103.9375 107 C-107.74506386 107 -108.98248674 106.31021183 -112 104 C-113.57516009 101.51032389 -114.87326432 99.20300023 -116.125 96.5625 C-116.64429077 95.4943103 -116.64429077 95.4943103 -117.17407227 94.40454102 C-119.98356866 88.43561572 -121.83089061 82.50065135 -123 76 C-123.226875 74.88625 -123.45375 73.7725 -123.6875 72.625 C-125.50092317 51.58929124 -121.40169314 31.44283135 -108.21484375 14.5859375 C-80.14895348 -18.18235061 -35.83358575 -24.53973187 0 0 Z " fill="#020101" transform="translate(189,69)"/>
<path d="M0 0 C9.39313894 5.39866911 14.30898911 12.39962358 17.69140625 22.546875 C17.69140625 27.166875 17.69140625 31.786875 17.69140625 36.546875 C-4.41859375 36.546875 -26.52859375 36.546875 -49.30859375 36.546875 C-49.30859375 23.2711725 -48.56060103 16.13859813 -40.44921875 6.2890625 C-29.05329716 -4.58886265 -14.15493251 -6.70992806 0 0 Z " fill="#CCE5FD" transform="translate(451.30859375,35.453125)"/>
<path d="M0 0 C15.551003 3.92155728 29.33881979 11.95251047 37.99609375 25.91015625 C41.72380396 32.33869496 45.23808137 38.64779104 44.625 46.25 C42.625 49.3125 42.625 49.3125 39.625 51.25 C36.0625 51.875 36.0625 51.875 32.625 51.25 C29.41115212 48.49527324 28.24704734 45.36966131 26.8125 41.5 C22.82766366 31.08050575 15.30535779 23.92490892 5.4375 19 C1.61652498 17.37193238 -2.01216819 16.81791 -6.125 16.3125 C-10.2427159 15.75383913 -12.16176667 15.39081446 -15.6875 13.0625 C-17.85749922 9.44583464 -18.05405229 7.399764 -17.375 3.25 C-13.660023 -3.04930882 -6.20726834 -1.22585192 0 0 Z " fill="#010304" transform="translate(275.375,132.75)"/>
<path d="M0 0 C5.07748109 2.85229017 8.48063544 7.00018921 10.75 12.375 C11.73666515 19.12103611 10.76652277 24.82601931 6.75 30.375 C2.18767559 35.28731094 -2.44862811 37.42879446 -9.0625 37.8125 C-14.55485593 37.68172962 -18.17016548 36.01058587 -22.25 32.375 C-26.80430549 27.19759301 -28.64125106 22.59755934 -28.51953125 15.78125 C-27.95658908 10.75556337 -26.01558122 7.00913956 -22.30859375 3.578125 C-15.43457289 -1.73879721 -8.23787769 -3.7672268 0 0 Z " fill="#E3083F" transform="translate(444.25,304.625)"/>
<path d="M0 0 C3.63 0 7.26 0 11 0 C10.9969838 0.90931274 10.99396759 1.81862549 10.99085999 2.75549316 C10.96856518 11.34754103 10.97988788 19.93875737 11.02846622 28.53070831 C11.05226618 32.9474673 11.06331057 37.36347346 11.04467773 41.78027344 C11.02715527 46.04719099 11.04382682 50.31275975 11.08367729 54.57951355 C11.09293313 56.20287249 11.09010686 57.8263491 11.07469368 59.44966125 C10.74988993 69.90382152 10.74988993 69.90382152 15.43115234 78.91503906 C16.59441055 79.97308394 17.78080091 81.00693294 19 82 C31.1994536 96.17324434 34.98247578 110.14223056 34.19970703 128.47998047 C33.7604733 134.02248728 32.16224222 138.91658287 30 144 C29.50886719 145.28003906 29.50886719 145.28003906 29.0078125 146.5859375 C26.70407838 151.91647558 23.47130716 156.0903821 19.625 160.375 C19.17890381 160.87523682 18.73280762 161.37547363 18.27319336 161.89086914 C14.8519595 165.52842675 11.3709677 167.71147845 7 170 C8.34998385 166.98393853 9.87390474 164.96506661 12.1875 162.625 C22.26566228 151.34755745 26.58888851 136.65574176 26.5 121.8125 C26.49500488 120.71478271 26.49000977 119.61706543 26.48486328 118.48608398 C26.0726248 99.18905858 17.42010371 85.42010371 4 72 C3.75949097 69.0640564 3.75949097 69.0640564 3.77294922 65.25537109 C3.77265717 64.56257553 3.77236511 63.86977997 3.77206421 63.1559906 C3.77345969 60.86167966 3.78903081 58.56769184 3.8046875 56.2734375 C3.80841686 54.68446022 3.8112642 53.09548064 3.81326294 51.50650024 C3.82090547 47.32085846 3.84055919 43.1353551 3.8626709 38.94976807 C3.88311604 34.68007276 3.8922618 30.41035513 3.90234375 26.140625 C3.92380457 17.76035309 3.95794789 9.38019375 4 1 C2.68 0.67 1.36 0.34 0 0 Z " fill="#FA6982" transform="translate(458,201)"/>
<path d="M0 0 C1.47738647 -0.0221608 1.47738647 -0.0221608 2.98461914 -0.04476929 C3.87556274 -0.06259964 4.76650635 -0.08042999 5.68444824 -0.09880066 C7.95922852 0.06387329 7.95922852 0.06387329 10.58422852 1.68887329 C12.26508547 4.59217166 12.81951029 6.71063585 12.95922852 10.06387329 C12.15626146 12.69176546 11.47818344 13.71172531 9.20922852 15.25137329 C2.88030349 17.53681844 -3.78543733 17.25546172 -10.42358398 17.30215454 C-11.51540985 17.31022629 -12.60723572 17.31829803 -13.73214722 17.32661438 C-16.03341097 17.34040678 -18.33469476 17.35115045 -20.63598633 17.35903931 C-22.99281797 17.37061318 -25.34962232 17.39114898 -27.70629883 17.42056274 C-31.11224164 17.46305987 -34.51740964 17.47937858 -37.92358398 17.48965454 C-38.97780548 17.50716263 -40.03202698 17.52467072 -41.11819458 17.54270935 C-48.40744098 17.52097932 -48.40744098 17.52097932 -51.6809082 15.15835571 C-53.10748864 12.96111449 -53.88220217 11.6802669 -54.04077148 9.06387329 C-53.02941318 5.60839908 -51.8388235 3.33158923 -49.04077148 1.06387329 C-47.00769043 0.66514587 -47.00769043 0.66514587 -44.65209961 0.63150024 C-43.76687622 0.61170609 -42.88165283 0.59191193 -41.96960449 0.57151794 C-41.0134021 0.56512802 -40.05719971 0.5587381 -39.07202148 0.55215454 C-37.58599426 0.52522774 -37.58599426 0.52522774 -36.06994629 0.49775696 C-32.89359908 0.44355441 -29.71739844 0.40980387 -26.54077148 0.37637329 C-24.43137525 0.34319141 -22.32199917 0.30870095 -20.21264648 0.27285767 C-15.40147672 0.19563595 -10.59049199 0.12359484 -5.77880859 0.08843994 C-3.85239103 0.07115543 -1.92607022 0.0404583 0 0 Z " fill="#000000" transform="translate(359.040771484375,362.9361267089844)"/>
<path d="M0 0 C18.93820847 8.21846783 30.81311839 24.91039798 38.875 43.25 C41.57472271 50.17143674 42.94055209 56.46588576 43.1953125 63.89453125 C43.24316895 65.22677734 43.24316895 65.22677734 43.29199219 66.5859375 C43.34648315 68.37580528 43.38162173 70.16638803 43.39550781 71.95703125 C43.49603598 75.84612082 43.75357103 78.49608851 45.48046875 82.02734375 C49.12192123 84.87840345 52.41637441 84.97401161 56.9375 85.25 C58.53008363 85.37853782 60.12253694 85.50870231 61.71484375 85.640625 C62.46169434 85.69718262 63.20854492 85.75374023 63.97802734 85.81201172 C66.36394171 86.03383665 68.66189467 86.48230699 71 87 C74.5 87.5 74.5 87.5 78 87 C80.93973281 84.64581624 80.93973281 84.64581624 83 82 C85.48046875 82.86328125 85.48046875 82.86328125 88 85 C88.66114775 88.4011944 88.46806282 91.73879188 88.3125 95.1875 C88.28994141 96.12787109 88.26738281 97.06824219 88.24414062 98.03710938 C88.18519227 100.35967473 88.10297785 102.67903776 88 105 C87.35675781 104.57589844 86.71351563 104.15179688 86.05078125 103.71484375 C76.05874399 97.22928462 66.48980969 91.40571823 55 88.125 C53.95187134 87.82021729 53.95187134 87.82021729 52.88256836 87.50927734 C46.33980097 85.7790206 39.7381642 85.3840337 33 85 C32.98598145 83.86123413 32.98598145 83.86123413 32.97167969 82.69946289 C32.50741238 52.61994793 28.26410091 28.02209981 6 6 C4.05435011 4.52481463 2.08119704 3.28073664 0 2 C0 1.34 0 0.68 0 0 Z " fill="#2CCBF6" transform="translate(298,125)"/>
<path d="M0 0 C2.74936913 2.53231367 3.89194074 4.0324986 4.30932617 7.76953125 C3.93031856 11.72772279 2.66431893 14.06340541 0.67578125 17.5 C0.3325029 18.09876953 -0.01077545 18.69753906 -0.36445618 19.31445312 C-1.09063418 20.57514587 -1.82304029 21.83226934 -2.5612793 23.0859375 C-3.6797169 24.98677227 -4.77780431 26.89822575 -5.87304688 28.8125 C-14.82735691 44.28555581 -14.82735691 44.28555581 -19.31640625 45.76171875 C-23.37816543 45.6275041 -25.34586917 45.54244996 -28.5625 42.875 C-30.24745312 39.50509375 -30.31464619 37.73391605 -30 34 C-28.81005859 31.15087891 -28.81005859 31.15087891 -27.1484375 28.2265625 C-26.54386719 27.1540625 -25.93929688 26.0815625 -25.31640625 24.9765625 C-24.67574219 23.87054688 -24.03507812 22.76453125 -23.375 21.625 C-22.75753906 20.52671875 -22.14007812 19.4284375 -21.50390625 18.296875 C-9.40847859 -2.94014956 -9.40847859 -2.94014956 0 0 Z " fill="#000000" transform="translate(45,464)"/>
<path d="M0 0 C1.88556324 2.97720511 2.57380605 5.41112239 2.1875 8.875 C0.90968615 12.09276761 -0.85627259 14.97380552 -2.65234375 17.92675781 C-4.07189305 20.31059692 -5.42609467 22.72742008 -6.78125 25.1484375 C-7.85386834 27.05745932 -8.92678802 28.96631185 -10 30.875 C-10.52295654 31.80779785 -11.04591309 32.7405957 -11.5847168 33.70166016 C-12.08656494 34.5838623 -12.58841309 35.46606445 -13.10546875 36.375 C-13.5543042 37.1690625 -14.00313965 37.963125 -14.46557617 38.78125 C-16.26562835 41.57937352 -17.61019828 43.60929796 -20.93359375 44.34375 C-27.14617496 44.42756223 -27.14617496 44.42756223 -30.375 41.75 C-32.06750845 38.36498309 -32.14672884 36.62794504 -31.8125 32.875 C-30.49902344 29.81054688 -30.49902344 29.81054688 -28.671875 26.59375 C-28.34842102 26.01717651 -28.02496704 25.44060303 -27.69171143 24.84655762 C-26.66043726 23.01572844 -25.61162769 21.1956445 -24.5625 19.375 C-23.87257908 18.15297474 -23.18376627 16.93032317 -22.49609375 15.70703125 C-13.92290002 0.54708422 -13.92290002 0.54708422 -10.4375 -1.5625 C-6.54740067 -2.39609271 -3.41792892 -2.12147312 0 0 Z " fill="#000000" transform="translate(392.8125,465.125)"/>
<path d="M0 0 C2.375 1.625 2.375 1.625 4 4 C4.44440297 9.21223411 3.72752602 12.35674149 1.1484375 16.87109375 C0.54386719 17.94037109 -0.06070312 19.00964844 -0.68359375 20.11132812 C-1.64458984 21.7577832 -1.64458984 21.7577832 -2.625 23.4375 C-3.24246094 24.53126953 -3.85992187 25.62503906 -4.49609375 26.75195312 C-12.17110584 40.17110584 -12.17110584 40.17110584 -17 45 C-23.95389774 45.45599329 -23.95389774 45.45599329 -27.4375 43.9375 C-29.20477613 41.7460776 -30.05423433 39.92951665 -30.26953125 37.1015625 C-29.72939882 32.89009512 -27.33261548 29.52002075 -25.16015625 25.94824219 C-23.74060695 23.56440308 -22.38640533 21.14757992 -21.03125 18.7265625 C-19.95863166 16.81754068 -18.88571198 14.90868815 -17.8125 13 C-17.02806519 11.60080322 -17.02806519 11.60080322 -16.2277832 10.17333984 C-15.72593506 9.2911377 -15.22408691 8.40893555 -14.70703125 7.5 C-14.03377808 6.30890625 -14.03377808 6.30890625 -13.34692383 5.09375 C-9.79808208 -0.42281096 -6.45186471 -1.71171921 0 0 Z " fill="#000000" transform="translate(334,464)"/>
<path d="M0 0 C2.82971502 2.28202824 2.97800741 3.83170885 3.44921875 7.4375 C3.35827989 13.55817128 -0.06333428 18.3291773 -3.125 23.4375 C-3.69476563 24.42298828 -4.26453125 25.40847656 -4.8515625 26.42382812 C-14.73156133 43.36578067 -14.73156133 43.36578067 -18 45 C-25.0521327 45.56872038 -25.0521327 45.56872038 -28.5 43.5 C-30.65411632 39.90980613 -30.80445008 37.01445537 -30 33 C-27.93535045 28.41737567 -25.36008097 24.16187481 -22.75 19.875 C-22.05963691 18.71055948 -21.37082145 17.54519996 -20.68359375 16.37890625 C-9.51570541 -2.42217956 -9.51570541 -2.42217956 0 0 Z " fill="#000000" transform="translate(278,464)"/>
<path d="M0 0 C2.375 1.625 2.375 1.625 4 4 C4.44440297 9.21223411 3.72752602 12.35674149 1.1484375 16.87109375 C0.54386719 17.94037109 -0.06070313 19.00964844 -0.68359375 20.11132812 C-1.64458984 21.7577832 -1.64458984 21.7577832 -2.625 23.4375 C-3.24246094 24.53126953 -3.85992187 25.62503906 -4.49609375 26.75195312 C-12.17110584 40.17110584 -12.17110584 40.17110584 -17 45 C-23.95389774 45.45599329 -23.95389774 45.45599329 -27.4375 43.9375 C-29.20477613 41.7460776 -30.05423433 39.92951665 -30.26953125 37.1015625 C-29.72939882 32.89009512 -27.33261548 29.52002075 -25.16015625 25.94824219 C-23.74060695 23.56440308 -22.38640533 21.14757992 -21.03125 18.7265625 C-19.95863166 16.81754068 -18.88571198 14.90868815 -17.8125 13 C-17.02806519 11.60080322 -17.02806519 11.60080322 -16.2277832 10.17333984 C-15.72593506 9.2911377 -15.22408691 8.40893555 -14.70703125 7.5 C-14.03377808 6.30890625 -14.03377808 6.30890625 -13.34692383 5.09375 C-9.79808208 -0.42281096 -6.45186471 -1.71171921 0 0 Z " fill="#000000" transform="translate(158,464)"/>
<path d="M0 0 C2.82971502 2.28202824 2.97800741 3.83170885 3.44921875 7.4375 C3.35827989 13.55817128 -0.06333428 18.3291773 -3.125 23.4375 C-3.69476563 24.42298828 -4.26453125 25.40847656 -4.8515625 26.42382812 C-14.73156133 43.36578067 -14.73156133 43.36578067 -18 45 C-25.0521327 45.56872038 -25.0521327 45.56872038 -28.5 43.5 C-30.65411632 39.90980613 -30.80445008 37.01445537 -30 33 C-27.93535045 28.41737567 -25.36008097 24.16187481 -22.75 19.875 C-22.05963691 18.71055948 -21.37082145 17.54519996 -20.68359375 16.37890625 C-9.51570541 -2.42217956 -9.51570541 -2.42217956 0 0 Z " fill="#000000" transform="translate(102,464)"/>
<path d="M0 0 C2.84209315 2.55059642 3.90173295 4.00352551 4.27807617 7.81982422 C3.95694952 11.4923402 2.96772146 13.52404466 1.11328125 16.6953125 C0.1996582 18.26345703 0.1996582 18.26345703 -0.73242188 19.86328125 C-1.37759766 20.93964844 -2.02277344 22.01601563 -2.6875 23.125 C-3.31333984 24.20910156 -3.93917969 25.29320312 -4.58398438 26.41015625 C-10.09075386 35.73994999 -10.09075386 35.73994999 -15 39 C-18.92016134 39 -21.17160572 38.55226285 -24.4375 36.375 C-26.55946635 33.14961116 -26.74310182 30.69710536 -26 27 C-24.22161862 22.92315516 -22.00817606 19.13979412 -19.75 15.3125 C-19.16347656 14.28060547 -18.57695312 13.24871094 -17.97265625 12.18554688 C-9.59702803 -2.31652401 -9.59702803 -2.31652401 0 0 Z " fill="#000000" transform="translate(387,408)"/>
<path d="M0 0 C2.73209073 1.63925444 2.97597323 2.91881703 3.88671875 5.99609375 C4.57827759 11.37303314 1.5740364 15.46042609 -1.0625 19.9375 C-1.54138672 20.79279297 -2.02027344 21.64808594 -2.51367188 22.52929688 C-10.93694827 37.31231609 -10.93694827 37.31231609 -16.5625 39.1875 C-20.33208339 38.98188636 -22.06593843 38.32999007 -25 36 C-26.69140502 32.61718996 -26.7006954 29.62870167 -26 26 C-23.94756892 21.47958758 -21.37751756 17.33097081 -18.75 13.125 C-18.05980939 11.97479039 -17.37099481 10.8237539 -16.68359375 9.671875 C-9.40781751 -2.22366596 -9.40781751 -2.22366596 0 0 Z " fill="#000000" transform="translate(98,408)"/>
<path d="M0 0 C2.375 1.5625 2.375 1.5625 4 4 C5.24900262 12.13260353 1.43260575 17.51700091 -2.6875 24.3125 C-3.62625977 25.93768555 -3.62625977 25.93768555 -4.58398438 27.59570312 C-9.9647247 36.66126457 -9.9647247 36.66126457 -15 39 C-18.42199954 38.88200002 -20.91693888 38.64983667 -23.875 36.875 C-25.61262825 33.97895292 -26.20470004 31.33060814 -26 28 C-24.69258675 24.46387203 -22.84699286 21.30498914 -20.9375 18.0625 C-20.45861328 17.20720703 -19.97972656 16.35191406 -19.48632812 15.47070312 C-9.26988622 -2.45935757 -9.26988622 -2.45935757 0 0 Z " fill="#000000" transform="translate(154,408)"/>
<path d="M0 0 C2.375 1.5625 2.375 1.5625 4 4 C5.38460335 12.35637372 1.05701749 17.98058754 -3.25 24.875 C-3.94019061 26.02520961 -4.62900519 27.1762461 -5.31640625 28.328125 C-11.05450916 37.70964472 -11.05450916 37.70964472 -15 39 C-18.3568842 38.82332188 -20.96417908 38.62149255 -23.875 36.875 C-25.61262825 33.97895292 -26.20470004 31.33060814 -26 28 C-24.69258675 24.46387203 -22.84699286 21.30498914 -20.9375 18.0625 C-20.45861328 17.20720703 -19.97972656 16.35191406 -19.48632812 15.47070312 C-9.26988622 -2.45935757 -9.26988622 -2.45935757 0 0 Z " fill="#000000" transform="translate(330,408)"/>
<path d="M0 0 C2.7858424 2.56590747 3.9082195 4.03862408 4.27050781 7.83349609 C3.96572255 11.40124413 3.06842158 13.38267901 1.296875 16.4765625 C0.72839844 17.476875 0.15992187 18.4771875 -0.42578125 19.5078125 C-1.02777344 20.53648437 -1.62976563 21.56515625 -2.25 22.625 C-2.83652344 23.66140625 -3.42304687 24.6978125 -4.02734375 25.765625 C-10.67194222 37.32274683 -10.67194222 37.32274683 -16.4375 39 C-20 39 -20 39 -22.875 37.1875 C-25.3500342 34.63967068 -25.93250054 33.75515436 -26.24731445 30.2331543 C-25.96020332 26.47973595 -24.95792944 24.49230977 -23.04296875 21.26953125 C-22.11581055 19.69461914 -22.11581055 19.69461914 -21.16992188 18.08789062 C-20.51572266 17.00701172 -19.86152344 15.92613281 -19.1875 14.8125 C-18.54490234 13.72001953 -17.90230469 12.62753906 -17.24023438 11.50195312 C-8.89102471 -2.54029277 -8.89102471 -2.54029277 0 0 Z " fill="#000000" transform="translate(41,408)"/>
<path d="M0 0 C3.44652326 2.44128731 4.78056289 3.82966874 5.5625 8 C4.72463485 12.46861416 2.64941243 14.85710612 -1.09008789 17.44824219 C-3.62896258 18.9964174 -6.20504998 20.44553501 -8.8125 21.875 C-9.68970703 22.38546875 -10.56691406 22.8959375 -11.47070312 23.421875 C-15.61720095 25.71687006 -18.16683296 27.00981158 -22.98046875 26.953125 C-26.85538011 25.72999645 -28.12170876 24.60005822 -30 21 C-30 17.30804246 -29.82778461 15.00964638 -27.453125 12.11328125 C-24.11439979 9.23708645 -20.5251812 7.00854319 -16.75 4.75 C-16.02425781 4.29109375 -15.29851562 3.8321875 -14.55078125 3.359375 C-9.42764987 0.29097546 -5.97352366 -0.70502962 0 0 Z " fill="#000000" transform="translate(250,63)"/>
<path d="M0 0 C3.27941937 1.26781677 6.23084077 2.95863219 9.25 4.75 C10.03890625 5.1934375 10.8278125 5.636875 11.640625 6.09375 C19.29686192 10.49091309 19.29686192 10.49091309 22 14 C22.9063734 17.6540408 22.42866158 21.01659991 20.9375 24.4375 C18.7780103 26.17902395 16.9917516 27.0428346 14.20703125 27.2890625 C5.42906351 26.13938177 -3.97645759 19.11282261 -11 14 C-12.60420518 10.79158965 -12.47462745 7.4806013 -12 4 C-9.14556747 -0.75738755 -5.10400296 -0.78050904 0 0 Z " fill="#000000" transform="translate(42,63)"/>
<path d="M0 0 C3.53836039 0.72970078 5.00266818 2.53166754 7.0078125 5.4140625 C7.45382439 9.93046294 6.74308811 12.62757598 4.48828125 16.5234375 C3.69647461 17.90208984 3.69647461 17.90208984 2.88867188 19.30859375 C2.32986328 20.25089844 1.77105469 21.19320312 1.1953125 22.1640625 C0.64810547 23.12183594 0.10089844 24.07960938 -0.46289062 25.06640625 C-4.5766039 32.13700677 -4.5766039 32.13700677 -7.9921875 34.4140625 C-11.99768937 34.85911826 -14.32010381 34.75725417 -17.9296875 32.9140625 C-20.28174888 30.06307901 -20.49337057 28.36510426 -20.39526367 24.72314453 C-19.6013512 20.1750984 -17.0790589 16.47747015 -14.6796875 12.6015625 C-14.18017578 11.75658203 -13.68066406 10.91160156 -13.16601562 10.04101562 C-6.97481989 -0.28311077 -6.97481989 -0.28311077 0 0 Z " fill="#000000" transform="translate(203.9921875,18.5859375)"/>
<path d="M0 0 C6.31785252 1.89417925 9.44153778 9.17891347 12.41015625 14.56640625 C12.86455078 15.35208984 13.31894531 16.13777344 13.78710938 16.94726562 C16.1927139 21.27011887 17.91865783 24.54325759 17.09765625 29.62890625 C14.48975797 33.2641584 13.02742045 34.46287693 8.59765625 35.25390625 C3.67891484 34.37555957 1.62287526 31.76878239 -1.23876953 27.75390625 C-2.62059392 25.63809785 -3.92485956 23.48931295 -5.21484375 21.31640625 C-5.66923828 20.59517578 -6.12363281 19.87394531 -6.59179688 19.13085938 C-9.6385859 14.02233341 -10.5386446 10.57414146 -9.90234375 4.62890625 C-7.4168839 0.48647317 -4.70555012 0.1590345 0 0 Z " fill="#000000" transform="translate(83.90234375,18.37109375)"/>
<path d="M0 0 C2.5 1.5 2.5 1.5 4 4 C4.77403846 9.41826923 4.77403846 9.41826923 4 12 C0.34654772 16.39392253 -3.95365467 19.01796344 -8.875 21.75 C-9.55691406 22.14832031 -10.23882812 22.54664063 -10.94140625 22.95703125 C-15.27771457 25.39362354 -18.93367728 26.75666677 -24 27 C-26.94755732 25.65437601 -28.54277272 24.91445456 -30 22 C-30.65547703 16.28798587 -30.65547703 16.28798587 -30 14 C-25.8444593 9.96611611 -21.13375098 7.05441366 -16.125 4.1875 C-15.45597656 3.78080078 -14.78695312 3.37410156 -14.09765625 2.95507812 C-9.14890578 0.11836663 -5.69858348 -0.55521531 0 0 Z " fill="#000000" transform="translate(60,173)"/>
<path d="M0 0 C1.14662109 0.00193359 1.14662109 0.00193359 2.31640625 0.00390625 C4.93857711 0.53993013 5.81402324 1.34030357 7.4375 3.4375 C9.09960548 8.42381645 8.70590198 13.59129429 8.75 18.8125 C8.77900391 19.94945313 8.80800781 21.08640625 8.83789062 22.2578125 C8.90159326 30.60775751 8.90159326 30.60775751 6.6328125 34.6640625 C3.55303957 37.15199294 1.36639513 37.4375 -2.5625 37.4375 C-5.51005732 36.09187601 -7.10527272 35.35195456 -8.5625 32.4375 C-8.86157141 27.81818733 -8.84060074 23.19034765 -8.875 18.5625 C-8.90400391 17.26957031 -8.93300781 15.97664063 -8.96289062 14.64453125 C-8.97126953 13.40316406 -8.97964844 12.16179688 -8.98828125 10.8828125 C-9.00286377 9.74344238 -9.01744629 8.60407227 -9.0324707 7.43017578 C-8.20789818 2.17946932 -5.21369689 -0.13232733 0 0 Z " fill="#000000" transform="translate(142.5625,2.5625)"/>
<path d="M0 0 C1.27552734 -0.02384766 2.55105469 -0.04769531 3.86523438 -0.07226562 C14.27926744 -0.05588277 14.27926744 -0.05588277 17.40625 2.91015625 C19.45471356 6.19059671 19.77502909 7.76234485 19.0625 11.5625 C16.91159549 14.90011045 15.85837201 16.29720933 12.0625 17.5625 C8.10850107 17.82103371 4.14905198 17.79387931 0.1875 17.8125 C-1.44638672 17.8434375 -1.44638672 17.8434375 -3.11328125 17.875 C-4.16644531 17.88015625 -5.21960938 17.8853125 -6.3046875 17.890625 C-7.26487793 17.8999707 -8.22506836 17.90931641 -9.21435547 17.91894531 C-12.44381927 17.49622547 -14.31656308 16.46495167 -16.9375 14.5625 C-18.50221233 11.43307535 -18.63451958 7.95167777 -17.9375 4.5625 C-13.26716614 -1.43592071 -7.00975157 -0.06003314 0 0 Z " fill="#000000" transform="translate(31.9375,122.4375)"/>
<path d="M0 0 C0.99 0.66 1.98 1.32 3 2 C2.63350342 2.44166504 2.26700684 2.88333008 1.8894043 3.33837891 C-4.7990778 11.40712333 -11.4482238 19.4961498 -17.88842773 27.76489258 C-21.32285885 32.16523791 -24.83843279 36.49399936 -28.375 40.8125 C-33.40726813 46.9640422 -38.25689911 53.2338932 -43.05200195 59.57128906 C-47.4847339 65.39826713 -52.12194686 71.03449398 -56.80883789 76.65771484 C-62.81291261 83.90182584 -68.42970789 91.41991386 -74 99 C-75.41687119 94.74938644 -74.19320039 92.28148375 -73 88 C-72.67 88.66 -72.34 89.32 -72 90 C-71.34 90 -70.68 90 -70 90 C-69.72470459 89.41009277 -69.44940918 88.82018555 -69.16577148 88.21240234 C-68.05173756 86.0981876 -66.86807816 84.43683658 -65.34765625 82.6015625 C-64.82429687 81.96476562 -64.3009375 81.32796875 -63.76171875 80.671875 C-63.20097656 79.99640625 -62.64023438 79.3209375 -62.0625 78.625 C-60.87535508 77.18046525 -59.68917258 75.73513907 -58.50390625 74.2890625 C-57.91109863 73.5662207 -57.31829102 72.84337891 -56.70751953 72.09863281 C-54.26500456 69.0966513 -51.87877773 66.05256619 -49.5 63 C-45.01861146 57.25942578 -40.4404224 51.6030528 -35.8359375 45.9609375 C-31.89010034 41.11746914 -28.0141044 36.22449151 -24.17285156 31.29785156 C-20.59830708 26.72648422 -16.93007717 22.23659015 -13.25 17.75 C-8.5467184 12.00713265 -4.0966367 6.19709406 0 0 Z " fill="#F1CB32" transform="translate(280,374)"/>
<path d="M0 0 C8.57003582 4.28501791 13.28130931 10.22770402 17 19 C18.79505494 24.38516481 18 30.32353788 18 36 C-4.11 36 -26.22 36 -49 36 C-49 35.67 -49 35.34 -49 35 C-29.2 35 -9.4 35 11 35 C10.07332948 22.02661279 9.35020224 13.29566158 1.171875 3.55859375 C0 2 0 2 0 0 Z " fill="#AACAE8" transform="translate(451,36)"/>
<path d="M0 0 C8.58583534 5.06344135 14.49722493 11.63508256 19 20.4375 C21.39156965 25.14666103 21.39156965 25.14666103 25.5 28.33984375 C27.73831382 28.8189828 29.71646758 29.07400337 32 29 C32.495 30.98 32.495 30.98 33 33 C31.02297434 34.50289733 29.0435417 36.00241342 27.0625 37.5 C26.49853516 37.92925781 25.93457031 38.35851562 25.35351562 38.80078125 C21.11328125 42 21.11328125 42 20 42 C19.8040625 41.01902344 19.608125 40.03804687 19.40625 39.02734375 C16.47172789 25.39815665 11.4004147 13.66388022 1.46875 3.63671875 C0 2 0 2 0 0 Z " fill="#F7DB56" transform="translate(176,81)"/>
<path d="M0 0 C1.11440664 3.34321992 0.88325641 4.27879407 -0.00390625 7.5859375 C-0.36850952 8.96591919 -0.36850952 8.96591919 -0.74047852 10.3737793 C-1.01174561 11.36418213 -1.2830127 12.35458496 -1.5625 13.375 C-1.83698975 14.40214111 -2.11147949 15.42928223 -2.39428711 16.48754883 C-4.44274103 24.10101795 -6.60687691 31.68009933 -8.80761719 39.25073242 C-10.86624791 46.38455414 -12.69513134 53.56536035 -14.43969727 60.78198242 C-15.90423116 66.80846232 -15.90423116 66.80846232 -17 69 C-17.22467831 70.53668865 -17.40796805 72.07968054 -17.5625 73.625 C-17.64628906 74.44226563 -17.73007813 75.25953125 -17.81640625 76.1015625 C-17.87699219 76.72804688 -17.93757812 77.35453125 -18 78 C-19.50268555 76.72607422 -19.50268555 76.72607422 -21 75 C-20.89463607 66.13027242 -17.94023051 57.40749783 -15.6875 48.875 C-15.29175368 47.35691776 -14.89656782 45.83868929 -14.50195312 44.3203125 C-12.97198154 38.44662119 -11.42619398 32.57731326 -9.85009766 26.71582031 C-9.66792191 26.03738068 -9.48574615 25.35894104 -9.29804993 24.65994263 C-8.80303921 22.81986959 -8.3055404 20.98046641 -7.80786133 19.14111328 C-7.112178 16.43616867 -6.51342108 13.74446904 -6 11 C-6.99 11.495 -6.99 11.495 -8 12 C-6.59023295 8.96147295 -4.91129772 6.4060405 -2.875 3.75 C-2.33617187 3.04359375 -1.79734375 2.3371875 -1.2421875 1.609375 C-0.83226562 1.07828125 -0.42234375 0.5471875 0 0 Z " fill="#EDC831" transform="translate(255,276)"/>
<path d="M0 0 C3.96 0 7.92 0 12 0 C12 7.92 12 15.84 12 24 C9.69 24 7.38 24 5 24 C5 16.41 5 8.82 5 1 C3.35 1 1.7 1 0 1 C0 0.67 0 0.34 0 0 Z " fill="#F86981" transform="translate(457,121)"/>
<path d="M0 0 C3.63 0 7.26 0 11 0 C11 7.92 11 15.84 11 24 C8.69 24 6.38 24 4 24 C4 16.41 4 8.82 4 1 C2.68 0.67 1.36 0.34 0 0 Z " fill="#FA6982" transform="translate(458,161)"/>
<path d="M0 0 C2.31 0 4.62 0 7 0 C7 5.61 7 11.22 7 17 C4.69 17 2.38 17 0 17 C0 11.39 0 5.78 0 0 Z " fill="#FF6B84" transform="translate(462,88)"/>
<path d="M0 0 C0.66 0 1.32 0 2 0 C1.40277537 3.22953541 0.38919424 5.06329263 -1.73828125 7.546875 C-2.30595215 8.21984619 -2.87362305 8.89281738 -3.45849609 9.58618164 C-4.07031738 10.3002417 -4.68213867 11.01430176 -5.3125 11.75 C-12.20268994 19.93667349 -18.6651374 28.37948184 -25 37 C-26.41687119 32.74938644 -25.19320039 30.28148375 -24 26 C-23.67 26.66 -23.34 27.32 -23 28 C-22.34 28 -21.68 28 -21 28 C-20.72833008 27.41444336 -20.45666016 26.82888672 -20.17675781 26.22558594 C-19.01611618 24.0304803 -17.75330947 22.29882761 -16.171875 20.390625 C-15.34236328 19.38128906 -15.34236328 19.38128906 -14.49609375 18.3515625 C-13.91988281 17.65804688 -13.34367188 16.96453125 -12.75 16.25 C-11.61824446 14.8814864 -10.48803178 13.51169537 -9.359375 12.140625 C-8.80314453 11.46580078 -8.24691406 10.79097656 -7.67382812 10.09570312 C-5.43440089 7.29184616 -3.34308744 4.3886982 -1.27050781 1.45996094 C-0.85124023 0.97817383 -0.43197266 0.49638672 0 0 Z " fill="#ECC731" transform="translate(231,436)"/>
<path d="M0 0 C5.33645599 0.51797019 9.22033005 1.78333535 14.0625 4.25 C15.81240234 5.12398437 15.81240234 5.12398437 17.59765625 6.015625 C20.14083175 7.49890072 22.04243159 8.79417856 24.22265625 10.68359375 C27.27471796 13.22912483 29.09285479 13.7209182 33 14 C32.01 14.33 31.02 14.66 30 15 C30 17.31 30 19.62 30 22 C29.34 21.319375 28.68 20.63875 28 19.9375 C27.00483327 18.95342148 26.00426093 17.97479606 25 17 C24.44183594 16.45730469 23.88367188 15.91460937 23.30859375 15.35546875 C16.53616812 9.09203544 8.64555119 4.24010602 0 1 C0 0.67 0 0.34 0 0 Z " fill="#2EC7F2" transform="translate(140,183)"/>
<path d="M0 0 C0.66 0 1.32 0 2 0 C1.38801624 3.43950364 0.07941153 5.51564485 -2.0625 8.25 C-2.61035156 8.95640625 -3.15820312 9.6628125 -3.72265625 10.390625 C-4.14417969 10.92171875 -4.56570312 11.4528125 -5 12 C-6.41687119 7.74938644 -5.19320039 5.28148375 -4 1 C-3.67 1.66 -3.34 2.32 -3 3 C-2.34 3 -1.68 3 -1 3 C-0.67 2.01 -0.34 1.02 0 0 Z " fill="#D9B831" transform="translate(211,461)"/>
</svg>
