<?xml version="1.0" encoding="UTF-8"?>
<svg version="1.1" xmlns="http://www.w3.org/2000/svg" width="512" height="512">
<path d="M0 0 C3.13093204 2.34656493 5.90096698 4.88025762 8.5 7.8125 C9.00917969 8.35648438 9.51835937 8.90046875 10.04296875 9.4609375 C19.79375629 20.75132307 25.59064077 36.62158835 29.5 50.8125 C29.85723145 52.10607422 29.85723145 52.10607422 30.22167969 53.42578125 C37.43329287 80.15170894 40.05753327 107.26783558 41.5 134.8125 C45.15299524 132.31859792 45.15299524 132.31859792 47.34301758 128.61425781 C47.44251709 127.83920898 47.5420166 127.06416016 47.64453125 126.265625 C47.82338867 124.99912109 47.82338867 124.99912109 48.00585938 123.70703125 C48.10705078 122.83433594 48.20824219 121.96164063 48.3125 121.0625 C48.43302734 120.17433594 48.55355469 119.28617187 48.67773438 118.37109375 C48.97133899 116.18667538 49.24464009 114.00166266 49.5 111.8125 C50.91340751 111.93961385 52.32603105 112.07545912 53.73828125 112.21484375 C54.52501221 112.28952881 55.31174316 112.36421387 56.12231445 112.44116211 C58.49972958 112.81245777 60.46990652 113.45754054 62.6875 114.375 C66.08241357 115.75736002 68.79431976 116.25365241 72.5 115.8125 C73.16 115.1525 73.82 114.4925 74.5 113.8125 C73.99339844 112.86890625 73.99339844 112.86890625 73.4765625 111.90625 C66.37354535 98.27502633 66.07979941 86.62614521 70.5 71.8125 C71.36891946 69.6519435 72.3001965 67.8121725 73.5 65.8125 C78.7936455 67.243215 83.27250666 69.79169118 88.01171875 72.47265625 C90.51720663 73.91342508 90.51720663 73.91342508 93.5 74.8125 C93.09007812 74.24402344 92.68015625 73.67554687 92.2578125 73.08984375 C91.71898437 72.31769531 91.18015625 71.54554687 90.625 70.75 C90.09132813 69.99589844 89.55765625 69.24179688 89.0078125 68.46484375 C84.15840414 59.9344078 84.33175246 49.03812881 86.10546875 39.5859375 C86.77613059 37.22330139 87.41174064 35.01397881 88.5 32.8125 C90.5 31.8125 90.5 31.8125 92.96875 32.5625 C99.44488398 35.23307071 105.02264266 38.25766652 110.63671875 42.45703125 C112.25075194 43.91054542 112.25075194 43.91054542 113.5 43.8125 C113.08427734 42.99845703 113.08427734 42.99845703 112.66015625 42.16796875 C112.29792969 41.45253906 111.93570312 40.73710938 111.5625 40 C111.20285156 39.29230469 110.84320313 38.58460937 110.47265625 37.85546875 C107.03545816 30.63597236 107.16414841 20.45736025 109.6171875 12.8671875 C110.81403814 9.79053754 112.07304896 6.78871217 113.5 3.8125 C122.60224465 5.08972438 130.90079161 12.82280084 136.5 19.8125 C138.40593319 23.05397762 140.0262161 26.35477623 141.5 29.8125 C141.71914063 29.12285156 141.93828125 28.43320312 142.1640625 27.72265625 C146.00217239 16.34874523 150.79759805 8.70466938 161.5 2.8125 C173.22008675 -2.5705631 173.22008675 -2.5705631 179.5 -2.1875 C182.38555212 5.74776832 183.08135921 15.06056369 179.61328125 22.93359375 C176.27811895 28.56241153 172.1967395 32.63133103 166.5 35.8125 C167.43199219 35.89886719 168.36398437 35.98523437 169.32421875 36.07421875 C178.47559621 37.08281344 186.02241157 39.0669213 194.5 42.8125 C193.60160147 50.45443321 189.85690199 55.84825047 184.12890625 60.90625 C178.91765602 64.74355126 173.76813996 67.22275436 167.5 68.8125 C168.33144531 69.07804687 169.16289062 69.34359375 170.01953125 69.6171875 C171.10621094 69.97039062 172.19289063 70.32359375 173.3125 70.6875 C174.39144531 71.03554687 175.47039062 71.38359375 176.58203125 71.7421875 C179.5 72.8125 179.5 72.8125 182.5 74.8125 C180.28107344 83.68820622 173.82153245 90.60167961 166.5 95.8125 C163.56954393 97.35748384 160.60299899 98.65605825 157.5 99.8125 C158.32242187 99.92207031 159.14484375 100.03164062 159.9921875 100.14453125 C167.06336276 101.14886677 173.73317602 102.52125035 180.5 104.8125 C179.93369188 109.70063328 178.46086198 113.42922582 176.25 117.8125 C175.37601562 119.5759375 175.37601562 119.5759375 174.484375 121.375 C171.30340548 126.8853409 167.76591667 130.97178954 162.4375 134.5625 C161.60089844 135.13484375 160.76429688 135.7071875 159.90234375 136.296875 C154.32989691 139.8125 154.32989691 139.8125 150.5 139.8125 C150.5 140.4725 150.5 141.1325 150.5 141.8125 C151.09683594 141.76609375 151.69367188 141.7196875 152.30859375 141.671875 C161.44942966 141.29157276 169.7341458 143.51056408 178.5 145.8125 C174.03969446 163.49722021 166.09906827 174.17245304 150.69140625 183.515625 C149.96824219 183.94359375 149.24507813 184.3715625 148.5 184.8125 C149.38300781 184.92207031 150.26601563 185.03164062 151.17578125 185.14453125 C158.82736478 186.15542789 166.11868591 187.55291406 173.5 189.8125 C173.5 191.4625 173.5 193.1125 173.5 194.8125 C174.90523926 195.11595337 174.90523926 195.11595337 176.33886719 195.42553711 C204.67576148 201.82916073 204.67576148 201.82916073 210.8359375 211.0546875 C213.4837813 216.20940096 215.32059242 221.63567987 217.13916016 227.12841797 C218.66603236 231.2619848 220.51932792 235.09611011 222.54296875 239.00390625 C223.07325684 240.02817467 223.07325684 240.02817467 223.61425781 241.07313538 C224.67653486 243.11326861 225.74444052 245.15038949 226.8125 247.1875 C228.13727407 249.7290431 229.44395496 252.27877456 230.73828125 254.8359375 C231.29555908 255.91794434 231.85283691 256.99995117 232.42700195 258.11474609 C233.5 260.8125 233.5 260.8125 232.5 263.8125 C230.12329102 265.1628418 230.12329102 265.1628418 227.00390625 266.51171875 C225.88822266 266.99833984 224.77253906 267.48496094 223.62304688 267.98632812 C222.44806641 268.48583984 221.27308594 268.98535156 220.0625 269.5 C218.89138672 270.01111328 217.72027344 270.52222656 216.51367188 271.04882812 C207.80546979 274.8125 207.80546979 274.8125 205.5 274.8125 C205.5 318.7025 205.5 362.5925 205.5 407.8125 C185.34021685 417.3323976 165.18596828 426.84114329 144.95703125 436.20898438 C138.84151613 439.04561596 132.73325583 441.89777835 126.625 444.75 C126.00216125 445.04079437 125.37932251 445.33158875 124.73760986 445.63119507 C121.58574 447.10276412 118.43395526 448.57451535 115.28222656 450.04638672 C109.64516197 452.6787981 104.00725647 455.30940743 98.36941528 457.94015503 C96.50593205 458.80973187 94.64248607 459.67938849 92.77905273 460.54907227 C87.03359886 463.23050371 81.28800401 465.91163125 75.54171753 468.59127808 C74.21347794 469.21073114 72.88529155 469.83029827 71.55715942 470.44998169 C68.33526824 471.95321864 65.1127527 473.45507772 61.88867188 474.95361328 C56.58951642 477.41888816 51.29833008 479.89496638 46.05078125 482.46875 C45.26485596 482.85111816 44.47893066 483.23348633 43.66918945 483.62744141 C42.28904132 484.30190434 40.91329278 484.98550304 39.54370117 485.68115234 C35.62983891 487.58720913 32.82337144 488.12601668 28.5 487.8125 C25.78466797 486.82543945 25.78466797 486.82543945 22.9921875 485.42578125 C21.93797607 484.90636963 20.88376465 484.38695801 19.79760742 483.85180664 C18.66814697 483.28196045 17.53868652 482.71211426 16.375 482.125 C14.55712976 481.22552729 12.73698147 480.33078584 10.91661072 479.43638611 C9.65937436 478.8185443 8.40275873 478.19943788 7.14674377 477.57911682 C0.7095053 474.40474342 -5.79507285 471.3809063 -12.3125 468.375 C-14.655001 467.29178146 -16.99744836 466.20844691 -19.33984375 465.125 C-20.51401855 464.58230469 -21.68819336 464.03960937 -22.89794922 463.48046875 C-29.06329295 460.62553935 -35.21906737 457.75015129 -41.375 454.875 C-42.63256099 454.28782601 -43.89012936 453.70066783 -45.14770508 453.11352539 C-47.67111499 451.93533651 -50.19446279 450.75701474 -52.71777344 449.57861328 C-56.48083466 447.82132897 -60.24426497 446.06483625 -64.0078125 444.30859375 C-64.62625031 444.01999985 -65.24468811 443.73140594 -65.88186646 443.43406677 C-69.00144826 441.97834493 -72.12107253 440.5227141 -75.24072266 439.06713867 C-80.90259779 436.42529653 -86.56421806 433.78291573 -92.2244873 431.13763428 C-94.78639596 429.94040672 -97.34851469 428.74362912 -99.91064453 427.546875 C-101.63203562 426.74261476 -103.35313786 425.93773635 -105.07421875 425.1328125 C-117.52955771 419.31552124 -130.01791304 413.57346321 -142.5 407.8125 C-142.5 363.9225 -142.5 320.0325 -142.5 274.8125 C-146.955 273.3275 -146.955 273.3275 -151.5 271.8125 C-154.70925201 270.57218658 -157.85150893 269.19908712 -161 267.8125 C-161.80953125 267.46960938 -162.6190625 267.12671875 -163.453125 266.7734375 C-164.22140625 266.43570312 -164.9896875 266.09796875 -165.78125 265.75 C-166.47283203 265.44964844 -167.16441406 265.14929688 -167.87695312 264.83984375 C-169.5 263.8125 -169.5 263.8125 -170.5 260.8125 C-169.6399231 258.49780273 -169.6399231 258.49780273 -168.24267578 255.74609375 C-167.72528839 254.71492432 -167.207901 253.68375488 -166.67483521 252.62133789 C-165.81872147 250.95252563 -165.81872147 250.95252563 -164.9453125 249.25 C-164.06514621 247.50409865 -163.18498131 245.7581966 -162.30489922 244.01225281 C-161.06746161 241.5637755 -159.82077871 239.12005202 -158.57434082 236.67614746 C-156.39700358 232.40182476 -154.23534948 228.11954398 -152.07199097 223.83813477 C-150.91886596 221.5583629 -149.76263463 219.28015915 -148.60305786 217.00366211 C-148.07936615 215.97249268 -147.55567444 214.94132324 -147.01611328 213.87890625 C-146.55343048 212.97084229 -146.09074768 212.06277832 -145.61404419 211.12719727 C-144.40682187 208.74376379 -144.40682187 208.74376379 -143.5 205.8125 C-141.09117692 204.76780161 -138.79470733 203.92748123 -136.30078125 203.140625 C-135.56175064 202.89711304 -134.82272003 202.65360107 -134.06129456 202.40270996 C-131.64866092 201.61097915 -129.2308662 200.83652487 -126.8125 200.0625 C-125.16456628 199.52601647 -123.51694253 198.98857987 -121.86962891 198.45019531 C-117.81967931 197.12981394 -113.76533988 195.82358316 -109.70916748 194.52246094 C-106.56535271 193.51213207 -103.42543698 192.49000895 -100.28515625 191.46875 C-98.31547276 190.83219169 -96.34545403 190.19666911 -94.375 189.5625 C-93.48337158 189.27536133 -92.59174316 188.98822266 -91.6730957 188.69238281 C-85.74217265 186.8125 -85.74217265 186.8125 -83.5 186.8125 C-89.79654211 160.9403868 -98.00825031 136.55287464 -115.5546875 116.08203125 C-117.29768289 114.04853663 -118.92004254 111.97376257 -120.5 109.8125 C-114.18034251 109.64288693 -108.53727903 110.13010467 -102.375 111.5 C-101.55241699 111.68006592 -100.72983398 111.86013184 -99.88232422 112.0456543 C-87.15606676 114.9285814 -75.7590081 119.22417654 -64.5 125.8125 C-63.13270071 123.07790142 -63.15671599 120.65406844 -62.921875 117.6015625 C-62.81584961 116.30798828 -62.70982422 115.01441406 -62.60058594 113.68164062 C-62.54414917 112.99046143 -62.4877124 112.29928223 -62.42956543 111.5871582 C-59.90864395 81.40807781 -54.95248227 51.22036108 -41.5 23.8125 C-41.03078125 22.8121875 -40.5615625 21.811875 -40.078125 20.78125 C-35.76709228 12.15918456 -29.01242857 2.12628919 -19.76171875 -1.6640625 C-13.08318723 -3.20969847 -6.03071298 -3.60929034 0 0 Z M120.5 51.8125 C121.7125738 55.53683382 123.00859979 59.19052806 124.5 62.8125 C127.08777208 59.75669026 127.08777208 59.75669026 127.5 55.8125 C124.035 53.8325 124.035 53.8325 120.5 51.8125 Z M144.5 64.8125 C143.84 66.4625 143.18 68.1125 142.5 69.8125 C145.8 69.1525 149.1 68.4925 152.5 67.8125 C149.57735566 66.35117783 147.57536854 65.47150754 144.5 64.8125 Z M102.5 83.8125 C103.6217963 85.6061743 104.74754483 87.3973773 105.875 89.1875 C106.50148438 90.18523437 107.12796875 91.18296875 107.7734375 92.2109375 C109.39269712 94.8373019 109.39269712 94.8373019 111.5 96.8125 C112.16 94.1725 112.82 91.5325 113.5 88.8125 C112.04462432 87.97401196 110.58559627 87.14186066 109.125 86.3125 C108.31289063 85.8484375 107.50078125 85.384375 106.6640625 84.90625 C104.60663126 83.66214141 104.60663126 83.66214141 102.5 83.8125 Z M129.5 96.8125 C128.96770674 98.07857607 128.44955456 99.35060412 127.9375 100.625 C127.64746094 101.33269531 127.35742188 102.04039063 127.05859375 102.76953125 C126.24936976 104.9860067 126.24936976 104.9860067 127.5 107.8125 C128.16644531 107.47476563 128.83289063 107.13703125 129.51953125 106.7890625 C136.12667178 103.59176093 142.22569114 101.7552054 149.5 100.8125 C149.5 100.4825 149.5 100.1525 149.5 99.8125 C148.55898438 99.67972656 147.61796875 99.54695313 146.6484375 99.41015625 C145.40320313 99.23355469 144.15796875 99.05695313 142.875 98.875 C141.64523437 98.70097656 140.41546875 98.52695313 139.1484375 98.34765625 C135.92443816 97.87475699 132.71187824 97.36098998 129.5 96.8125 Z M86.5 126.8125 C86.87511719 127.30878906 87.25023437 127.80507812 87.63671875 128.31640625 C90.99163919 132.76991524 94.27711236 137.26254098 97.5 141.8125 C98.96664321 139.48312548 99.51864617 138.1547121 99.3671875 135.375 C98.20487463 131.94041784 96.69186774 131.23753991 93.5625 129.5 C92.66660156 128.98824219 91.77070313 128.47648438 90.84765625 127.94921875 C88.63471395 126.66723474 88.63471395 126.66723474 86.5 126.8125 Z M116.5 139.8125 C115.96906676 141.74725671 115.45057683 143.68543155 114.9375 145.625 C114.64746094 146.70394531 114.35742188 147.78289062 114.05859375 148.89453125 C113.24432262 151.86039759 113.24432262 151.86039759 114.5 154.8125 C115.03367187 154.35359375 115.56734375 153.8946875 116.1171875 153.421875 C121.58570132 148.91839303 126.79231624 146.06706594 133.5 143.8125 C130.01783717 141.76112685 126.72724343 141.24431408 122.75 140.6875 C121.57953125 140.51992187 120.4090625 140.35234375 119.203125 140.1796875 C117.86507813 139.99792969 117.86507813 139.99792969 116.5 139.8125 Z " fill="#E27500" transform="translate(224.5,13.1875)"/>
<path d="M0 0 C0.66 0 1.32 0 2 0 C3.27416992 1.79052734 3.27416992 1.79052734 4.73046875 4.3359375 C5.27896484 5.28581543 5.82746094 6.23569336 6.39257812 7.21435547 C6.98490234 8.25736816 7.57722656 9.30038086 8.1875 10.375 C8.80173828 11.44250488 9.41597656 12.51000977 10.04882812 13.60986328 C11.36040284 15.89053124 12.66933512 18.17249425 13.97412109 20.45703125 C16.65276953 25.14559615 19.35266256 29.82186359 22.05200195 34.49853516 C23.31926771 36.69508678 24.58482251 38.8926267 25.84838867 41.09130859 C29.49816333 47.43590794 33.20889772 53.73877934 37 60 C40.94007955 59.35942107 44.25916856 58.1535725 47.90625 56.54296875 C49.10113037 56.01799805 50.29601074 55.49302734 51.52709961 54.95214844 C52.85145021 54.36404593 54.17574846 53.77582553 55.5 53.1875 C56.90811776 52.56635362 58.31640742 51.94559683 59.72485352 51.32519531 C64.48684646 49.22491522 69.24371915 47.11317756 74 45 C74.85744812 44.61918274 75.71489624 44.23836548 76.59832764 43.8460083 C84.9557677 40.13396348 93.3120112 36.41923349 101.66601562 32.69946289 C116.60871315 26.04831686 131.57835556 19.45997055 146.56616211 12.91113281 C148.15877926 12.21439349 149.75131134 11.51745968 151.34375 10.8203125 C152.09398941 10.49216553 152.84422882 10.16401855 153.61720276 9.82592773 C159.32701509 7.31899341 164.97995053 4.70595569 170.61132812 2.02685547 C173 1 173 1 175 1 C175 44.89 175 88.78 175 134 C154.84021685 143.5198976 134.68596828 153.02864329 114.45703125 162.39648438 C108.34151613 165.23311596 102.23325583 168.08527835 96.125 170.9375 C95.50216125 171.22829437 94.87932251 171.51908875 94.23760986 171.81869507 C91.08574 173.29026412 87.93395526 174.76201535 84.78222656 176.23388672 C79.14516197 178.8662981 73.50725647 181.49690743 67.86941528 184.12765503 C66.00593205 184.99723187 64.14248607 185.86688849 62.27905273 186.73657227 C56.53359886 189.41800371 50.78800401 192.09913125 45.04171753 194.77877808 C43.71347794 195.39823114 42.38529155 196.01779827 41.05715942 196.63748169 C37.83526824 198.14071864 34.6127527 199.64257772 31.38867188 201.14111328 C26.08951642 203.60638816 20.79833008 206.08246638 15.55078125 208.65625 C14.76485596 209.03861816 13.97893066 209.42098633 13.16918945 209.81494141 C11.78904132 210.48940434 10.41329278 211.17300304 9.04370117 211.86865234 C5.12983891 213.77470913 2.32337144 214.31351668 -2 214 C-4.71533203 213.01293945 -4.71533203 213.01293945 -7.5078125 211.61328125 C-8.56202393 211.09386963 -9.61623535 210.57445801 -10.70239258 210.03930664 C-11.83185303 209.46946045 -12.96131348 208.89961426 -14.125 208.3125 C-15.94287024 207.41302729 -17.76301853 206.51828584 -19.58338928 205.62388611 C-20.84062564 205.0060443 -22.09724127 204.38693788 -23.35325623 203.76661682 C-29.7904947 200.59224342 -36.29507285 197.5684063 -42.8125 194.5625 C-45.155001 193.47928146 -47.49744836 192.39594691 -49.83984375 191.3125 C-51.01401855 190.76980469 -52.18819336 190.22710937 -53.39794922 189.66796875 C-59.56329295 186.81303935 -65.71906737 183.93765129 -71.875 181.0625 C-73.13256099 180.47532601 -74.39012936 179.88816783 -75.64770508 179.30102539 C-78.17111499 178.12283651 -80.69446279 176.94451474 -83.21777344 175.76611328 C-86.98083466 174.00882897 -90.74426497 172.25233625 -94.5078125 170.49609375 C-95.12625031 170.20749985 -95.74468811 169.91890594 -96.38186646 169.62156677 C-99.50144826 168.16584493 -102.62107253 166.7102141 -105.74072266 165.25463867 C-111.40259779 162.61279653 -117.06421806 159.97041573 -122.7244873 157.32513428 C-125.28639596 156.12790672 -127.84851469 154.93112912 -130.41064453 153.734375 C-132.13203562 152.93011476 -133.85313786 152.12523635 -135.57421875 151.3203125 C-148.02955771 145.50302124 -160.51791304 139.76096321 -173 134 C-173 90.11 -173 46.22 -173 1 C-166.24990719 3.25003094 -166.24990719 3.25003094 -163.08569336 4.65380859 C-162.36869766 4.97029861 -161.65170197 5.28678864 -160.91297913 5.61286926 C-160.14634445 5.95460678 -159.37970978 6.2963443 -158.58984375 6.6484375 C-157.76685287 7.01269333 -156.943862 7.37694916 -156.09593201 7.75224304 C-153.37528766 8.95721487 -150.65640235 10.16610328 -147.9375 11.375 C-146.01198383 12.22866508 -144.08636342 13.08209506 -142.16064453 13.93530273 C-131.36098123 18.72238161 -120.56825173 23.5250881 -109.7749176 28.32641602 C-100.46770981 32.46661627 -91.15870859 36.60276562 -81.84814453 40.7354126 C-78.92576372 42.0329612 -76.00389247 43.33165292 -73.08203125 44.63037109 C-68.26297294 46.77151265 -63.44121128 48.90645831 -58.61749268 51.03707886 C-56.80148437 51.84024413 -54.98632559 52.64533319 -53.17205811 53.4524231 C-50.6768594 54.56201714 -48.17871516 55.66468749 -45.6796875 56.765625 C-44.94133667 57.09580124 -44.20298584 57.42597748 -43.44226074 57.76615906 C-40.46044375 59.07226709 -38.29265695 60 -35 60 C-34.42838135 59.00709961 -34.42838135 59.00709961 -33.84521484 57.99414062 C-26.73517096 45.64768856 -19.61344105 33.30831163 -12.4375 21 C-11.8791748 20.04158203 -11.32084961 19.08316406 -10.74560547 18.09570312 C-9.68623092 16.28072419 -8.62387017 14.46748398 -7.55810547 12.65625 C-6.47398386 10.80804519 -5.40088392 8.9533493 -4.33642578 7.09375 C-3.80388184 6.1759375 -3.27133789 5.258125 -2.72265625 4.3125 C-2.24707275 3.48363281 -1.77148926 2.65476562 -1.28149414 1.80078125 C-0.85860107 1.20652344 -0.43570801 0.61226563 0 0 Z " fill="#F8AB00" transform="translate(255,287)"/>
<path d="M0 0 C3.13093204 2.34656493 5.90096698 4.88025762 8.5 7.8125 C9.00917969 8.35648438 9.51835937 8.90046875 10.04296875 9.4609375 C19.79375629 20.75132307 25.59064077 36.62158835 29.5 50.8125 C29.85723145 52.10607422 29.85723145 52.10607422 30.22167969 53.42578125 C37.43329287 80.15170894 40.05753327 107.26783558 41.5 134.8125 C45.15299524 132.31859792 45.15299524 132.31859792 47.34301758 128.61425781 C47.44251709 127.83920898 47.5420166 127.06416016 47.64453125 126.265625 C47.82338867 124.99912109 47.82338867 124.99912109 48.00585938 123.70703125 C48.10705078 122.83433594 48.20824219 121.96164063 48.3125 121.0625 C48.43302734 120.17433594 48.55355469 119.28617187 48.67773438 118.37109375 C48.97133899 116.18667538 49.24464009 114.00166266 49.5 111.8125 C50.91340751 111.93961385 52.32603105 112.07545912 53.73828125 112.21484375 C54.52501221 112.28952881 55.31174316 112.36421387 56.12231445 112.44116211 C59.14565886 112.91333655 61.70958798 113.9297198 64.48046875 115.19140625 C69.55992922 116.75356141 73.87098161 115.56342878 78.75 113.875 C84.36763125 112.04975357 89.60950634 111.07843651 95.5 110.8125 C94.09304437 113.95540089 92.38972435 116.2225843 90.0625 118.75 C87.42947321 121.61050211 85.43174543 124.43818499 83.5 127.8125 C82.90703125 128.79863281 82.3140625 129.78476563 81.703125 130.80078125 C75.10487393 142.03100456 68.58881264 153.81544356 66.5 166.8125 C74.5141843 171.83182211 82.4359712 176.02356806 91.5 178.8125 C91.58333357 183.6458472 91.45261487 188.04942563 90.5 192.8125 C88.27343659 190.70346779 86.54867127 188.52217431 84.8125 186 C79.25033687 178.53822833 71.81414189 174.66290178 63.5 170.8125 C63.35304688 171.63814453 63.35304688 171.63814453 63.203125 172.48046875 C62.18196145 178.15849021 61.11705325 183.82710695 60.02929688 189.49267578 C58.41209806 197.91732678 56.83354836 206.33744923 55.5 214.8125 C58.47 215.8025 58.47 215.8025 61.5 216.8125 C58.5 217.8125 58.5 217.8125 55.5 217.8125 C54.78046912 223.20094426 54.06867604 228.59033595 53.36376953 233.98071289 C53.12333707 235.81106552 52.88086005 237.64115086 52.63623047 239.47094727 C52.28323988 242.11405436 51.93782205 244.75806264 51.59375 247.40234375 C51.42969666 248.61228249 51.42969666 248.61228249 51.2623291 249.84666443 C50.57399736 255.21097772 50.40548206 260.40371066 50.5 265.8125 C47.72090933 267.08095206 44.93370101 268.30040425 42.125 269.5 C40.96291016 270.03850586 40.96291016 270.03850586 39.77734375 270.58789062 C35.35448763 272.43379338 32.42296433 273.15183903 27.80297852 271.62182617 C26.92929626 271.33485367 26.05561401 271.04788116 25.15545654 270.75221252 C20.98501315 269.2763767 16.85368615 267.7244293 12.73828125 266.1015625 C11.81520676 265.74150116 10.89213226 265.38143982 9.94108582 265.01046753 C7.94430846 264.23132263 5.94817821 263.45051766 3.95263672 262.66821289 C-1.52165848 260.52267393 -7.00120139 258.39061469 -12.48046875 256.2578125 C-13.62712006 255.81121277 -14.77377136 255.36461304 -15.95516968 254.90447998 C-28.61367281 249.9798624 -41.30611789 245.14501111 -54 240.3125 C-74.33290553 232.56916342 -94.63454081 224.74873777 -114.90820312 216.8515625 C-128.15010048 211.68798135 -128.15010048 211.68798135 -141.5 206.8125 C-141.5 206.1525 -141.5 205.4925 -141.5 204.8125 C-134.23415093 202.46217002 -126.96729879 200.11496517 -119.69914436 197.77177429 C-116.32448189 196.68370292 -112.95017726 195.59454756 -109.57666016 194.50292969 C-105.70057583 193.24874094 -101.82299406 191.9992418 -97.9453125 190.75 C-96.73070343 190.35627197 -95.51609436 189.96254395 -94.26467896 189.55688477 C-93.14366791 189.19651123 -92.02265686 188.8361377 -90.86767578 188.46484375 C-89.87728302 188.14507568 -88.88689026 187.82530762 -87.8664856 187.49584961 C-85.5 186.8125 -85.5 186.8125 -83.5 186.8125 C-89.79654211 160.9403868 -98.00825031 136.55287464 -115.5546875 116.08203125 C-117.29768289 114.04853663 -118.92004254 111.97376257 -120.5 109.8125 C-114.18034251 109.64288693 -108.53727903 110.13010467 -102.375 111.5 C-101.14112549 111.77009888 -101.14112549 111.77009888 -99.88232422 112.0456543 C-87.15606676 114.9285814 -75.7590081 119.22417654 -64.5 125.8125 C-63.13270071 123.07790142 -63.15671599 120.65406844 -62.921875 117.6015625 C-62.81584961 116.30798828 -62.70982422 115.01441406 -62.60058594 113.68164062 C-62.54414917 112.99046143 -62.4877124 112.29928223 -62.42956543 111.5871582 C-59.90864395 81.40807781 -54.95248227 51.22036108 -41.5 23.8125 C-41.03078125 22.8121875 -40.5615625 21.811875 -40.078125 20.78125 C-35.76709228 12.15918456 -29.01242857 2.12628919 -19.76171875 -1.6640625 C-13.08318723 -3.20969847 -6.03071298 -3.60929034 0 0 Z " fill="#FCD32E" transform="translate(224.5,13.1875)"/>
<path d="M0 0 C2.81668285 3.52085356 4.9929173 6.49175824 7.1796875 10.33203125 C7.77233398 11.36690674 8.36498047 12.40178223 8.97558594 13.46801758 C9.60239258 14.57169678 10.22919922 15.67537598 10.875 16.8125 C11.87055678 18.55226619 12.86612545 20.29202577 13.86254883 22.03129578 C14.54580735 23.22414719 15.2285831 24.41727525 15.91088867 25.610672 C19.488421 31.86537337 23.11558803 38.09067553 26.75 44.3125 C27.33378418 45.31321533 27.91756836 46.31393066 28.51904297 47.3449707 C30.99019446 51.57731953 33.47261849 55.80090951 36 60 C39.94007955 59.35942107 43.25916856 58.1535725 46.90625 56.54296875 C48.10113037 56.01799805 49.29601074 55.49302734 50.52709961 54.95214844 C51.85145021 54.36404593 53.17574846 53.77582553 54.5 53.1875 C55.90811776 52.56635362 57.31640742 51.94559683 58.72485352 51.32519531 C63.48684646 49.22491522 68.24371915 47.11317756 73 45 C73.85744812 44.61918274 74.71489624 44.23836548 75.59832764 43.8460083 C83.9557677 40.13396348 92.3120112 36.41923349 100.66601562 32.69946289 C115.60871315 26.04831686 130.57835556 19.45997055 145.56616211 12.91113281 C147.15877926 12.21439349 148.75131134 11.51745968 150.34375 10.8203125 C151.09398941 10.49216553 151.84422882 10.16401855 152.61720276 9.82592773 C158.32701509 7.31899341 163.97995053 4.70595569 169.61132812 2.02685547 C172 1 172 1 174 1 C174 44.89 174 88.78 174 134 C153.84021685 143.5198976 133.68596828 153.02864329 113.45703125 162.39648438 C107.34151613 165.23311596 101.23325583 168.08527835 95.125 170.9375 C94.50216125 171.22829437 93.87932251 171.51908875 93.23760986 171.81869507 C90.08574 173.29026412 86.93395526 174.76201535 83.78222656 176.23388672 C78.14516197 178.8662981 72.50725647 181.49690743 66.86941528 184.12765503 C65.00593205 184.99723187 63.14248607 185.86688849 61.27905273 186.73657227 C55.53361138 189.41799787 49.78801375 192.09908669 44.04176331 194.77877808 C42.05552754 195.70508057 40.06938638 196.6315857 38.08325195 197.55810547 C35.52100001 198.75332527 32.95829608 199.94756812 30.39526367 201.14111328 C25.06763834 203.62350609 19.74438219 206.1133225 14.4453125 208.65625 C13.64585205 209.03861816 12.8463916 209.42098633 12.02270508 209.81494141 C10.60602207 210.49441093 9.19157085 211.17856536 7.7800293 211.86865234 C4.97112068 213.21461124 3.16178032 214 0 214 C0 143.38 0 72.76 0 0 Z " fill="#FCC62D" transform="translate(256,287)"/>
<path d="M0 0 C2.88555212 7.93526832 3.58135921 17.24806369 0.11328125 25.12109375 C-3.22188105 30.74991153 -7.3032605 34.81883103 -13 38 C-12.06800781 38.08636719 -11.13601563 38.17273437 -10.17578125 38.26171875 C-1.02440379 39.27031344 6.52241157 41.2544213 15 45 C14.10160147 52.64193321 10.35690199 58.03575047 4.62890625 63.09375 C-0.58234398 66.93105126 -5.73186004 69.41025436 -12 71 C-10.75283203 71.39832031 -10.75283203 71.39832031 -9.48046875 71.8046875 C-8.39378906 72.15789062 -7.30710937 72.51109375 -6.1875 72.875 C-5.10855469 73.22304687 -4.02960938 73.57109375 -2.91796875 73.9296875 C0 75 0 75 3 77 C0.78107344 85.87570622 -5.67846755 92.78917961 -13 98 C-15.93045607 99.54498384 -18.89700101 100.84355825 -22 102 C-21.17757812 102.10957031 -20.35515625 102.21914062 -19.5078125 102.33203125 C-12.43663724 103.33636677 -5.76682398 104.70875035 1 107 C0.43369188 111.88813328 -1.03913802 115.61672582 -3.25 120 C-4.12398437 121.7634375 -4.12398437 121.7634375 -5.015625 123.5625 C-8.19659452 129.0728409 -11.73408333 133.15928954 -17.0625 136.75 C-17.89910156 137.32234375 -18.73570312 137.8946875 -19.59765625 138.484375 C-25.17010309 142 -25.17010309 142 -29 142 C-29 142.66 -29 143.32 -29 144 C-28.40316406 143.95359375 -27.80632812 143.9071875 -27.19140625 143.859375 C-18.05057034 143.47907276 -9.7658542 145.69806408 -1 148 C-5.46030554 165.68472021 -13.40093173 176.35995304 -28.80859375 185.703125 C-29.53175781 186.13109375 -30.25492187 186.5590625 -31 187 C-30.11699219 187.10957031 -29.23398437 187.21914062 -28.32421875 187.33203125 C-20.67263522 188.34292789 -13.38131409 189.74041406 -6 192 C-7.54789911 204.77016762 -15.55948289 215.6577142 -25.1171875 223.8046875 C-37.70075865 233.06951461 -52.97987309 233.3222438 -68 232 C-70.74188123 231.47809709 -73.31899863 230.79319567 -76 230 C-76 233.96 -76 237.92 -76 242 C-75.05640625 241.60167969 -74.1128125 241.20335937 -73.140625 240.79296875 C-61.2010082 235.83102977 -50.00574357 232.66873504 -37 232 C-39.06139702 234.06139702 -40.22232431 234.61329427 -42.89770508 235.61303711 C-43.70586166 235.9180867 -44.51401825 236.22313629 -45.34666443 236.53742981 C-46.22871048 236.86410141 -47.11075653 237.19077301 -48.01953125 237.52734375 C-48.93795303 237.87258591 -49.85637482 238.21782806 -50.80262756 238.5735321 C-53.80388696 239.70036562 -56.80798848 240.81936925 -59.8125 241.9375 C-63.9263164 243.4738304 -68.03933171 245.01229902 -72.15234375 246.55078125 C-73.17144836 246.93127625 -74.19055298 247.31177124 -75.24053955 247.70379639 C-81.24613716 249.95080349 -87.22899826 252.24642027 -93.19140625 254.60546875 C-94.52423235 255.1285923 -95.85715465 255.65147082 -97.19018555 256.17407227 C-99.5833615 257.11640611 -101.97188814 258.07066612 -104.35473633 259.03881836 C-114.04135733 262.82345147 -114.04135733 262.82345147 -120 261 C-122.65234375 259.80859375 -122.65234375 259.80859375 -124.9375 258.4375 C-125.70964844 257.98246094 -126.48179687 257.52742188 -127.27734375 257.05859375 C-127.84582031 256.70925781 -128.41429687 256.35992187 -129 256 C-128.32772203 243.92217849 -126.63174555 231.97790263 -125 220 C-123.35 219.67 -121.7 219.34 -120 219 C-121.32 218.34 -122.64 217.68 -124 217 C-123.48377745 208.56331326 -122.28684051 200.45729632 -120.5625 192.1875 C-120.34529297 191.10791016 -120.12808594 190.02832031 -119.90429688 188.91601562 C-118.8058393 183.5358826 -117.61032912 178.25042192 -116 173 C-105.86580931 175.66689229 -98.17351675 181.67785732 -92 190 C-91.29567804 191.31383134 -90.61454504 192.64185545 -90 194 C-88.89771304 189.59085217 -88.92345464 185.51617599 -89 181 C-89.59425781 180.85304687 -90.18851562 180.70609375 -90.80078125 180.5546875 C-99.35284353 178.24044359 -107.00647665 174.46470662 -114 169 C-111.79675842 155.29094125 -104.66461555 141.49692333 -97 130 C-96.01 129.34 -95.02 128.68 -94 128 C-93.86722656 127.41734375 -93.73445313 126.8346875 -93.59765625 126.234375 C-92.70593749 122.90062904 -90.64826222 120.86554967 -88.4375 118.25 C-87.61121094 117.26515625 -86.78492188 116.2803125 -85.93359375 115.265625 C-85.29550781 114.51796875 -84.65742188 113.7703125 -84 113 C-85.18078125 113.30035156 -86.3615625 113.60070312 -87.578125 113.91015625 C-89.13529623 114.29475878 -90.69259468 114.67884649 -92.25 115.0625 C-93.02730469 115.26166016 -93.80460937 115.46082031 -94.60546875 115.66601562 C-95.35957031 115.84970703 -96.11367188 116.03339844 -96.890625 116.22265625 C-97.58188477 116.39547119 -98.27314453 116.56828613 -98.98535156 116.74633789 C-101.29844 117.03757624 -102.81718251 116.80306269 -105 116 C-111.77626393 106.39717293 -113.34728717 94.99144305 -111.4296875 83.6171875 C-110.22218419 78.03725116 -108.94844006 72.91406677 -106 68 C-100.7063545 69.430715 -96.22749334 71.97919118 -91.48828125 74.66015625 C-88.98279337 76.10092508 -88.98279337 76.10092508 -86 77 C-86.40992188 76.43152344 -86.81984375 75.86304687 -87.2421875 75.27734375 C-87.78101563 74.50519531 -88.31984375 73.73304687 -88.875 72.9375 C-89.40867187 72.18339844 -89.94234375 71.42929688 -90.4921875 70.65234375 C-95.34159586 62.1219078 -95.16824754 51.22562881 -93.39453125 41.7734375 C-92.72386941 39.41080139 -92.08825936 37.20147881 -91 35 C-89 34 -89 34 -86.53125 34.75 C-80.05511602 37.42057071 -74.47735734 40.44516652 -68.86328125 44.64453125 C-67.24924806 46.09804542 -67.24924806 46.09804542 -66 46 C-66.27714844 45.45730469 -66.55429687 44.91460937 -66.83984375 44.35546875 C-67.38318359 43.28232422 -67.38318359 43.28232422 -67.9375 42.1875 C-68.47697266 41.12595703 -68.47697266 41.12595703 -69.02734375 40.04296875 C-72.46454184 32.82347236 -72.33585159 22.64486025 -69.8828125 15.0546875 C-68.68596186 11.97803754 -67.42695104 8.97621217 -66 6 C-56.89775535 7.27722438 -48.59920839 15.01030084 -43 22 C-41.09406681 25.24147762 -39.4737839 28.54227623 -38 32 C-37.78085937 31.31035156 -37.56171875 30.62070312 -37.3359375 29.91015625 C-33.49782761 18.53624523 -28.70240195 10.89216938 -18 5 C-6.27991325 -0.3830631 -6.27991325 -0.3830631 0 0 Z M-59 54 C-57.7874262 57.72433382 -56.49140021 61.37802806 -55 65 C-52.41222792 61.94419026 -52.41222792 61.94419026 -52 58 C-55.465 56.02 -55.465 56.02 -59 54 Z M-35 67 C-35.66 68.65 -36.32 70.3 -37 72 C-33.7 71.34 -30.4 70.68 -27 70 C-29.92264434 68.53867783 -31.92463146 67.65900754 -35 67 Z M-77 86 C-75.8782037 87.7936743 -74.75245517 89.5848773 -73.625 91.375 C-72.99851562 92.37273437 -72.37203125 93.37046875 -71.7265625 94.3984375 C-70.10730288 97.0248019 -70.10730288 97.0248019 -68 99 C-67.34 96.36 -66.68 93.72 -66 91 C-67.45537568 90.16151196 -68.91440373 89.32936066 -70.375 88.5 C-71.18710937 88.0359375 -71.99921875 87.571875 -72.8359375 87.09375 C-74.89336874 85.84964141 -74.89336874 85.84964141 -77 86 Z M-50 99 C-50.53229326 100.26607607 -51.05044544 101.53810412 -51.5625 102.8125 C-51.85253906 103.52019531 -52.14257812 104.22789063 -52.44140625 104.95703125 C-53.25063024 107.1735067 -53.25063024 107.1735067 -52 110 C-51.33355469 109.66226563 -50.66710937 109.32453125 -49.98046875 108.9765625 C-43.37332822 105.77926093 -37.27430886 103.9427054 -30 103 C-30 102.67 -30 102.34 -30 102 C-30.94101562 101.86722656 -31.88203125 101.73445313 -32.8515625 101.59765625 C-34.09679687 101.42105469 -35.34203125 101.24445313 -36.625 101.0625 C-37.85476563 100.88847656 -39.08453125 100.71445313 -40.3515625 100.53515625 C-43.57556184 100.06225699 -46.78812176 99.54848998 -50 99 Z M-93 129 C-92.62488281 129.49628906 -92.24976563 129.99257812 -91.86328125 130.50390625 C-88.50836081 134.95741524 -85.22288764 139.45004098 -82 144 C-80.53335679 141.67062548 -79.98135383 140.3422121 -80.1328125 137.5625 C-81.29512537 134.12791784 -82.80813226 133.42503991 -85.9375 131.6875 C-86.83339844 131.17574219 -87.72929687 130.66398438 -88.65234375 130.13671875 C-90.86528605 128.85473474 -90.86528605 128.85473474 -93 129 Z M-63 142 C-63.53093324 143.93475671 -64.04942317 145.87293155 -64.5625 147.8125 C-64.85253906 148.89144531 -65.14257812 149.97039062 -65.44140625 151.08203125 C-66.25567738 154.04789759 -66.25567738 154.04789759 -65 157 C-64.46632813 156.54109375 -63.93265625 156.0821875 -63.3828125 155.609375 C-57.91429868 151.10589303 -52.70768376 148.25456594 -46 146 C-49.48216283 143.94862685 -52.77275657 143.43181408 -56.75 142.875 C-57.92046875 142.70742187 -59.0909375 142.53984375 -60.296875 142.3671875 C-61.63492188 142.18542969 -61.63492188 142.18542969 -63 142 Z " fill="#F8AB00" transform="translate(404,11)"/>
<path d="M0 0 C6.9205544 1.97721851 13.64876217 4.27444837 20.3671875 6.8515625 C21.34303299 7.222742 22.31887848 7.59392151 23.32429504 7.97634888 C26.50923574 9.18900041 29.69215617 10.40685661 32.875 11.625 C35.11556751 12.47968559 37.35620988 13.33417496 39.59692383 14.18847656 C58.46759372 21.38944306 77.30922975 28.66532046 96.14360046 35.96058655 C106.33207633 39.90551272 116.53070912 43.8239921 126.72998047 47.74090576 C135.21906465 51.00114644 143.70491886 54.26910625 152.1796875 57.56640625 C152.9069957 57.8491188 153.63430389 58.13183136 154.38365173 58.42311096 C157.79443278 59.74896612 161.20434529 61.07695683 164.61254883 62.40942383 C165.7961499 62.86986084 166.97975098 63.33029785 168.19921875 63.8046875 C169.22877686 64.20671387 170.25833496 64.60874023 171.3190918 65.02294922 C173.54255218 65.8332842 175.69298048 66.48885776 178 67 C177.38125 67.061875 176.7625 67.12375 176.125 67.1875 C175.42375 67.455625 174.7225 67.72375 174 68 C173.29546079 69.65101385 172.63572237 71.32128642 172 73 C171.03645475 74.79447536 170.03875901 76.57085038 169.015625 78.33203125 C168.41661377 79.36682617 167.81760254 80.40162109 167.20043945 81.46777344 C166.55679443 82.5715332 165.91314941 83.67529297 165.25 84.8125 C164.58766357 85.95364258 163.92532715 87.09478516 163.24291992 88.27050781 C161.8591081 90.65433385 160.4731274 93.03687972 159.08544922 95.41845703 C157.0634212 98.88921461 155.04899306 102.36432683 153.03515625 105.83984375 C151.79455882 107.97672972 150.55368493 110.11345522 149.3125 112.25 C148.73725586 113.24233643 148.16201172 114.23467285 147.56933594 115.25708008 C144.84224004 119.93794655 142.07583206 124.53966932 139 129 C134.37817074 128.32841854 130.35432532 126.55607399 126.125 124.66796875 C125.34516754 124.32458466 124.56533508 123.98120056 123.76187134 123.62741089 C121.1724024 122.48563755 118.58621682 121.3366185 116 120.1875 C114.16342297 119.37582625 112.32666814 118.56455472 110.48974609 117.75366211 C104.65658849 115.17639783 98.82806091 112.58876424 93 110 C91.11883466 109.164995 89.23765004 108.33003343 87.35644531 107.49511719 C78.02098392 103.35105918 68.68791196 99.20163093 59.35546875 95.05078125 C58.42426712 94.63664474 57.49306549 94.22250824 56.53364563 93.79582214 C51.73900805 91.66340382 46.94469926 89.53025099 42.15087891 87.39599609 C37.3330811 85.25151547 32.51350391 83.11107599 27.69281006 80.97311401 C25.89798763 80.17637157 24.103728 79.37835969 22.31011963 78.57888794 C12.19817696 74.0724235 2.04777202 69.73188862 -8.26661682 65.70648193 C-14.71943633 63.17535359 -20.88804329 60.27958653 -27 57 C-25.27747749 50.97847811 -22.40839392 45.58246579 -19.58984375 40.01953125 C-19.06234024 38.9697258 -18.53483673 37.91992035 -17.99134827 36.83830261 C-16.31053142 33.49444029 -14.62437648 30.15330897 -12.9375 26.8125 C-11.24775917 23.46063241 -9.55918805 20.10818855 -7.87294006 16.75456238 C-6.82455286 14.67004952 -5.77402904 12.58660963 -4.72117615 10.50434875 C-4.24720901 9.5629454 -3.77324188 8.62154205 -3.28491211 7.65161133 C-2.86680771 6.82365555 -2.44870331 5.99569977 -2.01792908 5.14265442 C-0.89886057 2.89901702 -0.89886057 2.89901702 0 0 Z " fill="#E27500" transform="translate(81,219)"/>
<path d="M0 0 C6.31965749 -0.16961307 11.96272097 0.31760467 18.125 1.6875 C18.94758301 1.86756592 19.77016602 2.04763184 20.61767578 2.2331543 C38.28151226 6.2346098 53.45590835 12.73551004 67 25 C67.928125 25.83402344 68.85625 26.66804688 69.8125 27.52734375 C94.99209702 51.34304594 101.26974427 86.52029601 106.71972656 119.25317383 C107.25799624 122.48551793 107.80414135 125.71645991 108.3515625 128.94726562 C108.69836149 131.00513342 109.04473227 133.06307344 109.390625 135.12109375 C109.55306702 136.08550888 109.71550903 137.04992401 109.88287354 138.04356384 C110.10375641 139.37249413 110.10375641 139.37249413 110.32910156 140.72827148 C110.45915588 141.50750473 110.58921021 142.28673798 110.72320557 143.08958435 C111 145 111 145 111 147 C104.56520638 144.913474 98.22687039 142.62739744 91.90625 140.21875 C90.9419809 139.85276703 89.97771179 139.48678406 88.98422241 139.10971069 C85.82201631 137.90856264 82.66095691 136.70443123 79.5 135.5 C78.4096344 135.08526428 77.3192688 134.67052856 76.19586182 134.2432251 C57.43140038 127.10542729 38.70258916 119.87729248 19.99804688 112.58398438 C6.37366552 107.27648048 -7.29781771 102.10323744 -21 97 C-21 96.34 -21 95.68 -21 95 C-13.73415093 92.64967002 -6.46729879 90.30246517 0.80085564 87.95927429 C4.17551811 86.87120292 7.54982274 85.78204756 10.92333984 84.69042969 C14.79942417 83.43624094 18.67700594 82.1867418 22.5546875 80.9375 C23.76929657 80.54377197 24.98390564 80.15004395 26.23532104 79.74438477 C27.35633209 79.38401123 28.47734314 79.0236377 29.63232422 78.65234375 C30.62271698 78.33257568 31.61310974 78.01280762 32.6335144 77.68334961 C35 77 35 77 37 77 C30.70345789 51.1278868 22.49174969 26.74037464 4.9453125 6.26953125 C3.20231711 4.23603663 1.57995746 2.16126257 0 0 Z " fill="#00AA0A" transform="translate(104,123)"/>
<path d="M0 0 C-1.40695563 3.14290089 -3.11027565 5.4100843 -5.4375 7.9375 C-8.07052679 10.79800211 -10.06825457 13.62568499 -12 17 C-12.59296875 17.98613281 -13.1859375 18.97226563 -13.796875 19.98828125 C-20.39512607 31.21850456 -26.91118736 43.00294356 -29 56 C-20.9858157 61.01932211 -13.0640288 65.21106806 -4 68 C-3.91666643 72.8333472 -4.04738513 77.23692563 -5 82 C-7.22656341 79.89096779 -8.95132873 77.70967431 -10.6875 75.1875 C-16.24966313 67.72572833 -23.68585811 63.85040178 -32 60 C-32.09796875 60.55042969 -32.1959375 61.10085937 -32.296875 61.66796875 C-33.31803855 67.34599021 -34.38294675 73.01460695 -35.47070312 78.68017578 C-37.08790194 87.10482678 -38.66645164 95.52494923 -40 104 C-38.02 104.66 -36.04 105.32 -34 106 C-37 107 -37 107 -40 107 C-40.71953088 112.38844426 -41.43132396 117.77783595 -42.13623047 123.16821289 C-42.37666293 124.99856552 -42.61913995 126.82865086 -42.86376953 128.65844727 C-43.21676012 131.30155436 -43.56217795 133.94556264 -43.90625 136.58984375 C-44.0156189 137.39646957 -44.12498779 138.2030954 -44.2376709 139.03416443 C-44.92600264 144.39847772 -45.09451794 149.59121066 -45 155 C-47.77909067 156.26845206 -50.56629899 157.48790425 -53.375 158.6875 C-54.53708984 159.22600586 -54.53708984 159.22600586 -55.72265625 159.77539062 C-62.43548914 162.57702749 -66.40313545 161.68029997 -73 159 C-74.11552246 158.57904053 -75.23104492 158.15808105 -76.38037109 157.72436523 C-80.10116747 156.30934792 -83.80198981 154.84809797 -87.5 153.375 C-88.7863183 152.86683288 -90.07277584 152.35901811 -91.359375 151.8515625 C-100.65146684 148.17426658 -100.65146684 148.17426658 -103 147 C-100.33317623 101.7559554 -86.50004156 55.04116879 -53 23 C-51.90945313 22.40251953 -51.90945313 22.40251953 -50.796875 21.79296875 C-47.70090877 18.70373288 -47.7729945 14.51799107 -47.25 10.3125 C-47.06244141 8.97348633 -47.06244141 8.97348633 -46.87109375 7.60742188 C-46.5650952 5.40658618 -46.27540639 3.20483755 -46 1 C-44.58659249 1.12711385 -43.17396895 1.26295912 -41.76171875 1.40234375 C-40.58162231 1.51437134 -40.58162231 1.51437134 -39.37768555 1.62866211 C-36.35434114 2.10083655 -33.79041202 3.1172198 -31.01953125 4.37890625 C-25.87027585 5.96252638 -21.40684464 4.71112555 -16.4375 3.0625 C-10.84335514 1.22414144 -5.91502975 -0.16900085 0 0 Z " fill="#2ED52C" transform="translate(320,124)"/>
<path d="M0 0 C28.48742736 1.0977814 52.55343171 12.70251767 72.3671875 32.99609375 C93.15026945 56.70854185 98.71456697 89.19192431 103.71972656 119.25317383 C104.25799624 122.48551793 104.80414135 125.71645991 105.3515625 128.94726562 C105.69836149 131.00513342 106.04473227 133.06307344 106.390625 135.12109375 C106.63428802 136.56771645 106.63428802 136.56771645 106.88287354 138.04356384 C107.03012878 138.92951736 107.17738403 139.81547089 107.32910156 140.72827148 C107.45915588 141.50750473 107.58921021 142.28673798 107.72320557 143.08958435 C108 145 108 145 108 147 C99.55823333 144.286575 91.28889147 141.14265947 83 138 C82.9589917 137.40026367 82.9179834 136.80052734 82.87573242 136.18261719 C82.18774825 127.45467698 80.79533097 118.86993787 79.3125 110.25 C79.18061279 109.4808728 79.04872559 108.71174561 78.9128418 107.91931152 C73.9562854 79.25186192 67.10753897 50.08173371 47 28 C46.41476563 27.34515625 45.82953125 26.6903125 45.2265625 26.015625 C33.215509 13.27150251 16.50956099 5.87090594 0 1 C0 0.67 0 0.34 0 0 Z " fill="#0F9902" transform="translate(107,123)"/>
<path d="M0 0 C-1.40695563 3.14290089 -3.11027565 5.4100843 -5.4375 7.9375 C-8.07052679 10.79800211 -10.06825457 13.62568499 -12 17 C-12.59296875 17.98613281 -13.1859375 18.97226563 -13.796875 19.98828125 C-20.39512607 31.21850456 -26.91118736 43.00294356 -29 56 C-20.9858157 61.01932211 -13.0640288 65.21106806 -4 68 C-3.91666643 72.8333472 -4.04738513 77.23692563 -5 82 C-7.22656341 79.89096779 -8.95132873 77.70967431 -10.6875 75.1875 C-16.24966313 67.72572833 -23.68585811 63.85040178 -32 60 C-32.09796875 60.55042969 -32.1959375 61.10085937 -32.296875 61.66796875 C-33.31803855 67.34599021 -34.38294675 73.01460695 -35.47070312 78.68017578 C-37.08790194 87.10482678 -38.66645164 95.52494923 -40 104 C-38.02 104.66 -36.04 105.32 -34 106 C-37 107 -37 107 -40 107 C-40.71953088 112.38844426 -41.43132396 117.77783595 -42.13623047 123.16821289 C-42.37666293 124.99856552 -42.61913995 126.82865086 -42.86376953 128.65844727 C-43.21676012 131.30155436 -43.56217795 133.94556264 -43.90625 136.58984375 C-44.0156189 137.39646957 -44.12498779 138.2030954 -44.2376709 139.03416443 C-44.92600264 144.39847772 -45.09451794 149.59121066 -45 155 C-47.1234016 155.83739781 -49.2487728 156.66980283 -51.375 157.5 C-52.55835938 157.9640625 -53.74171875 158.428125 -54.9609375 158.90625 C-58 160 -58 160 -60 160 C-59.38394237 151.92307409 -58.56500449 143.89510967 -57.546875 135.859375 C-57.404776 134.73468811 -57.262677 133.61000122 -57.11627197 132.45123291 C-56.81523056 130.08122343 -56.51261625 127.71141326 -56.20849609 125.34179688 C-55.75661415 121.80181436 -55.31766167 118.2603798 -54.87890625 114.71875 C-50.14407539 77.31268903 -42.90148112 39.87271488 -20 9 C-19.47535156 8.24203125 -18.95070313 7.4840625 -18.41015625 6.703125 C-15.20749948 2.4092583 -12.41619074 1.03043621 -7.125 0.19921875 C-4.73251284 -0.02507692 -2.40027242 -0.15485628 0 0 Z " fill="#2BB832" transform="translate(320,124)"/>
<path d="M0 0 C5.76303063 30.12652044 5.76303063 30.12652044 6 44 C-1.588708 41.86900617 -8.90352634 39.22433443 -16.24609375 36.3671875 C-17.37902359 35.92988312 -18.51195343 35.49257874 -19.67921448 35.04202271 C-23.26667555 33.65651772 -26.85214448 32.26594341 -30.4375 30.875 C-34.04825521 29.47798591 -37.65941048 28.08201228 -41.27076721 26.68655396 C-43.51041419 25.82072762 -45.74963595 24.95380039 -47.98838806 24.08566284 C-49.50125145 23.49967819 -49.50125145 23.49967819 -51.04467773 22.90185547 C-51.93162827 22.55782684 -52.8185788 22.21379822 -53.73240662 21.85934448 C-55.47360624 21.19948619 -57.23351473 20.58882842 -59 20 C-59 19.34 -59 18.68 -59 18 C-51.75197995 15.64794515 -44.50244916 13.30060043 -37.25095654 10.95927429 C-33.88391483 9.87197682 -30.51741554 8.7830581 -27.15209961 7.69042969 C-23.28394072 6.43462005 -19.41353396 5.18587351 -15.54296875 3.9375 C-13.72879707 3.34690796 -13.72879707 3.34690796 -11.87797546 2.74438477 C-10.75703995 2.38401123 -9.63610443 2.0236377 -8.48120117 1.65234375 C-7.49302902 1.33257568 -6.50485687 1.01280762 -5.48674011 0.68334961 C-3 0 -3 0 0 0 Z " fill="#323E65" transform="translate(142,200)"/>
<path d="M0 0 C0.71478516 0.00193359 1.42957031 0.00386719 2.16601562 0.00585938 C7.29833273 0.04773685 12.28935453 0.39847922 17.375 1.125 C15.13088697 9.23924027 9.3451964 15.44369516 2.375 20.0625 C1.0609831 20.78623587 -0.27283236 21.4753257 -1.625 22.125 C-2.264375 22.44210938 -2.90375 22.75921875 -3.5625 23.0859375 C-11.74620815 26.464817 -23.31374428 26.73616524 -31.625 23.625 C-32.615 23.13 -33.605 22.635 -34.625 22.125 C-30.05773134 11.66448146 -20.89423538 5.22018975 -10.625 1.125 C-7.02835372 -0.07388209 -3.74232124 -0.02405532 0 0 Z " fill="#FCC62C" transform="translate(371.625,164.875)"/>
<path d="M0 0 C1.02287109 -0.01836914 1.02287109 -0.01836914 2.06640625 -0.03710938 C6.78131519 -0.05058054 10.64644019 0.70828899 15.125 2.1875 C12.99124479 9.82234286 8.18410628 15.49185315 1.58984375 19.87109375 C-9.08257472 25.42998869 -20.95189794 27.12652898 -32.75 24.1875 C-33.78125 23.8575 -34.8125 23.5275 -35.875 23.1875 C-34.43297367 18.73032772 -31.99977225 15.58887206 -28.875 12.1875 C-28.38950684 11.65858154 -27.90401367 11.12966309 -27.40380859 10.5847168 C-19.58004416 2.40947933 -11.09318332 0.01036746 0 0 Z " fill="#FCC62C" transform="translate(368.875,208.8125)"/>
<path d="M0 0 C10.56 3.3 21.12 6.6 32 10 C29.07458791 12.92541209 27.59879813 13.77358255 23.86450195 15.22070312 C22.81523026 15.63122925 21.76595856 16.04175537 20.68489075 16.46472168 C19.54750961 16.89917603 18.41012848 17.33363037 17.23828125 17.78125 C15.47039497 18.46338562 15.47039497 18.46338562 13.66679382 19.15930176 C11.16404848 20.12166191 8.66021255 21.08034252 6.15405273 22.03369141 C3.61235472 23.00134662 1.07480454 23.97875679 -1.45922852 24.96630859 C-14.86675062 30.19041927 -27.69971443 35.06549942 -42 37 C-49.5760125 38.57806073 -56.4411417 40.83206778 -63.50390625 44.01171875 C-66 45 -66 45 -69 45 C-69 41.04 -69 37.08 -69 33 C-67.36611328 33.23783203 -67.36611328 33.23783203 -65.69921875 33.48046875 C-49.38263835 35.49986527 -31.82001748 35.88829756 -18.046875 25.734375 C-9.46010293 18.4585605 -5.00150506 9.91369752 0 0 Z " fill="#343F64" transform="translate(397,208)"/>
<path d="M0 0 C8.9930882 1.13555686 15.80736914 5.87726766 21.4609375 12.84375 C28 22.00507614 28 22.00507614 28 27 C25.65331612 28.04196389 23.30024695 29.05816553 20.9375 30.0625 C20.28072266 30.35705078 19.62394531 30.65160156 18.94726562 30.95507812 C14.25273091 32.92077 11.07668629 33.29311821 6 32 C3.34765625 30.80859375 3.34765625 30.80859375 1.0625 29.4375 C0.29035156 28.98246094 -0.48179687 28.52742188 -1.27734375 28.05859375 C-1.84582031 27.70925781 -2.41429687 27.35992187 -3 27 C-2.4262611 17.91076799 -1.38949558 8.99799566 0 0 Z " fill="#FBC62D" transform="translate(278,240)"/>
<path d="M0 0 C-2.15254733 7.65350161 -8.39362169 13.06758466 -15.0078125 16.9921875 C-15.66523438 17.32476562 -16.32265625 17.65734375 -17 18 C-17.69996094 18.36867187 -18.39992188 18.73734375 -19.12109375 19.1171875 C-23.3869565 20.42530823 -27.50209657 20.28876536 -31.9375 20.25 C-32.81857422 20.25773437 -33.69964844 20.26546875 -34.60742188 20.2734375 C-39.47034381 20.25886695 -43.43767521 19.89407882 -48 18 C-41.70061331 10.02388192 -33.04375731 1.70427857 -22.88671875 -0.6796875 C-15.64668329 -1.48304732 -6.94631204 -2.31543735 0 0 Z " fill="#FCC62D" transform="translate(391,125)"/>
<path d="M0 0 C9.38465777 2.93270555 16.84405592 10.77636841 21.8125 19 C25.04123517 27.15680464 25.23912802 34.28511219 25 43 C19.73444272 41.40392456 16.33852428 39.29727845 12 36 C13.32 34.02 14.64 32.04 16 30 C15.39671875 30.13019531 14.7934375 30.26039062 14.171875 30.39453125 C11.72267095 30.81721647 9.48561441 31.08184865 7 31 C4.6875 29.125 4.6875 29.125 3 26 C2.63003906 25.401875 2.26007813 24.80375 1.87890625 24.1875 C-1.94452661 17.20212785 -1.58425587 9.74857379 -1 2 C-0.67 1.34 -0.34 0.68 0 0 Z " fill="#FBC62C" transform="translate(304,94)"/>
<path d="M0 0 C8.23730803 1.90091724 14.15927451 7.25490699 18.6875 14.1875 C28 29.89690421 28 29.89690421 28 34 C16.07972954 32.55971295 5.91737626 29.93363841 -4 23 C-2.81444992 2.81444992 -2.81444992 2.81444992 0 0 Z " fill="#FBC62D" transform="translate(286,194)"/>
<path d="M0 0 C8.51750834 6.34129217 12.57717381 15.83526945 15 26 C15.26478787 28.77600182 15.21471223 31.20874105 15 34 C5.50656361 32.44369895 -2.79195051 28.46238919 -10 22 C-7.707015 14.04199322 -4.05100513 7.18082279 0 0 Z " fill="#FBC62D" transform="translate(303,148)"/>
<path d="M0 0 C6.84065713 0.97380181 11.66115182 4.99220161 15.84375 10.37109375 C20.11695399 17.08463237 22.51821574 23.967656 22 32 C14.47319644 30.26304533 8.19510869 25.33067275 4.0625 18.875 C3.35396524 17.59475099 2.66328183 16.30426847 2 15 C1.566875 14.21625 1.13375 13.4325 0.6875 12.625 C-0.40406863 8.45719249 -0.14968921 4.28277473 0 0 Z " fill="#FCC52C" transform="translate(320,60)"/>
<path d="M0 0 C6.6 0 13.2 0 20 0 C20 5.28 20 10.56 20 16 C13.4 16 6.8 16 0 16 C0 10.72 0 5.44 0 0 Z " fill="#F9AD01" transform="translate(218,165)"/>
<path d="M0 0 C6.27 0 12.54 0 19 0 C19 5.28 19 10.56 19 16 C12.73 16 6.46 16 0 16 C0 10.72 0 5.44 0 0 Z " fill="#F9AC00" transform="translate(218,139)"/>
<path d="M0 0 C6.27 0 12.54 0 19 0 C19 5.28 19 10.56 19 16 C12.73 16 6.46 16 0 16 C0 10.72 0 5.44 0 0 Z " fill="#F9AC00" transform="translate(189,139)"/>
<path d="M0 0 C5.94 0 11.88 0 18 0 C19 7 19 7 19 16 C12.73 16 6.46 16 0 16 C0 10.72 0 5.44 0 0 Z " fill="#F9AD01" transform="translate(218,113)"/>
<path d="M0 0 C5.94 0 11.88 0 18 0 C18 5.28 18 10.56 18 16 C12.06 16 6.12 16 0 16 C0 10.72 0 5.44 0 0 Z " fill="#F9AC00" transform="translate(190,113)"/>
<path d="M0 0 C5.61 0 11.22 0 17 0 C18.11031666 5.5515833 18.06806353 10.35072665 18 16 C12.06 16 6.12 16 0 16 C0 10.72 0 5.44 0 0 Z " fill="#F9AC00" transform="translate(246,113)"/>
<path d="M0 0 C5.61 0 11.22 0 17 0 C17 5.28 17 10.56 17 16 C11.06 16 5.12 16 -1 16 C-0.67 10.72 -0.34 5.44 0 0 Z " fill="#F9AC00" transform="translate(163,113)"/>
<path d="M0 0 C6.27 0 12.54 0 19 0 C19 5.28 19 10.56 19 16 C14.38 16 9.76 16 5 16 C-1.125 4.5 -1.125 4.5 0 0 Z " fill="#F7AB00" transform="translate(189,165)"/>
<path d="M0 0 C5.94 0 11.88 0 18 0 C18.61430318 11.30317848 18.61430318 11.30317848 15.90625 14.375 C10.77132014 17.24614358 5.77454538 16.23331496 0 16 C0 10.72 0 5.44 0 0 Z " fill="#F8AC00" transform="translate(247,139)"/>
<path d="M0 0 C5.61 0 11.22 0 17 0 C17 5.28 17 10.56 17 16 C11.39 16 5.78 16 0 16 C0 10.72 0 5.44 0 0 Z " fill="#F9AD01" transform="translate(218,87)"/>
<path d="M0 0 C5.28 0 10.56 0 16 0 C16 5.28 16 10.56 16 16 C10.39 16 4.78 16 -1 16 C-1.07635002 10.3500987 -0.93649335 5.61896012 0 0 Z " fill="#F9AC00" transform="translate(192,87)"/>
<path d="M0 0 C4.95 0 9.9 0 15 0 C16.46550351 5.47121309 17.28257809 10.26062468 18 16 C12.39 16 6.78 16 1 16 C0.67 10.72 0.34 5.44 0 0 Z " fill="#F9AC00" transform="translate(244,87)"/>
<path d="M0 0 C4.95 0 9.9 0 15 0 C15.125 12.625 15.125 12.625 14 16 C8.72 16 3.44 16 -2 16 C-1.34 10.72 -0.68 5.44 0 0 Z " fill="#F9AC00" transform="translate(167,87)"/>
<path d="M0 0 C5.94 0 11.88 0 18 0 C16.23196827 5.47247917 14.34565002 10.75021185 12 16 C8.04 16 4.08 16 0 16 C0 10.72 0 5.44 0 0 Z " fill="#F8AC01" transform="translate(218,191)"/>
<path d="M0 0 C-3.65370349 5.13802053 -6.7594037 7.70621784 -13 9 C-19.05905661 9.5983081 -24.26840298 8.99359896 -30 7 C-30 6.01 -30 5.02 -30 4 C-28.35546875 2.6484375 -28.35546875 2.6484375 -26.1875 1.375 C-25.12595703 0.73691406 -25.12595703 0.73691406 -24.04296875 0.0859375 C-16.79237413 -3.76810706 -7.50189838 -2.72796305 0 0 Z " fill="#FCC52B" transform="translate(404,62)"/>
<path d="M0 0 C5.57856314 2.45211566 9.58089671 6.85440643 12.08203125 12.3984375 C13.92697291 18.16047205 14.62844271 23.97820945 15 30 C7.59351297 25.03727773 0.85760145 19.10224709 -1 10 C-1.18639327 6.98748172 -1.2723575 4.00860027 -1 1 C-0.67 0.67 -0.34 0.34 0 0 Z " fill="#FCC52B" transform="translate(343,31)"/>
<path d="M0 0 C0.66 0.66 1.32 1.32 2 2 C0.77864002 3.13347055 -0.45249181 4.25641587 -1.6875 5.375 C-2.37199219 6.00148438 -3.05648438 6.62796875 -3.76171875 7.2734375 C-9.42110508 11.63896762 -15.1271956 11.50982287 -22 11 C-24.45910101 10.5090263 -26.63010066 9.84263088 -29 9 C-29 8.01 -29 7.02 -29 6 C-19.44780623 -0.1840792 -11.16046869 -1.29830956 0 0 Z " fill="#FCC52C" transform="translate(390,92)"/>
<path d="M0 0 C4.62 0 9.24 0 14 0 C14.33 5.28 14.66 10.56 15 16 C10.05 16 5.1 16 0 16 C0 10.72 0 5.44 0 0 Z " fill="#F9AD01" transform="translate(218,61)"/>
<path d="M0 0 C0.30435507 4.41314854 0.42293947 7.08056638 -1.4375 11.125 C-4.83606411 14.93802315 -8.64205268 17.38816625 -13 20 C-14.02480469 20.62648438 -14.02480469 20.62648438 -15.0703125 21.265625 C-19.67253521 24 -19.67253521 24 -22 24 C-19.05409972 13.95715815 -14.85078071 7.79106731 -6 2 C-1.47402597 0 -1.47402597 0 0 0 Z " fill="#FCC52C" transform="translate(397,22)"/>
<path d="M0 0 C4.29 0 8.58 0 13 0 C13 5.28 13 10.56 13 16 C8.05 16 3.1 16 -2 16 C-1.34 10.72 -0.68 5.44 0 0 Z " fill="#F9AC00" transform="translate(195,61)"/>
<path d="M0 0 C7.25398658 0.47567125 13.26812223 2.29466594 20 5 C17.58502151 7.71183631 15.01904429 9.2016271 11.8125 10.875 C7.06746975 13.39895226 2.52278525 16.09859059 -2 19 C-2.21432579 12.35590042 -1.51233701 6.46794133 0 0 Z " fill="#F6AC00" transform="translate(274,125)"/>
<path d="M0 0 C3.63 0 7.26 0 11 0 C10.85936865 2.29199177 10.71234057 4.58359186 10.5625 6.875 C10.48128906 8.15117188 10.40007812 9.42734375 10.31640625 10.7421875 C10 14 10 14 9 16 C4.71 16 0.42 16 -4 16 C-3.39523897 10.31524634 -1.90812185 5.39251827 0 0 Z " fill="#F9AD00" transform="translate(174,61)"/>
<path d="M0 0 C2.75236853 5.50473706 3.67743721 10.98835094 5 17 C0.38 17 -4.24 17 -9 17 C-9.33 11.72 -9.66 6.44 -10 1 C-6.7 0.67 -3.4 0.34 0 0 Z " fill="#F9AC00" transform="translate(252,60)"/>
<path d="M0 0 C0.66 0.33 1.32 0.66 2 1 C2 1.66 2 2.32 2 3 C-2.16410477 4.56985419 -6.09246658 5.36988644 -10.47216797 5.93798828 C-19.43489409 7.10181311 -27.34276369 9.23870072 -35.6796875 12.6953125 C-39 14 -39 14 -44 15 C-44 11.04 -44 7.08 -44 3 C-42.36611328 3.23783203 -42.36611328 3.23783203 -40.69921875 3.48046875 C-27.9047591 5.0639554 -14.3559233 5.53462248 -2.23046875 0.77734375 C-1.12638672 0.39255859 -1.12638672 0.39255859 0 0 Z " fill="#3A4261" transform="translate(372,238)"/>
<path d="M0 0 C11.88 1.485 11.88 1.485 24 3 C21.78761856 4.10619072 19.56366869 5.19259197 17.30078125 6.19140625 C9.7494062 9.6561548 4.47970711 13.7730601 -1 20 C-1.97961897 17.06114308 -2.03775226 15.94241475 -1.66015625 12.98828125 C-1.57644775 12.30548096 -1.49273926 11.62268066 -1.40649414 10.91918945 C-1.29297607 10.05898193 -1.17945801 9.19877441 -1.0625 8.3125 C-0.711875 5.569375 -0.36125 2.82625 0 0 Z " fill="#3A4261" transform="translate(332,197)"/>
<path d="M0 0 C5.21559372 1.95203507 10.08720935 4.53094264 15.02929688 7.078125 C18.95054007 9.07033955 22.77048288 10.72915918 27 12 C27.08333357 16.8333472 26.95261487 21.23692563 26 26 C23.77343659 23.89096779 22.04867127 21.70967431 20.3125 19.1875 C15.02165659 12.07222783 7.7432178 8.05085005 0 4 C0 2.68 0 1.36 0 0 Z " fill="#3F465E" transform="translate(289,180)"/>
<path d="M0 0 C2.97 0 5.94 0 9 0 C9.99 5.28 10.98 10.56 12 16 C8.04 16 4.08 16 0 16 C0 10.72 0 5.44 0 0 Z " fill="#F9AD01" transform="translate(218,35)"/>
<path d="M0 0 C5.94 0 11.88 0 18 0 C18 5.28 18 10.56 18 16 C14.55377533 14.27688766 13.16901535 13.35853442 10.6875 10.6875 C8.29165348 8.19830881 5.91929459 6.13058296 3.0625 4.1875 C2.051875 3.465625 1.04125 2.74375 0 2 C0 1.34 0 0.68 0 0 Z " fill="#F2AB00" transform="translate(161,139)"/>
<path d="M0 0 C2.64 0 5.28 0 8 0 C8 5.28 8 10.56 8 16 C4.37 16 0.74 16 -3 16 C-2.54065039 10.33468819 -2.10318672 5.32807302 0 0 Z " fill="#F9AC00" transform="translate(200,35)"/>
<path d="M0 0 C3.34931318 0.61760385 6.51462724 1.44268864 9.75 2.5 C14.52032407 3.96834299 19.0310501 4.59927823 24 5 C24.10251672 10.12583611 24.03590199 14.94997778 23 20 C20.21684414 17.29870166 17.69772755 14.62048404 15.3125 11.5625 C12.16190812 7.79495149 8.43688001 5.62039576 4.171875 3.26171875 C2 2 2 2 0 0 Z " fill="#42475D" transform="translate(288,232)"/>
<path d="M0 0 C1.98 0 3.96 0 6 0 C5.01 5.28 4.02 10.56 3 16 C-0.3 16 -3.6 16 -7 16 C-6.21012527 14.08259417 -5.41802852 12.16610359 -4.625 10.25 C-3.96371094 8.64898437 -3.96371094 8.64898437 -3.2890625 7.015625 C-2.26692415 4.62444074 -1.19786405 2.30616817 0 0 Z " fill="#F9AC01" transform="translate(184,35)"/>
<path d="M0 0 C1.65 0 3.3 0 5 0 C6.17154293 2.28929053 7.33738074 4.58118362 8.5 6.875 C8.83386719 7.52597656 9.16773438 8.17695312 9.51171875 8.84765625 C12 13.7734375 12 13.7734375 12 16 C9.03 16 6.06 16 3 16 C2.49411853 14.08487728 1.99551609 12.16783078 1.5 10.25 C1.2215625 9.18265625 0.943125 8.1153125 0.65625 7.015625 C0 4 0 4 0 0 Z " fill="#F9AD00" transform="translate(237,35)"/>
<path d="M0 0 C2.97 0 5.94 0 9 0 C9 5.28 9 10.56 9 16 C7.35 16 5.7 16 4 16 C3.32815382 13.89748139 2.66269032 11.79292237 2 9.6875 C1.443125 7.92986328 1.443125 7.92986328 0.875 6.13671875 C0 3 0 3 0 0 Z " fill="#F7AB00" transform="translate(199,191)"/>
<path d="M0 0 C2.97 0 5.94 0 9 0 C7.68 5.28 6.36 10.56 5 16 C3.35 16 1.7 16 0 16 C0 10.72 0 5.44 0 0 Z " fill="#F8AD02" transform="translate(218,217)"/>
<path d="M0 0 C4.74018901 1.83491188 9.36413251 3.91941459 14 6 C9.27097529 9.15268314 4.79349678 11.52668153 -1 11 C-1.125 3.375 -1.125 3.375 0 0 Z " fill="#F5AB02" transform="translate(275,267)"/>
<path d="M0 0 C0 0.66 0 1.32 0 2 C-9.62764251 5.50499428 -19.89725743 6.77241098 -30 5 C-30 4.67 -30 4.34 -30 4 C-28.60201172 3.96132812 -28.60201172 3.96132812 -27.17578125 3.921875 C-19.07994622 3.56169629 -12.22237801 2.49260716 -4.51171875 -0.2578125 C-2 -1 -2 -1 0 0 Z " fill="#716145" transform="translate(374,239)"/>
<path d="M0 0 C1.62276158 2.43414237 2.61744792 4.31319446 3.625 7 C3.88539063 7.680625 4.14578125 8.36125 4.4140625 9.0625 C5 11 5 11 5 14 C3.35 14 1.7 14 0 14 C0 9.38 0 4.76 0 0 Z " fill="#F9B106" transform="translate(218,11)"/>
<path d="M0 0 C0.33 0 0.66 0 1 0 C1 3.96 1 7.92 1 12 C-0.65 12 -2.3 12 -4 12 C-2.66666667 8 -1.33333333 4 0 0 Z " fill="#F9AE03" transform="translate(207,13)"/>
<path d="M0 0 C0 3 0 3 -1.96875 5.26171875 C-2.8040625 6.06222656 -3.639375 6.86273438 -4.5 7.6875 C-5.3353125 8.49574219 -6.170625 9.30398437 -7.03125 10.13671875 C-7.6809375 10.75160156 -8.330625 11.36648437 -9 12 C-9.66 11.67 -10.32 11.34 -11 11 C-9.92173635 9.72486237 -8.83714481 8.45507431 -7.75 7.1875 C-7.14671875 6.47980469 -6.5434375 5.77210937 -5.921875 5.04296875 C-4.07629602 3.08110329 -2.20054668 1.54330375 0 0 Z " fill="#FCCB1E" transform="translate(202,13)"/>
<path d="M0 0 C0.99 0 1.98 0 3 0 C3 4.95 3 9.9 3 15 C1.1155829 11.2311658 0.66570538 9.31987525 0.375 5.25 C0.30023438 4.26515625 0.22546875 3.2803125 0.1484375 2.265625 C0.09945312 1.51796875 0.05046875 0.7703125 0 0 Z " fill="#F1BA10" transform="translate(206,217)"/>
</svg>
