<?xml version="1.0" encoding="UTF-8"?>
<svg version="1.1" xmlns="http://www.w3.org/2000/svg" width="512" height="512">
<path d="M0 0 C0.88023834 0.00215515 1.76047668 0.0043103 2.66738892 0.00653076 C29.78709871 0.1130117 60.79183928 2.60279506 81.86328125 21.578125 C88.62930188 29.13189603 93.29272248 37.63515572 97.625 46.75 C98.17824951 47.90491943 98.73149902 49.05983887 99.30151367 50.24975586 C114.3125 82.22011441 114.3125 82.22011441 114.3125 90.3125 C115.80910156 90.498125 115.80910156 90.498125 117.3359375 90.6875 C141.31802606 94.14957594 168.76002719 106.20932067 183.8125 125.5625 C188.77869685 132.31883757 189.34868887 139.12385699 188.3125 147.3125 C183.36375604 162.05306475 171.26787111 170.81650163 157.82958984 177.55810547 C130.64030587 190.3125 130.64030587 190.3125 120.3125 190.3125 C120.63476562 191.30765625 120.95703125 192.3028125 121.2890625 193.328125 C124.17739591 203.50119312 123.23170366 214.97667385 118.3125 224.3125 C116.54369861 227.23331612 114.60292407 229.78302682 112.3125 232.3125 C111.82265625 232.86808594 111.3328125 233.42367187 110.828125 233.99609375 C107.07745789 237.71890937 104.03663846 238.65040405 98.875 239.6875 C94.52329763 240.85892046 92.20141086 241.94559583 89.94140625 245.80078125 C88.19053557 249.26942487 86.69508548 252.84779407 85.18017578 256.42431641 C83.26507563 260.59184161 80.32627495 263.90590395 77.3125 267.3125 C76.64734375 268.10785156 75.9821875 268.90320313 75.296875 269.72265625 C62.89240639 284.15735263 47.69499274 293.9308935 30.3125 301.3125 C29.9825 308.5725 29.6525 315.8325 29.3125 323.3125 C31.2925 323.6425 33.2725 323.9725 35.3125 324.3125 C38.48427001 325.40006315 41.51036404 326.80172111 44.5625 328.1875 C45.437854 328.58461182 46.31320801 328.98172363 47.21508789 329.39086914 C65.4928436 337.8967832 81.73383818 349.43001024 96.3125 363.3125 C96.89902344 363.86647461 97.48554688 364.42044922 98.08984375 364.99121094 C114.40018314 380.48931512 128.36432529 398.01508236 138.3125 418.3125 C138.56644531 417.29671875 138.82039063 416.2809375 139.08203125 415.234375 C141.15885417 406.92708333 143.23567708 398.61979167 145.3125 390.3125 C144.3225 389.9825 143.3325 389.6525 142.3125 389.3125 C142.84661786 380.45351063 144.45539913 371.96729083 146.3125 363.3125 C145.57515625 363.044375 144.8378125 362.77625 144.078125 362.5 C130.2918208 356.58045695 121.01864094 342.64832092 115.3125 329.3125 C113.88170558 325.33697087 112.95897159 321.48468643 112.3125 317.3125 C112.14878906 316.260625 111.98507812 315.20875 111.81640625 314.125 C111.0959518 307.7077562 111.32446057 301.78895614 112.3671875 295.42578125 C112.49569092 294.62960388 112.62419434 293.83342651 112.7565918 293.01312256 C114.87649251 280.42976557 117.65564287 267.96184083 120.35546875 255.49267578 C121.16068691 251.77285985 121.95450553 248.05071061 122.74542236 244.32783127 C123.36325298 241.42700001 123.98773439 238.52763061 124.61413574 235.62863922 C124.90974755 234.25610766 125.20317446 232.88310345 125.4942627 231.50960541 C129.02974794 214.86381113 129.02974794 214.86381113 133.4375 209.9375 C137.37575913 207.71152745 140.79598933 206.9954162 145.3125 207.3125 C149.35557495 208.56429821 151.83366691 210.6174197 154.25 214.125 C156.21437607 220.01812822 155.25093119 225.46436719 153.93554688 231.421875 C153.78924332 232.09440308 153.64293976 232.76693115 153.49220276 233.45983887 C153.17619894 234.9080528 152.85688598 236.35554795 152.53456116 237.80236816 C152.02358287 240.09692946 151.52182667 242.39334153 151.02233887 244.69042969 C149.7804494 250.39272402 148.52293377 256.09154957 147.26593018 261.79052734 C146.202445 266.61499656 145.14493754 271.44070216 144.0952301 276.26818848 C143.60254537 278.52226048 143.10120805 280.77429208 142.5994873 283.02636719 C142.29571474 284.41852651 141.99234875 285.81077462 141.68945312 287.203125 C141.42297974 288.41000977 141.15650635 289.61689453 140.88195801 290.86035156 C140.29690476 294.40704092 140.21145144 297.72463125 140.3125 301.3125 C141.3025 301.6425 142.2925 301.9725 143.3125 302.3125 C146.66967417 300.07438389 146.85557334 299.14830779 147.66781616 295.37071228 C147.80192902 294.68602371 147.93604187 294.00133514 148.07421875 293.29589844 C148.22589508 292.57372635 148.37757141 291.85155426 148.53384399 291.10749817 C149.03377879 288.71446828 149.51655252 286.31828487 150 283.921875 C150.34593655 282.25731533 150.69320458 280.59303187 151.04174805 278.92901611 C151.95832968 274.54067645 152.86156044 270.14971082 153.76062012 265.75775146 C155.19724611 258.74160824 156.64577801 251.72802017 158.10977173 244.71753693 C158.61723988 242.27177519 159.11402969 239.82400918 159.61010742 237.37591553 C159.92322447 235.86607875 160.23676056 234.35632879 160.55078125 232.84667969 C160.6848941 232.17008804 160.81900696 231.4934964 160.95718384 230.79640198 C162.0975294 225.39716863 163.68536653 220.93963347 167.625 217 C171.91085945 214.30887895 174.91338724 214.09158746 179.875 214.875 C183.91481025 216.56437519 186.30283427 218.46217426 188.3125 222.3125 C190.24157504 230.93586743 188.05094535 238.82380344 186.12890625 247.2578125 C185.78973014 248.79728 185.45202224 250.33707164 185.1157074 251.87716675 C184.23164466 255.9114259 183.33204422 259.94203856 182.42773438 263.97180176 C180.9808055 270.4264211 179.55262349 276.88513536 178.13416862 283.34606552 C177.63802771 285.59153004 177.13210967 287.83462706 176.62513733 290.07766724 C176.31819029 291.46332353 176.01156822 292.84905187 175.70532227 294.23486328 C175.30108788 296.03614182 175.30108788 296.03614182 174.88868713 297.87380981 C174.2949579 301.41719144 174.21041042 304.72664136 174.3125 308.3125 C176.20429203 308.9939823 176.20429203 308.9939823 178.3125 309.3125 C180.98052959 306.64447041 181.24157304 303.87138423 181.96069336 300.29589844 C182.11222366 299.57372635 182.26375397 298.85155426 182.4198761 298.10749817 C182.74837491 296.53726968 183.07340504 294.9663125 183.39539909 293.39473724 C183.90588265 290.90461236 184.42583165 288.41663533 184.94837952 285.92901611 C186.24507023 279.74659696 187.5260915 273.56095409 188.80609131 267.37506104 C189.88682171 262.15428903 190.97422937 256.93499875 192.07083321 251.71753693 C192.58205088 249.27165931 193.08338948 246.82388933 193.5844574 244.37591553 C193.90077536 242.86606535 194.21756882 241.35631469 194.53491211 239.84667969 C194.73843796 238.83179222 194.73843796 238.83179222 194.94607544 237.79640198 C196.13228861 232.23974 197.67503563 227.79401538 201.9375 223.9375 C206.26210367 221.85528342 209.59757997 221.49288129 214.3125 222.3125 C218.35241934 224.18283303 219.94038781 225.70031544 222.25 229.5 C224.64493376 238.09358583 221.30045154 247.57437248 219.4288311 256.10552406 C218.92462315 258.40417766 218.42611272 260.70400479 217.92897034 263.00419617 C216.87433336 267.87889448 215.81256199 272.75202399 214.75 277.625 C213.51455697 283.29266095 212.28207344 288.96093837 211.05629158 294.63069725 C210.56554199 296.89374013 210.06980644 299.15565298 209.57383728 301.41755676 C209.27351522 302.80346619 208.97341856 304.18942448 208.67358398 305.57543945 C208.4101268 306.78295364 208.14666962 307.99046783 207.87522888 309.23457336 C207.19260253 312.44680568 207.19260253 312.44680568 207.3125 316.3125 C208.9625 316.3125 210.6125 316.3125 212.3125 316.3125 C214.45707923 311.61857166 215.92944332 307.26775051 216.98242188 302.18725586 C217.19530602 301.17605431 217.19530602 301.17605431 217.41249084 300.14442444 C217.71685096 298.69430906 218.0179082 297.24349716 218.31593323 295.79206657 C218.78880225 293.49058652 219.27105801 291.19124718 219.7557373 288.89222717 C220.95692755 283.1855908 222.14316781 277.47587206 223.32794189 271.76580811 C224.33178119 266.92958271 225.34225327 262.09484127 226.36195374 257.26193428 C226.83545594 255.00438785 227.29915447 252.74497059 227.76257324 250.4853363 C228.05540636 249.09290177 228.34871633 247.70056741 228.64257812 246.30834961 C229.01872253 244.49469154 229.01872253 244.49469154 229.40246582 242.64439392 C230.72825025 237.79032011 232.20578794 234.29052461 236 230.9375 C240.0394536 228.95588125 242.90362731 228.5908881 247.3125 229.3125 C250.72449876 230.53566937 252.71683045 231.67711915 255.1875 234.3125 C258.8542775 244.09057335 255.12245409 255.50182508 252.98828125 265.3359375 C252.64086504 266.97044888 252.29413223 268.60510564 251.94804382 270.23989868 C251.22301283 273.65208999 250.4900383 277.06244776 249.7512207 280.47167969 C248.81295656 284.80413596 247.89428253 289.14046491 246.98157978 293.47836876 C246.26954412 296.8518757 245.54716582 300.22310603 244.82179832 303.59376907 C244.47949839 305.19002262 244.14023234 306.78693034 243.80428505 308.38453293 C239.28064086 329.82102121 231.90603639 348.47019834 212.9375 361.125 C202.88921209 367.13413127 192.15754241 371.542298 180.3125 371.3125 C180.23 372.488125 180.1475 373.66375 180.0625 374.875 C179.31211829 381.86362966 177.22246856 388.56986681 175.3125 395.3125 C173.9925 395.6425 172.6725 395.9725 171.3125 396.3125 C171.20292969 396.8708252 171.09335937 397.42915039 170.98046875 398.00439453 C170.42704563 400.81594148 169.86988162 403.62673511 169.3125 406.4375 C168.99224854 408.06171875 168.99224854 408.06171875 168.66552734 409.71875 C167.24176378 416.8701279 165.73413174 423.99676176 164.1640625 431.1171875 C163.60678356 433.67005315 163.05056777 436.22314837 162.49462891 438.77630615 C162.12535831 440.45732072 161.75106527 442.13724042 161.37158203 443.815979 C160.83129027 446.20802932 160.3087152 448.60339369 159.7890625 451 C159.62475739 451.70550995 159.46045227 452.4110199 159.29116821 453.13790894 C157.61663847 461.03362354 159.09107411 468.10879827 161.125 475.83984375 C161.4817995 477.2232999 161.83856943 478.60676367 162.1953125 479.99023438 C162.75278342 482.12091957 163.3127451 484.25092999 163.87402344 486.38061523 C168.67567736 504.67795462 168.67567736 504.67795462 168.3125 510.3125 C165.68502568 512.93997432 164.55205336 512.56300014 160.88702393 512.56418228 C159.7277879 512.56939778 158.56855186 512.57461327 157.37418747 512.57998681 C155.4472801 512.57329465 155.4472801 512.57329465 153.48144531 512.56646729 C152.11170918 512.56876974 150.74197427 512.57194482 149.37224197 512.57592177 C145.59526608 512.58430801 141.81839062 512.58012725 138.04141426 512.57394934 C133.97319974 512.56944142 129.90500302 512.57640032 125.83679199 512.58190918 C117.86201706 512.59082265 109.88727968 512.5888725 101.91250324 512.5830839 C95.43373111 512.57857507 88.95496954 512.57795112 82.47619629 512.58013153 C81.55562478 512.580438 80.63505328 512.58074446 79.68658566 512.58106022 C77.81671619 512.58169964 75.94684672 512.58234806 74.07697725 512.5830054 C56.5253296 512.58871441 38.97370281 512.58214185 21.42205858 512.57140467 C6.34776819 512.56246864 -8.72649141 512.56402052 -23.80078125 512.57324219 C-41.28776685 512.58393474 -58.77473415 512.58816504 -76.26172256 512.58201766 C-78.12488047 512.58138053 -79.98803838 512.58075179 -81.85119629 512.58013153 C-82.7680095 512.57982298 -83.68482271 512.57951443 -84.62941813 512.57919653 C-91.10365788 512.57746654 -97.57788607 512.58039122 -104.05212402 512.58509064 C-111.9373956 512.59068822 -119.82262734 512.58920677 -127.70789433 512.57852915 C-131.73440813 512.57325724 -135.7608554 512.57124138 -139.78736877 512.57782745 C-143.46854837 512.5837578 -147.14959934 512.58056046 -150.83076715 512.56987235 C-152.80357402 512.56655616 -154.77638971 512.57313527 -156.74918747 512.57998681 C-157.9084235 512.57477132 -159.06765953 512.56955582 -160.26202393 512.56418228 C-161.26871754 512.56385758 -162.27541115 512.56353287 -163.31261063 512.56319833 C-165.6875 512.3125 -165.6875 512.3125 -167.6875 510.3125 C-167.25218153 501.89634284 -165.29870709 493.57120301 -163.6875 485.3125 C-164.18378906 485.57804687 -164.68007812 485.84359375 -165.19140625 486.1171875 C-173.47626051 490.42468289 -180.3923721 491.61505389 -189.6875 491.3125 C-191.18571059 487.94152617 -191.6875 486.10807881 -191.6875 482.3125 C-192.6053125 482.6734375 -193.523125 483.034375 -194.46875 483.40625 C-207.13218957 488.19494564 -207.13218957 488.19494564 -213.6875 487.3125 C-215.6875 485.3125 -215.6875 485.3125 -216 483.0625 C-215.61489937 479.67361446 -214.25890755 477.3143445 -212.6875 474.3125 C-213.50992188 474.66183594 -214.33234375 475.01117188 -215.1796875 475.37109375 C-229.25266338 481.10753773 -229.25266338 481.10753773 -235.6875 480.3125 C-237.4609375 478.94921875 -237.4609375 478.94921875 -238.6875 477.3125 C-238.6875 472.31940412 -235.37540383 468.30964111 -232.6875 464.3125 C-233.6775 464.6425 -234.6675 464.9725 -235.6875 465.3125 C-237.97682678 465.43343495 -240.27001324 465.48788326 -242.5625 465.5 C-243.77679688 465.51417969 -244.99109375 465.52835937 -246.2421875 465.54296875 C-249.7403511 465.30896461 -253.10414801 464.89585199 -255.6875 462.3125 C-256.0703125 459.4609375 -256.0703125 459.4609375 -255.6875 456.3125 C-253.4921875 454.4765625 -253.4921875 454.4765625 -250.5625 452.9375 C-234.95098452 443.75072358 -231.34743604 422.87053403 -225.8125 406.75 C-224.66401084 403.41811597 -223.51425887 400.08666943 -222.36442566 396.75524902 C-221.58632549 394.50059976 -220.80866782 392.24579774 -220.03144836 389.99084473 C-217.73433893 383.32944965 -215.42025077 376.67441543 -213.08203125 370.02734375 C-203.83209167 343.71363494 -194.88615161 317.30037368 -185.98608398 290.86669922 C-177.31342232 265.11130482 -177.31342232 265.11130482 -174.2109375 256.18359375 C-173.80149902 255.0020874 -173.39206055 253.82058105 -172.97021484 252.60327148 C-164.19462084 230.08971388 -147.68826924 211.17204093 -126.6875 199.3125 C-124.70960583 198.58285686 -122.71468722 197.89125421 -120.6875 197.3125 C-120.3575 195.0025 -120.0275 192.6925 -119.6875 190.3125 C-120.945625 190.126875 -122.20375 189.94125 -123.5 189.75 C-144.54933815 185.49249596 -171.04753096 174.44504611 -183.6875 156.3125 C-188.11249572 149.40422311 -188.77845138 142.37178049 -187.6875 134.3125 C-184.05517515 121.68150101 -172.60393959 113.48407809 -161.6875 107.3125 C-152.71051268 102.45548939 -143.7365035 98.64241051 -134.03369141 95.51196289 C-132.02447886 94.862714 -130.02196927 94.19521171 -128.01953125 93.52539062 C-118.26463799 90.3125 -118.26463799 90.3125 -113.6875 90.3125 C-113.52822021 89.74362061 -113.36894043 89.17474121 -113.20483398 88.58862305 C-106.67273519 65.99066638 -97.13567672 35.021502 -78.6875 19.3125 C-77.95660156 18.67828125 -77.22570312 18.0440625 -76.47265625 17.390625 C-55.87394037 1.35036039 -24.97993022 -0.11028927 0 0 Z " fill="#3C342D" transform="translate(255.6875,-0.3125)"/>
<path d="M0 0 C0.34611328 1.50626953 0.34611328 1.50626953 0.69921875 3.04296875 C3.89102305 16.58441077 8.01229387 28.45102439 16 40 C20.70015658 47.05023487 17.33720987 58.08476051 16 66 C15.88172852 66.7312207 15.76345703 67.46244141 15.64160156 68.21582031 C11.73905465 91.83963483 4.80295517 112.51699268 -12 130 C-12.73347656 130.78503906 -13.46695313 131.57007813 -14.22265625 132.37890625 C-19.35684521 137.73041538 -24.75634535 142.01331088 -31 146 C-31.88042969 146.58652344 -32.76085937 147.17304688 -33.66796875 147.77734375 C-51.1873711 158.8206084 -72.77645223 162.94144023 -93.21484375 159.38671875 C-111.9345389 154.85163786 -127.17690145 144.03978963 -141 131 C-141.7115625 130.35289062 -142.423125 129.70578125 -143.15625 129.0390625 C-159.84193679 113.31601149 -165.65373787 90.02856655 -169.59326172 68.24121094 C-169.94438032 66.30647577 -170.31597848 64.37547789 -170.69140625 62.4453125 C-171.21365511 59.63320327 -171.64579604 56.83779882 -172 54 C-172.11988281 53.07058594 -172.23976562 52.14117187 -172.36328125 51.18359375 C-172.85155797 44.29984941 -171.07081721 40.88663934 -166.875 35.5234375 C-159.48446247 25.57700574 -156.02634063 12.0513943 -154 0 C-103.30764597 -12.49038343 -50.61496481 -14.80152628 0 0 Z " fill="#F5B5AC" transform="translate(333,137)"/>
<path d="M0 0 C3.55354454 0.01134994 7.10678804 0.00462244 10.66032219 -0.00686169 C35.57453376 -0.07545155 60.29501914 0.92987871 84.90429688 5.07324219 C86.53326744 5.33954128 88.16225537 5.60573414 89.79125977 5.87182617 C107.02985905 8.72540749 124.16580729 11.97653991 140.52929688 18.26074219 C141.636521 18.68395752 141.636521 18.68395752 142.76611328 19.11572266 C159.10031934 25.4554217 177.25483722 32.64727148 185.64648438 49.06933594 C187.25050676 53.05100213 187.26654521 56.18903317 185.83007812 60.22558594 C178.38850792 76.58448078 160.44568135 84.20500321 144.52929688 90.26074219 C140.59208151 91.68306957 136.63425251 93.02562992 132.65429688 94.32324219 C131.70876953 94.63471191 130.76324219 94.94618164 129.7890625 95.26708984 C128.4577832 95.6835376 128.4577832 95.6835376 127.09960938 96.10839844 C126.31344238 96.355979 125.52727539 96.60355957 124.71728516 96.85864258 C120.69553497 97.59774351 118.69888737 96.36836693 115.27929688 94.19824219 C114.37179687 93.55886719 113.46429688 92.91949219 112.52929688 92.26074219 C113.45554048 89.4048244 114.41130292 86.56975095 115.48242188 83.76464844 C117.80591454 77.65247557 119.46551398 71.71342529 120.52929688 65.26074219 C122.50929688 65.26074219 124.48929687 65.26074219 126.52929688 65.26074219 C126.85929687 63.61074219 127.18929688 61.96074219 127.52929688 60.26074219 C100.72709081 45.33293121 69.63834164 39.1649126 39.52929688 35.26074219 C38.28962158 35.08422119 37.04994629 34.9077002 35.77270508 34.72583008 C31.2280403 34.163401 26.72530699 34.09946419 22.15039062 34.09277344 C20.82835632 34.08648926 20.82835632 34.08648926 19.47961426 34.08007812 C16.64196243 34.07034775 13.80446255 34.07028027 10.96679688 34.07324219 C9.99976837 34.0735141 9.03273987 34.07378601 8.03640747 34.07406616 C-6.21067842 34.09254909 -20.33319757 34.32446094 -34.47070312 36.26074219 C-35.26041504 36.36789551 -36.05012695 36.47504883 -36.86376953 36.58544922 C-62.21839165 40.16437369 -92.93657525 45.90465694 -114.47070312 60.26074219 C-113.97570312 62.73574219 -113.97570312 62.73574219 -113.47070312 65.26074219 C-111.49070313 65.26074219 -109.51070312 65.26074219 -107.47070312 65.26074219 C-107.26707153 66.07696045 -107.26707153 66.07696045 -107.05932617 66.90966797 C-106.43280386 69.40356082 -105.79559771 71.89460692 -105.15820312 74.38574219 C-104.94486328 75.24167969 -104.73152344 76.09761719 -104.51171875 76.97949219 C-103.28155045 81.75327961 -101.7963173 85.88231315 -99.47070312 90.26074219 C-99.47070312 92.26074219 -99.47070312 92.26074219 -100.79101562 93.58496094 C-101.3865625 94.03484375 -101.98210937 94.48472656 -102.59570312 94.94824219 C-103.17578125 95.40585938 -103.75585938 95.86347656 -104.35351562 96.33496094 C-111.31109242 99.37729618 -124.8998732 93.01904567 -131.82275391 90.35595703 C-163.84953171 77.23373519 -163.84953171 77.23373519 -171.61523438 63.55761719 C-173.67867273 58.01742654 -173.71750213 52.18958639 -171.39648438 46.73730469 C-157.65818946 24.6807545 -124.60430468 16.1138753 -100.98046875 10.41943359 C-84.92344756 6.75179505 -68.83930281 4.02631499 -52.47070312 2.26074219 C-51.60504227 2.16716431 -50.73938141 2.07358643 -49.8474884 1.97717285 C-33.23282446 0.24830715 -16.68436555 -0.05376051 0 0 Z " fill="#DEAB68" transform="translate(249.470703125,85.7392578125)"/>
<path d="M0 0 C24.42 0 48.84 0 74 0 C74.33 11.22 74.66 22.44 75 34 C78.69043278 41.38086555 80.70115383 44.87572158 88 48 C94.23617544 48.80433084 99.47694798 48.14055899 105 45 C110.26608878 40.69138191 112.66214651 35.91629944 113.43237305 29.26782227 C113.45855713 27.96385498 113.48474121 26.6598877 113.51171875 25.31640625 C113.52966995 24.61603745 113.54762115 23.91566864 113.56611633 23.19407654 C113.61977555 20.98361011 113.65396932 18.77335388 113.6875 16.5625 C113.72071257 15.05270539 113.75520581 13.54293837 113.79101562 12.03320312 C113.87547395 8.35567067 113.9424955 4.67806409 114 1 C118.87479842 1.66658155 121.41891131 2.51838599 125 6 C127.77042665 9.88719884 127.26584324 14.33083422 127.22705078 18.89941406 C127.22729185 19.81181728 127.22753292 20.7242205 127.2277813 21.66427231 C127.22628969 24.61482274 127.21106382 27.56511983 127.1953125 30.515625 C127.19237159 32.33837767 127.19033145 34.16113202 127.18920898 35.98388672 C127.17872716 42.73928359 127.15080472 49.49464429 127.125 56.25 C127.08375 71.3475 127.0425 86.445 127 102 C67.6 102 8.2 102 -53 102 C-53.0825 86.94375 -53.165 71.8875 -53.25 56.375 C-53.28641602 51.62657715 -53.32283203 46.8781543 -53.36035156 41.98583984 C-53.37841797 36.1730957 -53.37841797 36.1730957 -53.3817749 33.4491272 C-53.38790439 31.55268599 -53.40194627 29.65626007 -53.42230225 27.75991821 C-53.45164372 24.8818263 -53.45562209 22.00468424 -53.45410156 19.12646484 C-53.468494 18.28616415 -53.48288643 17.44586346 -53.497715 16.58009911 C-53.46000172 11.23626008 -52.50484034 8.26531106 -49 4 C-46.62735616 1.70389305 -45.69307706 1.01853698 -42.37109375 0.9296875 C-41.58863281 0.95289063 -40.80617187 0.97609375 -40 1 C-39.99589111 1.91700684 -39.99178223 2.83401367 -39.98754883 3.77880859 C-39.96035111 7.2274794 -39.91104305 10.67443914 -39.84741211 14.12255859 C-39.82441656 15.60617348 -39.80988027 17.08994734 -39.80444336 18.57373047 C-39.76534797 27.49349481 -39.51051167 35.51426377 -34 43 C-28.55387236 47.55696394 -23.53567688 48.42556846 -16.6015625 48.34375 C-10.77550291 47.57394032 -7.08334153 44.38889939 -3.5625 39.875 C3.3258312 27.20047059 -0.52811812 17.95601614 0 0 Z " fill="#1497B6" transform="translate(219,402)"/>
<path d="M0 0 C16.10634496 14.38066514 24.37161481 41.09353129 31 61 C31 61.66 31 62.32 31 63 C30.3908374 62.88462891 29.7816748 62.76925781 29.15405273 62.65039062 C21.51871684 61.23090685 13.86069517 59.98138838 6.18188477 58.82275391 C4.79870051 58.61211348 3.41616708 58.39714071 2.03442383 58.17724609 C-22.316027 54.307248 -46.85650663 53.6418974 -71.4621582 53.68432617 C-74.35717314 53.68895534 -77.25176756 53.68201437 -80.14672852 53.66381836 C-112.80127407 53.4608683 -144.96846213 56.3401516 -177 63 C-175.10223135 56.32833579 -172.91581336 49.86587972 -170.3125 43.4375 C-169.96509766 42.57833984 -169.61769531 41.71917969 -169.25976562 40.83398438 C-153.02674894 1.14352735 -153.02674894 1.14352735 -132.71875 -7.58984375 C-95.95838399 -21.52943632 -32.53579924 -26.51799898 0 0 Z " fill="#EFC07C" transform="translate(329,25)"/>
<path d="M0 0 C0.66 0 1.32 0 2 0 C2.39832031 0.83144531 2.39832031 0.83144531 2.8046875 1.6796875 C3.15789062 2.40414063 3.51109375 3.12859375 3.875 3.875 C4.39707031 4.95394531 4.39707031 4.95394531 4.9296875 6.0546875 C5.96557543 8.15135019 5.96557543 8.15135019 8 10 C13.00755494 9.8807725 16.1883178 7.82943554 20.16796875 5.05859375 C22 4 22 4 25 4 C26.5 5.6796875 26.5 5.6796875 28 7.875 C29.94357251 10.6992538 31.07797699 12.05198466 34 14 C40.28516279 13.66026147 44.88883528 9.42740816 49 5 C53.0959429 6.79710635 55.76023047 9.51959246 58.90234375 12.63671875 C60.94183183 14.25626346 60.94183183 14.25626346 63.55859375 13.85546875 C68.25237179 12.21076893 71.56487265 8.47577975 75 5 C75.36351562 5.45890625 75.72703125 5.9178125 76.1015625 6.390625 C79.39568242 10.41114059 82.36397351 13.58120357 87 16 C92.40347281 15.22807531 96.55270613 11.89066618 99.78515625 7.66796875 C101.24644142 5.47431371 102.65273323 3.26518479 104 1 C108.29211779 2.50023556 111.82850807 4.77860829 115.5625 7.3125 C121.77414602 11.43399093 128.00240734 14.35456863 135 17 C135 24.59 135 32.18 135 40 C125 44 125 44 122 44 C120.48484483 40.96968967 120.35175359 37.7013029 119.9375 34.375 C119.80118164 33.31539063 119.80118164 33.31539063 119.66210938 32.234375 C119.43816881 30.4899959 119.21866182 28.74504866 119 27 C117.02 27 115.04 27 113 27 C112.90499381 31.84531566 113.02438336 36.24386887 114 41 C114.06553575 43.66828804 114.02168183 46.33042491 114 49 C111.54429825 50.33838733 109.08570084 51.67086232 106.625 53 C105.57699219 53.57234375 105.57699219 53.57234375 104.5078125 54.15625 C99.2265625 57 99.2265625 57 97 57 C95.02 42.645 95.02 42.645 93 28 C91.35 27.67 89.7 27.34 88 27 C87.67 27.33 87.34 27.66 87 28 C87.06811237 29.91953036 87.208801 31.83646557 87.375 33.75 C87.4575 35.00941406 87.54 36.26882813 87.625 37.56640625 C87.86302808 40.81028263 88.27962753 43.99690811 88.75 47.21484375 C90.42277548 60.48283247 90.42277548 60.48283247 87.94433594 64.86767578 C85.04720796 68.21372626 81.50127306 70.57307531 77.76025391 72.88964844 C75.16132193 74.52903021 72.81509145 76.43254608 70.4375 78.375 C69.55320312 79.09558594 68.66890625 79.81617188 67.7578125 80.55859375 C59.23929713 88.09977237 51.91062139 96.99586683 45 106 C44.34 105.67 43.68 105.34 43 105 C42.68758545 102.28553021 42.48663408 99.66090639 42.375 96.9375 C42.33632812 96.17888672 42.29765625 95.42027344 42.2578125 94.63867188 C42.16326438 92.75952805 42.08053244 90.87979664 42 89 C39.64789174 88.60268248 39.64789174 88.60268248 37 89 C35.04250346 91.04796044 35.04250346 91.04796044 33.5 93.75 C31.02362218 97.57565151 28.85014839 100.4332344 25 103 C23 102 23 102 21.9375 100 C20.69961711 96.03877476 20.34136319 92.12330796 20 88 C18.35 87.67 16.7 87.34 15 87 C14.54109375 87.74765625 14.0821875 88.4953125 13.609375 89.265625 C12.99578125 90.25046875 12.3821875 91.2353125 11.75 92.25 C11.14671875 93.22453125 10.5434375 94.1990625 9.921875 95.203125 C8.13945558 97.79705245 6.29898372 99.86377619 4 102 C3.01 101.67 2.02 101.34 1 101 C0.01 95.39 -0.98 89.78 -2 84 C-3.65 84 -5.3 84 -7 84 C-8.92320793 86.01486257 -8.92320793 86.01486257 -10.4375 88.6875 C-13.2578997 93.02894495 -15.75806164 96.04050812 -20 99 C-20.66 99 -21.32 99 -22 99 C-23.14982602 94.90996141 -23.11094256 90.96822949 -23.0625 86.75 C-23.05798828 86.00492187 -23.05347656 85.25984375 -23.04882812 84.4921875 C-23.03709246 82.6614236 -23.0191585 80.83070127 -23 79 C-25.20390502 77.9726969 -25.20390502 77.9726969 -28 78 C-30.14788044 79.91925451 -31.82756213 81.6677068 -33.625 83.875 C-38.67221931 89.89073977 -38.67221931 89.89073977 -42 91 C-39.94360336 83.0276664 -37.4730328 75.26395513 -34.76171875 67.4921875 C-34.35846878 66.3272879 -33.95521881 65.16238831 -33.53974915 63.96218872 C-32.25903279 60.26528158 -30.97330258 56.57014077 -29.6875 52.875 C-28.41705958 49.210054 -27.14756764 45.54478063 -25.87826538 41.87944031 C-25.05631418 39.51281766 -24.23086176 37.14740786 -23.40176392 34.78327942 C-21.63394863 29.74191474 -19.8865944 24.70245435 -18.27685547 19.6081543 C-18.01999466 18.81728424 -17.76313385 18.02641418 -17.49848938 17.21157837 C-17.04364678 15.80390041 -16.60543144 14.39066468 -16.18937683 12.97103882 C-14.58627915 8.09191974 -12.2478809 6.35348487 -7.75 4.0625 C-5.83837761 3.36109626 -3.92263761 2.6706206 -2 2 C-1.34 1.34 -0.68 0.68 0 0 Z " fill="#EEBF7B" transform="translate(93,283)"/>
<path d="M0 0 C2.5 0.25 2.5 0.25 4.5 2.25 C4.99865213 8.19255448 3.76119656 13.65569446 2.48828125 19.44140625 C2.27817917 20.42253891 2.06807709 21.40367157 1.85160828 22.41453552 C1.17858184 25.54867207 0.49556885 28.68053866 -0.1875 31.8125 C-0.62758018 33.85858919 -1.06703854 35.90481223 -1.50585938 37.95117188 C-3.26344772 46.11489901 -5.02186276 54.27587391 -6.94775391 62.40185547 C-7.18001175 63.39015854 -7.41226959 64.37846161 -7.65156555 65.39671326 C-8.09066549 67.25556475 -8.5370679 69.11271353 -8.99235535 70.96766663 C-11.24579504 80.48051513 -11.24579504 80.48051513 -8.6875 89.625 C-6.58914751 92.39574323 -6.58914751 92.39574323 -3.5 94.25 C2.00747298 94.70143221 5.86444131 94.59191441 10.5 91.25 C12.74942446 86.68021225 14.06169592 82.41112724 15.04296875 77.39453125 C15.17244904 76.74693344 15.30192932 76.09933563 15.43533325 75.43211365 C15.71383475 74.03687009 15.9890944 72.64097616 16.26138306 71.24450684 C16.99785298 67.47328292 17.76166826 63.7075871 18.5234375 59.94140625 C18.68167496 59.15659882 18.83991241 58.37179138 19.00294495 57.5632019 C20.67372928 49.31522173 22.46161527 41.09399783 24.28482056 32.87850952 C24.63449839 31.3023404 24.98280248 29.72586583 25.3296814 28.14907837 C25.81657779 25.93714061 26.30791952 23.72624028 26.80078125 21.515625 C27.08091064 20.25524414 27.36104004 18.99486328 27.6496582 17.69628906 C28.44438951 14.47537975 29.40156772 11.37877678 30.5 8.25 C32.8125 7.625 32.8125 7.625 35.5 7.25 C36.49 7.91 37.48 8.57 38.5 9.25 C37.96053961 16.2658144 36.82562117 22.96050614 35.25 29.8125 C33.1410535 39.23528836 31.18263673 48.67834828 29.31665039 58.15209961 C28.34992019 63.04576254 27.36417288 67.93186028 26.296875 72.8046875 C26.10939697 73.66481445 25.92191895 74.52494141 25.72875977 75.41113281 C25.38134474 76.99259988 25.02816351 78.57281751 24.66772461 80.15136719 C23.23525024 86.68745136 22.46851992 93.04268364 25.5 99.25 C29.61004891 101.99003261 34.7254056 101.78822701 39.5 101.25 C43.32725513 99.83557963 44.23218133 98.80193523 46.02050781 95.11645508 C47.56999941 91.32520691 48.49617125 87.45705434 49.296875 83.44921875 C49.45133087 82.70709641 49.60578674 81.96497406 49.7649231 81.20036316 C50.26678614 78.78076378 50.75830301 76.3591836 51.25 73.9375 C51.59839641 72.25196593 51.94752719 70.5665835 52.29736328 68.88134766 C53.89352688 61.17372708 55.45942797 53.46000218 57.01831055 45.74476624 C57.65131671 42.61460207 58.28768608 39.48512464 58.9239502 36.35562134 C59.36802074 34.15951522 59.80491609 31.96206646 60.24121094 29.7644043 C60.51211899 28.42361467 60.78326442 27.08287297 61.0546875 25.7421875 C61.28655762 24.58058105 61.51842773 23.41897461 61.75732422 22.22216797 C62.41506666 19.58990089 63.03754911 17.52604425 64.5 15.25 C66.9375 14.3125 66.9375 14.3125 69.5 14.25 C71.1652832 15.48730469 71.1652832 15.48730469 72.5 17.25 C73.34845023 25.1228052 70.11760035 34.00871598 68.34716797 41.67907715 C67.43065763 45.65752718 66.53800313 49.64132351 65.64453125 53.625 C65.46371002 54.43007996 65.28288879 55.23515991 65.09658813 56.06463623 C63.31447294 64.02645233 61.62650841 72.00504326 60 80 C59.74516846 81.22299805 59.49033691 82.44599609 59.2277832 83.70605469 C56.74628198 94.43265995 56.74628198 94.43265995 59.375 104.6875 C61.69334574 107.48315221 62.39361374 108.12528657 65.92578125 108.5234375 C66.87839844 108.55695313 67.83101563 108.59046875 68.8125 108.625 C70.22982422 108.69847656 70.22982422 108.69847656 71.67578125 108.7734375 C75.64125004 108.03848201 77.0187929 106.36862065 79.5 103.25 C80.75198656 100.50385691 80.75198656 100.50385691 81.4375 97.3125 C81.5924292 96.68537109 81.7473584 96.05824219 81.90698242 95.41210938 C83.88137779 87.13048565 85.42819867 78.74491389 87.07128906 70.39306641 C88.85968615 61.32084148 90.73116102 52.27009094 92.73324585 43.24243164 C93.03372873 41.88312258 93.33100283 40.52309984 93.62490845 39.16235352 C94.03646942 37.26120355 94.46133711 35.36294915 94.88671875 33.46484375 C95.12608154 32.38323975 95.36544434 31.30163574 95.61206055 30.18725586 C96.53571434 27.13185887 97.6208084 24.82767302 99.5 22.25 C102.0625 21.8125 102.0625 21.8125 104.5 22.25 C106.5 24.25 106.5 24.25 106.60620117 26.02197266 C105.64836862 34.68256964 103.70411399 43.1319161 101.8125 51.625 C101.26645148 54.10260433 100.72204589 56.58056638 100.17764282 59.05853271 C99.8119628 60.72197923 99.44556925 62.38526905 99.07846069 64.04840088 C97.94837465 69.174736 96.84789471 74.30623223 95.77734375 79.4453125 C95.38712036 81.30857178 95.38712036 81.30857178 94.98901367 83.20947266 C94.51473759 85.48167341 94.04449221 87.75472136 93.5793457 90.02880859 C89.52142304 109.33144111 83.43459806 125.67698204 66.875 137.5625 C56.64133638 143.99434456 45.59076511 147.0023307 33.5 147.25 C31.17239417 152.3253812 29.5888702 157.25920183 28.3125 162.6875 C28.13525391 163.41904297 27.95800781 164.15058594 27.77539062 164.90429688 C27.34479109 166.68488415 26.92160784 168.46726226 26.5 170.25 C20.93109483 169.77013969 15.82932432 168.95084819 10.5 167.25 C10.87691515 162.40961591 11.27955633 157.69502788 12.5625 153 C13.46264123 149.39943507 13.9905526 146.9147165 13.5 143.25 C11.17767578 141.26931555 11.17767578 141.26931555 8.0625 139.875 C-5.97366068 132.28031682 -14.81989615 120.74716387 -19.84375 105.65234375 C-24.292056 89.36836643 -20.21329958 74.1118461 -16.40283203 58.15722656 C-14.90532462 51.77021829 -13.62741661 45.33572915 -12.32507324 38.90670776 C-11.59145172 35.28938859 -10.84825688 31.67403982 -10.10546875 28.05859375 C-9.89580978 27.03751274 -9.89580978 27.03751274 -9.68191528 25.99580383 C-8.5343914 20.41009392 -7.3858692 14.82504737 -6.1875 9.25 C-5.96682861 8.1835022 -5.96682861 8.1835022 -5.74169922 7.09545898 C-4.28285512 0.42828551 -4.28285512 0.42828551 0 0 Z " fill="#CAC4B6" transform="translate(397.5,215.75)"/>
<path d="M0 0 C1.32 4.29 2.64 8.58 4 13 C9.92497733 14.18499547 11.04229079 13.31122907 15.9140625 10.4140625 C18.23284808 8.84215167 20.09981428 7.05220058 22 5 C22.66 5 23.32 5 24 5 C24.64690922 6.6037331 25.29248764 8.20800306 25.9375 9.8125 C26.47697266 11.15248047 26.47697266 11.15248047 27.02734375 12.51953125 C27.73613486 14.3270909 28.3860247 16.15807409 29 18 C34.85446292 16.9022882 37.98876151 14.63341005 42.30078125 10.55859375 C44 9 44 9 46 8 C47.98 11.3 49.96 14.6 52 18 C55.98573904 17.71530435 58.26634311 17.01795147 61.1875 14.375 C62.115625 13.59125 63.04375 12.8075 64 12 C67 13 67 13 68.01171875 14.609375 C69.22743533 18.46031538 69.48544766 20.94947289 67.76171875 24.6796875 C66.40237489 26.8017274 65.02046575 28.89491922 63.61328125 30.984375 C52.83598487 47.11501821 44.08008197 66.16634437 38.875 84.86328125 C36.75374578 92.46759884 33.90640779 96.07139285 27 100 C17.44642857 105 17.44642857 105 13 105 C13 100.05 13 95.1 13 90 C7.70678631 90 7.00902504 90.30117047 3.0625 93.3125 C-6.02112854 100 -6.02112854 100 -10 100 C-9.835 99.21625 -9.67 98.4325 -9.5 97.625 C-8.87039153 93.06033858 -8.91819473 88.59927399 -9 84 C-10.75510881 83.22801667 -10.75510881 83.22801667 -13 83 C-15.45483683 84.08279423 -15.45483683 84.08279423 -17.875 85.75 C-27.72965116 92 -27.72965116 92 -31 92 C-30.77183594 91.26394531 -30.54367188 90.52789062 -30.30859375 89.76953125 C-30.02113281 88.79371094 -29.73367187 87.81789063 -29.4375 86.8125 C-29.14746094 85.84957031 -28.85742188 84.88664062 -28.55859375 83.89453125 C-27.97538974 80.87247412 -28.18821615 78.94070045 -29 76 C-32.4409863 76.40482192 -35.4790093 76.78191087 -38.6875 78.125 C-41.35872159 79.13573249 -42.33917412 78.79544689 -45 78 C-44.55269531 77.56171875 -44.10539062 77.1234375 -43.64453125 76.671875 C-35.57140038 68.20283366 -32.60246876 57.21443363 -29.07421875 46.28515625 C-28.35367572 44.11344661 -27.63162671 41.94223616 -26.90820312 39.77148438 C-25.78864396 36.40294944 -24.67790502 33.0326373 -23.59204102 29.65307617 C-22.52872911 26.35454691 -21.42988016 23.0696936 -20.32421875 19.78515625 C-20.00934006 18.77679214 -19.69446136 17.76842804 -19.37004089 16.72950745 C-17.35835853 10.87425876 -15.51476275 7.79920941 -9.92756653 4.94041443 C-9.29146957 4.63007767 -8.65537262 4.31974091 -8 4 C-6.86355182 3.24614686 -5.73736187 2.4764614 -4.625 1.6875 C-2 0 -2 0 0 0 Z " fill="#DDAA68" transform="translate(62,377)"/>
<path d="M0 0 C10.75734157 7.94338824 14.70954284 19.15045244 18.93530273 31.36572266 C19.74592735 33.70172147 20.57980713 36.02852169 21.41601562 38.35546875 C21.94019642 39.8458645 22.46303315 41.33673381 22.984375 42.828125 C23.23319931 43.51981781 23.48202362 44.21151062 23.73838806 44.92416382 C25.82058745 51.03177786 25.82058745 51.03177786 24.30078125 54.3046875 C23.31078125 55.2946875 23.31078125 55.2946875 22.30078125 56.3046875 C17.76107243 55.98568093 13.95708744 53.8062937 9.98828125 51.7421875 C9.34310547 51.41283203 8.69792969 51.08347656 8.03320312 50.74414062 C6.45292897 49.93644495 4.8764602 49.12131137 3.30078125 48.3046875 C3.11902344 48.89636719 2.93726563 49.48804688 2.75 50.09765625 C-0.17622269 59.29649989 -0.17622269 59.29649989 -2.69921875 62.3046875 C-5.04296875 62.66015625 -5.04296875 62.66015625 -7.69921875 62.3046875 C-9.83203125 60.6953125 -9.83203125 60.6953125 -11.82421875 58.5546875 C-12.48679687 57.85859375 -13.149375 57.1625 -13.83203125 56.4453125 C-15.56207232 54.46191814 -17.15465969 52.43445216 -18.69921875 50.3046875 C-22.08878983 51.73816249 -23.97728655 53.49250442 -26.32421875 56.3046875 C-31.31809715 62.23628106 -31.31809715 62.23628106 -34.13671875 62.7421875 C-36.69921875 62.3046875 -36.69921875 62.3046875 -38.32421875 60.3671875 C-40.09008782 56.43411548 -41.43417595 52.42280554 -42.69921875 48.3046875 C-43.8078125 48.89378906 -44.91640625 49.48289063 -46.05859375 50.08984375 C-47.52180785 50.84958953 -48.98536777 51.60866956 -50.44921875 52.3671875 C-51.17882812 52.75712891 -51.9084375 53.14707031 -52.66015625 53.54882812 C-53.36914062 53.91298828 -54.078125 54.27714844 -54.80859375 54.65234375 C-55.45795898 54.99273682 -56.10732422 55.33312988 -56.77636719 55.68383789 C-59.17179601 56.45727307 -60.3709035 56.20574671 -62.69921875 55.3046875 C-63.35921875 54.6446875 -64.01921875 53.9846875 -64.69921875 53.3046875 C-63.56586624 45.70881429 -60.85495033 38.54920731 -58.2331543 31.35766602 C-57.51617688 29.37948771 -56.82143636 27.39437114 -56.12695312 25.40820312 C-51.404775 12.21448195 -45.35065447 2.55539525 -32.48046875 -3.7890625 C-21.43736235 -8.11027805 -9.86362662 -6.19509979 0 0 Z " fill="#3F352E" transform="translate(275.69921875,184.6953125)"/>
<path d="M0 0 C4.08634061 2.45180437 7.32479768 4.91140179 10.75 8.125 C11.27585693 8.61508545 11.80171387 9.1051709 12.34350586 9.61010742 C13.90085413 11.06800514 15.45058994 12.53367648 17 14 C17.79019531 14.73605469 18.58039063 15.47210938 19.39453125 16.23046875 C44.45353198 40.29613972 63.47672115 75.85914681 73 109 C73 109.99 73 110.98 73 112 C59.45146896 117.78040195 47.18627608 120.21012279 32.48828125 120.07421875 C31.38053345 120.06886108 30.27278564 120.06350342 29.13146973 120.0579834 C26.42089874 120.04409803 23.71049098 120.02463738 21 120 C20.99857498 119.15332764 20.99714996 118.30665527 20.99568176 117.43432617 C20.97780633 109.43096247 20.93605876 101.42814853 20.86790943 93.42504883 C20.83370873 89.31112466 20.80854033 85.19756911 20.80444336 81.08349609 C20.80014539 77.10849279 20.77156035 73.13432002 20.72656822 69.15957642 C20.71364073 67.64788665 20.70926865 66.13609724 20.71384621 64.62435913 C20.73817086 54.14608248 19.67624563 47.78252394 12.25 40.1875 C8.30773489 37.32360554 8.30773489 37.32360554 0 35 C0 23.45 0 11.9 0 0 Z " fill="#DF5B62" transform="translate(333,359)"/>
<path d="M0 0 C0 11.55 0 23.1 0 35 C-2.97 35.99 -5.94 36.98 -9 38 C-11.50855332 39.5013753 -11.50855332 39.5013753 -13.375 41.3125 C-14.00148437 41.86550781 -14.62796875 42.41851562 -15.2734375 42.98828125 C-19.28456985 47.66188569 -20.37678743 51.945187 -20.43237305 58.01513672 C-20.4425647 58.68900925 -20.45275635 59.36288177 -20.46325684 60.05717468 C-20.49323594 62.26476518 -20.50262909 64.47192073 -20.51171875 66.6796875 C-20.52857673 68.21812363 -20.54672847 69.75654607 -20.56611633 71.29495239 C-20.61350137 75.32918014 -20.64338477 79.36335241 -20.66955566 83.39776611 C-20.69941949 87.52049717 -20.74592972 91.64303729 -20.79101562 95.765625 C-20.87691779 103.84365593 -20.94432091 111.92170447 -21 120 C-25.09887521 120.06811821 -29.1976015 120.10857027 -33.296875 120.14453125 C-35.01559814 120.17359558 -35.01559814 120.17359558 -36.76904297 120.20324707 C-49.38344282 120.28594246 -61.82399528 118.06849938 -73 112 C-71.17349009 103.84785651 -68.76863604 96.24701185 -65.5 88.5625 C-65.06494141 87.53261963 -64.62988281 86.50273926 -64.18164062 85.44165039 C-57.29192392 69.42011054 -49.2421758 54.13485342 -39 40 C-38.39140137 39.15816162 -38.39140137 39.15816162 -37.77050781 38.29931641 C-31.72306155 30.01944648 -25.07779511 22.40989107 -18 15 C-17.20335937 14.16210938 -16.40671875 13.32421875 -15.5859375 12.4609375 C-3.45840301 0 -3.45840301 0 0 0 Z " fill="#DF5B62" transform="translate(179,359)"/>
<path d="M0 0 C2.3020168 2.3020168 4.01785286 4.32243605 5.875 6.9375 C10.1860576 12.70670944 14.82936762 16.43142417 22 18 C29.64846387 18.82978617 36.44947262 18.94187269 43.03515625 14.625 C47.98475256 10.53149689 51.98333406 5.67843001 55 0 C57.97 0.99 60.94 1.98 64 3 C64 22.8 64 42.6 64 63 C40.24 63 16.48 63 -8 63 C-8 43.2 -8 23.4 -8 3 C-5.36 2.01 -2.72 1.02 0 0 Z " fill="#E05B62" transform="translate(228,331)"/>
<path d="M0 0 C2.55272442 8.13680909 2.55272442 8.13680909 2 12 C-0.0546875 14.3671875 -0.0546875 14.3671875 -2.875 16.875 C-12.7974221 26.1897624 -21.39958832 39.14542007 -26 52 C-25.78368284 54.80133119 -25.78368284 54.80133119 -25 57 C-22.60809436 57.07263978 -22.60809436 57.07263978 -20 56 C-18.51271948 53.54235963 -17.37643086 51.30264141 -16.25 48.6875 C-11.09541043 37.59548611 -3.90872203 27.46008135 5 19 C7 19 7 19 8.69140625 20.6796875 C9.61759766 21.76636719 9.61759766 21.76636719 10.5625 22.875 C11.18253906 23.59429687 11.80257812 24.31359375 12.44140625 25.0546875 C14 27 14 27 15 29 C14.546875 31.15136719 14.546875 31.15136719 13.75 33.796875 C13.4715625 34.7559375 13.193125 35.715 12.90625 36.703125 C12.30635169 38.72002448 11.70224342 40.73567697 11.09375 42.75 C9.02844869 49.79362299 9.02844869 49.79362299 10 57 C12.475 56.505 12.475 56.505 15 56 C15.176521 55.34402832 15.35304199 54.68805664 15.53491211 54.01220703 C16.33357248 51.04920594 17.1354947 48.08709738 17.9375 45.125 C18.21529297 44.09246094 18.49308594 43.05992187 18.77929688 41.99609375 C19.04677734 41.00996094 19.31425781 40.02382812 19.58984375 39.0078125 C19.83597412 38.09660645 20.08210449 37.18540039 20.33569336 36.24658203 C21 34 21 34 22 32 C25.96532167 32 27.64498192 32.03200188 31 34 C32.98735805 37.16793015 34.51937238 40.29315429 36.04882812 43.69165039 C38.87637537 49.96194637 42.40307368 54.87061117 47 60 C47.72960937 60.84820312 48.45921875 61.69640625 49.2109375 62.5703125 C52.65003477 66.84337628 52.65003477 66.84337628 57 70 C56.48118887 74.1724106 55.28848726 76.25416821 52.4375 79.3125 C51.79683594 80.00988281 51.15617187 80.70726562 50.49609375 81.42578125 C50.00238281 81.94527344 49.50867188 82.46476562 49 83 C45.24627407 82.30015279 43.62492826 80.92792751 41.23828125 77.8984375 C39.01447891 74.48907493 37.50039563 70.77194431 36 67 C33.57584509 67.12099323 33.57584509 67.12099323 31 68 C29.42157672 70.18028505 29.42157672 70.18028505 28.375 72.875 C26.95071719 76.15371814 25.82812769 78.73449718 23 81 C19.99985097 81 19.02558433 80.02483185 16.875 77.9375 C14.54229563 74.28292983 13.86138915 71.23516333 13 67 C10.62407145 66.60834475 10.62407145 66.60834475 8 67 C6.29278089 69.02180549 6.29278089 69.02180549 5.0625 71.6875 C2.5322668 76.2784386 0.41716517 79.15338245 -4 82 C-7 81 -7 81 -8.09765625 79.36328125 C-10.00792105 75.30300182 -11.7067611 71.31079632 -13 67 C-16.03380202 67.33766632 -17.61291134 67.62685309 -19.84375 69.77734375 C-20.3903125 70.49019531 -20.936875 71.20304687 -21.5 71.9375 C-24.07791121 75.09078745 -25.90719549 77.00780497 -30 78 C-31.91302307 74.73386305 -32.35674661 72.00554752 -32.625 68.25 C-32.69976562 67.26515625 -32.77453125 66.2803125 -32.8515625 65.265625 C-32.90054688 64.51796875 -32.94953125 63.7703125 -33 63 C-34.65 62.67 -36.3 62.34 -38 62 C-38.35191406 62.44730469 -38.70382813 62.89460938 -39.06640625 63.35546875 C-42.65471327 67.74950528 -46.26608837 70.87561833 -51 74 C-45.31248534 46.55155968 -32.46800963 21.1985292 -8.96484375 4.89453125 C-1.39346307 0 -1.39346307 0 0 0 Z " fill="#FBD8A9" transform="translate(134,207)"/>
<path d="M0 0 C0.09270374 12.41315692 0.16376717 24.82623141 0.20724869 37.23966408 C0.22811827 43.00381325 0.25642495 48.76772547 0.30175781 54.53173828 C0.34523722 60.09493716 0.36914184 65.6579082 0.37950897 71.22126389 C0.38689652 73.34314943 0.40132266 75.46502258 0.42292023 77.58681107 C0.45198155 80.56026348 0.45595479 83.53277594 0.45410156 86.50634766 C0.47567322 87.82049652 0.47567322 87.82049652 0.49768066 89.16119385 C0.46112802 94.58564627 -0.35878169 97.7110584 -4 102 C-7.90164623 104.31989776 -11.53054095 104.54888094 -16 104 C-19.75167692 101.85006642 -22.48386437 99.06383145 -24 95 C-24.27034702 92.36851971 -24.43703999 89.83032119 -24.51269531 87.19311523 C-24.54190063 86.41040756 -24.57110596 85.62769989 -24.60119629 84.8212738 C-24.85312992 77.60576754 -24.99075368 70.3859749 -25.09688187 63.16699123 C-25.16835202 58.32280657 -25.27474291 53.48528412 -25.46777344 48.64428711 C-26.68848722 17.30884221 -26.68848722 17.30884221 -22.2331543 10.16827393 C-18.14804754 6.17238502 -13.58929384 3.99533396 -8.08660889 2.57923889 C-5.93806249 2.05462413 -5.93806249 2.05462413 -3.85723877 0.92845154 C-2 0 -2 0 0 0 Z " fill="#1EA4BA" transform="translate(211,339)"/>
<path d="M0 0 C3.66303048 1.19002432 6.95811591 2.37330743 10.26953125 4.34765625 C11.01267578 4.78787109 11.75582031 5.22808594 12.52148438 5.68164062 C13.27751953 6.13732422 14.03355469 6.59300781 14.8125 7.0625 C15.97555664 7.75182617 15.97555664 7.75182617 17.16210938 8.45507812 C22.83497362 11.83497362 22.83497362 11.83497362 24 13 C24.11633016 15.52381566 24.16799418 18.02064431 24.17700195 20.5456543 C24.18357315 21.33595535 24.19014435 22.12625641 24.19691467 22.94050598 C24.21670086 25.5684111 24.22832398 28.19625885 24.23828125 30.82421875 C24.24235678 31.72048288 24.2464323 32.61674702 24.25063133 33.54017067 C24.27151795 38.28678789 24.28580659 43.03337601 24.29516602 47.7800293 C24.30621668 52.68176063 24.34059351 57.58303626 24.38033772 62.48460674 C24.40650196 66.25332984 24.41485784 70.02194457 24.41844749 73.7907505 C24.42331647 75.59723794 24.43493935 77.40372045 24.45348549 79.21011925 C24.47786603 81.74290181 24.47691382 84.27450876 24.4699707 86.80737305 C24.48278076 87.55099091 24.49559082 88.29460876 24.50878906 89.0607605 C24.45777727 94.17943688 23.20701787 97.05005542 20 101 C17.07327328 103.37302167 15.31690796 103.95966626 11.5625 104.4375 C7.31654773 103.91606726 5.26182423 102.73082959 2 100 C0.28911667 97.20607982 -0.24903432 95.13111185 -0.24050903 91.87445068 C-0.24325836 91.06119324 -0.24600769 90.24793579 -0.24884033 89.41003418 C-0.24164978 88.52674438 -0.23445923 87.64345459 -0.22705078 86.73339844 C-0.22734283 85.79647156 -0.22763489 84.85954468 -0.22793579 83.89422607 C-0.22654311 80.79918132 -0.21098466 77.70437767 -0.1953125 74.609375 C-0.19158215 72.46274955 -0.18873528 70.31612239 -0.18673706 68.16949463 C-0.17910232 62.52074479 -0.15945511 56.87209786 -0.1373291 51.22338867 C-0.11686731 45.45883578 -0.10773462 39.69426625 -0.09765625 33.9296875 C-0.07620914 22.61974646 -0.04207503 11.30988179 0 0 Z " fill="#1EA5BA" transform="translate(301,339)"/>
<path d="M0 0 C7.66467556 6.13174045 11.11947572 13.04097622 14.34375 22.1875 C14.74980469 23.27095703 15.15585937 24.35441406 15.57421875 25.47070312 C18.48296657 33.45735029 18.48296657 33.45735029 17.34375 36.875 C16.83585937 36.58625 16.32796875 36.2975 15.8046875 36 C11.46566875 33.65985506 8.40439817 32.36893518 3.34375 32.875 C3.15039062 33.57367188 2.95703125 34.27234375 2.7578125 34.9921875 C2.49742187 35.90226562 2.23703125 36.81234375 1.96875 37.75 C1.58589844 39.10738281 1.58589844 39.10738281 1.1953125 40.4921875 C0.34375 42.875 0.34375 42.875 -1.65625 44.875 C-2.39230469 44.06933594 -3.12835938 43.26367188 -3.88671875 42.43359375 C-4.87157895 41.39245583 -5.85730148 40.35213316 -6.84375 39.3125 C-7.32650391 38.77947266 -7.80925781 38.24644531 -8.30664062 37.69726562 C-11.22872078 34.63154034 -11.22872078 34.63154034 -15.2265625 33.75 C-18.29234488 35.16952625 -20.05772991 36.95742048 -22.34375 39.4375 C-23.74698059 40.94921564 -25.17757422 42.43699506 -26.65625 43.875 C-27.31625 43.875 -27.97625 43.875 -28.65625 43.875 C-29.32744549 42.4187455 -29.99306807 40.95992133 -30.65625 39.5 C-31.0275 38.68789062 -31.39875 37.87578125 -31.78125 37.0390625 C-32.65625 34.875 -32.65625 34.875 -32.65625 32.875 C-38.32600849 32.32185283 -40.97719508 33.99558159 -45.65625 36.875 C-46.31625 36.875 -46.97625 36.875 -47.65625 36.875 C-40.36589195 6.69035967 -40.36589195 6.69035967 -27.09375 -1.6875 C-18.50591362 -5.34622319 -8.10478252 -4.22858218 0 0 Z " fill="#5F4432" transform="translate(270.65625,191.125)"/>
<path d="M0 0 C1.26553711 0.23058105 1.26553711 0.23058105 2.55664062 0.46582031 C15.49414219 2.76497995 27.16905468 2.32735668 40 0 C40.17602413 3.97859678 40.28142668 7.95617806 40.375 11.9375 C40.42527344 13.05447266 40.47554688 14.17144531 40.52734375 15.32226562 C40.66527677 23.16145879 39.36665595 28.15663336 34 34 C28.75199306 38.53305417 23.61181807 39.42017023 16.85546875 39.33984375 C11.53169844 38.70623497 7.92322966 36.19181036 4.43359375 32.21484375 C0.95882695 27.55212249 -0.12784498 24.16270128 -0.09765625 18.45703125 C-0.09443359 17.38388672 -0.09121094 16.31074219 -0.08789062 15.20507812 C-0.07951172 14.08552734 -0.07113281 12.96597656 -0.0625 11.8125 C-0.05798828 10.68134766 -0.05347656 9.55019531 -0.04882812 8.38476562 C-0.03703498 5.58979073 -0.0205765 2.7949218 0 0 Z " fill="#F5B4AB" transform="translate(236,303)"/>
<path d="M0 0 C0.84075218 3.41488492 1.67129993 6.83217213 2.5 10.25 C2.73847656 11.21808594 2.97695313 12.18617188 3.22265625 13.18359375 C3.44824219 14.11816406 3.67382812 15.05273438 3.90625 16.015625 C4.11572266 16.87446289 4.32519531 17.73330078 4.54101562 18.61816406 C5 21 5 21 5 25 C-14.8 25 -34.6 25 -55 25 C-55 19.39 -55 13.78 -55 8 C-53.29714844 7.96261719 -51.59429687 7.92523438 -49.83984375 7.88671875 C-34.19885151 7.4674046 -19.84515403 6.70553959 -5.171875 0.76953125 C-3 0 -3 0 0 0 Z " fill="#F4B4AB" transform="translate(409,479)"/>
<path d="M0 0 C5.08408159 0.86705267 9.89522765 2.5318117 14.765625 4.18359375 C23.9972323 7.18386612 33.42711796 7.22334345 43.0625 7.5625 C44.21427734 7.60568359 45.36605469 7.64886719 46.55273438 7.69335938 C49.36838151 7.79850802 52.18417728 7.89966363 55 8 C55 13.61 55 19.22 55 25 C35.2 25 15.4 25 -5 25 C-3.875 16 -3.875 16 -3.02734375 12.5 C-2.85009766 11.75878906 -2.67285156 11.01757812 -2.49023438 10.25390625 C-2.21663086 9.13822266 -2.21663086 9.13822266 -1.9375 8 C-1.75123047 7.22527344 -1.56496094 6.45054687 -1.37304688 5.65234375 C-0.91923822 3.76729241 -0.46017508 1.8835073 0 0 Z " fill="#F4B4AB" transform="translate(103,479)"/>
<path d="M0 0 C0.33 1.32 0.66 2.64 1 4 C2.11375 4.103125 3.2275 4.20625 4.375 4.3125 C6.169375 4.6528125 6.169375 4.6528125 8 5 C10.33235317 8.49852976 10.55678591 11.3334681 10.9296875 15.39453125 C11.08484771 16.91374855 11.24012578 18.43295381 11.39550781 19.95214844 C11.51279236 21.14414856 11.51279236 21.14414856 11.63244629 22.36022949 C13.08805582 37.07675684 15.09731899 51.48659493 18 66 C12.06 66 6.12 66 0 66 C0 44.22 0 22.44 0 0 Z " fill="#CB4A5F" transform="translate(354,413)"/>
<path d="M0 0 C0.33 0 0.66 0 1 0 C1 21.45 1 42.9 1 65 C-4.61 65 -10.22 65 -16 65 C-15.47622897 59.95499794 -14.86163734 54.97176124 -13.99829102 49.97485352 C-12.80794939 43.07959142 -11.8848494 36.20672614 -11.27734375 29.234375 C-11.21724121 28.56158005 -11.15713867 27.8887851 -11.09521484 27.19560242 C-10.79533328 23.81702245 -10.51602385 20.43854816 -10.26611328 17.0559082 C-10.1053833 15.18938599 -10.1053833 15.18938599 -9.94140625 13.28515625 C-9.85576416 12.17019775 -9.77012207 11.05523926 -9.68188477 9.90649414 C-8.87049819 6.44800608 -7.79364087 5.14550328 -5 3 C-2.25 2.75 -2.25 2.75 0 3 C0 2.01 0 1.02 0 0 Z " fill="#CC4A60" transform="translate(157,414)"/>
<path d="M0 0 C0.17128418 1.02359619 0.34256836 2.04719238 0.51904297 3.10180664 C1.15987626 6.92491916 1.80597625 10.74712647 2.45361328 14.5690918 C2.73237924 16.21859166 3.0097454 17.86832875 3.28564453 19.51831055 C3.68408016 21.89957473 4.08766006 24.27992031 4.4921875 26.66015625 C4.6131076 27.38960953 4.73402771 28.11906281 4.85861206 28.87062073 C5.62655758 33.3525591 6.73641308 37.62607125 8 42 C8.125 44.9375 8.125 44.9375 8 47 C2.12125717 45.46032926 -2.01205241 42.91894233 -5.41796875 37.91796875 C-9.97313018 30.07667913 -12.68803324 21.86302567 -10.46484375 12.82421875 C-8.96227948 8.46431915 -5.52342138 0 0 0 Z " fill="#D89EA0" transform="translate(153,185)"/>
<path d="M0 0 C3.88156278 1.4293646 5.66632147 2.30459295 7.75 5.9375 C8.15734375 6.62714844 8.5646875 7.31679687 8.984375 8.02734375 C11.96315792 13.81305673 11.91379647 20.43880463 10.31640625 26.6640625 C7.65493962 33.79811828 3.92215786 40.47678322 -2.6875 44.5625 C-6 46 -6 46 -9 45 C-8.68546875 43.84628906 -8.3709375 42.69257813 -8.046875 41.50390625 C-4.41521534 27.79791725 -2.04126614 14.02396581 0 0 Z " fill="#D99EA0" transform="translate(359,186)"/>
<path d="M0 0 C0.76441406 0.144375 1.52882812 0.28875 2.31640625 0.4375 C15.19307355 2.66883585 27.18918468 2.53053142 40 0 C40 4.62 40 9.24 40 14 C30.42365593 18.78817204 14.60529026 14.92364256 4.98022461 11.77880859 C3.31257606 11.20752037 1.65487637 10.60729408 0 10 C0 6.7 0 3.4 0 0 Z " fill="#DEA2A4" transform="translate(236,303)"/>
<path d="M0 0 C7.875 0.875 7.875 0.875 9 2 C8.99879342 10.61139518 6.52417698 19.11007674 4.5625 27.4375 C3.93531719 30.12289791 3.31245326 32.80927091 2.69140625 35.49609375 C2.39637207 36.7682373 2.10133789 38.04038086 1.79736328 39.35107422 C0.87738054 43.56113608 0.14643251 47.78214312 -0.49243164 52.04321289 C-0.6599292 52.68895264 -0.82742676 53.33469238 -1 54 C-1.99 54.495 -1.99 54.495 -3 55 C-3.88276583 53.22225012 -4.72972094 51.42670729 -5.5625 49.625 C-6.03816406 48.62726563 -6.51382812 47.62953125 -7.00390625 46.6015625 C-9.71609028 36.79515592 -5.56303711 25.60249495 -3.4375 15.875 C-3.10431501 14.33083755 -2.77162878 12.78656739 -2.43945312 11.2421875 C-1.63204469 7.49352564 -0.81790852 3.74638427 0 0 Z " fill="#635D65" transform="translate(409,392)"/>
<path d="M0 0 C7.26 0 14.52 0 22 0 C22.33 1.98 22.66 3.96 23 6 C23.88720007 8.28578205 23.88720007 8.28578205 25 10.3125 C25.350625 10.98925781 25.70125 11.66601562 26.0625 12.36328125 C26.89486035 13.98223568 26.89486035 13.98223568 28 15 C30.37338639 15.15971977 32.72118272 15.2592433 35.09765625 15.31640625 C36.16094398 15.3475779 36.16094398 15.3475779 37.24571228 15.37937927 C39.51787305 15.44494598 41.79015264 15.5037923 44.0625 15.5625 C45.59962183 15.60567849 47.1367315 15.64929255 48.67382812 15.69335938 C52.4490959 15.80063449 56.2244836 15.90188137 60 16 C60 16.33 60 16.66 60 17 C40.2 17 20.4 17 0 17 C0 11.39 0 5.78 0 0 Z " fill="#D79D9E" transform="translate(354,487)"/>
<path d="M0 0 C7.26 0 14.52 0 22 0 C22 5.61 22 11.22 22 17 C2.2 17 -17.6 17 -38 17 C-38 16.67 -38 16.34 -38 16 C-37.05680908 16.01160156 -36.11361816 16.02320313 -35.1418457 16.03515625 C-31.62744451 16.05938604 -28.11689277 16.04779103 -24.6027832 16.01220703 C-23.08488852 16.00411677 -21.56684835 16.01013398 -20.04907227 16.03076172 C-11.5073961 16.44632367 -11.5073961 16.44632367 -3.89990234 13.3984375 C-0.94285412 8.98893486 -0.77858304 5.45008126 0 0 Z " fill="#D79E9E" transform="translate(136,487)"/>
<path d="M0 0 C3.125 0.375 3.125 0.375 6 1 C6.47341612 8.12228253 4.73040935 14.76811694 3.1875 21.6875 C2.92646484 22.89083984 2.66542969 24.09417969 2.39648438 25.33398438 C1.61751596 28.89415852 0.81541498 32.44800671 0 36 C-0.26345215 37.1545166 -0.5269043 38.3090332 -0.79833984 39.49853516 C-1.05437988 40.57796387 -1.31041992 41.65739258 -1.57421875 42.76953125 C-1.80069092 43.73093018 -2.02716309 44.6923291 -2.26049805 45.68286133 C-3 48 -3 48 -5 50 C-7.625 49.625 -7.625 49.625 -10 49 C-11.26661962 44.58876069 -10.63229455 40.9832201 -9.63671875 36.609375 C-9.40865288 35.55330048 -9.40865288 35.55330048 -9.17597961 34.47589111 C-8.68907647 32.23178802 -8.18852595 29.99098752 -7.6875 27.75 C-7.36172585 26.25931193 -7.03684737 24.76842783 -6.71289062 23.27734375 C-6.09342511 20.43233247 -5.46537272 17.58945419 -4.82958984 14.74804688 C-4.33383155 12.50823481 -3.85053146 10.26552387 -3.39306641 8.01757812 C-2.20523585 2.20523585 -2.20523585 2.20523585 0 0 Z " fill="#42382E" transform="translate(122,308)"/>
<path d="M0 0 C2.5625 0.1875 2.5625 0.1875 4.5625 2.1875 C4.17016736 7.35002932 2.36334325 12.15179706 0.69140625 17.015625 C0.40901596 17.84584167 0.12662567 18.67605835 -0.1643219 19.53143311 C-0.7596169 21.27696905 -1.35731323 23.0216877 -1.95727539 24.765625 C-2.87588871 27.44008741 -3.78308411 30.11824181 -4.68945312 32.796875 C-5.27014927 34.49502574 -5.85150647 36.1929506 -6.43359375 37.890625 C-6.70449326 38.69268372 -6.97539276 39.49474243 -7.25450134 40.32110596 C-9.20798939 45.95798939 -9.20798939 45.95798939 -11.4375 48.1875 C-14.0625 47.8125 -14.0625 47.8125 -16.4375 47.1875 C-18.30790793 41.95463606 -16.27468472 37.74015911 -14.5078125 32.765625 C-14.04313065 31.41473785 -14.04313065 31.41473785 -13.56906128 30.03656006 C-12.91380983 28.13846966 -12.25279582 26.2423601 -11.58642578 24.34814453 C-10.5626449 21.43791191 -9.5551926 18.52243649 -8.55078125 15.60546875 C-7.9123936 13.76269656 -7.27310197 11.92023724 -6.6328125 10.078125 C-6.32860382 9.20214661 -6.02439514 8.32616821 -5.71096802 7.42364502 C-5.42752533 6.61900818 -5.14408264 5.81437134 -4.85205078 4.98535156 C-4.60254669 4.2742926 -4.3530426 3.56323364 -4.09597778 2.83062744 C-3.06968903 0.26968573 -2.85894077 0.21991852 0 0 Z " fill="#40362D" transform="translate(92.4375,405.8125)"/>
<path d="M0 0 C4.55555556 0.55555556 4.55555556 0.55555556 6 2 C6.26590707 7.32927437 5.58918263 12.18711075 4.57421875 17.3828125 C4.42596146 18.16010712 4.27770416 18.93740173 4.12495422 19.73825073 C3.81132035 21.3709022 3.49430649 23.00290766 3.17407227 24.63427734 C2.68798322 27.12252646 2.2194421 29.61366662 1.75195312 32.10546875 C1.4437671 33.69812191 1.13455706 35.29057733 0.82421875 36.8828125 C0.68658615 37.62250275 0.54895355 38.36219299 0.40715027 39.1242981 C-0.428283 43.29061077 -1.56910208 46.50502222 -4 50 C-8.875 49.125 -8.875 49.125 -10 48 C-9.99883017 39.04495082 -7.81059119 30.0651633 -6.04370117 21.32641602 C-5.55753355 18.91284414 -5.08597951 16.49669985 -4.61523438 14.08007812 C-4.30816104 12.5414929 -4.00024957 11.00307466 -3.69140625 9.46484375 C-3.48192101 8.38371559 -3.48192101 8.38371559 -3.26820374 7.28074646 C-2.22944325 2.22944325 -2.22944325 2.22944325 0 0 Z " fill="#41372E" transform="translate(154,309)"/>
<path d="M0 0 C1.67542976 0.28604898 3.34385343 0.61781233 5 1 C6.50141896 5.70444607 5.36197636 8.34345985 3.39453125 12.76953125 C3.11405441 13.40936447 2.83357758 14.04919769 2.54460144 14.7084198 C1.64627576 16.7488547 0.72955094 18.78042315 -0.1875 20.8125 C-0.78568448 22.16679744 -1.3827016 23.52161114 -1.97851562 24.87695312 C-3.6215237 28.59916913 -5.30295159 32.30209739 -7 36 C-7.40476562 36.88848633 -7.80953125 37.77697266 -8.2265625 38.69238281 C-10.67297155 43.85984495 -10.67297155 43.85984495 -13.625 45.125 C-16 45 -16 45 -18 43 C-17.68368129 37.88305669 -16.27957539 33.81918106 -14.1640625 29.18359375 C-13.88404388 28.56404312 -13.60402527 27.94449249 -13.31552124 27.3061676 C-12.42702094 25.34602248 -11.52615439 23.39185441 -10.625 21.4375 C-10.02784805 20.12340911 -9.43148707 18.80895849 -8.8359375 17.49414062 C-1.62037205 1.62037205 -1.62037205 1.62037205 0 0 Z " fill="#41372D" transform="translate(63,403)"/>
<path d="M0 0 C-1.50296796 11.39563765 -5.31893516 21.61039536 -12 31 C-12.66 31 -13.32 31 -14 31 C-14.81756238 28.93950145 -15.62884734 26.87651147 -16.4375 24.8125 C-16.88996094 23.66394531 -17.34242188 22.51539063 -17.80859375 21.33203125 C-19.69849659 16.0464997 -20.11002886 11.61147209 -20 6 C-18.06305322 5.18618205 -16.12542289 4.37399084 -14.1875 3.5625 C-13.10855469 3.11003906 -12.02960938 2.65757812 -10.91796875 2.19140625 C-7.0245625 0.601729 -4.18789342 -0.11318631 0 0 Z " fill="#5E4432" transform="translate(170,141)"/>
<path d="M0 0 C4.55555556 0.55555556 4.55555556 0.55555556 6 2 C6.67502617 8.02560129 4.55856728 13.4049423 2.75 19.0625 C2.1054636 21.11979005 1.46093233 23.17708171 0.81640625 25.234375 C0.5033252 26.22373047 0.19024414 27.21308594 -0.13232422 28.23242188 C-0.87208083 30.5919832 -1.58883568 32.95547714 -2.28515625 35.328125 C-2.62417969 36.47796875 -2.96320313 37.6278125 -3.3125 38.8125 C-3.73982422 40.27623047 -3.73982422 40.27623047 -4.17578125 41.76953125 C-5 44 -5 44 -7 46 C-9.625 45.625 -9.625 45.625 -12 45 C-12.467488 37.71424358 -10.74987351 31.57980485 -8.6875 24.625 C-8.37876953 23.5525 -8.07003906 22.48 -7.75195312 21.375 C-7.14047876 19.25865505 -6.52198557 17.14432362 -5.89599609 15.03222656 C-5.30821603 13.0430635 -4.7325814 11.05026261 -4.17041016 9.05371094 C-3.91437012 8.1568457 -3.65833008 7.25998047 -3.39453125 6.3359375 C-3.06159058 5.14943604 -3.06159058 5.14943604 -2.72192383 3.93896484 C-2 2 -2 2 0 0 Z " fill="#40362D" transform="translate(91,306)"/>
<path d="M0 0 C6.27 1.98 12.54 3.96 19 6 C20.7581908 14.790954 17.98084306 24.03831388 14 32 C13.34 32 12.68 32 12 32 C5.83280409 22.01572895 0 12.08072052 0 0 Z " fill="#5F4432" transform="translate(342,140)"/>
<path d="M0 0 C7.59505279 0.10905717 14.62945119 1.00949891 20.4375 6.3125 C20.1075 8.2925 19.7775 10.2725 19.4375 12.3125 C14.94345044 12.64955372 11.99191807 11.74982774 7.87109375 10.046875 C2.88984279 8.54370457 -2.39092406 8.5411215 -7.5625 8.3125 C-8.1875 5.4375 -8.1875 5.4375 -8.5625 2.3125 C-5.75661938 -0.49338062 -3.91644546 0.01267458 0 0 Z " fill="#3F362F" transform="translate(293.5625,138.6875)"/>
<path d="M0 0 C0.68513672 -0.01224609 1.37027344 -0.02449219 2.07617188 -0.03710938 C3.86484112 -0.04237533 5.65298848 0.06549979 7.4375 0.1875 C9.4375 2.1875 9.4375 2.1875 9.625 4.75 C9.4375 7.1875 9.4375 7.1875 8.4375 8.1875 C4.71510948 8.43535338 0.9977068 8.57190838 -2.73046875 8.7109375 C-6.66880666 9.2007206 -9.12107082 10.28895319 -12.5625 12.1875 C-15.3125 12.5 -15.3125 12.5 -17.5625 12.1875 C-19.5625 10.1875 -19.5625 10.1875 -19.6875 7.8125 C-18.14562903 4.21480106 -16.03772843 3.54535192 -12.5703125 1.984375 C-8.28068153 0.28187555 -4.55876299 0.00431293 0 0 Z " fill="#3F362F" transform="translate(217.5625,138.8125)"/>
<path d="M0 0 C2.4375 1.5 2.4375 1.5 4 4 C4.61014545 6.8089715 4.65360928 9.19636021 4 12 C1.9375 14.5625 1.9375 14.5625 -1 16 C-5.26438773 16.07481382 -7.23718151 15.64839572 -10.5 12.875 C-12.48799759 9.06467129 -12.20899436 7.08035596 -11 3 C-7.92160879 -0.67038952 -4.56677188 -0.57084649 0 0 Z " fill="#41362F" transform="translate(219,172)"/>
<path d="M0 0 C3 2.0625 3 2.0625 5 5 C5.1506132 9.29247606 4.66257079 11.22050496 1.875 14.5 C-1.93532871 16.48799759 -3.91964404 16.20899436 -8 15 C-10.81972931 12.63506574 -10.97850831 11.1719335 -11.4375 7.5 C-11 4 -11 4 -9.4375 1.5625 C-6.01685857 -0.63021887 -3.99048721 -0.63007693 0 0 Z " fill="#40362F" transform="translate(300,172)"/>
</svg>
