<?xml version="1.0" encoding="UTF-8"?>
<svg version="1.1" xmlns="http://www.w3.org/2000/svg" width="512" height="512">
<path d="M0 0 C0.84759962 -0.00453111 1.69519925 -0.00906223 2.56848371 -0.01373065 C5.4012109 -0.0263647 8.2337456 -0.02475495 11.0664978 -0.02310181 C13.10027819 -0.02908745 15.1340563 -0.03589308 17.16783142 -0.04345703 C22.68617591 -0.06111503 28.20445838 -0.06581218 33.72282839 -0.0670886 C38.32807234 -0.06898825 42.93330185 -0.07634607 47.53854024 -0.08343279 C58.3989411 -0.09971162 69.2593088 -0.104602 80.11972046 -0.10317993 C91.33176515 -0.10197685 102.54361785 -0.12311303 113.75561392 -0.15466726 C123.37865692 -0.18078686 133.00163701 -0.19154913 142.62471521 -0.19026911 C148.3738069 -0.18975845 154.12272776 -0.19550004 159.87178421 -0.21662521 C165.27433056 -0.23593628 170.67654175 -0.23618108 176.07909966 -0.22159195 C178.06410014 -0.21949425 180.04912122 -0.22426153 182.03408623 -0.23631287 C184.73902431 -0.25167498 187.44279344 -0.24251777 190.14770508 -0.22705078 C190.93738729 -0.23733791 191.7270695 -0.24762503 192.54068148 -0.25822389 C196.01698977 -0.21414216 198.04358958 -0.03299997 200.86948681 2.07217026 C203.13774309 5.22892069 204.26915381 8.64891353 205.45541382 12.30892944 C205.72749161 13.11584732 205.9995694 13.9227652 206.27989197 14.75413513 C207.1736323 17.41379987 208.05045321 20.07872348 208.92733765 22.74398804 C209.54590943 24.59472253 210.16557941 26.4450903 210.78630066 28.29510498 C212.41563953 33.16035422 214.03088371 38.03016645 215.64297485 42.90115356 C217.60709916 48.82738444 219.58733427 54.74824631 221.56553364 60.66979027 C223.10361264 65.27473053 224.63913952 69.8804706 226.16712952 74.48876953 C226.44790344 75.33401688 226.72867737 76.17926422 227.01795959 77.05012512 C227.54317845 78.63159003 228.06724659 80.21343773 228.58996582 81.79573059 C229.84004451 85.60304394 229.84004451 85.60304394 231.4468689 89.26742554 C232.60331626 89.2688921 233.75976362 89.27035866 234.95125484 89.27186966 C262.42106136 89.30759425 289.8907635 89.36386801 317.36047402 89.44534649 C320.74368268 89.45536359 324.12689183 89.46520778 327.51010132 89.47494507 C328.18361946 89.47688644 328.85713761 89.47882781 329.55106539 89.48082802 C340.447544 89.51182434 351.34400156 89.52882204 362.24051594 89.54061976 C373.426606 89.55304361 384.61259958 89.5808691 395.79862458 89.6220386 C402.07946061 89.64466875 408.3601394 89.66033527 414.64101982 89.65930939 C420.55488365 89.65856371 426.46839969 89.67647793 432.38217354 89.70859337 C434.55049173 89.71709975 436.71884889 89.71883731 438.88717651 89.71322823 C441.85343719 89.70657815 444.81859461 89.72453377 447.78474426 89.7484436 C448.637883 89.74068319 449.49102175 89.73292277 450.37001318 89.72492719 C459.39544333 89.8532477 466.19845522 93.38980424 472.72421265 99.47445679 C478.4200982 105.40282747 480.69370032 111.52639206 480.7041378 119.6652956 C480.71058669 120.93964759 480.71703559 122.21399958 480.7236799 123.5269683 C480.72073788 124.93372532 480.71760247 126.34048195 480.71429443 127.74723816 C480.71803201 129.24743192 480.72263397 130.74762372 480.72802508 132.24781245 C480.74025715 136.36707606 480.73999437 140.48625847 480.73763633 144.6055361 C480.73722822 149.04941982 480.74826676 153.49327747 480.75775146 157.93714905 C480.77436346 166.6423052 480.7798611 175.34743427 480.78097622 184.05260495 C480.78192658 191.12857148 480.78603625 198.20452908 480.79237747 205.28049278 C480.80999024 225.3423178 480.81921626 245.40412142 480.81771652 265.46595422 C480.81759666 267.08821841 480.81759666 267.08821841 480.81747437 268.74325562 C480.8173926 269.82608559 480.81731084 270.90891556 480.8172266 272.02455857 C480.81641364 289.57475323 480.83555383 307.12486209 480.8637511 324.67503194 C480.89247565 342.69557922 480.90629164 360.71608465 480.90456355 378.73665541 C480.90389951 388.85378403 480.9093979 398.97082268 480.93091965 409.08793068 C480.94912576 417.70159251 480.95348344 426.31512359 480.9399008 434.92879633 C480.93336834 439.32284773 480.93326393 443.71664824 480.9506073 448.11067581 C480.96633082 452.13573085 480.96348197 456.16033593 480.94603904 460.18537994 C480.94296754 461.63891974 480.94660724 463.09249305 480.95775919 464.54599331 C481.04114629 476.18843439 479.24387674 483.96048003 471.23983765 492.54476929 C464.60534538 498.91908538 457.95904442 500.57531381 448.98071289 500.50793457 C447.72345604 500.51049784 447.72345604 500.51049784 446.44080007 500.5131129 C443.64016365 500.51639975 440.8397683 500.50541737 438.03915405 500.49447632 C436.02844244 500.49391203 434.01773042 500.49422911 432.00701904 500.49536133 C426.5529667 500.49593515 421.09900232 500.48417591 415.64497042 500.47021341 C409.94347358 500.45771111 404.24197473 500.45653595 398.54046631 500.4541626 C387.74585984 500.44794637 376.95129389 500.43153358 366.15670526 500.41146362 C353.86660005 500.3891091 341.5764929 500.37811231 329.28637242 500.36807275 C304.00651546 500.34716751 278.72669445 500.31198871 253.4468689 500.26742554 C252.3185444 498.02105636 251.19132892 495.77414217 250.06474304 493.52690125 C249.74667836 492.89395283 249.42861367 492.26100442 249.10091066 491.60887575 C246.96569134 487.34687095 244.96598189 483.07682225 243.11483765 478.68539429 C242.8405191 478.03926682 242.56620056 477.39313934 242.28356934 476.72743225 C241.69902567 475.34999404 241.11631916 473.97177484 240.53540039 472.59280396 C238.94081533 468.80933021 237.33025606 465.03266251 235.7203064 461.25570679 C235.38112686 460.45938843 235.04194733 459.66307007 234.69248962 458.84262085 C230.45397582 448.91090149 226.1070913 439.02670155 221.7593689 429.14242554 C221.37187469 428.2609787 220.98438049 427.37953186 220.58514404 426.47137451 C218.82998871 422.4794057 217.07377462 418.48790377 215.3152771 414.49740601 C214.86228745 413.46677032 214.86228745 413.46677032 214.40014648 412.41531372 C213.71588866 410.87357045 213.02183124 409.33616235 212.32147217 407.80166626 C211.95446198 406.99388733 211.58745178 406.1861084 211.20932007 405.35385132 C210.87236618 404.6194986 210.53541229 403.88514587 210.18824768 403.12854004 C209.4468689 401.26742554 209.4468689 401.26742554 209.4468689 399.26742554 C208.33441677 399.2729563 207.22196465 399.27848705 206.07580185 399.28418541 C178.9831412 399.4174976 151.89052319 399.51603445 124.79760361 399.57829857 C111.69554727 399.60921089 98.59370786 399.6513417 85.49179077 399.72006226 C74.06956403 399.77994405 62.64749442 399.81859374 51.22511506 399.83195651 C45.17932569 399.83976527 39.1339858 399.85806376 33.08834076 399.90180588 C27.39195252 399.94268511 21.69619675 399.95506343 15.99967575 399.94607162 C13.91480695 399.9477154 11.82991588 399.9595584 9.74517441 399.98265839 C-2.93416553 400.11620036 -13.16197446 400.00811328 -23.0301857 391.00836754 C-31.58091675 382.33259452 -31.99514942 373.60545006 -31.94081116 361.96470642 C-31.94498761 360.50815751 -31.95046684 359.05161186 -31.95713097 357.59507221 C-31.97156338 353.60570176 -31.9673478 349.61653829 -31.95996416 345.62715662 C-31.95522934 341.31963507 -31.96774508 337.01215809 -31.97798157 332.70465088 C-31.99516851 324.27113498 -31.99600983 315.8376936 -31.99076866 307.40416474 C-31.98672569 300.54897077 -31.98817204 293.6937988 -31.99351692 286.83860588 C-31.99426534 285.86258579 -31.99501377 284.8865657 -31.99578487 283.88096924 C-31.99731636 281.89813209 -31.99885471 279.91529494 -32.00039984 277.9324578 C-32.01412439 259.3423692 -32.0086874 240.75232271 -31.99721462 222.16223507 C-31.98728136 205.15858406 -32.00022462 188.15504184 -32.02414881 171.15140761 C-32.04853632 153.6867579 -32.0581486 136.22215888 -32.05149609 118.75749248 C-32.04800322 108.95450771 -32.0502405 99.15160662 -32.06774712 89.34863472 C-32.08246467 81.00400669 -32.08311032 72.65952128 -32.0656762 64.31489605 C-32.05716033 60.05855108 -32.05503095 55.80246095 -32.07032776 51.54612923 C-32.08416733 47.64696948 -32.07942142 43.74828308 -32.06008852 39.84915077 C-32.05632595 38.44143427 -32.059258 37.03367993 -32.06970017 35.62599713 C-32.14876922 24.14734295 -30.23338962 16.44915802 -22.34609985 7.99008179 C-15.68571061 1.59088428 -9.00853806 -0.03553304 0 0 Z " fill="#2196F2" transform="translate(31.553131103515625,5.732574462890625)"/>
<path d="M0 0 C28.76522935 -0.09130703 57.53044157 -0.1620679 86.29578739 -0.20426132 C89.694018 -0.20926397 93.09224833 -0.21444128 96.49047852 -0.21972656 C97.50524165 -0.22130043 97.50524165 -0.22130043 98.54050506 -0.22290608 C109.48553227 -0.24029766 120.43047519 -0.27182843 131.37545245 -0.30861118 C142.61120137 -0.3460554 153.84690829 -0.36794391 165.08272272 -0.37635398 C171.39155089 -0.38156717 177.70018806 -0.39381395 184.008955 -0.42292023 C189.94900876 -0.45010294 195.88879314 -0.45843907 201.8289032 -0.45243073 C204.00692777 -0.45352967 206.18496149 -0.46146629 208.36293221 -0.4768219 C211.34225384 -0.49679412 214.32056531 -0.49191246 217.2999115 -0.48101807 C218.15694119 -0.49266943 219.01397088 -0.5043208 219.89697117 -0.51632524 C228.94202302 -0.42724278 235.73961815 3.11121951 242.27734375 9.20703125 C247.9732293 15.13540193 250.24683143 21.25896652 250.25726891 29.39787006 C250.2637178 30.67222205 250.27016669 31.94657405 250.276811 33.25954276 C250.27386898 34.66629979 250.27073357 36.07305641 250.26742554 37.47981262 C250.27116312 38.98000638 250.27576507 40.48019819 250.28115618 41.98038691 C250.29338826 46.09965053 250.29312547 50.21883293 250.29076743 54.33811057 C250.29035932 58.78199428 250.30139787 63.22585194 250.31088257 67.66972351 C250.32749456 76.37487967 250.3329922 85.08000874 250.33410732 93.78517941 C250.33505768 100.86114595 250.33916736 107.93710354 250.34550858 115.01306725 C250.36312134 135.07489226 250.37234736 155.13669588 250.37084763 175.19852868 C250.37076772 176.28003814 250.3706878 177.3615476 250.37060547 178.47583008 C250.37052371 179.55866005 250.37044195 180.64149003 250.37035771 181.75713303 C250.36954474 199.3073277 250.38868494 216.85743655 250.4168822 234.4076064 C250.44560675 252.42815369 250.45942274 270.44865911 250.45769465 288.46922988 C250.45703061 298.58635849 250.462529 308.70339714 250.48405075 318.82050514 C250.50225686 327.43416697 250.50661454 336.04769806 250.4930319 344.66137079 C250.48649945 349.05542219 250.48639504 353.4492227 250.5037384 357.84325027 C250.51946192 361.86830531 250.51661307 365.89291039 250.49917014 369.91795441 C250.49609864 371.3714942 250.49973834 372.82506751 250.51089029 374.27856777 C250.59427739 385.92100886 248.79700784 393.69305449 240.79296875 402.27734375 C234.17163255 408.63901971 227.53414196 410.30810704 218.57180786 410.24050903 C217.32067634 410.24307231 217.32067634 410.24307231 216.04426944 410.24568737 C213.25745211 410.24897405 210.47087708 410.2379921 207.68408203 410.22705078 C205.68322251 410.22648649 203.68236258 410.22680358 201.6815033 410.22793579 C196.25430942 410.2285096 190.82720395 410.21675059 185.40003061 410.20278788 C179.72656102 410.19028534 174.0530894 410.18911039 168.37960815 410.18673706 C157.63812554 410.1805209 146.89668364 410.1641082 136.15521896 410.14403808 C123.92557212 410.12168335 111.69592333 410.11068672 99.46626115 410.10064721 C74.3108182 410.07974212 49.15541138 410.04456346 24 410 C25.83176971 406.90540793 27.65650576 404.04117581 29.96875 401.28515625 C30.53400391 400.60646484 31.09925781 399.92777344 31.68164062 399.22851562 C32.28169922 398.51373047 32.88175781 397.79894531 33.5 397.0625 C37.90857699 391.76403518 42.27092318 386.44294906 46.5 381 C51.15924412 375.01238669 55.96934078 369.15904645 60.80859375 363.31640625 C64.43701419 358.92577932 68.00152302 354.49470625 71.5 350 C75.54471027 344.80692097 79.68418674 339.70084043 83.875 334.625 C84.74620483 333.56273193 84.74620483 333.56273193 85.63500977 332.47900391 C88.64810062 328.81201532 91.69665135 325.1862047 94.81640625 321.609375 C95.42436035 320.8982959 96.03231445 320.1872168 96.65869141 319.45458984 C97.81534856 318.1023519 98.98754687 316.76320215 100.17724609 315.43994141 C100.95382568 314.52220947 100.95382568 314.52220947 101.74609375 313.5859375 C102.20685303 313.0604834 102.6676123 312.5350293 103.14233398 311.99365234 C105.39100446 306.76659766 102.31040351 300.50561052 100.4609375 295.45703125 C99.95812367 294.03978791 99.45552577 292.62246795 98.953125 291.20507812 C98.16225536 288.9983842 97.36794056 286.79301809 96.56933594 284.58911133 C95.79485109 282.44407337 95.03348946 280.29471758 94.2734375 278.14453125 C94.0308017 277.48717484 93.78816589 276.82981842 93.53817749 276.15254211 C92.63977891 273.59582604 91.97355296 271.44226644 92.13647461 268.71777344 C93.256869 266.48902169 94.43083569 265.68933921 96.54296875 264.37109375 C97.28095703 263.89849121 98.01894531 263.42588867 98.77929688 262.93896484 C99.57400391 262.44348145 100.36871094 261.94799805 101.1875 261.4375 C107.33179102 257.48496747 113.28091387 253.42474205 119 248.875 C119.58031982 248.41407959 120.16063965 247.95315918 120.75854492 247.47827148 C122.93643944 245.72865346 125.02323741 243.97676259 127 242 C130.71614541 242.30568293 132.64414717 243.21297205 135.25 245.8125 C148.72618338 258.10920364 177.08155686 281 196 281 C197.67223282 276.87723451 199.33684063 272.75143325 201 268.625 C201.47695313 267.449375 201.95390625 266.27375 202.4453125 265.0625 C202.89648438 263.94101562 203.34765625 262.81953125 203.8125 261.6640625 C204.23144531 260.62717285 204.65039062 259.5902832 205.08203125 258.52197266 C206.11401173 256.1340781 206.11401173 256.1340781 206 254 C204.45505859 253.30777344 204.45505859 253.30777344 202.87890625 252.6015625 C186.48076744 245.14238303 171.76165027 236.29387075 157.55615234 225.21142578 C155.72189879 223.78350514 153.86578144 222.3864119 152 221 C152.40125859 215.91739124 155.19168317 212.96280345 158.375 209.25 C171.54150453 193.32739406 181.95741526 175.20929131 190.43823242 156.40625 C192.80357896 151.19642104 192.80357896 151.19642104 195 149 C197.43017578 148.77294922 197.43017578 148.77294922 200.4453125 148.8046875 C201.41484863 148.80968262 202.38438477 148.81467773 203.38330078 148.81982422 C204.61806152 148.83803223 205.85282227 148.85624023 207.125 148.875 C213.003125 148.936875 213.003125 148.936875 219 149 C218.67 139.1 218.34 129.2 218 119 C215.7938501 118.97494385 213.5877002 118.9498877 211.31469727 118.92407227 C204.04232734 118.84076118 196.77003053 118.75205465 189.49775791 118.66066074 C185.086666 118.60539168 180.67556751 118.55196546 176.2644043 118.50268555 C172.01093013 118.45510055 167.75753911 118.40276014 163.50416374 118.34705925 C161.87780757 118.32660902 160.25142858 118.30790044 158.62503242 118.29092598 C156.35483637 118.26694073 154.08479887 118.23687865 151.81469727 118.20532227 C149.87277245 118.18200584 149.87277245 118.18200584 147.89161682 118.15821838 C145 118 145 118 144 117 C143.91299658 115.36527118 143.89298937 113.72685945 143.90234375 112.08984375 C143.90484131 111.199021 143.90733887 110.30819824 143.90991211 109.39038086 C143.91901611 108.25093018 143.92812012 107.11147949 143.9375 105.9375 C143.958125 102.328125 143.97875 98.71875 144 95 C134.1 95 124.2 95 114 95 C114.0395866 102.19522782 114.0395866 102.19522782 114.09008789 109.39038086 C114.09258545 110.28120361 114.09508301 111.17202637 114.09765625 112.08984375 C114.10289307 113.00628662 114.10812988 113.92272949 114.11352539 114.86694336 C114 117 114 117 113 118 C110.73008113 118.09439978 108.45718033 118.11742226 106.18530273 118.11352539 C105.11706772 118.11374443 105.11706772 118.11374443 104.0272522 118.1139679 C101.66266888 118.1132687 99.29816339 118.10547606 96.93359375 118.09765625 C95.29834537 118.09579209 93.66309643 118.09436818 92.02784729 118.09336853 C87.71565215 118.08954318 83.40349048 118.07971275 79.09130859 118.06866455 C74.69434054 118.0584508 70.29736711 118.05387099 65.90039062 118.04882812 C57.26691169 118.03809049 48.63346 118.02101387 40 118 C32.74418043 96.77360772 25.49714482 75.54422054 18.27072144 54.30780029 C17.56310829 52.2286397 16.85521448 50.1495746 16.14700317 48.07061768 C12.14012401 36.3071773 8.16863122 24.53266041 4.2434082 12.74169922 C3.83267311 11.50866562 3.42193802 10.27563202 2.99875641 9.00523376 C1.99891556 6.00357412 0.99933418 3.00182836 0 0 Z " fill="#F3F3F3" transform="translate(262,96)"/>
<path d="M0 0 C0.58458984 0.43465576 1.16917969 0.86931152 1.77148438 1.31713867 C2.33029297 1.72923584 2.88910156 2.14133301 3.46484375 2.56591797 C4.99023438 3.77026367 4.99023438 3.77026367 7.27148438 6.06713867 C7.27148438 10.06713867 7.27148438 10.06713867 5.43554688 12.35717773 C4.17871094 13.58259277 4.17871094 13.58259277 2.89648438 14.83276367 C1.99414062 15.7222168 1.09179688 16.61166992 0.16210938 17.52807617 C-0.80121986 18.45798378 -1.76476434 19.38766847 -2.72851562 20.31713867 C-3.69296637 21.26152367 -4.65651957 22.20682622 -5.61914062 23.15307617 C-7.98024332 25.46695682 -10.3501617 27.77101507 -12.72851562 30.06713867 C-15.95567888 28.49322479 -18.86545997 26.68707962 -21.85351562 24.69213867 C-34.81747645 16.38412639 -49.26682752 13.83071172 -64.41210938 16.78588867 C-78.96906115 21.03809602 -90.42470643 29.05182982 -98.25976562 42.22729492 C-105.0962171 55.44564657 -106.85761605 69.69509136 -102.75976562 84.09448242 C-97.11424305 100.36812894 -86.97345262 110.54303726 -71.84570312 118.20776367 C-65.39298336 120.82694882 -59.65560374 121.37893541 -52.79101562 121.31713867 C-51.93572266 121.32487305 -51.08042969 121.33260742 -50.19921875 121.34057617 C-36.02673043 121.29733441 -23.0624121 115.3201152 -12.91601562 105.52416992 C-7.04695957 98.93196232 -3.82947352 92.33635973 -0.72851562 84.06713867 C-17.55851562 84.06713867 -34.38851562 84.06713867 -51.72851562 84.06713867 C-51.72851562 73.83713867 -51.72851562 63.60713867 -51.72851562 53.06713867 C-23.67851562 53.06713867 4.37148437 53.06713867 33.27148438 53.06713867 C33.27148438 85.0048244 30.40281192 107.31836405 8.10742188 130.31713867 C-9.21390922 147.11358095 -31.91380777 154.39696569 -55.66723633 154.44775391 C-75.7811151 154.08502968 -94.96247863 145.6161946 -109.72851562 132.06713867 C-110.43234375 131.43163086 -111.13617188 130.79612305 -111.86132812 130.14135742 C-126.08843932 116.64453521 -136.43743378 96.07125818 -137.06445312 76.37182617 C-137.40249015 48.93754989 -131.29594621 27.39884061 -112.10351562 7.32104492 C-80.92137266 -22.4560887 -34.67819974 -24.98091074 0 0 Z " fill="#F3F4F4" transform="translate(196.728515625,143.932861328125)"/>
<path d="M0 0 C9.9 0 19.8 0 30 0 C30.33 7.26 30.66 14.52 31 22 C33.2061499 22.02505615 35.4122998 22.0501123 37.68530273 22.07592773 C44.95767266 22.15923882 52.22996947 22.24794535 59.50224209 22.33933926 C63.913334 22.39460832 68.32443249 22.44803454 72.7355957 22.49731445 C76.98906987 22.54489945 81.24246089 22.59723986 85.49583626 22.65294075 C87.12219243 22.67339098 88.74857142 22.69209956 90.37496758 22.70907402 C92.64516363 22.73305927 94.91520113 22.76312135 97.18530273 22.79467773 C99.12722755 22.81799416 99.12722755 22.81799416 101.10838318 22.84178162 C104 23 104 23 105 24 C105.08783542 26.21855264 105.10694609 28.43988496 105.09765625 30.66015625 C105.09553383 31.65685585 105.09553383 31.65685585 105.09336853 32.6736908 C105.08775518 34.80333899 105.07520054 36.93288339 105.0625 39.0625 C105.05748671 40.50325369 105.05292351 41.94400903 105.04882812 43.38476562 C105.03863076 46.92324958 105.0190583 50.46150813 105 54 C93.12 54.495 93.12 54.495 81 55 C79.845 57.330625 78.69 59.66125 77.5 62.0625 C76.37159127 64.31426145 75.23774489 66.56318257 74.10253906 68.81152344 C73.41834311 70.169613 72.7373786 71.52934198 72.06152344 72.89160156 C64.29828016 88.49546264 54.5256789 103.258418 43.37573242 116.65063477 C40.91910523 119.63202442 39.21648894 122.3235001 38 126 C38.54011719 126.23589844 39.08023438 126.47179687 39.63671875 126.71484375 C42.6512569 128.35415458 45.13760084 130.41248671 47.8125 132.5625 C58.49351342 140.93505105 70.15997615 147.27241705 82.34375 153.17578125 C85.99375797 154.95868482 89.49231232 156.95234212 93 159 C90.96641189 165.20925945 88.84785119 171.37870456 86.5625 177.5 C86.27568359 178.30953125 85.98886719 179.1190625 85.69335938 179.953125 C85.40396484 180.72140625 85.11457031 181.4896875 84.81640625 182.28125 C84.56318604 182.97283203 84.30996582 183.66441406 84.04907227 184.37695312 C83 186 83 186 81.13330078 186.82739258 C78.58952398 187.03321201 77.34469012 186.57656753 75.05078125 185.48046875 C74.29369873 185.12283447 73.53661621 184.7652002 72.7565918 184.39672852 C71.9500415 183.99768311 71.14349121 183.5986377 70.3125 183.1875 C69.47178955 182.77878662 68.6310791 182.37007324 67.76489258 181.94897461 C49.88180123 173.11402579 31.19274126 162.19274126 17 148 C12.39928095 148.21089884 10.13936337 150.30248076 6.8125 153.3125 C1.67039133 157.80862347 -3.75321468 161.71642457 -9.4375 165.5 C-10.59125122 166.27404175 -10.59125122 166.27404175 -11.76831055 167.0637207 C-15.44140591 169.48333453 -18.86555238 171.44582457 -23 173 C-24.42819399 169.05043587 -25.85224928 165.09941203 -27.27246094 161.14697266 C-27.75634643 159.80216068 -28.24136744 158.45775672 -28.72753906 157.11376953 C-29.42550666 155.18367547 -30.11939898 153.25215863 -30.8125 151.3203125 C-31.44091797 149.57645264 -31.44091797 149.57645264 -32.08203125 147.79736328 C-33 145 -33 145 -33 143 C-31.29946359 141.74268851 -29.53564319 140.57069664 -27.75 139.4375 C-21.27040794 135.23347896 -15.13143467 130.69641805 -9 126 C-9.40125526 120.91743339 -12.19154634 117.9627971 -15.375 114.25 C-20.01445905 108.63878619 -24.30681504 102.89398953 -28.3125 96.8125 C-28.79831543 96.09416992 -29.28413086 95.37583984 -29.78466797 94.63574219 C-30.22311035 93.95801758 -30.66155273 93.28029297 -31.11328125 92.58203125 C-31.50298096 91.98624268 -31.89268066 91.3904541 -32.29418945 90.77661133 C-33 89 -33 89 -32.91601562 86.97827148 C-31.61228548 84.16267305 -29.88938667 83.3284215 -27.23046875 81.765625 C-26.25916016 81.19199219 -25.28785156 80.61835938 -24.28710938 80.02734375 C-23.26423828 79.44082031 -22.24136719 78.85429687 -21.1875 78.25 C-20.17623047 77.64800781 -19.16496094 77.04601562 -18.12304688 76.42578125 C-10.53097541 72 -10.53097541 72 -6 72 C-4.42211265 74.04756977 -3.16059298 75.96595351 -1.875 78.1875 C-1.09180563 79.46764847 -0.30389919 80.74492398 0.48828125 82.01953125 C0.89643066 82.67646973 1.30458008 83.3334082 1.72509766 84.01025391 C3.78950339 87.23218166 6.01566721 90.31584523 8.3125 93.375 C8.72064941 93.93985107 9.12879883 94.50470215 9.54931641 95.08666992 C10.84089511 96.84532376 10.84089511 96.84532376 13 99 C14.32 99 15.64 99 17 99 C18.90255066 97.08203159 20.45362401 95.27103578 22.0625 93.125 C22.7733374 92.19844604 22.7733374 92.19844604 23.49853516 91.25317383 C29.26848422 83.56022527 34.19505715 75.318812 39 67 C39.47211914 66.1951416 39.94423828 65.3902832 40.43066406 64.56103516 C40.88924805 63.76358887 41.34783203 62.96614258 41.8203125 62.14453125 C42.23812988 61.42241455 42.65594727 60.70029785 43.08642578 59.95629883 C44.21156343 57.90681517 44.21156343 57.90681517 44 55 C8.69 54.67 -26.62 54.34 -63 54 C-67.0721463 43.81963425 -70.53269237 33.4019229 -74 23 C-49.91 22.67 -25.82 22.34 -1 22 C-0.67 14.74 -0.34 7.48 0 0 Z " fill="#617E8B" transform="translate(376,191)"/>
<path d="M0 0 C41.25 0 82.5 0 125 0 C123.09609635 3.80780731 120.88240131 6.88963288 118.25 10.1875 C117.77264404 10.79045898 117.29528809 11.39341797 116.8034668 12.01464844 C111.68871884 18.44592646 106.44739955 24.77330456 101.2109375 31.10546875 C98.13659797 34.82643076 95.11204823 38.58427584 92.109375 42.36328125 C89.32474316 45.84407105 86.50425028 49.29518783 83.6875 52.75 C79.5942289 57.7735066 75.54613262 62.82666111 71.5625 67.9375 C66.79758402 74.04869662 61.88246329 80.02851478 56.94116211 85.99755859 C52.86606649 90.92687996 48.8634158 95.90203404 45 101 C42.75881272 98.94461356 41.42159484 97.15624923 40.21337891 94.37182617 C39.73536583 93.28444405 39.73536583 93.28444405 39.24769592 92.1750946 C38.91072189 91.38899307 38.57374786 90.60289154 38.2265625 89.79296875 C37.68647804 88.55623161 37.68647804 88.55623161 37.13548279 87.29450989 C35.95858562 84.59504783 34.79176626 81.89135436 33.625 79.1875 C32.81108815 77.31548437 31.99654895 75.44374137 31.18139648 73.57226562 C29.15170358 68.90786285 27.13005644 64.24002878 25.1116333 59.57073975 C23.513648 55.87527261 21.91112788 52.18177744 20.30859375 48.48828125 C18.70695307 44.7959606 17.10695259 41.10294835 15.51147461 37.40795898 C12.95276143 31.48422755 10.37510979 25.56990417 7.7578125 19.671875 C7.24081787 18.50527344 6.72382324 17.33867187 6.19116211 16.13671875 C5.21350558 13.93472957 4.23271786 11.73412702 3.24829102 9.53515625 C2.81959717 8.56964844 2.39090332 7.60414063 1.94921875 6.609375 C1.57112061 5.76342773 1.19302246 4.91748047 0.8034668 4.04589844 C0 2 0 2 0 0 Z " fill="#1565C0" transform="translate(241,405)"/>
<path d="M0 0 C35.31 0 70.62 0 107 0 C108.12651349 4.50605395 108.12651349 4.50605395 106.33203125 7.73046875 C105.93927002 8.44283691 105.54650879 9.15520508 105.1418457 9.88916016 C104.70316162 10.6476123 104.26447754 11.40606445 103.8125 12.1875 C103.36414795 12.97688965 102.9157959 13.7662793 102.45385742 14.57958984 C95.80402051 26.0578908 88.22559044 37.41708035 79 47 C75.77282536 45.62096978 74.04959535 44.15669635 71.94140625 41.3671875 C71.39033203 40.64273438 70.83925781 39.91828125 70.27148438 39.171875 C69.70751953 38.41390625 69.14355469 37.6559375 68.5625 36.875 C68.00240234 36.14023437 67.44230469 35.40546875 66.86523438 34.6484375 C57 21.57153406 57 21.57153406 57 18 C51.02213942 20.3765443 45.59873522 23.42469978 40.0625 26.6875 C38.75055664 27.45416992 38.75055664 27.45416992 37.41210938 28.23632812 C35.27260176 29.48729706 33.13532837 30.74191522 31 32 C31.53588563 35.3252664 32.19433322 37.7283246 34.1171875 40.49609375 C34.55434082 41.1305542 34.99149414 41.76501465 35.44189453 42.41870117 C35.91481934 43.08490479 36.38774414 43.7511084 36.875 44.4375 C37.60178955 45.48224487 37.60178955 45.48224487 38.34326172 46.5480957 C42.18733675 52.01212957 46.26207829 57.27784316 50.55810547 62.39428711 C53.19642279 65.61560156 54.3519723 67.92293329 55 72 C52.29407431 74.08647519 49.58483102 76.16860019 46.875 78.25 C46.11445313 78.83652344 45.35390625 79.42304688 44.5703125 80.02734375 C32.87561447 89 32.87561447 89 30 89 C22.45606345 67.47916235 14.94459044 45.94725521 7.56546021 24.3692627 C6.89664223 22.41423439 6.22678065 20.4595628 5.55587769 18.50524902 C4.61876265 15.77408661 3.68570755 13.0415729 2.75390625 10.30859375 C2.33312302 9.08501411 2.33312302 9.08501411 1.90383911 7.8367157 C0 2.22922021 0 2.22922021 0 0 Z " fill="#F2F3F3" transform="translate(313,245)"/>
</svg>
