<?xml version="1.0" encoding="UTF-8"?>
<svg version="1.1" xmlns="http://www.w3.org/2000/svg" width="512" height="512">
<path d="M0 0 C3.76412254 1.60341304 7.53422775 3.19253346 11.30407715 4.78242493 C13.28843839 5.61931705 15.27252564 6.45685913 17.25634766 7.29502869 C27.94625635 11.80838068 38.67157755 16.23486556 49.40008545 20.65548706 C53.26089168 22.24762192 57.12149782 23.84024173 60.9821167 25.43283081 C61.92816772 25.82300888 62.87421875 26.21318695 63.84893799 26.6151886 C77.79040661 32.36618659 91.71852638 38.14940621 105.64790344 43.92961121 C112.67281442 46.84425313 119.70008469 49.75317898 126.72772217 52.66123962 C133.59863452 55.50510255 140.46600877 58.35741804 147.33197021 61.21321106 C151.69503385 63.02652699 156.06260667 64.82797707 160.43711853 66.61349487 C163.4071976 67.82792594 166.37181664 69.05557521 169.33758545 70.28048706 C170.35328613 70.68960327 171.36898682 71.09871948 172.41546631 71.52023315 C183.09513213 75.96295941 192.05770003 82.274823 196.58758545 93.21798706 C198.50875671 98.29247316 199.40449423 102.96408486 199.3727417 108.39376831 C199.36951904 109.37023315 199.36629639 110.346698 199.36297607 111.35275269 C199.35459717 112.36015503 199.34621826 113.36755737 199.33758545 114.40548706 C199.33307373 115.43222534 199.32856201 116.45896362 199.32391357 117.51681519 C199.31216729 120.04226588 199.29574109 122.56759611 199.27508545 125.09298706 C200.07172607 125.05818237 200.8683667 125.02337769 201.68914795 124.98751831 C212.6483075 124.70753978 212.6483075 124.70753978 217.27508545 128.09298706 C221.69080015 132.56834579 222.90769058 134.9842593 222.9039917 141.46798706 C222.90640366 142.15554077 222.90881561 142.84309448 222.91130066 143.55148315 C222.91032644 144.99701742 222.89703433 146.44259097 222.87200928 147.88790894 C222.83766675 150.08777889 222.85137408 152.28363076 222.87078857 154.48361206 C222.86388941 155.89508732 222.85421636 157.3065523 222.8414917 158.71798706 C222.83061523 159.98900269 222.81973877 161.26001831 222.80853271 162.56954956 C222.03763312 167.66136783 219.89396698 170.84769357 215.83758545 173.96798706 C212.27508545 175.09298706 212.27508545 175.09298706 199.27508545 175.09298706 C199.27508545 263.86298706 199.27508545 352.63298706 199.27508545 444.09298706 C203.23508545 444.09298706 207.19508545 444.09298706 211.27508545 444.09298706 C216.16745662 445.69412672 219.91787284 448.45267788 222.27508545 453.09298706 C223.04625381 457.58197884 223.01845794 461.98538137 222.96258545 466.53048706 C223.00415771 468.33356323 223.00415771 468.33356323 223.04656982 470.17306519 C223.02861186 476.68462174 222.71000241 481.07675232 218.05169678 485.8432312 C213.30159022 489.18468997 208.66917131 489.37964101 203.02409458 489.34746265 C202.19281983 489.35066913 201.36154509 489.35387561 200.50508019 489.35717925 C197.70728146 489.36550978 194.90969511 489.35954429 192.1118927 489.35368347 C190.09069996 489.35670276 188.06950837 489.36059112 186.0483188 489.36527604 C180.48440848 489.37559343 174.92056233 489.37336472 169.35664666 489.36909544 C163.35996494 489.36663501 157.36329894 489.37563385 151.36662292 489.38313293 C139.61496519 489.39590079 127.86332546 489.3976769 116.11166341 489.39533267 C106.56282209 489.39350096 97.01398749 489.39525706 87.46514702 489.39955711 C86.0939175 489.40015951 84.72268799 489.40076071 83.35145847 489.40136072 C81.28522289 489.40226796 79.21898732 489.40317662 77.15275174 489.40409307 C57.93886809 489.41252419 38.72498697 489.41685717 19.51110172 489.41268635 C18.78658159 489.41252997 18.06206145 489.4123736 17.31558616 489.41221248 C13.64331891 489.41140668 9.97105168 489.41056091 6.29878444 489.40969918 C5.56944289 489.40952809 4.84010134 489.409357 4.08865852 489.40918073 C2.61375261 489.40883408 1.13884669 489.40848555 -0.33605922 489.40813514 C-23.28950471 489.40277703 -46.24291178 489.41071027 -69.1963501 489.4291687 C-94.97676748 489.44987615 -120.75716106 489.46061386 -146.53758723 489.45659322 C-149.28544493 489.45619786 -152.03330264 489.45583631 -154.78116035 489.45549583 C-155.7960704 489.45535974 -155.7960704 489.45535974 -156.83148367 489.45522089 C-167.05345189 489.45405405 -177.27539611 489.46070977 -187.49735832 489.47130775 C-199.11980922 489.48334536 -210.74221659 489.48465641 -222.36466997 489.47251759 C-228.29749045 489.46661028 -234.23020738 489.46558047 -240.16302109 489.47751999 C-245.59049257 489.48831585 -251.01777324 489.48535091 -256.44523556 489.47125831 C-258.41220531 489.46859394 -260.37918971 489.47103198 -262.34614515 489.47899417 C-265.01369015 489.48904566 -267.6805649 489.48072509 -270.34808254 489.46771717 C-271.11702049 489.47502652 -271.88595844 489.48233586 -272.67819753 489.4898667 C-278.93859943 489.4263116 -282.79270591 487.6947214 -287.5569458 483.74533081 C-291.29949448 478.8798674 -290.48414433 472.4905488 -290.41241455 466.65548706 C-290.44012939 465.45343628 -290.46784424 464.2513855 -290.49639893 463.01290894 C-290.47844097 456.50135239 -290.15983151 452.1092218 -285.50152588 447.34274292 C-281.27721444 444.37115432 -277.50470413 443.85606861 -272.41241455 443.96798706 C-271.34378174 443.98603394 -270.27514893 444.00408081 -269.1741333 444.02267456 C-267.96177002 444.05747925 -267.96177002 444.05747925 -266.72491455 444.09298706 C-266.72675814 443.02985165 -266.72860172 441.96671623 -266.73050117 440.87136459 C-266.77486406 415.02488146 -266.80774885 389.17840325 -266.82853889 363.33189011 C-266.83885955 350.83280842 -266.85293495 338.33375185 -266.87579346 325.83468628 C-266.89570318 314.94284494 -266.90862524 304.05102179 -266.91309154 293.15916276 C-266.91570302 287.38990671 -266.92185752 281.62070271 -266.93637466 275.85146332 C-266.94992037 270.42446163 -266.9541433 264.99753358 -266.95112991 259.57051659 C-266.95168143 257.57584674 -266.95567674 255.5811745 -266.9633255 253.58651924 C-266.9732396 250.86843009 -266.97089636 248.15062093 -266.96542358 245.43252563 C-266.97124927 244.6387507 -266.97707495 243.84497577 -266.98307717 243.02714705 C-266.94310309 235.70884519 -266.94310309 235.70884519 -264.72491455 233.09298706 C-261.75491455 232.10298706 -261.75491455 232.10298706 -258.72491455 231.09298706 C-258.72491455 224.82298706 -258.72491455 218.55298706 -258.72491455 212.09298706 C-260.37491455 211.76298706 -262.02491455 211.43298706 -263.72491455 211.09298706 C-267.03816401 207.19995276 -267.07940519 203.80672886 -267.0178833 198.82345581 C-267.01363846 198.14245316 -267.00939362 197.4614505 -267.00502014 196.7598114 C-266.98832065 194.59962248 -266.95068767 192.44039064 -266.91241455 190.28048706 C-266.8973563 188.80979748 -266.88366989 187.33909317 -266.87139893 185.86837769 C-266.83844669 182.27627349 -266.78672628 178.6847238 -266.72491455 175.09298706 C-267.62202148 175.10603882 -268.51912842 175.11909058 -269.44342041 175.13253784 C-271.20504517 175.14776489 -271.20504517 175.14776489 -273.0022583 175.16329956 C-274.16749023 175.17635132 -275.33272217 175.18940308 -276.53326416 175.20285034 C-280.39878419 175.06979106 -282.64713228 174.46051189 -285.72491455 172.09298706 C-290.70549148 165.83190392 -290.40235574 159.97294139 -290.35626221 152.35299683 C-290.34993738 150.16339026 -290.39691114 147.97919249 -290.4475708 145.79025269 C-290.55531586 134.12092854 -290.55531586 134.12092854 -286.99835205 129.71408081 C-282.44485929 125.5939336 -278.48001091 124.83463329 -272.41241455 124.96798706 C-271.34378174 124.98603394 -270.27514893 125.00408081 -269.1741333 125.02267456 C-268.36589111 125.04587769 -267.55764893 125.06908081 -266.72491455 125.09298706 C-266.740625 124.48414673 -266.75633545 123.8753064 -266.77252197 123.24801636 C-267.42498173 94.1461088 -267.42498173 94.1461088 -257.72491455 83.09298706 C-252.51216742 77.87109476 -247.40709203 74.59760004 -240.59991455 71.84298706 C-239.16687988 71.24079346 -239.16687988 71.24079346 -237.70489502 70.62643433 C-234.76484044 69.396583 -231.8185134 68.18303564 -228.86968994 66.97439575 C-225.63334231 65.64439871 -222.40208521 64.30218407 -219.17027283 62.96121216 C-210.35935388 59.3055498 -201.54215385 55.66530255 -192.7210083 52.03439331 C-181.77754024 47.52972152 -170.84302139 43.00376398 -159.91241455 38.46798706 C-158.22508558 37.76801595 -156.53774834 37.06806479 -154.85040283 36.36813354 C-151.48999525 34.97414417 -148.12965171 33.58000059 -144.76934814 32.1857605 C-139.67801095 30.07339063 -134.58628262 27.96196478 -129.4944458 25.85079956 C-128.64640884 25.49918259 -127.79837189 25.14756561 -126.92463684 24.78529358 C-122.66842778 23.02060163 -118.41215841 21.25605527 -114.15582275 19.4916687 C-106.22691081 16.20470614 -98.29851399 12.91651855 -90.37194824 9.62390137 C-86.67120377 8.08673889 -82.97016442 6.55028709 -79.269104 5.0138855 C-77.52302639 4.28881531 -75.77708961 3.56340586 -74.03131104 2.83761597 C-68.5998585 0.57960234 -63.16483873 -1.66948503 -57.72491455 -3.90701294 C-57.00275757 -4.20480652 -56.28060059 -4.5026001 -55.53656006 -4.80941772 C-53.47900381 -5.65568488 -51.41889831 -6.49537644 -49.35772705 -7.33279419 C-48.19386475 -7.80757202 -47.03000244 -8.28234985 -45.83087158 -8.77151489 C-29.80524811 -14.63027725 -14.64928327 -6.24122027 0 0 Z " fill="#020203" transform="translate(289.72491455078125,16.907012939453125)"/>
<path d="M0 0 C1.07419189 0.44480713 2.14838379 0.88961426 3.25512695 1.34790039 C6.26281466 2.59653817 9.26419787 3.8591567 12.26379395 5.1270752 C15.57429375 6.52173274 18.89294378 7.89672702 22.2109375 9.2734375 C27.4003705 11.42849005 32.58726714 13.58947645 37.77151489 15.75697327 C49.45869068 20.64277001 61.16526682 25.48106043 72.875 30.3125 C76.79955048 31.93211892 80.72402514 33.55192143 84.6484375 35.171875 C85.61635223 35.57141891 86.58426697 35.97096283 87.58151245 36.38261414 C99.06293732 41.12311979 110.53738207 45.88043954 122.01025391 50.64160156 C123.67870932 51.33398828 125.34716635 52.02637109 127.015625 52.71875 C127.8404538 53.06105652 128.66528259 53.40336304 129.5151062 53.75604248 C134.83921696 55.9649745 140.16504913 58.16970831 145.49201965 60.37173462 C149.18945916 61.90024053 152.88641176 63.42992224 156.58334351 64.95965576 C158.32433611 65.67967488 160.0655573 66.39914162 161.80703735 67.11798096 C166.52435408 69.06529227 171.23773574 71.0214733 175.94360352 72.99630737 C177.45996083 73.63233686 178.97724013 74.266172 180.49536133 74.89797974 C182.71052328 75.82260733 184.92027102 76.75912493 187.12890625 77.69921875 C187.78681656 77.97190582 188.44472687 78.2445929 189.12257385 78.52554321 C196.02995144 81.4993499 198.8511473 85.26479461 202.1875 91.9375 C202.1875 100.1875 202.1875 108.4375 202.1875 116.9375 C182.0575 116.9375 161.9275 116.9375 141.1875 116.9375 C140.8575 110.3375 140.5275 103.7375 140.1875 96.9375 C136.07053228 90.76204842 133.17138796 87.26146522 126.1875 84.9375 C123.19975743 84.63057717 123.19975743 84.63057717 119.97607422 84.6628418 C118.12923538 84.64854378 118.12923538 84.64854378 116.24508667 84.63395691 C114.91078665 84.63421827 113.57648662 84.635155 112.2421875 84.63671875 C110.86646394 84.63282931 109.49074157 84.62849413 108.11502075 84.62373352 C105.2385874 84.61628864 102.36227685 84.61655113 99.48583984 84.62182617 C95.79910631 84.62763606 92.11287267 84.6106455 88.42622185 84.5874815 C85.58835919 84.57275981 82.75061762 84.57186998 79.91272354 84.57499123 C78.5531426 84.57447779 77.19355492 84.56923588 75.83401108 84.55917931 C73.93609191 84.54685629 72.03807136 84.55553445 70.14013672 84.56518555 C68.520616 84.56424141 68.520616 84.56424141 66.86837769 84.5632782 C64.1826368 84.72951462 64.1826368 84.72951462 62.33889771 86.24201965 C60.40310938 89.09254736 60.83152237 91.61504215 61.1875 94.9375 C62.40246422 96.70359393 62.40246422 96.70359393 64.1875 97.9375 C67.18183888 98.25689115 69.97902041 98.40237752 72.9765625 98.4140625 C73.83559174 98.42964203 74.69462097 98.44522156 75.5796814 98.46127319 C78.32394517 98.50882301 81.06795389 98.53657182 83.8125 98.5625 C86.56400846 98.59894382 89.31537082 98.63950617 92.06674194 98.68515015 C93.77940341 98.71245727 95.49217235 98.73377331 97.20498657 98.74868774 C103.07683798 98.82683798 103.07683798 98.82683798 104.1875 99.9375 C104.27401611 101.35320123 104.29454904 102.773095 104.28515625 104.19140625 C104.28193359 105.04541016 104.27871094 105.89941406 104.27539062 106.77929688 C104.26701172 107.67712891 104.25863281 108.57496094 104.25 109.5 C104.24548828 110.40169922 104.24097656 111.30339844 104.23632812 112.23242188 C104.22450225 114.46751314 104.2080222 116.70247437 104.1875 118.9375 C103.1975 118.6075 102.2075 118.2775 101.1875 117.9375 C97.6875 117.52083333 97.6875 117.52083333 94.1875 117.9375 C91.68105232 120.61580163 90.51395531 123.34507586 89.37817383 126.79785156 C88.89801567 128.23889252 88.89801567 128.23889252 88.40815735 129.70904541 C88.07366074 130.73834167 87.73916412 131.76763794 87.39453125 132.828125 C86.86819344 134.41775055 86.86819344 134.41775055 86.33122253 136.03948975 C85.21374541 139.41987557 84.10675808 142.80359138 83 146.1875 C82.24352759 148.48199812 81.48637419 150.77627184 80.72851562 153.0703125 C78.87360471 158.6901298 77.02729106 164.3127159 75.1875 169.9375 C74.5275 169.9375 73.8675 169.9375 73.1875 169.9375 C72.98118454 169.3302861 72.77486908 168.7230722 72.56230164 168.09745789 C70.41513877 161.78373838 68.25572299 155.47430757 66.08911133 149.16723633 C65.28191513 146.81219718 64.47785986 144.45607905 63.67700195 142.09887695 C62.52596984 138.71277568 61.36373408 135.33070296 60.19921875 131.94921875 C59.66466316 130.36472176 59.66466316 130.36472176 59.11930847 128.74821472 C58.77918228 127.76742447 58.43905609 126.78663422 58.08862305 125.77612305 C57.79328171 124.91230515 57.49794037 124.04848724 57.19364929 123.15849304 C56.12787454 120.80588164 55.23637162 119.50114392 53.1875 117.9375 C49.77569639 117.57194961 47.29672196 117.38288902 44.1875 118.9375 C41.95766863 123.39716275 44.21344516 129.33390505 45.65869141 133.85864258 C46.27742277 135.68585425 46.90466519 137.51019946 47.5390625 139.33203125 C48.04474258 140.81228035 48.04474258 140.81228035 48.56063843 142.32243347 C49.27493389 144.40882209 49.99291496 146.49395211 50.71435547 148.57788086 C51.79509939 151.69973629 52.86541984 154.82499608 53.93359375 157.95117188 C55.99109202 163.95622914 58.08148073 169.9493052 60.1875 175.9375 C60.51810425 176.88187927 60.8487085 177.82625854 61.18933105 178.79925537 C62.12393459 181.45713994 63.071144 184.11012836 64.0234375 186.76171875 C64.29983063 187.54956253 64.57622375 188.33740631 64.86099243 189.14912415 C66.17276528 192.75405 67.21470911 195.47588132 70.1875 197.9375 C73.55510187 199.1091367 73.55510187 199.1091367 77.1875 198.9375 C83.18817011 194.72970213 84.4205836 188.26702944 86.47265625 181.5234375 C86.85562363 180.31684479 87.238591 179.11025208 87.63316345 177.86709595 C88.85347212 174.01999901 90.05420046 170.1672585 91.25 166.3125 C92.82811446 161.2314987 94.42693092 156.15751258 96.03515625 151.0859375 C96.57125267 149.3281044 96.57125267 149.3281044 97.11817932 147.53475952 C97.46211227 146.44998322 97.80604523 145.36520691 98.16040039 144.24755859 C98.45620499 143.29223236 98.75200958 142.33690613 99.05677795 141.35263062 C100.34248827 138.60645762 101.6424327 137.52450553 104.1875 135.9375 C104.21062359 146.35092925 104.22841517 156.76435244 104.23931217 167.17780209 C104.24454097 172.01266827 104.25163854 176.84751694 104.26293945 181.68237305 C104.27376847 186.3442712 104.27977686 191.00615246 104.28237724 195.66806221 C104.28423147 197.45074288 104.28785203 199.23342259 104.29323006 201.01609612 C104.30044069 203.5041596 104.30149093 205.99215243 104.30102539 208.48022461 C104.30462067 209.22468842 104.30821594 209.96915222 104.31192017 210.73617554 C104.30155216 215.82344784 104.30155216 215.82344784 103.1875 216.9375 C101.81426417 217.03661256 100.43597398 217.06672385 99.05916786 217.06892776 C98.16379425 217.07276891 97.26842063 217.07661005 96.34591448 217.0805676 C95.35089997 217.07970112 94.35588546 217.07883463 93.33071899 217.07794189 C91.75840297 217.08239858 91.75840297 217.08239858 90.15432298 217.0869453 C86.61280247 217.09567435 83.0713156 217.09714407 79.52978516 217.09863281 C77.00251696 217.10325799 74.47524946 217.10828224 71.94798279 217.11367798 C65.06169629 217.12683236 58.17542094 217.13328903 51.28912401 217.13768864 C46.99230227 217.14044783 42.69548278 217.14468459 38.39866257 217.14919281 C26.51073917 217.16138805 14.62281759 217.17168682 2.73488808 217.1750679 C1.97350179 217.17528747 1.21211551 217.17550703 0.42765691 217.17573325 C-0.71721382 217.17606067 -0.71721382 217.17606067 -1.88521326 217.1763947 C-3.43193905 217.17683817 -4.97866484 217.17728474 -6.52539062 217.17773438 C-7.67624397 217.17806652 -7.67624397 217.17806652 -8.85034688 217.17840537 C-21.2866473 217.18235468 -33.72288918 217.1998116 -46.15916698 217.2230939 C-58.91592546 217.24678413 -71.67265453 217.25926869 -84.42943537 217.26043582 C-91.59649696 217.2613539 -98.76348228 217.26713951 -105.93052292 217.28525543 C-112.6691638 217.302228 -119.40763488 217.30392651 -126.14629936 217.29511642 C-128.62515716 217.29434222 -131.10402254 217.29873872 -133.58286095 217.30857468 C-136.9560005 217.32117842 -140.32861676 217.31548056 -143.70175171 217.30499268 C-144.69230478 217.31304908 -145.68285784 217.32110548 -146.70342767 217.32940602 C-147.60401678 217.32281618 -148.50460589 217.31622633 -149.43248558 217.3094368 C-150.60102123 217.31033243 -150.60102123 217.31033243 -151.79316366 217.31124616 C-154.3481869 216.83835311 -155.23635194 215.96609541 -156.8125 213.9375 C-157.19002342 211.82759094 -157.19002342 211.82759094 -157.19345093 209.3449707 C-157.2019104 208.40279694 -157.21036987 207.46062317 -157.21908569 206.48989868 C-157.213013 205.45811493 -157.20694031 204.42633118 -157.20068359 203.36328125 C-157.20594055 202.27526215 -157.21119751 201.18724304 -157.21661377 200.06625366 C-157.2298449 196.46069083 -157.22106438 192.85556752 -157.2109375 189.25 C-157.21295733 186.75040604 -157.21586801 184.25081264 -157.21963501 181.7512207 C-157.22406259 176.50890598 -157.21789828 171.26670613 -157.20361328 166.02441406 C-157.18728641 159.96278251 -157.19257486 153.90145366 -157.2090925 147.83982944 C-157.22434359 142.00975136 -157.22273351 136.17978839 -157.2139473 130.34970093 C-157.21194201 127.86811277 -157.214416 125.38651692 -157.22138596 122.90493774 C-157.22898073 119.4403214 -157.21742329 115.97629128 -157.20068359 112.51171875 C-157.20675629 111.479935 -157.21282898 110.44815125 -157.21908569 109.38510132 C-157.21062622 108.44292755 -157.20216675 107.50075378 -157.19345093 106.5300293 C-157.19231985 105.71076462 -157.19118877 104.89149994 -157.19002342 104.04740906 C-156.8125 101.9375 -156.8125 101.9375 -155.75842476 100.17412567 C-152.76535462 98.27204423 -149.73159262 98.52628066 -146.29675293 98.55895996 C-145.52451496 98.55442983 -144.75227698 98.5498997 -143.95663786 98.5452323 C-141.36089603 98.53357583 -138.7656663 98.54326817 -136.16992188 98.55273438 C-134.31229824 98.5486308 -132.45467718 98.54317119 -130.59706116 98.53645325 C-126.59299163 98.52471185 -122.58906001 98.52224971 -118.5849762 98.52680969 C-112.25771003 98.53360336 -105.93062629 98.51777938 -99.60339355 98.49841309 C-85.03003615 98.45728648 -70.45668351 98.44600427 -55.88327789 98.43488312 C-42.52879922 98.42438649 -29.17440775 98.40766245 -15.81998301 98.36678743 C-9.5260064 98.34838596 -3.23223719 98.34455491 3.06175995 98.35172272 C6.97227899 98.35324053 10.88269351 98.34248638 14.79318428 98.32834435 C16.61088734 98.32432895 18.42861006 98.32548828 20.24630547 98.33211708 C22.72171218 98.34045321 25.19639056 98.3305611 27.67175293 98.31604004 C28.39635727 98.32293397 29.12096162 98.32982791 29.86752367 98.33693075 C32.72921013 98.30407376 34.71710577 98.25351347 37.12989044 96.63259125 C38.9500241 93.71535907 38.60246358 91.25720866 38.1875 87.9375 C35.78860816 85.31127064 34.29435323 84.94935617 30.7347374 84.55438995 C29.32635463 84.53530558 27.91769045 84.53275529 26.50921631 84.54309082 C25.73148463 84.53699972 24.95375296 84.53090861 24.15245366 84.52463293 C21.54387056 84.50797123 18.9357739 84.51278323 16.32714844 84.51757812 C14.45778393 84.51023947 12.58842397 84.50165384 10.71907043 84.49191284 C5.63831367 84.46966272 0.55771893 84.46676804 -4.52307987 84.46866035 C-8.76499651 84.46877993 -13.00687867 84.46022061 -17.24878573 84.45188284 C-27.25881667 84.43263486 -37.26876422 84.42976947 -47.27880859 84.43652344 C-57.60124887 84.44316023 -67.92333144 84.42031753 -78.24569917 84.38320971 C-87.10954671 84.35250263 -95.97327928 84.34115393 -104.83717895 84.34504652 C-110.13039524 84.34711357 -115.42333343 84.34164193 -120.71649933 84.31715393 C-125.69723757 84.29487383 -130.67739535 84.29677531 -135.65813637 84.31708145 C-137.48342401 84.32048964 -139.30875081 84.31541064 -141.13398552 84.30109787 C-153.90136769 83.97604076 -153.90136769 83.97604076 -164.8125 89.9375 C-172.85074361 98.80017885 -170.02577124 101.20292471 -170.8125 116.9375 C-190.9425 116.9375 -211.0725 116.9375 -231.8125 116.9375 C-231.8125 91.9375 -231.8125 91.9375 -226.8125 83.9375 C-223.65482177 80.9554207 -220.55302817 79.16829889 -216.5703125 77.484375 C-215.52488281 77.03860107 -214.47945312 76.59282715 -213.40234375 76.13354492 C-212.25894531 75.6563501 -211.11554688 75.17915527 -209.9375 74.6875 C-208.70684048 74.16752485 -207.47637749 73.64708435 -206.24609375 73.1262207 C-194.13292164 68.014274 -181.95910922 63.04563996 -169.7890625 58.07104492 C-158.82144725 53.58778446 -147.8711679 49.0654129 -136.9375 44.5 C-133.95836112 43.25644384 -130.97918823 42.01296918 -128 40.76953125 C-127.25356232 40.45795578 -126.50712463 40.14638031 -125.73806763 39.82536316 C-116.80990467 36.0998305 -107.87419695 32.39250584 -98.9375 28.6875 C-98.10088837 28.34063141 -97.26427673 27.99376282 -96.40231323 27.63638306 C-79.9876349 20.83168907 -63.56449336 14.04748369 -47.13916016 7.26855469 C-46.21218323 6.8856427 -45.2852063 6.50273071 -44.33013916 6.10821533 C-42.53911224 5.3694734 -40.74726396 4.6327191 -38.95452881 3.89813232 C-35.32768413 2.40923552 -31.71326958 0.91252287 -28.14697266 -0.71679688 C-17.29395716 -5.59817208 -10.78370412 -4.62057372 0 0 Z " fill="#4E64CD" transform="translate(270.8125,26.0625)"/>
<path d="M0 0 C1.07419189 0.44480713 2.14838379 0.88961426 3.25512695 1.34790039 C6.26281466 2.59653817 9.26419787 3.8591567 12.26379395 5.1270752 C15.57429375 6.52173274 18.89294378 7.89672702 22.2109375 9.2734375 C27.4003705 11.42849005 32.58726714 13.58947645 37.77151489 15.75697327 C49.45869068 20.64277001 61.16526682 25.48106043 72.875 30.3125 C76.79955048 31.93211892 80.72402514 33.55192143 84.6484375 35.171875 C85.61635223 35.57141891 86.58426697 35.97096283 87.58151245 36.38261414 C99.06293732 41.12311979 110.53738207 45.88043954 122.01025391 50.64160156 C123.67870932 51.33398828 125.34716635 52.02637109 127.015625 52.71875 C127.8404538 53.06105652 128.66528259 53.40336304 129.5151062 53.75604248 C134.83921696 55.9649745 140.16504913 58.16970831 145.49201965 60.37173462 C149.18945916 61.90024053 152.88641176 63.42992224 156.58334351 64.95965576 C158.32433611 65.67967488 160.0655573 66.39914162 161.80703735 67.11798096 C166.52435408 69.06529227 171.23773574 71.0214733 175.94360352 72.99630737 C177.45996083 73.63233686 178.97724013 74.266172 180.49536133 74.89797974 C182.71052328 75.82260733 184.92027102 76.75912493 187.12890625 77.69921875 C187.78681656 77.97190582 188.44472687 78.2445929 189.12257385 78.52554321 C196.02995144 81.4993499 198.8511473 85.26479461 202.1875 91.9375 C202.1875 100.1875 202.1875 108.4375 202.1875 116.9375 C182.0575 116.9375 161.9275 116.9375 141.1875 116.9375 C140.8575 110.3375 140.5275 103.7375 140.1875 96.9375 C136.06782024 90.75798035 133.17181907 87.26753428 126.1875 84.9375 C123.20728548 84.61741378 123.20728548 84.61741378 119.99194336 84.63110352 C118.76394516 84.61511612 117.53594696 84.59912872 116.27073669 84.58265686 C114.95291702 84.57729416 113.63509735 84.57193146 112.27734375 84.56640625 C110.90401616 84.55743332 109.53068954 84.54831135 108.15736389 84.53904724 C105.2851423 84.52259522 102.4130368 84.51486339 99.54077148 84.51196289 C95.86283204 84.50656539 92.18598378 84.46881544 88.50835323 84.42321873 C85.67472849 84.39346928 82.84136813 84.38623992 80.00760078 84.38523674 C77.99339738 84.37899474 75.97930932 84.3495224 73.96531677 84.31971741 C72.12804771 84.328834 72.12804771 84.328834 70.25366211 84.33813477 C69.17620224 84.33306412 68.09874237 84.32799347 66.9886322 84.32276917 C63.23561504 85.14639876 62.24020641 86.78223676 60.1875 89.9375 C59.8575 90.5975 59.5275 91.2575 59.1875 91.9375 C56.10488544 92.1121397 53.02354167 92.21844067 49.9375 92.3125 C49.06480469 92.36277344 48.19210937 92.41304688 47.29296875 92.46484375 C44.79043001 92.5221538 42.6271564 92.50720621 40.1875 91.9375 C37.703125 88.9765625 37.703125 88.9765625 36.1875 85.9375 C33.17214986 84.42982493 30.05771069 84.78584961 26.74972534 84.78359985 C25.97370252 84.7792176 25.19767969 84.77483535 24.39814103 84.7703203 C21.78349136 84.75690723 19.16887542 84.75074777 16.55419922 84.74462891 C14.68513333 84.73672978 12.81606897 84.72846095 10.94700623 84.71984863 C4.79541485 84.69360203 -1.35618341 84.6783163 -7.5078125 84.6640625 C-9.62437825 84.65870351 -11.74094396 84.65332601 -13.85750961 84.64793015 C-22.66239647 84.62629571 -31.46728147 84.60755941 -40.27218819 84.59630775 C-52.89460085 84.58007262 -65.51670545 84.54691173 -78.13900197 84.48990691 C-87.01128079 84.45120358 -95.88347725 84.43167446 -104.75583827 84.42638719 C-110.05582169 84.42273369 -115.35547674 84.41071276 -120.6553688 84.37828445 C-125.64424759 84.34819788 -130.63259944 84.34189421 -135.62154961 84.35366821 C-137.45007606 84.35388891 -139.27862699 84.34558693 -141.10706902 84.32801437 C-153.88950536 83.97488637 -153.88950536 83.97488637 -164.8125 89.9375 C-172.85074361 98.80017885 -170.02577124 101.20292471 -170.8125 116.9375 C-190.9425 116.9375 -211.0725 116.9375 -231.8125 116.9375 C-231.8125 91.9375 -231.8125 91.9375 -226.8125 83.9375 C-223.65482177 80.9554207 -220.55302817 79.16829889 -216.5703125 77.484375 C-215.52488281 77.03860107 -214.47945312 76.59282715 -213.40234375 76.13354492 C-212.25894531 75.6563501 -211.11554688 75.17915527 -209.9375 74.6875 C-208.70684048 74.16752485 -207.47637749 73.64708435 -206.24609375 73.1262207 C-194.13292164 68.014274 -181.95910922 63.04563996 -169.7890625 58.07104492 C-158.82144725 53.58778446 -147.8711679 49.0654129 -136.9375 44.5 C-133.95836112 43.25644384 -130.97918823 42.01296918 -128 40.76953125 C-127.25356232 40.45795578 -126.50712463 40.14638031 -125.73806763 39.82536316 C-116.80990467 36.0998305 -107.87419695 32.39250584 -98.9375 28.6875 C-98.10088837 28.34063141 -97.26427673 27.99376282 -96.40231323 27.63638306 C-79.9876349 20.83168907 -63.56449336 14.04748369 -47.13916016 7.26855469 C-46.21218323 6.8856427 -45.2852063 6.50273071 -44.33013916 6.10821533 C-42.53911224 5.3694734 -40.74726396 4.6327191 -38.95452881 3.89813232 C-35.32768413 2.40923552 -31.71326958 0.91252287 -28.14697266 -0.71679688 C-17.29395716 -5.59817208 -10.78370412 -4.62057372 0 0 Z " fill="#E0EFFE" transform="translate(270.8125,26.0625)"/>
<path d="M0 0 C4.62 0 9.24 0 14 0 C14 67.32 14 134.64 14 204 C-10.09 204 -34.18 204 -59 204 C-59 146.25 -59 88.5 -59 29 C-44.81 28.67 -30.62 28.34 -16 28 C-8.79593644 24.91254419 -5.64894886 23.35678876 -2.25 16.4375 C-0.43724799 11.10165933 -0.31760515 5.58985067 0 0 Z " fill="#D7B0EC" transform="translate(413,229)"/>
<path d="M0 0 C4.62 0 9.24 0 14 0 C14.12375 2.6915625 14.12375 2.6915625 14.25 5.4375 C14.8754907 12.8043905 16.72225708 18.18279165 21.375 23.9375 C34.39255321 34.16557752 64.09904442 28.79300103 73 29 C73 86.75 73 144.5 73 204 C48.91 204 24.82 204 0 204 C0 136.68 0 69.36 0 0 Z " fill="#D8B0ED" transform="translate(85,229)"/>
<path d="M0 0 C3.0239404 1.58274327 5.44086838 3.75861291 8 6 C9.02444055 6.86907837 10.05060961 7.7361217 11.078125 8.6015625 C12.76650349 10.02454287 14.45217197 11.4500672 16.12915039 12.88647461 C20.02927744 16.22268669 24.02980793 19.36488043 28.1953125 22.3671875 C31.72697232 25.56249876 32.92332794 28.16219809 33.36076355 32.9420929 C33.3694157 34.50996982 33.36158478 36.07799192 33.34057617 37.64575195 C33.34123329 38.93431847 33.34123329 38.93431847 33.34190369 40.24891663 C33.33981921 43.0789387 33.31650428 45.90836309 33.29296875 48.73828125 C33.28737158 50.70411353 33.28310205 52.66995 33.28010559 54.63578796 C33.26866635 59.80290333 33.23920697 64.96976461 33.20599365 70.13677979 C33.17527299 75.4121151 33.16159598 80.68749159 33.14648438 85.96289062 C33.11433644 96.30872319 33.0615759 106.65430069 33 117 C23.1 117 13.2 117 3 117 C2.9906543 114.44080811 2.98130859 111.88161621 2.97167969 109.24487305 C2.93794576 100.79895661 2.8824171 92.35328544 2.81609726 83.90756512 C2.77655082 78.78577562 2.74439761 73.66415989 2.72900391 68.54223633 C2.71388439 63.6012951 2.67952311 58.66083139 2.63169098 53.72010231 C2.61682845 51.83305824 2.60895621 49.94594602 2.60811615 48.05884361 C2.60575932 45.41981178 2.57878496 42.78211351 2.54589844 40.14331055 C2.5509288 39.3592836 2.55595917 38.57525665 2.56114197 37.76747131 C2.47925745 33.46510213 2.47925745 33.46510213 0.16119385 29.97932434 C-2.89291803 28.59538273 -4.82547209 29.10285081 -8 30 C-10.94291646 32.94291646 -10.30802442 36.08354391 -10.31884766 40.02978516 C-10.32889328 40.85913071 -10.3389389 41.68847626 -10.34928894 42.54295349 C-10.38024662 45.29164926 -10.39719084 48.0402471 -10.4140625 50.7890625 C-10.43276404 52.6919337 -10.45233668 54.59479652 -10.4727478 56.49765015 C-10.52418217 61.51174998 -10.56374724 66.52587674 -10.60089111 71.5401001 C-10.64086007 76.65440593 -10.69198474 81.76859869 -10.7421875 86.8828125 C-10.83908063 96.92180366 -10.92241178 106.96084105 -11 117 C-20.9 117 -30.8 117 -41 117 C-41.0904103 105.62986214 -41.16377913 94.25996348 -41.20724869 82.88954735 C-41.22811311 77.60965991 -41.25641012 72.3300314 -41.30175781 67.05029297 C-41.345256 61.95392948 -41.36914573 56.85781487 -41.37950897 51.76128006 C-41.38689318 49.81802071 -41.40131288 47.8747748 -41.42292023 45.93162155 C-41.45200697 43.20720865 -41.4559538 40.48382083 -41.45410156 37.75927734 C-41.46848267 36.95798401 -41.48286377 36.15669067 -41.49768066 35.33111572 C-41.4591813 30.08906753 -40.42380995 27.18392753 -37 23 C-34.66015625 20.83203125 -34.66015625 20.83203125 -32.0625 18.8125 C-31.10214844 18.05324219 -30.14179688 17.29398437 -29.15234375 16.51171875 C-28.64300293 16.11001465 -28.13366211 15.70831055 -27.60888672 15.29443359 C-24.16689131 12.52516809 -20.83998091 9.61369333 -17.50415039 6.71801758 C-12.08369791 2.07518991 -7.44515605 -1.6451843 0 0 Z " fill="#989898" transform="translate(260,316)"/>
<path d="M0 0 C6.6 0 13.2 0 20 0 C20.99 1.98 21.98 3.96 23 6 C26.29311202 7.64655601 29.95883412 7.1806167 33.58056641 7.20532227 C34.46843338 7.21522186 35.35630035 7.22512146 36.27107239 7.23532104 C39.21454169 7.26698388 42.15802715 7.29171237 45.1015625 7.31640625 C47.13895087 7.33697165 49.17633494 7.35796801 51.2137146 7.37937927 C56.5829317 7.43464273 61.95218757 7.48403314 67.32147217 7.53222656 C72.79768333 7.58241041 78.27383799 7.63811272 83.75 7.69335938 C94.49995177 7.80099321 105.24995254 7.90242656 116 8 C116 12.29 116 16.58 116 21 C-43.06 21 -202.12 21 -366 21 C-366 16.71 -366 12.42 -366 8 C-364.14834354 7.99576806 -362.29668709 7.99153612 -360.38891983 7.98717594 C-316.4654805 7.886569 -272.54205587 7.78087291 -228.61864401 7.66888306 C-223.21614038 7.65511296 -217.81363663 7.64138594 -212.41113281 7.62768555 C-211.33556074 7.62495724 -210.25998866 7.62222894 -209.15182349 7.61941796 C-191.72077638 7.57530504 -174.28972278 7.53468447 -156.8586643 7.49534739 C-138.98183886 7.45492687 -121.10502549 7.41076992 -103.22821784 7.36312145 C-92.19125254 7.33382221 -81.15428816 7.30746114 -70.11730716 7.28482103 C-62.55582127 7.26903141 -54.99435016 7.24962283 -47.43288067 7.22733159 C-43.06591127 7.21456576 -38.69895324 7.2034308 -34.33197021 7.19658089 C-30.33729441 7.19027985 -26.34265786 7.17945454 -22.3480036 7.1649667 C-20.89976324 7.16052433 -19.45151657 7.15777011 -18.0032697 7.15683801 C-16.04031928 7.15533241 -14.07737727 7.14718032 -12.11444473 7.1386652 C-10.47633123 7.13467814 -10.47633123 7.13467814 -8.80512452 7.13061053 C-5.26849579 7.07835703 -5.26849579 7.07835703 -2 6 C-1.34 4.02 -0.68 2.04 0 0 Z " fill="#E0EFFE" transform="translate(381,469)"/>
<path d="M0 0 C10.23 0 20.46 0 31 0 C31 67.65 31 135.3 31 205 C20.77 205 10.54 205 0 205 C0 137.35 0 69.7 0 0 Z " fill="#E0EFFE" transform="translate(442,228)"/>
<path d="M0 0 C12.54 0 25.08 0 38 0 C38 67.32 38 134.64 38 204 C28.1 204 18.2 204 8 204 C7.99413376 201.76635681 7.98826752 199.53271362 7.98222351 197.23138428 C7.92561781 176.21789977 7.85256973 155.20451869 7.76428509 134.19114304 C7.71929053 123.38704146 7.67988433 112.58297313 7.65356445 101.77880859 C7.63061399 92.36356073 7.59724913 82.94841771 7.55129844 73.53325295 C7.52732634 68.54648286 7.50862372 63.55981686 7.50238609 58.57299042 C7.49635324 53.88130165 7.47641883 49.18987937 7.44572449 44.49828911 C7.43691531 42.77455175 7.43322761 41.05077961 7.43499184 39.32702065 C7.43663824 36.97655366 7.42000052 34.62690522 7.39872742 32.27655029 C7.39181397 30.30206972 7.39181397 30.30206972 7.38476086 28.28770065 C6.97661236 24.80015753 6.55018728 23.37668804 4 21 C2.68 20.67 1.36 20.34 0 20 C0 13.4 0 6.8 0 0 Z " fill="#E0EFFE" transform="translate(31,229)"/>
<path d="M0 0 C143.22 0 286.44 0 434 0 C434 4.62 434 9.24 434 14 C430.93368286 14.02187378 430.93368286 14.02187378 427.80541992 14.04418945 C421.05584012 14.0944976 414.30649194 14.16108572 407.5571394 14.23571491 C403.46446382 14.28046719 399.3718889 14.31971232 395.27905273 14.34643555 C391.33016285 14.37242049 387.38165934 14.412788 383.43300819 14.46318626 C381.92555861 14.47988771 380.41804214 14.49138156 378.91051292 14.49761391 C376.80084989 14.5072199 374.69218261 14.53523419 372.58276367 14.56762695 C370.78073738 14.58428154 370.78073738 14.58428154 368.94230652 14.60127258 C366.023666 14.76076382 366.023666 14.76076382 364.15107727 16.33952332 C362.80621897 18.11368913 362.80621897 18.11368913 362 21 C358.72963272 21.14510162 355.46008993 21.23399373 352.1875 21.3125 C351.25873047 21.35439453 350.32996094 21.39628906 349.37304688 21.43945312 C346.82304076 21.48548212 344.50522229 21.48415402 342 21 C339.98828125 18.54296875 339.98828125 18.54296875 339 16 C336.37468974 14.68734487 334.43247363 14.86897822 331.49085045 14.8613348 C330.31296404 14.85586036 329.13507764 14.85038591 327.9214977 14.84474558 C326.61607381 14.84376747 325.31064992 14.84278936 323.96566772 14.84178162 C322.57388243 14.83721856 321.18209852 14.83221892 319.79031622 14.82681805 C315.95250755 14.81319829 312.11470777 14.80580752 308.27688122 14.79939139 C304.14326111 14.79140425 300.00965961 14.7777007 295.87605286 14.76467896 C288.70987911 14.74289222 281.5437035 14.72475579 274.37751389 14.70907402 C264.01630993 14.68639537 253.65512655 14.65824979 243.29394002 14.62875474 C226.48503159 14.58105421 209.67611475 14.53779671 192.8671875 14.49731445 C176.53547512 14.45797204 160.20377021 14.41654883 143.87207031 14.37231445 C142.86597825 14.36959018 141.85988619 14.36686591 140.82330649 14.36405908 C135.77621565 14.35037981 130.72912492 14.3366595 125.68203425 14.32291877 C83.78803836 14.20891534 41.89402626 14.10218826 0 14 C0 9.38 0 4.76 0 0 Z " fill="#4C63CA" transform="translate(39,448)"/>
<path d="M0 0 C10.23 0 20.46 0 31 0 C31 57.75 31 115.5 31 175 C20.77 175 10.54 175 0 175 C0 117.25 0 59.5 0 0 Z " fill="#E1F0FF" transform="translate(308,258)"/>
<path d="M0 0 C10.23 0 20.46 0 31 0 C31 57.75 31 115.5 31 175 C20.77 175 10.54 175 0 175 C0 117.25 0 59.5 0 0 Z " fill="#E0EFFE" transform="translate(173,258)"/>
<path d="M0 0 C9.79421776 6.80101388 17.5137123 16.83270831 19.76953125 28.71484375 C20.8862977 40.9514133 18.3649938 51.91424691 10.76953125 61.71484375 C10.21265625 62.53984375 9.65578125 63.36484375 9.08203125 64.21484375 C1.88657645 71.99371381 -9.07858315 76.89697365 -19.60546875 77.953125 C-32.56517804 78.31954535 -42.73151631 73.49612301 -52.23046875 64.90625 C-60.63719267 56.19152111 -63.56063486 44.8388208 -63.61547852 33.06616211 C-63.39408421 22.44043237 -58.65518613 13.22623098 -51.23046875 5.71484375 C-36.4778718 -6.80251124 -17.21967503 -9.92166915 0 0 Z " fill="#010103" transform="translate(288.23046875,148.28515625)"/>
<path d="M0 0 C3.43796837 -0.08078777 6.87404727 -0.14039791 10.3125 -0.1875 C11.28896484 -0.21263672 12.26542969 -0.23777344 13.27148438 -0.26367188 C14.20927734 -0.27333984 15.14707031 -0.28300781 16.11328125 -0.29296875 C16.97735596 -0.3086792 17.84143066 -0.32438965 18.73168945 -0.34057617 C21.55995252 0.08407424 22.25509958 0.77064865 24 3 C24.37752342 5.10990906 24.37752342 5.10990906 24.38095093 7.5925293 C24.3894104 8.53470306 24.39786987 9.47687683 24.40658569 10.44760132 C24.400513 11.47938507 24.39444031 12.51116882 24.38818359 13.57421875 C24.39344055 14.66223785 24.39869751 15.75025696 24.40411377 16.87124634 C24.4173449 20.47680917 24.40856438 24.08193248 24.3984375 27.6875 C24.40045733 30.18709396 24.40336801 32.68668736 24.40713501 35.1862793 C24.41156259 40.42859402 24.40539828 45.67079387 24.39111328 50.91308594 C24.37478641 56.97471749 24.38007486 63.03604634 24.3965925 69.09767056 C24.41184359 74.92774864 24.41023351 80.75771161 24.4014473 86.58779907 C24.39944201 89.06938723 24.401916 91.55098308 24.40888596 94.03256226 C24.41648073 97.4971786 24.40492329 100.96120872 24.38818359 104.42578125 C24.39425629 105.457565 24.40032898 106.48934875 24.40658569 107.55239868 C24.39812622 108.49457245 24.38966675 109.43674622 24.38095093 110.4074707 C24.37981985 111.22673538 24.37868877 112.04600006 24.37752342 112.89009094 C24 115 24 115 21 118 C14.07 118 7.14 118 0 118 C0 91.6 0 65.2 0 38 C-2.24964046 41.74940076 -3.56966849 44.25158695 -4.82177734 48.26171875 C-5.14576508 49.28628174 -5.46975281 50.31084473 -5.80355835 51.36645508 C-6.14424347 52.4623999 -6.48492859 53.55834473 -6.8359375 54.6875 C-7.57760635 57.01839426 -8.31981028 59.34911832 -9.0625 61.6796875 C-10.22288142 65.34472272 -11.37846314 69.0110897 -12.52441406 72.68066406 C-13.6354951 76.22907797 -14.76559119 79.77098475 -15.8984375 83.3125 C-16.23507416 84.40844482 -16.57171082 85.50438965 -16.91854858 86.63354492 C-18.76404366 92.35825409 -20.24425946 96.22199058 -25 100 C-25.33 100.33 -25.66 100.66 -26 101 C-32.15963352 100.6513415 -32.15963352 100.6513415 -35.05249023 98.40917969 C-37.48886084 95.3952515 -38.64008702 92.26694656 -39.84765625 88.640625 C-40.10105774 87.91107605 -40.35445923 87.1815271 -40.61553955 86.42987061 C-41.44249208 84.04030204 -42.25275233 81.64544779 -43.0625 79.25 C-43.63144561 77.59211816 -44.2013619 75.93456914 -44.7722168 74.27734375 C-45.94301997 70.87365829 -47.10731929 67.46784011 -48.26757812 64.06054688 C-49.91490458 59.23309987 -51.60157299 54.42014116 -53.296875 49.609375 C-54.05972611 47.43370352 -54.82154452 45.25767454 -55.58273315 43.0814209 C-56.06665952 41.70117944 -56.5527417 40.32169182 -57.04104614 38.94299316 C-57.71834542 37.02709106 -58.38481789 35.10737187 -59.05078125 33.1875 C-59.42887939 32.10855469 -59.80697754 31.02960938 -60.1965332 29.91796875 C-60.97790611 27.08023889 -61.28394513 24.92093941 -61 22 C-59.4375 19.6875 -59.4375 19.6875 -57 18 C-53.35818844 17.47974121 -51.10010843 17.22902683 -48.02441406 19.38452148 C-44.9820622 23.31514323 -43.68768722 27.66959811 -42.109375 32.34765625 C-41.75989807 33.35589951 -41.41042114 34.36414276 -41.050354 35.40293884 C-40.31552277 37.53016801 -39.5862945 39.65933984 -38.86230469 41.7902832 C-37.75152229 45.05802169 -36.62340087 48.31936297 -35.4921875 51.58007812 C-34.78022792 53.64808591 -34.06925628 55.71643413 -33.359375 57.78515625 C-32.85322662 59.25239891 -32.85322662 59.25239891 -32.33685303 60.74928284 C-32.02943176 61.65710007 -31.7220105 62.5649173 -31.40527344 63.50024414 C-31.13309998 64.29870255 -30.86092651 65.09716095 -30.58050537 65.91981506 C-30 68 -30 68 -30 71 C-29.34 71 -28.68 71 -28 71 C-27.60252563 69.07389893 -27.60252563 69.07389893 -27.19702148 67.10888672 C-26.06756086 62.03785163 -24.52178537 57.17189064 -22.84765625 52.2578125 C-22.54685654 51.36762421 -22.24605682 50.47743591 -21.93614197 49.56027222 C-21.30407203 47.69558656 -20.66948201 45.83175338 -20.0324707 43.96875 C-19.0591773 41.11525854 -18.10060246 38.25708615 -17.14257812 35.3984375 C-16.52432638 33.58042664 -15.90521608 31.76270748 -15.28515625 29.9453125 C-14.85844383 28.66565109 -14.85844383 28.66565109 -14.42311096 27.36013794 C-14.01269814 26.17277542 -14.01269814 26.17277542 -13.59399414 24.96142578 C-13.35797989 24.26687286 -13.12196564 23.57231995 -12.87879944 22.85671997 C-11.8592978 20.7027256 -10.87827875 19.46745438 -9 18 C-2.86153846 17.56923077 -2.86153846 17.56923077 0 19 C0 12.73 0 6.46 0 0 Z " fill="#304BC5" transform="translate(374,125)"/>
<path d="M0 0 C1.61128784 0.66721069 1.61128784 0.66721069 3.25512695 1.34790039 C6.26281466 2.59653817 9.26419787 3.8591567 12.26379395 5.1270752 C15.57429375 6.52173274 18.89294378 7.89672702 22.2109375 9.2734375 C27.4003705 11.42849005 32.58726714 13.58947645 37.77151489 15.75697327 C49.45869068 20.64277001 61.16526682 25.48106043 72.875 30.3125 C76.79955048 31.93211892 80.72402514 33.55192143 84.6484375 35.171875 C85.61635223 35.57141891 86.58426697 35.97096283 87.58151245 36.38261414 C99.06293732 41.12311979 110.53738207 45.88043954 122.01025391 50.64160156 C123.67870932 51.33398828 125.34716635 52.02637109 127.015625 52.71875 C127.8404538 53.06105652 128.66528259 53.40336304 129.5151062 53.75604248 C134.83921696 55.9649745 140.16504913 58.16970831 145.49201965 60.37173462 C149.18945916 61.90024053 152.88641176 63.42992224 156.58334351 64.95965576 C158.32433611 65.67967488 160.0655573 66.39914162 161.80703735 67.11798096 C166.52435408 69.06529227 171.23773574 71.0214733 175.94360352 72.99630737 C177.45996083 73.63233686 178.97724013 74.266172 180.49536133 74.89797974 C182.71052328 75.82260733 184.92027102 76.75912493 187.12890625 77.69921875 C187.78681656 77.97190582 188.44472687 78.2445929 189.12257385 78.52554321 C196.02995144 81.4993499 198.8511473 85.26479461 202.1875 91.9375 C202.1875 100.1875 202.1875 108.4375 202.1875 116.9375 C182.0575 116.9375 161.9275 116.9375 141.1875 116.9375 C141.1875 111.3275 141.1875 105.7175 141.1875 99.9375 C141.5175 99.9375 141.8475 99.9375 142.1875 99.9375 C142.1875 105.2175 142.1875 110.4975 142.1875 115.9375 C148.1275 115.9375 154.0675 115.9375 160.1875 115.9375 C160.12695496 112.31085218 160.03969 108.68802331 159.9375 105.0625 C159.92332031 104.04929687 159.90914062 103.03609375 159.89453125 101.9921875 C159.58090934 92.20718389 157.35913618 83.97132146 150.1875 76.9375 C147.29775863 75.01611155 147.29775863 75.01611155 144.03125 73.546875 C143.4276062 73.25842712 142.8239624 72.96997925 142.20202637 72.67279053 C134.15766085 68.88841732 125.91416392 65.55002309 117.6875 62.1875 C115.8956177 61.45039378 114.1039565 60.71274985 112.3125 59.97460938 C108.53750506 58.41996521 104.76138582 56.86809932 100.984375 55.31835938 C92.34297272 51.77139565 83.71145453 48.20050176 75.07879639 44.63232422 C72.17596178 43.43273185 69.27284502 42.23382499 66.36962891 41.03515625 C49.44764615 34.04835914 32.53223849 27.0458403 15.62541199 20.02244568 C10.52415726 17.90431717 5.41948581 15.79464442 0.31243896 13.69052124 C-3.07157208 12.29554044 -6.45398127 10.8967041 -9.83612061 9.49719238 C-11.43194532 8.83794476 -13.02849253 8.18044307 -14.62579346 7.52478027 C-16.8136237 6.6265028 -18.99886201 5.72218821 -21.18359375 4.81640625 C-21.83040604 4.55265701 -22.47721832 4.28890778 -23.14363098 4.01716614 C-25.83684229 2.8941883 -27.72639075 2.02360925 -29.8125 -0.0625 C-28.34280271 -0.74979059 -26.86096164 -1.41111956 -25.375 -2.0625 C-24.55128906 -2.43375 -23.72757813 -2.805 -22.87890625 -3.1875 C-14.3935632 -5.60879534 -7.88663038 -3.37924304 0 0 Z " fill="#C7E0F5" transform="translate(270.8125,26.0625)"/>
<path d="M0 0 C24.42 0 48.84 0 74 0 C74 21.45 74 42.9 74 65 C67.26153846 60.50769231 67.26153846 60.50769231 64.78125 58.34375 C64.24113281 57.87839844 63.70101562 57.41304688 63.14453125 56.93359375 C62.04817708 55.97786458 60.95182292 55.02213542 59.85546875 54.06640625 C51.37344026 46.75850103 44.5062404 43.43819859 33.1640625 43.70703125 C24.31059499 44.52679676 18.58692337 50.67753502 12.140625 56.29296875 C2.12587799 65 2.12587799 65 0 65 C0 43.55 0 22.1 0 0 Z " fill="#D7B0EC" transform="translate(219,258)"/>
<path d="M0 0 C2.7284445 1.97908298 3.98249465 3.68118365 5.1640625 6.83203125 C5.0390625 9.83203125 5.0390625 9.83203125 3.5390625 12.70703125 C1.0390625 14.83203125 1.0390625 14.83203125 -2.1484375 15.39453125 C-5.53672198 14.89462043 -7.10287925 14.34659585 -10.0234375 12.83203125 C-16.63134862 9.66385469 -24.45311044 9.51490053 -31.4609375 11.5625 C-38.04517457 14.61768576 -42.23381666 19.70890416 -45.9609375 25.83203125 C-48.17530353 32.47512935 -47.97808619 40.38620255 -45.2109375 46.83203125 C-41.60487774 53.66981931 -37.43131343 58.33161617 -29.9609375 60.83203125 C-22.3062775 61.69418769 -15.69486974 61.89761858 -8.9609375 57.83203125 C-4.65006731 53.52116106 -2.85057362 49.60039415 -0.9609375 43.83203125 C-1.91355469 43.89003906 -2.86617187 43.94804687 -3.84765625 44.0078125 C-14.09624575 44.3764668 -14.09624575 44.3764668 -18.3359375 41.70703125 C-20.25049147 38.31974346 -20.69307099 36.65539501 -19.9609375 32.83203125 C-17.80150809 30.01838417 -16.6202282 28.95096388 -13.09179688 28.31445312 C-12.00705078 28.30994141 -10.92230469 28.30542969 -9.8046875 28.30078125 C-8.61746094 28.295625 -7.43023437 28.29046875 -6.20703125 28.28515625 C-4.35271484 28.30835938 -4.35271484 28.30835938 -2.4609375 28.33203125 C-1.22472656 28.3165625 0.01148438 28.30109375 1.28515625 28.28515625 C3.06599609 28.29289062 3.06599609 28.29289062 4.8828125 28.30078125 C5.96755859 28.30529297 7.05230469 28.30980469 8.16992188 28.31445312 C11.68316796 28.94822454 12.86464673 30.05620878 15.0390625 32.83203125 C17.08102683 41.7073408 13.64322444 52.47235821 9.2890625 60.14453125 C2.95483713 69.78491327 -3.92392495 74.12953416 -15.01171875 77.4453125 C-25.88157045 79.60185622 -36.17589559 76.60570673 -45.2734375 70.58203125 C-54.07804781 63.93624366 -61.34022184 55.04738363 -62.9609375 43.83203125 C-63.97452041 29.80114782 -62.15810276 18.945873 -52.84375 7.796875 C-39.13113263 -6.51318006 -17.28477488 -10.29511492 0 0 Z " fill="#010103" transform="translate(198.9609375,148.16796875)"/>
<path d="M0 0 C10.23 0 20.46 0 31 0 C31 67.65 31 135.3 31 205 C27.04 205 23.08 205 19 205 C19 137.68 19 70.36 19 1 C13.06 1 7.12 1 1 1 C1 68.32 1 135.64 1 205 C0.67 205 0.34 205 0 205 C0 137.35 0 69.7 0 0 Z " fill="#C2DAEE" transform="translate(442,228)"/>
<path d="M0 0 C3.96 0 7.92 0 12 0 C12 67.32 12 134.64 12 204 C8.04 204 4.08 204 0 204 C0 136.68 0 69.36 0 0 Z " fill="#CB97E7" transform="translate(415,229)"/>
<path d="M0 0 C3.96 0 7.92 0 12 0 C12 67.32 12 134.64 12 204 C8.04 204 4.08 204 0 204 C0 136.68 0 69.36 0 0 Z " fill="#CAE4F9" transform="translate(57,229)"/>
<path d="M0 0 C10.23 0 20.46 0 31 0 C31 57.75 31 115.5 31 175 C26.71 175 22.42 175 18 175 C18 117.58 18 60.16 18 1 C12.06 1 6.12 1 0 1 C0 0.67 0 0.34 0 0 Z " fill="#C4DDF1" transform="translate(308,258)"/>
<path d="M0 0 C10.23 0 20.46 0 31 0 C31 57.75 31 115.5 31 175 C27.04 175 23.08 175 19 175 C19 117.58 19 60.16 19 1 C13.06 1 7.12 1 1 1 C1 58.42 1 115.84 1 175 C0.67 175 0.34 175 0 175 C0 117.25 0 59.5 0 0 Z " fill="#C5DDF1" transform="translate(173,258)"/>
<path d="M0 0 C4.86421552 3.40891822 6.0758103 8.96861363 7.890625 14.34765625 C8.24010193 15.35589951 8.58957886 16.36414276 8.949646 17.40293884 C9.68447723 19.53016801 10.4137055 21.65933984 11.13769531 23.7902832 C12.24847771 27.05802169 13.37659913 30.31936297 14.5078125 33.58007812 C15.21977208 35.64808591 15.93074372 37.71643413 16.640625 39.78515625 C17.14677338 41.25239891 17.14677338 41.25239891 17.66314697 42.74928284 C17.97056824 43.65710007 18.2779895 44.5649173 18.59472656 45.50024414 C18.86690002 46.29870255 19.13907349 47.09716095 19.41949463 47.91981506 C20 50 20 50 20 53 C20.66 53 21.32 53 22 53 C22.26498291 51.71593262 22.52996582 50.43186523 22.80297852 49.10888672 C23.93243914 44.03785163 25.47821463 39.17189064 27.15234375 34.2578125 C27.45314346 33.36762421 27.75394318 32.47743591 28.06385803 31.56027222 C28.69592797 29.69558656 29.33051799 27.83175338 29.9675293 25.96875 C30.9408227 23.11525854 31.89939754 20.25708615 32.85742188 17.3984375 C33.47567362 15.58042664 34.09478392 13.76270748 34.71484375 11.9453125 C35.14155617 10.66565109 35.14155617 10.66565109 35.57688904 9.36013794 C35.85049759 8.56856293 36.12410614 7.77698792 36.40600586 6.96142578 C36.64202011 6.26687286 36.87803436 5.57231995 37.12120056 4.85671997 C38.13843308 2.70751976 39.13695215 1.47611188 41 0 C44.85016788 -0.49002137 47.10810967 -0.51283694 50.5 1.4375 C52.76552577 5.30777318 51.82838476 8.77211003 51 13 C49.66163132 17.9564583 48.0851613 22.82704627 46.484375 27.703125 C46.02663214 29.11307404 45.56922015 30.52313053 45.11212158 31.93328857 C44.15651968 34.8735699 43.19401559 37.81148395 42.22705078 40.74804688 C40.99242219 44.50077128 39.77992236 48.26024146 38.57302475 52.02196121 C37.63637798 54.9302852 36.68580907 57.83391687 35.73126984 60.73641205 C35.27835614 62.12065021 34.83025414 63.50647284 34.3871994 64.89389801 C33.76583656 66.83404718 33.12306503 68.76729993 32.47949219 70.70019531 C32.12054871 71.79889954 31.76160522 72.89760376 31.39178467 74.02960205 C29.78456041 77.45979908 27.79808067 79.47942197 25 82 C24.67 82.33 24.34 82.66 24 83 C17.84036648 82.6513415 17.84036648 82.6513415 14.94750977 80.40917969 C12.51113916 77.3952515 11.35991298 74.26694656 10.15234375 70.640625 C9.89894226 69.91107605 9.64554077 69.1815271 9.38446045 68.42987061 C8.55750792 66.04030204 7.74724767 63.64544779 6.9375 61.25 C6.36855439 59.59211816 5.7986381 57.93456914 5.2277832 56.27734375 C4.05698003 52.87365829 2.89268071 49.46784011 1.73242188 46.06054688 C0.08509542 41.23309987 -1.60157299 36.42014116 -3.296875 31.609375 C-4.05972611 29.43370352 -4.82154452 27.25767454 -5.58273315 25.0814209 C-6.06665952 23.70117944 -6.5527417 22.32169182 -7.04104614 20.94299316 C-7.71834542 19.02709106 -8.38481789 17.10737187 -9.05078125 15.1875 C-9.42887939 14.10855469 -9.80697754 13.02960938 -10.1965332 11.91796875 C-10.97790611 9.08023889 -11.28394513 6.92093941 -11 4 C-8.00375133 -0.43444803 -5.14731601 -0.73533086 0 0 Z " fill="#010103" transform="translate(324,143)"/>
<path d="M0 0 C6.3933853 4.05859954 10.94269409 9.87564414 12.88671875 17.20703125 C14.28916651 25.03622991 13.27470822 31.48944062 9.2890625 38.453125 C5.03221762 44.00962606 0.31328322 48.28056033 -6.7109375 49.453125 C-15.29629936 50.3856895 -22.39781131 50.39283466 -29.62109375 45.296875 C-35.58962307 40.03118185 -39.12747258 34.34808859 -40.08203125 26.33984375 C-40.26955679 17.30552485 -38.83523705 11.7638757 -32.55078125 5.1953125 C-23.20182561 -3.51373132 -11.91960451 -5.51330241 0 0 Z " fill="#4E65CE" transform="translate(279.7109375,160.546875)"/>
<path d="M0 0 C13.53 0 27.06 0 41 0 C41 57.75 41 115.5 41 175 C37.04 175 33.08 175 29 175 C29 117.58 29 60.16 29 1 C19.43 1 9.86 1 0 1 C0 0.67 0 0.34 0 0 Z " fill="#CA96E6" transform="translate(117,258)"/>
<path d="M0 0 C28.05 0 56.1 0 85 0 C85 6.27 85 12.54 85 19 C56.95 19 28.9 19 0 19 C0 12.73 0 6.46 0 0 Z " fill="#2F4ABF" transform="translate(412,158)"/>
<path d="M0 0 C28.05 0 56.1 0 85 0 C85 6.27 85 12.54 85 19 C56.95 19 28.9 19 0 19 C0 12.73 0 6.46 0 0 Z " fill="#4F66D0" transform="translate(15,158)"/>
<path d="M0 0 C4.76680655 -0.51072927 7.77397966 -0.59969318 11.6875 2.3125 C13.14236212 3.52106657 14.57719539 4.75385234 16 6 C17.02444055 6.86907837 18.05060961 7.7361217 19.078125 8.6015625 C20.76650349 10.02454287 22.45217197 11.4500672 24.12915039 12.88647461 C28.02927744 16.22268669 32.02980793 19.36488043 36.1953125 22.3671875 C39.72697232 25.56249876 40.92332794 28.16219809 41.36076355 32.9420929 C41.3694157 34.50996982 41.36158478 36.07799192 41.34057617 37.64575195 C41.34123329 38.93431847 41.34123329 38.93431847 41.34190369 40.24891663 C41.33981921 43.0789387 41.31650428 45.90836309 41.29296875 48.73828125 C41.28737158 50.70411353 41.28310205 52.66995 41.28010559 54.63578796 C41.26866635 59.80290333 41.23920697 64.96976461 41.20599365 70.13677979 C41.17527299 75.4121151 41.16159598 80.68749159 41.14648438 85.96289062 C41.11433649 96.30870521 41.06315116 106.65433145 41 117 C36.71 117 32.42 117 28 117 C27.99120064 115.35081825 27.99120064 115.35081825 27.98222351 113.6683197 C27.92495404 103.29547527 27.85217017 92.92283963 27.76428509 82.55020809 C27.71960109 77.21781367 27.68034048 71.88549531 27.65356445 66.55297852 C27.62751203 61.40460724 27.58709555 56.25652896 27.53681374 51.10833931 C27.5201582 49.14644585 27.50863576 47.18450173 27.50238609 45.22254753 C27.49273081 42.46958747 27.46465431 39.71737474 27.43237305 36.96459961 C27.43452568 35.75402641 27.43452568 35.75402641 27.4367218 34.51899719 C27.32827162 27.95841481 26.0088707 23.23207855 21.50390625 18.2265625 C20.53324219 17.36804688 19.56257813 16.50953125 18.5625 15.625 C18.04333008 15.1623877 17.52416016 14.69977539 16.98925781 14.22314453 C12.27402388 10.08704894 7.28926694 6.34431797 2.203125 2.6796875 C1.47609375 2.12539063 0.7490625 1.57109375 0 1 C0 0.67 0 0.34 0 0 Z " fill="#818181" transform="translate(252,316)"/>
<path d="M0 0 C20.13 0 40.26 0 61 0 C61 7.26 61 14.52 61 22 C40.87 22 20.74 22 0 22 C0 14.74 0 7.48 0 0 Z " fill="#9B9B9B" transform="translate(412,192)"/>
<path d="M0 0 C20.13 0 40.26 0 61 0 C61 7.26 61 14.52 61 22 C40.87 22 20.74 22 0 22 C0 14.74 0 7.48 0 0 Z " fill="#9C9C9C" transform="translate(39,192)"/>
<path d="M0 0 C24.42 0 48.84 0 74 0 C74 21.45 74 42.9 74 65 C72.02 63.68 70.04 62.36 68 61 C67.30925888 60.58181 66.61851776 60.16362 65.90684509 59.73275757 C62.86735177 57.62176645 61.24348552 56.05796217 60.3977356 52.38311768 C60.18867812 49.10046776 60.21270144 45.88908677 60.31640625 42.6015625 C60.32345581 41.54606201 60.33050537 40.49056152 60.33776855 39.40307617 C60.37427447 35.47650588 60.47200555 31.5506971 60.5625 27.625 C60.706875 18.83875 60.85125 10.0525 61 1 C40.87 1 20.74 1 0 1 C0 0.67 0 0.34 0 0 Z " fill="#C695E1" transform="translate(219,258)"/>
<path d="M0 0 C13.86 0 27.72 0 42 0 C42 5.94 42 11.88 42 18 C28.14 18 14.28 18 0 18 C0 12.06 0 6.12 0 0 Z " fill="#4E65CF" transform="translate(413,158)"/>
<path d="M0 0 C2.375 1 2.375 1 4 3 C4.80940498 9.59372112 4.80940498 9.59372112 2.99362183 12.74850464 C1.5283206 14.49511058 -0.01588038 16.07303692 -1.66015625 17.65234375 C-2.24284775 18.23794571 -2.82553925 18.82354767 -3.42588806 19.42689514 C-4.65802114 20.65572004 -5.90002879 21.87471385 -7.15112305 23.08422852 C-9.0571328 24.93229596 -10.92297545 26.81487928 -12.78710938 28.70507812 C-13.99257984 29.89807244 -15.20019487 31.08890446 -16.41015625 32.27734375 C-16.96461929 32.83767807 -17.51908234 33.39801239 -18.09034729 33.97532654 C-21.86019232 37.56808056 -24.59274816 38.91241173 -30 39 C-32.4375 37.5625 -32.4375 37.5625 -34 35 C-34.79368672 28.3529817 -34.79368672 28.3529817 -32.99835205 25.29251099 C-31.54401149 23.60365121 -30.01308999 22.08609436 -28.3828125 20.56640625 C-27.81045868 20.00300034 -27.23810486 19.43959442 -26.64840698 18.8591156 C-24.82525184 17.07392798 -22.97594838 15.31880582 -21.125 13.5625 C-19.88755426 12.35663002 -18.65185619 11.14896384 -17.41796875 9.93945312 C-6.66721663 -0.53337733 -6.66721663 -0.53337733 0 0 Z " fill="#030304" transform="translate(271,51)"/>
<path d="M0 0 C1.25425781 0.00902344 2.50851563 0.01804687 3.80078125 0.02734375 C4.75339844 0.03894531 5.70601563 0.05054687 6.6875 0.0625 C5.6975 2.0425 4.7075 4.0225 3.6875 6.0625 C3.3575 12.6625 3.0275 19.2625 2.6875 26.0625 C-17.4425 26.0625 -37.5725 26.0625 -58.3125 26.0625 C-58.3125 25.7325 -58.3125 25.4025 -58.3125 25.0625 C-45.7725 25.0625 -33.2325 25.0625 -20.3125 25.0625 C-20.3125 20.1125 -20.3125 15.1625 -20.3125 10.0625 C-14.7369186 1.69912791 -14.7369186 1.69912791 -10.140625 0.4921875 C-6.7262754 -0.02656727 -3.45240894 -0.0322655 0 0 Z " fill="#C1D9EC" transform="translate(97.3125,116.9375)"/>
<path d="M0 0 C12.54 0 25.08 0 38 0 C38 4.62 38 9.24 38 14 C16.22 14 -5.56 14 -28 14 C-28 13.67 -28 13.34 -28 13 C-18.76 13 -9.52 13 0 13 C0 8.71 0 4.42 0 0 Z " fill="#304AC1" transform="translate(435,448)"/>
<path d="M0 0 C13.86 0 27.72 0 42 0 C42 4.29 42 8.58 42 13 C28.14 13 14.28 13 0 13 C0 8.71 0 4.42 0 0 Z " fill="#CAE4F9" transform="translate(455,477)"/>
<path d="M0 0 C7.59 0 15.18 0 23 0 C23 7.26 23 14.52 23 22 C2.87 22 -17.26 22 -38 22 C-38 21.67 -38 21.34 -38 21 C-25.46 21 -12.92 21 0 21 C0 14.07 0 7.14 0 0 Z " fill="#7C7C7C" transform="translate(77,192)"/>
<path d="M0 0 C7.59 0 15.18 0 23 0 C23 6.27 23 12.54 23 19 C-5.05 19 -33.1 19 -62 19 C-62 18.67 -62 18.34 -62 18 C-41.54 18 -21.08 18 0 18 C0 12.06 0 6.12 0 0 Z " fill="#2F48B9" transform="translate(77,158)"/>
<path d="M0 0 C4.09969426 0.58567061 4.98844373 1.30595928 7.5 4.5 C8.31537969 8.4403177 8.10291473 12.42217776 8.0625 16.4375 C8.08634766 17.52224609 8.11019531 18.60699219 8.13476562 19.72460938 C8.12015331 27.64935638 8.12015331 27.64935638 5.15625 31.71484375 C2.5 33.5 2.5 33.5 -0.5625 34.125 C-3.5 33.5 -3.5 33.5 -5.65234375 31.71484375 C-8.49323451 26.77181394 -8.07984019 22.03629329 -8 16.4375 C-8.01546875 15.34888672 -8.0309375 14.26027344 -8.046875 13.13867188 C-8.04171875 12.09130859 -8.0365625 11.04394531 -8.03125 9.96484375 C-8.02673828 9.012146 -8.02222656 8.05944824 -8.01757812 7.07788086 C-7.06482083 2.33252035 -4.64061232 0.66294462 0 0 Z " fill="#040304" transform="translate(122.5,377.5)"/>
<path d="M0 0 C2.93757924 0.76681531 4.11310365 2.2145826 6.03515625 4.53125 C6.53686523 7.01733398 6.53686523 7.01733398 6.53125 9.77734375 C6.53189453 10.77958984 6.53253906 11.78183594 6.53320312 12.81445312 C6.51322266 13.85537109 6.49324219 14.89628906 6.47265625 15.96875 C6.47974609 17.00580078 6.48683594 18.04285156 6.49414062 19.11132812 C6.41304412 28.8241944 6.41304412 28.8241944 3.03515625 32.53125 C-0.33984375 33.65625 -0.33984375 33.65625 -3.96484375 33.53125 C-6.66015625 31.77734375 -6.66015625 31.77734375 -8.96484375 28.53125 C-9.65873038 24.49684906 -9.57157604 20.55126027 -9.46484375 16.46875 C-9.46742187 15.38013672 -9.47 14.29152344 -9.47265625 13.16992188 C-9.37470938 5.21173905 -9.26885487 0.14287252 0 0 Z " fill="#040304" transform="translate(123.96484375,274.46875)"/>
<path d="M0 0 C4.38867153 1.30034712 4.38867153 1.30034712 6.375 4 C7.02147643 8.11518379 6.83816586 12.27729766 6.8125 16.4375 C6.83248047 17.58283203 6.85246094 18.72816406 6.87304688 19.90820312 C6.87240234 21.00970703 6.87175781 22.11121094 6.87109375 23.24609375 C6.87294678 24.25341553 6.8747998 25.2607373 6.87670898 26.29858398 C6.24014511 29.72611647 5.11484341 30.90162423 2.375 33 C-1.125 33.5625 -1.125 33.5625 -4.625 33 C-7.29320525 30.78047327 -8.47181685 28.95932597 -9.02197266 25.51391602 C-9.20073085 22.4989813 -9.21954623 19.51988638 -9.1875 16.5 C-9.21134766 15.46746094 -9.23519531 14.43492187 -9.25976562 13.37109375 C-9.25029543 8.47815875 -9.22524622 5.83689151 -6.31640625 1.78125 C-3.625 0 -3.625 0 0 0 Z " fill="#060507" transform="translate(391.625,326)"/>
<path d="M0 0 C4.29885973 0.78958648 5.46537222 2.03473476 8.0625 5.5625 C8.78209013 9.40900201 8.71511761 13.16065105 8.625 17.0625 C8.63595703 18.09503906 8.64691406 19.12757813 8.65820312 20.19140625 C8.61413316 24.74530258 8.5309453 27.74146147 6.24609375 31.74609375 C4.0625 33.5625 4.0625 33.5625 0.5625 34.125 C-3.51156943 33.47023884 -4.44192183 32.7565177 -6.9375 29.5625 C-7.45507812 26.87695312 -7.45507812 26.87695312 -7.46875 23.84375 C-7.47390625 22.74675781 -7.4790625 21.64976562 -7.484375 20.51953125 C-7.46890625 19.37871094 -7.4534375 18.23789062 -7.4375 17.0625 C-7.45296875 15.92167969 -7.4684375 14.78085937 -7.484375 13.60546875 C-7.47921875 12.50847656 -7.4740625 11.41148437 -7.46875 10.28125 C-7.46423828 9.28029297 -7.45972656 8.27933594 -7.45507812 7.24804688 C-6.60012383 2.81196327 -4.37075512 0.83695311 0 0 Z " fill="#030204" transform="translate(121.9375,325.4375)"/>
<path d="M0 0 C4.07474064 0.65486903 5.00232111 1.36966011 7.5 4.5625 C8.31989614 8.69012358 8.10283893 12.86250588 8.0625 17.0625 C8.08634766 18.20332031 8.11019531 19.34414063 8.13476562 20.51953125 C8.12014122 28.81644178 8.12014122 28.81644178 5.19140625 32.33984375 C1.46614607 34.03216078 -0.62376507 33.78279618 -4.5 32.5625 C-8.61564109 27.96940635 -7.97935102 22.3759873 -7.9375 16.5625 C-7.95748047 15.57765625 -7.97746094 14.5928125 -7.99804688 13.578125 C-7.99503963 9.1274028 -7.93748914 6.32503506 -5.69140625 2.41015625 C-3.5 0.5625 -3.5 0.5625 0 0 Z " fill="#060406" transform="translate(390.5,377.4375)"/>
<path d="M0 0 C3.9375 0.5 3.9375 0.5 5.65429688 1.66625977 C8.49949933 5.73214935 7.44778961 11.66055069 7.4375 16.4375 C7.46585937 17.63052734 7.49421875 18.82355469 7.5234375 20.05273438 C7.52601563 21.19935547 7.52859375 22.34597656 7.53125 23.52734375 C7.53833984 24.57656006 7.54542969 25.62577637 7.55273438 26.70678711 C6.9375 29.5 6.9375 29.5 4.55664062 31.83422852 C1.9375 33.5 1.9375 33.5 -0.5625 34.125 C-3.62129 33.3603025 -5.05245627 31.94320053 -6.99755859 29.50585938 C-9.16399601 25.42528858 -8.73514977 20.94768651 -8.625 16.4375 C-8.63595703 15.45716797 -8.64691406 14.47683594 -8.65820312 13.46679688 C-8.61334548 9.06177651 -8.47573343 6.23131443 -6.28125 2.34765625 C-3.91379758 0.37616858 -3.0274243 -0.1399965 0 0 Z " fill="#060506" transform="translate(391.0625,274.5)"/>
<path d="M0 0 C0.33 0 0.66 0 1 0 C1 6.93 1 13.86 1 21 C16.84 21 32.68 21 49 21 C49 14.07 49 7.14 49 0 C52.96 0 56.92 0 61 0 C61 7.26 61 14.52 61 22 C40.87 22 20.74 22 0 22 C0 14.74 0 7.48 0 0 Z " fill="#787878" transform="translate(412,192)"/>
</svg>
