<?xml version="1.0" encoding="UTF-8"?>
<svg version="1.1" xmlns="http://www.w3.org/2000/svg" width="512" height="512">
<path d="M0 0 C0.8345723 -0.0049649 1.66914459 -0.00992981 2.52900696 -0.01504517 C5.28489001 -0.02963041 8.04071559 -0.03646095 10.79663086 -0.04199219 C12.7118683 -0.04774444 14.62710573 -0.05350216 16.54234314 -0.05926514 C20.55459867 -0.06976323 24.56683423 -0.07561442 28.57910156 -0.07910156 C33.72645164 -0.08459902 38.87353889 -0.10865865 44.02080631 -0.13707352 C47.97469363 -0.15566724 51.92851703 -0.16090364 55.88244438 -0.16243744 C57.78070966 -0.16546937 59.67897367 -0.17351602 61.57719612 -0.18662262 C64.22745154 -0.20362304 66.87705637 -0.20181832 69.52734375 -0.1953125 C70.31443726 -0.20452728 71.10153076 -0.21374207 71.91247559 -0.22323608 C77.15543021 -0.1827923 77.15543021 -0.1827923 79.70970154 1.43341064 C80.69897461 3.16113281 80.69897461 3.16113281 80.69897461 7.16113281 C87.29897461 7.16113281 93.89897461 7.16113281 100.69897461 7.16113281 C101.02897461 5.51113281 101.35897461 3.86113281 101.69897461 2.16113281 C104.23254082 -0.37243339 105.83804146 -0.08663583 109.29440308 -0.12103271 C110.07566559 -0.1185553 110.8569281 -0.11607788 111.66186523 -0.11352539 C112.89641953 -0.12119179 112.89641953 -0.12119179 114.15591431 -0.12901306 C116.88909092 -0.14296124 119.62201653 -0.14194707 122.35522461 -0.13964844 C124.25655206 -0.14353519 126.15787865 -0.14786982 128.0592041 -0.15263367 C132.05406499 -0.16010905 136.04883756 -0.15979705 140.04370117 -0.15454102 C145.14336382 -0.14877331 150.24266009 -0.16560529 155.34226227 -0.18888569 C159.27500497 -0.20368623 163.20766101 -0.20448567 167.14042664 -0.20137596 C169.01894348 -0.20188695 170.89746546 -0.20708267 172.7759552 -0.21718788 C190.07303409 -0.29874526 203.85657249 2.25440128 217.03881836 14.48925781 C222.69897461 20.18936811 222.69897461 20.18936811 222.69897461 23.16113281 C224.29058662 23.14780914 224.29058662 23.14780914 225.91435242 23.13421631 C235.96136899 23.05278814 246.00831776 22.99300408 256.05559063 22.95388412 C261.21981857 22.93309536 266.38377806 22.90493854 271.54785156 22.859375 C276.54050614 22.81560445 281.53290407 22.79193037 286.52573586 22.78162384 C288.42134447 22.77428809 290.31694058 22.75996461 292.21243858 22.73821259 C308.78885321 22.55572066 321.94066385 24.23862707 334.65991211 35.96972656 C341.62244081 43.2819019 346.76029953 52.95018902 346.87597656 63.14160156 C346.8888118 64.12942627 346.90164703 65.11725098 346.91487122 66.13500977 C346.92595161 67.72575317 346.92595161 67.72575317 346.93725586 69.34863281 C346.94532761 70.44328857 346.95339935 71.53794434 346.9617157 72.66577148 C346.97553539 74.97898788 346.98626698 77.29222448 346.99414062 79.60546875 C347.01140985 83.14784945 347.05532229 86.68931025 347.09936523 90.23144531 C347.10948762 92.47883429 347.11800514 94.72623118 347.12475586 96.97363281 C347.14226395 98.03412842 347.15977203 99.09462402 347.17781067 100.18725586 C347.15618237 107.49010015 347.15618237 107.49010015 344.85986328 110.86035156 C342.69897461 112.16113281 342.69897461 112.16113281 339.69897461 112.16113281 C339.69897461 118.43113281 339.69897461 124.70113281 339.69897461 131.16113281 C341.34897461 131.82113281 342.99897461 132.48113281 344.69897461 133.16113281 C347.74983547 136.21199367 347.04409277 139.77170324 347.07006836 143.86816406 C347.07909683 144.74454025 347.08812531 145.62091644 347.09742737 146.52384949 C347.11196371 148.38752825 347.12082497 150.25125843 347.12451172 152.11499023 C347.13627073 154.92491435 347.18530033 157.73254118 347.23608398 160.54199219 C347.36510412 174.70536065 345.54478448 185.82971841 335.92944336 196.94238281 C324.44223635 208.36923672 311.70395702 211.33161581 296.09155273 211.50292969 C295.23110352 211.53064453 294.3706543 211.55835938 293.48413086 211.58691406 C292.32216187 211.60878784 292.32216187 211.60878784 291.13671875 211.63110352 C287.5807871 212.40425601 285.49435696 213.84065169 282.69897461 216.16113281 C281.41315991 218.56970733 280.49659074 220.61349672 279.62866211 223.15722656 C279.38028595 223.8277858 279.13190979 224.49834503 278.87600708 225.18922424 C278.08977547 227.31935904 277.33032701 229.45772593 276.57397461 231.59863281 C275.80694944 233.73438036 275.0341718 235.86762524 274.2505188 237.99732971 C273.76579472 239.31801614 273.29095316 240.64238762 272.82785034 241.97080994 C271.07409935 246.79965034 268.98029277 250.83036389 264.44897461 253.47363281 C259.38452507 254.7397452 255.32191018 254.7229182 250.44897461 253.03613281 C245.36329202 249.56862196 243.24511536 244.52727046 241.29663086 238.84472656 C240.8809082 237.66845703 240.46518555 236.4921875 240.03686523 235.28027344 C239.1858136 232.82356237 238.33946509 230.36521706 237.49780273 227.90527344 C237.08079102 226.73029297 236.6637793 225.5553125 236.23413086 224.34472656 C235.68317749 222.74455688 235.68317749 222.74455688 235.12109375 221.11206055 C233.21441473 217.15566066 230.66839965 214.14584534 226.69897461 212.16113281 C216.95818115 211.48935395 207.83844078 210.86969417 199.12084961 215.87207031 C191.80636437 219.76526407 184.50077146 219.45560778 176.39038086 219.46972656 C174.43332821 219.48844782 172.47627555 219.50718611 170.51923275 219.52690983 C165.7214148 219.57206612 160.92346139 219.59587537 156.12548828 219.61743164 C153.42491671 219.63028882 150.72460422 219.65103496 148.02415466 219.67970276 C145.48996191 219.7058186 142.95560722 219.71983836 140.42127991 219.72007751 C132.3191064 219.81340275 126.00194202 219.98025224 119.8984375 225.8581543 C117.47895896 229.49153483 115.95197483 232.91605275 114.50756836 237.00878906 C114.23558121 237.74310654 113.96359406 238.47742401 113.68336487 239.23399353 C112.82281033 241.55981368 111.97812801 243.89091253 111.13647461 246.22363281 C110.29028755 248.55951445 109.44042611 250.89372303 108.57887268 253.22398376 C108.04537718 254.66752893 107.52055548 256.11432018 107.00596619 257.56471252 C105.22080031 262.40386394 103.15044121 266.48274282 98.81616211 269.45019531 C93.15972034 271.34959089 86.73253344 270.97455635 81.26147461 268.78613281 C73.94959503 261.29591471 71.29823509 249.76573787 68.00561523 240.08691406 C66.0841055 234.57301657 64.27146073 229.80072518 60.69897461 225.16113281 C60.04928711 224.29488281 60.04928711 224.29488281 59.38647461 223.41113281 C53.2499045 218.86552532 44.73816824 219.88178988 37.53100586 219.88769531 C34.91967349 219.86740071 32.3083454 219.84654982 29.69702148 219.82519531 C25.60709855 219.80054878 21.51723903 219.78529589 17.42724609 219.78027344 C13.46160573 219.77423338 9.49648236 219.73684502 5.53100586 219.70019531 C3.7210186 219.70776352 3.7210186 219.70776352 1.87446594 219.71548462 C-7.33270285 219.61000446 -15.33255884 217.8728825 -23.45727539 213.43847656 C-27.56924534 211.59147907 -31.34480737 211.68551586 -35.80102539 211.72363281 C-36.62989258 211.70365234 -37.45875977 211.68367187 -38.31274414 211.66308594 C-39.52897461 211.66405273 -39.52897461 211.66405273 -40.76977539 211.66503906 C-41.49616211 211.66318604 -42.22254883 211.66133301 -42.97094727 211.65942383 C-46.47626284 212.41418321 -48.54538189 213.88149353 -51.30102539 216.16113281 C-52.58684009 218.56970733 -53.50340926 220.61349672 -54.37133789 223.15722656 C-54.74390213 224.16306541 -54.74390213 224.16306541 -55.12399292 225.18922424 C-55.91022453 227.31935904 -56.66967299 229.45772593 -57.42602539 231.59863281 C-58.19305056 233.73438036 -58.9658282 235.86762524 -59.7494812 237.99732971 C-60.23420528 239.31801614 -60.70904684 240.64238762 -61.17214966 241.97080994 C-62.92590065 246.79965034 -65.01970723 250.83036389 -69.55102539 253.47363281 C-74.61547493 254.7397452 -78.67808982 254.7229182 -83.55102539 253.03613281 C-88.79407152 249.46132863 -90.86153731 244.21111311 -92.88696289 238.37207031 C-93.34721072 237.08796874 -93.80816954 235.80412183 -94.26977539 234.52050781 C-94.97780537 232.52425661 -95.67939519 230.52633711 -96.3684082 228.5234375 C-97.04430432 226.57031762 -97.7449719 224.62752753 -98.44946289 222.68457031 C-98.85342285 221.52876465 -99.25738281 220.37295898 -99.67358398 219.18212891 C-101.67305003 215.47054882 -103.58962931 214.10048398 -107.30102539 212.16113281 C-109.57620076 211.60155822 -109.57620076 211.60155822 -111.80493164 211.69238281 C-112.6216333 211.68126465 -113.43833496 211.67014648 -114.27978516 211.65869141 C-115.13241943 211.65949707 -115.98505371 211.66030273 -116.86352539 211.66113281 C-130.88560508 211.2865992 -142.76507066 207.93725824 -153.36352539 198.28222656 C-157.82095923 193.52699003 -160.79403693 188.1516146 -163.30102539 182.16113281 C-163.64654449 181.35359055 -163.9920636 180.54604828 -164.34805298 179.71403503 C-165.68538607 174.72814702 -165.59592992 169.96351323 -165.59155273 164.82250977 C-165.59826996 163.6883815 -165.60498718 162.55425323 -165.61190796 161.38575745 C-165.63088882 157.64026493 -165.63481252 153.89495167 -165.63696289 150.14941406 C-165.6433917 147.53875149 -165.65012013 144.92808965 -165.65713501 142.31742859 C-165.66991086 136.8441756 -165.67290162 131.37097096 -165.67163086 125.89770508 C-165.67043152 119.59471417 -165.69149666 113.29206682 -165.72311819 106.98916274 C-165.7525549 100.90228597 -165.75960329 94.81557235 -165.75841141 88.72862816 C-165.76076426 86.15036811 -165.76956988 83.57210525 -165.78507614 80.99389076 C-165.80478428 77.37788469 -165.7988777 73.76275016 -165.78686523 70.14672852 C-165.79810425 69.09231567 -165.80934326 68.03790283 -165.82092285 66.95153809 C-165.71574276 54.42216477 -160.94238365 44.24432779 -152.42211914 35.15722656 C-143.07397755 26.41340928 -132.01208977 22.81857907 -119.40649414 22.93408203 C-118.55676529 22.93378998 -117.70703644 22.93349792 -116.83155823 22.93319702 C-114.05043981 22.9345794 -111.26959644 22.95008871 -108.48852539 22.96582031 C-106.54939927 22.96955433 -104.61027126 22.97239947 -102.67114258 22.97439575 C-97.58797928 22.98200159 -92.50493178 23.00162371 -87.42181396 23.02380371 C-82.22661912 23.04432804 -77.03140541 23.05341152 -71.83618164 23.06347656 C-61.65774558 23.08487263 -51.47939515 23.11897151 -41.30102539 23.16113281 C-40.99414795 22.5356958 -40.68727051 21.91025879 -40.37109375 21.26586914 C-34.92530044 10.55444224 -23.25983574 4.79453517 -12.30102539 1.16113281 C-8.20275536 0.00612044 -4.23127699 0.00602491 0 0 Z " fill="#000101" transform="translate(165.301025390625,-0.1611328125)"/>
<path d="M0 0 C13.27645269 10.20020146 19.77667713 22.75128114 22.5625 38.96875 C24.35189605 54.6259654 18.27006484 69.52228359 8.6640625 81.640625 C8.30054688 82.07890625 7.93703125 82.5171875 7.5625 82.96875 C8.28953125 83.17628906 9.0165625 83.38382812 9.765625 83.59765625 C22.30594494 87.4401389 31.78606225 93.19498978 40.5625 102.96875 C41.10777344 102.38867188 41.65304687 101.80859375 42.21484375 101.2109375 C49.4629403 93.70265286 56.52029747 88.08529561 66.5625 84.96875 C67.5525 84.96875 68.5425 84.96875 69.5625 84.96875 C69.10359375 84.37449219 68.6446875 83.78023438 68.171875 83.16796875 C59.93944951 72.04727634 56.50869568 60.58086297 57.765625 46.73046875 C59.67665235 34.03875453 66.47410738 22.77541513 76.5625 14.96875 C88.28979056 7.70539584 99.89348963 5.10676985 113.62890625 7.50390625 C127.65797958 11.07458834 137.36344881 18.69851616 145.08984375 31 C148.64850279 38.17395456 150.12324904 44.72168462 150.0625 52.71875 C150.05750488 53.58983398 150.05250977 54.46091797 150.04736328 55.35839844 C149.74815294 66.52203946 145.97262052 75.54005621 138.5625 83.96875 C139.67044922 84.3709375 139.67044922 84.3709375 140.80078125 84.78125 C156.1375803 90.70550275 166.74213676 99.88319206 173.5546875 114.9375 C176.38478613 123.44973465 176.88081395 131.77644153 176.8984375 140.6953125 C176.9050943 141.88297211 176.9117511 143.07063171 176.91860962 144.29428101 C176.92868086 146.79024722 176.93342836 149.28624005 176.93310547 151.78222656 C176.93749526 155.58964212 176.97392152 159.39591268 177.01171875 163.203125 C177.0175848 165.6380169 177.02155561 168.07291426 177.0234375 170.5078125 C177.03780853 171.63820953 177.05217957 172.76860657 177.06698608 173.93325806 C177.02271377 181.61932293 175.98612897 187.08863717 170.74609375 193.02734375 C170.16988281 193.48238281 169.59367187 193.93742188 169 194.40625 C168.42121094 194.87933594 167.84242188 195.35242188 167.24609375 195.83984375 C164.22322883 197.86677638 161.5909025 198.09306347 158.06367493 198.08900452 C157.14240814 198.09037918 156.22114136 198.09175385 155.2719574 198.09317017 C154.26351273 198.08957489 153.25506805 198.08597961 152.21606445 198.08227539 C150.62069855 198.08249443 150.62069855 198.08249443 148.99310303 198.0827179 C145.47064183 198.08202012 141.94823323 198.07423401 138.42578125 198.06640625 C135.9862623 198.06454159 133.54674297 198.06311791 131.10722351 198.06211853 C124.68088755 198.05829713 118.25457412 198.04847004 111.82824707 198.03741455 C105.27287094 198.02719233 98.71749117 198.02261917 92.16210938 198.01757812 C79.29556329 198.00684746 66.42903284 197.98996728 53.5625 197.96875 C53.34533325 199.63707886 53.34533325 199.63707886 53.1237793 201.33911133 C52.18779685 207.39185213 49.23801782 210.69535646 44.4375 214.34375 C40.37593871 216.63941508 37.52028719 217.09582107 32.9271698 217.10919189 C31.7537352 217.11490204 30.5803006 217.12061218 29.37130737 217.12649536 C28.08241608 217.12761322 26.79352478 217.12873108 25.46557617 217.12988281 C24.09557461 217.13451175 22.72557434 217.13953651 21.35557556 217.14492798 C17.63232908 217.15804704 13.90910063 217.16449601 10.18583465 217.16893864 C7.85922678 217.17187026 5.53262384 217.17597525 3.20601845 217.18044281 C-4.0747344 217.19411668 -11.35547599 217.20378377 -18.63624078 217.2076447 C-27.03828683 217.21212481 -35.44017015 217.22967088 -43.84216672 217.2586453 C-50.33823664 217.28026876 -56.83426079 217.29034934 -63.33036631 217.29168582 C-67.2094366 217.29273341 -71.08835388 217.29863128 -74.96738625 217.31650543 C-78.61751609 217.33299761 -82.26737812 217.3351362 -85.91753197 217.32636642 C-87.89161502 217.32523029 -89.86568923 217.33893896 -91.83972168 217.3531189 C-93.02161575 217.34754974 -94.20350983 217.34198059 -95.42121887 217.33624268 C-96.4441998 217.33770924 -97.46718073 217.3391758 -98.52116108 217.3406868 C-104.61175722 216.56391946 -108.42597771 213.41395038 -112.4375 208.96875 C-113.30375 208.040625 -113.30375 208.040625 -114.1875 207.09375 C-115.90972331 204.16597037 -116.01907376 201.30841127 -116.4375 197.96875 C-116.99372606 197.97151538 -117.54995213 197.97428076 -118.12303352 197.97712994 C-131.66936686 198.04343897 -145.21567168 198.09286285 -158.76213264 198.12418652 C-165.31316296 198.13984368 -171.86407615 198.16108324 -178.41503906 198.19506836 C-184.73683702 198.22765945 -191.05852231 198.24560264 -197.3803978 198.25338173 C-199.79253793 198.25892564 -202.20467189 198.26975145 -204.61676407 198.28594017 C-207.99480782 198.3077106 -211.37238569 198.31071702 -214.75048828 198.30932617 C-215.74814713 198.320112 -216.74580597 198.33089783 -217.7736969 198.3420105 C-223.973802 198.3143798 -228.48044297 197.63515612 -233.265625 193.3203125 C-233.96945313 192.46566406 -233.96945313 192.46566406 -234.6875 191.59375 C-235.40679687 190.74683594 -235.40679687 190.74683594 -236.140625 189.8828125 C-238.86038325 185.86871147 -239.68878778 182.25718895 -239.7121582 177.45092773 C-239.72169022 176.36887558 -239.73122223 175.28682343 -239.74104309 174.17198181 C-239.74013168 173.01050125 -239.73922028 171.84902069 -239.73828125 170.65234375 C-239.74256638 169.44490005 -239.7468515 168.23745636 -239.75126648 166.99342346 C-239.75700712 164.4372724 -239.75751201 161.881105 -239.75317383 159.32495117 C-239.75003127 155.44485947 -239.77341707 151.56554338 -239.79882812 147.68554688 C-239.8011031 145.19531345 -239.8018037 142.705078 -239.80078125 140.21484375 C-239.809991 139.06753281 -239.81920074 137.92022186 -239.82868958 136.73814392 C-239.74214446 121.39712964 -235.29388683 108.31595522 -224.69921875 97.03515625 C-217.93512002 90.85517658 -210.02405292 86.96752445 -201.4375 83.96875 C-201.81261719 83.54207031 -202.18773437 83.11539063 -202.57421875 82.67578125 C-211.75424414 71.46088877 -213.81997442 59.40089565 -212.72412109 45.29833984 C-211.2162429 33.04265525 -203.86956142 23.24656075 -194.6015625 15.53515625 C-183.89732109 7.78714036 -172.44364829 5.84873723 -159.4375 6.96875 C-151.0817793 8.62297592 -144.04053666 11.58570297 -137.4375 16.96875 C-136.40689453 17.79632813 -136.40689453 17.79632813 -135.35546875 18.640625 C-126.12765627 26.89801743 -121.30952979 38.85320447 -120.26171875 51.0078125 C-119.79607454 63.31062257 -124.77154109 75.45077044 -132.4375 84.96875 C-131.11492187 85.13890625 -131.11492187 85.13890625 -129.765625 85.3125 C-118.97364668 87.44049573 -110.95397008 95.45227992 -103.4375 102.96875 C-102.95023438 102.411875 -102.46296875 101.855 -101.9609375 101.28125 C-93.35672041 92.0199836 -82.85740195 85.71600942 -70.4375 82.96875 C-70.80101562 82.53046875 -71.16453125 82.0921875 -71.5390625 81.640625 C-81.14506484 69.52228359 -87.22689605 54.6259654 -85.4375 38.96875 C-82.58698574 22.37468482 -75.74856448 9.48877259 -62.03125 -0.84375 C-43.2780162 -13.02117455 -18.35791346 -12.59438249 0 0 Z " fill="#010101" transform="translate(287.4375,295.03125)"/>
<path d="M0 0 C6.6 0 13.2 0 20 0 C20.99 1.98 21.98 3.96 23 6 C25.96585671 7.48292835 28.99133947 7.1615768 32.24438477 7.17358398 C32.99099869 7.180271 33.73761261 7.18695801 34.5068512 7.19384766 C36.131769 7.20791481 37.75670676 7.21980354 39.38165474 7.22979546 C41.95933804 7.24620792 44.53687566 7.26945025 47.11448669 7.29469299 C54.44482131 7.36543082 61.7752182 7.42534867 69.10571289 7.47680664 C73.58850237 7.50875515 78.07112882 7.55007961 82.55378532 7.59700203 C84.25725277 7.61293894 85.9607578 7.62529849 87.66427803 7.63390923 C102.07931545 7.70777165 114.19079965 8.41676047 125.25 18.6875 C131.15246441 24.88449857 135.1087317 32.69564996 135.14717102 41.29797363 C135.15790398 42.94631699 135.15790398 42.94631699 135.16885376 44.62796021 C135.17154266 45.83419037 135.17423157 47.04042053 135.17700195 48.28320312 C135.18357315 49.5534433 135.19014435 50.82368347 135.19691467 52.13241577 C135.21794505 56.34868103 135.22832071 60.56494657 135.23828125 64.78125 C135.24233013 66.23561115 135.24644709 67.68997212 135.25063133 69.14433289 C135.26968608 75.9824598 135.28391271 82.82057595 135.2922433 89.65872431 C135.30199685 97.53384208 135.32826554 105.40867736 135.36874419 113.2836957 C135.3989995 119.38069527 135.41372132 125.47761435 135.41702431 131.57468748 C135.41936543 135.21085366 135.4282012 138.84671819 135.45348549 142.48280334 C135.48130401 146.54926001 135.4769065 150.61509457 135.4699707 154.68164062 C135.48918579 156.4666951 135.48918579 156.4666951 135.50878906 158.28781128 C135.43666502 169.93613114 132.50918723 178.45635644 124.3515625 186.83984375 C114.2254868 196.14170398 102.6879975 197.43930016 89.3359375 197.37109375 C86.72395696 197.38846617 84.11197782 197.40605064 81.5 197.42382812 C77.42740671 197.43690195 73.35483618 197.43749295 69.28222656 197.43579102 C65.32078 197.43572975 61.35977465 197.46672458 57.3984375 197.49609375 C56.18884369 197.48791122 54.97924988 197.4797287 53.73300171 197.47129822 C46.57388551 197.53404335 41.23463729 198.42687418 35 202 C34.27936371 202.4025853 33.55872742 202.80517059 32.81625366 203.21995544 C19.68770423 211.03143307 15.64521248 233.53538616 11 247 C10.34 247 9.68 247 9 247 C8.54729736 245.71536865 8.54729736 245.71536865 8.08544922 244.40478516 C6.94221161 241.17730728 5.78924513 237.95363758 4.62988281 234.73193359 C4.13353264 233.34658365 3.64090744 231.95989243 3.15234375 230.57177734 C-2.43356659 214.19507595 -2.43356659 214.19507595 -14.36328125 202.25390625 C-22.83689074 198.22423418 -30.23314863 197.59331515 -39.58203125 197.6640625 C-41.55464549 197.65474969 -43.52726007 197.64540714 -45.49986553 197.63438988 C-50.31804263 197.61213971 -55.13617091 197.62186814 -59.9543457 197.63964844 C-62.66978517 197.64852268 -65.38462852 197.64388694 -68.10002136 197.62582397 C-70.64108558 197.61009498 -73.18238142 197.61425774 -75.7233429 197.64199829 C-86.73728367 197.54834161 -96.20051375 194.6309244 -104.25390625 186.87890625 C-113.41145439 177.02481083 -115.45471701 168.37032183 -115.40405273 155.01977539 C-115.41091599 153.74705276 -115.41777924 152.47433014 -115.42485046 151.16304016 C-115.44268449 147.69599596 -115.44163213 144.22920619 -115.43590808 140.76213002 C-115.43280209 137.85725404 -115.43892424 134.95242595 -115.44494683 132.04755682 C-115.45895831 125.18962243 -115.45745894 118.33181271 -115.44604492 111.47387695 C-115.43456607 104.4215624 -115.44864289 97.36962825 -115.4754414 90.3173638 C-115.49766014 84.24061615 -115.50422196 78.16398737 -115.49836498 72.08720201 C-115.49500901 68.46740025 -115.49731915 64.84784225 -115.51461601 61.22807503 C-115.53308001 57.18834794 -115.51883495 53.14935219 -115.50170898 49.10961914 C-115.51137695 47.92541382 -115.52104492 46.7412085 -115.53100586 45.52111816 C-115.42933659 34.0309294 -112.23669827 26.45360504 -104.2890625 18.1953125 C-93.96922675 8.29813214 -83.07097478 7.56711978 -69.24928665 7.61987495 C-66.61755529 7.62906872 -63.9865236 7.61867151 -61.35482788 7.60325623 C-53.88060405 7.56336098 -46.40644162 7.56196377 -38.93212891 7.56420898 C-34.34281741 7.56426003 -29.75389043 7.5451349 -25.1646843 7.51487541 C-22.57418768 7.50405299 -19.98442437 7.51617133 -17.39395142 7.52870178 C-15.80901357 7.51980087 -14.22408173 7.50972771 -12.63916016 7.49829102 C-11.92119263 7.50803452 -11.2032251 7.51777802 -10.46350098 7.52781677 C-7.08983155 7.47916915 -5.30016869 7.22915776 -2.58505249 5.15635681 C-0.82889753 2.99848813 -0.82889753 2.99848813 0 0 Z " fill="#5FB8FD" transform="translate(246,7)"/>
<path d="M0 0 C9.70185591 -0.09311451 19.40355549 -0.16397361 29.10576248 -0.20724869 C33.61201125 -0.22802968 38.11795192 -0.25617142 42.62402344 -0.30175781 C46.98125949 -0.34555732 51.33820117 -0.36920825 55.69564056 -0.37950897 C57.34925717 -0.38683968 59.0028596 -0.40115303 60.65634918 -0.42292023 C72.11890192 -0.56767127 82.79531512 -0.16336711 92.375 7 C102.06144217 16.6839363 102.75776868 26.89335861 102.83398438 39.90429688 C102.8279291 41.95703481 102.8207556 44.00976973 102.8125 46.0625 C102.82669421 49.16092673 102.84905531 52.25917699 102.87467957 55.35752869 C102.88767454 57.27396327 102.89248004 59.19047513 102.88813782 61.10694885 C102.88871689 61.9689238 102.88929596 62.83089874 102.88989258 63.71899414 C102.88733963 64.47555801 102.88478668 65.23212189 102.88215637 66.01161194 C102.92620003 68.21117968 102.92620003 68.21117968 104 71 C105.98 71.99 107.96 72.98 110 74 C110 80.6 110 87.2 110 94 C108.35 94.66 106.7 95.32 105 96 C102.4868986 98.5131014 102.758044 100.05578413 102.72354126 103.48451233 C102.72503677 104.60786232 102.72503677 104.60786232 102.7265625 105.75390625 C102.70625102 107.34701195 102.68539985 108.94011084 102.6640625 110.53320312 C102.6415879 113.03887649 102.62504292 115.54427977 102.61914062 118.05004883 C102.54870269 135.79160468 102.54870269 135.79160468 98 143 C97.63205322 143.64767334 97.26410645 144.29534668 96.88500977 144.96264648 C93.54708502 150.66301834 87.41813942 154.66603611 81.1394043 156.56176758 C78.83656375 157.03347804 76.71686671 157.14269053 74.3671875 157.17578125 C57.04548463 157.49877018 57.04548463 157.49877018 42.51171875 166.21484375 C35.4448742 174.55992892 32.60893592 186.84116609 29 197 C28.34 197 27.68 197 27 197 C26.75878418 196.31486328 26.51756836 195.62972656 26.26904297 194.92382812 C25.15202062 191.77725636 24.01372062 188.63878119 22.875 185.5 C22.49601562 184.42234375 22.11703125 183.3446875 21.7265625 182.234375 C18.48696721 173.37948122 14.70364294 165.81076593 6.30078125 160.96484375 C2.0393863 159.17780716 -2.43714636 158.56196911 -7 158 C-5.46258557 154.070286 -3.73317063 150.27639188 -1.90234375 146.4765625 C0.75208723 139.19124112 0.13538092 131.26361867 0.11352539 123.62915039 C0.11324298 122.27838137 0.11340231 120.92761219 0.1139679 119.57684326 C0.11425377 115.92653416 0.10839106 112.2762582 0.10139394 108.62595677 C0.09512536 104.80495578 0.09455383 100.98395395 0.09336853 97.16294861 C0.09026553 89.93477551 0.08206607 82.70661761 0.07201904 75.47845119 C0.06082584 67.24628314 0.05533938 59.01411435 0.05032361 50.78194058 C0.03988257 33.85461827 0.02230315 16.92731075 0 0 Z " fill="#FEE458" transform="translate(395,38)"/>
<path d="M0 0 C1.73448022 0.00747334 3.46896896 0.0131611 5.20346069 0.01715088 C9.73769009 0.03232129 14.27139554 0.07152735 18.80541992 0.1159668 C23.44442663 0.15710646 28.08351915 0.17520157 32.72265625 0.1953125 C41.80231177 0.23803129 50.88158083 0.30617656 59.9609375 0.390625 C59.95817212 1.43727278 59.95817212 1.43727278 59.95535088 2.50506496 C59.9111229 19.50738694 59.87805715 36.50969425 59.85731316 53.51206112 C59.84701409 61.73438016 59.83298002 69.95666073 59.81005859 78.17895508 C59.7900827 85.34807489 59.77721111 92.51716682 59.77276051 99.68631369 C59.77016023 103.47998193 59.76407714 107.27357045 59.74947739 111.06721306 C59.73582702 114.64339088 59.73172981 118.21945671 59.73472214 121.79565811 C59.73391602 123.7226683 59.72319359 125.64966649 59.71209717 127.5766449 C59.73263788 136.28139216 60.32400261 144.03950129 64.5859375 151.828125 C66.9609375 156.21432442 66.9609375 156.21432442 66.9609375 158.390625 C65.92646484 158.50277344 65.92646484 158.50277344 64.87109375 158.6171875 C57.02394234 159.71514284 50.58615257 161.82410663 45.51953125 168.20629883 C41.34838138 174.07526995 38.89376471 180.16883139 36.5859375 186.953125 C36.05419922 188.46616211 36.05419922 188.46616211 35.51171875 190.00976562 C34.65015978 192.46637296 33.80021299 194.92633521 32.9609375 197.390625 C32.3009375 197.390625 31.6409375 197.390625 30.9609375 197.390625 C30.71972168 196.70548828 30.47850586 196.02035156 30.22998047 195.31445312 C29.11295812 192.16788136 27.97465812 189.02940619 26.8359375 185.890625 C26.45695312 184.81296875 26.07796875 183.7353125 25.6875 182.625 C22.05384187 172.69300111 17.78643851 165.05051335 7.9609375 160.390625 C2.54682727 158.08881766 -2.50785322 158.11578561 -8.2890625 158.015625 C-18.90359919 157.6618375 -27.37799311 156.2298588 -35.0390625 148.390625 C-40.92737933 140.46846057 -42.33953188 133.43525838 -42.36132812 123.71044922 C-42.37125793 122.64620224 -42.38118774 121.58195526 -42.39141846 120.48545837 C-42.42057551 116.97204985 -42.43425245 113.45882204 -42.4453125 109.9453125 C-42.45682421 107.49398802 -42.46833956 105.04266356 -42.4798584 102.59133911 C-42.50085504 97.45183476 -42.51255506 92.31239275 -42.51953125 87.17285156 C-42.53048428 80.60924876 -42.57851263 74.04647917 -42.63547516 67.48313713 C-42.67285471 62.41797536 -42.68314588 57.35301155 -42.686203 52.28772354 C-42.69223056 49.86934997 -42.70820108 47.45097883 -42.73457336 45.03274155 C-42.99329553 19.48109777 -42.99329553 19.48109777 -34.23010254 9.28610229 C-24.4386287 -0.27553269 -12.85046364 -0.16361598 0 0 Z " fill="#6A7DD7" transform="translate(57.0390625,37.609375)"/>
<path d="M0 0 C1.03016739 -0.0098568 1.03016739 -0.0098568 2.08114624 -0.01991272 C4.34885788 -0.03958355 6.61650334 -0.0512969 8.88427734 -0.0612793 C10.05156939 -0.06739259 10.05156939 -0.06739259 11.24244308 -0.07362938 C15.36475099 -0.09446775 19.48702587 -0.10877679 23.609375 -0.11816406 C27.84590424 -0.12919933 32.08190403 -0.16357177 36.31824684 -0.20333576 C39.59387112 -0.22961403 42.86937162 -0.23786596 46.14509201 -0.24144554 C47.70545384 -0.24628582 49.2658111 -0.25782594 50.82606888 -0.27648354 C64.97853241 -0.43514548 75.98902353 2.50226921 86.51708984 12.4699707 C91.38997852 17.60561319 94.80281197 22.47795937 97.09521484 29.17700195 C97.60405968 30.52978493 97.60405968 30.52978493 98.1231842 31.90989685 C99.13886984 35.32373134 99.36750325 38.10012734 99.40161133 41.65380859 C99.41759872 42.91854507 99.43358612 44.18328156 99.45005798 45.48634338 C99.45643326 46.85327752 99.46182645 48.22021655 99.46630859 49.5871582 C99.47528466 51.00150137 99.48440668 52.41584361 99.4936676 53.83018494 C99.51010736 56.78639019 99.51784925 59.7424828 99.52075195 62.69873047 C99.52614921 66.48078305 99.56390382 70.26177441 99.60949612 74.04352665 C99.63927104 76.96125647 99.64647548 79.8787299 99.6474781 82.79659843 C99.65167499 84.19085012 99.66408824 85.58510294 99.68499565 86.97920418 C99.71192762 88.92914937 99.7039748 90.8794813 99.69458008 92.82958984 C99.69965073 93.93734268 99.70472137 95.04509552 99.70994568 96.18641663 C98.8275438 100.47918668 97.77575308 101.74602917 94.09521484 104.17700195 C89.92044584 104.91767214 85.79633991 104.85963691 81.56567383 104.82397461 C80.29365112 104.83273621 79.02162842 104.8414978 77.71105957 104.8505249 C74.22954993 104.87328314 70.74878262 104.86449776 67.26726031 104.84862947 C63.6215993 104.83595479 59.97600108 104.84771466 56.33033752 104.8555603 C50.20961106 104.86465122 44.08918647 104.85268269 37.96850586 104.82885742 C30.89333155 104.80163466 23.8188774 104.81047022 16.74372047 104.83798945 C10.66626238 104.86068122 4.58902104 104.86388077 -1.48846573 104.8507961 C-5.1171057 104.84300336 -8.74540715 104.84195488 -12.37402534 104.85847855 C-16.41799697 104.87560822 -20.46072717 104.85186719 -24.50463867 104.82397461 C-25.70734909 104.83409576 -26.91005951 104.84421692 -28.1492157 104.85464478 C-36.17195144 104.75186355 -36.17195144 104.75186355 -39.64645386 102.02633667 C-41.08432191 98.7704633 -41.41793718 96.49852398 -41.43823242 92.94067383 C-41.45406876 91.70168335 -41.46990509 90.46269287 -41.48622131 89.18615723 C-41.48237644 87.83935164 -41.4773355 86.49254901 -41.47119141 85.14575195 C-41.47643417 83.74914131 -41.48271304 82.35253422 -41.48997498 80.95593262 C-41.50037493 78.02717455 -41.49583196 75.09890226 -41.48120117 72.17016602 C-41.4641335 68.45264485 -41.48735769 64.73668691 -41.52269077 61.01934052 C-41.54488561 58.13124728 -41.54316885 55.24351416 -41.53492546 52.35536194 C-41.53372648 50.33000636 -41.55348178 48.30467228 -41.5738678 46.27941895 C-41.43958864 32.73475767 -37.30968681 21.78126634 -27.87353516 12.09106445 C-19.66929703 4.32014876 -11.29998806 0.08970721 0 0 Z " fill="#5FB8FD" transform="translate(226.90478515625,392.822998046875)"/>
<path d="M0 0 C1.39972508 0.01508394 2.799466 0.02876575 4.19921875 0.04101562 C7.59155844 0.07610879 10.98306775 0.12527735 14.375 0.1875 C13.58351562 0.97809814 12.79203125 1.76869629 11.9765625 2.58325195 C-0.06681804 14.63906466 -3.85688693 26.36156853 -4.0390625 43.22265625 C-4.05842865 44.34192001 -4.0777948 45.46118378 -4.0977478 46.61436462 C-4.15712223 50.15950095 -4.20375971 53.7046705 -4.25 57.25 C-4.28821857 59.66602912 -4.32727252 62.08204518 -4.3671875 64.49804688 C-4.46278878 70.39441458 -4.54795739 76.29086215 -4.625 82.1875 C-3.96693359 81.83308838 -3.30886719 81.47867676 -2.63085938 81.11352539 C-1.75236328 80.65453857 -0.87386719 80.19555176 0.03125 79.72265625 C0.89556641 79.26511963 1.75988281 78.80758301 2.65039062 78.33618164 C8.88586862 75.70733541 15.26807111 76.54292245 21.5625 78.625 C27.82668501 81.42240319 32.46967241 86.43952007 35.5625 92.5234375 C37.54067364 99.00956454 37.55235367 106.75840149 35.34765625 113.1796875 C31.60380487 120.00366038 26.2181662 123.7659169 19.375 127.1875 C11.80069514 127.69834806 5.07786689 127.99594709 -1.625 124.1875 C-2.615 123.6925 -2.615 123.6925 -3.625 123.1875 C-3.72502068 128.09466833 -3.79700237 133.00122362 -3.84472656 137.90917969 C-3.86465287 139.57334754 -3.89180428 141.23744714 -3.92675781 142.90136719 C-4.21832185 157.15370319 -2.56340755 169.45836792 6.375 181.1875 C8.44502127 183.23510226 10.55861621 185.09768144 12.8359375 186.91015625 C13.34382813 187.33167969 13.85171875 187.75320312 14.375 188.1875 C14.375 188.5175 14.375 188.8475 14.375 189.1875 C10.17994498 189.31285793 5.98593523 189.40264515 1.78955078 189.4621582 C0.36780771 189.48701385 -1.05381161 189.52091201 -2.47509766 189.56469727 C-14.0363414 189.91145299 -23.72699943 188.38847878 -33 180.875 C-41.01146246 173.16334278 -45.63345597 165.47954478 -46.01268005 154.16127014 C-46.03338933 151.84335798 -46.03784932 149.52526337 -46.02905273 147.20727539 C-46.03591599 145.93455276 -46.04277924 144.66183014 -46.04985046 143.35054016 C-46.06768449 139.88349596 -46.06663213 136.41670619 -46.06090808 132.94963002 C-46.05780209 130.04475404 -46.06392424 127.13992595 -46.06994683 124.23505682 C-46.08395831 117.37712243 -46.08245894 110.51931271 -46.07104492 103.66137695 C-46.05956607 96.6090624 -46.07364289 89.55712825 -46.1004414 82.5048638 C-46.12266014 76.42811615 -46.12922196 70.35148737 -46.12336498 64.27470201 C-46.12000901 60.65490025 -46.12231915 57.03534225 -46.13961601 53.41557503 C-46.15808001 49.37584794 -46.14383495 45.33685219 -46.12670898 41.29711914 C-46.13637695 40.11291382 -46.14604492 38.9287085 -46.15600586 37.70861816 C-46.05433659 26.2184294 -42.86169827 18.64110504 -34.9140625 10.3828125 C-24.61560063 0.50613064 -13.83961078 -0.26165257 0 0 Z " fill="#1CA7FE" transform="translate(176.625,14.8125)"/>
<path d="M0 0 C1.31417908 -0.0099852 2.62835815 -0.0199704 3.98236084 -0.03025818 C6.75605664 -0.04813924 9.52947337 -0.05378776 12.30322266 -0.05200195 C15.82475376 -0.05169791 19.34445886 -0.09260139 22.86555862 -0.14431858 C26.2645592 -0.18608432 29.6632472 -0.18395462 33.0625 -0.1875 C34.30976868 -0.20905655 35.55703735 -0.2306131 36.84210205 -0.25282288 C46.87330505 -0.17531434 54.57327742 2.87162737 62.671875 8.75390625 C68.76129927 15.13330311 73.54110201 23.23282464 73.55566406 32.18041992 C73.56196838 33.29474899 73.56827271 34.40907806 73.57476807 35.55717468 C73.5707196 36.75002579 73.56667114 37.94287689 73.5625 39.171875 C73.56441345 40.40303543 73.5663269 41.63419586 73.56829834 42.90266418 C73.56965782 45.50078537 73.56597795 48.0989134 73.55761719 50.69702148 C73.55044048 53.365614 73.54851161 56.03340099 73.55761719 58.7019043 C73.56992861 62.54614452 73.56848864 66.39012421 73.5625 70.234375 C73.56654846 71.4332988 73.57059692 72.6322226 73.57476807 73.86747742 C73.56531158 75.5247863 73.56531158 75.5247863 73.55566406 77.21557617 C73.55407288 78.19088791 73.55248169 79.16619965 73.55084229 80.17106628 C73.296875 82.50390625 73.296875 82.50390625 71.296875 84.50390625 C69.41095543 84.75000191 69.41095543 84.75000191 67.07015991 84.74441528 C66.18392441 84.74716461 65.2976889 84.74991394 64.38459778 84.75274658 C63.40996078 84.74555603 62.43532379 84.73836548 61.43115234 84.73095703 C59.8945269 84.73139511 59.8945269 84.73139511 58.32685852 84.73184204 C54.92875807 84.73044474 51.53087481 84.71486464 48.1328125 84.69921875 C45.78154622 84.69549005 43.43027839 84.6926424 41.07901001 84.69064331 C34.88114149 84.68299563 28.68336625 84.6633374 22.48553467 84.64123535 C16.16484845 84.62080134 9.84414721 84.61164683 3.5234375 84.6015625 C-8.88545772 84.58009258 -21.29428361 84.54594298 -33.703125 84.50390625 C-33.70899124 83.88718048 -33.71485748 83.27045471 -33.72090149 82.63504028 C-33.78516454 76.17762499 -33.86966681 69.72069299 -33.96557617 63.26367188 C-33.99869464 60.85846353 -34.02676667 58.45317991 -34.04956055 56.04785156 C-34.08334741 52.57714966 -34.13567595 49.10712952 -34.19140625 45.63671875 C-34.19779617 44.57276886 -34.2041861 43.50881897 -34.21076965 42.41262817 C-34.32719992 36.41115275 -35.04770476 31.38904765 -37.16252136 25.75314331 C-37.99480024 22.29036141 -37.30292734 19.59640337 -35.609375 16.51171875 C-25.98293047 3.62297913 -15.66196963 0.04165083 0 0 Z " fill="#FEE458" transform="translate(374.703125,393.49609375)"/>
<path d="M0 0 C1.31704926 -0.00241196 2.63409851 -0.00482391 3.99105835 -0.00730896 C6.75965829 -0.01014544 9.52743957 0.004323 12.29589844 0.03198242 C15.8207109 0.06613067 19.34406875 0.06000516 22.8689518 0.04131985 C26.2669421 0.02813594 29.66451981 0.04648443 33.0625 0.0625 C34.94251205 0.0550602 34.94251205 0.0550602 36.86050415 0.04747009 C47.74676856 0.19294407 55.84870122 3.23870719 63.8984375 10.62890625 C67.59477605 14.71898521 70.18363788 18.0671541 70.8984375 23.62890625 C70.35783386 25.87814331 70.35783386 25.87814331 69.49291992 28.18310547 C67.5805559 34.07574672 67.42370211 39.60382901 67.38671875 45.76171875 C67.35979195 47.43849197 67.35979195 47.43849197 67.33232117 49.1491394 C67.27857765 52.68402447 67.24443784 56.21877732 67.2109375 59.75390625 C67.17773272 62.16538284 67.14324019 64.57684206 67.10742188 66.98828125 C67.02287214 72.8683709 66.95437161 78.74847845 66.8984375 84.62890625 C53.24269355 84.67516704 39.58696812 84.71074354 25.93116188 84.73253059 C19.5907986 84.74298521 13.25048876 84.75717494 6.91015625 84.77978516 C0.79586636 84.8014538 -5.31837199 84.81346222 -11.4326973 84.81866074 C-13.76998329 84.82236727 -16.10726633 84.82960477 -18.44453049 84.84036636 C-21.70836317 84.85480181 -24.97198058 84.85688753 -28.23583984 84.85595703 C-29.21047684 84.86314758 -30.18511383 84.87033813 -31.18928528 84.87774658 C-32.51863853 84.87362259 -32.51863853 84.87362259 -33.87484741 84.86941528 C-34.64730993 84.87125887 -35.41977245 84.87310246 -36.21564293 84.87500191 C-38.1015625 84.62890625 -38.1015625 84.62890625 -40.1015625 82.62890625 C-40.38917542 80.35662842 -40.38917542 80.35662842 -40.43969727 77.48339844 C-40.46214005 76.40757507 -40.48458282 75.33175171 -40.50770569 74.22332764 C-40.5193425 73.05263733 -40.53097931 71.88194702 -40.54296875 70.67578125 C-40.56362648 68.86536346 -40.56362648 68.86536346 -40.58470154 67.01837158 C-40.60802805 64.45272431 -40.62526554 61.88701571 -40.63696289 59.32128906 C-40.66367226 55.43567809 -40.73848696 51.55288323 -40.81445312 47.66796875 C-40.96725448 33.17004755 -40.90187524 21.90464623 -31.26098633 10.44018555 C-22.41047726 1.75489503 -11.95637786 -0.1268879 0 0 Z " fill="#6A7DD8" transform="translate(104.1015625,393.37109375)"/>
<path d="M0 0 C1.73448022 0.00747334 3.46896896 0.0131611 5.20346069 0.01715088 C9.73769009 0.03232129 14.27139554 0.07152735 18.80541992 0.1159668 C23.44442663 0.15710646 28.08351915 0.17520157 32.72265625 0.1953125 C41.80231177 0.23803129 50.88158083 0.30617656 59.9609375 0.390625 C59.9609375 0.720625 59.9609375 1.050625 59.9609375 1.390625 C59.38988281 1.38316757 58.81882812 1.37571014 58.23046875 1.36802673 C52.25959912 1.29894554 46.29099908 1.29323144 40.31982422 1.32348633 C38.09485334 1.32655905 35.86979932 1.31374466 33.64501953 1.28442383 C21.33223637 0.70886232 21.33223637 0.70886232 9.81640625 4.11376953 C7.53578256 6.51656949 6.31229727 8.36049582 4.9609375 11.390625 C4.63695071 12.07208179 4.31296392 12.75353857 3.97915936 13.45564556 C1.03125678 20.08908761 0.37199867 25.7447226 0.39575195 32.95214844 C0.3839238 34.06253479 0.37209564 35.17292114 0.35990906 36.31695557 C0.3272054 39.9615087 0.32406477 43.60531014 0.32421875 47.25 C0.31389251 49.80292052 0.30282802 52.35583815 0.2910614 54.90875244 C0.27166641 60.25143193 0.2679688 65.59383723 0.2746582 70.93652344 C0.2818881 77.07740284 0.24852219 83.21713118 0.19560081 89.35776114 C0.1462326 95.30475615 0.13634288 101.25140334 0.14104271 107.19861603 C0.13818583 109.71022556 0.12423208 112.22184976 0.09856606 114.73332977 C-0.10751493 135.96306555 -0.10751493 135.96306555 10.20698547 153.94158936 C18.18075371 161.94462031 28.28781067 164.36451128 39.2109375 164.953125 C40.32855469 165.01790039 40.32855469 165.01790039 41.46875 165.08398438 C43.2992865 165.18959225 45.13008926 165.29056701 46.9609375 165.390625 C46.57856934 165.97763184 46.19620117 166.56463867 45.80224609 167.16943359 C41.793066 173.54841245 39.0260372 179.90420603 36.5859375 187.015625 C36.05419922 188.52189453 36.05419922 188.52189453 35.51171875 190.05859375 C34.65163881 192.49936115 33.80160548 194.94311876 32.9609375 197.390625 C32.3009375 197.390625 31.6409375 197.390625 30.9609375 197.390625 C30.71972168 196.70548828 30.47850586 196.02035156 30.22998047 195.31445312 C29.11295812 192.16788136 27.97465812 189.02940619 26.8359375 185.890625 C26.45695312 184.81296875 26.07796875 183.7353125 25.6875 182.625 C22.05384187 172.69300111 17.78643851 165.05051335 7.9609375 160.390625 C2.54682727 158.08881766 -2.50785322 158.11578561 -8.2890625 158.015625 C-18.90359919 157.6618375 -27.37799311 156.2298588 -35.0390625 148.390625 C-40.92737933 140.46846057 -42.33953188 133.43525838 -42.36132812 123.71044922 C-42.37125793 122.64620224 -42.38118774 121.58195526 -42.39141846 120.48545837 C-42.42057551 116.97204985 -42.43425245 113.45882204 -42.4453125 109.9453125 C-42.45682421 107.49398802 -42.46833956 105.04266356 -42.4798584 102.59133911 C-42.50085504 97.45183476 -42.51255506 92.31239275 -42.51953125 87.17285156 C-42.53048428 80.60924876 -42.57851263 74.04647917 -42.63547516 67.48313713 C-42.67285471 62.41797536 -42.68314588 57.35301155 -42.686203 52.28772354 C-42.69223056 49.86934997 -42.70820108 47.45097883 -42.73457336 45.03274155 C-42.99329553 19.48109777 -42.99329553 19.48109777 -34.23010254 9.28610229 C-24.4386287 -0.27553269 -12.85046364 -0.16361598 0 0 Z " fill="#4C65D0" transform="translate(57.0390625,37.609375)"/>
<path d="M0 0 C25.08 0 50.16 0 76 0 C76 0.33 76 0.66 76 1 C64.45 1 52.9 1 41 1 C41.66 2.98 42.32 4.96 43 7 C43.25726891 9.71661472 43.25726891 9.71661472 43.26742554 12.53138733 C43.27595551 13.60627411 43.28448547 14.68116089 43.29327393 15.78862 C43.29236755 16.95287003 43.29146118 18.11712006 43.29052734 19.31665039 C43.29724457 20.55485535 43.30396179 21.7930603 43.31088257 23.06878662 C43.32659996 26.45563509 43.33323632 29.84223823 43.33451414 33.22910619 C43.3359397 35.35092854 43.34021712 37.47272552 43.34550858 39.59454155 C43.36400032 47.01413467 43.37218099 54.43365609 43.37060547 61.85327148 C43.36940695 68.74015288 43.39045428 75.62671942 43.4220928 82.51352125 C43.44837038 88.44756909 43.45896786 94.3815149 43.45769465 100.31562036 C43.45718802 103.85006853 43.46270257 107.38423721 43.48405075 110.91862679 C43.50727614 114.87173493 43.49784248 118.82442298 43.48583984 122.77758789 C43.49707886 123.9276683 43.50831787 125.07774872 43.51989746 126.26268005 C43.41458097 140.00477474 39.36646752 151.35973457 29.79296875 161.2890625 C25.48626956 165.32430024 21.59088611 168.09671962 16 170 C15.319375 169.0925 14.63875 168.185 13.9375 167.25 C8.17347035 160.44234381 1.5003738 159.16822497 -7 158 C-5.46258557 154.070286 -3.73317063 150.27639188 -1.90234375 146.4765625 C0.75208723 139.19124112 0.13538092 131.26361867 0.11352539 123.62915039 C0.11324298 122.27838137 0.11340231 120.92761219 0.1139679 119.57684326 C0.11425377 115.92653416 0.10839106 112.2762582 0.10139394 108.62595677 C0.09512536 104.80495578 0.09455383 100.98395395 0.09336853 97.16294861 C0.09026553 89.93477551 0.08206607 82.70661761 0.07201904 75.47845119 C0.05873122 65.70576711 0.05334966 55.93307884 0.04751682 46.16038799 C0.03812547 30.77358062 0.01819966 15.38680531 0 0 Z " fill="#FCD200" transform="translate(395,38)"/>
<path d="M0 0 C8.63067261 6.22140358 14.75705275 13.95146807 17.375 24.375 C18.69587661 36.15768696 17.22360937 46.40863766 10.125 56.1875 C6.65584778 60.32095797 2.94912285 63.52483633 -1.625 66.375 C-2.24375 66.78878906 -2.8625 67.20257813 -3.5 67.62890625 C-11.63206035 72.18730727 -22.52342362 71.3877445 -31.47265625 69.90234375 C-40.82956775 67.14642802 -48.88772639 60.72713172 -53.80859375 52.36328125 C-58.89248869 42.58656022 -60.43065733 32.21319431 -57.9375 21.390625 C-53.51961514 9.53596728 -45.1145327 1.7848671 -33.95703125 -3.64453125 C-22.93747638 -8.27754343 -9.96559624 -6.1222093 0 0 Z " fill="#FDCCBC" transform="translate(276.625,306.625)"/>
<path d="M0 0 C1.60488281 0.00483398 1.60488281 0.00483398 3.2421875 0.00976562 C4.35335937 0.01814453 5.46453125 0.02652344 6.609375 0.03515625 C8.29933594 0.04192383 8.29933594 0.04192383 10.0234375 0.04882812 C12.80213717 0.06060228 15.58072909 0.07704785 18.359375 0.09765625 C13.75567388 4.74063809 13.75567388 4.74063809 11.5859375 6.6953125 C2.08008989 15.38968531 -2.94632052 26.90080144 -3.90948486 39.65901184 C-4.00154076 43.56902998 -4.00582653 47.47247447 -3.96875 51.3828125 C-3.96568343 52.81578878 -3.96381415 54.24876807 -3.96307373 55.68174744 C-3.95851194 58.65766132 -3.94423679 61.63329832 -3.921875 64.60913086 C-3.89336276 68.42218165 -3.88263556 72.23501798 -3.8781929 76.04816532 C-3.87304596 79.70140848 -3.85851866 83.35459798 -3.84375 87.0078125 C-3.84092892 88.04815486 -3.84092892 88.04815486 -3.83805084 89.10951424 C-3.8311828 91.06660579 -3.81665211 93.02366596 -3.80175781 94.98071289 C-3.79492981 96.09257462 -3.78810181 97.20443634 -3.78106689 98.34999084 C-3.75872484 101.18900422 -3.75872484 101.18900422 -2.640625 104.09765625 C-7.2669908 104.22142715 -11.89238961 104.31207141 -16.52001953 104.37231445 C-18.09343251 104.39743073 -19.66672912 104.43153097 -21.23974609 104.47485352 C-23.50387272 104.53564024 -25.76645522 104.56389207 -28.03125 104.5859375 C-29.08303436 104.62464714 -29.08303436 104.62464714 -30.15606689 104.66413879 C-33.68505167 104.66615693 -35.26910486 104.46260007 -37.82499695 101.95195007 C-39.95104953 98.60964725 -40.15164508 96.7929172 -40.17407227 92.86132812 C-40.1899086 91.62233765 -40.20574493 90.38334717 -40.22206116 89.10681152 C-40.21821629 87.76000594 -40.21317534 86.41320331 -40.20703125 85.06640625 C-40.21227402 83.66979561 -40.21855288 82.27318851 -40.22581482 80.87658691 C-40.23621477 77.94782884 -40.23167181 75.01955655 -40.21704102 72.09082031 C-40.19997334 68.37329914 -40.22319754 64.6573412 -40.25853062 60.93999481 C-40.28072545 58.05190157 -40.27900869 55.16416846 -40.2707653 52.27601624 C-40.26956633 50.25066066 -40.28932163 48.22532657 -40.30970764 46.20007324 C-40.17542849 32.65541197 -36.04552665 21.70192064 -26.609375 12.01171875 C-18.97850889 4.78389134 -10.64345052 -0.0566141 0 0 Z " fill="#1CA7FE" transform="translate(225.640625,392.90234375)"/>
<path d="M0 0 C7.71042313 4.66303273 14.23703926 12.21939842 16.4375 21.0625 C17.59555096 30.65260952 16.26877234 38.54511471 10.7421875 46.50390625 C5.19193406 53.32375207 -0.55569204 57.49261942 -9.40625 58.5 C-18.44308135 58.9361943 -26.52007853 58.03318729 -33.8046875 52.296875 C-40.08462026 46.45400715 -44.0968095 39.76530002 -44.80078125 31.14453125 C-45.04324585 20.46332767 -42.77408084 13.70959483 -35.5 5.85546875 C-26.22500334 -2.72764308 -11.7078123 -5.32339591 0 0 Z " fill="#FCAF9E" transform="translate(405.5625,319.9375)"/>
<path d="M0 0 C0.70253906 0.00829834 1.40507813 0.01659668 2.12890625 0.02514648 C11.99144893 0.34531452 18.40522976 4.44345343 25.125 11.4375 C31.14471553 19.19976476 32.01599665 26.86210565 31.125 36.4375 C29.00802534 45.47584093 23.65632087 52.34411117 15.9375 57.375 C8.8715486 61.62032721 0.12472006 61.31542006 -7.875 60.4375 C-16.66322367 58.08556025 -22.73437806 51.76945985 -27.2578125 44.08984375 C-30.81354123 36.44378373 -31.42988583 28.26644731 -28.83984375 20.22265625 C-25.0640795 11.88231905 -19.74443216 5.93286737 -11.58203125 1.75 C-7.61923665 0.34694522 -4.15377935 -0.06352721 0 0 Z " fill="#FCAF9E" transform="translate(119.875,317.5625)"/>
<path d="M0 0 C1.19044922 0.02255859 2.38089844 0.04511719 3.60742188 0.06835938 C6.5104822 0.12665376 9.41078237 0.20842118 12.3125 0.3125 C11.549375 1.06402344 10.78625 1.81554687 10 2.58984375 C-0.53038154 13.25797738 -4.442266 24.4775813 -4.39453125 39.390625 C-4.40965256 40.68321228 -4.42477386 41.97579956 -4.44035339 43.30755615 C-4.47977798 46.70069368 -4.49036577 50.09329389 -4.49438477 53.4866333 C-4.50379786 56.96651071 -4.54126097 60.44608278 -4.57617188 63.92578125 C-4.64031206 70.72131058 -4.67390837 77.51668615 -4.6875 84.3125 C-9.35057014 84.36187279 -14.01348873 84.39820627 -18.67675781 84.42236328 C-20.26369883 84.43243188 -21.85062125 84.44608767 -23.4375 84.46337891 C-25.71619247 84.48759001 -27.99464006 84.49897422 -30.2734375 84.5078125 C-30.98494965 84.51813507 -31.69646179 84.52845764 -32.42953491 84.53909302 C-34.18381665 84.53949422 -35.93746709 84.43452209 -37.6875 84.3125 C-40.25125429 81.74874571 -39.96294918 80.73198666 -40.02563477 77.16699219 C-40.04807755 76.09116882 -40.07052032 75.01534546 -40.09364319 73.90692139 C-40.10528 72.73623108 -40.11691681 71.56554077 -40.12890625 70.359375 C-40.14956398 68.54895721 -40.14956398 68.54895721 -40.17063904 66.70196533 C-40.19396555 64.13631806 -40.21120304 61.57060946 -40.22290039 59.00488281 C-40.24960976 55.11927184 -40.32442446 51.23647698 -40.40039062 47.3515625 C-40.55319198 32.8536413 -40.48781274 21.58823998 -30.84692383 10.1237793 C-22.07464531 1.51525895 -11.87545231 -0.43341067 0 0 Z " fill="#4D65D1" transform="translate(103.6875,393.6875)"/>
<path d="M0 0 C1.66289062 0.02030273 1.66289062 0.02030273 3.359375 0.04101562 C6.07343232 0.07611119 8.78645193 0.1252773 11.5 0.1875 C10.91448364 0.8530188 10.91448364 0.8530188 10.31713867 1.53198242 C7.24876011 5.05832794 4.36777235 8.57476812 1.8125 12.5 C1.25175781 13.34175781 0.69101562 14.18351562 0.11328125 15.05078125 C-4.32269808 23.67569989 -4.9193865 31.83451591 -4.79296875 41.4140625 C-4.78660149 43.25730606 -4.78660149 43.25730606 -4.78010559 45.13778687 C-4.7634279 49.0295889 -4.72579504 52.92085673 -4.6875 56.8125 C-4.67243911 59.46483623 -4.65875317 62.11718064 -4.64648438 64.76953125 C-4.6161231 71.24255462 -4.55737779 77.71443536 -4.5 84.1875 C-13.74 84.1875 -22.98 84.1875 -32.5 84.1875 C-32.53738281 80.62195313 -32.57476562 77.05640625 -32.61328125 73.3828125 C-32.65957985 69.90423683 -32.71078328 66.42576521 -32.76245117 62.94726562 C-32.79556964 60.54205728 -32.82364167 58.13677366 -32.84643555 55.73144531 C-32.88022241 52.26074341 -32.93255095 48.79072327 -32.98828125 45.3203125 C-32.99467117 44.25636261 -33.0010611 43.19241272 -33.00764465 42.09622192 C-33.12407492 36.0947465 -33.84457976 31.0726414 -35.95939636 25.43673706 C-36.79167524 21.97395516 -36.09980234 19.27999712 -34.40625 16.1953125 C-25.13566982 3.7830357 -15.19034879 -0.35432034 0 0 Z " fill="#FED400" transform="translate(373.5,393.8125)"/>
<path d="M0 0 C6.78729839 4.02456245 10.54677014 8.72145953 12.99609375 16.18359375 C14.35229546 24.48486067 12.89987957 31.3419263 7.99609375 38.18359375 C2.95592778 43.7619294 -1.73104012 46.65707944 -9.30078125 47.58984375 C-17.68817213 47.81755572 -23.64969575 46.93153095 -30.00390625 41.18359375 C-36.89541709 32.77003144 -37.7643325 25.82956124 -37.00390625 15.18359375 C-35.3614534 8.42547564 -30.50617048 4.12271473 -25.00390625 0.18359375 C-17.00185977 -4.49684853 -8.13256546 -4.18950342 0 0 Z " fill="#020304" transform="translate(336.00390625,94.81640625)"/>
<path d="M0 0 C5.75044076 3.57382765 10.37919771 8.96324532 12.36328125 15.46875 C13.36215176 23.87270859 13.27140261 31.24038409 8.2890625 38.375 C4.20695716 42.81315104 -1.49577164 47.25690921 -7.6484375 47.671875 C-18.11514947 47.8053506 -24.04223246 46.7215586 -31.8359375 39.47265625 C-37.0936506 33.62188224 -38.37764724 27.20012884 -38.08203125 19.46484375 C-36.98203635 12.0640009 -33.38693171 6.15614308 -27.44140625 1.65234375 C-18.7970739 -4.0169911 -9.35167713 -4.17618755 0 0 Z " fill="#020304" transform="translate(200.63671875,94.53125)"/>
<path d="M0 0 C6.25430606 3.78332314 9.96053992 7.43865696 12.40625 14.46875 C14.11673158 21.67503928 14.2497707 28.9378862 10.390625 35.4375 C6.05186666 41.37609549 1.48351692 45.90468137 -5.93359375 47.25 C-13.26912569 48.01358169 -20.08693502 48.49306209 -26.1875 43.875 C-31.82702522 38.62658279 -36.39583554 33.93698737 -37.3046875 26.015625 C-37.47447723 17.02675691 -36.47255966 11.14475183 -30.2890625 4.4765625 C-21.60171269 -3.56364838 -10.61466963 -5.46873855 0 0 Z " fill="#010203" transform="translate(267.93359375,94.75)"/>
<path d="M0 0 C1.11246094 -0.00257813 2.22492188 -0.00515625 3.37109375 -0.0078125 C6.22627492 0.11100777 8.78757946 0.47146731 11.5625 1.125 C11.5625 1.455 11.5625 1.785 11.5625 2.125 C10.7375 2.269375 9.9125 2.41375 9.0625 2.5625 C0.71937347 6.28711006 -4.18673799 14.8846963 -7.4375 23.125 C-11.30555569 34.71554715 -10.64687849 47.09517223 -5.4375 58.125 C-1.1858864 66.05173721 3.1158647 71.16057646 10.5625 76.125 C-3.56074495 76.53635665 -13.98593804 76.32946301 -25.4375 67.125 C-32.27545663 60.65173439 -36.9265928 51.80438701 -37.7734375 42.390625 C-38.04638086 30.26114219 -35.65173646 21.28931682 -27.4375 12.125 C-19.96026005 4.3538145 -10.75122351 -0.02485832 0 0 Z " fill="#FCAF9E" transform="translate(255.4375,300.875)"/>
<path d="M0 0 C6.62380016 1.22816295 11.16296407 6.57228643 14.84375 11.8671875 C19.46450676 20.08428796 20.43590035 27.66892935 18.3046875 36.8515625 C15.75647465 44.26663233 10.84199302 50.32001221 4.49609375 54.87890625 C1.62627075 56.27657577 0.08149234 56.64984799 -3.0625 56.125 C-9.50824704 51.20693521 -13.53185872 42.9784772 -15.0625 35.125 C-16.0137947 22.88292887 -14.17940864 13.34062968 -6.4296875 3.68359375 C-3.3172345 0.13539733 -3.3172345 0.13539733 0 0 Z " fill="#FCCCBC" transform="translate(403.0625,319.875)"/>
<path d="M0 0 C5.91466284 1.04157585 10.14038313 5.90426665 14 10.1875 C19.03716294 17.84873473 19.71559686 25.2323164 19 34.1875 C17.01560835 42.74668325 11.90135362 49.50828058 4.875 54.6875 C0.27421555 57.08790928 0.27421555 57.08790928 -3 56.1875 C-10.47289603 49.76275043 -14.29134433 40.23110792 -15.2578125 30.625 C-15.72530409 19.65453063 -11.59921006 10.76647308 -5 2.1875 C-3 0.1875 -3 0.1875 0 0 Z " fill="#FDCCBC" transform="translate(132,319.8125)"/>
<path d="M0 0 C4.42910272 -0.04973511 8.85805397 -0.08587704 13.28735352 -0.10986328 C14.79161413 -0.11987124 16.29585553 -0.1334818 17.80004883 -0.15087891 C19.97221643 -0.17535809 22.14412504 -0.18653523 24.31640625 -0.1953125 C25.62037354 -0.20578613 26.92434082 -0.21625977 28.26782227 -0.22705078 C32.21298432 0.01295711 35.26462372 0.77812819 39 2 C38.52691406 2.86496094 38.05382812 3.72992188 37.56640625 4.62109375 C31.040645 16.9252898 26.50642684 29.84576523 22 43 C21.34 43 20.68 43 20 43 C19.69819824 42.1435791 19.39639648 41.2871582 19.08544922 40.40478516 C17.94221161 37.17730728 16.78924513 33.95363758 15.62988281 30.73193359 C15.13353264 29.34658365 14.64090744 27.95989243 14.15234375 26.57177734 C9.17293188 12.06112303 9.17293188 12.06112303 0 0 Z " fill="#1CA6FC" transform="translate(235,211)"/>
<path d="M0 0 C4.42610196 0.36279524 6.39743509 1.54792364 9.8125 4.3125 C11.41336627 7.51423254 11.31167089 10.83827059 10.8125 14.3125 C9.01886089 17.1225346 7.79369065 18.82190468 4.8125 20.3125 C1.7296447 20.79097852 -1.11097221 20.8588489 -4.1875 20.3125 C-7.36207096 17.7210135 -8.73330349 16.23814305 -9.66015625 12.30859375 C-9.96036653 8.25190613 -9.33871947 6.49473885 -6.75 3.375 C-5.904375 2.694375 -5.05875 2.01375 -4.1875 1.3125 C-3.1875 0.3125 -3.1875 0.3125 0 0 Z " fill="#D6E7F9" transform="translate(255.1875,106.6875)"/>
<path d="M0 0 C3.5386994 1.65139305 4.81070153 2.71605229 7 6 C7.46229036 10.99273591 7.08578614 13.99990685 4 18 C-0.01544992 20.67696661 -3.28325925 20.92517507 -8 20 C-11.16664776 17.41498142 -12.5764456 15.94003044 -13.4375 11.99609375 C-13.66167019 8.30429097 -13.10710782 6.16780225 -11.125 3.0625 C-7.50882222 -0.44731961 -4.97588405 -0.33734807 0 0 Z " fill="#D6E8F9" transform="translate(327,107)"/>
<path d="M0 0 C3.95403662 0.26360244 5.65370756 0.86143155 8.75 3.25 C11.20665197 6.93497796 11.45086491 9.96971786 10.75 14.25 C8.95636089 17.0600346 7.73119065 18.75940468 4.75 20.25 C-2.31187625 20.82884232 -2.31187625 20.82884232 -6.1875 18.4375 C-8.85534627 15.60796607 -9.1981301 13.7168291 -9.625 9.875 C-9.15483407 5.33006265 -7.69437428 4.10631038 -4.25 1.25 C-3.25 0.25 -3.25 0.25 0 0 Z " fill="#D6E8FA" transform="translate(187.25,106.75)"/>
</svg>
