<?xml version="1.0" encoding="UTF-8"?>
<svg version="1.1" xmlns="http://www.w3.org/2000/svg" width="512" height="512">
<path d="M0 0 C3.49165136 2.54373159 6.89670913 5.18891612 10.28271484 7.87109375 C12.61114694 9.71193573 14.96594537 11.51618618 17.32470703 13.31787109 C18.91685644 14.53522532 20.50412071 15.75866455 22.08984375 16.984375 C25.30110625 19.46562379 28.51710771 21.94061085 31.734375 24.4140625 C34.93816805 26.87804016 38.14153447 29.34256596 41.34375 31.80859375 C48.18792575 37.07792807 55.0446659 42.3305411 61.90795898 47.57495117 C67.48078599 51.83444081 73.04223319 56.10846792 78.59765625 60.390625 C80.79924 62.08013668 83.01265294 63.75124378 85.234375 65.4140625 C85.23651253 64.17164543 85.23651253 64.17164543 85.23869324 62.90412903 C85.25653671 55.09113288 85.29818964 47.27870232 85.36646557 39.46597767 C85.40072937 35.44949212 85.4258445 31.43338666 85.42993164 27.41674805 C85.43421607 23.53900477 85.46268905 19.66211881 85.50780678 15.78464317 C85.52077746 14.30675949 85.52509092 12.82877318 85.52052879 11.35083961 C85.51561894 9.27698303 85.54172307 7.20562861 85.57495117 5.13208008 C85.58161301 3.95293533 85.58827484 2.77379059 85.59513855 1.55891418 C86.4445686 -2.62002698 87.81640553 -4.07876987 91.234375 -6.5859375 C94.45947266 -7.22085571 94.45947266 -7.22085571 98.1484375 -7.23291016 C98.82388611 -7.24167175 99.49933472 -7.25043335 100.19525146 -7.25946045 C102.41728882 -7.28138119 104.63731916 -7.26693097 106.859375 -7.25 C108.40967184 -7.25337032 109.95996609 -7.25822474 111.51025391 -7.26449585 C114.7551394 -7.27185713 117.99933545 -7.26118676 121.24414062 -7.23779297 C125.3973783 -7.20930432 129.54900051 -7.22571248 133.70217896 -7.25565529 C136.90222277 -7.27374918 140.10188543 -7.26796095 143.30194092 -7.25501633 C144.83290805 -7.25168803 146.36391012 -7.25574919 147.89483643 -7.26741409 C150.0375899 -7.28015897 152.17775149 -7.26070243 154.3203125 -7.23291016 C155.5376709 -7.22893219 156.7550293 -7.22495422 158.00927734 -7.22085571 C161.234375 -6.5859375 161.234375 -6.5859375 164.1431427 -4.8129425 C167.38523325 0.18996532 166.7911573 4.86338717 166.6081543 10.69311523 C166.58050995 12.56242455 166.58050995 12.56242455 166.55230713 14.46949768 C166.51094501 17.17714073 166.46091986 19.88318103 166.39804649 22.59026909 C166.3018006 26.88319821 166.25800757 31.17567317 166.22505188 35.46949768 C166.12560546 47.67796305 165.99687419 59.88461979 165.72387695 72.09057617 C165.57344016 78.83592384 165.48849706 85.57884172 165.47510082 92.32589108 C165.465239 95.89077868 165.42280552 99.44830363 165.29886436 103.01119804 C164.30904108 117.58293992 164.30904108 117.58293992 168.94641495 130.92473221 C173.0447335 135.1960176 177.70453457 138.19737692 182.86512184 141.03453255 C186.87370874 143.36858692 190.42221891 146.28370419 194.046875 149.1640625 C195.44709217 150.23845428 196.84915845 151.31044501 198.25390625 152.37890625 C198.92244629 152.88921387 199.59098633 153.39952148 200.27978516 153.92529297 C202.14099172 155.34293444 204.00562437 156.75594405 205.87109375 158.16796875 C228.80565011 175.56659771 228.80565011 175.56659771 232.234375 190.4140625 C233.54689126 202.78441876 232.46826065 213.86041777 225.046875 224.1640625 C218.2344525 232.2492943 209.92944424 238.47710267 199.16357422 239.63720703 C186.32639501 240.52763107 177.07646307 238.64212122 166.234375 231.4140625 C166.234375 275.9640625 166.234375 320.5140625 166.234375 366.4140625 C171.184375 367.8990625 171.184375 367.8990625 176.234375 369.4140625 C190.72427933 375.57600635 201.93069522 387.14844718 208.046875 401.6015625 C209.10073592 404.28474787 210.09273732 406.94247342 210.921875 409.703125 C212.52144973 414.88174817 214.94236489 417.06742929 219.109375 420.453125 C227.31111317 428.02164074 231.92759796 439.21323975 232.61328125 450.19921875 C233.1960953 466.58311376 229.32222634 479.81617774 218.046875 492.1640625 C205.31325638 504.04115969 191.27786246 505.86497913 174.71218872 505.80174255 C172.93019331 505.80591922 171.14820057 505.81139857 169.36621273 505.81806237 C164.48644038 505.83249193 159.6068373 505.82828001 154.72705579 505.82089555 C149.45767976 505.81616003 144.18834014 505.82867714 138.91897583 505.83891296 C128.60243317 505.85609876 118.28595142 505.85694141 107.96939816 505.85170006 C99.58300512 505.84765671 91.19663007 505.84910388 82.81023788 505.85444832 C81.01903316 505.85557095 81.01903316 505.85557095 79.19164249 505.85671626 C76.7656626 505.85824776 74.33968271 505.85978611 71.91370283 505.86133123 C49.16930216 505.87505549 26.4249359 505.8696191 3.68053602 505.85814602 C-17.12003781 505.84821381 -37.92052268 505.86115426 -58.72108279 505.88508021 C-80.08774105 505.90947184 -101.45435788 505.91907891 -122.82102978 505.91242748 C-134.81333892 505.9089354 -146.80557966 505.91116666 -158.79787827 505.92867851 C-169.00665522 505.94340125 -179.21531558 505.94403491 -189.42409025 505.9266076 C-194.63065449 505.9180959 -199.83701047 505.91595239 -205.04356384 505.93125916 C-209.81431935 505.94511087 -214.58468826 505.94033671 -219.35542144 505.92101992 C-221.07672325 505.91726111 -222.79805607 505.92017841 -224.51933025 505.93063157 C-240.84680861 506.0226978 -254.16852948 502.50119315 -266.515625 491.2265625 C-277.64904036 479.29025661 -280.56834694 466.00550174 -280.109375 450.26953125 C-279.54043355 439.7258271 -275.32512777 430.62948671 -268.765625 422.4140625 C-267.2539412 421.12796445 -265.71164586 419.8769638 -264.140625 418.6640625 C-259.50013233 414.84802284 -258.12377844 410.6186857 -256.49853516 405.05493164 C-252.38212438 390.98789618 -242.31217258 379.76248754 -229.765625 372.4140625 C-224.44478221 369.65696361 -219.66353908 367.59364532 -213.765625 366.4140625 C-213.765625 321.8640625 -213.765625 277.3140625 -213.765625 231.4140625 C-217.065625 233.3940625 -220.365625 235.3740625 -223.765625 237.4140625 C-229.08177715 239.43013332 -233.96311136 239.76820366 -239.578125 239.7265625 C-240.37275146 239.72092285 -241.16737793 239.7152832 -241.98608398 239.70947266 C-252.9615214 239.48289745 -261.29061314 236.28572099 -269.484375 228.85546875 C-278.51678719 219.24700987 -280.25288828 207.58975329 -280.0390625 194.9765625 C-279.63056248 185.12402735 -275.54455635 177.43727966 -268.765625 170.4140625 C-262.15329292 164.37588371 -255.01783498 159.01815752 -247.828125 153.69140625 C-244.63627876 151.31787773 -241.47750844 148.90591173 -238.328125 146.4765625 C-237.78808838 146.06019531 -237.24805176 145.64382812 -236.69165039 145.21484375 C-235.59652331 144.37015713 -234.50155292 143.52526733 -233.40673828 142.68017578 C-230.15604847 140.17227972 -226.90055456 137.67062054 -223.64526367 135.16870117 C-220.90853266 133.06475939 -218.17446237 130.95751904 -215.4453125 128.84375 C-193.67111087 111.9979843 -193.67111087 111.9979843 -185.765625 112.4140625 C-184.280625 113.4040625 -184.280625 113.4040625 -182.765625 114.4140625 C-179.64359914 114.0688422 -177.77272799 112.87969459 -175.3828125 110.91015625 C-174.77308594 110.41708984 -174.16335937 109.92402344 -173.53515625 109.41601562 C-172.90996094 108.89974609 -172.28476563 108.38347656 -171.640625 107.8515625 C-165.02398931 102.4140625 -165.02398931 102.4140625 -162.765625 102.4140625 C-163.095625 101.7540625 -163.425625 101.0940625 -163.765625 100.4140625 C-164.38056104 95.45065014 -164.50157279 91.64064215 -161.890625 87.2890625 C-157.55110053 84.68534782 -153.71697462 84.64921988 -148.765625 85.4140625 C-146.45703125 86.44140625 -146.45703125 86.44140625 -144.765625 87.4140625 C-142.49284651 85.64567871 -140.22236536 83.8744764 -137.953125 82.1015625 C-137.31052734 81.60205078 -136.66792969 81.10253906 -136.00585938 80.58789062 C-135.38388672 80.10126953 -134.76191406 79.61464844 -134.12109375 79.11328125 C-133.55028076 78.66815186 -132.97946777 78.22302246 -132.39135742 77.7644043 C-131.58661987 77.09598511 -131.58661987 77.09598511 -130.765625 76.4140625 C-130.19110596 75.94331299 -129.61658691 75.47256348 -129.0246582 74.98754883 C-128.60917725 74.46829834 -128.19369629 73.94904785 -127.765625 73.4140625 C-128.1601283 69.83464552 -128.1601283 69.83464552 -128.734375 67.546875 C-128.78015518 64.42237797 -127.58962592 62.91129981 -125.765625 60.4140625 C-123.6640625 58.4140625 -123.6640625 58.4140625 -121.140625 56.4140625 C-120.16609375 55.63933594 -119.1915625 54.86460938 -118.1875 54.06640625 C-112.09556437 49.32722802 -105.96019228 44.64496215 -99.81542969 39.97460938 C-96.87428114 37.73546913 -93.94396245 35.48241693 -91.015625 33.2265625 C-89.97921875 32.42863281 -88.9428125 31.63070312 -87.875 30.80859375 C-86.84890625 30.01839844 -85.8228125 29.22820313 -84.765625 28.4140625 C-83.68756117 27.58455591 -82.60943544 26.75512977 -81.53125 25.92578125 C-80.99290527 25.51166992 -80.45456055 25.09755859 -79.89990234 24.67089844 C-78.8118315 23.83412092 -77.72361571 22.99753185 -76.63525391 22.16113281 C-73.94814281 20.09561267 -71.26394662 18.02652982 -68.5859375 15.94921875 C-65.89839871 13.86586173 -63.19918237 11.79836091 -60.49414062 9.73779297 C-59.29603677 8.82026202 -58.10230652 7.8970026 -56.91210938 6.96923828 C-39.93840372 -6.24649934 -19.42075335 -13.65249974 0 0 Z M-99.765625 425.4140625 C-99.765625 427.0640625 -99.765625 428.7140625 -99.765625 430.4140625 C-98.01400074 432.25734055 -98.01400074 432.25734055 -95.640625 433.7265625 C-92.2164447 436.01511398 -90.41093097 438.00099067 -88.34153748 441.48191833 C-86.4315144 444.04360725 -85.37397056 445.22823306 -82.29307747 446.16934395 C-79.17096622 446.46389218 -76.13228113 446.50646617 -72.99633789 446.46508789 C-71.22698631 446.48852516 -71.22698631 446.48852516 -69.42189026 446.51243591 C-66.19787358 446.54577065 -62.97647748 446.54319889 -59.75243306 446.5215981 C-57.05608601 446.5083726 -54.36009879 446.5205364 -51.66376585 446.53280348 C-45.29999309 446.56158552 -38.93718611 446.55008018 -32.57348633 446.51196289 C-26.01979653 446.47328333 -19.46842266 446.49614896 -12.91489607 446.55049139 C-7.27715819 446.59541868 -1.64012857 446.60514814 3.99775702 446.58622164 C7.3602127 446.57508583 10.72142256 446.57632019 14.08375359 446.61015511 C17.83605394 446.63776631 21.58365467 446.60773284 25.33569336 446.56274414 C26.44189026 446.58253326 27.54808716 446.60232239 28.68780518 446.62271118 C34.56498929 446.51591965 34.56498929 446.51591965 39.36749458 443.44817924 C41.21840421 441.10031869 41.21840421 441.10031869 42.68808842 438.65981197 C44.84239934 435.53099828 47.53641128 433.86214645 50.73046875 431.8984375 C51.22675781 431.40859375 51.72304688 430.91875 52.234375 430.4140625 C52.234375 428.7640625 52.234375 427.1140625 52.234375 425.4140625 C2.074375 425.4140625 -48.085625 425.4140625 -99.765625 425.4140625 Z " fill="#010000" transform="translate(279.765625,6.5859375)"/>
<path d="M0 0 C3.24270883 1.25516471 5.75219792 3.52439587 8.41674805 5.70361328 C9.67405355 6.71205821 10.93187751 7.71985705 12.19018555 8.72705078 C12.82408203 9.23719727 13.45797852 9.74734375 14.11108398 10.27294922 C16.89247875 12.49602951 19.71414816 14.66480576 22.54174805 16.82861328 C23.61598509 17.65280818 24.69020384 18.47702694 25.7644043 19.30126953 C26.55935303 19.91059326 26.55935303 19.91059326 27.37036133 20.53222656 C30.07574616 22.60703915 32.77728971 24.68684181 35.47924805 26.76611328 C36.56256323 27.59947021 37.64589656 28.43280355 38.72924805 29.26611328 C71.22924805 54.26611328 103.72924805 79.26611328 136.22924805 104.26611328 C137.0339856 104.88510498 137.0339856 104.88510498 137.85498047 105.51660156 C138.93596926 106.34818139 140.01686153 107.1798867 141.09765625 108.01171875 C143.8410747 110.1229312 146.58624723 112.23179219 149.3347168 114.33642578 C149.89288086 114.76439453 150.45104492 115.19236328 151.02612305 115.63330078 C152.55554718 116.80585929 154.08572748 117.97743131 155.6159668 119.14892578 C156.12573877 119.56049423 156.63551075 119.97206268 157.16073036 120.39610291 C159.03832743 121.8604248 159.03832743 121.8604248 161.45528221 123.25245667 C165.57177839 125.96379753 168.48267422 128.05125331 169.8885231 132.90618896 C170.21002368 136.80285337 170.21845239 140.6335345 170.11450195 144.53564453 C170.11167762 146.02448841 170.11327159 147.51334619 170.118927 149.00218201 C170.12178567 153.02554186 170.06318184 157.04589444 169.99318743 161.06855774 C169.9304887 165.27910936 169.92478584 169.48973718 169.91293335 173.70068359 C169.88190525 181.66613019 169.79991999 189.63019721 169.69943845 197.59503746 C169.58749494 206.66619709 169.53264012 215.73742413 169.4824841 224.80910301 C169.37807954 243.46222068 169.20229502 262.1140559 168.97924805 280.76611328 C167.24179321 281.25966309 167.24179321 281.25966309 165.46923828 281.76318359 C163.92953407 282.20661841 162.38990591 282.65031731 160.8503418 283.09423828 C160.08927124 283.30967285 159.32820068 283.52510742 158.54406738 283.74707031 C149.59549707 286.34029995 142.75008045 289.844333 136.22924805 296.57861328 C131.01827531 301.54144446 126.70556264 301.5442929 119.72143555 301.62158203 C109.74148472 302.00702898 100.73026498 306.67915648 92.97924805 312.76611328 C92.50467887 313.40141181 92.03010969 314.03671034 91.54115963 314.69126034 C88.57401585 318.43469047 86.27079114 320.48335936 81.52995491 321.5212574 C77.14380754 321.81585894 72.8178024 321.86035718 68.42480469 321.81713867 C66.74363992 321.8296293 65.06249741 321.84550198 63.38139343 321.86448669 C58.83137273 321.90511541 54.28277759 321.89524113 49.73267674 321.87364888 C45.92799766 321.86042899 42.12357387 321.87258456 38.31890482 321.88485426 C29.3402875 321.9136402 20.36235469 321.90212327 11.38378906 321.86401367 C2.13443352 321.82533075 -7.11328116 321.84820728 -16.36252111 321.90254217 C-24.31702987 321.94745229 -32.27103653 321.95720439 -40.22564989 321.93827242 C-44.97075856 321.92713154 -49.71498429 321.92839582 -54.46000481 321.96220589 C-58.92350023 321.99221533 -63.38476007 321.9780085 -67.84808159 321.93042946 C-69.48103038 321.92017148 -71.11415925 321.92506118 -72.74699783 321.94662857 C-85.08893244 322.09581059 -85.08893244 322.09581059 -89.87045479 318.80462456 C-92.24708557 316.40525818 -92.24708557 316.40525818 -94.14415836 314.02406979 C-99.1470419 308.00449608 -108.4858945 303.45102276 -116.28173828 302.48632812 C-117.8442733 302.39608406 -119.4075152 302.31740484 -120.97119141 302.24975586 C-129.69850464 301.85869208 -134.46157859 300.7455269 -140.5871582 294.15283203 C-147.12435145 287.74155583 -155.53202908 284.99414522 -164.27563477 283.171875 C-165.53821106 282.90704315 -166.80078735 282.6422113 -168.10162354 282.36935425 C-169.06493591 282.17028473 -170.02824829 281.97121521 -171.02075195 281.76611328 C-171.30145502 262.12087586 -171.51286753 242.47604698 -171.64249802 222.82921791 C-171.70429659 213.70610013 -171.78849776 204.58423049 -171.92602539 195.46191406 C-172.04588172 187.5079365 -172.12310762 179.55486296 -172.14981389 171.60000741 C-172.16541952 167.38993068 -172.20190688 163.18243933 -172.28951263 158.97319412 C-172.37143519 155.00457782 -172.39600534 151.03959108 -172.37804413 147.0702095 C-172.38132559 145.61968184 -172.40493791 144.16902355 -172.45121765 142.71923065 C-172.64171822 136.4394706 -172.657659 131.68576806 -168.46640778 126.77054977 C-165.52054074 124.13705754 -162.31089911 121.95107723 -159.02075195 119.76611328 C-157.03455033 118.27544101 -155.05434604 116.77670548 -153.08325195 115.26611328 C-152.09325195 114.53263672 -151.10325195 113.79916016 -150.08325195 113.04345703 C-146.89140571 110.66992851 -143.7326354 108.25796251 -140.58325195 105.82861328 C-140.04321533 105.41224609 -139.50317871 104.99587891 -138.94677734 104.56689453 C-137.85165026 103.72220791 -136.75667987 102.87731811 -135.66186523 102.03222656 C-132.9505307 99.94044125 -130.23548233 97.85348828 -127.52075195 95.76611328 C-124.31697655 93.30211265 -121.1135925 90.83760983 -117.91137695 88.37158203 C-111.06058371 83.09715291 -104.19691287 77.83985781 -97.32739258 72.58984375 C-90.88128101 67.66225937 -84.44922453 62.71668324 -78.02075195 57.76611328 C-76.39923211 56.51844932 -74.77752761 55.27102576 -73.15576172 54.02368164 C-72.06503153 53.18474612 -70.97437407 52.34571604 -69.88378906 51.5065918 C-67.23917479 49.47181679 -64.59361809 47.43830025 -61.9465332 45.40673828 C-57.20723634 41.76752915 -52.47305151 38.12275406 -47.76293945 34.44580078 C-39.23832693 27.79122838 -30.68041901 21.19337656 -21.99731445 14.74658203 C-19.16892301 12.64188036 -16.38082234 10.49257781 -13.60668945 8.31689453 C-12.8811084 7.75437988 -12.15552734 7.19186523 -11.40795898 6.61230469 C-10.01298988 5.52966588 -8.62552115 4.43727298 -7.24682617 3.33398438 C-2.5385557 -0.29381858 -2.5385557 -0.29381858 0 0 Z " fill="#F2EEEF" transform="translate(257.020751953125,91.23388671875)"/>
<path d="M0 0 C4.75189387 2.97082421 8.98951366 6.58605055 13.30859375 10.14453125 C17.9833642 13.9781059 22.81635653 17.58593672 27.66796875 21.19140625 C34.65048843 26.39370625 41.55234143 31.67733082 48.37890625 37.08203125 C53.21030298 40.90627882 58.10628155 44.64663172 62.99658203 48.39501953 C65.70196687 50.46983212 68.40351041 52.54963478 71.10546875 54.62890625 C72.18878393 55.46226318 73.27211726 56.29559652 74.35546875 57.12890625 C106.85546876 82.12890625 106.85546876 82.12890625 108.47949219 83.37817383 C109.56605654 84.21398001 110.6526452 85.0497546 111.73925781 85.88549805 C114.39835423 87.93074261 117.05696815 89.97660616 119.71484375 92.0234375 C125.83650332 96.73650625 131.96707287 101.43765223 138.10546875 106.12890625 C145.28327967 111.61453067 152.44791922 117.11687376 159.60546875 122.62890625 C161.77191526 124.29585917 163.93869372 125.96238038 166.10546875 127.62890625 C167.18880813 128.46223172 168.27214147 129.29556505 169.35546875 130.12890625 C169.89171875 130.54140625 170.42796875 130.95390625 170.98046875 131.37890625 C175.85546874 135.12890625 175.85546874 135.12890625 177.47949219 136.37817383 C178.56605654 137.21398001 179.6526452 138.0497546 180.73925781 138.88549805 C183.39835423 140.93074261 186.05696815 142.97660616 188.71484375 145.0234375 C189.75125 145.82136719 190.78765625 146.61929688 191.85546875 147.44140625 C192.37633057 147.84254639 192.89719238 148.24368652 193.43383789 148.65698242 C196.61373702 151.10375535 199.80043076 153.54136784 202.9921875 155.97265625 C203.74661133 156.54781982 204.50103516 157.1229834 205.27832031 157.71557617 C206.74944725 158.83668401 208.22140606 159.9567014 209.69433594 161.07543945 C224.5168119 172.37468373 224.5168119 172.37468373 225.98828125 180.828125 C226.3264556 187.28725513 224.48368869 193.3060175 220.21484375 198.234375 C215.06594589 202.85483335 209.78934846 203.81608724 203.14453125 204.08984375 C196.30699116 202.84856724 190.8717151 198.55449206 185.66796875 194.19140625 C184.36074944 193.12071557 183.05209945 192.05176975 181.7421875 190.984375 C181.06720215 190.43313965 180.3922168 189.8819043 179.69677734 189.31396484 C176.17587571 186.47702075 172.57960402 183.74046566 168.98046875 181.00390625 C168.26479736 180.45895508 167.54912598 179.91400391 166.81176758 179.35253906 C165.40505585 178.2817081 163.99808007 177.21122392 162.59082031 176.14111328 C159.67156338 173.91756711 156.76265089 171.68070423 153.85546875 169.44140625 C150.75392671 167.05295051 147.65220517 164.66477929 144.546875 162.28125 C139.80220842 158.63834121 135.06290119 154.98955403 130.34765625 151.30859375 C123.14531947 145.6865725 115.93154958 140.08913446 108.60546875 134.62890625 C100.53671898 128.61515674 92.60496622 122.43147037 84.67285156 116.23925781 C79.67065289 112.34288294 74.63546061 108.4892812 69.60546875 104.62890625 C67.43836028 102.96281372 65.27191922 101.29585426 63.10546875 99.62890625 C62.02214751 98.7955572 60.93881419 97.96222384 59.85546875 97.12890625 C27.35546875 72.12890625 27.35546875 72.12890625 25.72998047 70.87841797 C24.64841998 70.04652338 23.5667146 69.21481712 22.48486328 68.38330078 C19.74817657 66.27948833 17.01421598 64.17229298 14.28515625 62.05859375 C12.11111233 60.37482251 9.92983473 58.70120782 7.7421875 57.03515625 C5.68367619 55.45602429 3.643671 53.85240898 1.625 52.22265625 C0.69042969 51.49046875 -0.24414062 50.75828125 -1.20703125 50.00390625 C-2.01785156 49.35164063 -2.82867187 48.699375 -3.6640625 48.02734375 C-7.30961723 46.1602356 -10.43469015 45.79619641 -14.39453125 46.62890625 C-17.15318304 47.98984599 -19.40615871 49.79887146 -21.76953125 51.75390625 C-22.44798096 52.28870605 -23.12643066 52.82350586 -23.82543945 53.37451172 C-25.27566218 54.51929398 -26.71961529 55.67205623 -28.15771484 56.83203125 C-31.16914086 59.25116413 -34.22521208 61.6104808 -37.28100586 63.97314453 C-39.57111701 65.74545973 -41.8547563 67.52580287 -44.13671875 69.30859375 C-49.86505666 73.78042597 -55.62980496 78.20412911 -61.39453125 82.62890625 C-63.47795371 84.23295717 -65.56128505 85.83712642 -67.64453125 87.44140625 C-72.71995252 91.34760833 -77.80594947 95.23986889 -82.89453125 99.12890625 C-95.730921 108.93430083 -95.730921 108.93430083 -108.49609375 118.83203125 C-116.46388411 125.05742054 -124.47425062 131.21157055 -132.58203125 137.25390625 C-139.14409648 142.14547922 -145.59880466 147.137289 -151.96044922 152.28613281 C-156.95224114 156.31251191 -162.06121324 160.16365429 -167.20629883 163.99121094 C-172.29828689 167.78671042 -177.32621169 171.65808474 -182.33203125 175.56640625 C-188.37301813 180.28243773 -194.43067853 184.97478707 -200.51953125 189.62890625 C-201.19363037 190.14445068 -201.86772949 190.65999512 -202.56225586 191.19116211 C-204.50397055 192.67356201 -206.44906166 194.1514391 -208.39453125 195.62890625 C-209.1097998 196.17627441 -209.82506836 196.72364258 -210.56201172 197.28759766 C-211.62379639 198.09463135 -211.62379639 198.09463135 -212.70703125 198.91796875 C-213.66416016 199.64814209 -213.66416016 199.64814209 -214.640625 200.39306641 C-219.961578 204.14232365 -226.10918945 204.38664452 -232.39453125 203.62890625 C-237.47821963 202.2319971 -240.47953729 199.99184688 -243.33203125 195.56640625 C-246.78180819 189.47374934 -247.47590652 183.39231962 -245.921875 176.546875 C-243.04349044 169.44493119 -236.30550785 165.12275719 -230.39453125 160.62890625 C-228.98107422 159.54996094 -228.98107422 159.54996094 -227.5390625 158.44921875 C-225.60610836 156.99350432 -223.66701114 155.54592015 -221.72265625 154.10546875 C-217.76921158 151.17546783 -213.86370632 148.1833286 -209.95703125 145.19140625 C-209.22943604 144.63437012 -208.50184082 144.07733398 -207.75219727 143.50341797 C-202.33815865 139.35610809 -196.9292386 135.20217695 -191.52734375 131.0390625 C-189.33799848 129.35474076 -187.14578415 127.67483492 -184.94921875 126 C-174.94206764 119.35384841 -174.94206764 119.35384841 -167.39453125 110.62890625 C-167.18075404 105.02187412 -167.18075404 105.02187412 -168.39453125 99.62890625 C-165.79529406 97.64319799 -163.18933832 95.666503 -160.58203125 93.69140625 C-159.84404297 93.12744141 -159.10605469 92.56347656 -158.34570312 91.98242188 C-157.63349609 91.44423828 -156.92128906 90.90605469 -156.1875 90.3515625 C-155.53289795 89.85406494 -154.8782959 89.35656738 -154.20385742 88.84399414 C-152.39453125 87.62890625 -152.39453125 87.62890625 -149.39453125 86.62890625 C-149.72453125 85.96890625 -150.05453125 85.30890625 -150.39453125 84.62890625 C-151.00946729 79.66549389 -151.13047904 75.8554859 -148.51953125 71.50390625 C-144.18000678 68.90019157 -140.34588087 68.86406363 -135.39453125 69.62890625 C-133.0859375 70.65625 -133.0859375 70.65625 -131.39453125 71.62890625 C-130.44191406 70.85804687 -129.48929687 70.0871875 -128.5078125 69.29296875 C-127.24113944 68.2796303 -125.97419817 67.26662706 -124.70703125 66.25390625 C-124.08119141 65.74601562 -123.45535156 65.238125 -122.81054688 64.71484375 C-116.32094058 59.55034031 -116.32094058 59.55034031 -112.39453125 58.62890625 C-111.40453125 59.28890625 -110.41453125 59.94890625 -109.39453125 60.62890625 C-105.38012473 61.49285547 -101.80328716 61.33313379 -98.10791016 59.48583984 C-95.7143228 57.85989942 -93.46093291 56.13094447 -91.20703125 54.31640625 C-90.38187012 53.67993164 -89.55670898 53.04345703 -88.70654297 52.38769531 C-86.2527771 50.48803629 -83.82248731 48.56138188 -81.39453125 46.62890625 C-80.10030974 45.61805902 -78.80485577 44.6087865 -77.5078125 43.6015625 C-75.20977571 41.81184867 -72.92114433 40.01119744 -70.640625 38.19921875 C-61.77018907 31.15683866 -52.717742 24.33923295 -43.71630859 17.46557617 C-40.34792376 14.89251503 -36.98345073 12.31489264 -33.6328125 9.71875 C-32.76076172 9.04392578 -32.76076172 9.04392578 -31.87109375 8.35546875 C-30.32169062 7.15522689 -28.7740552 5.95270402 -27.2265625 4.75 C-18.3443965 -1.90243605 -10.51890202 -5.19608413 0 0 Z " fill="#FD7A78" transform="translate(266.39453125,22.37109375)"/>
<path d="M0 0 C5.22603821 3.50425204 9.59739766 7.67373854 13.25 12.8125 C13.25 13.4725 13.25 14.1325 13.25 14.8125 C13.91 14.8125 14.57 14.8125 15.25 14.8125 C15.66958984 13.92498047 15.66958984 13.92498047 16.09765625 13.01953125 C21.25961306 3.13307159 31.76878061 -3.11135668 42.10546875 -6.52734375 C56.52109733 -9.55373037 69.73934668 -6.60393666 82.07421875 1.32421875 C94.09589885 9.54730693 101.56237875 22.54098458 104.25 36.8125 C105.63808272 48.92641653 103.70409138 59.57181257 99.25 70.8125 C98.72599609 72.16214844 98.72599609 72.16214844 98.19140625 73.5390625 C90.00701853 91.94644001 72.233356 106.99377356 57.25 119.8125 C56.68482666 120.29952393 56.11965332 120.78654785 55.53735352 121.28833008 C53.90271339 122.69553777 52.26449334 124.09845083 50.625 125.5 C49.40879156 126.54029139 48.19264764 127.58065823 46.9765625 128.62109375 C46.36200195 129.14687012 45.74744141 129.67264648 45.11425781 130.21435547 C43.2683072 131.79680606 41.4265159 133.38396204 39.5859375 134.97265625 C36.68020776 137.48070184 33.75907767 139.96992897 30.83251953 142.45361328 C29.35927131 143.7186703 27.91093845 145.01258461 26.46484375 146.30859375 C25.63082031 147.03175781 24.79679687 147.75492188 23.9375 148.5 C23.24011719 149.12261719 22.54273438 149.74523437 21.82421875 150.38671875 C18.04752642 152.47851344 14.56387685 153.21749526 10.25 152.8125 C7.56170113 151.53303062 5.66260034 149.7100098 3.5625 147.625 C2.35086465 146.5058559 1.1386074 145.38738477 -0.07421875 144.26953125 C-0.68313965 143.69283691 -1.29206055 143.11614258 -1.91943359 142.52197266 C-4.77839017 139.85213884 -7.7646259 137.33887598 -10.75 134.8125 C-11.91599676 133.81323719 -13.08136007 132.81323476 -14.24609375 131.8125 C-16.58672829 129.80568189 -18.9335586 127.80645749 -21.28515625 125.8125 C-29.29653104 119.00825799 -37.11788267 112.03993762 -44.75 104.8125 C-45.26836426 104.32813477 -45.78672852 103.84376953 -46.32080078 103.34472656 C-62.01463396 88.61976996 -75.37081445 70.36310542 -76.22485352 48.07055664 C-76.39088561 32.74885734 -71.4392504 18.08134812 -60.85546875 6.7265625 C-53.73838541 0.25648674 -46.13677611 -4.12989147 -36.75 -6.1875 C-35.83734375 -6.45820313 -35.83734375 -6.45820313 -34.90625 -6.734375 C-22.45977077 -9.34993948 -10.7454558 -6.34690384 0 0 Z " fill="#FD7A78" transform="translate(241.75,213.1875)"/>
<path d="M0 0 C9.71947461 7.00788206 14.33588248 15.16871071 16.75 26.6875 C18.37204158 33.87713746 21.62790553 37.06156099 27.5546875 41.265625 C31.24279277 44.04538387 33.23458298 47.12224357 35.1875 51.25 C35.620625 52.1575 36.05375 53.065 36.5 54 C38.39939295 62.97894848 37.75111252 71.21966698 33.1875 79.25 C28.20354131 86.77220821 21.62030649 90.4390645 13.1875 93.25 C11.55617915 93.34790197 9.92117817 93.38922703 8.28694153 93.39717102 C6.7709285 93.40790398 6.7709285 93.40790398 5.22428894 93.41885376 C4.11620377 93.42154266 3.00811859 93.42423157 1.86645508 93.42700195 C0.6986853 93.43357315 -0.46908447 93.44014435 -1.67224121 93.44691467 C-5.54581768 93.46666267 -9.41935534 93.47831398 -13.29296875 93.48828125 C-14.62852817 93.49233001 -15.96408738 93.49644697 -17.29964638 93.50063133 C-23.57660008 93.51968026 -29.85354205 93.53391039 -36.13051909 93.5422433 C-43.3649821 93.55200689 -50.59913841 93.5783043 -57.83349341 93.61874419 C-63.43193666 93.64896001 -69.0302923 93.66371744 -74.62881547 93.66702431 C-77.96930233 93.66936918 -81.30920193 93.6802429 -84.64964867 93.70348549 C-88.38150788 93.72783637 -92.11256805 93.72691857 -95.84448242 93.7199707 C-96.94244644 93.73278076 -98.04041046 93.74559082 -99.17164612 93.75878906 C-106.23670084 93.71091663 -112.00799038 92.78608126 -117.3316679 87.83801746 C-122.07150795 82.50497602 -123.31019595 77.78351979 -123.11328125 70.80859375 C-122.4991249 65.58427678 -120.77416867 61.89692332 -116.71875 58.4921875 C-112.9034672 55.85964237 -109.15192955 53.88780939 -104.8125 52.25 C-104.73773438 51.23421875 -104.66296875 50.2184375 -104.5859375 49.171875 C-103.51464818 37.1367466 -100.8320758 26.88911062 -91.23046875 18.75 C-83.88780894 14.19494125 -78.17889271 12.7309402 -69.5625 13.25 C-62.91345083 13.79114701 -62.91345083 13.79114701 -56.87109375 11.4609375 C-55.18021773 9.64493023 -53.60439627 7.86308458 -52.125 5.875 C-39.00284563 -9.76419166 -16.44441649 -10.2011126 0 0 Z " fill="#D7EA83" transform="translate(454.8125,398.75)"/>
<path d="M0 0 C5.46013853 3.45671928 9.81962435 7.54858251 13.80859375 12.6171875 C14.97116179 14.14629025 14.97116179 14.14629025 17 15 C18.90450043 14.99582346 20.80932448 14.98551884 22.71313477 14.93408203 C33.13086414 14.66493604 41.79443953 15.38475759 50.1796875 22.19140625 C56.32714112 28.29928398 60.04867854 35.41499415 60.5625 44.0625 C60.81083895 49.11643815 60.81083895 49.11643815 62 54 C64.18137797 55.02450239 64.18137797 55.02450239 67 56 C73.45899478 59.34483658 77.6213351 62.86400529 80 70 C80.74212833 76.84947952 80.08417387 82.34014177 76 88 C72.00834114 92.40652228 67.51638461 94.72141548 61.55993271 95.1933136 C58.505795 95.2890255 55.45749964 95.31600397 52.40185547 95.32226562 C50.65918144 95.33716034 50.65918144 95.33716034 48.88130188 95.35235596 C45.04323948 95.38153011 41.2053425 95.39519265 37.3671875 95.40625 C35.36829994 95.41484914 33.36941238 95.42344937 31.37052548 95.432199 C25.79996157 95.45579086 20.22943739 95.47088445 14.65882862 95.4777894 C7.48367206 95.48673504 0.30928051 95.52176785 -6.86564362 95.57979059 C-12.43110201 95.62321552 -17.99634672 95.64320814 -23.5619725 95.64587164 C-26.8769635 95.64795487 -30.1910763 95.66244261 -33.50592422 95.69551086 C-37.213025 95.72984764 -40.91829046 95.72582062 -44.62548828 95.71289062 C-46.24379295 95.74053497 -46.24379295 95.74053497 -47.89479065 95.76873779 C-57.62700567 95.66307797 -66.08566617 92.28677996 -73 85.3125 C-78.11628566 78.74514066 -80.78008371 70.87242172 -80.3828125 62.54296875 C-79.17451272 54.51640594 -76.14585861 47.41454363 -70 42 C-69.34386719 41.61714844 -68.68773437 41.23429687 -68.01171875 40.83984375 C-62.28783569 37.48743767 -60.98722854 33.91815141 -59.375 27.75 C-59.17994873 26.99549561 -58.98489746 26.24099121 -58.78393555 25.46362305 C-55.83576729 14.1612924 -49.93537985 5.85662592 -39.85546875 -0.3125 C-26.71646869 -7.14578493 -13.11655936 -6.91537061 0 0 Z " fill="#D7EB83" transform="translate(100,397)"/>
<path d="M0 0 C5.22603821 3.50425204 9.59739766 7.67373854 13.25 12.8125 C13.25 13.4725 13.25 14.1325 13.25 14.8125 C13.91 14.8125 14.57 14.8125 15.25 14.8125 C15.66958984 13.92498047 15.66958984 13.92498047 16.09765625 13.01953125 C21.25961306 3.13307159 31.76878061 -3.11135668 42.10546875 -6.52734375 C56.52109733 -9.55373037 69.73934668 -6.60393666 82.07421875 1.32421875 C94.09589885 9.54730693 101.56237875 22.54098458 104.25 36.8125 C105.63808272 48.92641653 103.70409138 59.57181257 99.25 70.8125 C98.72599609 72.16214844 98.72599609 72.16214844 98.19140625 73.5390625 C90.00701853 91.94644001 72.233356 106.99377356 57.25 119.8125 C56.68482666 120.29952393 56.11965332 120.78654785 55.53735352 121.28833008 C53.90271339 122.69553777 52.26449334 124.09845083 50.625 125.5 C49.40879156 126.54029139 48.19264764 127.58065823 46.9765625 128.62109375 C46.36200195 129.14687012 45.74744141 129.67264648 45.11425781 130.21435547 C43.2683072 131.79680606 41.4265159 133.38396204 39.5859375 134.97265625 C36.68020776 137.48070184 33.75907767 139.96992897 30.83251953 142.45361328 C29.35927131 143.7186703 27.91093845 145.01258461 26.46484375 146.30859375 C25.63082031 147.03175781 24.79679687 147.75492188 23.9375 148.5 C23.24011719 149.12261719 22.54273438 149.74523437 21.82421875 150.38671875 C18.04752642 152.47851344 14.56387685 153.21749526 10.25 152.8125 C7.56170113 151.53303062 5.66260034 149.7100098 3.5625 147.625 C2.35086465 146.5058559 1.1386074 145.38738477 -0.07421875 144.26953125 C-0.68313965 143.69283691 -1.29206055 143.11614258 -1.91943359 142.52197266 C-4.77839017 139.85213884 -7.7646259 137.33887598 -10.75 134.8125 C-11.91599676 133.81323719 -13.08136007 132.81323476 -14.24609375 131.8125 C-16.58672829 129.80568189 -18.9335586 127.80645749 -21.28515625 125.8125 C-29.29653104 119.00825799 -37.11788267 112.03993762 -44.75 104.8125 C-45.26836426 104.32813477 -45.78672852 103.84376953 -46.32080078 103.34472656 C-62.01463396 88.61976996 -75.37081445 70.36310542 -76.22485352 48.07055664 C-76.39088561 32.74885734 -71.4392504 18.08134812 -60.85546875 6.7265625 C-53.73838541 0.25648674 -46.13677611 -4.12989147 -36.75 -6.1875 C-35.83734375 -6.45820313 -35.83734375 -6.45820313 -34.90625 -6.734375 C-22.45977077 -9.34993948 -10.7454558 -6.34690384 0 0 Z M-49.75 24.8125 C-55.58459306 33.94490653 -56.92919666 43.11776798 -55.75 53.8125 C-52.45604364 67.55784124 -43.23357494 77.79275122 -33.75 87.8125 C-33.10289062 88.50085938 -32.45578125 89.18921875 -31.7890625 89.8984375 C-27.37502714 94.45660463 -22.61696991 98.42616089 -17.671875 102.39453125 C-14.59775362 104.93848998 -11.66840621 107.59381646 -8.75 110.3125 C-3.28136676 115.39832004 2.41122427 120.15439298 8.25 124.8125 C9.17941406 125.55628906 10.10882813 126.30007813 11.06640625 127.06640625 C11.78699219 127.64261719 12.50757813 128.21882813 13.25 128.8125 C17.54445018 127.40410505 20.12046479 125.35395224 23.375 122.25 C27.05489651 118.81148894 30.75515915 115.52770164 34.6875 112.375 C39.81188489 108.23888934 44.64485201 103.85152062 49.46875 99.375 C51.75787222 97.2659211 54.07475164 95.21271288 56.4375 93.1875 C68.76008847 82.42118046 83.23789457 67.76628138 84.48828125 50.52734375 C84.7075302 39.36872623 83.38448282 31.12414545 76 22.375 C70.01476982 16.152731 63.40967952 12.7331671 54.6875 12.4375 C46.42537118 12.52730575 40.41248031 15.51057885 34.4375 21.125 C28.64612796 27.44532639 25.50692242 34.23046888 22.65625 42.2734375 C21.25 44.8125 21.25 44.8125 18.78515625 46.140625 C15.72117114 46.95265187 13.40556855 47.21533854 10.25 46.8125 C6.79163183 43.98352833 5.43216792 41.28289441 3.9375 37.125 C-0.05734122 27.0951387 -6.64239055 19.33612083 -16 13.9375 C-29.60351848 9.85644446 -40.63467049 14.44043221 -49.75 24.8125 Z " fill="#020202" transform="translate(241.75,213.1875)"/>
<path d="M0 0 C13.2 0 26.4 0 40 0 C40 33 40 66 40 100 C34.37761616 96.25174411 29.1076915 92.63556643 23.9375 88.375 C22.80330788 87.44223175 21.66640224 86.51275686 20.52734375 85.5859375 C19.88394043 85.02261719 19.24053711 84.45929688 18.57763672 83.87890625 C16.33755575 82.24605314 14.47847443 81.28745959 11.97314453 80.18359375 C6.88423683 77.65138043 2.86897626 75.02634843 0 70 C-2.58247999 59.21238244 -1.58282301 47.71856549 -1.09863281 36.72668457 C-0.90459028 31.85424777 -0.83243999 26.97860357 -0.73937988 22.10339355 C-0.58519379 14.72904509 -0.27860888 7.37539627 0 0 Z " fill="#C0AFB4" transform="translate(386,20)"/>
<path d="M0 0 C36.96 0 73.92 0 112 0 C113.66666667 6.66666667 115.33333333 13.33333333 117 20 C76.74 20 36.48 20 -5 20 C-4.01 16.7 -3.02 13.4 -2 10 C-1.34 6.7 -0.68 3.4 0 0 Z " fill="#C0AFB4" transform="translate(200,472)"/>
<path d="M0 0 C3.04796564 2.03197709 3.77117737 2.70723257 5 6 C5.22213813 10.20581532 4.67253041 13.87911598 2.5 17.5 C-1.24037001 19.74422201 -4.65471436 20.4052598 -9 20 C-13.39958805 17.7616131 -13.39958805 17.7616131 -15 15 C-16.13146856 9.99038196 -15.76976571 6.28294285 -13.125 1.875 C-8.80794774 -0.71523135 -4.93012739 -0.79383407 0 0 Z " fill="#040101" transform="translate(131,92)"/>
</svg>
