<?xml version="1.0" encoding="UTF-8"?>
<svg version="1.1" xmlns="http://www.w3.org/2000/svg" width="512" height="512">
<path d="M0 0 C5.42343854 2.61487215 8.7323198 6.34390816 11.3125 11.75 C12.64835736 18.06496207 11.81693106 23.76313125 8.3203125 29.29296875 C5.84724136 32.49040097 2.96345103 35.26130509 0 38 C3.20760251 41.80635497 6.40746109 45.54563567 10 49 C12.21364377 47.93417152 14.2401519 46.83797971 16.28125 45.4609375 C19.35469742 43.8094011 21.34189731 43.50572941 24.8125 43.4375 C25.78832031 43.39496094 26.76414063 43.35242187 27.76953125 43.30859375 C36.13223668 45.09843518 42.5812745 53.18694078 48.4375 59 C49.25154297 59.78117187 50.06558594 60.56234375 50.90429688 61.3671875 C52.06348633 62.51574219 52.06348633 62.51574219 53.24609375 63.6875 C53.94404053 64.37199219 54.6419873 65.05648437 55.36108398 65.76171875 C57.3711964 68.50694602 57.63093569 70.65305693 58 74 C59.27588527 77.43507573 60.80384591 79.1859666 64 81 C67.65274469 81.72481084 67.65274469 81.72481084 71 82 C71.061875 83.03125 71.12375 84.0625 71.1875 85.125 C72.21534964 90.02705212 73.31913534 91.64632331 77 95 C77.928125 94.979375 78.85625 94.95875 79.8125 94.9375 C88.53425516 95.10851481 98.77084062 109.5854767 104.80078125 115.59765625 C105.77709031 116.56972425 105.77709031 116.56972425 106.77312279 117.56142998 C110.2092717 120.98267825 113.64260516 124.40672138 117.07348633 127.83325195 C120.60846454 131.36272064 124.15264597 134.8827958 127.69901752 138.4008112 C130.43642281 141.11958262 133.16708722 143.84504877 135.89595604 146.57238579 C137.19998025 147.87339092 138.5064962 149.17190364 139.81557655 150.46782112 C141.64374638 152.27889522 143.46217186 154.09924371 145.27856445 155.92211914 C145.81625458 156.45059448 146.3539447 156.97906982 146.90792847 157.52355957 C150.0947141 160.74602528 152.28730979 163.79665284 154 168 C153.8359375 170.53515625 153.8359375 170.53515625 153.375 173.0625 C153.2454892 176.12480373 153.37409167 178.14557347 155.21435547 180.65771484 C157.3942693 183.0255875 159.68794785 185.20514728 162.11279297 187.32055664 C166.74863728 191.39583233 169.65049714 195.02837653 170.21484375 201.44140625 C170.12332031 202.14136719 170.03179687 202.84132812 169.9375 203.5625 C169.86402344 204.26503906 169.79054688 204.96757812 169.71484375 205.69140625 C168.03967183 211.1013877 164.07832165 215.17668676 160.15625 219.109375 C159.23972656 220.02847656 158.32320313 220.94757813 157.37890625 221.89453125 C156.90598145 222.3632666 156.43305664 222.83200195 155.94580078 223.31494141 C154.49662672 224.75334822 153.05850827 226.20219574 151.62109375 227.65234375 C150.70457031 228.56628906 149.78804688 229.48023438 148.84375 230.421875 C148.01037109 231.25299805 147.17699219 232.08412109 146.31835938 232.94042969 C142.49776991 236.33454223 139.70898075 237.30379579 134.625 237.375 C133.70976562 237.40335938 132.79453125 237.43171875 131.8515625 237.4609375 C125.50683355 236.43535118 121.78740905 231.84189814 117.6875 227.25 C114.1900459 223.46453634 114.1900459 223.46453634 109.5703125 221.390625 C108.07724449 221.46295355 106.58570872 221.58731768 105.1015625 221.765625 C101.17989905 222.20298524 98.19039774 221.12693183 95 219 C93.539108 217.49007031 92.1623439 215.91933029 90.77490234 214.34179688 C88.30232596 211.55807015 85.99124497 209.2574028 83 207 C79.52971148 206.86355353 77.30198263 207.65796354 74.07421875 208.8984375 C65.70152862 211.89856281 56.03126883 210.46982003 48 207 C41.61896991 203.82819765 37.38523854 200.56498414 33 195 C11.39433422 204.49094464 -2.05608388 219.66879727 -11.02734375 241.5 C-11.79998737 243.65263893 -12.43510233 245.78416899 -13 248 C-13.20367187 248.79019531 -13.40734375 249.58039063 -13.6171875 250.39453125 C-18.12560731 270.99121627 -13.90827611 291.8723514 -3.3046875 309.87890625 C2.39890245 318.3547062 10.50369474 329.6330859 20 334 C21.66671513 333.3334545 23.33337516 332.66677122 25 332 C27.49536133 331.77294922 27.49536133 331.77294922 30.08203125 331.8046875 C31.01337891 331.81113281 31.94472656 331.81757813 32.90429688 331.82421875 C33.86400391 331.84097656 34.82371094 331.85773438 35.8125 331.875 C36.79154297 331.88402344 37.77058594 331.89304687 38.77929688 331.90234375 C41.18645061 331.92582818 43.59309743 331.9586716 46 332 C46.07891479 330.97592041 46.07891479 330.97592041 46.15942383 329.93115234 C46.23700928 329.03348145 46.31459473 328.13581055 46.39453125 327.2109375 C46.46776611 326.32196777 46.54100098 325.43299805 46.61645508 324.51708984 C47.39776001 319.38962082 50.05036938 316.71706802 54.0625 313.6875 C59.09893664 310.79422789 63.3187468 310.48263502 69 311 C74.44189799 312.813966 77.7783325 316.38262638 81 321 C82.28317892 324.84953676 82.06643637 327.94738135 82 332 C82.60996826 331.98952637 83.21993652 331.97905273 83.84838867 331.96826172 C86.62805007 331.92653379 89.40764539 331.90062078 92.1875 331.875 C93.14720703 331.85824219 94.10691406 331.84148437 95.09570312 331.82421875 C96.02705078 331.81777344 96.95839844 331.81132812 97.91796875 331.8046875 C98.77156982 331.79421387 99.6251709 331.78374023 100.50463867 331.77294922 C103.30726815 332.02795806 105.44729419 332.84458578 108 334 C114.39692119 329.07122466 120.6068981 324.04087671 126 318 C126 317.67 126 317.34 126 317 C125.29875 316.90203125 124.5975 316.8040625 123.875 316.703125 C113.03786911 314.99509894 106.05312455 311.58913835 99 303 C94.47062468 296.08533235 92.17504796 288.34982244 93.3984375 280.11328125 C94.46214845 276.3764785 96.11685271 274.62686753 99 272 C104.20610716 269.67057431 108.97019873 269.7749278 114.55029297 269.89990234 C115.4941687 269.91246063 116.43804443 269.92501892 117.41052246 269.93795776 C119.45342701 269.96558616 121.49627787 269.99744069 123.53905869 270.03306198 C126.77620467 270.08649904 130.01307416 270.12213645 133.2505188 270.15200806 C142.45283773 270.23735517 151.65460864 270.33280764 160.85595703 270.49365234 C166.49090618 270.59085964 172.12509785 270.64873007 177.76077652 270.6811409 C179.90348827 270.70089869 182.04611841 270.73526387 184.18835068 270.78470993 C195.518575 271.47241922 195.518575 271.47241922 206.04847717 268.24287415 C208.04227303 266.25998553 209.50088299 264.36457774 211 262 C216.84769817 257.18906325 228.14797243 248 236 248 C237.01545766 244.95362701 237.1541977 242.80222902 237.20532227 239.6105957 C237.22526749 238.50968094 237.24521271 237.40876617 237.26576233 236.27449036 C237.28247482 235.08691635 237.29918732 233.89934235 237.31640625 232.67578125 C237.3475779 230.85097481 237.3475779 230.85097481 237.37937927 228.98930359 C237.44484717 225.09709404 237.50374715 221.20481615 237.5625 217.3125 C237.60568782 214.67642518 237.6493022 212.04035731 237.69335938 209.40429688 C237.80052578 202.93627049 237.90229745 196.46817589 238 190 C236.96939453 189.92217285 236.96939453 189.92217285 235.91796875 189.84277344 C235.01691406 189.76575195 234.11585938 189.68873047 233.1875 189.609375 C232.29417969 189.53686523 231.40085937 189.46435547 230.48046875 189.38964844 C227.01391103 188.84509862 225.31252679 187.60159264 223 185 C220.56930029 180.43062812 220.6670158 176.04730649 220.6875 171 C220.67138672 170.2059375 220.65527344 169.411875 220.63867188 168.59375 C220.63475965 163.89907653 220.91384191 160.76524734 224 157 C227.36485468 153.68925385 229.69996481 152.54117959 234.45307922 152.46899414 C235.49434212 152.48349609 235.49434212 152.48349609 236.55664062 152.49829102 C237.30036423 152.49288803 238.04408783 152.48748505 238.81034851 152.48191833 C241.25939195 152.46945003 243.70725536 152.48590831 246.15625 152.50390625 C247.86348533 152.50375122 249.57072101 152.50226152 251.2779541 152.49949646 C254.85229085 152.49811332 258.42622591 152.51065598 262.00048828 152.53344727 C266.57711279 152.5618318 271.15307007 152.55909351 275.72974396 152.54635715 C279.25398434 152.53939492 282.7780711 152.54719545 286.30229187 152.55961418 C287.98955191 152.5641234 289.67682846 152.56447011 291.36408997 152.56054878 C293.72418906 152.55763117 296.08337573 152.5741688 298.44335938 152.59594727 C299.48462227 152.58919479 299.48462227 152.58919479 300.54692078 152.58230591 C304.86581976 152.64836713 307.53895849 153.40918595 311 156 C315.00729976 160.57977115 315.20711761 164.87511277 315.25 170.75 C315.2809375 171.78640625 315.2809375 171.78640625 315.3125 172.84375 C315.35093997 177.95626571 314.35515934 181.45013014 312 186 C307.46864735 190.38517998 303.05555277 190.03516581 297 190 C297.09236956 197.31427709 297.19968877 204.62822554 297.31738281 211.94213867 C297.35565578 214.43004383 297.39051157 216.91800401 297.421875 219.40600586 C297.46756142 222.98311012 297.52555108 226.55983617 297.5859375 230.13671875 C297.60326431 231.80416389 297.60326431 231.80416389 297.62094116 233.5052948 C297.6507457 235.06634697 297.6507457 235.06634697 297.68115234 236.65893555 C297.70113785 238.02794258 297.70113785 238.02794258 297.7215271 239.42460632 C298.03299213 242.30512026 298.67965703 244.42209495 300 247 C302.30203377 248.44833838 304.43183242 249.60709654 306.875 250.75 C328.52314402 261.59358422 343.96951041 279.22035512 352 302 C359.52371223 326.40347989 356.83813719 351.08273111 345.1875 373.6875 C338.70764285 385.06434842 329.5693475 395.20271824 318.81982422 402.6574707 C317.9177121 403.28442337 317.01559998 403.91137604 316.08615112 404.55732727 C315.39772125 405.03340927 314.70929138 405.50949127 314 406 C314.88425659 406.00364563 315.76851318 406.00729126 316.67956543 406.01104736 C325.03606576 406.04900341 333.39217883 406.10594235 341.74840546 406.18390274 C346.04387379 406.22331637 350.339139 406.25553462 354.63476562 406.27099609 C358.78473898 406.28620327 362.93415369 406.32071991 367.08387756 406.36830902 C368.66255319 406.38308117 370.24130859 406.39103862 371.8200531 406.39188385 C388.8142975 406.41012347 388.8142975 406.41012347 394 411 C398.29579721 416.45520328 398.59333624 421.08806984 398.53125 427.87890625 C398.5350769 428.80920151 398.53890381 429.73949677 398.54284668 430.69798279 C398.5455568 432.65535572 398.53825895 434.61276543 398.52148438 436.57006836 C398.50003732 439.55730176 398.52132902 442.542137 398.546875 445.52929688 C398.54423204 447.43750528 398.53910771 449.3457122 398.53125 451.25390625 C398.53934692 452.14155167 398.54744385 453.02919708 398.55578613 453.94374084 C398.45258237 460.80163906 396.54378397 464.52144126 391.5625 469.375 C387.68145065 471.14530321 385.49099762 471.16973612 381.27734375 471.1015625 C379.51571899 471.07956787 379.51571899 471.07956787 377.71850586 471.05712891 C376.82139893 471.03827637 375.92429199 471.01942383 375 471 C375.01047363 471.83249268 375.02094727 472.66498535 375.03173828 473.52270508 C375.06584442 476.61449156 375.09091076 479.70618208 375.10986328 482.7980957 C375.12485495 484.79319618 375.15026731 486.78820946 375.17578125 488.78320312 C375.18222656 490.03681641 375.18867188 491.29042969 375.1953125 492.58203125 C375.20578613 493.73936768 375.21625977 494.8967041 375.22705078 496.08911133 C375 499 375 499 373 502 C369.375 502.1875 369.375 502.1875 366 502 C365.34 500.35 364.68 498.7 364 497 C218.8 497 73.6 497 -76 497 C-76.66 498.65 -77.32 500.3 -78 502 C-81.375 502.1875 -81.375 502.1875 -85 502 C-87.39112209 498.41331687 -87.23381027 496.83603431 -87.1953125 492.58203125 C-87.18886719 491.32841797 -87.18242188 490.07480469 -87.17578125 488.78320312 C-87.15902344 487.47287109 -87.14226562 486.16253906 -87.125 484.8125 C-87.11496639 483.47722013 -87.1058412 482.14193311 -87.09765625 480.80664062 C-87.07405292 477.53757985 -87.04112594 474.26887972 -87 471 C-87.88042969 471.03480469 -88.76085937 471.06960938 -89.66796875 471.10546875 C-90.82941406 471.13253906 -91.99085937 471.15960938 -93.1875 471.1875 C-94.33605469 471.22230469 -95.48460937 471.25710938 -96.66796875 471.29296875 C-101.58761201 470.86040926 -104.04067422 469.09256547 -107.25 465.4375 C-109.49424283 462.31159035 -110.12663633 460.71429206 -110.17700195 456.93676758 C-110.18983719 456.09862015 -110.20267242 455.26047272 -110.21589661 454.39692688 C-110.22328354 453.48863632 -110.23067047 452.58034576 -110.23828125 451.64453125 C-110.246353 450.70953293 -110.25442474 449.77453461 -110.26274109 448.811203 C-110.2765882 446.82817441 -110.28730754 444.84512192 -110.29516602 442.86206055 C-110.31233335 439.84181873 -110.35620827 436.82268449 -110.40039062 433.80273438 C-110.41052163 431.87500804 -110.41903645 429.9472724 -110.42578125 428.01953125 C-110.44328934 427.12136185 -110.46079742 426.22319244 -110.47883606 425.29780579 C-110.45842655 419.34072423 -109.49793579 415.86616396 -106 411 C-99.11563705 405.27150437 -89.92713863 406.553934 -81.5 406.75 C-79.99481542 406.77009506 -78.48960495 406.78834052 -76.984375 406.8046875 C-73.32237263 406.84844702 -69.66135422 406.91730784 -66 407 C-65.88914063 405.80375 -65.77828125 404.6075 -65.6640625 403.375 C-64.48853064 394.06904741 -58.95522599 385.1824231 -52 379 C-42.24784102 371.55835253 -32.79474821 368.57581467 -20.6171875 368.48828125 C-19.20676682 368.46135445 -19.20676682 368.46135445 -17.76785278 368.43388367 C-14.80361237 368.38027477 -11.83952827 368.34604522 -8.875 368.3125 C-6.8489368 368.27928319 -4.82289411 368.24478959 -2.796875 368.20898438 C2.13530289 368.12457744 7.06743842 368.05753278 12 368 C11.12029541 367.46600586 10.24059082 366.93201172 9.33422852 366.38183594 C8.16154462 365.66614091 6.98894149 364.95031355 5.81640625 364.234375 C5.2387854 363.8842334 4.66116455 363.5340918 4.06604004 363.17333984 C-20.32541908 348.25069512 -37.35968202 324.37780609 -45 297 C-45.47953125 295.38738281 -45.47953125 295.38738281 -45.96875 293.7421875 C-50.32120162 276.37268151 -50.09730715 255.16987673 -45 238 C-44.67128906 236.80375 -44.34257813 235.6075 -44.00390625 234.375 C-35.60425377 206.47304019 -16.54574772 182.95695272 8.94677734 168.92871094 C13.7879033 166.35766242 18.66786883 163.86483198 23.8125 161.95703125 C26.20742415 161.16232339 26.20742415 161.16232339 27.375 158.6875 C28.10105176 155.56547741 27.94834727 154.05500191 27 151 C25.06904049 148.51094098 25.06904049 148.51094098 22.52783203 146.12133789 C22.0643335 145.66207413 21.60083496 145.20281036 21.12329102 144.72962952 C20.11882938 143.73701045 19.10973394 142.74906321 18.09656143 141.76533699 C16.49020537 140.20555966 14.89637768 138.63389417 13.30514526 137.05870056 C9.92286295 133.71525432 6.52434722 130.38857923 3.125 127.0625 C-0.80819174 123.20982438 -4.73450779 119.35040702 -8.64957047 115.47930717 C-10.21579593 113.93615896 -11.79119671 112.40283291 -13.36740112 110.86988831 C-14.33502932 109.91636461 -15.30226396 108.96244132 -16.26904297 108.00805664 C-17.53359818 106.77159142 -17.53359818 106.77159142 -18.82369995 105.51014709 C-22.92045978 100.78493938 -24.59048279 96.45759242 -24.4453125 90.30859375 C-23.78363335 86.87830972 -22.04289296 84.5303173 -19.8984375 81.82421875 C-18.75081555 80.01752372 -18.75081555 80.01752372 -19.59375 78.03515625 C-21.23318428 75.66253052 -23.05283061 73.75532521 -25.125 71.75 C-26.21167969 70.69039062 -26.21167969 70.69039062 -27.3203125 69.609375 C-27.87460938 69.07828125 -28.42890625 68.5471875 -29 68 C-29.61875 68.56267578 -29.61875 68.56267578 -30.25 69.13671875 C-37.3370227 75.41695985 -42.58283376 79.87881998 -52.45703125 79.34765625 C-58.722342 78.49110839 -61.9132516 75.37154139 -65.80078125 70.71875 C-67.78586791 67.87367465 -68.19880904 65.19331025 -68.3125 61.8125 C-68.36857422 60.73935547 -68.36857422 60.73935547 -68.42578125 59.64453125 C-66.93988138 50.41559352 -60.10166826 44.52637601 -53.7578125 38.26171875 C-52.74591426 37.24966525 -51.73468505 36.23694243 -50.72409058 35.22358704 C-48.61384394 33.11196276 -46.49685554 31.00742259 -44.37451172 28.90795898 C-41.66368867 26.22557328 -38.96877387 23.52784492 -36.27850533 20.82486248 C-34.19596996 18.73535248 -32.10609882 16.65330757 -30.01388168 14.57349586 C-29.01754335 13.58165082 -28.02325632 12.58774051 -27.03113174 11.59168053 C-25.64155199 10.19916982 -24.24113214 8.81750231 -22.84033203 7.4362793 C-22.04853546 6.64988571 -21.25673889 5.86349213 -20.44094849 5.05326843 C-14.08071627 -0.29680925 -8.03597392 -0.99345831 0 0 Z M176.90234375 315.7265625 C172.42099265 315.61176927 169.31379629 315.73774955 165 317 C161.72408311 320.72263282 159.91364891 324.72129423 157.88720703 329.20800781 C155.68995178 333.64605226 152.21469911 337.27805054 149 341 C148.39800781 341.74636719 147.79601562 342.49273437 147.17578125 343.26171875 C138.10116002 354.16267884 126.35140111 361.3706123 114 368 C114 368.33 114 368.66 114 369 C114.55186478 369.00364563 115.10372955 369.00729126 115.6723175 369.01104736 C121.46498323 369.05316258 127.25687785 369.12270666 133.04907227 369.20751953 C135.20491793 369.23558246 137.36086368 369.25686928 139.5168457 369.27099609 C142.63284001 369.29262994 145.74764934 369.33938357 148.86328125 369.390625 C149.81270096 369.39185364 150.76212067 369.39308228 151.74031067 369.39434814 C163.25684947 369.64115228 173.51873458 373.93688073 181.9375 381.8125 C189.00877357 389.37144761 191.76224256 396.93009152 194 407 C203.9 407 213.8 407 224 407 C221.45140982 404.96112785 218.90272035 402.92237716 216.3515625 400.88671875 C200.50444713 388.10458988 200.50444713 388.10458988 198 382 C198.2784375 380.576875 198.2784375 380.576875 198.5625 379.125 C199.09926618 375.29095588 198.33706893 373.67798704 196.3203125 370.4765625 C194.26295659 368.17573252 191.94203824 367.65378628 189 367 C188 366 188 366 187.9375 362.4375 C187.958125 361.303125 187.97875 360.16875 188 359 C188.66 358.67 189.32 358.34 190 358 C188.16195271 352.0989008 187.38409851 350.11710967 182 347 C181.0429685 342.96599037 180.88104189 339.07787333 180.90234375 334.9453125 C180.90717773 333.28242188 180.90717773 333.28242188 180.91210938 331.5859375 C180.92467773 329.87277344 180.92467773 329.87277344 180.9375 328.125 C180.94201172 326.9596875 180.94652344 325.794375 180.95117188 324.59375 C180.96291219 321.72911355 180.9793343 318.86458367 181 316 C179.63107687 316 178.26596451 315.84693255 176.90234375 315.7265625 Z " fill="#020101" transform="translate(112,5)"/>
<path d="M0 0 C0.81635886 -0.00436032 1.63271772 -0.00872064 2.47381473 -0.0132131 C5.23298303 -0.02423664 7.9916586 -0.01371449 10.75082397 -0.00342751 C12.73943146 -0.00688127 14.72803703 -0.01164392 16.71663857 -0.01760924 C22.1996789 -0.0301876 27.68256354 -0.0239179 33.16560459 -0.01465058 C39.07160587 -0.0078883 44.97757957 -0.01832726 50.88357544 -0.02659035 C61.79087501 -0.03918655 72.69812081 -0.03805666 83.60542327 -0.02985594 C93.68068996 -0.02231772 103.75593835 -0.02033522 113.83120728 -0.02392387 C114.49878483 -0.02415303 115.16636238 -0.02438218 115.85416956 -0.02461828 C118.56389051 -0.02555226 121.27361145 -0.02650745 123.98333237 -0.02749758 C149.41737393 -0.03668046 174.85138368 -0.02834488 200.28542033 -0.01220688 C222.89613832 0.00203059 245.50680564 0.00075673 268.11752319 -0.01358986 C293.50419836 -0.02964385 318.89084541 -0.03602928 344.27752495 -0.02675307 C346.98239008 -0.02579087 349.68725522 -0.02485236 352.39212036 -0.02392387 C353.3911755 -0.02356803 353.3911755 -0.02356803 354.41041358 -0.02320499 C364.48086162 -0.01978847 374.55128938 -0.02379101 384.62173462 -0.03136253 C396.06902558 -0.03975916 407.5162548 -0.03753622 418.96353865 -0.0215203 C424.80888488 -0.01361277 430.654128 -0.01058808 436.49947357 -0.02046776 C441.84360469 -0.02936397 447.18753649 -0.02456613 452.53164935 -0.0085351 C454.47170588 -0.00516566 456.41177903 -0.0069294 458.351825 -0.01416247 C460.97590336 -0.02320029 463.59928646 -0.01401549 466.22332764 0 C466.98788356 -0.0070235 467.75243948 -0.014047 468.54016376 -0.02128333 C471.47378242 0.01033344 473.58792333 0.03355112 476.08042336 1.67052782 C477.91990175 4.71538656 477.53684805 8.20378763 477.51010132 11.65877342 C477.5129715 12.46866722 477.51584167 13.27856102 477.51879883 14.11299706 C477.52083924 15.82438926 477.51531091 17.5358048 477.5027771 19.24715233 C477.48672239 21.86796232 477.50262576 24.48723019 477.52182007 27.10799217 C477.51983763 28.770756 477.51599395 30.43351886 477.51010132 32.09627342 C477.51617401 32.88070824 477.5222467 33.66514305 477.52850342 34.47334862 C477.45976403 39.78597372 477.45976403 39.78597372 476.10696411 42.08487606 C472.90731311 44.15775724 469.48922116 43.78401036 465.79867554 43.74933434 C464.94068296 43.7531589 464.08269039 43.75698346 463.19869804 43.76092392 C460.31275221 43.77023798 457.42728249 43.75819937 454.54135132 43.74641991 C452.47683513 43.74888677 450.41232018 43.75272401 448.34780884 43.75783348 C443.89683876 43.7661839 439.44599656 43.76535344 434.99502563 43.75764847 C427.96206713 43.74609333 420.92927414 43.75820426 413.89633179 43.7742672 C396.42783611 43.81050748 378.95934403 43.81668825 361.49081421 43.81416893 C347.916765 43.81246008 334.3428503 43.81951005 320.76883888 43.85414749 C313.77233239 43.8709902 306.77615325 43.86910508 299.77964783 43.85332477 C295.43317356 43.84754637 291.08685605 43.85823442 286.74040985 43.8735714 C284.71952135 43.87731196 282.69860696 43.8741485 280.677742 43.86370087 C277.92631212 43.85042024 275.17603442 43.86146186 272.4246521 43.87872887 C271.61833784 43.86892209 270.81202358 43.85911531 269.98127556 43.84901136 C267.50782594 43.83558188 267.50782594 43.83558188 264.11166382 44.37752342 C262.21287252 46.26768088 262.21287252 46.26768088 261.11166382 48.37752342 C258.63119507 48.76814842 258.63119507 48.76814842 255.92416382 48.62752342 C255.02310913 48.59142967 254.12205444 48.55533592 253.19369507 48.51814842 C252.50662476 48.47174217 251.81955444 48.42533592 251.11166382 48.37752342 C250.78166382 47.38752342 250.45166382 46.39752342 250.11166382 45.37752342 C248.13166382 45.04752342 246.15166382 44.71752342 244.11166382 44.37752342 C243.72365601 45.03236717 243.33564819 45.68721092 242.93588257 46.36189842 C241.11166382 48.37752342 241.11166382 48.37752342 238.63119507 48.76814842 C237.73787476 48.72174217 236.84455444 48.67533592 235.92416382 48.62752342 C235.02310913 48.59142967 234.12205444 48.55533592 233.19369507 48.51814842 C232.50662476 48.47174217 231.81955444 48.42533592 231.11166382 48.37752342 C230.78166382 47.38752342 230.45166382 46.39752342 230.11166382 45.37752342 C226.67381186 43.65859744 222.71540601 44.23505282 218.93186951 44.23949242 C217.48690374 44.2352605 217.48690374 44.2352605 216.01274675 44.23094308 C212.76454248 44.22256818 209.51637216 44.22125638 206.26815796 44.21980858 C203.94763594 44.21514257 201.62711483 44.20999936 199.30659485 44.20441246 C194.299618 44.19311559 189.29264716 44.18468918 184.2856617 44.17829323 C176.3748929 44.16763734 168.46416436 44.14741755 160.55342102 44.12517357 C157.84840884 44.11769364 155.14339648 44.11027996 152.43838406 44.1028862 C151.76235056 44.10103563 151.08631707 44.09918507 150.38979771 44.09727842 C142.69170314 44.07634469 134.99360392 44.05751905 127.29550171 44.0396328 C126.23970098 44.03717552 126.23970098 44.03717552 125.16257095 44.03466861 C113.75131251 44.00837284 102.34005083 43.98973557 90.9287749 43.97304089 C79.22060042 43.95563477 67.51248965 43.92680595 55.80436605 43.88815153 C49.22754602 43.86703 42.65081701 43.85161697 36.07396126 43.84934425 C29.89093866 43.84720514 23.70810568 43.83141146 17.52514076 43.80495453 C15.25109145 43.79773219 12.97701923 43.79567465 10.70296097 43.79905701 C7.60789382 43.8029264 4.51343991 43.78857939 1.41844177 43.76952171 C0.05620022 43.77781626 0.05620022 43.77781626 -1.33356136 43.78627837 C-2.57379302 43.7730186 -2.57379302 43.7730186 -3.83907986 43.75949097 C-4.55376853 43.75813444 -5.26845721 43.75677791 -6.00480312 43.75538027 C-8.499057 43.2550063 -9.38016005 42.40243347 -10.88833618 40.37752342 C-11.1866367 37.54235524 -11.30872174 34.93139418 -11.28677368 32.09627342 C-11.28964386 31.28637962 -11.29251404 30.47648582 -11.29547119 29.64204979 C-11.29751161 27.93065758 -11.29198328 26.21924204 -11.27944946 24.50789452 C-11.26339475 21.88708453 -11.27929812 19.26781665 -11.29849243 16.64705467 C-11.29650999 14.98429085 -11.29266631 13.32152799 -11.28677368 11.65877342 C-11.29284637 10.87433861 -11.29891907 10.08990379 -11.30517578 9.28169823 C-11.2362335 3.95339221 -11.2362335 3.95339221 -9.85709572 1.67052782 C-6.77511753 -0.35359512 -3.56662659 -0.03276437 0 0 Z " fill="#EFBF1F" transform="translate(22.888336181640625,422.6224765777588)"/>
<path d="M0 0 C40.26 0 80.52 0 122 0 C129.99549869 15.99099738 134.17651861 25.18491739 134.1875 42.25 C134.19974609 43.23613281 134.21199219 44.22226562 134.22460938 45.23828125 C134.2651244 65.73888359 126.23978544 83.38508122 112.3125 98.25 C96.72213788 113.115229 75.26537461 121.76986357 53.71679688 121.46801758 C31.77797627 120.56962004 13.78529884 110.1089187 -1.40625 94.76171875 C-3 93 -3 93 -5 90 C-6.11375 90.061875 -7.2275 90.12375 -8.375 90.1875 C-9.57125 90.125625 -10.7675 90.06375 -12 90 C-16 85.28205128 -16 85.28205128 -16 82 C-16.763125 82.061875 -17.52625 82.12375 -18.3125 82.1875 C-21 82 -21 82 -22.875 80.9375 C-24.64776515 77.88440446 -23.64986882 75.36750208 -23 72 C-23 68.49064814 -23.37542727 65.43515002 -24 62 C-23.01 61.34 -22.02 60.68 -21 60 C-20.52058444 56.86443096 -20.52058444 56.86443096 -20.55859375 53.1640625 C-20.54538589 52.4883017 -20.53217804 51.81254089 -20.51856995 51.11630249 C-20.47761649 48.95249368 -20.45599871 46.78910897 -20.4375 44.625 C-20.41367952 42.46816355 -20.38547138 40.31172493 -20.34571838 38.15512085 C-20.31024556 36.19293295 -20.29036197 34.23048176 -20.27124023 32.26806641 C-20.01721792 29.20745193 -19.69086001 27.51888355 -18 25 C-16.046875 23.61328125 -16.046875 23.61328125 -13.75 22.3125 C-4.94583553 16.6648125 -2.98853399 9.96177995 0 0 Z " fill="#FA5C3D" transform="translate(323,292)"/>
<path d="M0 0 C2.00720923 0.28674418 4.0085944 0.61866701 6 1 C6.33 2.32 6.66 3.64 7 5 C7.68707031 4.95359375 8.37414062 4.9071875 9.08203125 4.859375 C9.98308594 4.82328125 10.88414062 4.7871875 11.8125 4.75 C12.70582031 4.70359375 13.59914063 4.6571875 14.51953125 4.609375 C15.33808594 4.73828125 16.15664063 4.8671875 17 5 C17.58492202 5.98602896 17.58492202 5.98602896 18.18166065 6.99197769 C19.93119716 9.34900113 19.93119716 9.34900113 23.3364439 9.50780869 C24.74872614 9.53201771 26.16148829 9.53398572 27.57389832 9.51898193 C28.35233654 9.52648319 29.13077476 9.53398444 29.93280202 9.541713 C32.54946369 9.56206403 35.16526495 9.55387328 37.78198242 9.54589844 C39.65433107 9.55462945 41.52667224 9.56511357 43.39900208 9.57722473 C48.48963016 9.60516325 53.58001573 9.60848769 58.67070937 9.60750484 C63.98791082 9.61062721 69.30500195 9.63623127 74.62214661 9.65948486 C84.69434631 9.70010031 94.76648118 9.7203986 104.83875018 9.73345876 C116.304198 9.74931005 127.76953519 9.78771774 139.23491895 9.82805204 C162.82324543 9.91052688 186.41156109 9.96377145 210 10 C210 18.58 210 27.16 210 36 C64.14 36 -81.72 36 -232 36 C-232 27.42 -232 18.84 -232 10 C-229.29837677 9.98969254 -226.59675354 9.97938507 -223.81326294 9.96876526 C-198.41379098 9.87138867 -173.01434532 9.76855988 -147.61491585 9.66066074 C-134.55529817 9.6053144 -121.49567776 9.55183011 -108.43603516 9.50268555 C-97.05710472 9.45986097 -85.67819452 9.41358739 -74.29929531 9.36312145 C-68.27079646 9.33650658 -62.24230166 9.31165318 -56.21377945 9.29092598 C-50.54547105 9.27138287 -44.8772012 9.24724614 -39.20892715 9.21950912 C-37.12312518 9.21012634 -35.03731474 9.2024555 -32.95149994 9.19658089 C-30.11452542 9.18834053 -27.27764501 9.17406976 -24.44070435 9.15821838 C-23.6060852 9.15724028 -22.77146605 9.15626217 -21.91155541 9.15525442 C-17.82388167 9.22560077 -17.82388167 9.22560077 -14 8 C-13.67 7.01 -13.34 6.02 -13 5 C-9.7 5 -6.4 5 -3 5 C-2.34 3.68 -1.68 2.36 -1 1 C-0.67 0.67 -0.34 0.34 0 0 Z " fill="#72C2E8" transform="translate(267,466)"/>
<path d="M0 0 C2.48193359 2.04125977 2.48193359 2.04125977 4.8984375 4.69140625 C5.79046875 5.63564453 6.6825 6.57988281 7.6015625 7.55273438 C8.9932149 9.05610199 10.3775828 10.56534758 11.75390625 12.08276367 C16.72999991 18.051028 16.72999991 18.051028 23.33862305 21.56616211 C25.71381747 21.5315415 25.71381747 21.5315415 29 21 C31.03697617 22.62126675 33.03814584 24.28859531 35 26 C38.72697218 26.88005337 38.72697218 26.88005337 42 27 C42.061875 28.03125 42.12375 29.0625 42.1875 30.125 C42.69954235 34.13859549 42.69954235 34.13859549 45.5625 36.9375 C48 40 48 40 47.78140259 43.76469421 C47.68866996 47.20074143 48.20119982 48.80592276 50.45419312 51.40950012 C51.59398416 52.56930378 52.75602429 53.70750587 53.93505859 54.82739258 C54.56582809 55.457724 55.1965976 56.08805542 55.84648132 56.73748779 C57.92888245 58.80924726 60.03802634 60.851345 62.1484375 62.89453125 C63.60277315 64.33139598 65.05527388 65.77012012 66.50601196 67.21061707 C70.3251073 70.99354708 74.16715947 74.75227443 78.01495361 78.50598145 C82.68934594 83.07435463 87.33704589 87.66984752 91.98798561 92.26207256 C95.60602874 95.83363028 99.22813169 99.4007233 102.86312866 102.95503235 C103.86351418 103.93562874 103.86351418 103.93562874 104.8841095 104.93603516 C106.12937919 106.15636248 107.37661382 107.37468921 108.62617493 108.59062195 C111.04461066 110.9642386 113.11322943 113.16984415 115 116 C114.7146599 119.92282364 113.59114872 121.91330098 110.8605957 124.67285156 C110.19933182 125.34995178 109.53806793 126.027052 108.85676575 126.72467041 C108.13704086 127.43943542 107.41731598 128.15420044 106.67578125 128.890625 C105.93676071 129.63584412 105.19774017 130.38106323 104.43632507 131.14886475 C102.8718259 132.72046221 101.30217168 134.28694232 99.7277832 135.84863281 C97.3230006 138.2395599 94.94315158 140.65346627 92.56445312 143.0703125 C91.04051446 144.59520244 89.51516926 146.11868828 87.98828125 147.640625 C87.27867752 148.36348694 86.56907379 149.08634888 85.83796692 149.83111572 C82.78776012 152.82485695 80.77130919 154.76123077 76.63793945 156.04077148 C73.26479182 155.98863676 72.25677496 155.1508823 69.875 152.8125 C69.20210938 152.16796875 68.52921875 151.5234375 67.8359375 150.859375 C67.23007813 150.24578125 66.62421875 149.6321875 66 149 C65.175 148.195625 64.35 147.39125 63.5 146.5625 C63.005 146.046875 62.51 145.53125 62 145 C63.90400836 141.02721332 66.22476079 137.36150653 68.5625 133.6328125 C73.38215006 124.80551863 73.45503035 113.5972399 71.3125 103.8828125 C70.39064391 101.41684747 69.34794582 99.25917399 68 97 C67.57589844 96.28585938 67.15179688 95.57171875 66.71484375 94.8359375 C60.77279598 85.99734834 51.27309828 81.1210167 41 79 C30.77576393 78.07771066 21.44410478 79.07597639 13.0625 85.48046875 C12.546875 85.94066406 12.03125 86.40085937 11.5 86.875 C9 89 9 89 7.14178467 88.90261841 C4.22450051 87.67317904 2.48972774 85.90188048 0.23144531 83.68310547 C-0.70922791 82.7647995 -1.64990112 81.84649353 -2.61907959 80.90036011 C-3.63735772 79.88998709 -4.65493961 78.87891197 -5.671875 77.8671875 C-6.71976112 76.8314842 -7.76779799 75.79593341 -8.815979 74.76052856 C-11.01029219 72.5886824 -13.19806575 70.41047105 -15.38232422 68.22851562 C-18.17895721 65.43716678 -20.99789174 62.66957477 -23.82313156 59.90722466 C-25.99520501 57.77606148 -28.15125601 55.62922636 -30.30319977 53.4777565 C-31.33572971 52.45060509 -32.37399233 51.42918254 -33.41805267 50.41375351 C-34.87822087 48.99033288 -36.31420578 47.5422323 -37.74902344 46.09326172 C-38.57190857 45.27687225 -39.3947937 44.46048279 -40.24261475 43.61935425 C-42.5602718 40.16492397 -42.5468036 38.08271295 -42 34 C-40.72268677 31.87417603 -40.72268677 31.87417603 -38.91064453 30.10009766 C-38.23639435 29.4231485 -37.56214417 28.74619934 -36.86746216 28.04873657 C-36.13002777 27.34429413 -35.39259338 26.63985168 -34.6328125 25.9140625 C-33.50792923 24.80047867 -33.50792923 24.80047867 -32.36032104 23.66439819 C-29.96447621 21.30105458 -27.54514218 18.96342933 -25.125 16.625 C-23.50236596 15.02890815 -21.88125311 13.43126823 -20.26171875 11.83203125 C-17.29938822 8.92000553 -14.3344292 6.0110091 -11.34814453 3.12353516 C-10.74857941 2.54286285 -10.14901428 1.96219055 -9.53128052 1.36392212 C-6.26036921 -1.54950115 -4.12859567 -1.11057006 0 0 Z " fill="#70BFE5" transform="translate(141,60)"/>
<path d="M0 0 C12.54 0 25.08 0 38 0 C38.03738281 3.96128906 38.07476562 7.92257813 38.11328125 12.00390625 C38.15952125 15.84974623 38.21074612 19.69548984 38.26245117 23.54125977 C38.297289 26.20959411 38.32370326 28.8776339 38.34643555 31.54614258 C38.38005415 35.38653143 38.43237641 39.22628502 38.48828125 43.06640625 C38.49467117 44.25520889 38.5010611 45.44401154 38.50764465 46.6688385 C38.64334704 54.35154076 39.21097847 59.63762561 44.2421875 65.703125 C47.3250337 68.27070796 50.53983287 70.01725328 54.125 71.75 C62.01673297 75.75167446 70.00175793 80.50263689 75 88 C38.04 88 1.08 88 -37 88 C-32.65770243 82.93398617 -29.72797672 79.71474865 -24.3125 76.4375 C-23.40383179 75.86310181 -23.40383179 75.86310181 -22.47680664 75.27709961 C-17.95795472 72.45852727 -13.29915219 70.07775572 -8.40234375 67.97265625 C-3.8164964 64.20704176 -1.42868503 58.75370984 -0.52363586 52.9400177 C-0.33026901 49.54305024 -0.28156477 46.17585296 -0.29296875 42.7734375 C-0.27784744 41.54460846 -0.26272614 40.31577942 -0.24714661 39.04971313 C-0.20445403 35.15795271 -0.1954487 31.26697073 -0.1875 27.375 C-0.16434161 24.72263582 -0.13897351 22.07028996 -0.11132812 19.41796875 C-0.0445328 12.94489438 -0.02337936 6.47395614 0 0 Z " fill="#EEEEEE" transform="translate(361,194)"/>
<path d="M0 0 C1.04007456 0.00659473 1.04007456 0.00659473 2.10116073 0.01332268 C2.83870056 0.0101162 3.57624039 0.00690973 4.3361299 0.00360608 C6.83311005 -0.00476353 9.32985466 0.00125445 11.82683918 0.00710186 C13.62484179 0.00408434 15.42284312 0.00019689 17.22084215 -0.0044907 C22.18163969 -0.01483101 27.14236546 -0.01257364 32.10316905 -0.00831011 C37.44544419 -0.00585377 42.78770156 -0.01484339 48.12997028 -0.0223476 C58.60366523 -0.0351271 69.07733459 -0.03688426 79.55103602 -0.03454734 C88.06021537 -0.03276766 96.56938692 -0.03450626 105.07856533 -0.03877178 C106.28748568 -0.03936697 107.49640603 -0.03996216 108.74196034 -0.04057538 C111.19751208 -0.04178707 113.65306382 -0.04300121 116.10861555 -0.04421776 C139.16077391 -0.05510579 162.21291766 -0.05292481 185.26507685 -0.04683291 C206.3761503 -0.04166245 227.48717763 -0.05292038 248.59824195 -0.07193113 C270.25049173 -0.09128048 291.90271967 -0.09957066 313.55497816 -0.09580788 C325.72093068 -0.09389144 337.88684393 -0.09642636 350.05278942 -0.11052242 C360.40948804 -0.12240026 370.76612323 -0.12388172 381.12282266 -0.11173225 C386.41122033 -0.1058182 391.69950176 -0.1048134 396.98789188 -0.11673465 C401.82319904 -0.12750827 406.65829172 -0.12459279 411.49358848 -0.11047297 C413.24861744 -0.10780234 415.00366276 -0.11026578 416.75867578 -0.11820883 C419.13322809 -0.1282151 421.50702031 -0.11997969 423.88154098 -0.10693184 C424.9181038 -0.11789585 424.9181038 -0.11789585 425.97560728 -0.12908137 C428.81289287 -0.09647264 430.65018264 -0.01326081 433.01428583 1.63106266 C434.05427143 3.26779827 434.05427143 3.26779827 433.86677143 5.83029827 C433.05427143 8.26779827 433.05427143 8.26779827 431.05427143 10.26779827 C428.66707941 10.46552699 426.39579653 10.53741792 424.00738212 10.52227387 C423.2698423 10.52548035 422.53230247 10.52868682 421.77241296 10.53199047 C419.27543281 10.54036008 416.7786882 10.5343421 414.28170368 10.52849469 C412.48370107 10.5315122 410.68569974 10.53539966 408.88770071 10.54008725 C403.92690316 10.55042756 398.9661774 10.54817019 394.00537381 10.54390666 C388.66309867 10.54145032 383.3208413 10.55043994 377.97857258 10.55794415 C367.50487763 10.57072365 357.03120827 10.57248081 346.55750684 10.57014389 C338.04832749 10.56836421 329.53915594 10.57010281 321.02997753 10.57436833 C319.82105718 10.57496352 318.61213683 10.57555871 317.36658252 10.57617193 C314.91103078 10.57738362 312.45547904 10.57859776 309.9999273 10.57981431 C286.94776894 10.59070234 263.8956252 10.58852136 240.84346601 10.58242946 C219.73239256 10.577259 198.62136523 10.58851692 177.51030091 10.60752768 C155.85805113 10.62687703 134.20582319 10.6351672 112.5535647 10.63140443 C100.38761218 10.62948798 88.22169893 10.63202291 76.05575344 10.64611897 C65.69905482 10.65799681 55.34241963 10.65947827 44.98572019 10.6473288 C39.69732253 10.64141475 34.4090411 10.64040995 29.12065098 10.6523312 C24.28534382 10.66310482 19.45025114 10.66018933 14.61495437 10.64606952 C12.85992542 10.64339889 11.1048801 10.64586233 9.34986708 10.65380538 C6.97531477 10.66381165 4.60152255 10.65557624 2.22700188 10.64252838 C1.19043906 10.6534924 1.19043906 10.6534924 0.13293558 10.66467792 C-2.70435001 10.63206919 -4.54163978 10.54885736 -6.90574297 8.90453389 C-7.94572857 7.26779827 -7.94572857 7.26779827 -7.75822857 4.70529827 C-6.27238529 0.24776844 -4.40575225 0.0368837 0 0 Z " fill="#F7E4AF" transform="translate(29.945728570222855,445.7322017252445)"/>
<path d="M0 0 C2.00720923 0.28674418 4.0085944 0.61866701 6 1 C6.33 2.32 6.66 3.64 7 5 C7.68707031 4.95359375 8.37414062 4.9071875 9.08203125 4.859375 C9.98308594 4.82328125 10.88414062 4.7871875 11.8125 4.75 C12.70582031 4.70359375 13.59914063 4.6571875 14.51953125 4.609375 C15.33808594 4.73828125 16.15664063 4.8671875 17 5 C17.58492202 5.98602896 17.58492202 5.98602896 18.18166065 6.99197769 C19.93119716 9.34900113 19.93119716 9.34900113 23.3364439 9.50780869 C24.74872614 9.53201771 26.16148829 9.53398572 27.57389832 9.51898193 C28.35233654 9.52648319 29.13077476 9.53398444 29.93280202 9.541713 C32.54946369 9.56206403 35.16526495 9.55387328 37.78198242 9.54589844 C39.65433107 9.55462945 41.52667224 9.56511357 43.39900208 9.57722473 C48.48963016 9.60516325 53.58001573 9.60848769 58.67070937 9.60750484 C63.98791082 9.61062721 69.30500195 9.63623127 74.62214661 9.65948486 C84.69434631 9.70010031 94.76648118 9.7203986 104.83875018 9.73345876 C116.304198 9.74931005 127.76953519 9.78771774 139.23491895 9.82805204 C162.82324543 9.91052688 186.41156109 9.96377145 210 10 C210 18.58 210 27.16 210 36 C209.67 36 209.34 36 209 36 C209 30.39 209 24.78 209 19 C63.8 19 -81.4 19 -231 19 C-231 24.61 -231 30.22 -231 36 C-231.33 36 -231.66 36 -232 36 C-232 27.42 -232 18.84 -232 10 C-229.29837677 9.98969254 -226.59675354 9.97938507 -223.81326294 9.96876526 C-198.41379098 9.87138867 -173.01434532 9.76855988 -147.61491585 9.66066074 C-134.55529817 9.6053144 -121.49567776 9.55183011 -108.43603516 9.50268555 C-97.05710472 9.45986097 -85.67819452 9.41358739 -74.29929531 9.36312145 C-68.27079646 9.33650658 -62.24230166 9.31165318 -56.21377945 9.29092598 C-50.54547105 9.27138287 -44.8772012 9.24724614 -39.20892715 9.21950912 C-37.12312518 9.21012634 -35.03731474 9.2024555 -32.95149994 9.19658089 C-30.11452542 9.18834053 -27.27764501 9.17406976 -24.44070435 9.15821838 C-23.6060852 9.15724028 -22.77146605 9.15626217 -21.91155541 9.15525442 C-17.82388167 9.22560077 -17.82388167 9.22560077 -14 8 C-13.67 7.01 -13.34 6.02 -13 5 C-9.7 5 -6.4 5 -3 5 C-2.34 3.68 -1.68 2.36 -1 1 C-0.67 0.67 -0.34 0.34 0 0 Z " fill="#4AA3C6" transform="translate(267,466)"/>
<path d="M0 0 C0.84755859 0.00966797 1.69511719 0.01933594 2.56835938 0.02929688 C3.44943359 0.05443359 4.33050781 0.07957031 5.23828125 0.10546875 C6.13095703 0.11900391 7.02363281 0.13253906 7.94335938 0.14648438 C10.14644291 0.18182796 12.34830707 0.23116382 14.55078125 0.29296875 C14.56536377 1.41791748 14.57994629 2.54286621 14.5949707 3.7019043 C14.65305879 7.88614262 14.73029089 12.06984872 14.81323242 16.25366211 C14.84643239 18.06249333 14.87447966 19.87142693 14.8972168 21.68041992 C14.93085383 24.28478508 14.9831732 26.88821635 15.0390625 29.4921875 C15.04545242 30.29758469 15.05184235 31.10298187 15.0584259 31.93278503 C15.17774941 36.51670799 15.5854543 39.57636151 18.55078125 43.29296875 C21.69955618 45.39215204 22.48054625 45.54840746 26.078125 45.55859375 C26.95275391 45.56117188 27.82738281 45.56375 28.72851562 45.56640625 C29.63923828 45.55867188 30.54996094 45.5509375 31.48828125 45.54296875 C32.39513672 45.55070312 33.30199219 45.5584375 34.23632812 45.56640625 C35.55020508 45.56253906 35.55020508 45.56253906 36.890625 45.55859375 C37.68847412 45.55633789 38.48632324 45.55408203 39.30834961 45.55175781 C41.84141805 45.25942765 43.40532138 44.66290958 45.55078125 43.29296875 C47.55745359 40.28296023 47.80570096 39.65804419 47.86962891 36.28051758 C47.8894986 35.47991409 47.90936829 34.67931061 47.92984009 33.85444641 C47.9471669 32.56524544 47.9471669 32.56524544 47.96484375 31.25 C47.9842099 30.36640305 48.00357605 29.48280609 48.02352905 28.57243347 C48.0833093 25.75021009 48.12970391 22.92794589 48.17578125 20.10546875 C48.21396247 18.1920395 48.25301429 16.27862742 48.29296875 14.36523438 C48.38900957 9.67461854 48.47304635 4.98392223 48.55078125 0.29296875 C51.65477103 0.20586586 54.75844673 0.15254566 57.86328125 0.10546875 C58.74435547 0.08033203 59.62542969 0.05519531 60.53320312 0.02929688 C61.38076172 0.01962891 62.22832031 0.00996094 63.1015625 0 C63.88184814 -0.01571045 64.66213379 -0.0314209 65.46606445 -0.04760742 C67.55078125 0.29296875 67.55078125 0.29296875 69.30757141 1.42854309 C71.10726603 4.12752176 70.91068244 6.18946926 70.89135742 9.41674805 C70.89099487 10.69545776 70.89063232 11.97416748 70.89025879 13.29162598 C70.87515225 14.65015095 70.85965251 16.00867161 70.84375 17.3671875 C70.84072876 18.60263306 70.83770752 19.83807861 70.83459473 21.11096191 C70.8188766 25.73421561 70.7769928 30.35735041 70.73828125 34.98046875 C70.67640625 45.31359375 70.61453125 55.64671875 70.55078125 66.29296875 C44.81078125 66.29296875 19.07078125 66.29296875 -7.44921875 66.29296875 C-7.51109375 55.95984375 -7.57296875 45.62671875 -7.63671875 34.98046875 C-7.66403076 31.71873779 -7.69134277 28.45700684 -7.71948242 25.09643555 C-7.7282417 22.5200233 -7.73588695 19.94360693 -7.7421875 17.3671875 C-7.75002762 16.69742386 -7.75786774 16.02766022 -7.76594543 15.33760071 C-7.78789051 13.36408915 -7.78923534 11.39038153 -7.78979492 9.41674805 C-7.79645676 8.30422165 -7.80311859 7.19169525 -7.8099823 6.04545593 C-7.44921875 3.29296875 -7.44921875 3.29296875 -6.20600891 1.42854309 C-3.97849215 -0.01130495 -2.64099741 -0.05317444 0 0 Z " fill="#ECECEC" transform="translate(144.44921875,346.70703125)"/>
<path d="M0 0 C6.41015228 3.900879 12.4001473 9.96840226 14.28515625 17.390625 C15.4509668 28.34438666 14.27867593 36.53594176 7.47265625 45.203125 C2.61948988 50.49860527 -2.96772104 53.12729034 -10.10546875 53.62890625 C-17.49498368 53.77101231 -23.5180982 53.86357562 -29.71484375 49.390625 C-30.74609375 48.730625 -31.77734375 48.070625 -32.83984375 47.390625 C-38.14500136 42.5955787 -41.18243533 35.81540822 -42.265625 28.84765625 C-42.61450344 19.70704116 -40.83961545 12.90088939 -34.625 6.10546875 C-24.73748985 -3.20738269 -12.64371397 -5.8387232 0 0 Z " fill="#EBBC1F" transform="translate(189.71484375,150.609375)"/>
<path d="M0 0 C0.99 5.94 0.99 5.94 2 12 C1.21238281 12.38929688 0.42476563 12.77859375 -0.38671875 13.1796875 C-22.11555724 24.33982467 -39.06615413 41.54848499 -47 65 C-47.391875 66.11890625 -47.78375 67.2378125 -48.1875 68.390625 C-55.11415488 91.38327105 -52.08024089 116.91684139 -41 138 C-34.76061235 148.98818163 -26.69771736 159.29909748 -15.8125 165.875 C-13.0625 167.7109375 -13.0625 167.7109375 -11 170 C-10.08358836 174.80074734 -10.3295246 179.17799512 -11 184 C-33.91512427 172.48708732 -50.3980053 151.51727772 -58.8125 127.5625 C-67.43037127 99.49618951 -65.65540985 71.83542917 -52.03515625 45.578125 C-43.20907694 29.67293038 -20.20269005 0 0 0 Z " fill="#6FBDE3" transform="translate(138,178)"/>
<path d="M0 0 C1.34111343 0.00539291 1.34111343 0.00539291 2.70932007 0.01089478 C3.64580887 0.01074875 4.58229767 0.01060272 5.54716492 0.01045227 C8.65845007 0.01115179 11.76967617 0.01894602 14.88095093 0.02676392 C17.0318651 0.02862796 19.18277971 0.03005192 21.33369446 0.03105164 C27.00711225 0.03487792 32.68050463 0.04470914 38.35391235 0.05575562 C44.13831234 0.06596736 49.92271641 0.07054875 55.7071228 0.07559204 C67.06585796 0.08633131 78.42457421 0.10340906 89.78329468 0.12442017 C89.82418773 1.53693435 89.85306573 2.94979888 89.87704468 4.36270142 C89.89444702 5.14943237 89.91184937 5.93616333 89.92977905 6.74673462 C89.62343873 11.7191487 87.50399407 15.50430445 83.91220093 18.88613892 C78.35620546 23.22380646 73.70072104 25.36472182 66.55941772 25.41494751 C65.32430954 25.42770721 64.08920135 25.44046692 62.81666565 25.45361328 C61.47611651 25.45667149 60.13556526 25.45889895 58.79501343 25.46035767 C57.4088477 25.46679156 56.02268332 25.47352036 54.63652039 25.48052979 C51.73399714 25.4924846 48.83159274 25.49621256 45.92904663 25.49502563 C42.22698863 25.49482273 38.52570071 25.52210254 34.82382488 25.55657005 C31.96087715 25.57891433 29.09811241 25.58286087 26.23508644 25.58180618 C24.871248 25.58415169 23.50740371 25.59291558 22.14365196 25.60847092 C13.09039218 25.70205554 6.5778667 25.32593537 -0.45889282 19.15957642 C-5.47497548 13.09947655 -7.68494392 9.24055587 -7.21670532 1.12442017 C-5.31693444 -0.77535072 -2.52731467 0.00429374 0 0 Z " fill="#EEBF1F" transform="translate(223.21670532226563,285.8755798339844)"/>
<path d="M0 0 C5.95950864 -0.06914772 11.91760601 -0.12879836 17.87719727 -0.16479492 C19.90133399 -0.17981245 21.92543855 -0.20023261 23.94946289 -0.22631836 C26.87133761 -0.26301267 29.79277935 -0.27979708 32.71484375 -0.29296875 C33.60896469 -0.30845261 34.50308563 -0.32393646 35.42430115 -0.33988953 C46.13101073 -0.34270984 54.89716087 3.3447024 62.7578125 10.62890625 C67.55003179 15.81847036 71 21.85970275 71 29 C47.57 29 24.14 29 0 29 C0 19.43 0 9.86 0 0 Z " fill="#F65A3B" transform="translate(225,384)"/>
<path d="M0 0 C2.06507704 0.02512456 4.13018367 0.04793035 6.1953125 0.06835938 C11.21488164 0.11871621 16.23027802 0.21662246 21.25 0.3125 C21.25 9.8825 21.25 19.4525 21.25 29.3125 C-2.18 29.3125 -25.61 29.3125 -49.75 29.3125 C-48.26497948 20.40237689 -44.492827 12.47925042 -37.1237793 6.93066406 C-25.36036106 -1.08825357 -13.71366484 -0.29128897 0 0 Z " fill="#F75B3B" transform="translate(105.75,383.6875)"/>
<path d="M0 0 C1.093125 0.226875 2.18625 0.45375 3.3125 0.6875 C3.67601562 1.63109375 3.67601562 1.63109375 4.046875 2.59375 C5.10797782 5.30364336 6.20134959 7.9977497 7.3125 10.6875 C7.62445313 11.44804688 7.93640625 12.20859375 8.2578125 12.9921875 C11.57563446 20.38061454 17.12993345 22.7299726 24.3125 25.6875 C25.3125 26.6875 25.3125 26.6875 25.6875 30.0625 C25.3125 33.6875 25.3125 33.6875 23.3125 35.375 C21.65634935 36.09956591 19.99951968 36.82260834 18.33984375 37.5390625 C13.3844546 39.81761527 10.83876858 41.63496285 8.3125 46.6875 C7.24887028 49.80096017 6.25567332 52.91792338 5.33984375 56.078125 C4.3125 58.6875 4.3125 58.6875 1.3125 60.6875 C-1.41634773 61.02860597 -2.98140657 61.21751924 -5.22265625 59.53515625 C-7.14770371 57.10702971 -7.76240583 54.78160097 -8.625 51.8125 C-11.06145167 44.30461931 -13.36217114 41.29685501 -20.3125 37.5 C-21.27414063 37.01144531 -22.23578125 36.52289063 -23.2265625 36.01953125 C-25.6875 34.6875 -25.6875 34.6875 -27.6875 32.6875 C-27.55039718 29.46558366 -27.40484191 27.43353559 -25.125 25.0625 C-22.6875 23.6875 -22.6875 23.6875 -20.78515625 22.796875 C-16.28412976 20.68466145 -13.2738394 19.12122469 -10.6875 14.6875 C-9.60361434 11.62271986 -8.62179509 8.55146852 -7.71484375 5.4296875 C-5.98235313 0.80532091 -5.04401819 -0.42745917 0 0 Z " fill="#010000" transform="translate(265.6875,62.3125)"/>
<path d="M0 0 C6.27 0 12.54 0 19 0 C19.03738281 2.68511719 19.07476562 5.37023437 19.11328125 8.13671875 C19.1595274 10.74479191 19.21074977 13.35272331 19.26245117 15.96069336 C19.29565114 17.76952458 19.32369841 19.57845818 19.34643555 21.38745117 C19.38007258 23.99181633 19.43239195 26.5952476 19.48828125 29.19921875 C19.49467117 30.00461594 19.5010611 30.81001312 19.50764465 31.63981628 C19.62696816 36.22373924 20.03467305 39.28339276 23 43 C26.14877493 45.09918329 26.929765 45.25543871 30.52734375 45.265625 C31.40197266 45.26820313 32.27660156 45.27078125 33.17773438 45.2734375 C34.08845703 45.26570313 34.99917969 45.25796875 35.9375 45.25 C36.84435547 45.25773437 37.75121094 45.26546875 38.68554688 45.2734375 C39.99942383 45.26957031 39.99942383 45.26957031 41.33984375 45.265625 C42.13769287 45.26336914 42.93554199 45.26111328 43.75756836 45.25878906 C46.2906368 44.9664589 47.85454013 44.36994083 50 43 C52.00667234 39.98999148 52.25491971 39.36507544 52.31884766 35.98754883 C52.33871735 35.18694534 52.35858704 34.38634186 52.37905884 33.56147766 C52.39638565 32.27227669 52.39638565 32.27227669 52.4140625 30.95703125 C52.43342865 30.0734343 52.4527948 29.18983734 52.4727478 28.27946472 C52.53252805 25.45724134 52.57892266 22.63497714 52.625 19.8125 C52.66318122 17.89907075 52.70223304 15.98565867 52.7421875 14.07226562 C52.83986731 9.3815997 52.91944761 4.6911166 53 0 C59.27 0 65.54 0 72 0 C72 0.33 72 0.66 72 1 C69.03 1 66.06 1 63 1 C63.02094727 2.0737085 63.04189453 3.14741699 63.06347656 4.25366211 C63.13639829 8.27354361 63.1819874 12.29336778 63.21972656 16.3137207 C63.2397241 18.04689395 63.26693148 19.78000075 63.30175781 21.51293945 C63.70331552 42.02190907 63.70331552 42.02190907 57.24902344 48.85327148 C50.70910678 54.99651399 44.33091384 55.38829651 35.6875 55.4375 C34.68009766 55.47037109 33.67269531 55.50324219 32.63476562 55.53710938 C25.78508736 55.58619502 21.27928435 54.46462556 16 50 C12.31869837 46.0280693 9.73805697 42.38699869 9.77294922 36.87402344 C9.77310028 36.07349548 9.77325134 35.27296753 9.77340698 34.44818115 C9.78889084 33.16672211 9.78889084 33.16672211 9.8046875 31.859375 C9.8075174 30.97719299 9.81034729 30.09501099 9.81326294 29.18609619 C9.82444039 26.37392501 9.84954049 23.5620746 9.875 20.75 C9.88503295 18.84115044 9.89415825 16.93229588 9.90234375 15.0234375 C9.92437176 10.34883511 9.95888489 5.67447191 10 1 C6.7 1 3.4 1 0 1 C0 0.67 0 0.34 0 0 Z " fill="#AAAAAA" transform="translate(140,347)"/>
<path d="M0 0 C9.49298866 7.81599382 16.1940449 17.71358413 18 30 C19.64855738 47.08430358 14.95973584 59.28373848 5 73 C2.69 71.02 0.38 69.04 -2 67 C-0.02108957 63.04217914 2.21497426 59.37711606 4.5625 55.6328125 C9.38215006 46.80551863 9.45503035 35.5972399 7.3125 25.8828125 C6.39064391 23.41684747 5.34794582 21.25917399 4 19 C3.57589844 18.28585938 3.15179688 17.57171875 2.71484375 16.8359375 C-3.22720402 7.99734834 -12.72690172 3.1210167 -23 1 C-33.22423607 0.07771066 -42.55589522 1.07597639 -50.9375 7.48046875 C-51.453125 7.94066406 -51.96875 8.40085938 -52.5 8.875 C-55 11 -55 11 -57.125 11.125 C-59.74584841 9.55249095 -61.23305435 7.46110286 -63 5 C-45.10230445 -11.70451584 -20.52590272 -14.11541058 0 0 Z " fill="#4AA2C5" transform="translate(205,138)"/>
<path d="M0 0 C5.47291045 3.94049553 7.90166517 7.57726457 9.125 14.25 C9.22634631 20.60103557 7.77345126 25.08136072 4.125 30.25 C-0.17805865 34.43982027 -4.30818482 36.01233193 -10.25 36.5625 C-16.48033506 36.02540215 -21.00131728 34.61987924 -25.25 29.875 C-29.04260678 24.92812159 -30.35328277 20.81705902 -30.1875 14.58984375 C-29.47291172 9.23936401 -26.9899998 4.96599982 -23 1.375 C-15.81027975 -3.51400977 -7.81232024 -4.13296942 0 0 Z " fill="#010000" transform="translate(362.875,75.75)"/>
<path d="M0 0 C4.67691696 4.00878597 8.09107025 8.03519094 8.8828125 14.28515625 C9.18270813 20.11312796 8.00438131 24.47297334 4.625 29.25 C0.28697034 34.05107777 -4.44428094 35.98357099 -10.8125 36.5625 C-17.00182039 36.01957716 -21.93486534 33.56679758 -26.375 29.25 C-29.42606671 24.56443326 -30.65991065 19.80575764 -30.375 14.25 C-28.76985605 7.50839541 -26.25873004 2.94175218 -20.375 -0.75 C-13.52668442 -3.64736428 -6.5731207 -3.40828481 0 0 Z " fill="#010000" transform="translate(404.375,109.75)"/>
<path d="M0 0 C4.9961892 2.83184813 7.89529949 7.06089848 9.6875 12.4375 C10.4294708 19.28552554 9.74665411 24.7625661 5.6875 30.4375 C-0.02950651 35.86865618 -4.59475411 36.90067997 -12.3359375 36.75 C-17.99342611 36.15603794 -21.45688299 33.61289638 -25.1875 29.375 C-29.18408734 23.85030574 -29.0492931 18.04351997 -28.3125 11.4375 C-26.18234298 5.7356573 -22.65236214 2.33959899 -17.3125 -0.5625 C-11.60664036 -2.46445321 -5.54103262 -2.46502212 0 0 Z " fill="#010000" transform="translate(389.3125,31.5625)"/>
<path d="M0 0 C0.68128967 -0.00175232 1.36257935 -0.00350464 2.06451416 -0.00531006 C4.32688917 -0.00972789 6.58918663 -0.00679084 8.8515625 -0.00341797 C10.4171551 -0.00409103 11.9827476 -0.00506107 13.54833984 -0.00631714 C16.83366895 -0.00779402 20.11897092 -0.00563988 23.40429688 -0.00097656 C27.62476766 0.00472073 31.84517486 0.00144167 36.06564331 -0.00454903 C39.29972822 -0.00815491 42.53379795 -0.00701593 45.7678833 -0.00442123 C47.32448331 -0.00375204 48.88108468 -0.00458012 50.43768311 -0.00690079 C52.60953446 -0.00942777 54.78128146 -0.00558612 56.953125 0 C58.19143066 0.00079559 59.42973633 0.00159119 60.70556641 0.00241089 C63.4765625 0.12939453 63.4765625 0.12939453 64.4765625 1.12939453 C64.4765625 6.07939453 64.4765625 11.02939453 64.4765625 16.12939453 C40.7165625 16.12939453 16.9565625 16.12939453 -7.5234375 16.12939453 C-7.5234375 0.0048337 -7.5234375 0.0048337 0 0 Z " fill="#E9E9E9" transform="translate(351.5234375,167.87060546875)"/>
<path d="M0 0 C1.9375 1.125 1.9375 1.125 3 3 C3.40059955 7.00329196 3.51810956 9.2218066 1.256073 12.61935425 C0.43922028 13.43574371 -0.37763245 14.25213318 -1.21923828 15.09326172 C-2.14084747 16.03048065 -3.06245667 16.96769958 -4.01199341 17.93331909 C-5.03069894 18.93285736 -6.05015742 19.93162873 -7.0703125 20.9296875 C-8.11085952 21.96987055 -9.1502205 23.01124129 -10.18844604 24.05374146 C-12.36508425 26.23167254 -14.55332581 28.39698936 -16.75097656 30.55371094 C-19.56256064 33.31422155 -22.34671418 36.10057253 -25.12309456 38.89643669 C-27.26530582 41.04896151 -29.41972228 43.1889178 -31.57818222 45.32513809 C-32.60936466 46.34797567 -33.63715452 47.3742456 -34.66141129 48.4040184 C-36.0968147 49.84271545 -37.55027198 51.26333092 -39.00439453 52.68310547 C-39.82602081 53.49472137 -40.64764709 54.30633728 -41.49417114 55.14254761 C-44.4265856 57.31620772 -46.37500471 57.82750978 -50 58 C-52.875 56.5 -52.875 56.5 -55 54 C-55.75 50.75 -55.75 50.75 -55 47 C-50.45116315 40.65344127 -44.36777773 35.22120114 -38.85546875 29.72265625 C-38.00447098 28.87070175 -37.15347321 28.01874725 -36.27668762 27.14097595 C-34.49208294 25.355695 -32.70623176 23.57165928 -30.91918945 21.78881836 C-28.17477838 19.04980339 -25.43579568 16.30544048 -22.69726562 13.56054688 C-20.95865423 11.82259558 -19.21973305 10.08495414 -17.48046875 8.34765625 C-16.65967331 7.52483658 -15.83887787 6.70201691 -14.99320984 5.85426331 C-14.23514542 5.09935104 -13.47708099 4.34443878 -12.69604492 3.56665039 C-12.02876877 2.90016983 -11.36149261 2.23368927 -10.67399597 1.54701233 C-7.13195926 -1.72633752 -4.5707421 -0.96226149 0 0 Z " fill="#F85B3C" transform="translate(110,16)"/>
<path d="M0 0 C3.71418887 1.74564904 6.28421612 3.88827871 9.25 6.75 C10.14203125 7.59046875 11.0340625 8.4309375 11.953125 9.296875 C14.46896684 12.61932263 14.52085972 13.91381437 14 18 C12.16748047 20.59301758 12.16748047 20.59301758 9.6171875 23.14453125 C8.69679688 24.06814453 7.77640625 24.99175781 6.828125 25.94335938 C6.34279297 26.41410889 5.85746094 26.8848584 5.35742188 27.36987305 C3.88092258 28.80673641 2.43598835 30.27059864 0.9921875 31.74023438 C-7.26927451 39.90416523 -7.26927451 39.90416523 -13 40 C-14.87451172 38.92016602 -14.87451172 38.92016602 -16.4296875 37.25390625 C-16.996875 36.66416016 -17.5640625 36.07441406 -18.1484375 35.46679688 C-18.71820313 34.83837891 -19.28796875 34.20996094 -19.875 33.5625 C-20.76445312 32.62567383 -20.76445312 32.62567383 -21.671875 31.66992188 C-23.13088419 30.12854926 -24.56767849 28.5662032 -26 27 C-20.89551178 20.81865131 -15.31705058 15.20177122 -9.625 9.5625 C-8.69816406 8.64017578 -7.77132812 7.71785156 -6.81640625 6.76757812 C-4.54654154 4.50941375 -2.27436462 2.25363058 0 0 Z " fill="#EBEBEB" transform="translate(257,192)"/>
<path d="M0 0 C4.73251022 2.43573065 9.11378845 5.93080645 11 11 C11.85249675 16.61137102 11.14591323 21.33021768 8.31640625 26.26953125 C5.42018433 30.07673098 2.22713466 31.66116493 -2.46484375 32.375 C-8.14579318 32.648369 -11.60986528 31.86749964 -16 28 C-20.02656412 23.53813165 -21.37073139 20.20973472 -21.28125 14.125 C-20.63870796 9.2702379 -17.98897897 5.91661465 -14.4375 2.625 C-9.90332226 -0.39778516 -5.30155662 -0.90785945 0 0 Z " fill="#060502" transform="translate(181,160)"/>
<path d="M0 0 C3.29714793 0.32971479 4.6226839 0.6226839 7 3 C7.2158716 13.14596497 -1.21644853 21.82232109 -7.765625 28.7890625 C-19.55050521 40.45032508 -36.69033263 47.78988309 -53.3125 48.4375 C-57.14098891 47.9832725 -57.74798876 47.85254757 -60 45 C-60.3125 42.4375 -60.3125 42.4375 -60 40 C-57.23449006 37.23449006 -55.24544968 37.59222924 -51.375 37.25 C-35.17969416 35.39410336 -21.14396221 28.68987274 -10.5625 16 C-7.65351418 12.12941596 -5.20902251 8.12256156 -3.0078125 3.8125 C-2 2 -2 2 0 0 Z " fill="#FEC7BE" transform="translate(435,355)"/>
<path d="M0 0 C1.0209375 0.02900391 1.0209375 0.02900391 2.0625 0.05859375 C3.0834375 0.06052734 3.0834375 0.06052734 4.125 0.0625 C6.67079314 0.63222387 7.46407061 1.44323473 9.0625 3.49609375 C9.42326355 5.86894226 9.42326355 5.86894226 9.40307617 8.7019043 C9.40284958 9.76277756 9.40262299 10.82365082 9.40238953 11.91667175 C9.38690567 13.0604982 9.37142181 14.20432465 9.35546875 15.3828125 C9.35122391 16.55495804 9.34697906 17.72710358 9.34260559 18.93476868 C9.32579072 22.68460909 9.28813232 26.43391532 9.25 30.18359375 C9.23495684 32.72329954 9.2212678 35.26301374 9.20898438 37.80273438 C9.17587783 44.03406051 9.12407533 50.26498651 9.0625 56.49609375 C4.4425 56.49609375 -0.1775 56.49609375 -4.9375 56.49609375 C-5.01161389 49.16375954 -5.06608565 41.831643 -5.10229492 34.49902344 C-5.11738855 32.00419314 -5.13786548 29.5093894 -5.16381836 27.01464844 C-5.2001754 23.43027189 -5.21722078 19.84624593 -5.23046875 16.26171875 C-5.24595261 15.14492737 -5.26143646 14.02813599 -5.27738953 12.87750244 C-5.27761612 11.83672546 -5.27784271 10.79594849 -5.27807617 9.72363281 C-5.28473801 8.80874084 -5.29139984 7.89384888 -5.29826355 6.95123291 C-4.79286862 3.51181981 -3.51189701 0.89921557 0 0 Z " fill="#FB5C3C" transform="translate(173.9375,326.50390625)"/>
<path d="M0 0 C0.94101562 0.10441406 1.88203125 0.20882813 2.8515625 0.31640625 C-0.6937003 7.37284279 -5.10517266 13.26448844 -10.1484375 19.31640625 C-10.9115625 20.32703125 -11.6746875 21.33765625 -12.4609375 22.37890625 C-19.17127929 29.71346589 -27.65758197 36.14878185 -36.1484375 41.31640625 C-36.8084375 41.31640625 -37.4684375 41.31640625 -38.1484375 41.31640625 C-38.99785071 36.74990274 -39.20098702 32.86262953 -38.1484375 28.31640625 C-35.17547807 24.25627264 -30.81862639 21.43955852 -26.77685547 18.52587891 C-21.4356843 14.55883813 -17.56606585 10.18237442 -14.5234375 4.31640625 C-11.04931774 -1.3729528 -6.09065143 -0.3972164 0 0 Z " fill="#6FBDE4" transform="translate(263.1484375,320.68359375)"/>
<path d="M0 0 C2.97 0 5.94 0 9 0 C8.66711907 9.98642801 4.54261446 19.14138269 -2.3046875 26.47265625 C-7.60872374 31.25117738 -13.01059499 34.51289255 -20 36 C-20.28780873 28.51697305 -20.28780873 28.51697305 -18 25 C-16.046875 23.61328125 -16.046875 23.61328125 -13.75 22.3125 C-5.42756515 16.97383198 -2.22793498 9.36123558 0 0 Z " fill="#AF4E34" transform="translate(323,292)"/>
<path d="M0 0 C3.74020498 1.68152073 5.56134348 3.69039473 8 7 C7.53851563 7.39002197 7.07703125 7.78004395 6.6015625 8.18188477 C0.79230771 13.16954905 -4.61487734 18.49860883 -10 23.9375 C-10.87011719 24.81212891 -11.74023438 25.68675781 -12.63671875 26.58789062 C-14.76013549 28.72297449 -16.88116378 30.86037205 -19 33 C-21.31 31.02 -23.62 29.04 -26 27 C-20.89551178 20.81865131 -15.31705058 15.20177122 -9.625 9.5625 C-8.69816406 8.64017578 -7.77132812 7.71785156 -6.81640625 6.76757812 C-4.54654154 4.50941375 -2.27436462 2.25363058 0 0 Z " fill="#AEAEAE" transform="translate(257,192)"/>
<path d="M0 0 C12.54 0 25.08 0 38 0 C38 2.97 38 5.94 38 9 C25.46 9 12.92 9 0 9 C0 6.03 0 3.06 0 0 Z " fill="#ACACAC" transform="translate(361,194)"/>
<path d="M0 0 C3.90285767 1.58667578 6.33520982 4.13350481 9.25 7.125 C10.14203125 8.03507812 11.0340625 8.94515625 11.953125 9.8828125 C12.62859375 10.58148438 13.3040625 11.28015625 14 12 C10.19524578 16.56030824 6.25030379 20.85089392 2 25 C-1.90285767 23.41332422 -4.33520982 20.86649519 -7.25 17.875 C-8.14203125 16.96492188 -9.0340625 16.05484375 -9.953125 15.1171875 C-10.62859375 14.41851562 -11.3040625 13.71984375 -12 13 C-8.19524578 8.43969176 -4.25030379 4.14910608 0 0 Z " fill="#ECECEC" transform="translate(102,51)"/>
<path d="M0 0 C2.92303336 2.07689213 3.8232829 3.49193834 5 6.875 C5 11.1896412 3.9654961 12.88984555 1 16 C-1.73243372 17.07589578 -4.0866074 17.36417407 -7 17 C-9.85993478 15.23535939 -11.49782849 14.00434303 -13 11 C-13.43023798 7.12785818 -13.31669086 5.47503629 -11.125 2.1875 C-7.38445041 -1.66306575 -5.14450674 -1.1530791 0 0 Z " fill="#F0583A" transform="translate(384,41)"/>
<path d="M0 0 C4.45850936 0.79616239 5.90783917 1.93313458 8.5 5.625 C9.125 9.125 9.125 9.125 8.5 12.625 C5.90783917 16.31686542 4.45850936 17.45383761 0 18.25 C-4.45850936 17.45383761 -5.90783917 16.31686542 -8.5 12.625 C-9.125 9.125 -9.125 9.125 -8.5 5.625 C-5.90783917 1.93313458 -4.45850936 0.79616239 0 0 Z " fill="#F55A3B" transform="translate(352.5,83.375)"/>
<path d="M0 0 C3.69186542 2.59216083 4.82883761 4.04149064 5.625 8.5 C4.82883761 12.95850936 3.69186542 14.40783917 0 17 C-3.63267682 17.50984938 -5.96803659 17.40735398 -9.375 16.0625 C-12.00832418 12.72020392 -12.41794629 9.1867953 -12 5 C-8.76300558 0.0433523 -5.78608171 -1.03322888 0 0 Z " fill="#F55A3B" transform="translate(397,118)"/>
<path d="M0 0 C4 2 4 2 7 6 C3.04 9.96 -0.92 13.92 -5 18 C-9 16 -9 16 -12 12 C-8.04 8.04 -4.08 4.08 0 0 Z " fill="#AEAEAE" transform="translate(102,51)"/>
<path d="M0 0 C3 -0.3125 3 -0.3125 6 0 C8 2 8 2 8.265625 4.75 C8.26046875 5.8225 8.2553125 6.895 8.25 8 C8.25515625 9.0725 8.2603125 10.145 8.265625 11.25 C8 14 8 14 6 16 C3 16.3125 3 16.3125 0 16 C-2.15942819 12.76085771 -2.27232978 11.75140267 -2.25 8 C-2.25515625 7.13375 -2.2603125 6.2675 -2.265625 5.375 C-2 3 -2 3 0 0 Z " fill="#080301" transform="translate(339,323)"/>
<path d="M0 0 C3.5625 0.25 3.5625 0.25 7 1 C8.23184766 3.46369532 8.16732342 5.1894501 8.1875 7.9375 C8.20167969 8.81277344 8.21585937 9.68804687 8.23046875 10.58984375 C8 13 8 13 6 16 C3 16.3125 3 16.3125 0 16 C-2 14 -2 14 -2.265625 11.25 C-2.26046875 10.1775 -2.2553125 9.105 -2.25 8 C-2.25515625 6.9275 -2.2603125 5.855 -2.265625 4.75 C-2 2 -2 2 0 0 Z " fill="#080301" transform="translate(408,313)"/>
<path d="M0 0 C2.4375 0.8125 2.4375 0.8125 4.4375 2.8125 C4.703125 5.34375 4.703125 5.34375 4.6875 8.3125 C4.69265625 9.2921875 4.6978125 10.271875 4.703125 11.28125 C4.4375 13.8125 4.4375 13.8125 2.4375 15.8125 C-0.5625 16.0625 -0.5625 16.0625 -3.5625 15.8125 C-6.16436108 13.21063892 -5.86060177 11.98895645 -5.875 8.375 C-5.89175781 7.40691406 -5.90851563 6.43882812 -5.92578125 5.44140625 C-5.5625 2.8125 -5.5625 2.8125 -4.203125 0.953125 C-2.5625 -0.1875 -2.5625 -0.1875 0 0 Z " fill="#060201" transform="translate(380.5625,351.1875)"/>
<path d="M0 0 C0.96808594 -0.01675781 1.93617188 -0.03351563 2.93359375 -0.05078125 C5.5625 0.3125 5.5625 0.3125 7.421875 1.671875 C8.5625 3.3125 8.5625 3.3125 8.375 5.875 C7.5625 8.3125 7.5625 8.3125 5.5625 10.3125 C3.03125 10.578125 3.03125 10.578125 0.0625 10.5625 C-0.9171875 10.56765625 -1.896875 10.5728125 -2.90625 10.578125 C-5.4375 10.3125 -5.4375 10.3125 -7.4375 8.3125 C-7.6875 5.3125 -7.6875 5.3125 -7.4375 2.3125 C-4.83563892 -0.28936108 -3.61395645 0.01439823 0 0 Z " fill="#F7E3AA" transform="translate(481.4375,445.6875)"/>
<path d="M0 0 C2.875 0.75 2.875 0.75 3.875 1.75 C4.00014928 3.72619447 4.0507276 5.70738173 4.0625 7.6875 C4.07667969 8.76902344 4.09085937 9.85054688 4.10546875 10.96484375 C3.875 13.75 3.875 13.75 1.875 15.75 C-1.6875 15.5 -1.6875 15.5 -5.125 14.75 C-6.35191067 12.29617866 -6.32675931 10.55015897 -6.375 7.8125 C-6.40078125 6.93722656 -6.4265625 6.06195313 -6.453125 5.16015625 C-6.125 2.75 -6.125 2.75 -4.8046875 0.91796875 C-3.125 -0.25 -3.125 -0.25 0 0 Z " fill="#FEC4BB" transform="translate(443.125,330.25)"/>
<path d="M0 0 C1.57554035 2.88628401 2.46276373 5.53342384 3.125 8.75 C3.29257813 9.54921875 3.46015625 10.3484375 3.6328125 11.171875 C3.81457031 12.07679688 3.81457031 12.07679688 4 13 C2.54550599 14.0055761 1.08627557 15.00430435 -0.375 16 C-1.18710938 16.556875 -1.99921875 17.11375 -2.8359375 17.6875 C-5 19 -5 19 -7 19 C-8.0735426 7.51479821 -8.0735426 7.51479821 -5.44140625 3.80078125 C-3.69054267 2.34583827 -1.98570231 1.1093592 0 0 Z " fill="#479BBC" transform="translate(232,343)"/>
<path d="M0 0 C1.26457031 0.05800781 2.52914063 0.11601562 3.83203125 0.17578125 C5.10433594 0.22089844 6.37664062 0.26601563 7.6875 0.3125 C8.66332031 0.37050781 9.63914062 0.42851562 10.64453125 0.48828125 C8.99453125 3.45828125 7.34453125 6.42828125 5.64453125 9.48828125 C1.02453125 9.48828125 -3.59546875 9.48828125 -8.35546875 9.48828125 C-7.69546875 8.16828125 -7.03546875 6.84828125 -6.35546875 5.48828125 C-5.77345703 4.13669922 -5.77345703 4.13669922 -5.1796875 2.7578125 C-3.35546875 0.48828125 -3.35546875 0.48828125 0 0 Z " fill="#48A0C1" transform="translate(255.35546875,320.51171875)"/>
<path d="M0 0 C1.66666667 1.66666667 3.33333333 3.33333333 5 5 C5.598125 5.556875 6.19625 6.11375 6.8125 6.6875 C8 8 8 8 8 10 C5.47107279 12.73397536 3.10404867 14.93063422 0 17 C-2.31 14.36 -4.62 11.72 -7 9 C-1.125 1.125 -1.125 1.125 0 0 Z " fill="#F5B900" transform="translate(264,84)"/>
<path d="M0 0 C3.28880556 1.13052691 5.69700951 2.35863152 8 5 C8.7286245 9.73070169 8.46286541 14.24920084 8 19 C5.03 17.35 2.06 15.7 -1 14 C-1.13392857 3.82142857 -1.13392857 3.82142857 0 0 Z " fill="#49A1C3" transform="translate(119,343)"/>
<path d="M0 0 C2.9375 0.75 2.9375 0.75 4.9375 2.75 C5.26765665 5.85347254 5.44281294 7.90781176 3.8125 10.625 C1.02643958 12.29663625 -0.88238862 12.21376624 -4.0625 11.75 C-6 10.125 -6 10.125 -7.0625 7.75 C-6.9375 4.625 -6.9375 4.625 -6.0625 1.75 C-3.0625 -0.25 -3.0625 -0.25 0 0 Z " fill="#E6E6E6" transform="translate(177.0625,170.25)"/>
<path d="M0 0 C0.66 3.96 1.32 7.92 2 12 C-0.97 13.32 -3.94 14.64 -7 16 C-7.07347656 14.82630859 -7.07347656 14.82630859 -7.1484375 13.62890625 C-7.22320312 12.61699219 -7.29796875 11.60507813 -7.375 10.5625 C-7.44460937 9.55316406 -7.51421875 8.54382813 -7.5859375 7.50390625 C-7.72257813 6.67761719 -7.85921875 5.85132813 -8 5 C-8.66 4.67 -9.32 4.34 -10 4 C-8.71086513 3.32845067 -7.41859796 2.66291141 -6.125 2 C-5.40570313 1.62875 -4.68640625 1.2575 -3.9453125 0.875 C-2 0 -2 0 0 0 Z " fill="#489EBF" transform="translate(138,178)"/>
<path d="M0 0 C3.625 0.375 3.625 0.375 7 1 C7.33 3.31 7.66 5.62 8 8 C4.77626323 10.14915785 3.73296326 10.38286803 0 10 C-2 8 -2 8 -2.25 5 C-2 2 -2 2 0 0 Z " fill="#000102" transform="translate(176,86)"/>
<path d="M0 0 C3.375 -0.125 3.375 -0.125 7 0 C9 2 9 2 9.3125 4.4375 C9 7 9 7 7.8125 8.875 C6 10 6 10 3.4375 9.8125 C1 9 1 9 -1 7 C-0.625 3.375 -0.625 3.375 0 0 Z " fill="#000000" transform="translate(300,364)"/>
<path d="M0 0 C5.56818182 0.56818182 5.56818182 0.56818182 7 2 C7.25 4.9375 7.25 4.9375 7 8 C4 10 4 10 1.4375 9.75 C-1 9 -1 9 -3 7 C-2.67028521 3.70285207 -2.3773161 2.3773161 0 0 Z " fill="#080A06" transform="translate(267,466)"/>
<path d="M0 0 C0.66 0.33 1.32 0.66 2 1 C1.67 1.99 1.34 2.98 1 4 C1.33 4.99 1.66 5.98 2 7 C-0.64 7 -3.28 7 -6 7 C-4.02 4.69 -2.04 2.38 0 0 Z " fill="#AFAFAF" transform="translate(330,275)"/>
</svg>
