<?xml version="1.0" encoding="UTF-8"?>
<svg version="1.1" xmlns="http://www.w3.org/2000/svg" width="512" height="512">
<path d="M0 0 C1.32602234 0.00273422 1.32602234 0.00273422 2.67883301 0.00552368 C15.45445885 0.04990156 27.81296522 0.4593148 40.3125 3.3125 C41.10317871 3.47878906 41.89385742 3.64507812 42.70849609 3.81640625 C68.94091777 9.37041829 94.68311233 20.36003373 116.3125 36.3125 C117.31539063 37.03308594 118.31828125 37.75367188 119.3515625 38.49609375 C158.09934 67.20338876 184.7503898 108.36936545 196.125 155.125 C196.3199707 155.92341309 196.51494141 156.72182617 196.71582031 157.54443359 C199.88775832 171.36502065 200.72163696 185.00850444 200.6875 199.125 C200.68668427 200.40150421 200.68668427 200.40150421 200.68585205 201.70379639 C200.57875809 238.34278223 191.59134236 276.47417162 170.4296875 307.03125 C169.03843891 309.19590217 169.03843891 309.19590217 169.91738605 311.11643887 C171.76422452 314.02356354 174.07517216 316.33029303 176.51713562 318.73072815 C177.05293442 319.26541354 177.58873322 319.80009892 178.14076835 320.3509869 C179.93770541 322.14185114 181.74167865 323.9254567 183.5456543 325.70922852 C184.83552542 326.99198685 186.12492744 328.27521704 187.41389465 329.55888367 C190.19182273 332.3237056 192.97272686 335.0854871 195.7558651 337.84506416 C200.16231579 342.21491295 204.56005172 346.59346087 208.95625305 350.97361755 C221.45940339 363.42848388 233.97413496 375.87167394 246.49780273 388.3059082 C253.41358273 395.17245508 260.32204919 402.04627768 267.22287112 408.92785782 C271.58485775 413.27681244 275.95567586 417.61662324 280.33339059 421.94974244 C283.06614646 424.65889831 285.79036679 427.37651565 288.51234245 430.09649849 C289.76850296 431.3483938 291.02807061 432.59688198 292.2914238 433.8415184 C302.78273587 444.18348605 312.44030097 454.31067954 312.64257812 469.87084961 C312.54248442 483.06236634 310.20442414 491.07090881 301.3125 501.3125 C298.79357299 503.5952776 296.18248041 505.49857299 293.3125 507.3125 C292.0440625 508.17875 292.0440625 508.17875 290.75 509.0625 C281.53756441 513.78682594 268.27809252 514.09830643 258.375 511.3125 C247.09999537 506.27122966 238.48944653 496.90908917 229.9465332 488.28710938 C228.64507992 486.98480808 227.34296214 485.68317056 226.04023743 484.38214111 C222.53425406 480.87701235 219.03754558 477.36276522 215.54252648 473.8467083 C211.87778008 470.16310535 208.20443713 466.48809467 204.5320282 462.81213379 C197.59190335 455.86271472 190.65945618 448.90568949 183.72978801 441.94584513 C175.8348071 434.01723825 167.93122373 426.09723028 160.02693427 418.17790508 C143.77925272 401.89893399 127.54231261 385.60928476 111.3125 369.3125 C107.61151568 370.50768487 104.49162146 371.66391082 101.25 373.8125 C87.26233814 382.39440382 72.05092854 388.77228636 56.3125 393.3125 C55.32636719 393.60181396 55.32636719 393.60181396 54.3203125 393.89697266 C49.6883521 395.2305215 45.03065497 396.33009865 40.3125 397.3125 C39.61576172 397.46348145 38.91902344 397.61446289 38.20117188 397.77001953 C13.73213681 402.83766821 -15.30883885 402.83630012 -39.6875 397.3125 C-40.47962891 397.14621094 -41.27175781 396.97992188 -42.08789062 396.80859375 C-68.31836042 391.25390603 -94.05966338 380.26382232 -115.6875 364.3125 C-116.69039063 363.59191406 -117.69328125 362.87132812 -118.7265625 362.12890625 C-157.47434 333.42161124 -184.1253898 292.25563455 -195.5 245.5 C-195.6949707 244.70158691 -195.88994141 243.90317383 -196.09082031 243.08056641 C-199.33548032 228.94311923 -200.06176477 215.05934253 -200 200.625 C-199.99817719 199.74098511 -199.99635437 198.85697021 -199.99447632 197.94616699 C-199.95009844 185.17054115 -199.5406852 172.81203478 -196.6875 160.3125 C-196.52121094 159.52182129 -196.35492188 158.73114258 -196.18359375 157.91650391 C-190.62958171 131.68408223 -179.63996627 105.94188767 -163.6875 84.3125 C-162.96691406 83.30960937 -162.24632812 82.30671875 -161.50390625 81.2734375 C-132.79661124 42.52566 -91.63063455 15.8746102 -44.875 4.5 C-44.07658691 4.3050293 -43.27817383 4.11005859 -42.45556641 3.90917969 C-28.31811923 0.66451968 -14.43434253 -0.06176477 0 0 Z " fill="#000000" transform="translate(199.6875,-0.3125)"/>
<path d="M0 0 C0.63905273 0.29100586 1.27810547 0.58201172 1.93652344 0.88183594 C16.33889682 7.44731729 28.57580553 16.03571674 40 27 C40.89332031 27.83015625 41.78664063 28.6603125 42.70703125 29.515625 C54.3033281 40.60914534 62.7697936 53.73546257 70 68 C70.48146484 68.94721924 70.48146484 68.94721924 70.97265625 69.91357422 C86.96685528 102.37878678 87.00550422 140.64543382 75.546875 174.453125 C74.17422053 178.0582285 72.65722311 181.5174297 71 185 C70.70899414 185.63905273 70.41798828 186.27810547 70.11816406 186.93652344 C63.54987038 201.34506609 54.95718281 213.56240108 44 225 C42.80697266 226.30517578 42.80697266 226.30517578 41.58984375 227.63671875 C30.33705857 239.53445995 16.78178439 248.4521517 1.88818359 255.15039062 C0.11906156 255.94642692 -1.63452855 256.77673098 -3.38671875 257.609375 C-35.64619967 271.88152848 -72.97727871 272.08060497 -105.890625 259.9140625 C-133.88637525 248.79391999 -158.89114706 229.64698955 -175 204 C-175.36029297 203.43071777 -175.72058594 202.86143555 -176.09179688 202.27490234 C-183.90334373 189.74888214 -189.16707612 176.23883707 -193 162 C-193.18336914 161.36271973 -193.36673828 160.72543945 -193.55566406 160.06884766 C-202.27559741 129.10644471 -197.39697935 94.4841336 -183 66 C-182.65066406 65.29987793 -182.30132812 64.59975586 -181.94140625 63.87841797 C-167.77999686 35.97706971 -144.69084554 15.03554301 -117 1 C-116.36852051 0.67902344 -115.73704102 0.35804687 -115.08642578 0.02734375 C-79.70571694 -17.40319356 -35.41831631 -16.85423328 0 0 Z " fill="#BDE6F3" transform="translate(257,72)"/>
<path d="M0 0 C0.81855469 0.6084375 1.63710938 1.216875 2.48046875 1.84375 C33.95409493 26.07792872 55.63035637 59.09156892 67 97 C67.31710937 98.02738281 67.63421875 99.05476562 67.9609375 100.11328125 C71.68220193 112.84295313 72.54940374 125.82203576 73 139 C73.03399902 139.80969238 73.06799805 140.61938477 73.10302734 141.45361328 C73.85506218 160.90344822 71.32671553 180.5470797 65 199 C64.77505859 199.68626465 64.55011719 200.3725293 64.31835938 201.07958984 C56.28161636 225.44958168 43.63462073 247.3341149 26 266 C24.87037767 267.32941948 23.74520688 268.66263718 22.625 270 C6.10760389 288.81776407 -16.23076816 302.15960233 -39 312 C-39.64517578 312.27972656 -40.29035156 312.55945313 -40.95507812 312.84765625 C-63.84983126 322.56912066 -88.32371736 325.62987508 -113 325 C-113.804375 324.98066406 -114.60875 324.96132813 -115.4375 324.94140625 C-150.83443351 323.93849313 -185.7719244 311.4006344 -214 290 C-214.81855469 289.3915625 -215.63710937 288.783125 -216.48046875 288.15625 C-255.70759172 257.95200523 -279.77237336 214.02343406 -286.52734375 165.1875 C-286.80784792 162.11348172 -286.94959836 159.08613092 -287 156 C-287.02707031 154.70578125 -287.05414063 153.4115625 -287.08203125 152.078125 C-287.64659397 110.80763305 -277.27221338 71.33480384 -252 38 C-251.08734375 36.77216797 -251.08734375 36.77216797 -250.15625 35.51953125 C-225.92207128 4.04590507 -192.90843108 -17.63035637 -155 -29 C-153.97261719 -29.31710938 -152.94523438 -29.63421875 -151.88671875 -29.9609375 C-101.22142615 -44.77192029 -41.55032884 -31.50067364 0 0 Z M-169 19 C-169.70012207 19.34933594 -170.40024414 19.69867188 -171.12158203 20.05859375 C-199.02293029 34.22000314 -219.96445699 57.30915446 -234 85 C-234.32097656 85.63147949 -234.64195312 86.26295898 -234.97265625 86.91357422 C-250.96685528 119.37878678 -251.00550422 157.64543382 -239.546875 191.453125 C-238.17422053 195.0582285 -236.65722311 198.5174297 -235 202 C-234.70899414 202.63905273 -234.41798828 203.27810547 -234.11816406 203.93652344 C-227.55268271 218.33889682 -218.96428326 230.57580553 -208 242 C-207.16984375 242.89332031 -206.3396875 243.78664063 -205.484375 244.70703125 C-194.39085466 256.3033281 -181.26453743 264.7697936 -167 272 C-166.05278076 272.48146484 -166.05278076 272.48146484 -165.08642578 272.97265625 C-132.62121322 288.96685528 -94.35456618 289.00550422 -60.546875 277.546875 C-56.9417715 276.17422053 -53.4825703 274.65722311 -50 273 C-49.36094727 272.70899414 -48.72189453 272.41798828 -48.06347656 272.11816406 C-33.66110318 265.55268271 -21.42419447 256.96428326 -10 246 C-9.10667969 245.16984375 -8.21335937 244.3396875 -7.29296875 243.484375 C11.02292834 225.96259373 22.45993729 203.29552223 29 179 C29.18336914 178.36271973 29.36673828 177.72543945 29.55566406 177.06884766 C38.27559741 146.10644471 33.39697935 111.4841336 19 83 C18.65066406 82.29987793 18.30132812 81.59975586 17.94140625 80.87841797 C6.86840942 59.06197779 -10.26232288 40.02531786 -31 27 C-31.56928223 26.63970703 -32.13856445 26.27941406 -32.72509766 25.90820312 C-45.25111786 18.09665627 -58.76116293 12.83292388 -73 9 C-73.63728027 8.81663086 -74.27456055 8.63326172 -74.93115234 8.44433594 C-105.89355529 -0.27559741 -140.5158664 4.60302065 -169 19 Z " fill="#4BB8E7" transform="translate(307,55)"/>
<path d="M0 0 C1.68222656 0.56847656 1.68222656 0.56847656 3.3984375 1.1484375 C22.20352685 7.82732314 39.33790933 18.46386074 53.89453125 32.046875 C55.61257461 33.64060724 57.34865335 35.11458926 59.1875 36.5625 C79.55458287 54.21397182 94.130052 81.25316786 101 107 C101.34804688 108.216875 101.69609375 109.43375 102.0546875 110.6875 C110.53976958 141.28452153 108.75773776 174.27655678 98 204 C97.62101562 205.12148437 97.24203125 206.24296875 96.8515625 207.3984375 C90.17267686 226.20352685 79.53613926 243.33790933 65.953125 257.89453125 C64.35939276 259.61257461 62.88541074 261.34865335 61.4375 263.1875 C43.59611458 283.77371394 16.55216382 297.09537378 -9 305 C-9.75893555 305.24806396 -10.51787109 305.49612793 -11.29980469 305.75170898 C-40.42605979 315.00793412 -75.39921288 313.09616827 -104 303 C-105.10988281 302.61972656 -106.21976562 302.23945313 -107.36328125 301.84765625 C-132.94646289 292.57023873 -157.95067812 276.42359234 -175 255 C-175.43425293 254.45633789 -175.86850586 253.91267578 -176.31591797 253.35253906 C-190.32374783 235.6707545 -200.32983033 216.56171126 -207 195 C-207.24806396 194.24106445 -207.49612793 193.48212891 -207.75170898 192.70019531 C-217.00793412 163.57394021 -215.09616827 128.60078712 -205 100 C-204.61972656 98.89011719 -204.23945313 97.78023438 -203.84765625 96.63671875 C-189.89094235 58.15002283 -160.7342673 24.6530096 -123.6484375 6.875 C-114.96741927 2.84518383 -106.25969549 -0.52926394 -97 -3 C-95.783125 -3.34804688 -94.56625 -3.69609375 -93.3125 -4.0546875 C-62.71547847 -12.53976958 -29.72344322 -10.75773776 0 0 Z M-115 25 C-115.70012207 25.34933594 -116.40024414 25.69867188 -117.12158203 26.05859375 C-145.02293029 40.22000314 -165.96445699 63.30915446 -180 91 C-180.32097656 91.63147949 -180.64195312 92.26295898 -180.97265625 92.91357422 C-196.96685528 125.37878678 -197.00550422 163.64543382 -185.546875 197.453125 C-184.17422053 201.0582285 -182.65722311 204.5174297 -181 208 C-180.70899414 208.63905273 -180.41798828 209.27810547 -180.11816406 209.93652344 C-173.55268271 224.33889682 -164.96428326 236.57580553 -154 248 C-153.16984375 248.89332031 -152.3396875 249.78664063 -151.484375 250.70703125 C-140.39085466 262.3033281 -127.26453743 270.7697936 -113 278 C-112.05278076 278.48146484 -112.05278076 278.48146484 -111.08642578 278.97265625 C-78.62121322 294.96685528 -40.35456618 295.00550422 -6.546875 283.546875 C-2.9417715 282.17422053 0.5174297 280.65722311 4 279 C4.63905273 278.70899414 5.27810547 278.41798828 5.93652344 278.11816406 C20.33889682 271.55268271 32.57580553 262.96428326 44 252 C44.89332031 251.16984375 45.78664063 250.3396875 46.70703125 249.484375 C65.02292834 231.96259373 76.45993729 209.29552223 83 185 C83.18336914 184.36271973 83.36673828 183.72543945 83.55566406 183.06884766 C92.27559741 152.10644471 87.39697935 117.4841336 73 89 C72.65066406 88.29987793 72.30132812 87.59975586 71.94140625 86.87841797 C60.86840942 65.06197779 43.73767712 46.02531786 23 33 C22.43071777 32.63970703 21.86143555 32.27941406 21.27490234 31.90820312 C8.74888214 24.09665627 -4.76116293 18.83292388 -19 15 C-19.63728027 14.81663086 -20.27456055 14.63326172 -20.93115234 14.44433594 C-51.89355529 5.72440259 -86.5158664 10.60302065 -115 25 Z " fill="#010202" transform="translate(253,49)"/>
<path d="M0 0 C5.40754201 4.51803206 10.45198821 9.2927818 15.44213867 14.26513672 C16.25603561 15.07246246 17.06993256 15.87978821 17.90849304 16.71157837 C20.58122161 19.36471197 23.25002146 22.02174639 25.91796875 24.6796875 C26.83329187 25.5909351 27.748615 26.50218269 28.69167519 27.44104385 C33.03281699 31.76352678 37.37191471 36.08803995 41.7079193 40.415676 C46.69369656 45.3916675 51.68765965 50.35925179 56.6886732 55.319929 C61.03769431 59.63508284 65.37562621 63.96123307 69.70977211 68.29132462 C71.54797522 70.12466218 73.38955081 71.95462489 75.23457909 73.7810936 C77.81459138 76.33674345 80.38166689 78.90474994 82.94604492 81.47607422 C83.70612854 82.22334778 84.46621216 82.97062134 85.24932861 83.74053955 C90.51693811 89.06024077 95.54297289 94.97305549 95.625 102.875 C95.33603489 108.9246244 92.90478186 113.45113041 89 118 C83.92704272 122.29993522 79.01946983 123.55581386 72.45703125 123.46875 C58.08927285 120.72768322 44.89198345 102.01928445 35.0859375 92.18359375 C33.26198904 90.3577774 31.43781758 88.53218379 29.61343384 86.70680237 C25.32657784 82.41653698 21.04195288 78.12405554 16.7584368 73.83045584 C11.87517666 68.93595413 6.98902046 64.04434779 2.10263896 59.15296257 C-7.93476167 49.10515575 -17.96858552 39.05378302 -28 29 C-27.05070679 27.87761548 -26.09928448 26.75703149 -25.14697266 25.63720703 C-24.61737946 25.01298859 -24.08778625 24.38877014 -23.54214478 23.74563599 C-21.63690579 21.58899428 -19.56773504 19.73618747 -17.375 17.875 C-11.1026635 12.35802109 -5.57880722 6.20186989 0 0 Z " fill="#4CB8E8" transform="translate(397,369)"/>
<path d="M0 0 C24.97431304 12.8449547 46.00096259 36.05818395 55.7265625 62.46484375 C56.76963414 67.23605533 56.46511152 70.29745981 53.7890625 74.52734375 C50.26771214 76.75513683 48.08201387 77.0902776 44.0078125 77.2265625 C39.90966263 75.85817342 37.74800139 72.30248612 35.7265625 68.66577148 C34.77404967 66.73879968 33.87135174 64.79423938 32.9765625 62.83984375 C29.34992415 55.27941653 25.08243485 48.95076718 19.7265625 42.46484375 C19.10265625 41.67722656 18.47875 40.88960937 17.8359375 40.078125 C2.51375081 21.63355993 -20.94387338 11.14433876 -44.2734375 7.46484375 C-47.81417121 7.24354789 -51.35381068 7.08655261 -54.8984375 6.94140625 C-59.28854332 6.32150705 -61.89668336 4.70392248 -65.1484375 1.77734375 C-66.86855811 -1.75845972 -66.40727864 -4.82924594 -65.2734375 -8.53515625 C-52.87869355 -24.64832338 -14.04605662 -6.58723181 0 0 Z " fill="#020202" transform="translate(256.2734375,93.53515625)"/>
<path d="M0 0 C4.10108886 1.62156024 6.83148167 4.5767703 9.859375 7.6640625 C10.683237 8.49216934 10.683237 8.49216934 11.52374268 9.33700562 C13.27059293 11.09501815 15.01034601 12.8598689 16.75 14.625 C17.93573591 15.8207708 19.1219288 17.01608865 20.30859375 18.2109375 C23.21105085 21.13540253 26.1071641 24.06601874 29 27 C27.45154245 30.27203574 25.81928489 32.36901745 23.1875 34.875 C20.78564234 37.20786355 18.62332552 39.46142624 16.5 42.0625 C13.84346597 45.18392748 10.982627 47.7339749 7.87109375 50.38671875 C5.81073837 52.16318382 3.88376398 54.03774585 2 56 C-2.10108886 54.37843976 -4.83148167 51.4232297 -7.859375 48.3359375 C-8.40861633 47.78386627 -8.95785767 47.23179504 -9.52374268 46.66299438 C-11.27059293 44.90498185 -13.01034601 43.1401311 -14.75 41.375 C-15.93573591 40.1792292 -17.1219288 38.98391135 -18.30859375 37.7890625 C-21.21105085 34.86459747 -24.1071641 31.93398126 -27 29 C-25.67718234 26.02727232 -24.29543534 24.09756145 -21.875 21.93359375 C-20.94506226 21.08885498 -20.94506226 21.08885498 -19.99633789 20.22705078 C-19.33754639 19.63649902 -18.67875488 19.04594727 -18 18.4375 C-11.60000027 12.59720192 -5.67686985 6.54509701 0 0 Z " fill="#FAF1C9" transform="translate(354,327)"/>
<path d="M0 0 C3.23614894 2.12904535 4.29269525 4.18134969 5.0625 7.875 C5.334065 11.41859207 4.9214213 12.13505715 3 15.4375 C-0.54594585 18.46632874 -2.36299711 19.08280362 -7 19 C-10.62036655 17.4366599 -13.2601659 15.57632565 -15 12 C-15.21431243 7.84233882 -14.6796522 4.88354786 -12.125 1.5625 C-7.96492179 -1.49638104 -4.8863851 -1.11443871 0 0 Z " fill="#040405" transform="translate(315,191)"/>
</svg>
