<?xml version="1.0" encoding="UTF-8"?>
<svg version="1.1" xmlns="http://www.w3.org/2000/svg" width="512" height="512">
<path d="M0 0 C1.68538869 0.00056958 1.68538869 0.00056958 3.40482563 0.00115067 C4.69567304 -0.00084038 5.98652045 -0.00283143 7.31648445 -0.00488281 C8.76773516 -0.00202921 10.21898569 0.0009164 11.67023605 0.00394398 C13.19727542 0.00350841 14.72431472 0.00263377 16.25135362 0.00135481 C20.46768603 -0.00089299 24.68399329 0.00313501 28.9003225 0.00813287 C33.43954297 0.01243312 37.97876192 0.01099126 42.51798385 0.0102306 C50.38918341 0.00970509 58.26037471 0.01285467 66.13157219 0.01846844 C77.51213992 0.02657984 88.89270363 0.02919829 100.27327394 0.03045643 C118.7354665 0.03264752 137.19765465 0.03930914 155.65984482 0.04875904 C173.59897219 0.05793169 191.53809838 0.06501325 209.47722763 0.06926686 C210.58215327 0.06952958 211.68707891 0.0697923 212.82548714 0.07006299 C218.36832287 0.07136798 223.9111586 0.0726317 229.45399433 0.07387489 C275.4704495 0.08424927 321.48689986 0.10186912 367.50335068 0.1241985 C367.77918342 0.65065313 368.05501616 1.17710776 368.33920747 1.71951556 C369.6184207 4.15957608 370.89918193 6.598821 372.1799559 9.03806263 C372.61355391 9.86569473 373.04715193 10.69332683 373.49388927 11.54603869 C376.48456685 17.23837504 379.55171485 22.88327888 382.67766708 28.50237232 C383.41227551 29.82819734 383.41227551 29.82819734 384.16172451 31.1808067 C384.55190667 31.88479658 384.94208883 32.58878647 385.34409469 33.31410939 C432.12494588 118.06379394 432.12494588 118.06379394 421.50335068 161.1241985 C418.85073649 170.22512738 414.66350797 177.76180942 406.50335068 183.1241985 C405.84335068 183.1241985 405.18335068 183.1241985 404.50335068 183.1241985 C404.50335068 235.2641985 404.50335068 287.4041985 404.50335068 341.1241985 C410.11335068 341.1241985 415.72335068 341.1241985 421.50335068 341.1241985 C421.50335068 397.5541985 421.50335068 453.9841985 421.50335068 512.1241985 C263.76335068 512.1241985 106.02335068 512.1241985 -56.49664932 512.1241985 C-56.49664932 455.6941985 -56.49664932 399.2641985 -56.49664932 341.1241985 C-50.88664932 341.1241985 -45.27664932 341.1241985 -39.49664932 341.1241985 C-39.49664932 288.9841985 -39.49664932 236.8441985 -39.49664932 183.1241985 C-41.14664932 182.4641985 -42.79664932 181.8041985 -44.49664932 181.1241985 C-54.94186971 171.87333803 -56.82499075 160.97527489 -57.74215752 147.75186688 C-59.84901617 111.25022112 -49.38882126 85.85918962 -31.98615128 54.33702809 C-29.02880203 48.95396288 -26.20272267 43.50171994 -23.36372155 38.05564207 C-18.48142585 28.69693851 -13.5329271 19.37648035 -8.47540909 10.11125904 C-7.73741829 8.75713917 -7.73741829 8.75713917 -6.98451859 7.37566334 C-6.53719376 6.56042698 -6.08986893 5.74519062 -5.6289888 4.90525013 C-5.23907037 4.19462768 -4.84915194 3.48400522 -4.4474178 2.75184876 C-2.92495976 0.14550526 -2.92495976 0.14550526 0 0 Z M-0.12164932 179.3741985 C-6.6978005 184.98139986 -12.79511752 186.38389214 -21.49664932 188.1241985 C-21.49664932 238.6141985 -21.49664932 289.1041985 -21.49664932 341.1241985 C-13.57664932 341.1241985 -5.65664932 341.1241985 2.50335068 341.1241985 C0.85335068 337.8241985 -0.79664932 334.5241985 -2.49664932 331.1241985 C-4.74475168 325.12925888 -4.86314553 319.45101818 -4.87164932 313.1241985 C-4.89614151 312.165136 -4.9206337 311.2060735 -4.94586807 310.2179485 C-4.97168636 303.95271035 -4.2119912 300.21683709 -0.49664932 295.1241985 C5.53475856 290.24774106 11.94873826 290.35140488 19.50335068 290.1241985 C19.1656163 289.41134693 18.82788193 288.69849537 18.47991318 287.96404225 C18.03389755 287.00626881 17.58788193 286.04849537 17.12835068 285.0616985 C16.6874913 284.12197193 16.24663193 283.18224537 15.79241318 282.21404225 C12.87924991 275.23127818 12.1389252 269.10038826 12.12835068 261.6241985 C12.10385849 260.71283131 12.0793663 259.80146412 12.05413193 258.86247975 C12.02757121 252.72695498 12.89840421 249.12671479 16.50335068 244.1241985 C23.85724453 238.0492427 32.33246123 238.61551707 41.39397568 239.36247975 C48.3918517 240.26927258 53.84771962 242.46277249 60.00725693 245.882011 C62.4863001 247.34696427 62.4863001 247.34696427 65.50335068 247.1241985 C66.01897568 246.3610735 66.53460068 245.5979485 67.06585068 244.8116985 C71.05979767 240.40811591 76.16051079 239.46487008 81.95647568 238.8741985 C84.50223443 238.8085015 86.96502338 238.91961689 89.50335068 239.1241985 C90.89167099 239.22861256 90.89167099 239.22861256 92.30803818 239.335136 C104.55628509 240.79712833 114.92491338 246.07789773 122.73381943 255.6398235 C128.66001727 263.96004828 130.73683938 272.4395003 131.12835068 282.5616985 C131.16702255 283.38863209 131.20569443 284.21556568 131.24553818 285.06755787 C131.33888159 287.08610922 131.42216029 289.10512181 131.50335068 291.1241985 C132.19299911 291.34333912 132.88264755 291.56247975 133.59319443 291.788261 C144.86176362 295.59082344 154.25285356 301.18479845 160.01116318 311.94060475 C162.5311385 317.34775181 164.50226835 322.24664612 164.81975693 328.2335735 C164.85786484 328.91387623 164.89597275 329.59417897 164.93523544 330.29509693 C164.97833847 331.14620045 165.0214415 331.99730397 165.06585068 332.8741985 C165.28241318 336.9579485 165.28241318 336.9579485 165.50335068 341.1241985 C176.72335068 341.1241985 187.94335068 341.1241985 199.50335068 341.1241985 C199.50335068 318.6841985 199.50335068 296.2441985 199.50335068 273.1241985 C207.75335068 273.1241985 216.00335068 273.1241985 224.50335068 273.1241985 C224.52913193 271.07458912 224.55491318 269.02497975 224.58147568 266.913261 C224.62324957 264.89418948 224.6651662 262.87511846 224.71087021 260.85613209 C224.73882711 259.46953373 224.76016538 258.0827835 224.77434677 256.69597584 C224.88136408 246.81471104 226.14955095 239.02688601 231.06585068 230.3741985 C233.50335068 228.1241985 233.50335068 228.1241985 235.99163193 227.12810475 C241.71901024 224.78585934 241.71901024 224.78585934 245.59563583 220.12761647 C247.86213638 214.64206166 250.50335068 208.12812756 250.50335068 202.1241985 C255.78335068 203.7741985 261.06335068 205.4241985 266.50335068 207.1241985 C265.85349864 211.67316278 265.2819232 215.30525091 263.94085068 219.5616985 C263.53672958 220.8591399 263.53672958 220.8591399 263.12444443 222.18279225 C262.81700302 223.14378834 262.81700302 223.14378834 262.50335068 224.1241985 C264.48335068 225.4441985 266.46335068 226.7641985 268.50335068 228.1241985 C269.41085068 227.5054485 270.31835068 226.8866985 271.25335068 226.2491985 C274.50335068 224.1241985 274.50335068 224.1241985 276.60003036 223.24529225 C279.04365455 221.8059487 279.36359745 220.73533181 280.20647568 218.0616985 C280.46428818 217.26505787 280.72210068 216.46841725 280.98772568 215.647636 C281.24038193 214.81490162 281.49303818 213.98216725 281.75335068 213.1241985 C282.02147568 212.29146412 282.28960068 211.45872975 282.56585068 210.600761 C283.98644573 206.43995183 283.98644573 206.43995183 284.50335068 202.1241985 C289.78335068 203.7741985 295.06335068 205.4241985 300.50335068 207.1241985 C299.85349864 211.67316278 299.2819232 215.30525091 297.94085068 219.5616985 C297.53672958 220.8591399 297.53672958 220.8591399 297.12444443 222.18279225 C296.81700302 223.14378834 296.81700302 223.14378834 296.50335068 224.1241985 C298.48335068 225.4441985 300.46335068 226.7641985 302.50335068 228.1241985 C303.41085068 227.5054485 304.31835068 226.8866985 305.25335068 226.2491985 C308.50335068 224.1241985 308.50335068 224.1241985 310.60003036 223.22942311 C312.97527881 221.85015814 313.33866014 220.88658414 314.20647568 218.31560475 C314.46428818 217.56859303 314.72210068 216.82158131 314.98772568 216.05193287 C315.24038193 215.27140553 315.49303818 214.49087818 315.75335068 213.6866985 C316.02147568 212.91003834 316.28960068 212.13337818 316.56585068 211.33318287 C317.66149173 208.08818476 318.50335068 205.57801268 318.50335068 202.1241985 C323.78335068 203.7741985 329.06335068 205.4241985 334.50335068 207.1241985 C334.50335068 211.22550655 333.7457036 213.9918456 332.50335068 217.8741985 C332.13210068 219.04466725 331.76085068 220.215136 331.37835068 221.4210735 C331.08960068 222.31310475 330.80085068 223.205136 330.50335068 224.1241985 C331.55522568 224.7841985 332.60710068 225.4441985 333.69085068 226.1241985 C339.49296781 230.29373611 342.46758144 235.65966752 344.09490341 242.58000904 C344.9989185 248.2110558 344.98953883 253.93291276 345.12835068 259.6241985 C345.16702255 260.9235735 345.20569443 262.2229485 345.24553818 263.5616985 C345.3392817 266.74897847 345.42238146 269.93656842 345.50335068 273.1241985 C353.75335068 273.1241985 362.00335068 273.1241985 370.50335068 273.1241985 C370.50335068 295.5641985 370.50335068 318.0041985 370.50335068 341.1241985 C375.78335068 341.1241985 381.06335068 341.1241985 386.50335068 341.1241985 C386.50335068 290.6341985 386.50335068 240.1441985 386.50335068 188.1241985 C382.21335068 187.1341985 377.92335068 186.1441985 373.50335068 185.1241985 C370.23599323 183.17175319 367.45080983 181.41454013 364.50335068 179.1241985 C363.51335068 178.4641985 362.52335068 177.8041985 361.50335068 177.1241985 C360.99546005 177.52251881 360.48756943 177.92083912 359.96428818 178.33122975 C350.10521634 185.91939178 341.94457345 188.13256244 329.50335068 187.1241985 C322.06841074 185.456103 316.91471221 182.41530755 311.50335068 177.1241985 C308.50100363 178.53387837 305.89192479 180.20514051 303.19085068 182.1241985 C295.35983054 187.3279558 287.75055142 187.98640836 278.50335068 187.1241985 C271.06685084 185.44190547 265.92000152 182.42047932 260.50335068 177.1241985 C257.84510893 178.37547498 255.6140378 179.7401724 253.31585068 181.5616985 C244.68962054 187.72589677 235.06592686 188.3216963 224.76506943 186.69060475 C218.18963777 185.04419029 213.53710285 181.56216841 208.50335068 177.1241985 C207.9696788 177.51091725 207.43600693 177.897636 206.88616318 178.2960735 C196.72160305 185.40071414 188.0874478 188.5673289 175.50335068 187.1241985 C169.50735134 185.54460727 164.47684138 182.76333804 159.50335068 179.1241985 C158.51335068 178.4641985 157.52335068 177.8041985 156.50335068 177.1241985 C155.99546005 177.52251881 155.48756943 177.92083912 154.96428818 178.33122975 C145.10577067 185.91896513 136.94429625 188.13369237 124.50335068 187.1241985 C117.05632452 185.43388776 111.25726692 182.07025831 105.50335068 177.1241985 C104.74151474 177.72167897 104.74151474 177.72167897 103.96428818 178.33122975 C94.10521634 185.91939178 85.94457345 188.13256244 73.50335068 187.1241985 C66.06841074 185.456103 60.91471221 182.41530755 55.50335068 177.1241985 C52.50100363 178.53387837 49.89192479 180.20514051 47.19085068 182.1241985 C39.35983054 187.3279558 31.75055142 187.98640836 22.50335068 187.1241985 C15.82459894 185.61332407 10.72028324 183.1135402 5.84319443 178.2960735 C3.2334133 176.0134661 2.39693244 177.21541413 -0.12164932 179.3741985 Z " fill="#010100" transform="translate(73.49664932489395,-0.12419849634170532)"/>
<path d="M0 0 C146.52 0 293.04 0 444 0 C444 45.21 444 90.42 444 137 C297.48 137 150.96 137 0 137 C0 91.79 0 46.58 0 0 Z " fill="#FDD90B" transform="translate(34,358)"/>
<path d="M0 0 C3.63303084 1.69586126 5.94549046 3.73800488 8.75 6.625 C9.94882812 7.85089844 9.94882812 7.85089844 11.171875 9.1015625 C11.77515625 9.72804688 12.3784375 10.35453125 13 11 C7.4403141 17.79517165 1.23892663 23.83039478 -5 30 C1.93 30.33 8.86 30.66 16 31 C16 36.61 16 42.22 16 48 C10.06 48 4.12 48 -2 48 C-2 50.97 -2 53.94 -2 57 C-3.65509964 65.04401572 -8.45925456 72.1135075 -15 77 C-21.16540866 80.88145022 -27.7621736 84.00032942 -34.30371094 87.18701172 C-38.50810279 89.23928856 -42.67885506 91.35690207 -46.8515625 93.47265625 C-49.92114058 95.02489381 -52.99165145 96.57527758 -56.0625 98.125 C-57.18396927 98.69155807 -57.18396927 98.69155807 -58.32809448 99.26956177 C-60.47823751 100.35345419 -62.6312213 101.4314789 -64.78515625 102.5078125 C-65.42494415 102.83125137 -66.06473206 103.15469025 -66.72390747 103.4879303 C-74.99787103 107.60458934 -81.50494035 108.33837985 -90.625 108.3125 C-92.29369141 108.33666992 -92.29369141 108.33666992 -93.99609375 108.36132812 C-104.61381572 108.36750841 -114.37639753 106.54789192 -123.6875 101.3125 C-124.32123535 100.96147217 -124.9549707 100.61044434 -125.60791016 100.2487793 C-140.04850437 91.99569384 -149.32496072 78.88261111 -154 63 C-155.31355785 57.22882001 -155.25664166 51.3911924 -155.3125 45.5 C-155.34150391 44.48035156 -155.37050781 43.46070313 -155.40039062 42.41015625 C-155.45249564 36.24573175 -155.11873511 32.68553352 -151 28 C-144.84043413 22.16462181 -138.59260467 21.66422537 -130.4375 21.8125 C-109.84840761 22.9355414 -95.29373336 31.65520847 -81 46 C-80.50971313 45.33581055 -80.50971313 45.33581055 -80.00952148 44.65820312 C-59.1899903 16.51321354 -59.1899903 16.51321354 -45 14 C-36.66394088 13.20701062 -29.93236055 13.77309677 -22.3046875 17.3203125 C-20.04876146 18.23892142 -20.04876146 18.23892142 -18.09912109 17.2734375 C-15.7482349 15.84726602 -14.03765525 14.26406904 -12.109375 12.3046875 C-11.40039062 11.58925781 -10.69140625 10.87382812 -9.9609375 10.13671875 C-9.23132813 9.39035156 -8.50171875 8.64398438 -7.75 7.875 C-7.00492188 7.12089844 -6.25984375 6.36679687 -5.4921875 5.58984375 C-3.6568658 3.73099228 -1.8263809 1.86762995 0 0 Z " fill="#020200" transform="translate(343,370)"/>
<path d="M0 0 C45.21 0 90.42 0 137 0 C137 16.83 137 33.66 137 51 C91.79 51 46.58 51 0 51 C0 34.17 0 17.34 0 0 Z " fill="#FBA600" transform="translate(290,290)"/>
<path d="M0 0 C11.22 0 22.44 0 34 0 C34 33.99 34 67.98 34 103 C22.78 103 11.56 103 0 103 C0 69.01 0 35.02 0 0 Z " fill="#F8BD00" transform="translate(290,17)"/>
<path d="M0 0 C11.22 0 22.44 0 34 0 C34 33.99 34 67.98 34 103 C22.78 103 11.56 103 0 103 C0 69.01 0 35.02 0 0 Z " fill="#F8BD00" transform="translate(188,17)"/>
<path d="M0 0 C11.22 0 22.44 0 34 0 C34 33.66 34 67.32 34 102 C22.78 102 11.56 102 0 102 C0 68.34 0 34.68 0 0 Z " fill="#DD0417" transform="translate(239,17)"/>
<path d="M0 0 C5.61 0 11.22 0 17 0 C26.21155961 17.40013292 35.14418349 34.93108293 43.98974609 52.51953125 C45.75712721 56.03176965 47.53230166 59.53990741 49.31396484 63.04492188 C51.49053465 67.32706158 53.65332954 71.61589256 55.80646896 75.9098587 C56.62219384 77.5309376 57.44270895 79.14961571 58.26820755 80.76573944 C59.41551316 83.01420272 60.54487191 85.27085323 61.67041016 87.53027344 C62.17983658 88.51373245 62.17983658 88.51373245 62.69955444 89.51705933 C65.03723163 94.27716356 65 96.25977844 65 102 C52.79 102 40.58 102 28 102 C26.4840625 96.5240625 26.4840625 96.5240625 24.9375 90.9375 C22.5728279 82.44159878 20.11059981 73.98596618 17.5 65.5625 C14.64804817 56.34488327 12.09881513 47.06741489 9.64038086 37.73779297 C7.36810947 29.18222515 4.8414489 20.72242296 2.1328125 12.29492188 C1.85308594 11.40740234 1.57335937 10.51988281 1.28515625 9.60546875 C1.03644775 8.83356201 0.78773926 8.06165527 0.53149414 7.26635742 C0 5 0 5 0 0 Z " fill="#DB0317" transform="translate(413,17)"/>
<path d="M0 0 C1.58206057 0.00667536 3.16410534 0.0186375 4.74609375 0.03515625 C5.55240234 0.03966797 6.35871094 0.04417969 7.18945312 0.04882812 C9.18753131 0.06065107 11.18557158 0.07858711 13.18359375 0.09765625 C12.46204547 6.61009203 10.78265823 12.78601632 9.05859375 19.09765625 C8.74728516 20.24685547 8.43597656 21.39605469 8.11523438 22.58007812 C5.83791674 30.90580477 3.3718637 39.16103913 0.81225586 47.40356445 C-1.75489602 55.73409053 -4.01462212 64.13443648 -6.24633789 72.56005859 C-8.88507005 82.4776123 -11.81377296 92.28417184 -14.81640625 102.09765625 C-27.02640625 102.09765625 -39.23640625 102.09765625 -51.81640625 102.09765625 C-51.81640625 94.22261421 -51.81640625 94.22261421 -50.03883362 90.69400024 C-49.4478035 89.49533829 -49.4478035 89.49533829 -48.84483337 88.27246094 C-48.18796288 86.99411377 -48.18796288 86.99411377 -47.51782227 85.68994141 C-47.06101074 84.77368988 -46.60419922 83.85743835 -46.13354492 82.91342163 C-44.62576438 79.89763953 -43.0983282 76.89229183 -41.5703125 73.88671875 C-40.51779224 71.79220045 -39.46645241 69.69708859 -38.41624451 67.60140991 C-35.65239758 62.09474139 -32.87148971 56.5968584 -30.08728027 51.10046387 C-27.81087029 46.59953207 -25.54644405 42.09262619 -23.28265476 37.58533669 C-18.61567931 28.29363192 -13.94107593 19.00572709 -9.24438477 9.72900391 C-8.80849533 8.86462708 -8.3726059 8.00025024 -7.92350769 7.10968018 C-7.52666779 6.32749115 -7.12982788 5.54530212 -6.72096252 4.7394104 C-6.37529016 4.0562356 -6.02961779 3.3730608 -5.6734705 2.66918373 C-4.01055276 -0.37997031 -3.99736168 0.10228663 0 0 Z " fill="#DB0317" transform="translate(85.81640625,16.90234375)"/>
<path d="M0 0 C6.27 0 12.54 0 19 0 C20.82989033 12.54295269 22.65617385 25.08641601 24.47612 37.63081551 C25.32134419 43.45570538 26.16814458 49.28035699 27.01855469 55.10449219 C27.83924378 60.72548577 28.65578257 66.34706801 29.4694519 71.96908188 C29.78055196 74.11347803 30.09314482 76.25765815 30.40725708 78.40161514 C30.84707771 81.40536814 31.28157634 84.40984654 31.71484375 87.41455078 C31.84575409 88.30000076 31.97666443 89.18545074 32.11154175 90.09773254 C32.2293399 90.92215347 32.34713806 91.7465744 32.46850586 92.59597778 C32.57174667 93.30575838 32.67498749 94.01553898 32.78135681 94.74682808 C33.04715893 97.48598437 33 100.24797748 33 103 C22.11 103 11.22 103 0 103 C0 69.01 0 35.02 0 0 Z " fill="#D70317" transform="translate(341,17)"/>
<path d="M0 0 C6.27 0 12.54 0 19 0 C19 33.99 19 67.98 19 103 C8.11 103 -2.78 103 -14 103 C-13.40926154 95.32040005 -12.81864716 87.84613511 -11.69311523 80.26245117 C-11.56617279 79.38273148 -11.43923035 78.50301178 -11.30844116 77.59663391 C-10.89590784 74.74480225 -10.47732584 71.89389621 -10.05859375 69.04296875 C-9.76818178 67.04378148 -9.4781543 65.04453831 -9.18849182 63.04524231 C-8.43115956 57.82519276 -7.66866286 52.60591073 -6.9050293 47.38677979 C-6.12427557 42.04412073 -5.34848975 36.70074056 -4.57226562 31.35742188 C-3.05299428 20.90424119 -1.52779804 10.45193786 0 0 Z " fill="#D70317" transform="translate(152,17)"/>
<path d="M0 0 C5.94 0 11.88 0 18 0 C18.42410156 1.53785156 18.84820312 3.07570313 19.28515625 4.66015625 C22.23221837 15.29317677 25.23353451 25.89779129 28.5 36.4375 C31.35195183 45.65511673 33.90118487 54.93258511 36.35961914 64.26220703 C38.63189053 72.81777485 41.1585511 81.27757704 43.8671875 89.70507812 C44.14691406 90.59259766 44.42664063 91.48011719 44.71484375 92.39453125 C44.96355225 93.16643799 45.21226074 93.93834473 45.46850586 94.73364258 C46 97 46 97 46 102 C35.44 102 24.88 102 14 102 C10.93512764 83.22407632 8.11851699 64.42342003 5.42578125 45.59130859 C4.85676545 41.61357193 4.28121639 37.63680776 3.70426559 33.66021538 C3.25483857 30.55509476 2.80983852 27.44935142 2.36606598 24.34341812 C2.15556771 22.87527609 1.94348066 21.40736085 1.72969818 19.93969345 C1.43329234 17.90167631 1.1431523 15.86285713 0.85449219 13.82373047 C0.68890808 12.67113739 0.52332397 11.51854431 0.35272217 10.33102417 C-0.01011253 6.90449966 0 3.44568125 0 0 Z " fill="#F6BB00" transform="translate(377,17)"/>
<path d="M0 0 C5.94 0 11.88 0 18 0 C17.34945699 11.31466496 15.93908094 22.39377511 14.3125 33.6015625 C14.04691262 35.45521853 13.78170141 37.30892849 13.5168457 39.16268921 C12.96509584 43.01726646 12.41012636 46.87136058 11.85253906 50.72509766 C11.13820504 55.66274976 10.43010636 60.60127073 9.72413635 65.54012489 C9.17856169 69.35445124 8.63073727 73.16845155 8.0821228 76.98234177 C7.82011705 78.80433894 7.55857751 80.62640323 7.29751587 82.44853592 C6.93355631 84.98504794 6.56681032 87.52114103 6.19921875 90.05712891 C6.09217621 90.80621521 5.98513367 91.55530151 5.87484741 92.3270874 C5.39498085 95.61842888 4.80812855 98.76748578 4 102 C-6.56 102 -17.12 102 -28 102 C-27.3663602 97.56452143 -26.7591095 93.68777753 -25.6171875 89.4375 C-25.34068359 88.40560547 -25.06417969 87.37371094 -24.77929688 86.31054688 C-24.33166992 84.67182617 -24.33166992 84.67182617 -23.875 83 C-23.56369141 81.85080078 -23.25238281 80.70160156 -22.93164062 79.51757812 C-20.65432299 71.19185148 -18.18826995 62.93661712 -15.62866211 54.6940918 C-13.06151023 46.36356572 -10.80178413 37.96321977 -8.57006836 29.53759766 C-5.9313362 19.62004395 -3.00263329 9.81348441 0 0 Z " fill="#F6BB00" transform="translate(117,17)"/>
<path d="M0 0 C13.94899173 -0.63726358 25.82825926 0.70097881 37 10 C45.04950004 17.54538993 49.91749226 27.00234892 51 38 C51.13968236 42.33978645 51.12244177 46.6601194 51 51 C36.29862608 51.51184667 23.2932489 49.20000863 12.125 38.875 C1.5634888 27.48926923 -0.41453263 14.90014503 0 0 Z " fill="#77D30C" transform="translate(205,410)"/>
<path d="M0 0 C33.99 0 67.98 0 103 0 C103 5.61 103 11.22 103 17 C69.01 17 35.02 17 0 17 C0 11.39 0 5.78 0 0 Z " fill="#040200" transform="translate(307,307)"/>
<path d="M0 0 C4.36816693 2.61104715 8.61668736 5.8956781 10.15234375 10.94140625 C11.24694806 16.37425884 11.41203709 21.27266919 8.703125 26.2421875 C2.33105371 34.88531296 -10.17512405 39.08763256 -19.59277344 43.77050781 C-21.94772068 44.94255074 -24.29820038 46.12323275 -26.6484375 47.3046875 C-28.14557662 48.05259744 -29.64296331 48.80001204 -31.140625 49.546875 C-31.84264038 49.89990692 -32.54465576 50.25293884 -33.26794434 50.6166687 C-38.19186572 53.0546875 -38.19186572 53.0546875 -40.421875 53.0546875 C-40.48246094 52.22066406 -40.54304688 51.38664062 -40.60546875 50.52734375 C-40.68925781 49.40199219 -40.77304687 48.27664063 -40.859375 47.1171875 C-40.94058594 46.01503906 -41.02179688 44.91289062 -41.10546875 43.77734375 C-41.32632221 40.29611333 -41.32632221 40.29611333 -41.87353516 37.8840332 C-42.49449961 34.57801848 -42.90788804 32.12590251 -41.48999023 29.00073242 C-40.0719569 26.9269196 -38.55261698 25.02799427 -36.921875 23.1171875 C-35.80462778 21.72895947 -34.68873786 20.33963796 -33.57421875 18.94921875 C-33.03007324 18.28486816 -32.48592773 17.62051758 -31.92529297 16.93603516 C-29.96685747 14.48528752 -28.22120565 11.91573581 -26.484375 9.3046875 C-20.22445393 0.24907353 -10.86649078 -4.24143672 0 0 Z " fill="#FC6435" transform="translate(313.421875,401.9453125)"/>
<path d="M0 0 C11.22 0 22.44 0 34 0 C34.0825 3.3 34.165 6.6 34.25 10 C34.28641602 11.02351562 34.32283203 12.04703125 34.36035156 13.1015625 C34.43427608 19.2635291 33.56536621 23.88623727 30 29 C24.66572043 34.07407081 20.05995848 34.35454117 12.94921875 34.27734375 C7.71474244 33.78509498 5.25341399 31.3906491 1.859375 27.625 C-1.25383706 22.84253279 -0.41645781 17.10264042 -0.25 11.625 C-0.1675 7.78875 -0.085 3.9525 0 0 Z " fill="#F7D40B" transform="translate(393,136)"/>
<path d="M0 0 C11.22 0 22.44 0 34 0 C34.0825 3.3 34.165 6.6 34.25 10 C34.28641602 11.02351562 34.32283203 12.04703125 34.36035156 13.1015625 C34.43427608 19.2635291 33.56536621 23.88623727 30 29 C24.66572043 34.07407081 20.05995848 34.35454117 12.94921875 34.27734375 C7.71474244 33.78509498 5.25341399 31.3906491 1.859375 27.625 C-1.25383706 22.84253279 -0.41645781 17.10264042 -0.25 11.625 C-0.1675 7.78875 -0.085 3.9525 0 0 Z " fill="#F7401C" transform="translate(137,136)"/>
<path d="M0 0 C11.22 0 22.44 0 34 0 C34.0825 3.83625 34.165 7.6725 34.25 11.625 C34.28641602 12.82334473 34.32283203 14.02168945 34.36035156 15.25634766 C34.42534173 21.49854889 34.28451141 25.31477889 30 30 C24.82760336 34.094814 20.43155025 34.69547257 13.875 34.44140625 C9.43887328 33.76031614 7.00602322 32.25138336 4 29 C-0.26143974 22.91120321 -0.50742916 17.23535404 -0.25 10 C-0.1675 6.7 -0.085 3.4 0 0 Z " fill="#F7401C" transform="translate(341,136)"/>
<path d="M0 0 C11.22 0 22.44 0 34 0 C34.0825 3.83625 34.165 7.6725 34.25 11.625 C34.28641602 12.82334473 34.32283203 14.02168945 34.36035156 15.25634766 C34.42534173 21.49854889 34.28451141 25.31477889 30 30 C24.82760336 34.094814 20.43155025 34.69547257 13.875 34.44140625 C9.43887328 33.76031614 7.00602322 32.25138336 4 29 C-0.26143974 22.91120321 -0.50742916 17.23535404 -0.25 10 C-0.1675 6.7 -0.085 3.4 0 0 Z " fill="#F7D40B" transform="translate(85,136)"/>
<path d="M0 0 C11.22 0 22.44 0 34 0 C34.0825 3.320625 34.165 6.64125 34.25 10.0625 C34.28641602 11.09511963 34.32283203 12.12773926 34.36035156 13.19165039 C34.43436398 19.37944624 33.64987888 22.96316715 30 28 C24.45150611 33.0200659 20.65980491 33.46725816 13.27734375 33.41015625 C9.18759207 32.89832797 7.25899319 31.73030939 4.3671875 28.8984375 C-0.15523662 22.61872858 -0.38403851 17.62129201 -0.1875 10.125 C-0.125625 6.78375 -0.06375 3.4425 0 0 Z " fill="#FD411C" transform="translate(239,137)"/>
<path d="M0 0 C11.22 0 22.44 0 34 0 C34.1546875 4.95 34.1546875 4.95 34.3125 10 C34.35802002 11.02351562 34.40354004 12.04703125 34.45043945 13.1015625 C34.54926821 19.69184672 33.23272394 23.90711608 29 29 C24.27886604 33.30456332 19.26341433 33.51788433 13.08984375 33.48046875 C8.06955442 32.69981693 5.0076611 29.98707894 2 26 C0.35677002 22.49720859 -0.24264778 19.7757937 -0.1953125 15.91796875 C-0.19031738 15.0777417 -0.18532227 14.23751465 -0.18017578 13.37182617 C-0.16196777 12.32099854 -0.14375977 11.2701709 -0.125 10.1875 C-0.08375 6.825625 -0.0425 3.46375 0 0 Z " fill="#FD411C" transform="translate(444,137)"/>
<path d="M0 0 C11.22 0 22.44 0 34 0 C34.061875 3.34125 34.12375 6.6825 34.1875 10.125 C34.22846802 11.68758545 34.22846802 11.68758545 34.27026367 13.28173828 C34.32516797 19.42039333 33.84093139 23.95666128 29.46484375 28.64453125 C23.22147277 33.41887377 18.80633976 33.70594685 11 33 C5.50120848 30.60052734 2.37144756 26.41095533 0 21 C-0.56922415 17.29676365 -0.4785975 13.73469501 -0.3125 10 C-0.209375 6.7 -0.10625 3.4 0 0 Z " fill="#FDD90B" transform="translate(290,137)"/>
<path d="M0 0 C11.22 0 22.44 0 34 0 C34.1546875 4.95 34.1546875 4.95 34.3125 10 C34.35802002 11.02351562 34.40354004 12.04703125 34.45043945 13.1015625 C34.54926821 19.69184672 33.23272394 23.90711608 29 29 C24.27886604 33.30456332 19.26341433 33.51788433 13.08984375 33.48046875 C8.06955442 32.69981693 5.0076611 29.98707894 2 26 C0.35677002 22.49720859 -0.24264778 19.7757937 -0.1953125 15.91796875 C-0.19031738 15.0777417 -0.18532227 14.23751465 -0.18017578 13.37182617 C-0.16196777 12.32099854 -0.14375977 11.2701709 -0.125 10.1875 C-0.08375 6.825625 -0.0425 3.46375 0 0 Z " fill="#FDD90B" transform="translate(188,137)"/>
<path d="M0 0 C11.22 0 22.44 0 34 0 C34.061875 3.34125 34.12375 6.6825 34.1875 10.125 C34.22846802 11.68758545 34.22846802 11.68758545 34.27026367 13.28173828 C34.32516797 19.42039333 33.84093139 23.95666128 29.46484375 28.64453125 C23.22147277 33.41887377 18.80633976 33.70594685 11 33 C5.50120848 30.60052734 2.37144756 26.41095533 0 21 C-0.56922415 17.29676365 -0.4785975 13.73469501 -0.3125 10 C-0.209375 6.7 -0.10625 3.4 0 0 Z " fill="#FD411C" transform="translate(34,137)"/>
<path d="M0 0 C10.64218224 -0.54497662 17.4364377 0.25529461 26.25 6.1875 C32.50587553 12.58555452 35.14384033 19.32140375 35.0625 28.1875 C35.05347656 29.45980469 35.04445312 30.73210937 35.03515625 32.04296875 C35.02355469 33.01878906 35.01195312 33.99460937 35 35 C25.03060583 35.5031283 17.004859 34.36750148 9 28 C2.60337888 21.60337888 -0.2393227 14.42934869 -0.25 5.375 C-0.18678879 3.5825106 -0.11073292 1.79018214 0 0 Z " fill="#007C00" transform="translate(136,307)"/>
<path d="M0 0 C10.05781941 -0.80343528 17.64157846 0.04605589 26 6 C32.01165714 11.57119909 34.71480261 18.99953905 35.17578125 27.08203125 C35.18597788 29.72975609 35.13571282 32.35611327 35 35 C24.52425173 35.53772852 16.71046007 34.70183084 8.5625 27.6875 C3.74122961 23.25316945 0.82443636 18.56495618 0 12 C-0.0659735 9.89676466 -0.08562245 7.79164276 -0.0625 5.6875 C-0.05347656 4.61886719 -0.04445313 3.55023438 -0.03515625 2.44921875 C-0.02355469 1.64097656 -0.01195313 0.83273437 0 0 Z " fill="#025601" transform="translate(85,307)"/>
<path d="M0 0 C9.38547464 -0.48176391 17.71841245 0.0327376 25.3125 6.0625 C31.2854094 11.89002419 34.19907209 17.61674834 34.33398438 26.05273438 C34.30300756 29.04058944 34.178942 32.0176333 34 35 C24.03060583 35.5031283 16.004859 34.36750148 8 28 C1.4645745 21.31258786 -0.16916599 15.59366805 -0.1875 6.5 C-0.13969763 4.33295925 -0.08213806 2.16601109 0 0 Z " fill="#32B700" transform="translate(188,307)"/>
<path d="M0 0 C9.31014407 -0.55860864 17.21015069 -0.80591765 25 5 C30.39605924 9.93682016 33.83714112 15.73741771 35 23 C35.06533435 24.93651019 35.08584303 26.87502861 35.0625 28.8125 C35.05347656 29.78832031 35.04445312 30.76414062 35.03515625 31.76953125 C35.02355469 32.50558594 35.01195312 33.24164063 35 34 C25.68268631 34.55903882 17.79989425 34.79879778 10 29 C4.37876301 23.96480687 0.87809869 17.55164877 0 10 C-0.07205794 6.66474687 -0.05828769 3.33535138 0 0 Z " fill="#31B700" transform="translate(102,256)"/>
<path d="M0 0 C9.11663436 -0.59113623 16.4556226 -0.57745044 24 5 C28.46309609 9.04045442 32.84161708 13.93994121 34 20 C34.22647004 24.67866517 34.17524211 29.32038651 34 34 C23.6419412 34.62148353 15.32051729 34.54053856 7.1640625 27.390625 C0.19099413 19.97536205 -0.32408417 12.69181581 -0.10546875 2.78125 C-0.07066406 1.8634375 -0.03585938 0.945625 0 0 Z " fill="#76D20C" transform="translate(154,256)"/>
<path d="M0 0 C4.44859349 0.79439169 5.70093592 2.12831302 8.5 5.625 C9.06762695 8.85473633 9.06762695 8.85473633 8.98828125 12.45703125 C8.97216797 13.74931641 8.95605469 15.04160156 8.93945312 16.37304688 C8.89768274 17.72788157 8.85535809 19.08269928 8.8125 20.4375 C8.78740069 21.81180866 8.76459036 23.18616116 8.74414062 24.56054688 C8.68527592 27.91583517 8.59559843 31.27055734 8.5 34.625 C2.89 34.625 -2.72 34.625 -8.5 34.625 C-8.61512589 30.58536041 -8.71454033 26.54992333 -8.7746582 22.50952148 C-8.79972617 21.13692898 -8.83379082 19.76446898 -8.87719727 18.39233398 C-8.93817531 16.41449304 -8.96361009 14.43565816 -8.98828125 12.45703125 C-9.01446533 11.26827393 -9.04064941 10.0795166 -9.06762695 8.85473633 C-8.12383137 3.48464097 -5.28688124 0.94408594 0 0 Z " fill="#FC411C" transform="translate(392.5,238.375)"/>
<path d="M0 0 C4.44859349 0.79439169 5.70093592 2.12831302 8.5 5.625 C9.06762695 8.85473633 9.06762695 8.85473633 8.98828125 12.45703125 C8.97216797 13.74931641 8.95605469 15.04160156 8.93945312 16.37304688 C8.89768274 17.72788157 8.85535809 19.08269928 8.8125 20.4375 C8.78740069 21.81180866 8.76459036 23.18616116 8.74414062 24.56054688 C8.68527592 27.91583517 8.59559843 31.27055734 8.5 34.625 C2.89 34.625 -2.72 34.625 -8.5 34.625 C-8.61512589 30.58536041 -8.71454033 26.54992333 -8.7746582 22.50952148 C-8.79972617 21.13692898 -8.83379082 19.76446898 -8.87719727 18.39233398 C-8.93817531 16.41449304 -8.96361009 14.43565816 -8.98828125 12.45703125 C-9.01446533 11.26827393 -9.04064941 10.0795166 -9.06762695 8.85473633 C-8.12383137 3.48464097 -5.28688124 0.94408594 0 0 Z " fill="#FB6335" transform="translate(358.5,238.375)"/>
<path d="M0 0 C3.65738134 0.71841419 5.19456046 1.55155829 7.48779297 4.47436523 C9.81964567 9.57283236 8.99115952 15.58177556 8.8125 21.0625 C8.78994141 22.37089844 8.76738281 23.67929687 8.74414062 25.02734375 C8.68537157 28.24788786 8.59569658 31.46784158 8.5 34.6875 C2.89 34.6875 -2.72 34.6875 -8.5 34.6875 C-8.61512589 30.64786041 -8.71454033 26.61242333 -8.7746582 22.57202148 C-8.79972617 21.19942898 -8.83379082 19.82696898 -8.87719727 18.45483398 C-8.93817531 16.47699304 -8.96361009 14.49815816 -8.98828125 12.51953125 C-9.01446533 11.33077393 -9.04064941 10.1420166 -9.06762695 8.91723633 C-8.12292515 3.54198464 -5.26381255 1.03396318 0 0 Z " fill="#FA8500" transform="translate(324.5,238.3125)"/>
<path d="M0 0 C-1.66751148 3.94139078 -4.22710649 6.7892812 -7 10 C-7.33 9.01 -7.66 8.02 -8 7 C-6.85546875 5.17578125 -6.85546875 5.17578125 -5.1875 3.3125 C-4.37345703 2.37857422 -4.37345703 2.37857422 -3.54296875 1.42578125 C-2 0 -2 0 0 0 Z " fill="#0B2A00" transform="translate(94,241)"/>
</svg>
