<?xml version="1.0" encoding="UTF-8"?>
<svg version="1.1" xmlns="http://www.w3.org/2000/svg" width="512" height="512">
<path d="M0 0 C1.67388586 -0.00302307 3.34777035 -0.00691334 5.0216524 -0.01159257 C9.60721378 -0.02186125 14.19269687 -0.01969361 18.77826464 -0.01541197 C23.72931103 -0.01294269 28.68033867 -0.02196145 33.63137817 -0.02944946 C43.32574003 -0.04219303 53.02007418 -0.04399056 62.71444301 -0.0416492 C70.5955173 -0.03986543 78.47658319 -0.04161694 86.35765648 -0.04587364 C87.47976906 -0.04646883 88.60188164 -0.04706402 89.75799763 -0.04767724 C92.03765705 -0.04888901 94.31731647 -0.05010314 96.59697589 -0.05131962 C117.97172866 -0.06219393 139.34646566 -0.06003323 160.72121932 -0.05393478 C180.26733627 -0.0487662 199.81340337 -0.0600197 219.35951046 -0.07903299 C239.43791838 -0.09841408 259.51630273 -0.10666689 279.59472007 -0.10290974 C290.86380032 -0.10099805 302.13283816 -0.10348215 313.40191078 -0.11762428 C322.9958518 -0.12954251 332.58972429 -0.13093801 342.18366627 -0.11883412 C347.07627877 -0.11294846 351.96876595 -0.11183738 356.86137009 -0.12383652 C361.34529381 -0.13470534 365.82898772 -0.13158005 370.31290074 -0.11757483 C371.92992729 -0.11493066 373.54697191 -0.11728562 375.1639807 -0.1253107 C394.75400612 -0.21574092 410.96199155 4.8225095 425.22184753 18.70210266 C437.36469299 31.84848907 442.91593283 46.90312331 442.82563782 64.57392883 C442.82820109 66.41565516 442.82820109 66.41565516 442.83081615 68.29458809 C442.83353233 71.68567089 442.8273143 75.07652077 442.81726003 78.46757531 C442.8085983 82.1307271 442.81154761 85.7938721 442.81306458 89.45703125 C442.81411171 95.79807731 442.80785308 102.13908211 442.7965889 108.4801178 C442.78031355 117.64811002 442.77512381 126.81608236 442.77261291 135.98408747 C442.768239 150.85966763 442.75493815 165.73522583 442.73600769 180.61079407 C442.71764102 195.0583841 442.70348837 209.50596815 442.69499207 223.9535675 C442.69420389 225.29008234 442.69420389 225.29008234 442.6933998 226.65359747 C442.69078967 231.12366967 442.68826227 235.5937419 442.685776 240.06381416 C442.66505296 277.12945709 442.62983571 314.19507504 442.58512878 351.26069641 C441.97618271 351.05727631 441.36723663 350.8538562 440.73983765 350.64427185 C439.93621292 350.37605621 439.1325882 350.10784058 438.30461121 349.83149719 C437.51004013 349.56620209 436.71546906 349.30090698 435.89682007 349.02757263 C432.90564667 348.03528626 429.90570166 347.07548794 426.89762878 346.13569641 C425.8418866 345.80311829 424.78614441 345.47054016 423.69841003 345.12788391 C416.95163035 343.24860526 410.47747876 343.07271546 403.51872253 343.02241516 C402.44824173 343.01434341 401.37776093 343.00627167 400.27484131 342.99795532 C398.01134338 342.98415332 395.74782498 342.97341388 393.48429871 342.9655304 C391.18898847 342.95403685 388.89370441 342.93362705 386.59855652 342.90400696 C374.14421102 342.74347352 363.28425601 342.64548738 351.58512878 347.26069641 C349.92587926 347.62917966 348.26040297 347.97373773 346.58512878 348.26069641 C346.8702533 347.42868713 347.15537781 346.59667786 347.44914246 345.73945618 C350.51360099 335.64448039 350.94343219 325.7072133 350.94841003 315.22554016 C350.95065897 314.1412718 350.95065897 314.1412718 350.95295334 313.03509903 C350.96220133 306.20834952 350.92166892 299.38220936 350.84953308 292.55586243 C350.81167901 288.78821619 350.8080088 285.0217337 350.82456017 281.25395393 C350.82380191 279.8342503 350.80994412 278.41448468 350.78208351 276.99505424 C350.54106547 264.61777456 350.54106547 264.61777456 355.01237488 259.52632141 C356.19793774 258.43194978 357.38823915 257.34266858 358.58512878 256.26069641 C366.05020387 244.28326356 368.48347158 232.08935903 365.46012878 218.26069641 C362.0344809 206.00131765 355.16653273 195.84147525 344.02262878 189.38569641 C335.37913485 185.00350543 327.4968985 183.10717731 317.89762878 182.69819641 C316.93155701 182.65646301 315.96548523 182.61472961 314.97013855 182.57173157 C303.50720277 182.12198871 292.05433393 182.08733972 280.58512878 182.26069641 C279.13034119 182.27954895 279.13034119 182.27954895 277.64616394 182.29878235 C265.4538409 182.50320453 254.84650286 183.3980937 243.63591003 188.63960266 C240.58512878 189.26069641 240.58512878 189.26069641 237.49919128 187.69819641 C236.39231293 186.90009303 235.29645782 186.08655229 234.21012878 185.26069641 C215.4794442 172.17546338 192.52513557 169.90883219 170.22575378 172.72554016 C162.77251806 174.05422881 149.25512217 176.59070303 143.58512878 182.26069641 C139.90875125 182.92912869 137.98314182 182.02137818 135.02262878 180.01069641 C124.73929096 173.14212921 110.71744782 170.44170042 98.5533905 172.6254425 C90.06721103 174.3995378 90.06721103 174.3995378 82.04997253 177.53804016 C78.35889703 178.62020968 76.09974371 177.35328492 72.58512878 175.94819641 C60.73239873 171.28629289 51.32048518 171.61098717 39.08512878 174.88569641 C38.11704285 175.12159485 37.14895691 175.35749329 36.15153503 175.60054016 C21.57025612 179.41711652 11.58367271 187.71040378 3.58512878 200.26069641 C-3.13657321 212.73901976 -4.56773127 224.94208225 -4.56013489 238.93867493 C-4.5634935 239.84917099 -4.56685211 240.75966705 -4.5703125 241.69775391 C-4.57973345 244.67838443 -4.58176138 247.65895821 -4.58283997 250.63960266 C-4.5860596 252.73692853 -4.58942418 254.83425418 -4.59292603 256.93157959 C-4.59889586 261.3200177 -4.60076823 265.70843618 -4.60017395 270.09687805 C-4.60007266 275.67532069 -4.61370014 281.2536351 -4.63094616 286.83204746 C-4.64215676 291.16393594 -4.64409037 295.49579436 -4.64356422 299.82769585 C-4.64473169 301.88184486 -4.64908268 303.93599498 -4.65689659 305.99012947 C-4.6991138 318.23801461 -4.18933492 330.13417504 -2.41487122 342.26069641 C-3.65752747 342.27189514 -4.90018372 342.28309387 -6.18049622 342.29463196 C-10.32932568 342.33425448 -14.47740218 342.39737168 -18.62580872 342.46821594 C-20.45644782 342.49609858 -22.28720001 342.51747209 -24.11799622 342.5316925 C-38.76343505 342.65213197 -52.4815069 343.83468344 -65.81330872 350.52632141 C-67.41487122 351.26069641 -67.41487122 351.26069641 -69.41487122 351.26069641 C-69.50650063 313.39117048 -69.57694743 275.5216613 -69.61913253 237.65204688 C-69.62413514 233.17743964 -69.62931245 228.70283262 -69.63459778 224.22822571 C-69.63564702 223.33744193 -69.63669626 222.44665815 -69.6377773 221.52888092 C-69.65516499 207.12050852 -69.68669363 192.7122002 -69.7234824 178.30386577 C-69.76093741 163.51081466 -69.7831167 148.71779702 -69.79122519 133.92470044 C-69.79670352 124.80241254 -69.81398314 115.68030578 -69.84653708 106.55807366 C-69.86774131 100.29584473 -69.87405794 94.03370894 -69.86887673 87.77144674 C-69.86632409 84.16271228 -69.87013428 80.55429355 -69.89169312 76.94561577 C-69.91496047 73.02202988 -69.90677311 69.09884847 -69.89588928 65.17520142 C-69.90754065 64.04967481 -69.91919201 62.92414821 -69.93119645 61.76451474 C-69.8051211 44.86698321 -62.63930586 29.76287709 -51.00862122 17.69429016 C-36.17145236 3.7732718 -19.71577031 -0.05046946 0 0 Z " fill="#617D8B" transform="translate(69.41487121582031,-0.2606964111328125)"/>
<path d="M0 0 C140.58 0 281.16 0 426 0 C426 77.55 426 155.1 426 235 C408.675 235.495 408.675 235.495 391 236 C386.71 237.32 382.42 238.64 378 240 C376.35 240.33 374.7 240.66 373 241 C373.28512451 240.16799072 373.57024902 239.33598145 373.86401367 238.47875977 C376.92847221 228.38378398 377.3583034 218.44651689 377.36328125 207.96484375 C377.36553019 206.88057539 377.36553019 206.88057539 377.36782455 205.77440262 C377.37707255 198.94765311 377.33654013 192.12151295 377.2644043 185.29516602 C377.22655023 181.52751978 377.22288002 177.76103729 377.23943138 173.99325752 C377.23867312 172.57355389 377.22481534 171.15378827 377.19695473 169.73435783 C376.95593668 157.35707815 376.95593668 157.35707815 381.42724609 152.265625 C382.61280895 151.17125336 383.80311037 150.08197217 385 149 C392.46507509 137.02256715 394.8983428 124.82866262 391.875 111 C388.44935212 98.74062124 381.58140395 88.58077884 370.4375 82.125 C361.79400607 77.74280902 353.91176972 75.8464809 344.3125 75.4375 C343.34642822 75.3957666 342.38035645 75.3540332 341.38500977 75.31103516 C329.92207398 74.8612923 318.46920514 74.82664331 307 75 C306.0301416 75.01256836 305.0602832 75.02513672 304.06103516 75.03808594 C291.86871212 75.24250812 281.26137408 76.13739728 270.05078125 81.37890625 C267 82 267 82 263.9140625 80.4375 C262.80718414 79.63939662 261.71132903 78.82585588 260.625 78 C241.89431542 64.91476697 218.94000678 62.64813578 196.640625 65.46484375 C189.18738927 66.7935324 175.66999338 69.33000662 170 75 C166.32362247 75.66843228 164.39801303 74.76068177 161.4375 72.75 C151.15416217 65.8814328 137.13231904 63.18100401 124.96826172 65.36474609 C116.48208224 67.13884139 116.48208224 67.13884139 108.46484375 70.27734375 C104.77376825 71.35951327 102.51461493 70.09258851 99 68.6875 C87.14726995 64.02559648 77.7353564 64.35029076 65.5 67.625 C64.53191406 67.86089844 63.56382813 68.09679687 62.56640625 68.33984375 C47.98512734 72.15642011 37.99854392 80.44970737 30 93 C23.27829801 105.47832334 21.84713994 117.68138583 21.85473633 131.67797852 C21.85137772 132.58847458 21.8480191 133.49897064 21.84455872 134.4370575 C21.83513777 137.41768802 21.83310983 140.3982618 21.83203125 143.37890625 C21.82881162 145.47623212 21.82544703 147.57355776 21.82194519 149.67088318 C21.81597535 154.05932128 21.81410299 158.44773976 21.81469727 162.83618164 C21.81479855 168.41462428 21.80117108 173.99293869 21.78392506 179.57135105 C21.77271445 183.90323953 21.77078085 188.23509795 21.77130699 192.56699944 C21.77013953 194.62114845 21.76578853 196.67529857 21.75797462 198.72943306 C21.71563235 211.01360001 22.31112662 222.82396343 24 235 C16.08 235 8.16 235 0 235 C0 157.45 0 79.9 0 0 Z " fill="#FFFFFF" transform="translate(43,107)"/>
<path d="M0 0 C0.83665095 -0.00170885 1.67330191 -0.0034177 2.53530592 -0.00517833 C5.3128065 -0.00844825 8.09006047 0.00248891 10.86753845 0.01345825 C12.86884048 0.01402291 14.87014292 0.01370475 16.8714447 0.01257324 C22.2860649 0.01200085 27.70059597 0.02373683 33.11519551 0.03772116 C38.78063963 0.05024741 44.44608592 0.05140051 50.11154175 0.05377197 C60.83167497 0.05998117 71.55176726 0.07638442 82.27188247 0.09647095 C96.76377837 0.12303371 111.2556855 0.13380712 125.7475996 0.14547539 C148.56877848 0.1642654 171.389871 0.20411485 194.21104431 0.24050903 C194.21104431 35.22050903 194.21104431 70.20050903 194.21104431 106.24050903 C123.92104431 106.24050903 53.63104431 106.24050903 -18.78895569 106.24050903 C-18.78895569 184.12050903 -18.78895569 262.00050903 -18.78895569 342.24050903 C-24.06895569 342.57050903 -29.34895569 342.90050903 -34.78895569 343.24050903 C-39.38588681 343.97630305 -39.38588681 343.97630305 -43.22645569 345.05300903 C-43.8840387 345.22606567 -44.5416217 345.39912231 -45.21913147 345.5774231 C-49.74841188 346.81725078 -53.99363532 348.40115904 -58.18739319 350.50613403 C-59.78895569 351.24050903 -59.78895569 351.24050903 -61.78895569 351.24050903 C-61.8805851 313.3709831 -61.9510319 275.50147393 -61.99321701 237.6318595 C-61.99821961 233.15725226 -62.00339692 228.68264524 -62.00868225 224.20803833 C-62.00973149 223.31725455 -62.01078073 222.42647077 -62.01186177 221.50869354 C-62.02924946 207.10032114 -62.0607781 192.69201282 -62.09756687 178.28367839 C-62.13502188 163.49062728 -62.15720117 148.69760964 -62.16530967 133.90451306 C-62.170788 124.78222516 -62.18806761 115.6601184 -62.22062156 106.53788628 C-62.24182579 100.27565735 -62.24814241 94.01352156 -62.2429612 87.75125936 C-62.24040856 84.14252491 -62.24421875 80.53410618 -62.26577759 76.92542839 C-62.28904494 73.00184251 -62.28085758 69.07866109 -62.26997375 65.15501404 C-62.28162512 64.02948744 -62.29327649 62.90396083 -62.30528092 61.74432737 C-62.17920557 44.84679583 -55.01339033 29.74268971 -43.38270569 17.67410278 C-31.36901649 6.40222271 -16.47414673 -0.12567739 0 0 Z " fill="#546D79" transform="translate(61.78895568847656,-0.240509033203125)"/>
<path d="M0 0 C70.29 0 140.58 0 213 0 C213 21.12 213 42.24 213 64 C203.595 64.99 203.595 64.99 194 66 C186.06800429 67.90105682 179.23918165 69.98716065 172.18359375 74.046875 C169.5600335 75.19204262 167.83728281 75.32633285 165 75 C163.18359375 74.046875 163.18359375 74.046875 161.4375 72.75 C151.15416217 65.8814328 137.13231904 63.18100401 124.96826172 65.36474609 C116.48208224 67.13884139 116.48208224 67.13884139 108.46484375 70.27734375 C104.77376825 71.35951327 102.51461493 70.09258851 99 68.6875 C87.14726995 64.02559648 77.7353564 64.35029076 65.5 67.625 C64.53191406 67.86089844 63.56382813 68.09679687 62.56640625 68.33984375 C47.98512734 72.15642011 37.99854392 80.44970737 30 93 C23.27829801 105.47832334 21.84713994 117.68138583 21.85473633 131.67797852 C21.85137772 132.58847458 21.8480191 133.49897064 21.84455872 134.4370575 C21.83513777 137.41768802 21.83310983 140.3982618 21.83203125 143.37890625 C21.82881162 145.47623212 21.82544703 147.57355776 21.82194519 149.67088318 C21.81597535 154.05932128 21.81410299 158.44773976 21.81469727 162.83618164 C21.81479855 168.41462428 21.80117108 173.99293869 21.78392506 179.57135105 C21.77271445 183.90323953 21.77078085 188.23509795 21.77130699 192.56699944 C21.77013953 194.62114845 21.76578853 196.67529857 21.75797462 198.72943306 C21.71563235 211.01360001 22.31112662 222.82396343 24 235 C16.08 235 8.16 235 0 235 C0 157.45 0 79.9 0 0 Z " fill="#DEDEDE" transform="translate(43,107)"/>
<path d="M0 0 C6.59461537 3.29730768 9.98795324 8.69392122 13.4609375 15.0078125 C14.41613281 16.73644531 14.41613281 16.73644531 15.390625 18.5 C16.05217854 19.70828121 16.71363647 20.91661477 17.375 22.125 C18.02821732 23.31013212 18.6818601 24.49502984 19.3359375 25.6796875 C23.24814576 32.77318722 27.12662759 39.88523599 31 47 C31.00410889 45.91581787 31.00821777 44.83163574 31.01245117 43.71459961 C31.03432587 39.66806369 31.08870054 35.62248866 31.15258789 31.57641602 C31.17569558 29.82976535 31.19014658 28.08297678 31.19555664 26.33618164 C31.20489974 23.81570213 31.24600242 21.29736991 31.29296875 18.77734375 C31.2890361 18.00414291 31.28510345 17.23094208 31.28105164 16.43431091 C31.43226414 10.73595244 33.08098241 7.15608736 37 3 C41.28237194 -0.0872914 45.30600196 -0.58137098 50.46484375 -0.41796875 C55.56415196 0.42274924 59.35810148 2.97448403 62.58045959 6.94972229 C64.65694452 11.41162817 64.42634688 15.52081371 64.40405273 20.38647461 C64.41091599 21.43095261 64.41777924 22.4754306 64.42485046 23.55155945 C64.44314205 27.00195942 64.43927745 30.45190572 64.43359375 33.90234375 C64.4381544 36.302212 64.44345962 38.70207894 64.44947815 41.10194397 C64.45841391 46.1314118 64.4559807 51.16072089 64.44604492 56.19018555 C64.43455482 62.6343031 64.45476565 69.07787273 64.48396206 75.5219183 C64.50231104 80.47790506 64.50203414 85.43376021 64.49632454 90.38977242 C64.49617117 92.7656182 64.50222864 95.14147281 64.51461601 97.5172863 C64.52949895 100.83991715 64.51886768 104.16153174 64.50170898 107.48413086 C64.51137695 108.46458374 64.52104492 109.44503662 64.53100586 110.4552002 C64.45495279 117.49082909 62.68056571 121.08291378 57.875 126.3125 C53.6870833 128.77062502 49.81630132 129.17362842 45 129 C37.79968903 127.07991707 33.99064531 122.33624829 30.30175781 116.15380859 C28.49226854 112.85232887 26.7357787 109.52830552 25 106.1875 C20.87051518 98.32074126 16.67549112 90.55806841 12 83 C11.98541748 83.99854004 11.97083496 84.99708008 11.95581055 86.02587891 C11.89759932 89.74986606 11.82036923 93.47326292 11.73754883 97.19677734 C11.70440637 98.8047524 11.67634146 100.41284081 11.65356445 102.02099609 C11.61982033 104.34000705 11.56749806 106.65798931 11.51171875 108.9765625 C11.50213387 110.04567368 11.50213387 110.04567368 11.49235535 111.13638306 C11.32066475 117.03675687 9.93634322 121.16556958 5.625 125.25 C0.70281478 128.53145681 -3.03925381 129.60617758 -9 129 C-14.81690137 127.08281902 -18.07174159 124.5051258 -21 119 C-21.91577482 116.25267553 -22.13096129 114.61396532 -22.14717102 111.78279114 C-22.15432632 110.92357056 -22.16148163 110.06434998 -22.16885376 109.17909241 C-22.17154266 108.23932053 -22.17423157 107.29954865 -22.17700195 106.33129883 C-22.18357315 105.33909332 -22.19014435 104.34688782 -22.19691467 103.32461548 C-22.21665216 100.03541998 -22.22831202 96.74627018 -22.23828125 93.45703125 C-22.24235678 92.33341375 -22.2464323 91.20979626 -22.25063133 90.05212975 C-22.27149512 84.10368407 -22.28579489 78.15526147 -22.29516602 72.20678711 C-22.30622421 66.06776486 -22.34061682 59.92910568 -22.38033772 53.79021168 C-22.40650648 49.06578404 -22.41485817 44.34144282 -22.41844749 39.61694908 C-22.42331363 37.35438272 -22.43492831 35.09182022 -22.45348549 32.82932472 C-22.47787912 29.65781686 -22.476911 26.48724713 -22.4699707 23.31567383 C-22.48918579 21.92119774 -22.48918579 21.92119774 -22.50878906 20.49855042 C-22.46125292 14.51995776 -21.40234593 9.98781041 -18 5 C-12.5585873 -0.17597793 -7.26297132 -0.81580957 0 0 Z " fill="#D43A2F" transform="translate(128,213)"/>
<path d="M0 0 C9.36062905 3.98693459 14.03503235 16.48900075 18.5625 25 C19.66753518 27.06273233 20.77299746 29.12523592 21.87890625 31.1875 C22.40242676 32.16589844 22.92594727 33.14429688 23.46533203 34.15234375 C25.6052428 38.1230595 27.7938345 42.06578536 30 46 C30.0093457 44.97640381 30.01869141 43.95280762 30.02832031 42.89819336 C30.06840168 39.07533353 30.13420892 35.25326322 30.20751953 31.4309082 C30.23562456 29.78127234 30.25689091 28.13150442 30.27099609 26.48168945 C30.29257233 24.10039175 30.33929245 21.72066412 30.390625 19.33984375 C30.39246796 18.24566383 30.39246796 18.24566383 30.39434814 17.12937927 C30.57902742 10.57151991 32.7296868 6.21355537 37.5 1.5625 C42.6706078 -0.74580705 47.42683665 -0.75788897 53 0 C57.47870656 2.15937638 60.18198188 4.92952939 63 9 C63.91751996 11.75255987 64.12915711 13.38743485 64.14044189 16.22393799 C64.14615204 17.08460373 64.15186218 17.94526947 64.15774536 18.83201599 C64.15942215 20.24403038 64.15942215 20.24403038 64.16113281 21.68457031 C64.16858017 23.17528801 64.16858017 23.17528801 64.17617798 24.69612122 C64.19080525 27.99012948 64.19760299 31.28408957 64.203125 34.578125 C64.20887652 36.86635337 64.21463425 39.15458172 64.22039795 41.44281006 C64.23090991 46.2445905 64.23675113 51.0463542 64.24023438 55.84814453 C64.2457158 61.99616671 64.26973567 68.14396705 64.29820633 74.29191971 C64.31684649 79.02059573 64.32203908 83.7492185 64.32357025 88.47792816 C64.32659479 90.74409954 64.3346166 93.01027003 64.34775543 95.27640533 C64.36484238 98.45039139 64.36292886 101.62383796 64.35644531 104.79785156 C64.3656601 105.73109756 64.37487488 106.66434357 64.3843689 107.62586975 C64.34513858 113.76803834 63.68960229 118.9476778 59.46484375 123.7421875 C55.05985014 127.00931831 52.78356649 128.19652104 47.3125 128.375 C46.29800781 128.42398438 45.28351563 128.47296875 44.23828125 128.5234375 C39.79851756 127.80579174 37.03923112 126.2135018 34 123 C31.20746541 118.85496532 28.88013029 114.48411251 26.5625 110.0625 C25.31473689 107.74038287 24.06603627 105.41876925 22.81640625 103.09765625 C22.20168457 101.94539551 21.58696289 100.79313477 20.95361328 99.60595703 C17.76061674 93.66751144 14.37335963 87.83720513 11 82 C10.9906543 83.05912598 10.98130859 84.11825195 10.97167969 85.20947266 C10.93166151 89.15715851 10.8658709 93.10407471 10.79248047 97.05126953 C10.76433913 98.75624671 10.74309065 100.46135269 10.72900391 102.16650391 C10.70747863 104.62469089 10.660783 107.08134048 10.609375 109.5390625 C10.60753204 110.67379501 10.60753204 110.67379501 10.60565186 111.83145142 C10.43041827 118.2324891 8.18131186 121.92775373 3.5 126.375 C-1.66500009 128.77303575 -6.4002288 128.75381535 -12 128 C-16.96521615 125.69472107 -19.43797409 122.79031664 -22 118 C-22.5763089 114.49749211 -22.54688752 111.0433742 -22.51757812 107.5 C-22.5245874 106.45537598 -22.53159668 105.41075195 -22.53881836 104.33447266 C-22.55639022 100.88937619 -22.54477782 97.44510449 -22.53125 94 C-22.53394513 91.6015609 -22.53782772 89.20312286 -22.54284668 86.8046875 C-22.54874066 81.78114405 -22.54018159 76.75788533 -22.52148438 71.734375 C-22.49869537 65.29810928 -22.51181892 58.86251078 -22.53577423 52.42626953 C-22.55023461 47.47455832 -22.545625 42.52300505 -22.53526306 37.57128906 C-22.53259647 35.19824138 -22.53586314 32.82517932 -22.54518127 30.45214844 C-22.55535031 27.13437972 -22.53983934 23.81768855 -22.51757812 20.5 C-22.52567505 19.52111816 -22.53377197 18.54223633 -22.54211426 17.53369141 C-22.47140556 11.83962115 -21.83517225 8.50019407 -18 4 C-12.71537773 -1.02039116 -6.90407565 -0.90342588 0 0 Z " fill="#F44335" transform="translate(342,384)"/>
<path d="M0 0 C0.88522339 -0.01283524 1.77044678 -0.02567047 2.68249512 -0.03889465 C3.63869751 -0.04628159 4.5948999 -0.05366852 5.58007812 -0.0612793 C6.57076294 -0.06935104 7.56144775 -0.07742279 8.58215332 -0.08573914 C10.68365736 -0.09957786 12.78518386 -0.11030096 14.88671875 -0.11816406 C18.07141079 -0.13528347 21.25503906 -0.1791607 24.43945312 -0.22338867 C26.48632053 -0.23352436 28.53319673 -0.24203771 30.58007812 -0.2487793 C31.52008667 -0.26628738 32.46009521 -0.28379547 33.42858887 -0.30183411 C43.61211009 -0.26911085 53.26911651 2.92792621 60.61132812 10.17700195 C69.82414206 21.05813229 71.08141619 31.11520517 71.04492188 44.98168945 C71.0494931 46.51189402 71.05480145 48.04209653 71.06080627 49.57229614 C71.06970134 52.76792784 71.0673563 55.96330915 71.05737305 59.15893555 C71.04589667 63.22604052 71.06609212 67.29227547 71.09529018 71.35926628 C71.11376112 74.51658492 71.1133381 77.67369931 71.10765266 80.8310585 C71.10750073 82.3291661 71.11343774 83.82728869 71.12594414 85.32534409 C71.20851459 96.83639834 69.93437859 107.13052695 62.43554688 116.3293457 C54.35568442 124.51301795 45.14756589 128.45877013 33.73213196 128.61949158 C32.32075203 128.61508812 32.32075203 128.61508812 30.88085938 128.6105957 C29.38977913 128.61845848 29.38977913 128.61845848 27.86857605 128.6264801 C25.78194101 128.6328647 23.69526981 128.63160988 21.60864258 128.62304688 C18.42204008 128.61449716 15.23720901 128.64341263 12.05078125 128.67504883 C10.01497449 128.67666016 7.97916458 128.67608462 5.94335938 128.6730957 C4.99636673 128.68432968 4.04937408 128.69556366 3.07368469 128.70713806 C-2.59330334 128.64750308 -5.91100916 127.99231182 -10.38867188 124.17700195 C-13.99101608 120.18521513 -15.50802127 117.27160284 -15.52911377 111.90837097 C-15.53767899 110.60258339 -15.53767899 110.60258339 -15.54641724 109.27041626 C-15.5475351 108.31815155 -15.54865295 107.36588684 -15.54980469 106.38476562 C-15.55476959 105.37959396 -15.5597345 104.3744223 -15.56484985 103.33879089 C-15.57947632 100.00751058 -15.58627435 96.67627788 -15.59179688 93.3449707 C-15.59754798 91.03192646 -15.60330572 88.71888223 -15.60906982 86.40583801 C-15.61958123 81.55278297 -15.62542297 76.69974451 -15.62890625 71.84667969 C-15.63439086 65.62905799 -15.6584178 59.4116553 -15.6868782 53.19410229 C-15.70550483 48.41485454 -15.71071021 43.63565954 -15.71224213 38.85637856 C-15.71526918 36.56426102 -15.72329944 34.27214442 -15.73642731 31.98006248 C-15.75348773 28.7723463 -15.75160733 25.56516507 -15.74511719 22.35742188 C-15.75433197 21.41122986 -15.76354675 20.46503784 -15.77304077 19.49017334 C-15.73018617 12.72639257 -14.48779207 8.53851218 -9.88867188 3.36450195 C-6.60375586 0.49020044 -4.21539986 0.05338334 0 0 Z M17.61132812 32.17700195 C17.61132812 53.29700195 17.61132812 74.41700195 17.61132812 96.17700195 C32.31132813 97.77700195 32.31132813 97.77700195 37.61132812 93.17700195 C38.59931695 90.21303547 38.74904237 88.23610603 38.77246094 85.14233398 C38.78206848 84.11761993 38.79167603 83.09290588 38.80157471 82.03713989 C38.80794952 80.3777388 38.80794952 80.3777388 38.81445312 78.68481445 C38.8201532 77.54672333 38.82585327 76.4086322 38.83172607 75.23605347 C38.84117692 72.82689342 38.84771039 70.41772043 38.8515625 68.00854492 C38.86127127 64.32358258 38.89229594 60.63917718 38.92382812 56.9543457 C38.93035789 54.61450527 38.93560847 52.27466084 38.93945312 49.93481445 C38.95179993 48.83259552 38.96414673 47.73037659 38.97686768 46.59475708 C38.97386658 45.56373871 38.97086548 44.53272034 38.96777344 43.47045898 C38.97141907 42.56683624 38.9750647 41.6632135 38.9788208 40.73220825 C38.52997888 37.61137405 37.44023098 35.72359891 35.61132812 33.17700195 C30.23648963 30.4895827 23.62058025 32.17700195 17.61132812 32.17700195 Z " fill="#F44235" transform="translate(441.388671875,383.822998046875)"/>
<path d="M0 0 C1.66095703 -0.0299707 1.66095703 -0.0299707 3.35546875 -0.06054688 C15.01376773 -0.05369711 24.73781598 3.14526523 33.125 11.4375 C42.2383884 22.14661788 43.59571088 32.1268014 43.55859375 45.8046875 C43.56316547 47.29005164 43.56847396 48.77541367 43.57447815 50.26077271 C43.58337132 53.3622501 43.58103042 56.46346949 43.57104492 59.56494141 C43.55956913 63.51098816 43.57976391 67.4561381 43.60896206 71.40206718 C43.62743869 74.46674115 43.62700887 77.53120479 43.62132454 80.59592056 C43.62117267 82.04937115 43.62710399 83.50283724 43.63961601 84.95623398 C43.73463269 97.80164398 41.67692903 108.38157643 32.6875 118.0625 C31.4190625 119.238125 31.4190625 119.238125 30.125 120.4375 C29.403125 121.118125 28.68125 121.79875 27.9375 122.5 C15.96002957 130.7511463 0.64044091 130.84592455 -13.31640625 128.9765625 C-24.35868626 126.30630987 -32.58257413 119.27815738 -38.6640625 109.890625 C-43.00964946 101.0873069 -43.33481489 92.73296094 -43.30859375 83.0703125 C-43.31316547 81.58494836 -43.31847396 80.09958633 -43.32447815 78.61422729 C-43.33337132 75.5127499 -43.33103042 72.41153051 -43.32104492 69.31005859 C-43.30956913 65.36401184 -43.32976391 61.4188619 -43.35896206 57.47293282 C-43.37743869 54.40825885 -43.37700887 51.34379521 -43.37132454 48.27907944 C-43.37117267 46.82562885 -43.37710399 45.37216276 -43.38961601 43.91876602 C-43.47835537 31.92199405 -41.82498447 21.93075071 -33.921875 12.5078125 C-23.97988242 2.45198031 -13.76830721 -0.08754415 0 0 Z M-8.55386353 34.61706543 C-10.38019923 37.13362955 -10.25577427 38.86823036 -10.26318359 41.96289062 C-10.27264008 43.09416382 -10.28209656 44.22543701 -10.2918396 45.39099121 C-10.28576691 46.61290161 -10.27969421 47.83481201 -10.2734375 49.09375 C-10.27630768 50.3475647 -10.27917786 51.60137939 -10.28213501 52.89318848 C-10.28417827 55.5464575 -10.28013468 58.19889971 -10.26611328 60.85205078 C-10.24902086 64.25191634 -10.25886317 67.65107146 -10.27683067 71.05091095 C-10.29028089 74.29438278 -10.28086234 77.5377689 -10.2734375 80.78125 C-10.27951019 82.0031604 -10.28558289 83.2250708 -10.2918396 84.48400879 C-10.28238312 85.61528198 -10.27292664 86.74655518 -10.26318359 87.91210938 C-10.26079681 88.9089978 -10.25841003 89.90588623 -10.25595093 90.9329834 C-10.0666187 93.46640545 -10.0666187 93.46640545 -8.55386353 95.25793457 C-5.8070203 97.18785994 -3.16549682 96.83306561 0.125 96.8125 C1.3625 96.82023437 2.6 96.82796875 3.875 96.8359375 C7.01790107 96.70961641 7.01790107 96.70961641 8.80386353 95.25793457 C10.63019923 92.74137045 10.50577427 91.00676964 10.51318359 87.91210938 C10.52264008 86.78083618 10.53209656 85.64956299 10.5418396 84.48400879 C10.53576691 83.26209839 10.52969421 82.04018799 10.5234375 80.78125 C10.52630768 79.5274353 10.52917786 78.27362061 10.53213501 76.98181152 C10.53417827 74.3285425 10.53013468 71.67610029 10.51611328 69.02294922 C10.49902086 65.62308366 10.50886317 62.22392854 10.52683067 58.82408905 C10.54028089 55.58061722 10.53086234 52.3372311 10.5234375 49.09375 C10.52951019 47.8718396 10.53558289 46.6499292 10.5418396 45.39099121 C10.53238312 44.25971802 10.52292664 43.12844482 10.51318359 41.96289062 C10.51079681 40.9660022 10.50841003 39.96911377 10.50595093 38.9420166 C10.3166187 36.40859455 10.3166187 36.40859455 8.80386353 34.61706543 C6.0570203 32.68714006 3.41549682 33.04193439 0.125 33.0625 C-1.1125 33.05476563 -2.35 33.04703125 -3.625 33.0390625 C-6.76790107 33.16538359 -6.76790107 33.16538359 -8.55386353 34.61706543 Z " fill="#F44235" transform="translate(255.875,212.5625)"/>
<path d="M0 0 C1.19818359 -0.01546875 2.39636719 -0.0309375 3.63085938 -0.046875 C14.75423934 0.0016193 24.95371969 2.49407948 33.0625 10.5 C42.27531393 21.38113034 43.53258806 31.43820322 43.49609375 45.3046875 C43.50066498 46.83489206 43.50597332 48.36509458 43.51197815 49.89529419 C43.52087322 53.09092588 43.51852818 56.2863072 43.50854492 59.48193359 C43.49706855 63.54903857 43.51726399 67.61527352 43.54646206 71.68226433 C43.564933 74.83958297 43.56450997 77.99669736 43.55882454 81.15405655 C43.5586726 82.65216414 43.56460962 84.15028673 43.57711601 85.64834213 C43.65968647 97.15939639 42.38555046 107.453525 34.88671875 116.65234375 C25.94399146 125.70996689 16.40321809 128.87128687 3.90429688 129.0078125 C2.69837891 129.00523437 1.49246094 129.00265625 0.25 129 C-0.94431641 129.02835938 -2.13863281 129.05671875 -3.36914062 129.0859375 C-14.74048797 129.11069819 -24.55395874 125.97639002 -32.89453125 118.015625 C-39.44399439 109.9508941 -43.02055549 100.63382346 -43.11450195 90.26367188 C-43.12733719 89.0246814 -43.14017242 87.78569092 -43.15339661 86.50915527 C-43.16156965 85.16235765 -43.16901229 83.81555542 -43.17578125 82.46875 C-43.17985678 81.78347733 -43.1839323 81.09820465 -43.18813133 80.39216614 C-43.20894999 76.75916859 -43.22326523 73.12620824 -43.23266602 69.49316406 C-43.24367326 65.77594844 -43.27801801 62.05934087 -43.31783772 58.34233856 C-43.34423492 55.45433593 -43.35237843 52.56647258 -43.35594749 49.67835999 C-43.36307295 47.65295816 -43.38941561 45.62765244 -43.41633606 43.60241699 C-43.38704636 30.94563531 -41.062752 19.71855724 -31.9375 10.5 C-22.51413981 1.7623313 -12.56020328 -0.16163264 0 0 Z M-8.9375 34.5 C-10.22565954 37.07631909 -10.07155861 38.93533522 -10.08276367 41.82006836 C-10.08914352 42.93139633 -10.09552338 44.0427243 -10.10209656 45.18772888 C-10.10320938 46.39292679 -10.1043222 47.59812469 -10.10546875 48.83984375 C-10.10879715 50.07287735 -10.11212555 51.30591095 -10.11555481 52.5763092 C-10.12062528 55.18815741 -10.1229631 57.80001211 -10.12280273 60.41186523 C-10.1227213 63.09389971 -10.12968723 65.77576407 -10.14331055 68.45776367 C-10.16157244 72.31434389 -10.16653666 76.1707247 -10.16796875 80.02734375 C-10.17515427 81.23051743 -10.18233978 82.4336911 -10.18974304 83.67332458 C-10.18666641 84.78780472 -10.18358978 85.90228485 -10.18041992 87.05053711 C-10.18184494 88.03267685 -10.18326996 89.01481659 -10.18473816 90.02671814 C-10.10752185 92.7532532 -10.10752185 92.7532532 -7.9375 95.5 C-4.90443887 96.51102038 -2.67809761 96.6982535 0.5 96.75 C1.44746094 96.77578125 2.39492187 96.8015625 3.37109375 96.828125 C6.50900763 96.44556366 7.81547736 95.69071912 10.0625 93.5 C11.05048883 90.53603352 11.20021425 88.55910407 11.22363281 85.46533203 C11.23324036 84.44061798 11.2428479 83.41590393 11.25274658 82.36013794 C11.2591214 80.70073685 11.2591214 80.70073685 11.265625 79.0078125 C11.27132507 77.86972137 11.27702515 76.73163025 11.28289795 75.55905151 C11.29234879 73.14989146 11.29888226 70.74071848 11.30273438 68.33154297 C11.31244314 64.64658063 11.34346781 60.96217523 11.375 57.27734375 C11.38152977 54.93750331 11.38678034 52.59765889 11.390625 50.2578125 C11.4029718 49.15559357 11.4153186 48.05337463 11.42803955 46.91775513 C11.42503845 45.88673676 11.42203735 44.85571838 11.41894531 43.79345703 C11.42259094 42.88983429 11.42623657 41.98621155 11.42999268 41.0552063 C10.98115075 37.9343721 9.89140286 36.04659696 8.0625 33.5 C5.489171 32.2133355 3.56026962 32.33175449 0.6875 32.3125 C-0.26898438 32.29832031 -1.22546875 32.28414063 -2.2109375 32.26953125 C-5.00031968 32.50530997 -6.60557549 32.98265186 -8.9375 34.5 Z " fill="#D43A2F" transform="translate(148.9375,383.5)"/>
<path d="M0 0 C4.47870656 2.15937638 7.18198188 4.92952939 10 9 C11.21125432 12.63376296 11.17614393 15.99098013 11.20532227 19.77612305 C11.21522186 20.56660034 11.22512146 21.35707764 11.23532104 22.17150879 C11.26691393 24.78488162 11.29168474 27.39827263 11.31640625 30.01171875 C11.33697769 31.82347588 11.35797421 33.63522823 11.37937927 35.44697571 C11.43458035 40.21611664 11.48399831 44.98530074 11.53222656 49.7545166 C11.5824559 54.62088871 11.63813449 59.4871981 11.69335938 64.35351562 C11.80091694 73.90229018 11.90236728 83.45111918 12 93 C15.19949891 94.70290455 17.35095832 95.27225025 21 95.25 C21.845625 95.25515625 22.69125 95.2603125 23.5625 95.265625 C26.15153742 94.98348631 27.72425992 94.21124221 30 93 C30.00586624 91.9985495 30.01173248 90.997099 30.01777649 89.96530151 C30.07503429 80.51924894 30.14781196 71.0734259 30.23571491 61.62760735 C30.28040797 56.77161194 30.3196665 51.91570023 30.34643555 47.05957031 C30.37247907 42.37154157 30.41288902 37.68383507 30.46318626 32.99600601 C30.47984786 31.2091282 30.49136655 29.42219466 30.49761391 27.63525009 C30.50726273 25.1287243 30.53533075 22.62302159 30.56762695 20.11669922 C30.56619186 19.38086105 30.56475677 18.64502289 30.5632782 17.8868866 C30.67624189 11.67211427 32.40753739 7.79152043 36.5 3.1875 C40.90297171 -0.66510025 45.36022444 -0.39811754 50.98046875 -0.34375 C55.3257433 0.1509255 58.19830708 1.64421182 61 5 C63.93685851 9.83871913 64.43623323 13.95517568 64.40405273 19.49291992 C64.41091599 20.3246875 64.41777924 21.15645508 64.42485046 22.01342773 C64.44309205 24.75261709 64.43928294 27.49123188 64.43359375 30.23046875 C64.43815857 32.14610478 64.44346504 34.06173918 64.44947815 35.97737122 C64.45840542 39.99124809 64.45599254 44.00492599 64.44604492 48.01879883 C64.43458749 53.13854508 64.45471913 58.25759829 64.48396206 63.37725353 C64.50240089 67.33492839 64.50201581 71.29243978 64.49632454 75.25014687 C64.49617209 77.13621298 64.50215245 79.02229072 64.51461601 80.90831566 C64.59920284 95.81336373 63.26966472 107.59946943 52.33984375 118.68359375 C42.8546858 127.34771297 33.80806367 128.21686105 21.375 128.3125 C20.14136719 128.34150391 18.90773437 128.37050781 17.63671875 128.40039062 C5.17882226 128.48644411 -3.72347527 125.00702382 -12.6875 116.375 C-19.84498726 108.64491375 -22.14187807 99.96570159 -22.17700195 89.6706543 C-22.18685875 88.41380325 -22.18685875 88.41380325 -22.19691467 87.13156128 C-22.21660329 84.36244614 -22.22829968 81.59338509 -22.23828125 78.82421875 C-22.24439454 77.40307738 -22.24439454 77.40307738 -22.25063133 75.95322609 C-22.27147201 70.93960413 -22.28578303 65.92600939 -22.29516602 60.91235352 C-22.30623314 55.74065679 -22.34064234 50.56938999 -22.38033772 45.39784527 C-22.40650788 41.41462923 -22.41485816 37.43151566 -22.41844749 33.44822121 C-22.4233115 31.54208278 -22.43492017 29.63594886 -22.45348549 27.72989464 C-22.47788815 25.05876105 -22.47691012 22.38874072 -22.4699707 19.7175293 C-22.48278076 18.93546616 -22.49559082 18.15340302 -22.50878906 17.34764099 C-22.45635793 11.79123338 -21.14579198 8.59619601 -18 4 C-12.81900198 -1.05147307 -6.84366817 -0.93066367 0 0 Z " fill="#F44335" transform="translate(235,384)"/>
<path d="M0 0 C0.9940535 -0.00524185 1.98810699 -0.0104837 3.01228333 -0.0158844 C5.09891836 -0.02226899 7.18558956 -0.02101418 9.2722168 -0.01245117 C12.45881929 -0.00390145 15.64365036 -0.03281692 18.83007812 -0.06445312 C20.86588488 -0.06606445 22.9016948 -0.06548892 24.9375 -0.0625 C25.88449265 -0.07373398 26.83148529 -0.08496796 27.80717468 -0.09654236 C33.47416271 -0.03690737 36.79186854 0.61828388 41.26953125 4.43359375 C45.35095243 8.95624965 46.59317661 12.22505728 46.48046875 18.37890625 C45.99097377 23.14694992 43.73772168 26.22472052 40.20703125 29.24609375 C35.64482904 32.64347838 32.40300093 32.60847728 26.8671875 32.6796875 C25.15559375 32.71262086 23.44400533 32.74583259 21.73242188 32.77929688 C19.02876398 32.82675535 16.32512853 32.87119384 13.62133789 32.91040039 C11.01555905 32.95007265 8.41022317 33.00162368 5.8046875 33.0546875 C4.99524185 33.06310165 4.1857962 33.07151581 3.3518219 33.08018494 C-0.50766719 33.16535806 -2.44727571 33.24479839 -5.73046875 35.43359375 C-6.91742428 38.99446033 -7.08142293 42.40690399 -7.29296875 46.12109375 C-7.33615234 46.82298828 -7.37933594 47.52488281 -7.42382812 48.24804688 C-7.52964235 49.97634581 -7.63053456 51.70494485 -7.73046875 53.43359375 C-6.48958496 53.4178833 -5.24870117 53.40217285 -3.97021484 53.38598633 C0.6478828 53.33155287 5.26595225 53.29719483 9.88427734 53.26879883 C11.88041966 53.25374277 13.87652906 53.23329348 15.87255859 53.20727539 C18.7471531 53.17075214 21.62130897 53.15383538 24.49609375 53.140625 C25.82769028 53.11739922 25.82769028 53.11739922 27.18618774 53.09370422 C32.31466859 53.09232149 35.8302971 53.57306813 40.26953125 56.43359375 C44.15401922 60.53388661 46.01023733 64.1431641 46.64453125 69.74609375 C46.17788363 74.33479535 44.94167698 77.67461199 42.26953125 81.43359375 C38.04129043 84.79892828 34.56443077 86.5637319 29.1652832 86.54711914 C27.93434685 86.54700584 27.93434685 86.54700584 26.67854309 86.54689026 C25.797202 86.54172897 24.9158609 86.53656769 24.0078125 86.53125 C23.1020195 86.52983505 22.1962265 86.5284201 21.26298523 86.52696228 C18.36930034 86.52136376 15.47569276 86.50881156 12.58203125 86.49609375 C10.62044383 86.49107856 8.65885519 86.48651568 6.69726562 86.48242188 C1.88799104 86.47139482 -2.92122575 86.45413122 -7.73046875 86.43359375 C-7.70952148 87.37154785 -7.68857422 88.30950195 -7.66699219 89.27587891 C-7.59857502 92.77598 -7.54855289 96.27536441 -7.51074219 99.77587891 C-7.49070084 101.28706111 -7.4634597 102.79816647 -7.42871094 104.30908203 C-7.37985766 106.48880018 -7.35742651 108.66748806 -7.33984375 110.84765625 C-7.31889648 112.15686035 -7.29794922 113.46606445 -7.27636719 114.81494141 C-7.94820773 120.16871592 -10.39304295 123.16303924 -14.23046875 126.80859375 C-19.39546884 129.2066295 -24.13069755 129.1874091 -29.73046875 128.43359375 C-34.69882232 126.12685816 -37.10794722 123.18711665 -39.73046875 118.43359375 C-40.2874411 115.49792591 -40.27806225 112.63090402 -40.24804688 109.64941406 C-40.25505615 108.78677948 -40.26206543 107.9241449 -40.26928711 107.03536987 C-40.28683903 104.19382172 -40.27525022 101.35327645 -40.26171875 98.51171875 C-40.26441545 96.52642629 -40.26829936 94.54113512 -40.27331543 92.55584717 C-40.27920753 88.39647843 -40.27066038 84.23745368 -40.25195312 80.078125 C-40.2292234 74.76769054 -40.24225066 69.45806747 -40.26624298 64.14766312 C-40.28075958 60.04675283 -40.27606715 55.94603193 -40.26573181 51.84511566 C-40.2630776 49.88845472 -40.26628794 47.93177615 -40.27565002 45.9751358 C-40.3265396 32.34416159 -39.73764014 20.76219463 -29.73046875 10.43359375 C-20.56616879 2.65877028 -11.8825886 -0.03707327 0 0 Z " fill="#D43A2F" transform="translate(39.73046875,383.56640625)"/>
<path d="M0 0 C1.24148804 -0.00945648 2.48297607 -0.01891296 3.76208496 -0.02865601 C5.10376304 -0.02328577 6.44543818 -0.01713269 7.78710938 -0.01025391 C9.17663729 -0.01227737 10.56616417 -0.01519108 11.95568848 -0.01895142 C14.86069907 -0.023362 17.76543197 -0.01698497 20.67041016 -0.00292969 C24.38263303 0.01416186 28.09420508 0.00431381 31.80640411 -0.01364708 C34.67357228 -0.02451945 37.5405877 -0.02102286 40.40776062 -0.0132637 C41.77601703 -0.01127121 43.14428759 -0.01368736 44.51252747 -0.02070236 C46.42892163 -0.02837297 48.34536482 -0.01459697 50.26171875 0 C51.89336975 0.00358017 51.89336975 0.00358017 53.5579834 0.00723267 C58.32113716 0.5977309 61.59385963 2.29357276 64.88085938 5.76318359 C68.16231619 10.68536882 69.23703695 14.42743741 68.63085938 20.38818359 C66.7136784 26.20508497 64.13598518 29.45992519 58.63085938 32.38818359 C55.07040761 33.57500085 52.192776 33.48508191 48.44335938 33.45068359 C47.17105469 33.44166016 45.89875 33.43263672 44.58789062 33.42333984 C43.12416016 33.4059375 43.12416016 33.4059375 41.63085938 33.38818359 C41.63752121 34.42721832 41.64418304 35.46625305 41.65104675 36.53677368 C41.7119012 46.33582337 41.75685285 56.13483465 41.78629589 65.93403053 C41.8019418 70.97172557 41.82316056 76.00926786 41.85717773 81.046875 C41.88980935 85.9098091 41.90772048 90.77259641 41.9154911 95.63563156 C41.92102777 97.48955978 41.93183957 99.34348011 41.94804955 101.19734573 C41.96987439 103.79710406 41.97282419 106.39625833 41.97143555 108.99609375 C41.98222137 109.75998413 41.9930072 110.52387451 42.00411987 111.31091309 C41.97655894 116.08955547 41.15539365 119.32926031 38.63085938 123.38818359 C34.53056651 127.27267157 30.92128903 129.12888967 25.31835938 129.76318359 C20.72965777 129.29653597 17.38984114 128.06032932 13.63085938 125.38818359 C9.15975422 119.77064122 8.48459245 115.39814969 8.51733398 108.4284668 C8.51718796 107.61848236 8.51704193 106.80849792 8.51689148 105.97396851 C8.51758837 103.29560675 8.52537035 100.61731446 8.53320312 97.93896484 C8.5350681 96.08237242 8.53649163 94.2257795 8.53749084 92.3691864 C8.54130978 87.48162478 8.55113476 82.59409285 8.56219482 77.70654297 C8.57242234 72.71956789 8.57699134 67.73258801 8.58203125 62.74560547 C8.59275757 52.95978513 8.60982653 43.17398683 8.63085938 33.38818359 C7.21933594 33.44039062 7.21933594 33.44039062 5.77929688 33.49365234 C4.5340625 33.52072266 3.28882813 33.54779297 2.00585938 33.57568359 C0.16121094 33.62789062 0.16121094 33.62789062 -1.72070312 33.68115234 C-6.2880105 33.31439854 -9.64607122 31.99665456 -13.01367188 28.85302734 C-17.75374489 22.65447033 -18.24384787 18.16115025 -17.36914062 10.38818359 C-14.32006821 2.84435787 -7.88388937 0.01729884 0 0 Z " fill="#F44335" transform="translate(337.369140625,212.61181640625)"/>
<path d="M0 0 C0 10.89 0 21.78 0 33 C-4.455 33.495 -4.455 33.495 -9 34 C-9.04629168 41.65807215 -9.08185303 49.31612984 -9.10362434 56.97430992 C-9.11407224 60.53012399 -9.12824959 64.0858425 -9.15087891 67.64160156 C-9.17671832 71.727223 -9.18646444 75.81274369 -9.1953125 79.8984375 C-9.20563507 81.17866791 -9.21595764 82.45889832 -9.22659302 83.77792358 C-9.22674408 84.95899689 -9.22689514 86.14007019 -9.22705078 87.35693359 C-9.23371262 88.92246475 -9.23371262 88.92246475 -9.24050903 90.5196228 C-9.24819002 93.17551768 -9.24819002 93.17551768 -7 95 C-4.69 95.33 -2.38 95.66 0 96 C0 106.89 0 117.78 0 129 C-13.87510354 129 -22.30354052 126.64694228 -32.75 117.625 C-41.94321419 106.89958344 -43.47101354 96.42223083 -43.43359375 82.6328125 C-43.43816547 81.14744836 -43.44347396 79.66208633 -43.44947815 78.17672729 C-43.45837132 75.0752499 -43.45603042 71.97403051 -43.44604492 68.87255859 C-43.43456913 64.92651184 -43.45476391 60.9813619 -43.48396206 57.03543282 C-43.50243869 53.97075885 -43.50200887 50.90629521 -43.49632454 47.84157944 C-43.49617267 46.38812885 -43.50210399 44.93466276 -43.51461601 43.48126602 C-43.60335537 31.48449405 -41.94998447 21.49325071 -34.046875 12.0703125 C-23.65812302 1.56260535 -14.81391278 0 0 0 Z " fill="#D43A2F" transform="translate(256,213)"/>
<path d="M0 0 C4.47870656 2.15937638 7.18198188 4.92952939 10 9 C11.21125432 12.63376296 11.17614393 15.99098013 11.20532227 19.77612305 C11.21522186 20.56660034 11.22512146 21.35707764 11.23532104 22.17150879 C11.26691393 24.78488162 11.29168474 27.39827263 11.31640625 30.01171875 C11.33697769 31.82347588 11.35797421 33.63522823 11.37937927 35.44697571 C11.43458035 40.21611664 11.48399831 44.98530074 11.53222656 49.7545166 C11.5824559 54.62088871 11.63813449 59.4871981 11.69335938 64.35351562 C11.80091694 73.90229018 11.90236728 83.45111918 12 93 C14.97 93.99 17.94 94.98 21 96 C21 106.56 21 117.12 21 128 C5.98706557 128 -2.2438859 126.43181358 -12.6875 116.375 C-19.84498726 108.64491375 -22.14187807 99.96570159 -22.17700195 89.6706543 C-22.18685875 88.41380325 -22.18685875 88.41380325 -22.19691467 87.13156128 C-22.21660329 84.36244614 -22.22829968 81.59338509 -22.23828125 78.82421875 C-22.24439454 77.40307738 -22.24439454 77.40307738 -22.25063133 75.95322609 C-22.27147201 70.93960413 -22.28578303 65.92600939 -22.29516602 60.91235352 C-22.30623314 55.74065679 -22.34064234 50.56938999 -22.38033772 45.39784527 C-22.40650788 41.41462923 -22.41485816 37.43151566 -22.41844749 33.44822121 C-22.4233115 31.54208278 -22.43492017 29.63594886 -22.45348549 27.72989464 C-22.47788815 25.05876105 -22.47691012 22.38874072 -22.4699707 19.7175293 C-22.48278076 18.93546616 -22.49559082 18.15340302 -22.50878906 17.34764099 C-22.45635793 11.79123338 -21.14579198 8.59619601 -18 4 C-12.81900198 -1.05147307 -6.84366817 -0.93066367 0 0 Z " fill="#D43A2F" transform="translate(235,384)"/>
</svg>
