<?xml version="1.0" encoding="UTF-8"?>
<svg version="1.1" xmlns="http://www.w3.org/2000/svg" width="512" height="512">
<path d="M0 0 C0.77434387 -0.00974854 1.54868774 -0.01949707 2.34649658 -0.02954102 C19.2013114 -0.19805967 35.36344222 -0.06804087 51.77734375 4.23828125 C52.53160645 4.42551758 53.28586914 4.61275391 54.06298828 4.80566406 C95.90556982 15.3230744 133.96022924 43.22966131 156.21875 80.21875 C158.52055431 84.16572954 160.6825293 88.17812423 162.77734375 92.23828125 C163.2566333 93.16592285 163.2566333 93.16592285 163.74560547 94.11230469 C174.12268213 114.51928974 180.84184533 137.68175914 180.98046875 160.6640625 C180.98752838 161.44501282 180.99458801 162.22596313 181.00186157 163.03057861 C181.22843116 195.44330958 181.22843116 195.44330958 177.77734375 209.23828125 C177.58398438 210.04861816 177.390625 210.85895508 177.19140625 211.69384766 C166.44933445 255.74794611 139.12737787 293.01697815 111.35546875 327.98046875 C108.79406129 331.20630145 106.28136787 334.46780973 103.77734375 337.73828125 C98.00390847 345.26899804 92.13141337 352.72108092 86.25292969 360.16992188 C85.23126477 361.46459011 84.21001693 362.7595876 83.18920898 364.05493164 C82.22877217 365.27364787 81.2673931 366.49162231 80.30493164 367.70874023 C78.3649735 370.17111969 76.51742864 372.62815391 74.77734375 375.23828125 C78.99424019 376.53299551 83.20360162 377.5678134 87.5234375 378.46484375 C108.96899259 382.91984979 129.55802243 388.52844916 148.77734375 399.23828125 C149.71578125 399.73972656 150.65421875 400.24117188 151.62109375 400.7578125 C163.75439936 407.55471055 175.88578871 418.48526267 180.359375 431.99609375 C182.36116874 442.7346882 181.27626236 453.00445771 175.4921875 462.3046875 C174.02386678 464.39469276 172.45159274 466.3096679 170.77734375 468.23828125 C169.90916016 469.28242187 169.90916016 469.28242187 169.0234375 470.34765625 C139.45119085 502.98708308 80.99632811 509.70180568 39.77734375 512.23828125 C35.46447883 512.38378284 31.15495787 512.42431091 26.83984375 512.44140625 C25.64880035 512.44842056 24.45775696 512.45543488 23.23062134 512.46266174 C19.41282319 512.48005564 15.59518006 512.48651298 11.77734375 512.48828125 C9.82232941 512.48929337 9.82232941 512.48929337 7.82781982 512.49032593 C-10.72486595 512.47503941 -28.87173224 512.17454368 -47.22265625 509.23828125 C-48.36573242 509.0666748 -49.50880859 508.89506836 -50.68652344 508.71826172 C-86.68276998 503.24099766 -128.63590862 493.96886561 -152.72265625 464.17578125 C-159.17217294 454.69232032 -160.3397418 445.45473211 -159.22265625 434.23828125 C-157.57473613 427.2022178 -153.91169096 421.63970898 -149.22265625 416.23828125 C-148.35447266 415.19414063 -148.35447266 415.19414063 -147.46875 414.12890625 C-124.94224673 389.26599462 -85.5389355 381.93033456 -54.22265625 376.23828125 C-54.22265625 372.10060637 -55.90004413 370.95930993 -58.59765625 367.86328125 C-59.52938428 366.77648564 -60.45901274 365.68788712 -61.38671875 364.59765625 C-61.86270508 364.03884766 -62.33869141 363.48003906 -62.82910156 362.90429688 C-65.38479581 359.8489259 -67.78256062 356.67359197 -70.19775391 353.50708008 C-70.61847168 352.95560303 -71.03918945 352.40412598 -71.47265625 351.8359375 C-71.9109375 351.26117676 -72.34921875 350.68641602 -72.80078125 350.09423828 C-75.50499974 346.56445309 -78.2407223 343.0591279 -80.97265625 339.55078125 C-81.56457764 338.78942871 -82.15649902 338.02807617 -82.76635742 337.24365234 C-85.75966156 333.39483033 -88.75985598 329.55171926 -91.7734375 325.71875 C-124.26544583 284.31938755 -158.90048069 236.57296773 -159.4609375 181.69921875 C-159.47073135 180.90418442 -159.48052521 180.10915009 -159.49061584 179.2900238 C-159.65760511 162.22667173 -159.59940327 145.84800195 -155.22265625 129.23828125 C-155.02961914 128.43616211 -154.83658203 127.63404297 -154.63769531 126.80761719 C-148.45158993 101.30136 -135.39055424 77.94103666 -118.22265625 58.23828125 C-116.97742188 56.79195312 -116.97742188 56.79195312 -115.70703125 55.31640625 C-87.41826256 23.07549163 -43.27653528 0.4518864 0 0 Z M-10.22265625 125.23828125 C-11.07988281 125.67398438 -11.93710938 126.1096875 -12.8203125 126.55859375 C-22.6199406 131.9683432 -29.17665161 139.31049106 -34.22265625 149.23828125 C-34.63773437 150.02332031 -35.0528125 150.80835938 -35.48046875 151.6171875 C-40.02222245 161.76467217 -40.15923666 175.85811551 -36.59765625 186.36328125 C-35.85921709 188.01315055 -35.06755873 189.64031351 -34.22265625 191.23828125 C-33.56910156 192.52412109 -33.56910156 192.52412109 -32.90234375 193.8359375 C-25.98233589 206.37136157 -15.388362 213.98560128 -1.9296875 218.484375 C11.10601607 222.11480904 23.73718994 219.66473225 35.51171875 213.2890625 C47.68992759 205.64126388 55.40345209 195.15359249 59.31005859 181.35693359 C61.60622997 170.94618374 60.68554335 158.65836619 55.77734375 149.23828125 C55.34164062 148.37976563 54.9059375 147.52125 54.45703125 146.63671875 C49.04109692 136.84068453 41.70607231 130.28476284 31.77734375 125.23828125 C30.99230469 124.82320313 30.20726562 124.408125 29.3984375 123.98046875 C17.57914816 118.69045818 1.17605207 119.211378 -10.22265625 125.23828125 Z " fill="#FB6143" transform="translate(245.22265625,-0.23828125)"/>
<path d="M0 0 C0.77434387 -0.00974854 1.54868774 -0.01949707 2.34649658 -0.02954102 C19.2013114 -0.19805967 35.36344222 -0.06804087 51.77734375 4.23828125 C52.53160645 4.42551758 53.28586914 4.61275391 54.06298828 4.80566406 C95.90556982 15.3230744 133.96022924 43.22966131 156.21875 80.21875 C158.52055431 84.16572954 160.6825293 88.17812423 162.77734375 92.23828125 C163.2566333 93.16592285 163.2566333 93.16592285 163.74560547 94.11230469 C174.12268213 114.51928974 180.84184533 137.68175914 180.98046875 160.6640625 C180.98752838 161.44501282 180.99458801 162.22596313 181.00186157 163.03057861 C181.22843116 195.44330958 181.22843116 195.44330958 177.77734375 209.23828125 C177.58398438 210.04861816 177.390625 210.85895508 177.19140625 211.69384766 C166.44933445 255.74794611 139.12737787 293.01697815 111.35546875 327.98046875 C108.79406129 331.20630145 106.28136787 334.46780973 103.77734375 337.73828125 C98.00390847 345.26899804 92.13141337 352.72108092 86.25292969 360.16992188 C85.23126477 361.46459011 84.21001693 362.7595876 83.18920898 364.05493164 C82.22877217 365.27364787 81.2673931 366.49162231 80.30493164 367.70874023 C78.3649735 370.17111969 76.51742864 372.62815391 74.77734375 375.23828125 C78.99424019 376.53299551 83.20360162 377.5678134 87.5234375 378.46484375 C108.96899259 382.91984979 129.55802243 388.52844916 148.77734375 399.23828125 C149.71578125 399.73972656 150.65421875 400.24117188 151.62109375 400.7578125 C163.75439936 407.55471055 175.88578871 418.48526267 180.359375 431.99609375 C182.36116874 442.7346882 181.27626236 453.00445771 175.4921875 462.3046875 C174.02386678 464.39469276 172.45159274 466.3096679 170.77734375 468.23828125 C169.90916016 469.28242187 169.90916016 469.28242187 169.0234375 470.34765625 C139.45119085 502.98708308 80.99632811 509.70180568 39.77734375 512.23828125 C35.46447883 512.38378284 31.15495787 512.42431091 26.83984375 512.44140625 C25.64880035 512.44842056 24.45775696 512.45543488 23.23062134 512.46266174 C19.41282319 512.48005564 15.59518006 512.48651298 11.77734375 512.48828125 C9.82232941 512.48929337 9.82232941 512.48929337 7.82781982 512.49032593 C-10.72486595 512.47503941 -28.87173224 512.17454368 -47.22265625 509.23828125 C-48.36573242 509.0666748 -49.50880859 508.89506836 -50.68652344 508.71826172 C-86.68276998 503.24099766 -128.63590862 493.96886561 -152.72265625 464.17578125 C-159.17217294 454.69232032 -160.3397418 445.45473211 -159.22265625 434.23828125 C-157.57473613 427.2022178 -153.91169096 421.63970898 -149.22265625 416.23828125 C-148.35447266 415.19414063 -148.35447266 415.19414063 -147.46875 414.12890625 C-124.94224673 389.26599462 -85.5389355 381.93033456 -54.22265625 376.23828125 C-54.22265625 372.10060637 -55.90004413 370.95930993 -58.59765625 367.86328125 C-59.52938428 366.77648564 -60.45901274 365.68788712 -61.38671875 364.59765625 C-61.86270508 364.03884766 -62.33869141 363.48003906 -62.82910156 362.90429688 C-65.38479581 359.8489259 -67.78256062 356.67359197 -70.19775391 353.50708008 C-70.61847168 352.95560303 -71.03918945 352.40412598 -71.47265625 351.8359375 C-71.9109375 351.26117676 -72.34921875 350.68641602 -72.80078125 350.09423828 C-75.50499974 346.56445309 -78.2407223 343.0591279 -80.97265625 339.55078125 C-81.56457764 338.78942871 -82.15649902 338.02807617 -82.76635742 337.24365234 C-85.75966156 333.39483033 -88.75985598 329.55171926 -91.7734375 325.71875 C-124.26544583 284.31938755 -158.90048069 236.57296773 -159.4609375 181.69921875 C-159.47073135 180.90418442 -159.48052521 180.10915009 -159.49061584 179.2900238 C-159.65760511 162.22667173 -159.59940327 145.84800195 -155.22265625 129.23828125 C-155.02961914 128.43616211 -154.83658203 127.63404297 -154.63769531 126.80761719 C-148.45158993 101.30136 -135.39055424 77.94103666 -118.22265625 58.23828125 C-116.97742188 56.79195312 -116.97742188 56.79195312 -115.70703125 55.31640625 C-87.41826256 23.07549163 -43.27653528 0.4518864 0 0 Z M-0.859375 20.296875 C-37.49751713 21.60396548 -72.06991782 40.42362866 -97.22265625 66.23828125 C-98.04056641 66.97111328 -98.04056641 66.97111328 -98.875 67.71875 C-122.99440823 90.06249628 -137.07561034 125.84847522 -139.22265625 158.23828125 C-141.59514998 221.3209079 -110.53342239 268.87409583 -72.54931641 316.56884766 C-70.26089411 319.44853696 -67.99303948 322.34436466 -65.72265625 325.23828125 C-64.80219091 326.41024075 -63.88161823 327.58211596 -62.9609375 328.75390625 C-62.5067041 329.33205078 -62.0524707 329.91019531 -61.58447266 330.50585938 C-60.24980625 332.20374263 -58.91411546 333.90081472 -57.578125 335.59765625 C-51.29861355 343.57611222 -45.05492481 351.58190439 -38.828125 359.6015625 C-36.46312073 362.64648154 -34.09056146 365.68524445 -31.7109375 368.71875 C-23.96317489 378.60861124 -16.43473806 388.63896881 -9.02099609 398.78125 C-5.86947555 403.08710158 -2.70142295 407.38076854 0.46484375 411.67578125 C1.05330078 412.47491943 1.64175781 413.27405762 2.24804688 414.09741211 C2.79783203 414.84385986 3.34761719 415.59030762 3.9140625 416.359375 C4.39576904 417.01349365 4.87747559 417.6676123 5.3737793 418.34155273 C6.83309197 420.31361747 8.30332526 422.27719105 9.77734375 424.23828125 C13.07489243 423.13909836 13.45959171 422.66675787 15.3515625 419.94140625 C15.84591797 419.24072021 16.34027344 418.54003418 16.84960938 417.81811523 C17.64915039 416.66484741 17.64915039 416.66484741 18.46484375 415.48828125 C23.44321706 408.45001374 28.5362332 401.5208116 33.77734375 394.67578125 C34.45418213 393.79140381 35.13102051 392.90702637 35.82836914 391.99584961 C37.17226276 390.24177419 38.51689384 388.4882635 39.86230469 386.73535156 C41.64270013 384.41384664 43.41826724 382.08876848 45.19140625 379.76171875 C57.03415191 364.22457848 69.06358536 348.83359266 81.15527344 333.48974609 C92.6289039 318.92891416 103.87209742 304.23108416 114.77734375 289.23828125 C115.32245605 288.48933594 115.86756836 287.74039062 116.42919922 286.96875 C143.55456439 249.54986954 162.87228241 209.36125294 160.77734375 162.23828125 C160.74012207 161.37203125 160.70290039 160.50578125 160.66455078 159.61328125 C159.66796536 139.98821456 154.42620178 121.8342338 145.77734375 104.23828125 C145.23335938 103.12195313 144.689375 102.005625 144.12890625 100.85546875 C136.6179117 86.2213714 126.53329395 73.69279683 114.77734375 62.23828125 C114.25398437 61.66980469 113.730625 61.10132813 113.19140625 60.515625 C88.63427591 34.45605419 49.98409673 21.23189713 15 20.02734375 C9.70665063 19.93334749 4.43226254 20.21161768 -0.859375 20.296875 Z " fill="#010000" transform="translate(245.22265625,-0.23828125)"/>
<path d="M0 0 C0.71639648 0.95144897 0.71639648 0.95144897 1.44726562 1.92211914 C2.27025146 2.99635132 2.27025146 2.99635132 3.10986328 4.09228516 C3.97297119 5.26295532 3.97297119 5.26295532 4.85351562 6.45727539 C5.46372559 7.26414795 6.07393555 8.07102051 6.70263672 8.90234375 C8.60379989 11.42897342 10.4820928 13.97105699 12.35351562 16.51977539 C13.20671387 17.67848145 13.20671387 17.67848145 14.07714844 18.8605957 C19.04363007 25.62775578 23.93466706 32.44457924 28.69335938 39.35961914 C29.23460449 40.14135498 29.77584961 40.92309082 30.33349609 41.72851562 C31.3626729 43.21861503 32.38427619 44.71398364 33.39697266 46.21533203 C33.8582959 46.88298584 34.31961914 47.55063965 34.79492188 48.23852539 C35.19396729 48.82569336 35.5930127 49.41286133 36.00415039 50.01782227 C38.45095209 52.74131133 40.75674818 53.47004477 44.35351562 53.76977539 C47.93559668 53.47126864 50.25051934 52.74898418 52.68701172 50.03369141 C53.07969238 49.45288818 53.47237305 48.87208496 53.87695312 48.27368164 C54.33320068 47.61110352 54.78944824 46.94852539 55.25952148 46.26586914 C55.98667358 45.18499023 55.98667358 45.18499023 56.72851562 44.08227539 C57.79834734 42.53026366 58.87003348 40.97952895 59.94335938 39.42993164 C60.5013623 38.62185059 61.05936523 37.81376953 61.63427734 36.98120117 C64.45339755 32.94507934 67.36620825 28.97969642 70.29101562 25.01977539 C71.15738647 23.84644653 71.15738647 23.84644653 72.04125977 22.64941406 C88.68646599 0.18682502 88.68646599 0.18682502 91.35351562 -2.48022461 C98.24638763 -2.90240287 104.56405352 -1.64796206 111.29101562 -0.23022461 C112.40057617 0.00011475 113.51013672 0.2304541 114.65332031 0.46777344 C116.8751061 0.93239014 119.09600069 1.40129196 121.31591797 1.87475586 C123.88414264 2.42010625 126.45520785 2.94453297 129.02929688 3.46118164 C151.12896018 8.06906398 176.19580083 17.0399191 191.35351562 34.51977539 C194.05180448 39.17992056 195.41690368 43.14207009 194.35351562 48.51977539 C193.06567218 51.51329593 191.3654857 53.96612107 189.35351562 56.51977539 C188.89203125 57.10629883 188.43054688 57.69282227 187.95507812 58.29711914 C162.99422097 86.23554047 107.94928108 91.72364947 73.36499023 94.00390625 C48.60240043 95.35535992 22.93958085 96.13823027 -1.64648438 92.51977539 C-2.60651367 92.38555176 -3.56654297 92.25132812 -4.55566406 92.11303711 C-36.89103685 87.53498104 -80.32153405 81.26495398 -102.64648438 54.51977539 C-105.62148519 50.05727417 -106.6684722 45.82008478 -105.64648438 40.51977539 C-100.60060328 27.65023018 -86.15138218 19.83110211 -74.24414062 14.51977539 C-60.93346409 8.81848155 -12.75994065 -11.4714591 0 0 Z " fill="#84E173" transform="translate(211.646484375,397.480224609375)"/>
<path d="M0 0 C15.28874729 12.6865989 25.03316025 29.0365765 27 49 C28.04147418 68.35406178 23.15436589 87.492606 10.15234375 102.359375 C-2.71618763 116.28512848 -19.75915881 125.05423061 -38.83984375 126.23828125 C-57.69169303 126.74735685 -74.64097421 121.6876048 -89 109 C-89.82371094 108.28199219 -90.64742187 107.56398438 -91.49609375 106.82421875 C-103.84900428 95.33619998 -112.23642981 78.37716234 -113.203125 61.44140625 C-113.4648926 39.78013739 -107.67429366 21.50888766 -92.3125 5.75 C-67.27638933 -18.9316946 -28.23448587 -20.34330905 0 0 Z M-64 11 C-64.85722656 11.43570313 -65.71445313 11.87140625 -66.59765625 12.3203125 C-76.39728435 17.73006195 -82.95399536 25.07220981 -88 35 C-88.41507813 35.78503906 -88.83015625 36.57007813 -89.2578125 37.37890625 C-93.7995662 47.52639092 -93.93658041 61.61983426 -90.375 72.125 C-89.63656084 73.7748693 -88.84490248 75.40203226 -88 77 C-87.34644531 78.28583984 -87.34644531 78.28583984 -86.6796875 79.59765625 C-79.75967964 92.13308032 -69.16570575 99.74732003 -55.70703125 104.24609375 C-42.67132768 107.87652779 -30.04015381 105.426451 -18.265625 99.05078125 C-6.08741616 91.40298263 1.62610834 80.91531124 5.53271484 67.11865234 C7.82888622 56.70790249 6.9081996 44.42008494 2 35 C1.56429687 34.14148438 1.12859375 33.28296875 0.6796875 32.3984375 C-4.73624683 22.60240328 -12.07127144 16.04648159 -22 11 C-22.78503906 10.58492187 -23.57007813 10.16984375 -24.37890625 9.7421875 C-36.19819559 4.45217693 -52.60129168 4.97309675 -64 11 Z " fill="#010000" transform="translate(299,114)"/>
<path d="M0 0 C31.88281622 10.69361538 56.94147499 36.61058075 72.01123047 65.9765625 C79.89963909 82.11955772 84.00863743 100.30871531 84.25 118.25 C84.27578125 119.41015625 84.3015625 120.5703125 84.328125 121.765625 C83.88186036 126.16451932 82.27497981 128.72502019 79.1875 131.8125 C76.1472735 133.46290867 74.42050168 133.54728027 71 133 C67.57454012 130.92564959 65.29407805 128.88223414 64 125 C63.83328939 123.57398846 63.70606737 122.14313206 63.60546875 120.7109375 C61.39199061 92.17896105 53.30700349 68.81039826 34 47 C33.38769531 46.30390625 32.77539062 45.6078125 32.14453125 44.890625 C22.50717871 34.61626195 10.52316707 27.85247851 -2.07519531 21.90966797 C-4.16187502 20.92349742 -6.24480711 19.93138952 -8.3203125 18.921875 C-9.28735107 18.45539551 -9.28735107 18.45539551 -10.27392578 17.97949219 C-13.0071686 16.42846388 -14.45232823 14.7084256 -16 12 C-16.59521377 8.89166141 -16.65512336 7.03949464 -14.94140625 4.3203125 C-10.30192311 -1.43429864 -6.96485578 -1.53479388 0 0 Z " fill="#030100" transform="translate(302,48)"/>
<path d="M0 0 C4.99503071 0.4913145 6.31841769 1.88091769 9.8125 5.375 C11.26397903 8.27795805 11.18489025 10.14761779 10.8125 13.375 C8.99939858 16.30437654 6.93954101 18.81147949 3.8125 20.375 C0.5 20.75 0.5 20.75 -3.1875 20.375 C-7.06699018 17.17020377 -8.99576445 15.06866403 -9.5625 10.0625 C-9.09536625 5.46901813 -7.66709782 4.26052015 -4.1875 1.375 C-3.1875 0.375 -3.1875 0.375 0 0 Z " fill="#070201" transform="translate(256.1875,39.625)"/>
</svg>
