<?xml version="1.0" encoding="UTF-8"?>
<svg version="1.1" xmlns="http://www.w3.org/2000/svg" width="512" height="512">
<path d="M0 0 C6.08922573 5.33145542 9.60582212 10.35328469 10.7578125 18.5390625 C11.34230308 38.28997344 5.78369466 58.9003605 -0.2421875 77.5390625 C-0.49838867 78.33763672 -0.75458984 79.13621094 -1.01855469 79.95898438 C-8.9784444 104.26810804 -21.57014948 125.17778743 -39.2421875 143.5390625 C-39.81066406 144.17070312 -40.37914062 144.80234375 -40.96484375 145.453125 C-68.17915754 174.82509539 -115.48186075 189.52048175 -154.2421875 192.5390625 C-158.9103965 192.71029912 -163.5731662 192.6685577 -168.2421875 192.5390625 C-179.41044544 214.69076088 -187.03175157 237.29541238 -192.2421875 261.5390625 C-189.13952729 263.12377969 -185.98239041 264.47337693 -182.75952148 265.79711914 C-174.75561264 269.13341217 -168.00214596 273.03305924 -161.2421875 278.5390625 C-160.61183594 279.00699219 -159.98148437 279.47492188 -159.33203125 279.95703125 C-150.82370445 286.56600492 -144.18955974 296.58136972 -140.2421875 306.5390625 C-140.2421875 307.1990625 -140.2421875 307.8590625 -140.2421875 308.5390625 C-138.81326172 308.12333984 -138.81326172 308.12333984 -137.35546875 307.69921875 C-136.10121094 307.33699219 -134.84695313 306.97476562 -133.5546875 306.6015625 C-132.31332031 306.24191406 -131.07195312 305.88226563 -129.79296875 305.51171875 C-109.74833508 300.02094451 -86.62927809 303.02762145 -68.2421875 312.5390625 C-49.63884088 323.21830997 -37.14804587 338.18099092 -28.2421875 357.5390625 C-27.65050781 357.40628906 -27.05882812 357.27351563 -26.44921875 357.13671875 C-25.65902344 356.96011719 -24.86882812 356.78351563 -24.0546875 356.6015625 C-22.88873047 356.34052734 -22.88873047 356.34052734 -21.69921875 356.07421875 C-20.88839844 355.89761719 -20.07757813 355.72101563 -19.2421875 355.5390625 C-18.08783203 355.26835938 -18.08783203 355.26835938 -16.91015625 354.9921875 C-2.66330447 352.57251721 11.83615544 355.20030058 23.7578125 363.5390625 C34.3425099 371.63709219 42.33693682 382.21708388 44.7578125 395.5390625 C46.32358702 412.29319244 44.06043899 425.86543348 33.7578125 439.5390625 C25.67437137 449.23583076 15.17330862 455.22920276 2.7578125 457.5390625 C-6.97702998 458.41884944 -16.74241016 457.88261991 -26.2421875 455.5390625 C-26.66177734 456.64701172 -26.66177734 456.64701172 -27.08984375 457.77734375 C-34.38722391 476.24370447 -47.21223558 492.56128727 -65.2421875 501.5390625 C-85.61631562 509.92977283 -108.67172295 512.40268395 -129.4453125 503.83984375 C-140.82592817 498.91230843 -155.45677242 491.10989266 -161.2421875 479.5390625 C-164.47284151 480.9542605 -166.514907 482.67687288 -168.9921875 485.1640625 C-181.57370243 496.52467385 -198.37862096 501.50957522 -215.125 500.8828125 C-231.02809095 499.82512474 -244.81870699 493.53217462 -256.21875 482.359375 C-258.20366917 480.33001871 -258.20366917 480.33001871 -261.2421875 479.5390625 C-261.64308594 480.02375 -262.04398438 480.5084375 -262.45703125 481.0078125 C-274.74433648 495.49624498 -290.95069252 506.42199338 -310.2421875 508.5390625 C-331.84807625 510.0530409 -352.29758922 507.19459916 -369.8046875 493.5390625 C-371.30337588 492.22771017 -372.7840417 490.89535253 -374.2421875 489.5390625 C-374.9228125 488.94867188 -375.6034375 488.35828125 -376.3046875 487.75 C-385.77298451 479.05839923 -391.88944836 467.48175381 -396.2421875 455.5390625 C-396.82742188 455.6834375 -397.41265625 455.8278125 -398.015625 455.9765625 C-414.00040942 459.4327321 -429.77715423 458.8360242 -444.0546875 450.2890625 C-456.10373804 442.01736308 -464.06891045 430.91983114 -467.2421875 416.5390625 C-467.64582588 413.06718033 -467.72073861 409.65696271 -467.6796875 406.1640625 C-467.67138916 405.2457666 -467.66309082 404.3274707 -467.65454102 403.38134766 C-467.31891345 389.85830375 -462.15500969 378.64813542 -452.9296875 368.7265625 C-441.49299847 358.05572318 -427.59212669 354.12380616 -412.34765625 354.3046875 C-407.80360265 354.46889236 -403.69145658 355.45630274 -399.37890625 356.8828125 C-397.13676 357.6858598 -397.13676 357.6858598 -394.2421875 357.5390625 C-393.6853125 356.42789062 -393.1284375 355.31671875 -392.5546875 354.171875 C-388.17786982 345.58156094 -383.78838168 337.70556137 -377.2421875 330.5390625 C-376.6646875 329.87003906 -376.0871875 329.20101563 -375.4921875 328.51171875 C-365.70745788 317.86239018 -352.81394353 311.02840975 -339.2421875 306.5390625 C-338.26765625 306.20003906 -337.293125 305.86101562 -336.2890625 305.51171875 C-320.05140204 300.80106057 -301.13304362 302.23500999 -285.2421875 307.5390625 C-284.2521875 307.8690625 -283.2621875 308.1990625 -282.2421875 308.5390625 C-282.07203125 307.44464844 -282.07203125 307.44464844 -281.8984375 306.328125 C-278.80088706 293.16353562 -265.95236581 280.92167598 -255.2421875 273.5390625 C-248.57191526 269.47691406 -241.73514977 265.82252267 -234.2421875 263.5390625 C-240.99350735 246.92902723 -249.39593077 229.38531923 -262.2421875 216.5390625 C-263.2321875 216.8690625 -264.2221875 217.1990625 -265.2421875 217.5390625 C-309.78572814 219.88345938 -357.78972435 206.22308446 -392.2421875 177.5390625 C-393.14324219 176.7965625 -394.04429687 176.0540625 -394.97265625 175.2890625 C-399.87427692 171.08532752 -404.16638026 166.53963272 -408.2421875 161.5390625 C-409.34820312 160.22421875 -409.34820312 160.22421875 -410.4765625 158.8828125 C-433.11569327 130.90834518 -453.5167232 85.28239911 -450.2421875 48.5390625 C-448.37311514 41.8575655 -444.95359331 37.61310201 -439.3046875 33.6953125 C-433.56409687 30.4771026 -428.8504995 30.18676316 -422.3671875 30.2265625 C-421.3975708 30.23220215 -420.4279541 30.2378418 -419.42895508 30.24365234 C-372.91215252 30.99965799 -326.92428372 47.55727091 -293.50390625 80.21484375 C-270.25483496 104.65047051 -257.45308624 136.31478107 -249.2421875 168.5390625 C-249.06284668 169.23757324 -248.88350586 169.93608398 -248.69873047 170.65576172 C-246.44215969 179.71117632 -243.85892374 192.34593916 -246.90014648 201.52490234 C-247.45020244 203.56066162 -247.45020244 203.56066162 -246.3527832 205.31225586 C-245.87929443 205.91175049 -245.40580566 206.51124512 -244.91796875 207.12890625 C-244.38961426 207.82000488 -243.86125977 208.51110352 -243.31689453 209.22314453 C-242.73536621 209.96677246 -242.15383789 210.71040039 -241.5546875 211.4765625 C-215.2421875 246.52392031 -215.2421875 246.52392031 -215.2421875 260.5390625 C-213.9221875 260.5390625 -212.6021875 260.5390625 -211.2421875 260.5390625 C-211.03464844 259.36214844 -210.82710938 258.18523437 -210.61328125 256.97265625 C-206.13471578 232.58879813 -198.64233094 208.37862092 -186.4921875 186.6640625 C-184.48333073 182.82591157 -183.96657739 180.66911894 -184.8671875 176.4140625 C-185.10695313 175.71023437 -185.34671875 175.00640625 -185.59375 174.28125 C-193.06667878 142.67886442 -173.27558783 97.15433147 -157.09765625 70.66503906 C-145.47508894 52.33793425 -130.49987317 37.06195755 -112.05810547 25.66210938 C-110.37986596 24.62420917 -108.71838495 23.55934159 -107.05859375 22.4921875 C-85.04238236 9.01837392 -24.75818451 -17.37927462 0 0 Z " fill="#010000" transform="translate(467.2421875,3.4609375)"/>
<path d="M0 0 C3.18177657 11.16710903 6.20881063 22.28920373 6 34 C5.11248047 34.47179687 5.11248047 34.47179687 4.20703125 34.953125 C-3.51774054 38.74679004 -3.51774054 38.74679004 -9 45 C-9.35872645 48.87424565 -9.56710729 51.14933906 -7.375 54.4375 C-4.28646674 56.46942977 -2.65662073 56.36745453 1 56 C3.77372205 54.46891774 3.77372205 54.46891774 6.375 52.4375 C12.41045579 48.41930751 12.41045579 48.41930751 16.1875 48.6875 C20.20616913 49.62245567 22.91556611 52.12512378 26.05078125 54.6875 C29.10928092 56.74693064 31.45016115 56.61439519 35 56 C37.55851025 55.18547684 37.55851025 55.18547684 39 53 C39.68191639 48.30235373 39.89468151 46.21214915 37.0625 42.375 C34.22057536 40.03415342 34.22057536 40.03415342 31.6640625 38.75 C25.41970622 35.28310188 25.41970622 35.28310188 24.31640625 31.91015625 C24.23421705 28.84981738 24.57130849 26.03683757 25 23 C25.22306102 21.22921761 25.44567875 19.45837935 25.66796875 17.6875 C27.63302185 2.7339563 27.63302185 2.7339563 29 0 C43.10500194 2.15161047 54.28199716 9.98643784 63 21 C67.98964098 28.02465508 71.61225118 35.68169065 74.2109375 43.890625 C74.89974682 46.17610819 74.89974682 46.17610819 77 48 C82.24685299 48.66778129 85.43736148 47.99312279 90.1875 45.6875 C105.11257251 38.48088063 121.61804609 37.91091363 137.3671875 42.67578125 C156.51747099 49.65636846 170.96422662 61.74346837 180.12011719 80.02197266 C181.95629888 84.14981508 183.21403023 88.48362902 184.3659668 92.84594727 C185.50751913 97.17961851 185.50751913 97.17961851 189 100 C195.51937851 100.89922462 198.63072745 99.43853535 203.82421875 95.5078125 C211.13199757 90.4435349 220.46261142 90.93493964 229 92 C238.54007431 94.74812655 245.25775908 100.81384665 250.33984375 109.21484375 C254.52101844 117.2052025 255.47944161 125.95542428 253.31640625 134.79296875 C249.68818605 144.5033506 243.37761538 152.56605539 233.8515625 157 C224.17480594 160.74119956 215.93640674 161.3667092 206.3125 157.15625 C204.23059245 156.11529623 202.28454522 154.98252826 200.3125 153.75 C196.49788143 151.73472981 194.25424124 151.42731368 190 152 C186.26141276 154.9588759 185.80751449 158.94037966 184.75 163.375 C180.59644939 179.32565517 172.30665151 193.12785393 158 202 C143.75430115 210.35446604 128.2526861 213.43051192 111.9375 209.9375 C94.73517321 204.92688938 82.4238283 195.09924311 73 180 C70.60878592 175.87558566 70.60878592 175.87558566 67 173 C63.62177584 172.85624578 61.22609045 172.92463652 58 174 C57.731875 174.680625 57.46375 175.36125 57.1875 176.0625 C52.95514227 186.5320165 43.48807874 194.20944357 33.5546875 198.9921875 C22.98678217 203.16117768 9.7697035 204.07858193 -1.125 200.375 C-12.38425297 195.39795773 -22.52076554 187.22189366 -28 176 C-28 175.34 -28 174.68 -28 174 C-29.57729717 173.69597898 -31.16253528 173.43296059 -32.75 173.1875 C-34.07257813 172.96126953 -34.07257813 172.96126953 -35.421875 172.73046875 C-38.19948731 172.74485115 -38.19948731 172.74485115 -40.12890625 175.16015625 C-41.8836657 177.82343416 -43.56263547 180.50578434 -45.1875 183.25 C-54.20119844 197.48819882 -66.99679653 205.36194582 -83 210 C-99.53609657 213.43325001 -115.84131408 210.14465555 -130 201 C-141.85998838 192.38946694 -152.02338952 179.54455104 -154.5390625 164.8515625 C-154.83301398 162.79390216 -155.09433955 160.73113278 -155.3125 158.6640625 C-156.16397601 155.36459295 -157.32570827 154.07305708 -160 152 C-166.10225028 151.08466246 -168.96513998 152.27695384 -173.9453125 155.6875 C-180.62885034 159.95683216 -188.21706149 161.09234225 -196 160 C-205.52408154 157.36593904 -213.38279387 152.5097528 -218.8515625 144.1796875 C-223.90927222 135.19086691 -225.83681382 126.50469648 -223.31640625 116.20703125 C-219.4027803 105.73280412 -212.71269311 98.41351061 -202.7890625 93.3671875 C-198.65199694 91.66485694 -194.75049166 91.42514055 -190.3125 91.4375 C-189.52810547 91.4370166 -188.74371094 91.4365332 -187.93554688 91.43603516 C-179.94963917 91.66331631 -172.73438059 94.26561941 -167 100 C-161.11663097 100.50966413 -161.11663097 100.50966413 -156 98 C-155.11656104 95.51404386 -154.37471387 93.10138155 -153.6875 90.5625 C-148.1492737 71.68572866 -136.37213345 57.29660902 -119.23730469 47.66113281 C-114.28538222 44.99883773 -109.44780598 43.28240389 -104 42 C-102.1746875 41.4121875 -102.1746875 41.4121875 -100.3125 40.8125 C-85.92408174 37.44561013 -69.91215556 40.87018723 -56.85546875 47.234375 C-53.757715 48.51260602 -51.26940701 48.51284816 -48 48 C-44.38775743 45.09509771 -43.13798672 42.27841116 -41.6875 37.9375 C-36.07345797 22.75753742 -25.70410299 10.15729516 -11 3 C-7.32809355 1.36387842 -4.08113356 0 0 0 Z " fill="#9F512C" transform="translate(241,284)"/>
<path d="M0 0 C4.21889233 7.03148722 1.56883347 16.77196524 0.25 24.5 C-0.01514404 26.06331055 -0.01514404 26.06331055 -0.28564453 27.65820312 C-2.0920362 37.76169762 -4.83235827 47.41625357 -8.125 57.125 C-8.46072021 58.15149658 -8.46072021 58.15149658 -8.80322266 59.19873047 C-14.35457378 76.05178673 -22.61258351 92.56639099 -34.125 106.125 C-34.85332031 106.99125 -35.58164062 107.8575 -36.33203125 108.75 C-58.61956137 134.35528855 -90.69293555 149.46660665 -123.6875 155.8125 C-124.73357422 156.02455078 -125.77964844 156.23660156 -126.85742188 156.45507812 C-133.59783335 157.78140366 -140.27255708 158.64664596 -147.125 159.125 C-138.32958305 146.81141626 -127.87725692 135.72253296 -117.56494141 124.67822266 C-116.19123866 123.1964497 -114.83536347 121.69820862 -113.48046875 120.19921875 C-106.82539839 112.83821617 -99.8817184 105.77430277 -92.875 98.75 C-92.4031427 98.2755545 -91.9312854 97.80110901 -91.44512939 97.31228638 C-86.4220969 92.26752097 -81.35741274 87.3423376 -75.95263672 82.70751953 C-72.99056982 80.14271621 -70.16221932 77.43808853 -67.3125 74.75 C-62.38134837 70.13522611 -57.33843978 65.75366508 -52.0703125 61.5234375 C-48.34812606 58.49237321 -44.69964704 55.38226413 -41.0625 52.25 C-40.40644775 51.68990234 -39.75039551 51.12980469 -39.07446289 50.55273438 C-38.46078857 50.02228516 -37.84711426 49.49183594 -37.21484375 48.9453125 C-36.66691162 48.47367676 -36.11897949 48.00204102 -35.55444336 47.51611328 C-33.87874961 45.98249872 -33.87874961 45.98249872 -32.125 43.125 C-32.29833128 38.22742611 -32.29833128 38.22742611 -34.8125 34.1875 C-37.83811402 32.79735302 -39.81120223 32.80667952 -43.125 33.125 C-45.76335029 34.67489963 -45.76335029 34.67489963 -48.1875 36.9375 C-49.13625 37.75863281 -50.085 38.57976563 -51.0625 39.42578125 C-51.56007813 39.86615723 -52.05765625 40.3065332 -52.5703125 40.76025391 C-54.15286969 42.14946476 -55.7584884 43.50597023 -57.375 44.85546875 C-63.31959808 49.81954172 -69.15110543 54.88784583 -74.8828125 60.09765625 C-76.83708424 61.86467199 -78.81559737 63.59413529 -80.8125 65.3125 C-91.99927757 75.11194098 -102.60165803 85.49985029 -113.125 96 C-113.66720184 96.53961365 -114.20940369 97.07922729 -114.76803589 97.63519287 C-120.22389583 103.07050596 -125.6148929 108.51858584 -130.62207031 114.37695312 C-132.9985654 117.14103773 -135.50651889 119.77938278 -138 122.4375 C-143.30655894 128.13781713 -148.25654517 134.04439927 -153.125 140.125 C-154.78260945 142.13280863 -156.45288293 144.12924737 -158.125 146.125 C-159.44821743 142.15534772 -158.71426857 138.84856152 -158.0625 134.8125 C-157.9281958 133.97871826 -157.7938916 133.14493652 -157.65551758 132.28588867 C-150.86007168 92.66840244 -133.15960055 53.4268886 -99.92382812 29.38476562 C-77.20895272 13.47695386 -52.09469477 5.41535165 -25.125 0.125 C-23.25521484 -0.24818359 -23.25521484 -0.24818359 -21.34765625 -0.62890625 C-5.8131566 -3.48789396 -5.8131566 -3.48789396 0 0 Z " fill="#A2C200" transform="translate(458.125,18.875)"/>
<path d="M0 0 C14.24786036 1.61080351 28.27872254 3.77391848 42 8 C42.80824219 8.21011719 43.61648437 8.42023437 44.44921875 8.63671875 C79.30044886 17.92643544 107.56958297 40.31568136 126 71 C135.31536595 87.31962006 152.67898448 118.92996691 148.52612305 138.19873047 C148.26569214 139.09035889 148.26569214 139.09035889 148 140 C147.52691406 139.52167725 147.05382812 139.04335449 146.56640625 138.55053711 C144.38035594 136.3434466 142.19020871 134.14046367 140 131.9375 C139.25621094 131.18533203 138.51242188 130.43316406 137.74609375 129.65820312 C133.53559315 125.429396 129.23854031 121.38599551 124.71484375 117.49438477 C122.07912297 115.19751021 119.67621931 112.70037 117.25 110.1875 C115.30182685 108.29344277 113.31285673 106.51049805 111.26171875 104.73046875 C107.00549891 101.03321604 102.90169897 97.19263 98.8125 93.3125 C93.69148337 88.47257598 88.56103758 83.64524503 83.375 78.875 C78.70936857 74.58343736 74.06747038 70.26751532 69.4375 65.9375 C62.99604211 59.91633349 56.50886153 53.9482059 50 48 C48.98018848 47.06410739 47.96066102 46.12790516 46.94140625 45.19140625 C43.96484855 42.45663778 40.98366969 39.72700993 38 37 C37.0409375 36.1234375 36.081875 35.246875 35.09375 34.34375 C34.1965625 33.5290625 33.299375 32.714375 32.375 31.875 C31.57835937 31.15054688 30.78171875 30.42609375 29.9609375 29.6796875 C27.28696473 27.38923273 26.20735591 27.02303955 22.625 26.625 C18.93123017 26.66904906 18.93123017 26.66904906 16.5 29.0625 C14.77428635 31.95286455 14.77428635 31.95286455 14.8125 35.375 C16.42697931 40.30341052 19.13815565 42.66717543 23 46 C23.56589844 46.49628906 24.13179687 46.99257812 24.71484375 47.50390625 C25.97822163 48.60694296 27.24554895 49.70546373 28.515625 50.80078125 C31.81749188 53.72366027 35.03218368 56.73516357 38.25 59.75 C43.81720645 64.96538324 49.41297409 70.14532972 55.04296875 75.29296875 C59.83596204 79.67627714 64.60175078 84.08912521 69.37207031 88.49707031 C70.96282787 89.96568212 72.55532699 91.4323788 74.1484375 92.8984375 C80.82005885 99.04104071 87.45008604 105.2261652 94.06005859 111.43505859 C98.16700553 115.29005767 102.29182776 119.12421148 106.4375 122.9375 C111.61859244 127.71367871 116.78714904 132.50318056 121.9375 137.3125 C122.64769287 137.97048584 123.35788574 138.62847168 124.08959961 139.30639648 C128.37522052 143.32013992 132.25824115 147.47358436 136 152 C96.3818474 152.76671135 55.32565099 138.29259349 26.46289062 110.93212891 C8.29176106 93.07584564 -3.09145577 71.03521983 -11 47 C-11.39832031 45.80632812 -11.79664063 44.61265625 -12.20703125 43.3828125 C-14.56666573 36.01226885 -16.34185828 28.55484687 -18 21 C-18.20753906 20.15179688 -18.41507813 19.30359375 -18.62890625 18.4296875 C-19.72921969 13.88993273 -20.63107757 9.68800478 -20 5 C-14.37212359 -2.00152931 -8.28824287 -0.80334113 0 0 Z " fill="#A2C200" transform="translate(54,51)"/>
<path d="M0 0 C4.21889233 7.03148722 1.56883347 16.77196524 0.25 24.5 C0.0732373 25.54220703 -0.10352539 26.58441406 -0.28564453 27.65820312 C-2.0920362 37.76169762 -4.83235827 47.41625357 -8.125 57.125 C-8.46072021 58.15149658 -8.46072021 58.15149658 -8.80322266 59.19873047 C-14.35457378 76.05178673 -22.61258351 92.56639099 -34.125 106.125 C-34.85332031 106.99125 -35.58164062 107.8575 -36.33203125 108.75 C-51.48976888 126.16414341 -71.35867607 139.36218517 -93.125 147.125 C-94.115 147.125 -95.105 147.125 -96.125 147.125 C-96.125 146.465 -96.125 145.805 -96.125 145.125 C-95.45855469 144.7846875 -94.79210937 144.444375 -94.10546875 144.09375 C-80.85283522 137.12453293 -69.43706141 127.96588507 -59.125 117.125 C-58.49464844 116.50109375 -57.86429687 115.8771875 -57.21484375 115.234375 C-49.71410801 107.45583423 -44.43884432 98.47711215 -39.125 89.125 C-38.1659375 87.44470703 -38.1659375 87.44470703 -37.1875 85.73046875 C-27.46655118 67.48118751 -21.75178895 47.38596401 -18.125 27.125 C-17.99512695 26.41746582 -17.86525391 25.70993164 -17.73144531 24.98095703 C-16.24106745 16.6628117 -15.87266309 8.5642678 -16.125 0.125 C-17.115 -0.205 -18.105 -0.535 -19.125 -0.875 C-12.63806509 -2.24067051 -5.86189894 -3.51713936 0 0 Z " fill="#8EAA00" transform="translate(458.125,18.875)"/>
<path d="M0 0 C34.65401223 10.519968 62.75746981 32.99345141 80.12890625 64.8125 C105.12693976 112.44707122 105.12693976 112.44707122 100 130 C92.66666667 122.66666667 85.33333333 115.33333333 78 108 C78.66 108 79.32 108 80 108 C72.430091 84.90422309 72.430091 84.90422309 62 63 C61.26910156 61.56140625 61.26910156 61.56140625 60.5234375 60.09375 C47.3655797 34.51311026 26.29230479 16.19704649 1.66015625 2.05859375 C1.11230469 1.70925781 0.56445312 1.35992187 0 1 C0 0.67 0 0.34 0 0 Z " fill="#8DA900" transform="translate(102,61)"/>
<path d="M0 0 C3.9375 0.625 3.9375 0.625 6.3125 2.125 C8.17873098 4.99612459 8.73235972 7.47974514 9.46484375 10.78515625 C9.87744562 12.71948212 9.87744562 12.71948212 11.0625 14.625 C14.23090107 16.3148139 17.44043625 16.13712231 20.9375 15.625 C22.97632095 14.75370693 22.97632095 14.75370693 23.9375 12.625 C24.27320615 11.31824299 24.58309891 10.00473432 24.875 8.6875 C25.74237913 4.91960505 26.53197176 2.77585994 29.9375 0.625 C32.71630727 0.0760998 35.19060106 -0.10464503 37.9375 0.625 C40.6603187 2.69357251 41.78036699 3.92912523 42.5390625 7.2890625 C42.60122575 15.14235365 41.16274103 20.63196845 35.9375 26.625 C29.48892838 32.07800267 23.04313609 35.13921275 14.55859375 34.9375 C7.38217113 34.08189075 0.54212523 30.17797236 -4.0625 24.625 C-7.3885356 19.05073274 -10.35456184 13.21451539 -9.0625 6.625 C-6.65124219 2.48065064 -4.83827158 0.26226145 0 0 Z " fill="#030100" transform="translate(222.0625,409.375)"/>
<path d="M0 0 C2.8082796 0.73138097 4.35571208 2.3925484 6.0078125 4.71875 C7.49808381 7.51072768 8.20082649 10.45564969 8.96484375 13.51171875 C11.5582028 16.1050778 13.45231407 15.78898438 16.9921875 15.875 C19.58238414 15.39799349 20.3804567 14.59497985 21.96484375 12.51171875 C22.85235921 10.34932794 22.85235921 10.34932794 23.46484375 8.01171875 C24.38903791 4.71102534 25.17980371 2.61202081 27.96484375 0.51171875 C34.95513501 -0.26498028 34.95513501 -0.26498028 38.40234375 2.38671875 C40.58559449 5.35593976 41.43776231 7.50953521 41.3671875 11.25 C40.16155029 18.02731985 36.53360699 24.76058088 31.15234375 29.07421875 C24.29427632 33.464421 17.87999999 35.28640691 9.73828125 34.203125 C2.61510192 32.42734649 -2.4964152 28.81593173 -6.59765625 22.76171875 C-9.19034226 18.44302363 -10.22927195 15.73347426 -10.34765625 10.63671875 C-10.38503906 9.58742188 -10.42242187 8.538125 -10.4609375 7.45703125 C-10.03515625 4.51171875 -10.03515625 4.51171875 -8.26171875 2.16796875 C-5.55337999 0.15334483 -3.35882141 -0.18138887 0 0 Z " fill="#030100" transform="translate(130.03515625,375.48828125)"/>
<path d="M0 0 C2.98789584 1.72983443 3.77974457 3.19239675 4.6796875 6.4921875 C5.19603844 8.98906261 5.63408108 11.47708536 6 14 C9.7685967 15.2561989 13.05932221 15.42869298 17 15 C19.03882095 14.12870693 19.03882095 14.12870693 20 12 C20.33570615 10.69324299 20.64559891 9.37973432 20.9375 8.0625 C21.80487913 4.29460505 22.59447176 2.15085994 26 0 C29.96443406 -0.78309809 32.94587947 -0.57976629 36.5 1.375 C39.17917438 6.06355517 38.56809556 10.96647999 37.59765625 16.1484375 C35.61605363 22.70197296 30.86185917 27.50605639 25.19140625 31.16796875 C18.26794348 34.33936137 9.18072815 34.47950701 2.0859375 31.96875 C-5.6730794 27.74934504 -10.10428509 21.21967505 -13 13 C-13.80088359 8.54877333 -13.53740251 5.80610376 -11 2 C-6.84437903 -0.77041398 -4.93332128 -0.70476018 0 0 Z " fill="#020100" transform="translate(337,359)"/>
<path d="M0 0 C7.8103176 -0.90119049 13.49865494 1.74441526 20 6 C27.14406837 12.29744988 32.44264592 20.25692937 33.23828125 29.8828125 C33.49505087 41.09959045 30.72839679 49.71957487 23 58 C15.88843033 64.50664362 7.44989226 68.19013016 -2.25 68.0625 C-3.58804687 68.04896484 -3.58804687 68.04896484 -4.953125 68.03515625 C-5.62859375 68.02355469 -6.3040625 68.01195312 -7 68 C-7 67.67 -7 67.34 -7 67 C-6.14728516 66.94005859 -6.14728516 66.94005859 -5.27734375 66.87890625 C-0.14595797 66.18501268 2.56002191 64.98302124 5.8125 60.875 C13.44016003 49.85726884 16.11155284 39.47757823 15 26 C12.74198884 15.81329055 6.73954201 7.73065113 0 0 Z " fill="#763D21" transform="translate(462,376)"/>
<path d="M0 0 C15.96230967 2.87321574 30.41238489 13.13391611 40 26 C41.59925012 28.39372075 43.1002418 30.8330187 44.5625 33.3125 C44.92166504 33.91143066 45.28083008 34.51036133 45.65087891 35.12744141 C47.0116681 37.54262142 47.99523952 39.45064071 48.01953125 42.25390625 C46.53885331 44.78977996 44.77810229 45.43302651 42.125 46.625 C39.2089002 47.95977454 36.67988442 49.21341039 34 51 C33.70867187 50.04480469 33.41734375 49.08960938 33.1171875 48.10546875 C27.61933867 30.56427914 18.40634589 14.71881606 2.9375 4.0625 C1.968125 3.381875 0.99875 2.70125 0 2 C0 1.34 0 0.68 0 0 Z " fill="#763D21" transform="translate(374,326)"/>
<path d="M0 0 C14.1404485 2.15701757 25.21327474 10.01824383 34 21 C41 30.83251834 41 30.83251834 41 35 C39.06532058 35.83986084 37.12714871 36.67168027 35.1875 37.5 C34.10855469 37.9640625 33.02960938 38.428125 31.91796875 38.90625 C29 40 29 40 26 40 C25.72027344 39.18917969 25.44054687 38.37835938 25.15234375 37.54296875 C20.40922271 24.44219391 13.38200549 12.52851977 2.2265625 3.83984375 C1.49179687 3.23269531 0.75703125 2.62554687 0 2 C0 1.34 0 0.68 0 0 Z " fill="#773D21" transform="translate(270,284)"/>
<path d="M0 0 C2.5 2 2.5 2 4 5 C4.29120856 9.14972196 3.98503421 12.69975484 1.4375 16.0625 C-2.10021315 17.4231589 -5.31365508 17.76646776 -9 17 C-12 14.9375 -12 14.9375 -14 12 C-14.68577608 7.73294881 -14.50023114 5.79347009 -12.1875 2.125 C-8.28149586 -1.66940403 -5.0774203 -1.24708569 0 0 Z " fill="#000000" transform="translate(500,333)"/>
<path d="M0 0 C2.4375 1.5625 2.4375 1.5625 4 4 C4.70476018 8.93332128 4.77041398 10.84437903 2 15 C-1.30929582 17.20619721 -3.1482197 17.81751114 -7.05859375 17.54296875 C-9.84515284 16.76362929 -11.57077798 15.19702011 -13.22265625 12.85546875 C-14.72195657 9.27673683 -13.97344429 6.71125636 -13 3 C-9.629664 -1.74910982 -5.25074073 -1.19753736 0 0 Z " fill="#000000" transform="translate(457,316)"/>
<path d="M0 0 C3.53494505 0.9336246 4.94397547 2.52143196 6.9375 5.51171875 C7.69426293 8.37701963 7.73707444 10.65280871 6.9375 13.51171875 C3.85294238 17.29030184 3.85294238 17.29030184 0.9375 18.51171875 C-2.67270166 18.83126579 -5.78466253 18.21246833 -9 16.44921875 C-10.76324958 13.23388128 -11.38204704 10.12192041 -11.0625 6.51171875 C-8.93204672 1.42646593 -5.3209808 -0.45349268 0 0 Z " fill="#000000" transform="translate(70.0625,306.48828125)"/>
<path d="M0 0 C2.5625 1.4375 2.5625 1.4375 4 4 C4.75702095 8.34290968 4.81177961 11.75110829 2.375 15.5 C-0.58989249 17.37256368 -2.48392794 17.92967856 -6 18 C-9.56142534 16.76719892 -11.43265682 15.9126825 -13.4375 12.6875 C-14.34510983 8.35114193 -13.86980351 5.37718889 -11.5 1.625 C-7.75110829 -0.81177961 -4.34290968 -0.75702095 0 0 Z " fill="#000000" transform="translate(107,273)"/>
<path d="M0 0 C4.4297642 0.79102932 5.89210172 1.98974785 8.5 5.625 C9.21235686 9.4242366 8.81263988 11.06224821 6.9375 14.4375 C3.73003157 17.31599731 1.7850666 17.70017661 -2.5 17.625 C-5.30189446 15.85858828 -7.01524911 14.59450178 -8.5 11.625 C-9.03507099 7.6119676 -8.83051628 6.08571967 -6.4375 2.75 C-3.5 0.625 -3.5 0.625 0 0 Z " fill="#050201" transform="translate(153.5,443.375)"/>
<path d="M0 0 C4.0553591 1.35178637 5.39946313 2.33855434 7.375 6.125 C7.375 10.04516134 6.92726285 12.29660572 4.75 15.5625 C1.37262021 17.78446039 -0.66023594 17.75101538 -4.625 17.125 C-8.30851539 14.53870196 -9.44227257 13.05524874 -10.3125 8.625 C-9.625 5.125 -9.625 5.125 -7.0625 2.125 C-3.625 0.125 -3.625 0.125 0 0 Z " fill="#050201" transform="translate(359.625,434.875)"/>
<path d="M0 0 C3.34265205 1.20706879 3.94704566 1.92056849 6 5 C6.32997475 8.87720334 6.30077936 11.7789089 4 15 C0.78205375 17.29853304 -2.13098525 17.63167588 -6 17 C-9.16041435 14.11440429 -10.76419058 12.15546616 -11.625 7.9375 C-10.27444292 1.58988172 -6.2567364 -0.93185436 0 0 Z " fill="#040201" transform="translate(284,367)"/>
<path d="M0 0 C4.4297642 0.79102932 5.89210172 1.98974785 8.5 5.625 C9.20338515 9.37638748 8.76523868 11.09452264 7.0625 14.5 C3.80981455 17.19734891 1.76679951 17.35478547 -2.37109375 17.109375 C-4.5 16.625 -4.5 16.625 -7.0625 14.5 C-8.76523868 11.09452264 -9.20338515 9.37638748 -8.5 5.625 C-5.89210172 1.98974785 -4.4297642 0.79102932 0 0 Z " fill="#040201" transform="translate(409.5,392.375)"/>
</svg>
