<?xml version="1.0" encoding="UTF-8"?>
<svg version="1.1" xmlns="http://www.w3.org/2000/svg" width="512" height="512">
<path d="M0 0 C1.0054184 0.00465271 2.01083679 0.00930542 3.04672241 0.01409912 C17.55398411 0.09270742 31.81520628 0.39095071 46.0625 3.375 C47.03735352 3.57367676 48.01220703 3.77235352 49.01660156 3.97705078 C60.70329851 6.42169829 72.15275336 9.54023516 83.5 13.25 C84.39710693 13.54092529 85.29421387 13.83185059 86.21850586 14.1315918 C90.55138981 15.60471779 94.70774768 17.1378995 98.7354126 19.32138062 C111.65921081 26.1182136 123.2357413 26.44608216 137.61328125 26.234375 C139.92970167 26.2317303 142.24613008 26.23321077 144.56254578 26.23858643 C150.60252005 26.24431385 156.64130189 26.20619053 162.68103027 26.15472412 C172.39057963 26.07659467 182.10006743 26.05326464 191.80989647 26.0548172 C195.18995301 26.04698696 198.56896767 26.01217959 201.94880676 25.97454834 C204.01315016 25.9674747 206.07749676 25.96126284 208.1418457 25.95605469 C209.07741806 25.93845596 210.01299042 25.92085724 210.97691345 25.90272522 C215.16897948 25.91413011 217.46055535 26.01301431 221.12004089 28.21368408 C223.79056404 31.185095 224.18831183 33.54207719 224.16688538 37.39324951 C224.16422668 38.61642128 224.16422668 38.61642128 224.16151428 39.86430359 C224.15470139 40.7556752 224.14788849 41.64704681 224.14086914 42.56542969 C224.13475135 44.51837102 224.12882478 46.47131296 224.12306213 48.42425537 C224.1160538 49.98046223 224.1160538 49.98046223 224.10890388 51.5681076 C224.08970989 57.07797305 224.10494787 62.58778073 224.11523438 68.09765625 C224.12744728 75.10228538 224.12937825 82.10630658 224.08666992 89.11083984 C224.05304622 94.77517381 224.05888778 100.43830585 224.09023857 106.10263824 C224.09513076 108.2505567 224.08603915 110.39855875 224.06202888 112.54634857 C223.91456201 126.57348916 225.40231563 135.52191295 233.0625 147.375 C234.91506135 151.29328843 236.54074057 155.27908097 238.125 159.3125 C238.54346191 160.37170654 238.96192383 161.43091309 239.39306641 162.5222168 C251.13429682 192.89607387 256.4985895 223.54321503 256.375 256 C256.37284485 257.01790619 256.3706897 258.03581238 256.36846924 259.08456421 C256.31879854 273.69363523 256.06790191 288.02575853 253.0625 302.375 C252.76448486 303.83728027 252.76448486 303.83728027 252.46044922 305.32910156 C245.04913579 340.75906584 231.59404416 374.32216165 210.5703125 403.89453125 C210.15990723 404.48459961 209.74950195 405.07466797 209.32666016 405.68261719 C208.0625 407.375 208.0625 407.375 206.65380859 408.80957031 C201.23929686 414.75378348 202.38723215 422.95144524 202.4375 430.5 C202.44136017 432.68437608 202.43782973 434.86793095 202.41690063 437.05221558 C202.39936419 439.02838497 202.4067508 441.00472932 202.41552734 442.98095703 C202.03431169 446.64600547 201.28877823 448.47294555 199.0625 451.375 C195.36250593 453.84166271 193.75937558 453.51729306 189.3671875 453.33203125 C174.10150829 452.94636904 162.55346073 452.72609311 150.90234375 463.76171875 C150.28214355 464.36677246 149.66194336 464.97182617 149.02294922 465.59521484 C145.59995169 468.70276802 141.73680592 471.07833908 137.8125 473.5 C136.62708618 474.23597412 136.62708618 474.23597412 135.41772461 474.98681641 C108.84085152 491.23405357 80.15625357 502.4380259 49.625 508.6875 C48.90610596 508.83485596 48.18721191 508.98221191 47.4465332 509.1340332 C32.77089502 511.92340125 18.24581162 512.72392619 3.33520508 512.69067383 C0.39561513 512.6875221 -2.5429558 512.71104926 -5.48242188 512.73632812 C-18.85556192 512.78098737 -31.75166711 511.57551542 -44.9375 509.375 C-46.64305054 509.09281616 -46.64305054 509.09281616 -48.38305664 508.80493164 C-50.97875069 508.33867609 -53.55023152 507.81980266 -56.125 507.25 C-57.04949951 507.04608643 -57.97399902 506.84217285 -58.92651367 506.63208008 C-66.6613202 504.83596104 -74.20886879 502.54132481 -81.75 500.0625 C-83.32140747 499.54888916 -83.32140747 499.54888916 -84.92456055 499.02490234 C-89.73582809 497.38580509 -94.36201061 495.71521147 -98.88900757 493.40382385 C-110.07640215 487.77704401 -119.16968588 486.26524103 -131.58203125 486.515625 C-133.29310461 486.51827316 -135.00418876 486.51678234 -136.71525574 486.51141357 C-141.15744678 486.50571172 -145.59800141 486.54364864 -150.03985596 486.59527588 C-157.1910717 486.67370846 -164.34221292 486.69673274 -171.49381065 486.6951828 C-173.97657909 486.70298994 -176.45791335 486.73774608 -178.94038391 486.77545166 C-180.45870575 486.78252604 -181.97703194 486.78873773 -183.49536133 486.79394531 C-184.17846375 486.81154404 -184.86156616 486.82914276 -185.56536865 486.84727478 C-190.28342774 486.82986222 -192.62173497 485.6930567 -195.9375 482.375 C-197.25558913 479.73882175 -197.00564501 477.86030021 -196.93652344 474.90991211 C-196.91450867 473.76368881 -196.8924939 472.61746552 -196.86981201 471.43650818 C-196.8457428 470.18773392 -196.82167358 468.93895966 -196.796875 467.65234375 C-196.77079851 464.30902658 -196.75148965 460.96583692 -196.73722458 457.62245846 C-196.71873231 454.14094111 -196.67772191 450.66274907 -196.58447266 447.18237305 C-195.94101224 426.23534026 -195.94101224 426.23534026 -205.93032837 408.51029968 C-207.07752573 407.30562495 -208.23917093 406.11447737 -209.41748047 404.94021606 C-211.39670399 402.90214196 -212.92653695 400.69207747 -214.4453125 398.296875 C-214.88834717 397.60303711 -215.33138184 396.90919922 -215.7878418 396.19433594 C-216.208479 395.51145508 -216.62911621 394.82857422 -217.0625 394.125 C-217.78723511 392.95759277 -217.78723511 392.95759277 -218.52661133 391.76660156 C-234.7853216 365.17923282 -245.99749924 336.48354007 -252.25 305.9375 C-252.39735596 305.21860596 -252.54471191 304.49971191 -252.6965332 303.7590332 C-255.67039088 288.11274391 -256.31050362 272.63931954 -256.25 256.75 C-256.24784485 255.73209381 -256.2456897 254.71418762 -256.24346924 253.66543579 C-256.19379854 239.05636477 -255.94290191 224.72424147 -252.9375 210.375 C-252.73882324 209.40014648 -252.54014648 208.42529297 -252.33544922 207.42089844 C-247.66207272 185.07970831 -241.60977698 158.68335453 -228.65242004 139.46940613 C-224.15203535 132.6429329 -224.25213483 126.31765053 -224.3359375 118.328125 C-224.33042601 116.98531818 -224.32229123 115.64251983 -224.31167603 114.29974365 C-224.288944 110.79002426 -224.29295364 107.28093162 -224.30548096 103.7711792 C-224.32389332 98.14131778 -224.31375363 92.51181686 -224.27962112 86.88204193 C-224.27354436 84.92503946 -224.28739669 82.96800769 -224.30160522 81.01104736 C-224.29794952 79.81920837 -224.29429382 78.62736938 -224.29052734 77.39941406 C-224.29649429 75.83129974 -224.29649429 75.83129974 -224.30258179 74.23150635 C-223.87680269 70.90008656 -222.92718333 69.06123473 -220.9375 66.375 C-217.73533849 64.24022566 -217.08722609 64.14425376 -213.44458008 64.26245117 C-212.08089043 64.29558662 -212.08089043 64.29558662 -210.68965149 64.32939148 C-209.70538681 64.35862198 -208.72112213 64.38785248 -207.70703125 64.41796875 C-205.60224892 64.44155375 -203.49742475 64.46161641 -201.39257812 64.47851562 C-198.08839624 64.51092629 -194.79005397 64.56114219 -191.48754883 64.6730957 C-178.29379782 65.09123213 -169.06709367 64.70533922 -159.10453796 55.45797729 C-157.91042532 54.29642384 -156.72594218 53.12486427 -155.55270386 51.94223022 C-151.98415139 48.47966836 -147.71361379 45.89161341 -143.5625 43.1875 C-142.68021729 42.60782471 -141.79793457 42.02814941 -140.88891602 41.4309082 C-114.87847948 24.54104466 -86.46951071 12.20626096 -56.125 5.5 C-55.31699951 5.32114258 -54.50899902 5.14228516 -53.67651367 4.95800781 C-50.77157255 4.36429722 -47.86303406 3.85861757 -44.9375 3.375 C-43.81506393 3.18868011 -43.81506393 3.18868011 -42.66995239 2.99859619 C-28.3933138 0.68680962 -14.44956184 -0.11998824 0 0 Z " fill="#304DC9" transform="translate(255.9375,-0.375)"/>
<path d="M0 0 C0.89010428 -0.00538554 1.78020857 -0.01077108 2.69728571 -0.01631981 C5.68598998 -0.03065073 8.67425455 -0.02348299 11.66297913 -0.01637268 C13.80321612 -0.02207356 15.94345007 -0.02903672 18.0836792 -0.03717041 C23.90181799 -0.05514806 29.71980634 -0.05392477 35.53796458 -0.04822803 C40.39155118 -0.04514284 45.2451086 -0.05122115 50.09869105 -0.05726677 C61.54690279 -0.07132552 72.99503993 -0.06973946 84.44325256 -0.05836487 C96.26190477 -0.04688185 108.08033011 -0.06095947 119.89895242 -0.08776134 C130.03917096 -0.10989776 140.17931817 -0.11656037 150.31955916 -0.11068493 C156.37889604 -0.10730929 162.43808748 -0.10977077 168.4974041 -0.12693596 C174.19459448 -0.14237017 179.89144805 -0.13848857 185.58862495 -0.11963081 C187.68123941 -0.11593518 189.77387863 -0.11908161 191.86647034 -0.1295166 C194.72004693 -0.14266144 197.57249777 -0.13123671 200.42602539 -0.11352539 C201.67242645 -0.1279329 201.67242645 -0.1279329 202.94400734 -0.14263147 C206.87824537 -0.09228158 208.83981865 0.11845058 212.26715946 2.23150539 C215.8110195 6.03432722 215.41973765 9.93031744 215.40589905 14.83592224 C215.40761738 15.60349444 215.40933571 16.37106665 215.41110611 17.16189861 C215.41547507 19.75280475 215.41245795 22.34364785 215.40931702 24.93455505 C215.4105059 26.80304996 215.41203056 28.67154468 215.41386414 30.54003906 C215.4176861 36.73926658 215.40992268 42.93845906 215.40150452 49.13768005 C215.39923029 51.28183488 215.39699252 53.42598975 215.39479065 55.57014465 C215.37875347 69.6075809 215.34268729 83.64492102 215.29933167 97.68229675 C215.28330197 102.92598586 215.26947421 108.16967594 215.25758362 113.41337585 C215.22293987 128.48951613 215.17396251 143.56543412 215.08938789 158.64138603 C215.05204592 165.339253 215.0208192 172.03701156 215.00605774 178.73497009 C214.99115392 185.07738549 214.9570785 191.41941308 214.90832138 197.76165581 C214.89348803 200.10928489 214.88545595 202.45696785 214.88458633 204.80464363 C214.88224289 208.02066119 214.85543468 211.23557321 214.82240295 214.45140076 C214.82994945 215.86291475 214.82994945 215.86291475 214.83764839 217.30294418 C214.77050679 221.48352256 214.62982381 223.8024844 212.42988586 227.44619751 C208.3644364 231.11159527 203.9295892 230.53846857 198.75592041 230.5415802 C197.43535463 230.54815358 197.43535463 230.54815358 196.08811074 230.55485976 C193.12641109 230.56825668 190.16474119 230.57442859 187.20301819 230.58055115 C185.08425766 230.5884513 182.96549848 230.59672019 180.84674072 230.60533142 C173.87933132 230.63155769 166.91191589 230.64685788 159.94447327 230.66111755 C157.54771228 230.66647665 155.15095134 230.67185415 152.75419044 230.67724991 C142.78689056 230.69887791 132.81959231 230.71761601 122.85227489 230.7288723 C108.5573706 230.74512108 94.26273771 230.77832257 79.96793574 230.83527315 C69.92200468 230.87393525 59.87614632 230.89350048 49.8301428 230.89879286 C43.8271414 230.9024509 37.82442943 230.91452082 31.82150841 230.9468956 C26.17519874 230.97691096 20.52935463 230.98331122 14.88298225 230.97151184 C12.81012108 230.97129057 10.7372387 230.97963945 8.6644516 230.99716568 C5.83508413 231.01978796 3.00741482 231.01159458 0.17803955 230.99568176 C-0.64288187 231.00956385 -1.4638033 231.02344594 -2.30960113 231.03774869 C-6.38307991 230.98127127 -8.96891649 230.60541708 -12.21734142 228.03717995 C-16.3263897 223.69310424 -15.86991852 219.6001222 -15.86393738 213.93629456 C-15.8669085 213.06337891 -15.86987962 212.19046325 -15.87294078 211.29109561 C-15.88163943 208.35469358 -15.88313701 205.41833225 -15.8846283 202.48191833 C-15.8892556 200.38123995 -15.89428014 198.28056242 -15.89967346 196.17988586 C-15.91280681 190.46503434 -15.91924409 184.75019456 -15.92368412 179.0353303 C-15.92661297 175.46714907 -15.93071739 171.89897108 -15.93518829 168.33079147 C-15.94886487 157.17313149 -15.95853109 146.01547887 -15.96239018 134.85781109 C-15.96687332 121.96580936 -15.98443245 109.07391353 -16.01339078 96.18194401 C-16.03498372 86.22434843 -16.04509317 76.26678269 -16.0464313 66.30916393 C-16.04748092 60.35825526 -16.05342223 54.40744612 -16.07125092 48.45656204 C-16.08769059 42.86040401 -16.08990707 37.26442075 -16.08111191 31.66824722 C-16.08033937 29.61271701 -16.08471271 27.55717756 -16.09457016 25.50167084 C-16.10722594 22.69858155 -16.10144759 19.89611728 -16.09098816 17.09303284 C-16.09904456 16.27698047 -16.10710097 15.4609281 -16.11540151 14.62014687 C-16.06496817 8.85307058 -14.92806168 5.78821828 -11.08121395 1.59941006 C-7.49954077 -0.2413614 -3.93492988 -0.02838467 0 0 Z " fill="#FE5E94" transform="translate(264.72349548339844,25.612319946289063)"/>
<path d="M0 0 C1.15495863 -0.00445668 1.15495863 -0.00445668 2.33324975 -0.0090034 C4.92727073 -0.01771246 7.52124568 -0.01920051 10.11528015 -0.02069092 C11.96950886 -0.02531754 13.82373662 -0.03034199 15.67796326 -0.03573608 C20.72553986 -0.04887734 25.77310316 -0.05530843 30.82069421 -0.05974674 C33.97227359 -0.06267477 37.12384932 -0.06677906 40.27542686 -0.07125092 C50.13028647 -0.08493057 59.98513773 -0.09459486 69.84000617 -0.09845281 C81.22650052 -0.10293447 92.61287487 -0.12048544 103.99933273 -0.1494534 C112.79343612 -0.17105166 121.58750572 -0.1811561 130.38163537 -0.18249393 C135.63727594 -0.18354331 140.8928038 -0.18947944 146.14841652 -0.20731354 C151.09205151 -0.22376208 156.03548867 -0.22596539 160.97914124 -0.21717453 C162.79440019 -0.21640242 164.60966964 -0.2207697 166.42490196 -0.23063278 C168.90183186 -0.24330263 171.37805584 -0.23750279 173.85498047 -0.22705078 C174.57444125 -0.23510719 175.29390203 -0.24316359 176.03516465 -0.25146413 C180.40243431 -0.20832167 183.15515298 0.44676706 186.6179657 3.14044189 C189.05280355 6.79269867 188.90327817 9.49686805 188.88539124 13.71865845 C188.88992235 14.49765239 188.89445346 15.27664634 188.89912188 16.07924616 C188.91181439 18.69784903 188.9101424 21.3162452 188.90849304 23.93487549 C188.91447527 25.80895761 188.92128011 27.68303726 188.92884827 29.55711365 C188.94654664 34.65422973 188.95120526 39.7512787 188.95247984 44.84842253 C188.95437682 49.10050565 188.96173205 53.35257306 188.96882403 57.60465014 C188.9851202 67.63514348 188.98999186 77.6656009 188.98857117 87.69610596 C188.98736942 98.04977072 189.008475 108.40322713 189.04005849 118.75683916 C189.06619313 127.64014143 189.07693964 136.52337555 189.07566035 145.40671599 C189.07514988 150.71490714 189.08087963 156.0229132 189.10201645 161.33106613 C189.12135145 166.3231967 189.1215558 171.31496473 189.10698318 176.30710793 C189.10488808 178.14010585 189.10963755 179.97312618 189.1217041 181.80608559 C189.13710388 184.30723842 189.12788415 186.80713299 189.11244202 189.30825806 C189.12272914 190.03481861 189.13301627 190.76137917 189.14361513 191.50995672 C189.09511389 195.06114333 188.68419298 197.0352843 186.77456093 200.06745338 C182.98313861 203.71189013 179.03307594 203.28886934 174.07771301 203.28761292 C173.30280262 203.2912896 172.52789222 203.29496629 171.7294997 203.29875439 C169.12476946 203.3097951 166.52007912 203.31363569 163.91532898 203.31744385 C162.05110039 203.32370808 160.18687306 203.33035485 158.32264709 203.33735657 C153.25240713 203.35476703 148.1821766 203.36531794 143.11191416 203.3735621 C139.9457562 203.37871098 136.77960117 203.38478669 133.61344528 203.39107323 C123.71160502 203.41012339 113.80977221 203.42435625 103.90791714 203.4326852 C92.46932745 203.44246522 81.03093087 203.46880546 69.59240925 203.50918609 C60.75582402 203.5393136 51.91929426 203.55415077 43.08265865 203.55746621 C37.8024005 203.55982006 32.52234871 203.56882432 27.24214554 203.59392738 C22.27629548 203.61715499 17.31078846 203.62146278 12.34489822 203.611166 C10.52156943 203.61066927 8.69822405 203.61702986 6.87494659 203.63072205 C4.3869457 203.64836203 1.9001865 203.64137455 -0.58781433 203.62818909 C-1.31048394 203.63915833 -2.03315355 203.65012758 -2.77772224 203.66142923 C-7.57725413 203.59995561 -10.01164678 202.54193641 -13.3820343 199.14044189 C-14.88668194 196.13114663 -14.53368153 193.02836717 -14.53593445 189.72717285 C-14.5403167 188.95382245 -14.54469896 188.18047204 -14.54921401 187.38368678 C-14.56262663 184.77818869 -14.56878638 182.17272443 -14.5749054 179.56719971 C-14.58280443 177.70474087 -14.59107325 175.84228356 -14.59968567 173.97982788 C-14.62592889 167.85108914 -14.64121562 161.72234348 -14.6554718 155.59356689 C-14.66083054 153.48562363 -14.66620805 151.37768041 -14.67160416 149.26973724 C-14.69323627 140.50259112 -14.71197374 131.73544686 -14.72322655 122.96828079 C-14.73947017 110.39440642 -14.77265429 97.82084088 -14.82962739 85.24708295 C-14.86830105 76.41135311 -14.8878562 67.57570595 -14.89314711 58.73989367 C-14.8968041 53.46009458 -14.90886233 48.18062469 -14.94124985 42.90091705 C-14.97128505 37.93338393 -14.97765851 32.96637999 -14.96586609 27.99877548 C-14.96564497 26.17585912 -14.97398143 24.35291852 -14.99151993 22.53008652 C-15.0141739 20.03996772 -15.0059355 17.55177389 -14.99003601 15.06164551 C-15.0039181 14.34120662 -15.01780019 13.62076773 -15.03210294 12.87849736 C-14.94361707 7.24926753 -13.22543877 4.95476437 -9.3820343 1.14044189 C-6.37966162 -0.36074445 -3.29292943 -0.00392929 0 0 Z " fill="#00D683" transform="translate(73.38203430175781,282.85955810546875)"/>
<path d="M0 0 C0.72999132 -0.00382555 1.45998264 -0.00765109 2.2120949 -0.01159257 C4.66487626 -0.02193388 7.11742402 -0.01792831 9.57022095 -0.01396179 C11.32607745 -0.01830768 13.08193205 -0.02349042 14.83778381 -0.02944946 C19.61260428 -0.0428649 24.38734573 -0.04341524 29.16218138 -0.04088616 C33.14584831 -0.03981804 37.12949914 -0.04469583 41.11316264 -0.04949158 C50.51080755 -0.06059587 59.90841249 -0.0610192 69.30606079 -0.05497742 C79.00531624 -0.04893764 88.70442662 -0.06124663 98.40365732 -0.08254749 C106.7264541 -0.10015436 115.04920468 -0.10616623 123.37201941 -0.10290974 C128.34482809 -0.10109507 133.31753332 -0.10375132 138.29032516 -0.11762428 C142.96723779 -0.13018291 147.64392413 -0.12827717 152.32083321 -0.11521339 C154.0377224 -0.11284366 155.75462743 -0.11559649 157.47149849 -0.12383652 C159.81484025 -0.13427248 162.1574183 -0.12622917 164.50073242 -0.11352539 C166.46798562 -0.113777 166.46798562 -0.113777 168.47498131 -0.1140337 C172.13155743 0.28869433 173.9818138 1.03399599 176.87734985 3.26069641 C179.37210195 7.00282456 179.13339598 8.94611513 179.14477539 13.42131042 C179.1493065 14.1553853 179.15383762 14.88946017 179.15850604 15.64577973 C179.17119437 18.11237143 179.16952683 20.57874359 179.1678772 23.04536438 C179.17385969 24.81107366 179.18066459 26.57678032 179.18823242 28.34248352 C179.20592818 33.14415529 179.21058931 37.94575581 179.21186399 42.74745703 C179.21376124 46.75349309 179.22111677 50.75951249 179.22820818 54.76554215 C179.24450338 64.21592114 179.24937611 73.66626202 179.24795532 83.11665344 C179.24675363 92.87047625 179.26785843 102.62407787 179.29944265 112.37784469 C179.32558026 120.74735141 179.33632367 129.11678578 179.3350445 137.48633301 C179.33453412 142.4871263 179.34025921 147.4877231 179.3614006 152.4884758 C179.38074064 157.19170042 179.38093657 161.89454027 179.36636734 166.59777832 C179.36427286 168.32434779 179.3690181 170.05094108 179.38108826 171.77746964 C179.39649706 174.13413919 179.38726282 176.48947483 179.37182617 178.84611511 C179.37291571 180.16499159 179.37400524 181.48386806 179.37512779 182.84271049 C178.79468495 186.82831393 177.73964318 188.4747274 174.87734985 191.26069641 C171.33878928 192.4402166 168.5293813 192.39561554 164.79266357 192.40786743 C164.06675581 192.41154412 163.34084804 192.41522081 162.59294307 192.41900891 C160.1540468 192.43004556 157.71519314 192.43388951 155.27627563 192.43769836 C153.53027206 192.44396291 151.78426982 192.4506097 150.03826904 192.45761108 C145.29033315 192.47501868 140.54240732 192.48557168 135.79444742 192.49381661 C132.82930101 192.49896613 129.86415772 192.50504181 126.89901352 192.51132774 C117.62508213 192.53037715 108.3511587 192.54461014 99.0772115 192.55293971 C88.36534242 192.56271932 77.65367958 192.58905877 66.94188321 192.62944061 C58.66580277 192.65957192 50.38978158 192.67440565 42.11364734 192.67772073 C37.16873139 192.68007415 32.22403583 192.68907281 27.27917862 192.7141819 C22.62849965 192.7374162 17.97818696 192.74171464 13.32746506 192.73142052 C11.6202396 192.73092395 9.91299639 192.73727985 8.20582581 192.75097656 C5.87544366 192.768628 3.54638572 192.76162388 1.21600342 192.7484436 C-0.74018826 192.75202613 -0.74018826 192.75202613 -2.73589897 192.75568104 C-6.7315079 192.17170988 -8.32461064 191.12742539 -11.12265015 188.26069641 C-13.64334239 184.75627894 -13.3766527 181.31661877 -13.38334656 177.09371948 C-13.3871721 176.37104084 -13.39099765 175.64836221 -13.39493912 174.90378422 C-13.4052595 172.48174675 -13.40127885 170.05994678 -13.39730835 167.63789368 C-13.40165535 165.90159384 -13.40683846 164.16529592 -13.41279602 162.42900085 C-13.42619835 157.7120887 -13.42676333 152.99525662 -13.42423272 148.27832913 C-13.42316387 144.34183319 -13.42804415 140.40535351 -13.43283814 136.46886104 C-13.44393754 127.18290776 -13.44436826 117.89699492 -13.43832397 108.61103821 C-13.43228241 99.02820886 -13.44459884 89.44552628 -13.46589404 79.86272198 C-13.48350081 71.63756866 -13.48951287 63.41246209 -13.4862563 55.18729061 C-13.48444187 50.27374116 -13.48709559 45.3602964 -13.50097084 40.44676399 C-13.51352957 35.82647071 -13.51162365 31.20640649 -13.49855995 26.58611679 C-13.49619037 24.89018998 -13.49894249 23.19424714 -13.50718307 21.4983387 C-13.51762021 19.18351116 -13.50957488 16.86945656 -13.49687195 14.55465698 C-13.49703969 13.25920236 -13.49720743 11.96374773 -13.49738026 10.6290369 C-13.092848 6.99281357 -12.33439714 5.14365359 -10.12265015 2.26069641 C-6.38723113 -0.22958293 -4.46595512 0.0069945 0 0 Z " fill="#FEC042" transform="translate(45.122650146484375,63.73930358886719)"/>
<path d="M0 0 C13.68393477 12.09418353 23.64265857 28.54272695 25.16845703 47.04248047 C25.68008869 56.42952992 25.00619236 65.02990988 22 74 C21.6596875 75.05703125 21.319375 76.1140625 20.96875 77.203125 C14.66391261 95.18043161 2.12245054 109.54423215 -15 118 C-19.89669355 119.99620461 -24.91333318 121.55991085 -30 123 C-30.62318115 123.17958252 -31.2463623 123.35916504 -31.88842773 123.54418945 C-50.13915389 127.48384788 -69.51787088 122.88708271 -85 113 C-89.39580606 109.73073293 -93.20737903 105.93826694 -97 102 C-97.66386719 101.35546875 -98.32773437 100.7109375 -99.01171875 100.046875 C-111.44747989 87.19193091 -116.72636929 68.85183405 -116.46875 51.30957031 C-115.60077735 31.69881321 -106.75163448 14.44292254 -92.76953125 0.828125 C-66.59342116 -21.79645257 -26.39764416 -22.30282887 0 0 Z " fill="#6C7FD8" transform="translate(418,314)"/>
<path d="M0 0 C13.49473707 10.82504654 23.77105644 25.34953387 26.5625 42.6875 C27.74800134 55.18234177 27.88249887 68.11311153 22.5625 79.6875 C22.16780518 80.57308594 22.16780518 80.57308594 21.76513672 81.4765625 C13.31693164 100.06548233 -0.47131394 112.46109348 -19.59375 119.7578125 C-35.86396967 125.07692278 -53.32437872 124.06959551 -68.91015625 117.14453125 C-87.14971672 107.82208923 -100.03210442 93.68466323 -106.58569336 74.2722168 C-111.615675 57.22375643 -109.67247695 38.87281364 -101.640625 23.17578125 C-91.39757689 5.53725241 -76.33460013 -6.39742826 -56.75 -12.125 C-36.84799553 -16.66812943 -16.41383575 -11.79287053 0 0 Z " fill="#FEF4F3" transform="translate(405.4375,94.3125)"/>
<path d="M0 0 C1.96219734 -0.00856522 1.96219734 -0.00856522 3.96403503 -0.01730347 C5.42228689 -0.01854889 6.88053886 -0.01967397 8.33879089 -0.02069092 C9.8679008 -0.02531803 11.39700955 -0.03034255 12.92611694 -0.03573608 C17.0873581 -0.04887301 21.24858311 -0.05530764 25.40984178 -0.05974674 C28.00863949 -0.06267559 30.60743277 -0.06678006 33.20622826 -0.07125092 C41.33433888 -0.08492971 49.4624394 -0.0945943 57.59056073 -0.09845281 C66.97856825 -0.10293363 76.36643016 -0.12048099 85.7543934 -0.1494534 C93.00710881 -0.17106039 100.25978324 -0.18115657 107.51253051 -0.18249393 C111.84597374 -0.18354273 116.17928019 -0.18946638 120.51268959 -0.20731354 C124.58959805 -0.22377713 128.66626666 -0.22595813 132.74319649 -0.21717453 C134.23917024 -0.21640321 135.7351568 -0.22075937 137.23109818 -0.23063278 C139.27422494 -0.24332622 141.31744779 -0.23569325 143.3605957 -0.22705078 C144.50378675 -0.22851734 145.64697779 -0.2299839 146.82481098 -0.2314949 C151.3886062 0.32578165 153.83588439 1.81883638 156.65946388 5.42469025 C158.11158551 8.68034203 158.24816496 11.03053171 158.25172424 14.59246826 C158.26018372 15.89630966 158.26864319 17.20015106 158.27735901 18.54350281 C158.27152656 19.98141605 158.26538208 21.41932805 158.25895691 22.85723877 C158.26302359 24.3769417 158.26836601 25.89664168 158.27488708 27.41633606 C158.2885551 31.53821891 158.28326421 35.65987632 158.27374983 39.78176308 C158.26615056 44.09692616 158.27319959 48.41207004 158.27790833 52.72723389 C158.2833651 59.97356631 158.27617633 67.21980699 158.2618866 74.46612549 C158.24556021 82.84191411 158.25084878 91.21748365 158.26736581 99.59326696 C158.28098292 106.78661139 158.28289925 113.97988989 158.27504981 121.17324305 C158.27037452 125.46861518 158.26974445 129.76388437 158.27965927 134.05924988 C158.28832994 138.09765305 158.28230532 142.13577395 158.2649765 146.17414665 C158.26101218 147.65559864 158.2621448 149.13707442 158.2687645 150.61851692 C158.27697135 152.64180779 158.26485142 154.6651506 158.25172424 156.68841553 C158.25059317 157.82033577 158.24946209 158.95225601 158.24829674 160.11847687 C157.82039721 163.54368796 156.92936652 165.39132727 154.87077332 168.14044189 C151.31030488 170.51408752 149.77803858 170.39757509 145.55209351 170.41459656 C144.90856235 170.41983324 144.2650312 170.42506992 143.6019991 170.43046528 C141.44177209 170.4454884 139.28178145 170.44617093 137.12150574 170.44683838 C135.57416381 170.45445839 134.02682567 170.46288562 132.47949219 170.47206116 C128.27278229 170.49403027 124.06614509 170.50280842 119.8593843 170.5078876 C117.23125262 170.5115287 114.60314005 170.51776751 111.97501564 170.52488899 C102.80638923 170.54939306 93.63781947 170.56243719 84.46916199 170.565979 C75.92294227 170.56961377 67.37708181 170.59950231 58.8309719 170.64138359 C51.49413546 170.67607804 44.15741811 170.69152731 36.8205002 170.69222504 C32.4383212 170.69301823 28.05650792 170.70177556 23.67441368 170.7302227 C19.55139017 170.7563887 15.42903593 170.75861718 11.30596733 170.74256706 C9.79427888 170.7407513 8.2825521 170.74745498 6.7709465 170.76338577 C-6.0721082 170.89046568 -6.0721082 170.89046568 -10.01281738 167.79048157 C-13.19638286 163.8042135 -13.25873462 160.89291094 -13.28312683 155.93565369 C-13.29172729 154.63600677 -13.30032776 153.33635986 -13.30918884 151.99732971 C-13.31362396 150.55374185 -13.31792233 149.11015357 -13.32209778 147.66656494 C-13.32999995 146.14878146 -13.33826897 144.63099985 -13.34687805 143.11322021 C-13.3730818 138.12621857 -13.38840264 133.1392086 -13.40266418 128.15216064 C-13.40802428 126.43518379 -13.41340179 124.71820699 -13.41879654 123.00123024 C-13.44042159 115.85964402 -13.45915877 108.71806006 -13.47041893 101.57644939 C-13.48666227 91.34184644 -13.51985344 81.10762286 -13.57681978 70.87316293 C-13.61551226 63.67646518 -13.6350507 56.47986895 -13.64033949 49.28306991 C-13.64399352 44.98470564 -13.65602011 40.68674617 -13.68844223 36.38849449 C-13.71851148 32.34428617 -13.72483913 28.30072783 -13.71305847 24.25643158 C-13.71283765 22.77375936 -13.72115032 21.29105707 -13.73871231 19.80848885 C-13.87980342 7.21005528 -13.87980342 7.21005528 -10.71775818 3.27406311 C-6.85423516 0.08951824 -4.95751442 0.01291257 0 0 Z M19.87077332 37.14044189 C6.7807254 53.54111756 -0.07153181 72.06994145 1.87077332 93.14044189 C3.97402807 109.66230555 10.94759156 123.51784455 22.87077332 135.14044189 C23.606828 135.90872314 24.34288269 136.67700439 25.10124207 137.46856689 C38.86896452 151.02873575 56.29547013 155.66723417 75.14909363 155.63531494 C84.09540834 155.40590358 91.65454076 153.58442852 99.87077332 150.14044189 C100.82210144 149.74469971 101.77342957 149.34895752 102.75358582 148.94122314 C119.69907146 141.14215406 131.86553981 126.53281981 138.74577332 109.45294189 C145.5883978 90.1231037 144.0972958 71.41054713 135.30827332 52.95294189 C131.37477266 45.15283366 126.14398387 39.14911947 119.87077332 33.14044189 C119.24171082 32.52684814 118.61264832 31.91325439 117.96452332 31.28106689 C90.42541012 6.08018029 44.69424252 10.54702837 19.87077332 37.14044189 Z " fill="#00CAFB" transform="translate(300.1292266845703,282.85955810546875)"/>
<path d="M0 0 C2.24541575 -0.00968373 4.48990742 -0.0406952 6.73510742 -0.07226562 C8.16804471 -0.07879815 9.60098853 -0.08404764 11.03393555 -0.08789062 C12.98650269 -0.10190918 12.98650269 -0.10190918 14.97851562 -0.11621094 C19.52617553 0.350478 22.07287465 1.86120473 25.2644043 5.05273438 C26.88114801 8.03094647 26.85454939 9.88485857 26.4519043 13.24023438 C24.9519043 16.61523437 24.9519043 16.61523437 23.4519043 19.24023438 C24.3387793 19.36398438 25.2256543 19.48773438 26.1394043 19.61523438 C29.15577932 20.18436174 31.65516484 21.00637873 34.4519043 22.24023438 C34.5344043 21.47710937 34.6169043 20.71398437 34.7019043 19.92773438 C35.4519043 17.24023438 35.4519043 17.24023438 36.9519043 15.42773438 C40.96928309 13.51947945 44.18666014 13.30995478 48.4519043 14.24023438 C54.77251829 16.77151144 63.04476193 20.1147582 66.4519043 26.24023438 C67.03355739 30.72727253 66.74686505 32.73327058 64.4519043 36.67773438 C63.7919043 37.52335937 63.1319043 38.36898437 62.4519043 39.24023438 C62.92499023 39.66691406 63.39807617 40.09359375 63.88549805 40.53320312 C81.21087385 56.91294438 90.10428705 78.5624962 90.84643555 102.14257812 C91.20492566 125.90069582 83.46716149 146.62915084 67.4519043 164.24023438 C66.85120117 164.93375 66.25049805 165.62726563 65.6315918 166.34179688 C52.96534913 180.10468392 35.43860864 187.46356987 17.4519043 191.24023438 C16.33428711 191.51480469 16.33428711 191.51480469 15.1940918 191.79492188 C-6.96960814 195.3941552 -29.52421125 189.11132908 -47.7355957 176.37304688 C-52.279983 172.92688651 -56.48211736 169.23729783 -60.5480957 165.24023438 C-61.24676758 164.55445313 -61.94543945 163.86867187 -62.6652832 163.16210938 C-77.10170254 147.99544315 -85.00114295 126.65243737 -84.7980957 105.92773438 C-84.79060303 104.91662598 -84.78311035 103.90551758 -84.77539062 102.86376953 C-84.45859854 80.8157483 -77.02691193 61.97131091 -62.5480957 45.24023438 C-61.94094727 44.52351563 -61.33379883 43.80679688 -60.70825195 43.06835938 C-59.33238743 41.44969523 -57.94208198 39.8433186 -56.5480957 38.24023438 C-57.2080957 37.55960938 -57.8680957 36.87898438 -58.5480957 36.17773438 C-61.05787693 32.49149319 -61.17418406 30.62285287 -60.5480957 26.24023438 C-56.08625916 19.38002564 -47.66731059 15.39971467 -39.8059082 13.61914062 C-35.55337429 13.38288874 -33.96055082 13.92878867 -30.4855957 16.55273438 C-28.5480957 19.24023438 -28.5480957 19.24023438 -28.5480957 22.24023438 C-27.4755957 21.74523437 -26.4030957 21.25023438 -25.2980957 20.74023438 C-22.29392763 19.35369526 -21.08874675 19.24023438 -17.5480957 19.24023438 C-18.0430957 18.37398437 -18.5380957 17.50773437 -19.0480957 16.61523438 C-20.66413809 12.979139 -21.19974889 11.15015347 -20.5480957 7.24023438 C-15.28323847 -1.12503879 -8.93463458 0.02335598 0 0 Z M-50.6730957 61.78320312 C-63.17906711 78.17123648 -66.88199819 95.96189743 -64.5480957 116.24023438 C-62.55675928 126.858743 -58.18993078 136.71588317 -51.5480957 145.24023438 C-50.47108398 146.62275391 -50.47108398 146.62275391 -49.37231445 148.03320312 C-38.41770795 161.03171329 -21.71222639 170.92161432 -4.56030273 172.41308594 C15.32519368 173.51244671 32.90253474 167.75796584 48.4519043 155.24023438 C56.68278137 147.7893697 61.94396779 139.24374053 66.4519043 129.24023438 C66.90823242 128.24894531 67.36456055 127.25765625 67.8347168 126.23632812 C73.16738522 112.2334121 72.50182445 93.70185093 67.05737305 79.77929688 C58.27435328 60.4181876 44.14879094 46.73854853 24.3659668 39.16992188 C-3.29839606 30.34402595 -32.06780252 39.76443881 -50.6730957 61.78320312 Z " fill="#FFC044" transform="translate(361.548095703125,44.759765625)"/>
<path d="M0 0 C1.0054184 0.00465271 2.01083679 0.00930542 3.04672241 0.01409912 C17.55398411 0.09270742 31.81520628 0.39095071 46.0625 3.375 C47.03735352 3.57367676 48.01220703 3.77235352 49.01660156 3.97705078 C71.23783298 8.62533407 92.55815012 15.64061167 113.0625 25.375 C113.0625 25.705 113.0625 26.035 113.0625 26.375 C112.48473722 26.37646656 111.90697443 26.37793312 111.31170368 26.37944412 C97.24814197 26.41650898 83.18481522 26.47551922 69.12144947 26.55890274 C62.32046428 26.59869841 55.51959489 26.63108811 48.71850586 26.64599609 C42.1566661 26.6604005 35.59514858 26.6955056 29.03345299 26.74330902 C26.52843022 26.75816109 24.02335622 26.76604319 21.51828957 26.76688385 C18.0128605 26.76924364 14.50843109 26.79624568 11.00317383 26.82910156 C9.44518822 26.82155602 9.44518822 26.82155602 7.85572815 26.81385803 C3.44804867 26.87789161 0.79157468 26.94366488 -3.05879211 29.22161865 C-5.63643533 32.17612204 -6.05919123 34.60016014 -6.14282227 38.38745117 C-6.16276749 39.18805466 -6.18271271 39.98865814 -6.20326233 40.81352234 C-6.21997482 41.67298965 -6.23668732 42.53245697 -6.25390625 43.41796875 C-6.2850779 44.74336418 -6.2850779 44.74336418 -6.31687927 46.09553528 C-6.38225754 48.91777785 -6.44120528 51.74011335 -6.5 54.5625 C-6.54319637 56.47592106 -6.58681102 58.38933273 -6.63085938 60.30273438 C-6.73871406 64.99339572 -6.83787461 69.68412773 -6.9375 74.375 C-14.8575 74.375 -22.7775 74.375 -30.9375 74.375 C-30.9375 131.795 -30.9375 189.215 -30.9375 248.375 C-31.2675 248.375 -31.5975 248.375 -31.9375 248.375 C-31.93988835 247.46132282 -31.94227671 246.54764565 -31.94473743 245.60628128 C-32.00383482 223.38987648 -32.07935106 201.17358063 -32.17321491 178.95729446 C-32.21820922 168.21372711 -32.25761547 157.47019317 -32.28393555 146.7265625 C-32.30688621 137.364052 -32.34025131 128.00164693 -32.38620156 118.63922 C-32.41017338 113.68039549 -32.42887618 108.72167566 -32.43511391 103.76279449 C-32.44114689 99.09736987 -32.46108175 94.43221323 -32.49177551 89.76688766 C-32.50058448 88.05282576 -32.50427243 86.33872887 -32.50250816 84.62464523 C-32.50086169 82.28731373 -32.51750009 79.95080526 -32.53877258 77.61358643 C-32.54568603 75.65016737 -32.54568603 75.65016737 -32.55273914 73.64708328 C-32.96016921 70.18221654 -33.45522087 68.77890827 -35.9375 66.375 C-38.98744008 65.35835331 -41.07795233 65.238174 -44.27153015 65.21678162 C-45.37790833 65.2069928 -46.4842865 65.19720398 -47.62419128 65.18711853 C-48.8383522 65.18136307 -50.05251312 65.1756076 -51.3034668 65.16967773 C-53.22070053 65.15482834 -53.22070053 65.15482834 -55.17666626 65.13967896 C-58.68255513 65.1126358 -62.18845745 65.09162306 -65.69439292 65.07167697 C-69.35795784 65.04981379 -73.02148133 65.02242672 -76.68501282 64.99562073 C-83.62287823 64.94569834 -90.56076665 64.90075783 -97.49867707 64.85759836 C-105.39705174 64.80822211 -113.29538482 64.75330542 -121.19371927 64.69791877 C-137.44160785 64.58410569 -153.68953455 64.47726518 -169.9375 64.375 C-139.94939946 34.24591833 -97.18158971 14.57367422 -56.125 5.5 C-55.31699951 5.32114258 -54.50899902 5.14228516 -53.67651367 4.95800781 C-50.77157255 4.36429722 -47.86303406 3.85861757 -44.9375 3.375 C-44.18920929 3.25078674 -43.44091858 3.12657349 -42.66995239 2.99859619 C-28.3933138 0.68680962 -14.44956184 -0.11998824 0 0 Z " fill="#2941B0" transform="translate(255.9375,-0.375)"/>
<path d="M0 0 C2.65401107 2.58881737 4.63472429 4.76414767 6.26171875 8.10546875 C6.65391602 8.91089111 7.04611328 9.71631348 7.45019531 10.54614258 C7.85850586 11.41779053 8.26681641 12.28943848 8.6875 13.1875 C9.12030273 14.10877686 9.55310547 15.03005371 9.99902344 15.97924805 C21.25009701 40.47471176 28.57043703 66.27944985 32 93 C32.08732895 93.66720566 32.1746579 94.33441132 32.26463318 95.02183533 C32.96087491 100.73820476 33.17456164 106.37742632 33.203125 112.1328125 C33.21018463 113.07916061 33.21724426 114.02550873 33.22451782 115.00053406 C33.45241099 154.51652112 33.45241099 154.51652112 30 171 C29.80132324 171.97485352 29.60264648 172.94970703 29.39794922 173.95410156 C21.83086161 210.12874808 7.93840428 244.21314663 -13.73730469 274.24462891 C-14.63311133 275.48995949 -15.51811606 276.74309228 -16.39550781 278.00146484 C-17.5728639 279.68478865 -18.78347444 281.34476226 -20 283 C-20.33 283 -20.66 283 -21 283 C-21.00146656 282.37162169 -21.00293312 281.74324337 -21.00444412 281.09582329 C-21.04151674 265.79681587 -21.10053724 250.49806345 -21.18390274 235.19924736 C-21.22369025 227.80079669 -21.25608413 220.40245233 -21.27099609 213.00390625 C-21.2840142 206.55434374 -21.3109826 200.10501519 -21.35461307 193.65558445 C-21.37722472 190.24148025 -21.39291089 186.82766458 -21.39188385 183.41347885 C-21.3942452 179.59935043 -21.4212607 175.78613873 -21.45410156 171.97216797 C-21.4490712 170.84359879 -21.44404083 169.7150296 -21.43885803 168.55226135 C-21.52015713 162.45641759 -21.76060627 158.55607756 -26 154 C-30.78539445 152.40486852 -35.9731754 152.41890205 -41 152 C-41 143.09 -41 134.18 -41 125 C-38.60363281 124.96261719 -36.20726562 124.92523438 -33.73828125 124.88671875 C-31.40819357 124.84045957 -29.07826373 124.78924207 -26.74829102 124.73754883 C-25.13348037 124.7043689 -23.51855569 124.67631542 -21.90356445 124.65356445 C-19.57714408 124.61988975 -17.25176217 124.56757037 -14.92578125 124.51171875 C-14.20787918 124.50532883 -13.48997711 124.4989389 -12.75032043 124.49235535 C-8.35802666 124.36456144 -5.49991467 123.69717057 -2 121 C-0.78013933 118.56027867 -0.86188278 116.96980629 -0.84178162 114.24179077 C-0.82709839 112.73574028 -0.82709839 112.73574028 -0.81211853 111.19926453 C-0.80636307 110.09371719 -0.8006076 108.98816986 -0.79467773 107.84912109 C-0.78477814 106.68815414 -0.77487854 105.52718719 -0.76467896 104.33103943 C-0.73299201 100.47852648 -0.70827809 96.62600117 -0.68359375 92.7734375 C-0.66303043 90.10828214 -0.64208249 87.4431326 -0.62062073 84.77798462 C-0.57067537 78.47049252 -0.5257434 72.16297499 -0.48259836 65.85543311 C-0.43324172 58.67532385 -0.37831777 51.49526058 -0.32291877 44.3151958 C-0.20907045 29.54350749 -0.10223762 14.77177334 0 0 Z " fill="#2840B0" transform="translate(479,131)"/>
<path d="M0 0 C0.33 0 0.66 0 1 0 C1 60.72 1 121.44 1 184 C19.56320225 180.37277408 19.56320225 180.37277408 37.5 175.125 C38.4799292 174.78839355 39.4598584 174.45178711 40.46948242 174.10498047 C54.76528128 169.17478942 54.76528128 169.17478942 68 162 C70.90006883 161.81535656 73.70272032 161.74785289 76.60229492 161.77294922 C77.48055435 161.77265717 78.35881378 161.77236511 79.26368713 161.77206421 C82.16938118 161.7734586 85.07481945 161.789025 87.98046875 161.8046875 C89.99400187 161.80841724 92.0075368 161.8112644 94.02107239 161.81326294 C99.32295739 161.82090247 104.62473297 161.84055374 109.92657471 161.8626709 C115.33580037 161.88312242 120.7450437 161.89226317 126.15429688 161.90234375 C136.76957935 161.92379929 147.38478058 161.95793913 158 162 C154.27163468 165.75326937 150.57598044 169.01948085 146.3125 172.125 C145.66313477 172.59800537 145.01376953 173.07101074 144.34472656 173.55834961 C114.11405682 195.23513022 79.99017892 209.85608046 43.5625 217.3125 C42.84360596 217.45985596 42.12471191 217.60721191 41.3840332 217.7590332 C26.70839502 220.54840125 12.18331162 221.34892619 -2.72729492 221.31567383 C-5.66688487 221.3125221 -8.6054558 221.33604926 -11.54492188 221.36132812 C-24.91806192 221.40598737 -37.81416711 220.20051542 -51 218 C-52.13703369 217.81187744 -53.27406738 217.62375488 -54.44555664 217.42993164 C-57.04125069 216.96367609 -59.61273152 216.44480266 -62.1875 215.875 C-63.11199951 215.67108643 -64.03649902 215.46717285 -64.98901367 215.25708008 C-83.66496435 210.9202902 -101.73086743 204.28466883 -119 196 C-119 195.67 -119 195.34 -119 195 C-118.42739095 194.99761165 -117.85478189 194.99522329 -117.26482105 194.99276257 C-103.32646033 194.93360447 -89.38827452 194.85786066 -75.4501009 194.76428509 C-68.70966977 194.71933582 -61.96929136 194.67991925 -55.22875977 194.65356445 C-48.72531376 194.62812106 -42.22207216 194.58721039 -35.71877098 194.53681374 C-33.23607485 194.52011265 -30.75333812 194.50861862 -28.27059364 194.50238609 C-24.79643716 194.49278053 -21.32288525 194.46476249 -17.84887695 194.43237305 C-16.81957062 194.43380814 -15.79026428 194.43524323 -14.72976685 194.4367218 C-7.86196677 194.37807263 -7.86196677 194.37807263 -2 191 C-0.49520195 187.99040391 -0.84620812 184.88602184 -0.84178162 181.58432007 C-0.83684364 180.81081982 -0.83190566 180.03731958 -0.82681805 179.24037993 C-0.8113948 176.63470214 -0.80306941 174.02904908 -0.79467773 171.42333984 C-0.785103 169.56099732 -0.77509316 167.69865699 -0.76467896 165.83631897 C-0.73757996 160.76843119 -0.71659749 155.70053405 -0.69667697 150.63261366 C-0.67484816 145.34080253 -0.64744431 140.04902041 -0.62062073 134.75723267 C-0.57065176 124.73105478 -0.52572856 114.70486083 -0.48259836 104.67865145 C-0.43326186 93.26646931 -0.37833046 81.85431628 -0.32291877 70.44216228 C-0.20903421 46.96146866 -0.10220931 23.48074713 0 0 Z " fill="#2641B0" transform="translate(262,291)"/>
<path d="M0 0 C3.43203219 0.8517906 5.0647359 2.79004399 7.15625 5.53515625 C8.35897819 7.94061263 8.25696472 9.48512578 8.21875 12.16015625 C8.20972656 12.97742188 8.20070312 13.7946875 8.19140625 14.63671875 C8.17980469 15.26320313 8.16820312 15.8896875 8.15625 16.53515625 C8.795625 16.61765625 9.435 16.70015625 10.09375 16.78515625 C17.91550424 18.7006879 27.59241913 22.68940994 32.15625 29.53515625 C32.61596784 34.50010898 32.30690843 37.59683321 29.15625 41.53515625 C25.61786553 44.09743466 23.96828611 43.53515625 19.15625 43.53515625 C15.52625 41.55515625 11.89625 39.57515625 8.15625 37.53515625 C8.15625 49.08515625 8.15625 60.63515625 8.15625 72.53515625 C11.45625 73.52515625 14.75625 74.51515625 18.15625 75.53515625 C29.91238299 81.45575579 36.06748613 90.26886463 40.15625 102.53515625 C41.24698193 115.96367559 38.6699415 126.39270819 30.35546875 137.05859375 C25.45854905 142.57306461 20.8318019 146.14393866 13.71875 148.16015625 C11.14771205 148.91572647 11.14771205 148.91572647 9.15625 150.53515625 C8.10569383 153.90221076 7.78618416 156.9219303 7.6328125 160.44140625 C7.05642036 164.18323062 6.16904904 165.30579012 3.15625 167.53515625 C0.15810448 168.56493074 -2.68699395 168.78837198 -5.84375 168.53515625 C-8.76518417 166.77012311 -10.32298817 165.5766799 -11.84375 162.53515625 C-11.91408769 160.6613602 -11.9280522 158.78514523 -11.90625 156.91015625 C-11.89722656 155.90726563 -11.88820312 154.904375 -11.87890625 153.87109375 C-11.86730469 153.10023438 -11.85570312 152.329375 -11.84375 151.53515625 C-13.16375 151.53515625 -14.48375 151.53515625 -15.84375 151.53515625 C-21.16133702 151.01024423 -25.41995636 149.17890252 -30.15625 146.84765625 C-30.83751953 146.52087891 -31.51878906 146.19410156 -32.22070312 145.85742188 C-36.92433111 143.43854534 -39.78702456 140.86793406 -42.84375 136.53515625 C-43.50401381 133.36588995 -43.53489546 131.62523494 -41.78125 128.859375 C-40.0044727 126.6436914 -38.40561905 124.81609077 -35.84375 123.53515625 C-30.65810452 122.9984495 -27.16211659 124.53119353 -22.71875 126.97265625 C-19.10137599 128.91190665 -15.86979665 130.52864459 -11.84375 131.53515625 C-12.17375 116.35515625 -12.50375 101.17515625 -12.84375 85.53515625 C-19.27875 82.07015625 -19.27875 82.07015625 -25.84375 78.53515625 C-32.59945979 73.92411624 -36.39659011 68.39546842 -38.84375 60.53515625 C-40.25494621 51.43716781 -39.91275092 41.44442846 -34.84375 33.53515625 C-29.42365206 26.31545801 -23.36177878 19.81612722 -14.34375 17.72265625 C-13.10625 17.62984375 -13.10625 17.62984375 -11.84375 17.53515625 C-11.90175781 16.81070312 -11.95976562 16.08625 -12.01953125 15.33984375 C-12.43479619 6.44130923 -12.43479619 6.44130923 -9.90625 2.84765625 C-6.32916157 0.14658948 -4.38784275 -0.28520978 0 0 Z " fill="#FBFEFD" transform="translate(159.84375,302.46484375)"/>
<path d="M0 0 C0.33 0 0.66 0 1 0 C1.00146656 0.5913804 1.00293312 1.18276079 1.00444412 1.79206181 C1.04153661 16.1984702 1.10058358 30.60466579 1.18390274 45.01088047 C1.22366941 51.97771643 1.25607384 58.94443982 1.27099609 65.91137695 C1.2854188 72.63534672 1.32055691 79.35891728 1.36830902 86.08274651 C1.38314201 88.647521 1.39104211 91.2123453 1.39188385 93.77716255 C1.39424934 97.37078135 1.421298 100.9634327 1.45410156 104.55688477 C1.4490712 105.6164035 1.44404083 106.67592224 1.43885803 107.76754761 C1.5291125 114.16169971 2.51842494 117.66184827 6 123 C6.45410156 125.27476501 6.45410156 125.27476501 6.390625 127.26928711 C6.37759842 128.03300629 6.36457184 128.79672546 6.35115051 129.58358765 C6.31777084 130.39002716 6.28439117 131.19646667 6.25 132.02734375 C6.2153215 133.79564616 6.18107677 135.56395712 6.1472168 137.33227539 C6.10991959 138.70635056 6.10991959 138.70635056 6.0718689 140.10818481 C5.64734352 156.82078462 5.92552721 172.69221134 10 189 C10.19255371 189.77972168 10.38510742 190.55944336 10.58349609 191.36279297 C11.84806664 196.31648661 13.33558479 201.16697824 15 206 C15.34417969 207.00401855 15.34417969 207.00401855 15.6953125 208.02832031 C18.64515044 216.72252691 18.64515044 216.72252691 22.73950195 224.90161133 C29.68757171 237.2892131 28.79509889 249.55475922 28.4375 263.4375 C28.40231831 265.82612581 28.37039151 268.21480188 28.34179688 270.60351562 C28.26537268 276.40345698 28.14882814 282.20148804 28 288 C24.22826036 284.29152876 20.97856444 280.57329687 17.875 276.3125 C17.16549194 275.33845215 17.16549194 275.33845215 16.44165039 274.34472656 C-5.23513022 244.11405682 -19.85608046 209.99017892 -27.3125 173.5625 C-27.45985596 172.84360596 -27.60721191 172.12471191 -27.7590332 171.3840332 C-30.73289088 155.73774391 -31.37300362 140.26431954 -31.3125 124.375 C-31.31034485 123.35709381 -31.3081897 122.33918762 -31.30596924 121.29043579 C-31.25629854 106.68136477 -31.00540191 92.34924147 -28 78 C-27.80132324 77.02514648 -27.60264648 76.05029297 -27.39794922 75.04589844 C-21.90263391 48.77540984 -13.33313615 23.35285495 0 0 Z " fill="#263FB1" transform="translate(31,132)"/>
<path d="M0 0 C1.0236264 0.00636726 1.0236264 0.00636726 2.06793213 0.01286316 C4.23840504 0.02959903 6.40793479 0.06723916 8.578125 0.10546875 C10.05337197 0.12052229 11.52863355 0.13420953 13.00390625 0.14648438 C16.61228344 0.17948498 20.2201121 0.23123108 23.828125 0.29296875 C22.55859375 1.79036458 21.2890625 3.28776042 20.01953125 4.78515625 C17.12314161 8.45075101 17.66854909 12.2958824 17.65454102 16.7590332 C17.647854 17.63577194 17.64116699 18.51251068 17.63427734 19.41581726 C17.62020275 21.32556569 17.60831642 23.23533118 17.59832954 25.14510536 C17.581916 28.17754306 17.55867154 31.20985697 17.53343201 34.24223328 C17.46271125 42.86658529 17.40288335 51.49099128 17.35131836 60.11547852 C17.31930535 65.38930089 17.27796138 70.66298651 17.23112297 75.93669701 C17.21521887 77.9383005 17.2028446 79.93993555 17.19421577 81.94158363 C17.15186287 91.63641225 17.08873271 101.06512747 15.27824402 110.61791992 C14.47594513 115.38596704 14.53856825 120.15784159 14.578125 124.98046875 C14.57039063 125.93501953 14.56265625 126.88957031 14.5546875 127.87304688 C14.55855469 129.29327148 14.55855469 129.29327148 14.5625 130.7421875 C14.56475586 131.57065186 14.56701172 132.39911621 14.56933594 133.25268555 C14.78953047 135.83955588 15.2310985 138.0419843 15.82763672 140.55297852 C17.24813396 147.39940894 17.10854762 154.28365285 17.10251999 161.24176788 C17.10154386 163.73114229 17.11462038 166.22009768 17.13150024 168.70941162 C17.17746972 175.77922472 17.20239706 182.84898748 17.20898438 189.91894531 C17.21400378 194.2619165 17.23826017 198.60443895 17.27431107 202.947258 C17.28408472 204.59459487 17.28645432 206.24199359 17.28113937 207.88935089 C17.27405306 210.19137096 17.29137629 212.49205181 17.31396484 214.79394531 C17.31681488 216.10059143 17.31966492 217.40723755 17.32260132 218.753479 C18.03722254 223.75699235 20.30933995 226.7741837 23.828125 230.29296875 C19.52321037 230.41715633 15.2192615 230.50757877 10.91308594 230.56762695 C9.45033593 230.59267404 7.98770988 230.62672267 6.52539062 230.67016602 C4.41505281 230.73126231 2.30637748 230.7592731 0.1953125 230.78125 C-1.70565186 230.82052612 -1.70565186 230.82052612 -3.64501953 230.8605957 C-8.3245638 230.10745017 -9.88096016 228.65335777 -13.171875 225.29296875 C-14.45121561 221.45494691 -14.31654035 217.84097245 -14.31231689 213.84158325 C-14.31528802 212.9686676 -14.31825914 212.09575195 -14.3213203 211.19638431 C-14.33001894 208.25998227 -14.33151652 205.32362095 -14.33300781 202.38720703 C-14.33763511 200.28652865 -14.34265965 198.18585111 -14.34805298 196.08517456 C-14.36118633 190.37032303 -14.36762361 184.65548326 -14.37206364 178.94061899 C-14.37499248 175.37243777 -14.3790969 171.80425977 -14.38356781 168.23608017 C-14.39724439 157.07842019 -14.40691061 145.92076757 -14.4107697 134.76309979 C-14.41525284 121.87109806 -14.43281197 108.97920223 -14.4617703 96.08723271 C-14.48336323 86.12963712 -14.49347268 76.17207138 -14.49481082 66.21445262 C-14.49586044 60.26354396 -14.50180174 54.31273482 -14.51963043 48.36185074 C-14.5360701 42.7656927 -14.53828659 37.16970945 -14.52949142 31.57353592 C-14.52871888 29.51800571 -14.53309222 27.46246625 -14.54294968 25.40695953 C-14.55560545 22.60387024 -14.54982711 19.80140598 -14.53936768 16.99832153 C-14.54742408 16.18226916 -14.55548048 15.3662168 -14.56378102 14.52543557 C-14.51397237 8.82979232 -13.36935201 5.55984951 -9.43261719 1.4987793 C-6.21627868 -0.21671702 -3.62960729 -0.04462632 0 0 Z " fill="#FD3980" transform="translate(263.171875,25.70703125)"/>
<path d="M0 0 C0.72822464 0.0028299 1.45644928 0.00565979 2.20674133 0.00857544 C4.52992262 0.01975993 6.85271672 0.04486084 9.17578125 0.0703125 C10.75194755 0.08034456 12.3281199 0.08947002 13.90429688 0.09765625 C17.76577392 0.11969354 21.62696196 0.15421109 25.48828125 0.1953125 C24.67596007 1.0308283 23.8636389 1.86634411 23.02670193 2.72717857 C20.0733403 6.29475764 19.86639378 9.02681745 19.87355042 13.68545532 C19.86786716 14.41871548 19.8621839 15.15197564 19.85632843 15.9074558 C19.84345424 18.35376541 19.86618752 20.79841074 19.88891602 23.24462891 C19.8870514 25.00255174 19.88301357 26.76047341 19.87696838 28.51838684 C19.8669984 33.28490421 19.88815516 38.0508264 19.91544843 42.8172574 C19.93928645 47.80551787 19.93633353 52.7937667 19.93675232 57.78207397 C19.94137924 66.15657625 19.96501548 74.53085105 20.0012207 82.90527344 C20.04298074 92.5903938 20.06053722 102.27530944 20.06384045 111.96051466 C20.06743853 122.27013599 20.08630915 132.57968356 20.11096072 142.88927412 C20.11719179 145.86142094 20.12082653 148.83356214 20.12399483 151.80571365 C20.12989139 156.47280626 20.14619333 161.1397523 20.17059898 165.80678368 C20.17804496 167.52085805 20.1821113 169.23495088 20.18257904 170.94904137 C20.18383506 173.28589148 20.19736682 175.62235403 20.21412659 177.95913696 C20.21877709 179.26766443 20.2234276 180.5761919 20.22821903 181.92437172 C20.60318156 186.64047475 22.03789799 189.05860045 25.48828125 192.1953125 C21.02260362 192.29449044 16.55751618 192.36692475 12.09106445 192.41503906 C10.57304715 192.43510453 9.05510666 192.46236384 7.53735352 192.49707031 C5.35023003 192.54581643 3.16413173 192.56833055 0.9765625 192.5859375 C-0.33787842 192.60688477 -1.65231934 192.62783203 -3.0065918 192.64941406 C-7.10522095 192.1184222 -8.66123441 191.1364574 -11.51171875 188.1953125 C-13.90928662 184.57026697 -13.76564027 181.30235543 -13.77241516 177.02833557 C-13.77624071 176.30565693 -13.78006626 175.5829783 -13.78400773 174.8384003 C-13.79432811 172.41636284 -13.79034746 169.99456287 -13.78637695 167.57250977 C-13.79072396 165.83620992 -13.79590707 164.099912 -13.80186462 162.36361694 C-13.81526695 157.64670479 -13.81583194 152.92987271 -13.81330132 148.21294522 C-13.81223248 144.27644928 -13.81711276 140.3399696 -13.82190675 136.40347713 C-13.83300614 127.11752385 -13.83343687 117.83161101 -13.82739258 108.5456543 C-13.82135102 98.96282495 -13.83366745 89.38014237 -13.85496265 79.79733807 C-13.87256942 71.57218475 -13.87858148 63.34707818 -13.8753249 55.1219067 C-13.87351047 50.20835725 -13.8761642 45.29491249 -13.89003944 40.38138008 C-13.90259817 35.76108679 -13.90069225 31.14102257 -13.88762856 26.52073288 C-13.88525898 24.82480607 -13.88801109 23.12886323 -13.89625168 21.43295479 C-13.90668882 19.11812725 -13.89864348 16.80407265 -13.88594055 14.48927307 C-13.88610829 13.19381845 -13.88627604 11.89836382 -13.88644886 10.56365299 C-13.48191661 6.92742966 -12.72346575 5.07826968 -10.51171875 2.1953125 C-6.86867011 -0.23338659 -4.20449536 -0.06144425 0 0 Z " fill="#FCB30A" transform="translate(45.51171875,63.8046875)"/>
<path d="M0 0 C10.47534417 5.57164496 17.62868439 13.767387 22.1953125 24.6328125 C25.42253988 36.9311655 23.78042384 50.32519524 17.7421875 61.34765625 C10.93246444 72.49253087 0.62494405 78.8871941 -11.9375 81.9375 C-24.6015143 83.19859157 -35.29708131 81.29477591 -45.8125 73.6875 C-53.85610971 66.8688804 -59.65448841 58.29931908 -61.9375 47.9375 C-62.69838616 33.04169022 -61.89290403 21.77164759 -51.9375 9.9375 C-38.24738698 -4.8116595 -18.20987179 -8.17471025 0 0 Z " fill="#FD5E95" transform="translate(391.9375,329.0625)"/>
<path d="M0 0 C1.20889893 -0.0038269 2.41779785 -0.00765381 3.66333008 -0.01159668 C6.20817909 -0.01430729 8.75305637 -0.00700616 11.29785156 0.00976562 C15.17576679 0.03118519 19.05182936 0.00993249 22.9296875 -0.015625 C25.41146239 -0.01298158 27.89323614 -0.0078563 30.375 0 C31.52524658 -0.00809692 32.67549316 -0.01619385 33.8605957 -0.02453613 C44.04072325 0.0930685 51.02576446 2.80204231 58.46484375 9.73828125 C64.63999309 16.1654775 66.49959451 22.71881621 66.48828125 31.44921875 C66.49256638 32.18827957 66.4968515 32.92734039 66.50126648 33.688797 C66.50697936 35.24100728 66.50753262 36.79324431 66.50317383 38.34545898 C66.49999525 40.72230113 66.52357288 43.09791911 66.54882812 45.47460938 C66.55109956 46.9869776 66.55180534 48.49934916 66.55078125 50.01171875 C66.559991 50.72112106 66.56920074 51.43052338 66.57868958 52.16142273 C66.53238993 57.07558533 66.53238993 57.07558533 64.91092682 59.21784401 C61.83120409 61.56486927 57.89828693 60.94534668 54.17382812 60.91943359 C52.79051552 60.92731903 52.79051552 60.92731903 51.3792572 60.93536377 C48.32558339 60.94858636 45.27242927 60.93981761 42.21875 60.9296875 C40.10030009 60.93170758 37.98185085 60.93461847 35.86340332 60.93838501 C31.42140082 60.94281143 26.97957916 60.936367 22.53759766 60.92236328 C16.83753311 60.90527133 11.13789231 60.9151108 5.43784332 60.93308067 C1.06273188 60.94390986 -3.31227874 60.94047613 -7.68739319 60.9326973 C-9.78939361 60.9306929 -11.89140313 60.93316293 -13.99339294 60.94013596 C-16.92878545 60.94773612 -19.8634872 60.93616622 -22.79882812 60.91943359 C-24.10805992 60.92854263 -24.10805992 60.92854263 -25.44374084 60.93783569 C-31.3613557 60.87519294 -31.3613557 60.87519294 -33.53295135 59.21961403 C-35.63541549 56.44541328 -35.28031216 53.28014505 -35.28125 49.93359375 C-35.28886353 49.18469376 -35.29647705 48.43579376 -35.30432129 47.66419983 C-35.31512721 46.07637864 -35.31797336 44.48848635 -35.31347656 42.90063477 C-35.31251289 40.50086161 -35.35393727 38.10438219 -35.3984375 35.70507812 C-35.47998523 25.38431145 -34.18062398 18.40868511 -27.890625 9.9453125 C-27.28734375 9.35492188 -26.6840625 8.76453125 -26.0625 8.15625 C-25.46953125 7.55039063 -24.8765625 6.94453125 -24.265625 6.3203125 C-16.56014592 0.70071152 -9.36011303 -0.06588859 0 0 Z " fill="#F46B38" transform="translate(112.8125,171.46875)"/>
<path d="M0 0 C1.30195312 0.00322266 2.60390625 0.00644531 3.9453125 0.00976562 C5.32552149 0.01812159 6.70572982 0.02658654 8.0859375 0.03515625 C9.47395676 0.04017124 10.86197772 0.04473415 12.25 0.04882812 C15.65368882 0.06064649 19.05729189 0.07712191 22.4609375 0.09765625 C21.6771875 0.69578125 20.8934375 1.29390625 20.0859375 1.91015625 C17.31519427 4.00850874 17.31519427 4.00850874 15.4609375 7.09765625 C15.26355353 9.63477256 15.18264516 12.06239557 15.19351196 14.59994507 C15.18898085 15.37077191 15.18444974 16.14159875 15.17978132 16.93578398 C15.16708953 19.52674842 15.16876075 22.11750395 15.17041016 24.70849609 C15.16442788 26.56287406 15.15762303 28.41724953 15.15005493 30.2716217 C15.13235701 35.31502063 15.12769796 40.35835173 15.12642336 45.4017787 C15.12452633 49.60912598 15.11717105 53.8164574 15.11007917 58.02379858 C15.09378317 67.94881658 15.08891132 77.87379829 15.09033203 87.79882812 C15.09153377 98.04343067 15.07042833 108.28782263 15.0388447 118.53237188 C15.01270956 127.32225678 15.00196358 136.11207279 15.00324285 144.90199625 C15.0037533 150.15429684 14.99802436 155.40641037 14.97688675 160.65867233 C14.95755088 165.59827448 14.95734798 170.53751025 14.97192001 175.47712517 C14.97401501 177.29077246 14.96926627 179.10444241 14.9571991 180.91805077 C14.94179776 183.3929337 14.95102 185.86654525 14.96646118 188.34140015 C14.95617406 189.06017881 14.94588693 189.77895747 14.93528807 190.5195173 C15.01811419 196.52118267 17.40052593 199.03724468 21.4609375 203.09765625 C17.42259961 203.19690645 13.38473878 203.26930187 9.34545898 203.31738281 C7.97293727 203.33743615 6.60050033 203.36468653 5.22827148 203.39941406 C3.25021706 203.44820177 1.27152631 203.46854501 -0.70703125 203.48828125 C-1.89578857 203.50922852 -3.0845459 203.53017578 -4.30932617 203.55175781 C-8.17480131 203.00827125 -9.78556731 201.80613603 -12.5390625 199.09765625 C-14.04371013 196.08836098 -13.69070973 192.98558152 -13.69296265 189.68438721 C-13.6973449 188.9110368 -13.70172715 188.1376864 -13.7062422 187.34090114 C-13.71965483 184.73540304 -13.72581458 182.12993879 -13.73193359 179.52441406 C-13.73983262 177.66195522 -13.74810145 175.79949792 -13.75671387 173.93704224 C-13.78295709 167.80830349 -13.79824382 161.67955783 -13.8125 155.55078125 C-13.81785874 153.44283799 -13.82323624 151.33489477 -13.82863235 149.2269516 C-13.85026447 140.45980548 -13.86900194 131.69266121 -13.88025475 122.92549515 C-13.89649837 110.35162078 -13.92968249 97.77805523 -13.98665559 85.2042973 C-14.02532925 76.36856746 -14.04488439 67.5329203 -14.05017531 58.69710803 C-14.0538323 53.41730894 -14.06589053 48.13783904 -14.09827805 42.85813141 C-14.12831325 37.89059829 -14.13468671 32.92359434 -14.12289429 27.95598984 C-14.12267317 26.13307347 -14.13100963 24.31013288 -14.14854813 22.48730087 C-14.17120209 19.99718208 -14.1629637 17.50898825 -14.14706421 15.01885986 C-14.1609463 14.29842098 -14.17482838 13.57798209 -14.18913114 12.83571172 C-14.10064527 7.20648188 -12.38246697 4.91197873 -8.5390625 1.09765625 C-5.66887809 -0.33743596 -3.20362527 -0.01392881 0 0 Z " fill="#00B772" transform="translate(72.5390625,282.90234375)"/>
<path d="M0 0 C-0.36351562 0.47308594 -0.72703125 0.94617188 -1.1015625 1.43359375 C-11.41817765 15.00391061 -20.28268808 28.93826132 -20.3359375 46.48828125 C-20.3425943 47.27212692 -20.3492511 48.0559726 -20.35610962 48.86357117 C-20.36616853 50.51148151 -20.37092875 52.15943203 -20.37060547 53.80737305 C-20.37497125 56.29611052 -20.4113402 58.78306037 -20.44921875 61.27148438 C-20.54634775 74.93011074 -18.09908277 86.4531314 -8.375 96.71484375 C-4.06815652 100.63287497 0.83954974 103.35541551 6 106 C6 106.66 6 107.32 6 108 C6.68835938 108.25910156 7.37671875 108.51820313 8.0859375 108.78515625 C12.55121445 110.64668592 16.76634235 112.98262759 21.0390625 115.24609375 C29.92084631 119.44336306 38.52207288 120.44652378 48.25 120.25 C49.28640625 120.24484375 50.3228125 120.2396875 51.390625 120.234375 C56.68757127 120.18032453 61.78097988 119.91406567 67 119 C58.451489 128.68831246 43.51448157 135.28664085 30.625 136.16113281 C9.82088363 136.49393676 -8.70806422 134.21835337 -24.5625 119.5 C-26.41558593 117.70059134 -28.20739402 115.86144646 -30 114 C-30.66386719 113.35546875 -31.32773437 112.7109375 -32.01171875 112.046875 C-44.44747989 99.19193091 -49.72636929 80.85183405 -49.46875 63.30957031 C-48.60555602 43.80678133 -39.81454628 26.16257299 -25.6640625 12.79296875 C-18.88296437 7.05427243 -9.30039791 -0.82517394 0 0 Z " fill="#4F66D1" transform="translate(351,302)"/>
<path d="M0 0 C6.85732841 4.74653992 11.21646069 10.10012756 14 18 C14.6461375 22.19458635 14.65749459 26.26375488 14.5625 30.5 C14.57345703 31.56347656 14.58441406 32.62695312 14.59570312 33.72265625 C14.51659046 42.31956563 12.58220552 49.05074449 7.875 56.25 C-0.33703918 64.104994 -8.10747775 66.49910435 -19.25 66.40625 C-26.71449316 65.59759657 -33.36196269 62.18519992 -38.5 56.6875 C-46.30632061 46.3251275 -46.99927245 34.50765321 -46 22 C-44.32319116 13.34322185 -39.98485529 6.77961948 -32.98046875 1.46875 C-22.51056321 -5.41776531 -11.03268394 -6.30948322 0 0 Z " fill="#F36B37" transform="translate(144,92)"/>
<path d="M0 0 C1.27886804 3.83660412 0.4933938 5.82783414 -0.4375 9.75 C-4.64046425 29.4943798 -0.57056363 48.84414572 10 66 C20.90059274 81.79347243 37.23903052 92.95130872 55.90625 97.3828125 C67.72023546 99.45143198 80.3552286 98.58562995 92 96 C93.66631016 95.66488908 95.33287609 95.33103892 97 95 C94.04144817 99.11876824 90.75741222 101.83743904 86.5 104.5 C85.88342529 104.88873291 85.26685059 105.27746582 84.6315918 105.67797852 C69.61062219 114.91972314 52.5052122 118.60870381 35.03125 115.34765625 C16.29881527 110.83871277 0.50105672 99.61169966 -10.125 83.5625 C-19.37546171 66.9675783 -22.41501087 47.86364741 -17.60498047 29.28735352 C-14.20674343 18.19439975 -7.86327061 8.45301591 0 0 Z " fill="#FFE6BD" transform="translate(316,101)"/>
<path d="M0 0 C5.21997375 2.44931737 8.37783429 4.75566857 11 10 C11.09685088 12.16490195 11.12979438 14.33293803 11.125 16.5 C11.12886719 18.24796875 11.12886719 18.24796875 11.1328125 20.03125 C11 23 11 23 10 25 C9.64210869 29.36627393 9.55588225 31.98487372 11.3125 36 C15.53499771 39.14232387 19.91328611 38.39465884 25 38 C20.73324007 46.9161889 13.60832533 52.41155001 4.4375 55.875 C3.303125 56.24625 2.16875 56.6175 1 57 C0.90203125 57.89203125 0.8040625 58.7840625 0.703125 59.703125 C0.55359375 60.87359375 0.4040625 62.0440625 0.25 63.25 C0.11078125 64.41015625 -0.0284375 65.5703125 -0.171875 66.765625 C-1.10855338 70.42397263 -1.997605 71.76020266 -5 74 C-7.99814552 75.02977449 -10.84324395 75.25321573 -14 75 C-16.92143417 73.23496686 -18.47923817 72.04152365 -20 69 C-20.07033769 67.12620395 -20.0843022 65.24998898 -20.0625 63.375 C-20.05347656 62.37210937 -20.04445312 61.36921875 -20.03515625 60.3359375 C-20.02355469 59.56507813 -20.01195312 58.79421875 -20 58 C-21.32 58 -22.64 58 -24 58 C-29.31758702 57.47508798 -33.57620636 55.64374627 -38.3125 53.3125 C-38.99376953 52.98572266 -39.67503906 52.65894531 -40.37695312 52.32226562 C-45.08058111 49.90338909 -47.94327456 47.33277781 -51 43 C-51.66026381 39.8307337 -51.69114546 38.09007869 -49.9375 35.32421875 C-48.1607227 33.10853515 -46.56186905 31.28093452 -44 30 C-38.81435452 29.46329325 -35.31836659 30.99603728 -30.875 33.4375 C-27.25762599 35.3767504 -24.02604665 36.99348834 -20 38 C-20 32.06 -20 26.12 -20 20 C-18.02 21.65 -16.04 23.3 -14 25 C-10.93224094 25.87884201 -9.28302009 25.47656743 -6 25 C-3.56880377 23.12984906 -2.35930827 21.71861655 -1 19 C-0.84932786 17.5534758 -0.75138964 16.1012066 -0.68359375 14.6484375 C-0.62075195 13.37226563 -0.62075195 13.37226563 -0.55664062 12.0703125 C-0.51732422 11.18085938 -0.47800781 10.29140625 -0.4375 9.375 C-0.37272461 8.02921875 -0.37272461 8.02921875 -0.30664062 6.65625 C-0.20043139 4.43765717 -0.09838806 2.2189512 0 0 Z " fill="#E1F1FB" transform="translate(168,396)"/>
<path d="M0 0 C-1.80031463 1.87232721 -3.57573648 3.67828358 -5.6484375 5.25 C-11.68293137 9.88786428 -15.30559146 15.56180882 -16.49536133 23.16601562 C-16.70580814 26.60373356 -16.73172202 29.99395019 -16.6875 33.4375 C-16.71521484 34.58798828 -16.74292969 35.73847656 -16.77148438 36.92382812 C-16.74807051 45.18892089 -14.97830494 51.32634569 -10 58 C-6.91397984 60.85113612 -3.75570064 63.12214968 0 65 C0 65.66 0 66.32 0 67 C-8.16689986 69.42204628 -16.80946029 69.05205367 -24.5 65.4375 C-33.18614742 60.49378844 -37.82522336 53.69843023 -40.53271484 44.11425781 C-42.72191123 34.20911639 -42.0362584 21.85430681 -37 13 C-28.82787708 1.0004271 -14.05144996 -6.40319239 0 0 Z " fill="#E75A20" transform="translate(139,90)"/>
<path d="M0 0 C3.75360166 2.21656649 6.59320405 5.5326781 9.58886719 8.65722656 C10.77567244 9.8931227 11.96675328 11.12492438 13.16162109 12.35302734 C14.36313496 13.59283648 15.55167051 14.84539192 16.72509766 16.11181641 C20.86982655 20.41727616 24.32696529 22.15641192 30 24 C34.16193291 27.23705893 35.49673188 30.07497423 37.04296875 34.89453125 C38.20216264 37.44475782 39.73150069 39.00480231 41.6875 41 C44.19270377 43.70732212 45.53292976 45.4552923 45.75 49.1875 C44.86261381 53.69837981 43.5704723 55.19462891 40 58 C36.98221063 59.50889469 35.37677363 59.50026276 32 59 C29.90705065 57.39613986 28.0558596 55.62441203 26.1484375 53.8046875 C23.92846662 51.93991196 21.99053755 50.9515533 19.3125 49.875 C15.25380937 48.20828684 12.7503267 46.53613432 10 43 C9.46989127 41.64687324 8.96159069 40.28511006 8.46875 38.91796875 C5.38237686 31.79407603 -0.68499005 27.19675986 -6.35351562 22.10546875 C-11.10062322 17.63286622 -14.00692858 14.61089101 -14.28564453 7.92773438 C-13.81826977 4.77355391 -12.29761249 3.10067428 -10 1 C-6.68449624 -0.65775188 -3.55841262 -0.72439114 0 0 Z " fill="#E75B22" transform="translate(342,113)"/>
<path d="M0 0 C1.72766602 0.02707031 1.72766602 0.02707031 3.49023438 0.0546875 C6.30687834 0.10143678 9.12173229 0.16694843 11.9375 0.25 C10.00044661 1.22982366 8.09053282 2.18795098 6.078125 3.00390625 C-1.28446239 6.15278144 -6.46920791 11.58042924 -9.64990234 18.90600586 C-11.15788477 23.05387675 -11.48412012 26.97344853 -11.42578125 31.36328125 C-11.42627975 32.09951218 -11.42677826 32.8357431 -11.42729187 33.59428406 C-11.4249705 35.13457978 -11.41535791 36.6748807 -11.39868164 38.21508789 C-11.37488325 40.5740727 -11.37816031 42.93193954 -11.38476562 45.29101562 C-11.37919432 46.79427757 -11.3720879 48.29753478 -11.36328125 49.80078125 C-11.36419266 50.50390945 -11.36510406 51.20703766 -11.36604309 51.93147278 C-11.31281306 55.58730422 -11.14740121 57.12264818 -9.0625 60.25 C-12.83318832 60.336985 -16.60361932 60.39038579 -20.375 60.4375 C-21.44685547 60.46263672 -22.51871094 60.48777344 -23.62304688 60.51367188 C-24.65107422 60.52333984 -25.67910156 60.53300781 -26.73828125 60.54296875 C-27.68614502 60.5586792 -28.63400879 60.57438965 -29.6105957 60.59057617 C-32.0625 60.25 -32.0625 60.25 -33.8659668 59.20654297 C-35.71504103 56.18298024 -35.53028525 53.09492126 -35.53125 49.65234375 C-35.53886353 48.90344376 -35.54647705 48.15454376 -35.55432129 47.38294983 C-35.56512721 45.79512864 -35.56797336 44.20723635 -35.56347656 42.61938477 C-35.56251289 40.21961161 -35.60393727 37.82313219 -35.6484375 35.42382812 C-35.72998523 25.10306145 -34.43062398 18.12743511 -28.140625 9.6640625 C-27.53734375 9.07367188 -26.9340625 8.48328125 -26.3125 7.875 C-25.71953125 7.26914063 -25.1265625 6.66328125 -24.515625 6.0390625 C-16.63875144 0.29446363 -9.57835069 -0.28740579 0 0 Z " fill="#E75920" transform="translate(113.0625,171.75)"/>
<path d="M0 0 C4.76540363 3.14083421 8.15508593 6.73262585 10.75 11.8125 C11.5669534 17.2809358 11.49957243 22.22686601 9.125 27.25 C4.00712358 32.7719193 -0.3835874 36.36881331 -8.0625 37.25 C-13.71820338 37.08993292 -17.93785721 34.15325841 -21.828125 30.21484375 C-26.21863461 25.07996613 -26.72408732 21.63635941 -26.65234375 14.99609375 C-26.0017994 9.84858266 -23.86765005 6.46100421 -20.25 2.8125 C-14.1227192 -1.92747194 -7.19186479 -2.62779675 0 0 Z " fill="#FFF2F3" transform="translate(380.25,350.1875)"/>
<path d="M0 0 C3.12534252 1.84556865 5.47547037 4.41458943 8 7 C9.20415502 8.19559792 10.41003298 9.38946189 11.6171875 10.58203125 C15.10008703 14.03329203 18.5547368 17.51118712 22 21 C21.40445313 21.29132813 20.80890625 21.58265625 20.1953125 21.8828125 C16.63238916 23.69597277 13.1197057 25.50705907 10.6875 28.75 C9.65383015 32.13291951 9.35188434 35.48115657 9 39 C8.7635376 38.43176514 8.5270752 37.86353027 8.28344727 37.27807617 C6.71124542 34.48747024 4.81571975 32.72587789 2.46484375 30.55078125 C1.12776367 29.27750977 1.12776367 29.27750977 -0.23632812 27.97851562 C-2.11280083 26.2083807 -4.00080963 24.4503917 -5.90039062 22.70507812 C-10.73572117 18.05881916 -14.07170077 14.80444335 -14.30761719 7.89916992 C-13.80091372 4.77087922 -12.28529398 3.08941163 -10 1 C-6.68449624 -0.65775188 -3.55841262 -0.72439114 0 0 Z " fill="#FEC145" transform="translate(342,113)"/>
<path d="M0 0 C5.61138848 2.80569424 8.26353952 4.52707905 11 10 C11.97122552 23.52244756 11.97122552 23.52244756 8 29 C3.78947368 33.73684211 3.78947368 33.73684211 0 35 C0 23.45 0 11.9 0 0 Z " fill="#03D684" transform="translate(168,396)"/>
<path d="M0 0 C1.12894876 0.93274109 2.25300876 1.87140122 3.375 2.8125 C4.00148438 3.33457031 4.62796875 3.85664063 5.2734375 4.39453125 C8.24296053 7.15578456 8.97907289 8.81464562 9.4375 12.875 C9.36531284 16.43842075 9.02871942 16.96447861 6.625 19.9375 C3.9568571 22.03389799 2.66489519 22.8733533 -0.625 23.5 C-5.67672391 22.75159646 -8.55802605 19.63091285 -12 16 C-12.33 15.34 -12.66 14.68 -13 14 C-12.07767578 13.67128906 -12.07767578 13.67128906 -11.13671875 13.3359375 C-5.756075 11.25083068 -5.756075 11.25083068 -2 7 C-1.22227595 4.66682784 -0.57584432 2.38564077 0 0 Z " fill="#FEC046" transform="translate(378,149)"/>
<path d="M0 0 C0.33 0 0.66 0 1 0 C1 7.92 1 15.84 1 24 C-2.78569143 22.10715429 -3.96303279 21.47592569 -6 18 C-6.92030942 12.97560803 -6.5357355 9.0000396 -4.125 4.5 C-2 2 -2 2 0 0 Z " fill="#11D88B" transform="translate(147,341)"/>
</svg>
