<?xml version="1.0" encoding="UTF-8"?>
<svg version="1.1" xmlns="http://www.w3.org/2000/svg" width="512" height="512">
<path d="M0 0 C1.30930147 0.58677127 2.61985162 1.17076428 3.93164062 1.75195312 C5.86308809 2.60827546 7.79331941 3.46649881 9.71847534 4.33688354 C15.82075044 7.08777472 22.03554331 9.4866426 28.3125 11.8125 C29.034375 11.049375 29.75625 10.28625 30.5 9.5 C35.3457003 4.86966416 39.65543316 2.70708129 46.32847595 2.66532898 C47.11767929 2.65817368 47.90688263 2.65101837 48.72000122 2.64364624 C50.00510086 2.63961288 50.00510086 2.63961288 51.31616211 2.63549805 C52.22555038 2.62892685 53.13493866 2.62235565 54.07188416 2.61558533 C57.07787155 2.59589158 60.08380917 2.58420074 63.08984375 2.57421875 C64.11699556 2.57014322 65.14414738 2.5660677 66.202425 2.56186867 C71.63519209 2.54102839 77.06793404 2.52671573 82.50073242 2.51733398 C88.11428549 2.50625146 93.72744415 2.47182438 99.34085751 2.43216228 C103.65683233 2.40604204 107.97271231 2.39764641 112.28875923 2.39405251 C114.35843137 2.38917759 116.42809903 2.37753796 118.49769402 2.35901451 C121.39193127 2.33471267 124.2851357 2.33557133 127.17944336 2.3425293 C128.03415222 2.32971924 128.88886108 2.31690918 129.76947021 2.30371094 C133.77618127 2.33883853 135.82878861 2.51634261 139.32081604 4.65437317 C141.3125 6.8125 141.3125 6.8125 142.3125 9.8125 C148.5825 10.1425 154.8525 10.4725 161.3125 10.8125 C161.6425 9.1625 161.9725 7.5125 162.3125 5.8125 C164.42628936 3.64239824 165.75612659 2.90106966 168.75097656 2.42431641 C169.64268555 2.42093262 170.53439453 2.41754883 171.453125 2.4140625 C172.93619141 2.40826172 172.93619141 2.40826172 174.44921875 2.40234375 C175.99029297 2.41974609 175.99029297 2.41974609 177.5625 2.4375 C178.57441406 2.42589844 179.58632813 2.41429687 180.62890625 2.40234375 C187.76306056 2.43010311 193.86398254 2.94073808 199.5546875 7.6796875 C200.09351563 8.34226562 200.63234375 9.00484375 201.1875 9.6875 C201.74179687 10.34492188 202.29609375 11.00234375 202.8671875 11.6796875 C206.51542023 17.06329579 206.59160755 21.79988257 206.53955078 28.10083008 C206.53984283 29.02814941 206.54013489 29.95546875 206.54043579 30.91088867 C206.53904535 33.96803224 206.52349749 37.02493039 206.5078125 40.08203125 C206.50408136 42.2048072 206.50123486 44.32758487 206.49923706 46.45036316 C206.4916086 52.03169528 206.47196679 57.61292295 206.4498291 63.19421387 C206.42935376 68.89183133 206.42023173 74.58946571 206.41015625 80.28710938 C206.38872023 91.46228542 206.35459371 102.63738402 206.3125 113.8125 C207.00011414 113.87199829 207.68772827 113.93149658 208.3961792 113.99279785 C209.74839569 114.11721252 209.74839569 114.11721252 211.12792969 114.24414062 C212.02179382 114.32426392 212.91565796 114.40438721 213.83660889 114.48693848 C219.65733535 115.25232132 224.35410116 118.61941701 228.203125 122.9296875 C237.87303245 136.49572271 233.10008905 152.01638362 230.69213867 167.35595703 C230.42229209 169.09512289 230.15278568 170.83434156 229.8835907 172.5736084 C229.15630392 177.26417992 228.42342122 181.95385941 227.68881774 186.64329004 C227.2291483 189.5787449 226.770547 192.51436471 226.31228065 195.45003891 C224.71093349 205.70686625 223.10445828 215.96287747 221.49389648 226.21826172 C219.99631642 235.75526077 218.51094269 245.29410858 217.03100413 254.83385956 C215.75611382 263.04782893 214.47207661 271.2603357 213.18110639 279.47179306 C212.41184636 284.36603767 211.64635821 289.26079904 210.89034081 294.15710831 C210.17931462 298.76025537 209.45689019 303.36147278 208.72587776 307.96148682 C208.46056401 309.64338271 208.19924934 311.32591542 207.94237518 313.00912094 C204.18516805 337.58329605 204.18516805 337.58329605 194.4375 345 C188.38139446 348.51254121 183.25947936 349.10159265 176.42874146 349.05300903 C175.104106 349.05557231 175.104106 349.05557231 173.75271022 349.05818737 C170.80006354 349.06147592 167.8476452 349.05048897 164.89501953 349.03955078 C162.77593491 349.03898653 160.6568499 349.0393035 158.5377655 349.04043579 C152.78826991 349.04100976 147.03885771 349.02924818 141.2893815 349.01528788 C135.27958505 349.00278798 129.2697867 349.0016106 123.25997925 348.99923706 C111.88101033 348.99302012 100.50207982 348.97660638 89.12312782 348.95653808 C76.16798055 348.93418576 63.21283144 348.92318732 50.25766969 348.91314721 C23.60925849 348.89224037 -3.0391186 348.8570602 -29.6875 348.8125 C-28.3048551 353.58281536 -26.91719233 358.35163139 -25.52490234 363.11914062 C-25.05217227 364.74048488 -24.58080487 366.3622271 -24.11083984 367.984375 C-23.43426453 370.31877438 -22.75276765 372.65168877 -22.0703125 374.984375 C-21.86189728 375.70743835 -21.65348206 376.43050171 -21.43875122 377.17547607 C-19.90846231 383.61178643 -19.90846231 383.61178643 -15.54864693 388.04677773 C-11.97249916 389.00385406 -8.58164079 389.08780557 -4.90914917 389.0640564 C-4.13267977 389.06702654 -3.35621037 389.06999667 -2.55621159 389.07305682 C0.0421908 389.08068717 2.64036651 389.07420666 5.23876953 389.06787109 C7.10341037 389.07062153 8.96805004 389.07430175 10.83268738 389.07884216 C14.84759224 389.08695283 18.86244141 389.0891229 22.87735367 389.08689499 C29.23215528 389.08406048 35.58684582 389.09842021 41.94161987 389.11587524 C60.01216965 389.16288538 78.08271211 389.18683392 96.15332031 389.19335938 C106.13413456 389.19711567 116.11482332 389.21519255 126.0955838 389.24845374 C132.40577492 389.26862368 138.71564139 389.27105919 145.02585149 389.26017356 C148.9630151 389.25755707 152.89999175 389.27161666 156.8371067 389.29025459 C158.6546733 389.29555455 160.47227481 389.29411762 162.28982735 389.28521919 C184.39085018 389.18579715 184.39085018 389.18579715 193.25 397 C199.43792828 404.03579346 200.76018114 410.54450127 200.6484375 419.796875 C200.3125 422.8125 200.3125 422.8125 199.2265625 425.453125 C198.13571864 428.26880745 198.20938318 429.03938689 199.3125 431.8125 C200.75107376 434.77074358 202.24935299 437.68363929 203.78515625 440.59179688 C208.99599789 450.69734124 209.04162893 464.49513825 205.75 475.3125 C200.82340082 487.7840308 191.88160387 497.01996851 179.8671875 502.8046875 C168.15081153 507.42674408 153.74030932 507.8360927 141.94921875 503.1328125 C128.60822164 496.45243172 120.51878524 486.71994709 115.3125 472.8125 C114.10439579 468.40219184 114.12897161 463.9810193 114.125 459.4375 C114.11275391 458.70789063 114.10050781 457.97828125 114.08789062 457.2265625 C114.0749075 452.37952885 114.77714736 448.41248934 116.3125 443.8125 C115.14332031 443.77511719 113.97414063 443.73773438 112.76953125 443.69921875 C111.22132325 443.6335372 109.67314758 443.56709061 108.125 443.5 C107.35607422 443.47744141 106.58714844 443.45488281 105.79492188 443.43164062 C101.27645987 443.21832268 97.85020953 442.92431051 94.3125 439.8125 C93.9825 438.1625 93.6525 436.5125 93.3125 434.8125 C87.0425 434.8125 80.7725 434.8125 74.3125 434.8125 C73.6525 436.4625 72.9925 438.1125 72.3125 439.8125 C67.79123814 443.99775676 62.11009045 443.19294512 56.32421875 443.10546875 C54.73671562 443.09910149 54.73671562 443.09910149 53.11714172 443.09260559 C49.74449988 443.07584362 46.37246055 443.03819512 43 443 C40.7102951 442.98494999 38.42058082 442.97126214 36.13085938 442.95898438 C30.5245348 442.92594823 24.91856046 442.87577317 19.3125 442.8125 C19.63557129 443.87637939 19.95864258 444.94025879 20.29150391 446.03637695 C23.6389866 458.41694004 22.0861288 472.36589775 15.8046875 483.48046875 C8.24523589 495.10092808 -2.19360585 502.62430532 -15.6875 505.8125 C-30.62553429 507.35183793 -43.15964176 505.34663549 -55.21484375 495.9453125 C-64.42019349 488.005153 -70.57887982 478.05345544 -71.90844727 465.77148438 C-72.67492688 452.19291554 -70.39658276 440.65987418 -61.6875 429.8125 C-60.74897094 428.83476346 -59.79279204 427.87335954 -58.8125 426.9375 C-58.11125 426.23625 -57.41 425.535 -56.6875 424.8125 C-56.6875 420.95937263 -57.79310167 420.27772059 -60.3125 417.4375 C-68.07864004 408.01259978 -71.63536103 396.68550494 -74.9453125 385.09375 C-75.32917097 383.77760804 -75.713929 382.46172818 -76.09950256 381.14608765 C-77.13318517 377.60970204 -78.15437158 374.06982171 -79.17321396 370.52913666 C-80.26073866 366.75829393 -81.3602125 362.99093599 -82.45825195 359.22314453 C-84.52718159 352.11715944 -86.58576263 345.00822385 -88.63975811 337.89790916 C-90.1891339 332.53486153 -91.74173665 327.17276123 -93.29736328 321.81152344 C-93.5090855 321.08185175 -93.72080772 320.35218006 -93.93894577 319.60039711 C-94.57513558 317.40806359 -95.21139296 315.21574969 -95.84765625 313.0234375 C-98.35350447 304.38856298 -100.85715255 295.75307368 -103.35107422 287.11474609 C-107.22497227 273.7016969 -111.12242736 260.29672735 -115.10239601 246.91471481 C-115.71550984 244.8521659 -116.32742843 242.78926653 -116.93888855 240.72622681 C-117.1364956 240.05959707 -117.33410265 239.39296734 -117.53769779 238.7061367 C-117.93043526 237.38119879 -118.32313274 236.05624903 -118.71578884 234.731287 C-120.02100956 230.33074071 -121.33986671 225.9344084 -122.66088867 221.53857422 C-123.33169203 219.27846112 -124.00204748 217.018215 -124.671875 214.7578125 C-125.13431358 213.23791718 -125.13431358 213.23791718 -125.60609436 211.68731689 C-127.10607304 206.58583302 -128.27088194 202.13829833 -127.6875 196.8125 C-126.98625 196.19375 -126.285 195.575 -125.5625 194.9375 C-123.44801879 193.04300592 -123.44801879 193.04300592 -123.796875 190.88671875 C-124.34149164 188.49783211 -125.00063314 186.16427239 -125.6875 183.8125 C-126.07434768 182.12767653 -126.44993036 180.44021434 -126.8125 178.75 C-126.98007813 177.99589844 -127.14765625 177.24179688 -127.3203125 176.46484375 C-127.44148438 175.91957031 -127.56265625 175.37429687 -127.6875 174.8125 C-128.615625 174.709375 -129.54375 174.60625 -130.5 174.5 C-133.89149674 173.7685007 -134.5852865 173.40216868 -136.6875 170.8125 C-137.56056213 168.82829285 -137.56056213 168.82829285 -138.26782227 166.53979492 C-138.67350685 165.24855461 -138.67350685 165.24855461 -139.08738708 163.93122864 C-139.36921341 162.99872787 -139.65103973 162.06622711 -139.94140625 161.10546875 C-140.24317276 160.13127487 -140.54493927 159.15708099 -140.85585022 158.15336609 C-143.93128997 148.16395619 -146.87757727 138.13536801 -149.76977539 128.09155273 C-150.64406776 125.05885888 -151.52596219 122.02843683 -152.40820312 118.99804688 C-152.96919995 117.05742168 -153.52976437 115.11667142 -154.08984375 113.17578125 C-154.48344337 111.82604973 -154.48344337 111.82604973 -154.88499451 110.4490509 C-155.12267044 109.61935287 -155.36034637 108.78965485 -155.60522461 107.93481445 C-155.81505478 107.20841263 -156.02488495 106.4820108 -156.24107361 105.7335968 C-156.6875 103.8125 -156.6875 103.8125 -156.6875 100.8125 C-159.85571343 100.8355827 -163.02044054 100.91326171 -166.1875 101 C-167.074375 101.00580078 -167.96125 101.01160156 -168.875 101.01757812 C-174.63473319 101.20815753 -178.30361799 102.22766806 -182.99536133 105.61914062 C-189.15003431 109.95964582 -197.51016192 109.47489452 -204.6875 108.8125 C-214.33519564 106.69254583 -222.20113608 101.57456483 -228.0625 93.625 C-233.51182888 84.66927844 -234.67846273 75.00235786 -232.6875 64.8125 C-230.46585071 56.21623199 -225.70754539 49.2951034 -218.37890625 44.2109375 C-208.73507726 38.64906648 -198.97525003 37.29485765 -187.95703125 39.3125 C-184.11099377 40.47756471 -181.79063117 41.72679957 -178.63818359 44.34643555 C-174.29552173 47.45568467 -170.56242127 47.49758905 -165.3515625 47.4140625 C-164.47277435 47.42206879 -163.59398621 47.43007507 -162.68856812 47.43832397 C-159.89606931 47.46127806 -157.10503604 47.45198411 -154.3125 47.4375 C-151.52737939 47.43363312 -148.74290493 47.43726081 -145.95785522 47.45809937 C-144.23151411 47.47004247 -142.5049908 47.4677647 -140.77871704 47.44839478 C-132.18070439 47.48780383 -124.00843476 49.73273656 -117.6875 55.8125 C-113.12247655 61.59915555 -111.09766621 68.01408291 -109.13671875 75.0234375 C-108.83304886 76.07278473 -108.52937897 77.12213196 -108.21650696 78.20327759 C-107.25773567 81.52814713 -106.31649103 84.85770142 -105.375 88.1875 C-104.7243829 90.44692459 -104.07270064 92.70604275 -103.41992188 94.96484375 C-101.0440457 103.23287588 -101.0440457 103.23287588 -99.89331055 107.30615234 C-99.54286934 108.54236832 -99.54286934 108.54236832 -99.18534851 109.80355835 C-98.6875 111.8125 -98.6875 111.8125 -98.6875 113.8125 C-97.3675 113.8125 -96.0475 113.8125 -94.6875 113.8125 C-94.69749275 112.98684036 -94.69749275 112.98684036 -94.70768738 112.14450073 C-94.77419522 106.40173194 -94.81936455 100.65907305 -94.85229492 94.91601562 C-94.86735641 92.77436883 -94.88780972 90.63275276 -94.91381836 88.49121094 C-94.95031728 85.40812589 -94.96725302 82.32544962 -94.98046875 79.2421875 C-94.99595261 78.28883514 -95.01143646 77.33548279 -95.02738953 76.35324097 C-95.02907769 69.6444629 -93.88834781 65.45351737 -89.5 60.1875 C-87.02351997 58.0962502 -85.77500159 57.40470256 -82.90234375 56.29296875 C-77.38110173 53.58422138 -75.26194446 49.0032329 -72.4375 43.75 C-71.31765134 41.76288529 -70.19520215 39.77723414 -69.0703125 37.79296875 C-68.22968262 36.2932251 -68.22968262 36.2932251 -67.37207031 34.76318359 C-63.09660481 27.274303 -58.37729448 20.04658468 -53.6875 12.8125 C-53.00816406 11.75933594 -52.32882813 10.70617187 -51.62890625 9.62109375 C-47.15268507 2.93168526 -42.16611717 -3.17378986 -34.21044922 -5.71362305 C-21.3372141 -8.13155893 -11.52156837 -5.36480691 0 0 Z " fill="#020303" transform="translate(255.6875,6.1875)"/>
<path d="M0 0 C1.30930147 0.58677127 2.61985162 1.17076428 3.93164062 1.75195312 C5.86308809 2.60827546 7.79331941 3.46649881 9.71847534 4.33688354 C15.82075044 7.08777472 22.03554331 9.4866426 28.3125 11.8125 C29.034375 11.049375 29.75625 10.28625 30.5 9.5 C35.3457003 4.86966416 39.65543316 2.70708129 46.32847595 2.66532898 C47.11767929 2.65817368 47.90688263 2.65101837 48.72000122 2.64364624 C50.00510086 2.63961288 50.00510086 2.63961288 51.31616211 2.63549805 C52.22555038 2.62892685 53.13493866 2.62235565 54.07188416 2.61558533 C57.07787155 2.59589158 60.08380917 2.58420074 63.08984375 2.57421875 C64.11699556 2.57014322 65.14414738 2.5660677 66.202425 2.56186867 C71.63519209 2.54102839 77.06793404 2.52671573 82.50073242 2.51733398 C88.11428549 2.50625146 93.72744415 2.47182438 99.34085751 2.43216228 C103.65683233 2.40604204 107.97271231 2.39764641 112.28875923 2.39405251 C114.35843137 2.38917759 116.42809903 2.37753796 118.49769402 2.35901451 C121.39193127 2.33471267 124.2851357 2.33557133 127.17944336 2.3425293 C128.03415222 2.32971924 128.88886108 2.31690918 129.76947021 2.30371094 C133.77618127 2.33883853 135.82878861 2.51634261 139.32081604 4.65437317 C141.3125 6.8125 141.3125 6.8125 142.3125 9.8125 C148.5825 10.1425 154.8525 10.4725 161.3125 10.8125 C161.6425 9.1625 161.9725 7.5125 162.3125 5.8125 C164.42628936 3.64239824 165.75612659 2.90106966 168.75097656 2.42431641 C169.64268555 2.42093262 170.53439453 2.41754883 171.453125 2.4140625 C172.93619141 2.40826172 172.93619141 2.40826172 174.44921875 2.40234375 C175.99029297 2.41974609 175.99029297 2.41974609 177.5625 2.4375 C178.57441406 2.42589844 179.58632813 2.41429687 180.62890625 2.40234375 C187.76306056 2.43010311 193.86398254 2.94073808 199.5546875 7.6796875 C200.09351563 8.34226562 200.63234375 9.00484375 201.1875 9.6875 C201.74179687 10.34492188 202.29609375 11.00234375 202.8671875 11.6796875 C206.51542023 17.06329579 206.59160755 21.79988257 206.53955078 28.10083008 C206.53984283 29.02814941 206.54013489 29.95546875 206.54043579 30.91088867 C206.53904535 33.96803224 206.52349749 37.02493039 206.5078125 40.08203125 C206.50408136 42.2048072 206.50123486 44.32758487 206.49923706 46.45036316 C206.4916086 52.03169528 206.47196679 57.61292295 206.4498291 63.19421387 C206.42935376 68.89183133 206.42023173 74.58946571 206.41015625 80.28710938 C206.38872023 91.46228542 206.35459371 102.63738402 206.3125 113.8125 C207.00011414 113.87199829 207.68772827 113.93149658 208.3961792 113.99279785 C209.74839569 114.11721252 209.74839569 114.11721252 211.12792969 114.24414062 C212.02179382 114.32426392 212.91565796 114.40438721 213.83660889 114.48693848 C219.65733535 115.25232132 224.35410116 118.61941701 228.203125 122.9296875 C237.87303245 136.49572271 233.10008905 152.01638362 230.69213867 167.35595703 C230.42229209 169.09512289 230.15278568 170.83434156 229.8835907 172.5736084 C229.15630392 177.26417992 228.42342122 181.95385941 227.68881774 186.64329004 C227.2291483 189.5787449 226.770547 192.51436471 226.31228065 195.45003891 C224.71093349 205.70686625 223.10445828 215.96287747 221.49389648 226.21826172 C219.99631642 235.75526077 218.51094269 245.29410858 217.03100413 254.83385956 C215.75611382 263.04782893 214.47207661 271.2603357 213.18110639 279.47179306 C212.41184636 284.36603767 211.64635821 289.26079904 210.89034081 294.15710831 C210.17931462 298.76025537 209.45689019 303.36147278 208.72587776 307.96148682 C208.46056401 309.64338271 208.19924934 311.32591542 207.94237518 313.00912094 C204.18516805 337.58329605 204.18516805 337.58329605 194.4375 345 C188.38139446 348.51254121 183.25947936 349.10159265 176.42874146 349.05300903 C175.104106 349.05557231 175.104106 349.05557231 173.75271022 349.05818737 C170.80006354 349.06147592 167.8476452 349.05048897 164.89501953 349.03955078 C162.77593491 349.03898653 160.6568499 349.0393035 158.5377655 349.04043579 C152.78826991 349.04100976 147.03885771 349.02924818 141.2893815 349.01528788 C135.27958505 349.00278798 129.2697867 349.0016106 123.25997925 348.99923706 C111.88101033 348.99302012 100.50207982 348.97660638 89.12312782 348.95653808 C76.16798055 348.93418576 63.21283144 348.92318732 50.25766969 348.91314721 C23.60925849 348.89224037 -3.0391186 348.8570602 -29.6875 348.8125 C-28.3048551 353.58281536 -26.91719233 358.35163139 -25.52490234 363.11914062 C-25.05217227 364.74048488 -24.58080487 366.3622271 -24.11083984 367.984375 C-23.43426453 370.31877438 -22.75276765 372.65168877 -22.0703125 374.984375 C-21.86189728 375.70743835 -21.65348206 376.43050171 -21.43875122 377.17547607 C-19.90846231 383.61178643 -19.90846231 383.61178643 -15.54864693 388.04677773 C-11.97249916 389.00385406 -8.58164079 389.08780557 -4.90914917 389.0640564 C-4.13267977 389.06702654 -3.35621037 389.06999667 -2.55621159 389.07305682 C0.0421908 389.08068717 2.64036651 389.07420666 5.23876953 389.06787109 C7.10341037 389.07062153 8.96805004 389.07430175 10.83268738 389.07884216 C14.84759224 389.08695283 18.86244141 389.0891229 22.87735367 389.08689499 C29.23215528 389.08406048 35.58684582 389.09842021 41.94161987 389.11587524 C60.01216965 389.16288538 78.08271211 389.18683392 96.15332031 389.19335938 C106.13413456 389.19711567 116.11482332 389.21519255 126.0955838 389.24845374 C132.40577492 389.26862368 138.71564139 389.27105919 145.02585149 389.26017356 C148.9630151 389.25755707 152.89999175 389.27161666 156.8371067 389.29025459 C158.6546733 389.29555455 160.47227481 389.29411762 162.28982735 389.28521919 C184.39085018 389.18579715 184.39085018 389.18579715 193.25 397 C199.43792828 404.03579346 200.76018114 410.54450127 200.6484375 419.796875 C200.3125 422.8125 200.3125 422.8125 199.2265625 425.453125 C198.13571864 428.26880745 198.20938318 429.03938689 199.3125 431.8125 C200.75107376 434.77074358 202.24935299 437.68363929 203.78515625 440.59179688 C208.99599789 450.69734124 209.04162893 464.49513825 205.75 475.3125 C200.82340082 487.7840308 191.88160387 497.01996851 179.8671875 502.8046875 C168.15081153 507.42674408 153.74030932 507.8360927 141.94921875 503.1328125 C128.60822164 496.45243172 120.51878524 486.71994709 115.3125 472.8125 C114.10439579 468.40219184 114.12897161 463.9810193 114.125 459.4375 C114.11275391 458.70789063 114.10050781 457.97828125 114.08789062 457.2265625 C114.0749075 452.37952885 114.77714736 448.41248934 116.3125 443.8125 C115.14332031 443.77511719 113.97414063 443.73773438 112.76953125 443.69921875 C111.22132325 443.6335372 109.67314758 443.56709061 108.125 443.5 C107.35607422 443.47744141 106.58714844 443.45488281 105.79492188 443.43164062 C101.20325147 443.21486649 98.0527874 442.75389106 94.3125 439.8125 C92.86819145 436.92388291 92.93561494 435.01602299 93.3125 431.8125 C95.88869303 428.5397796 97.35042217 426.98241684 101.50708008 426.24829102 C102.68681396 426.27076904 103.86654785 426.29324707 105.08203125 426.31640625 C106.38333984 426.31447266 107.68464844 426.31253906 109.02539062 426.31054688 C111.07260692 426.33771257 113.11931373 426.37488098 115.16625977 426.41772461 C124.30561437 426.56881567 129.61921196 426.15356425 136.3125 419.8125 C139.140625 418.16796875 139.140625 418.16796875 141.5625 417 C142.37203125 416.60167969 143.1815625 416.20335937 144.015625 415.79296875 C152.78157888 412.05103946 166.29261192 411.97325906 175.29296875 414.89453125 C178.07333362 416.06966719 180.69460492 417.31445497 183.3125 418.8125 C183.9725 419.1425 184.6325 419.4725 185.3125 419.8125 C185.10912373 418.39190157 184.8734859 416.97590602 184.625 415.5625 C184.49738281 414.77359375 184.36976563 413.9846875 184.23828125 413.171875 C182.93118607 409.84071261 181.31683447 408.74286172 178.3125 406.8125 C175.56704713 406.43225751 173.22853061 406.28084412 170.48945618 406.32043457 C169.70819766 406.31575558 168.92693914 406.31107659 168.12200612 406.30625582 C165.50718874 406.29533329 162.89333614 406.31280705 160.27856445 406.33007812 C158.40244767 406.32789198 156.52633226 406.32389481 154.65022278 406.31822205 C150.61068399 406.30965593 146.57141086 406.31344282 142.53188515 406.3266449 C136.13951042 406.34698095 129.74740345 406.33700348 123.35502625 406.3223877 C108.62536785 406.29334591 93.8957879 406.30407232 79.16611481 406.31508636 C65.67880888 406.3247672 52.19164278 406.32599817 38.70436066 406.29520559 C32.35538204 406.28185469 26.00680534 406.28776086 19.65785086 406.30857086 C15.69890742 406.31758136 11.74011756 406.31006025 7.78118706 406.29815865 C5.95190023 406.29603474 4.12259026 406.30070862 2.29334259 406.3128643 C-9.4991216 406.38677745 -20.1137376 406.05956901 -29.17675781 397.55078125 C-34.67111589 391.22889543 -36.97806908 383.4310002 -39.125 375.5 C-39.71621115 373.38116494 -40.30868113 371.26268076 -40.90234375 369.14453125 C-41.19608887 368.08830566 -41.48983398 367.03208008 -41.79248047 365.94384766 C-42.64845091 362.94911856 -43.56047592 359.9799232 -44.50390625 357.01171875 C-44.78758057 356.11171143 -45.07125488 355.2117041 -45.36352539 354.28442383 C-45.89873332 352.59760702 -46.44299454 350.91362636 -46.99780273 349.2331543 C-48.39802883 344.75935368 -49.16891567 341.43506557 -47.6875 336.8125 C-46.37755954 335.17147303 -46.37755954 335.17147303 -44.6875 333.8125 C-41.65062708 333.51826358 -38.81863793 333.40980836 -35.7805481 333.43395996 C-34.85862982 333.42942983 -33.93671154 333.4248997 -32.98685634 333.4202323 C-29.8844877 333.40856548 -26.78254668 333.41827264 -23.68017578 333.42773438 C-21.46127035 333.42363123 -19.24236707 333.41817189 -17.02346802 333.41145325 C-12.23856339 333.39970719 -7.45377417 333.39725144 -2.66885757 333.40180969 C4.89392771 333.40860196 12.45656031 333.39278116 20.01931763 333.37341309 C30.62013952 333.34838344 41.22093172 333.33165866 51.82177734 333.32373047 C52.49464823 333.32322329 53.16751911 333.32271611 53.86078002 333.32219356 C58.63635316 333.31866674 63.41192653 333.31553755 68.1875 333.3125 C73.63916037 333.30903175 79.09082054 333.30538245 84.54248047 333.30126953 C85.21392628 333.30076692 85.8853721 333.3002643 86.57716475 333.29974645 C97.77234224 333.2910028 108.96747534 333.27044371 120.16262066 333.24178743 C127.68370309 333.22339783 135.204612 333.2195509 142.72571158 333.22672272 C147.40221649 333.22824202 152.07863421 333.21747662 156.75511551 333.20334435 C158.92674176 333.19933352 161.09838446 333.20048056 163.27000427 333.20711708 C166.23074401 333.21547131 169.19087779 333.2055393 172.15158081 333.19104004 C173.01432456 333.19793397 173.87706831 333.20482791 174.76595581 333.21193075 C179.41702159 333.16744976 182.57315711 332.89194112 186.3125 329.8125 C188.90749976 324.98899247 190.01806132 320.21096312 190.875 314.8125 C191.0615918 313.6994751 191.0615918 313.6994751 191.25195312 312.56396484 C192.22680108 306.64037446 193.02353254 300.69670012 193.78515625 294.7421875 C194.7068848 287.87360293 195.83040734 281.03677051 196.93017578 274.19482422 C197.5221933 270.50586702 198.10511269 266.81548787 198.6875 263.125 C198.80601318 262.37508789 198.92452637 261.62517578 199.04663086 260.85253906 C200.3112829 252.84065805 201.56137385 244.82650146 202.8125 236.8125 C204.52143094 225.86606186 206.236782 214.92069321 207.96972656 203.97802734 C208.58519426 200.08970935 209.19870052 196.20108162 209.8125 192.3125 C210.06249165 190.72916535 210.31249163 189.14583201 210.5625 187.5625 C210.68625 186.77875 210.81 185.995 210.9375 185.1875 C212.0625 178.0625 212.0625 178.0625 212.43823242 175.68481445 C212.68659435 174.11055947 212.93416048 172.53617872 213.1809082 170.96166992 C213.82430879 166.86301707 214.48376917 162.76783591 215.16796875 158.67578125 C215.3071875 157.83015625 215.44640625 156.98453125 215.58984375 156.11328125 C215.85419438 154.50955412 216.12335997 152.90660957 216.3984375 151.3046875 C217.78841677 142.82392549 217.78841677 142.82392549 216.5625 134.4375 C214.98148375 132.38217888 213.71756872 131.78434326 211.3125 130.8125 C208.72277954 130.51453822 208.72277954 130.51453822 205.86795139 130.56196022 C204.7553509 130.55696152 203.64275041 130.55196283 202.49643475 130.54681265 C200.66304536 130.55380747 200.66304536 130.55380747 198.7926178 130.5609436 C197.49415828 130.55797346 196.19569876 130.55500333 194.85789198 130.55194318 C191.25084738 130.54389249 187.64390628 130.54821498 184.03686202 130.55446196 C180.14790346 130.55899003 176.25896481 130.55195857 172.37001038 130.54615784 C165.63003392 130.53751928 158.89008371 130.53571803 152.15010262 130.53810501 C142.39973405 130.54119962 132.64942366 130.52957462 122.89906972 130.51355521 C107.0730992 130.48758375 91.24712865 130.46756953 75.42114258 130.45410156 C74.47370064 130.45329119 73.5262587 130.45248082 72.5501064 130.4516459 C59.10151955 130.4404219 45.65293684 130.43514278 32.20434593 130.43225877 C31.25720719 130.43205478 30.31006844 130.43185079 29.33422852 130.43164062 C28.38824183 130.43144069 27.44225515 130.43124075 26.4676022 130.43103476 C10.70261689 130.4273041 -5.06230538 130.40823471 -20.82725912 130.37654626 C-30.55478274 130.35761196 -40.28214483 130.35168225 -50.00968183 130.36236344 C-56.67318154 130.36867399 -63.33656526 130.36066628 -70.00003951 130.34130932 C-73.84676229 130.3306078 -77.69320357 130.32650858 -81.53992462 130.33978081 C-85.70706494 130.35401453 -89.87351557 130.33754512 -94.04063416 130.31802368 C-95.87067746 130.33171067 -95.87067746 130.33171067 -97.73769134 130.34567416 C-105.90588673 130.27086166 -105.90588673 130.27086166 -109.90923405 127.92317772 C-111.86235305 125.60496162 -112.67975118 123.93559876 -113.4609375 121.015625 C-113.72487305 120.06824463 -113.98880859 119.12086426 -114.26074219 118.14477539 C-114.52532227 117.12762451 -114.78990234 116.11047363 -115.0625 115.0625 C-115.6584051 112.89961581 -116.25477312 110.73685911 -116.8515625 108.57421875 C-117.30257324 106.90431885 -117.30257324 106.90431885 -117.76269531 105.20068359 C-119.25344118 99.73907558 -120.84705556 94.30823763 -122.4375 88.875 C-122.71899902 87.90014648 -123.00049805 86.92529297 -123.29052734 85.92089844 C-123.82466272 84.07929395 -124.36615589 82.23980289 -124.91601562 80.40283203 C-125.4243334 78.69610685 -125.91316028 76.98343686 -126.38085938 75.26513672 C-126.61095703 74.47510254 -126.84105469 73.68506836 -127.078125 72.87109375 C-127.26922852 72.18200928 -127.46033203 71.4929248 -127.65722656 70.78295898 C-129.18539724 67.86024202 -130.89690675 66.55742651 -133.6875 64.8125 C-137.15951124 64.17457191 -137.15951124 64.17457191 -140.95703125 64.203125 C-141.63803391 64.18658875 -142.31903656 64.17005249 -143.02067566 64.15301514 C-145.18054371 64.10470697 -147.33970875 64.0832049 -149.5 64.0625 C-150.97073817 64.03432556 -152.44144383 64.00439606 -153.91210938 63.97265625 C-157.50375414 63.89895604 -161.09526571 63.84927515 -164.6875 63.8125 C-164.3575 64.4725 -164.0275 65.1325 -163.6875 65.8125 C-163.58916064 68.28255337 -163.54846919 70.71807661 -163.5625 73.1875 C-163.55863281 73.86039062 -163.55476563 74.53328125 -163.55078125 75.2265625 C-163.55735359 78.56530945 -163.65640997 81.62103085 -164.6875 84.8125 C-163.59050781 84.76609375 -162.49351562 84.7196875 -161.36328125 84.671875 C-159.9088815 84.6343421 -158.45445217 84.59794357 -157 84.5625 C-156.27876953 84.52898437 -155.55753906 84.49546875 -154.81445312 84.4609375 C-151.31299688 84.39698396 -149.07707449 84.62611109 -145.87890625 86.15625 C-142.55615184 90.18383111 -141.6120983 94.56647735 -140.3125 99.5625 C-139.71140929 101.74492166 -139.10983339 103.92720974 -138.5078125 106.109375 C-138.05583496 107.78290039 -138.05583496 107.78290039 -137.59472656 109.49023438 C-136.19446861 114.617982 -134.68866996 119.71358226 -133.1875 124.8125 C-132.61160766 126.7915586 -132.03608896 128.77072596 -131.4609375 130.75 C-130.23292548 134.96347013 -128.98515871 139.17056803 -127.7265625 143.375 C-127.40623047 144.45265625 -127.08589844 145.5303125 -126.75585938 146.640625 C-126.14508714 148.694236 -125.52951042 150.74642673 -124.90820312 152.796875 C-120.70852221 166.97202176 -120.70852221 166.97202176 -123.25 171.75 C-126.18204447 174.2309607 -127.86744479 174.73291552 -131.6875 174.8125 C-134.42656168 173.88589178 -135.44304123 173.27506726 -136.80865479 170.69104004 C-137.24029938 169.37927795 -137.24029938 169.37927795 -137.68066406 168.04101562 C-138.01134888 167.04948486 -138.34203369 166.0579541 -138.68273926 165.03637695 C-139.18009583 163.44055786 -139.18009583 163.44055786 -139.6875 161.8125 C-140.01810425 160.75442139 -140.3487085 159.69634277 -140.68933105 158.60620117 C-141.75014381 155.12982431 -142.7778931 151.6451103 -143.796875 148.15625 C-144.16854797 146.89155884 -144.54022095 145.62686768 -144.92315674 144.32385254 C-145.70192828 141.67231093 -146.4781154 139.02003061 -147.25244141 136.3671875 C-148.24474171 132.9684743 -149.24399458 129.57184968 -150.24517441 126.1757431 C-151.20376595 122.92037265 -152.15628532 119.66323555 -153.109375 116.40625 C-153.46868103 115.18756226 -153.82798706 113.96887451 -154.19818115 112.71325684 C-154.52562317 111.58778442 -154.85306519 110.46231201 -155.19042969 109.30273438 C-155.48036804 108.31221069 -155.7703064 107.32168701 -156.06903076 106.30114746 C-156.6875 103.8125 -156.6875 103.8125 -156.6875 100.8125 C-159.85571343 100.8355827 -163.02044054 100.91326171 -166.1875 101 C-167.074375 101.00580078 -167.96125 101.01160156 -168.875 101.01757812 C-174.63473319 101.20815753 -178.30361799 102.22766806 -182.99536133 105.61914062 C-189.15003431 109.95964582 -197.51016192 109.47489452 -204.6875 108.8125 C-214.33519564 106.69254583 -222.20113608 101.57456483 -228.0625 93.625 C-233.51182888 84.66927844 -234.67846273 75.00235786 -232.6875 64.8125 C-230.46585071 56.21623199 -225.70754539 49.2951034 -218.37890625 44.2109375 C-208.73507726 38.64906648 -198.97525003 37.29485765 -187.95703125 39.3125 C-184.11099377 40.47756471 -181.79063117 41.72679957 -178.63818359 44.34643555 C-174.29552173 47.45568467 -170.56242127 47.49758905 -165.3515625 47.4140625 C-164.47277435 47.42206879 -163.59398621 47.43007507 -162.68856812 47.43832397 C-159.89606931 47.46127806 -157.10503604 47.45198411 -154.3125 47.4375 C-151.52737939 47.43363312 -148.74290493 47.43726081 -145.95785522 47.45809937 C-144.23151411 47.47004247 -142.5049908 47.4677647 -140.77871704 47.44839478 C-132.18070439 47.48780383 -124.00843476 49.73273656 -117.6875 55.8125 C-113.12247655 61.59915555 -111.09766621 68.01408291 -109.13671875 75.0234375 C-108.83304886 76.07278473 -108.52937897 77.12213196 -108.21650696 78.20327759 C-107.25773567 81.52814713 -106.31649103 84.85770142 -105.375 88.1875 C-104.7243829 90.44692459 -104.07270064 92.70604275 -103.41992188 94.96484375 C-101.0440457 103.23287588 -101.0440457 103.23287588 -99.89331055 107.30615234 C-99.54286934 108.54236832 -99.54286934 108.54236832 -99.18534851 109.80355835 C-98.6875 111.8125 -98.6875 111.8125 -98.6875 113.8125 C-97.3675 113.8125 -96.0475 113.8125 -94.6875 113.8125 C-94.69749275 112.98684036 -94.69749275 112.98684036 -94.70768738 112.14450073 C-94.77419522 106.40173194 -94.81936455 100.65907305 -94.85229492 94.91601562 C-94.86735641 92.77436883 -94.88780972 90.63275276 -94.91381836 88.49121094 C-94.95031728 85.40812589 -94.96725302 82.32544962 -94.98046875 79.2421875 C-94.99595261 78.28883514 -95.01143646 77.33548279 -95.02738953 76.35324097 C-95.02907769 69.6444629 -93.88834781 65.45351737 -89.5 60.1875 C-87.02351997 58.0962502 -85.77500159 57.40470256 -82.90234375 56.29296875 C-77.38110173 53.58422138 -75.26194446 49.0032329 -72.4375 43.75 C-71.31765134 41.76288529 -70.19520215 39.77723414 -69.0703125 37.79296875 C-68.22968262 36.2932251 -68.22968262 36.2932251 -67.37207031 34.76318359 C-63.09660481 27.274303 -58.37729448 20.04658468 -53.6875 12.8125 C-53.00816406 11.75933594 -52.32882813 10.70617187 -51.62890625 9.62109375 C-47.15268507 2.93168526 -42.16611717 -3.17378986 -34.21044922 -5.71362305 C-21.3372141 -8.13155893 -11.52156837 -5.36480691 0 0 Z " fill="#010101" transform="translate(255.6875,6.1875)"/>
<path d="M0 0 C4.30670879 -0.1152211 8.60801292 -0.21459816 12.91503906 -0.2746582 C14.37778907 -0.29970529 15.84041512 -0.33375392 17.30273438 -0.37719727 C19.41307219 -0.43829356 21.52174752 -0.46630435 23.6328125 -0.48828125 C24.90012207 -0.51446533 26.16743164 -0.54064941 27.47314453 -0.56762695 C32.13705259 0.18300203 33.68942024 1.68911148 37 5 C38.25 7.375 38.25 7.375 39 10 C39.31066406 11.04800781 39.62132812 12.09601563 39.94140625 13.17578125 C40.29074219 14.43777344 40.64007813 15.69976562 41 17 C41.46580351 18.61896361 41.93337561 20.23741901 42.40234375 21.85546875 C43.43988477 25.45029627 44.46656597 29.04797425 45.484375 32.6484375 C46.86830911 37.54150734 48.26599082 42.43021125 49.6875 47.3125 C49.87755615 47.97467529 50.0676123 48.63685059 50.26342773 49.3190918 C52.42288385 58.30834916 52.42288385 58.30834916 58 65 C60.48601558 65.30157823 60.48601558 65.30157823 63.32150078 65.25333309 C64.98741494 65.26175619 64.98741494 65.26175619 66.68698394 65.27034944 C68.5247426 65.2643778 68.5247426 65.2643778 70.39962769 65.25828552 C71.69723278 65.26196123 72.99483788 65.26563693 74.33176434 65.26942402 C77.94106352 65.27943037 81.55026581 65.27702487 85.15957236 65.27269709 C89.0492339 65.27022587 92.93886964 65.27928272 96.82852173 65.28707886 C103.57124139 65.29913649 110.31393739 65.30423245 117.05666733 65.30496025 C126.81103357 65.30628436 136.56534226 65.32138253 146.31968822 65.34045542 C162.15175769 65.37131467 177.98382862 65.39547204 193.81591797 65.41333008 C194.76392541 65.41440276 195.71193285 65.41547544 196.68866779 65.41658062 C207.265385 65.42840068 217.84210278 65.43860567 228.41882324 65.44702148 C232.25366212 65.45009534 236.08850099 65.45318413 239.92333984 65.45629883 C241.34271395 65.45744684 241.34271395 65.45744684 242.79076229 65.45861804 C258.56022859 65.4716928 274.32965329 65.49632328 290.09908879 65.53004223 C299.83035783 65.55035109 309.56153794 65.56061903 319.29282834 65.55805302 C325.95959262 65.5570191 332.62628657 65.56663632 339.29302631 65.58469205 C343.14172203 65.59475167 346.99026214 65.59984959 350.83896637 65.59192467 C355.00825381 65.58344158 359.17714292 65.59794867 363.34640503 65.61473083 C365.17747152 65.60541311 365.17747152 65.60541311 367.04552925 65.59590715 C368.71926665 65.60824187 368.71926665 65.60824187 370.42681694 65.62082577 C371.38930064 65.62164022 372.35178434 65.62245468 373.34343421 65.62329382 C377.12920405 66.16012333 379.95215674 67.65277295 382.3125 70.6875 C384.41742001 77.76768549 382.39050593 85.54853158 381.125 92.625 C380.75271122 94.77713737 380.38160933 96.9294804 380.01171875 99.08203125 C379.83431152 100.10893066 379.6569043 101.13583008 379.47412109 102.19384766 C378.72440332 106.63115767 378.1074354 111.08121371 377.4921875 115.5390625 C376.53828289 122.24667744 375.44532431 128.93321108 374.37792969 135.62353516 C374.03273951 137.79413023 373.69110191 139.96523364 373.3515625 142.13671875 C372.10898513 150.07324055 370.83897246 158.0049904 369.546875 165.93359375 C369.35029045 167.14103241 369.35029045 167.14103241 369.1497345 168.37286377 C368.48724274 172.4414117 367.82333277 176.50971897 367.15698242 180.57763672 C365.83207898 188.69158125 364.57262487 196.80811231 363.43139648 204.95043945 C362.85331482 209.03692396 362.21611144 213.11252646 361.5625 217.1875 C361.30329894 218.8137883 361.04418698 220.44009081 360.78515625 222.06640625 C360.65512207 222.88125488 360.52508789 223.69610352 360.39111328 224.53564453 C359.87786717 227.76954356 359.37570667 231.00512633 358.87329102 234.24072266 C358.50303318 236.60562653 358.1235835 238.96890065 357.7421875 241.33203125 C357.23574333 244.47132737 356.76720017 247.61342753 356.3203125 250.76171875 C356.08913573 252.27873648 355.85738845 253.79566741 355.625 255.3125 C355.53541016 255.99973145 355.44582031 256.68696289 355.35351562 257.39501953 C354.5071851 262.69247038 352.69979626 265.30579255 349 269 C345.02575965 270.32474678 341.22280582 270.13965144 337.07958984 270.13130188 C336.15626043 270.13341759 335.23293102 270.13553331 334.28162193 270.13771313 C331.17471534 270.14372475 328.06784922 270.14271216 324.9609375 270.1418457 C322.73878917 270.14487635 320.51664147 270.14839754 318.29449463 270.15237427 C313.5030714 270.16026966 308.71165563 270.16541053 303.92022705 270.16866493 C296.34962677 270.17456556 288.77907372 270.19109588 281.20849609 270.21000671 C278.6190491 270.21634417 276.02960208 270.22266979 273.44015503 270.22898388 C272.14332668 270.23214969 270.84649834 270.2353155 269.51037216 270.23857725 C262.80053708 270.25460845 256.09069965 270.26928446 249.38085938 270.28295898 C248.70746387 270.28433486 248.03406837 270.28571073 247.34026694 270.28712829 C236.42052337 270.30907239 225.50079138 270.31981813 214.58102965 270.32732973 C203.37453744 270.33539407 192.16814407 270.35892605 180.96170235 270.3952834 C174.66767866 270.41509595 168.37382984 270.42743138 162.07977295 270.42244911 C156.16343867 270.41782282 150.24743642 270.43149719 144.33116913 270.45946121 C142.15548543 270.46640671 139.97976764 270.46646379 137.80408478 270.45926094 C134.842459 270.45044358 131.88194513 270.46595035 128.92041016 270.48774719 C128.05184072 270.47930466 127.18327129 270.47086212 126.28838158 270.46216375 C121.7113396 270.48314502 121.7113396 270.48314502 117.93783569 272.81570721 C115.02749787 279.59411196 119.71605381 289.07207039 121.8125 295.625 C122.54702063 297.95006398 123.28010744 300.27558143 124.01171875 302.6015625 C124.36024902 303.70918945 124.7087793 304.81681641 125.06787109 305.95800781 C126.18914981 309.61728828 127.16418311 313.29574423 128.125 317 C130.75248233 326.19050095 134.44680644 332.72771996 142.65625 337.84375 C148.09532477 340.52702689 152.95817024 341.28912324 158.97021484 341.24482727 C160.14761765 341.24822413 160.14761765 341.24822413 161.34880638 341.25168961 C163.96960003 341.25697158 166.59015572 341.24816586 169.2109375 341.23950195 C171.09368973 341.24061521 172.97644161 341.24267361 174.85919189 341.24560547 C178.90901626 341.25032353 182.95878262 341.24921194 187.00860596 341.24382973 C193.41251809 341.23621866 199.81631852 341.24687644 206.22021484 341.2610321 C224.42871543 341.29876973 242.63716518 341.31695051 260.84570312 341.30541992 C270.90559824 341.29920645 280.96531294 341.31076748 291.02516365 341.34186524 C297.3911756 341.36053391 303.75667707 341.35718767 310.12268066 341.33769763 C314.08257606 341.33082 318.04219406 341.34476465 322.00203705 341.36464691 C323.83783402 341.36969748 325.67367748 341.36620081 327.50943756 341.35351372 C330.01690467 341.3374164 332.52240649 341.35203831 335.02978516 341.3742218 C335.75527746 341.3621843 336.48076977 341.35014681 337.22824669 341.33774453 C342.87171755 341.43947867 345.17616068 343.14406033 349 347 C350.4783226 349.95664519 350.06032783 352.74229737 350 356 C346.73114279 354.93762141 343.58354124 353.81976211 340.42578125 352.453125 C335.52077105 350.61501442 330.88218324 350.50239157 325.6875 350.5625 C324.29265381 350.57603516 324.29265381 350.57603516 322.86962891 350.58984375 C313.1187569 350.83579323 306.62262482 352.71734548 299.16015625 359.109375 C292.28093233 364.18118888 285.82007577 364.00074626 277.5625 363.75 C274.89611913 363.69849723 272.23371747 363.67986495 269.56640625 363.671875 C268.40052979 363.6419043 267.23465332 363.61193359 266.03344727 363.58105469 C262.33238648 364.0922032 261.23593708 365.06721183 259 368 C258.67 368.99 258.34 369.98 258 371 C251.73 371 245.46 371 239 371 C238.34 372.65 237.68 374.3 237 376 C232.47873814 380.18525676 226.79759045 379.38044512 221.01171875 379.29296875 C219.42421562 379.28660149 219.42421562 379.28660149 217.80464172 379.28010559 C214.43199988 379.26334362 211.05996055 379.22569512 207.6875 379.1875 C205.3977951 379.17244999 203.10808082 379.15876214 200.81835938 379.14648438 C195.2120348 379.11344823 189.60606046 379.06327317 184 379 C184.32307129 380.06387939 184.64614258 381.12775879 184.97900391 382.22387695 C188.3264866 394.60444004 186.7736288 408.55339775 180.4921875 419.66796875 C172.93273589 431.28842808 162.49389415 438.81180532 149 442 C134.06196571 443.53933793 121.52785824 441.53413549 109.47265625 432.1328125 C100.26730651 424.192653 94.10862018 414.24095544 92.77905273 401.95898438 C92.01257312 388.38041554 94.29091724 376.84737418 103 366 C103.93852906 365.02226346 104.89470796 364.06085954 105.875 363.125 C106.57625 362.42375 107.2775 361.7225 108 361 C108 357.14687263 106.89439833 356.46522059 104.375 353.625 C96.60885996 344.20009978 93.05213897 332.87300494 89.7421875 321.28125 C89.35832903 319.96510804 88.973571 318.64922818 88.58799744 317.33358765 C87.55431483 313.79720204 86.53312842 310.25732171 85.51428604 306.71663666 C84.42676134 302.94579393 83.3272875 299.17843599 82.22924805 295.41064453 C80.16031841 288.30465944 78.10173737 281.19572385 76.04774189 274.08540916 C74.4983661 268.72236153 72.94576335 263.36026123 71.39013672 257.99902344 C71.1784145 257.26935175 70.96669228 256.53968006 70.74855423 255.78789711 C70.11236442 253.59556359 69.47610704 251.40324969 68.83984375 249.2109375 C66.33399553 240.57606298 63.83034745 231.94057368 61.33642578 223.30224609 C57.46252773 209.8891969 53.56507264 196.48422735 49.58510399 183.10221481 C48.97199016 181.0396659 48.36007157 178.97676653 47.74861145 176.91372681 C47.5510044 176.24709707 47.35339735 175.58046734 47.14980221 174.8936367 C46.75706474 173.56869879 46.36436726 172.24374903 45.97171116 170.918787 C44.66649044 166.51824071 43.34763329 162.1219084 42.02661133 157.72607422 C41.35580797 155.46596112 40.68545252 153.205715 40.015625 150.9453125 C39.55318642 149.42541718 39.55318642 149.42541718 39.08140564 147.87481689 C37.58142696 142.77333302 36.41661806 138.32579833 37 133 C37.70125 132.38125 38.4025 131.7625 39.125 131.125 C41.23610725 129.23486385 41.23610725 129.23486385 40.890625 127.109375 C40.33722284 124.71129895 39.69505933 122.36099517 39 120 C37.05937267 113.36049331 37.05937267 113.36049331 37 110 C39.4375 107.375 39.4375 107.375 42 105 C41.72430775 98.39828825 39.78156785 92.29208568 37.875 86 C37.23681416 83.85421573 36.59879806 81.70838098 35.9609375 79.5625 C35.63448242 78.47195312 35.30802734 77.38140625 34.97167969 76.2578125 C33.7505094 72.16351694 32.55352599 68.06245731 31.36108398 63.9597168 C30.7877482 61.98904774 30.21174474 60.01915282 29.63305664 58.05004883 C28.09145015 52.79891124 26.59157734 47.53976063 25.14453125 42.26171875 C24.83773437 41.16150391 24.5309375 40.06128906 24.21484375 38.92773438 C23.62615729 36.81381483 23.04878485 34.69670226 22.484375 32.57617188 C22.21753906 31.62677734 21.95070313 30.67738281 21.67578125 29.69921875 C21.44802002 28.86221436 21.22025879 28.02520996 20.9855957 27.1628418 C19.76028288 24.47395245 18.5429898 23.47254758 16 22 C13.17244557 21.62810278 10.58004179 21.40068908 7.75 21.3125 C5.1925 21.209375 2.635 21.10625 0 21 C0 14.07 0 7.14 0 0 Z M63 92 C62.50680113 94.13003853 62.50680113 94.13003853 63.01171875 96.23828125 C63.14884277 97.01768066 63.2859668 97.79708008 63.42724609 98.60009766 C64.36631668 102.53490748 65.51857674 106.35578682 66.8125 110.1875 C67.36342324 111.8745291 67.91289611 113.56203251 68.4609375 115.25 C68.72745117 116.06597656 68.99396484 116.88195312 69.26855469 117.72265625 C70.57887938 121.80233206 71.72355167 125.92630365 72.8828125 130.05078125 C74.32289202 135.16941288 75.82126887 140.27108877 77.3125 145.375 C77.6120459 146.40181885 77.9115918 147.4286377 78.22021484 148.48657227 C79.74035572 153.6957765 81.26498035 158.90361486 82.796875 164.109375 C85.60648935 173.67415149 88.35834334 183.24533273 90.9375 192.875 C93.4575978 202.26863671 96.26643088 211.56021618 99.1706543 220.84179688 C101.30647985 227.6756118 103.29117971 234.51036719 105.015625 241.4609375 C106.25371292 244.65441824 107.24321558 245.9287964 110 248 C113.07983979 248.39484696 115.80204287 248.54454544 118.88208008 248.5146637 C120.24279617 248.52508199 120.24279617 248.52508199 121.63100147 248.53571075 C124.67742654 248.55403951 127.72307804 248.54370005 130.76953125 248.53344727 C132.95080144 248.54050271 135.13206673 248.54924614 137.31332397 248.55955505 C143.24299854 248.58209949 149.17240684 248.57909762 155.102108 248.57023358 C160.04775343 248.56513206 164.99334845 248.57240938 169.93898869 248.57970566 C182.27020853 248.59769381 194.60128332 248.59127754 206.9324981 248.57353585 C216.97820369 248.55975101 227.02366058 248.56988214 237.06933594 248.59692383 C248.73326891 248.62820535 260.39703605 248.64271498 272.06101131 248.63312382 C278.23603795 248.6281857 284.41084652 248.63045827 290.58584595 248.65091133 C296.3906218 248.66921698 302.19487489 248.66337213 307.99962234 248.63871193 C310.13296877 248.63368805 312.26635467 248.63723439 314.39966965 248.64986038 C317.30636069 248.66570591 320.21131227 248.65092043 323.11791992 248.62818909 C323.9673306 248.64002482 324.81674128 248.65186054 325.69189167 248.66405493 C329.70917519 248.59997926 331.5576764 248.42390391 334.51251221 245.59211636 C335.90977965 243.15721921 336.59995229 241.55880435 336.94140625 238.8046875 C337.04839844 238.01634521 337.15539062 237.22800293 337.265625 236.41577148 C337.41257812 235.1580896 337.41257812 235.1580896 337.5625 233.875 C337.80246238 232.07149153 338.04337053 230.26810868 338.28515625 228.46484375 C338.40262207 227.55202637 338.52008789 226.63920898 338.64111328 225.69873047 C339.18625958 221.59937862 339.84378602 217.52022908 340.5 213.4375 C343.36521064 195.46336881 346.18154871 177.4815077 349 159.5 C350.17828274 151.98264452 351.35697107 144.46535328 352.53720093 136.94830322 C352.83803858 135.03178982 353.13868786 133.11524684 353.43911743 131.19866943 C354.91946254 121.75706777 356.41205133 112.32081486 358.08007812 102.91015625 C359.02717378 97.48177894 359.02717378 97.48177894 359 92 C357.12972515 89.75567018 355.61113596 88.30556798 353 87 C351.44137362 86.90215492 349.87860912 86.86720661 348.31692028 86.86298561 C346.82642077 86.8553738 346.82642077 86.8553738 345.30581015 86.84760821 C344.20612617 86.84711045 343.10644219 86.84661269 341.97343445 86.84609985 C340.811441 86.8417176 339.64944756 86.83733535 338.4522422 86.8328203 C335.21696121 86.82173919 331.98170755 86.81520274 328.74641192 86.81063914 C325.26096466 86.80468905 321.7755353 86.7930778 318.2901001 86.78234863 C309.86815346 86.75781216 301.44620089 86.74319625 293.0242295 86.73028857 C290.646478 86.72657773 288.2687271 86.72260442 285.89097619 86.7185359 C271.13287038 86.69330199 256.37476367 86.67124379 241.61664104 86.65880775 C238.19730819 86.65587795 234.77797536 86.6529163 231.35864258 86.64990234 C230.0838186 86.64878327 230.0838186 86.64878327 228.78324059 86.64764158 C215.00974787 86.63498276 201.2363841 86.60175329 187.46295168 86.56010051 C173.32979825 86.51770936 159.19671088 86.49411604 145.06349403 86.48888719 C137.12502727 86.48547 129.18676205 86.47367874 121.24835777 86.44078445 C114.48887202 86.41282149 107.72962911 86.40176799 100.97008999 86.41297992 C97.52023364 86.41817622 94.07088613 86.41521808 90.62110329 86.39051437 C86.88281142 86.36797525 83.14581294 86.3760486 79.40751648 86.39199829 C78.31452466 86.3781162 77.22153284 86.36423412 76.09542006 86.34993136 C70.04288431 86.41382324 66.70877606 86.68211294 63 92 Z " fill="#DCEAEF" transform="translate(91,70)"/>
<path d="M0 0 C3.24057227 2.65630553 4.65093471 4.96803113 5.875 8.9375 C6.20371094 9.99453125 6.53242188 11.0515625 6.87109375 12.140625 C7.25024865 13.42624542 7.62626499 14.71279355 8 16 C8.22445801 16.77150391 8.44891602 17.54300781 8.68017578 18.33789062 C9.96939943 22.79110193 11.23957026 27.24949782 12.5 31.7109375 C13.78432598 36.25334423 15.09912517 40.78575757 16.4375 45.3125 C18.42998195 52.05864782 20.40663839 58.80927255 22.375 65.5625 C22.67140381 66.57932861 22.96780762 67.59615723 23.27319336 68.64379883 C23.87977176 70.72491983 24.48629807 72.80605601 25.09277344 74.88720703 C26.271128 78.93026963 27.45026483 82.97310376 28.62963867 87.01586914 C29.21080559 89.00846474 29.79169666 91.00114081 30.37231445 92.99389648 C31.8373761 98.02111696 33.30689149 103.04695734 34.78515625 108.0703125 C37.59891712 117.64805516 40.35472102 127.23221698 42.9375 136.875 C45.41612142 146.11060624 48.18313023 155.241899 51.03222656 164.36938477 C53.19702979 171.3219731 55.23308827 178.29821983 57.1875 185.3125 C60.98074881 198.69918342 64.89598642 210.89598642 75 221 C77.62251873 221.19564472 77.62251873 221.19564472 80.6796875 221.01953125 C81.83726562 220.99052734 82.99484375 220.96152344 84.1875 220.93164062 C86.60722454 220.85346097 89.02658297 220.76273246 91.4453125 220.65820312 C103.84124663 220.39199088 113.18873136 224.63572235 123 232 C123.33 232.33 123.66 232.66 124 233 C125.87572542 233.10251656 127.75527425 233.13571622 129.63378906 233.1418457 C130.83884094 233.14888016 132.04389282 233.15591461 133.28546143 233.16316223 C134.59891541 233.16732651 135.91236938 233.17149078 137.265625 233.17578125 C138.61986067 233.18620075 139.97408898 233.19762249 141.32830811 233.21000671 C147.0907448 233.26251874 152.85305205 233.31042496 158.61572266 233.32592773 C162.13791415 233.33602561 165.65949854 233.36539934 169.18144989 233.40724754 C171.17380489 233.42551246 173.16631585 233.42291109 175.15875244 233.41999817 C176.98524323 233.44473457 176.98524323 233.44473457 178.84863281 233.4699707 C180.45294159 233.47877007 180.45294159 233.47877007 182.08966064 233.48774719 C185.7218596 234.1270555 187.39481361 235.43239857 190 238 C191.0625 240.9375 191.0625 240.9375 191 244 C188.89971854 247.37545234 187.79797116 248.73400961 184 250 C182.41966808 250.08705429 180.83589622 250.11767952 179.25317383 250.11352539 C178.29240433 250.11344986 177.33163483 250.11337433 176.3417511 250.11329651 C175.30729355 250.10813522 174.272836 250.10297394 173.20703125 250.09765625 C171.61528328 250.09553383 171.61528328 250.09553383 169.99137878 250.09336853 C166.59839065 250.08776606 163.20546823 250.07521314 159.8125 250.0625 C157.51367283 250.05748532 155.21484462 250.05292236 152.91601562 250.04882812 C147.27732128 250.03779583 141.63866534 250.0210553 136 250 C136.32307129 251.06387939 136.64614258 252.12775879 136.97900391 253.22387695 C140.3264866 265.60444004 138.7736288 279.55339775 132.4921875 290.66796875 C124.93273589 302.28842808 114.49389415 309.81180532 101 313 C86.06196571 314.53933793 73.52785824 312.53413549 61.47265625 303.1328125 C52.26730651 295.192653 46.10862018 285.24095544 44.77905273 272.95898438 C44.01257312 259.38041554 46.29091724 247.84737418 55 237 C55.93852906 236.02226346 56.89470796 235.06085954 57.875 234.125 C58.57625 233.42375 59.2775 232.7225 60 232 C60 228.14687263 58.89439833 227.46522059 56.375 224.625 C48.60885996 215.20009978 45.05213897 203.87300494 41.7421875 192.28125 C41.35832903 190.96510804 40.973571 189.64922818 40.58799744 188.33358765 C39.55431483 184.79720204 38.53312842 181.25732171 37.51428604 177.71663666 C36.42676134 173.94579393 35.3272875 170.17843599 34.22924805 166.41064453 C32.16031841 159.30465944 30.10173737 152.19572385 28.04774189 145.08540916 C26.4983661 139.72236153 24.94576335 134.36026123 23.39013672 128.99902344 C23.1784145 128.26935175 22.96669228 127.53968006 22.74855423 126.78789711 C22.11236442 124.59556359 21.47610704 122.40324969 20.83984375 120.2109375 C18.33399553 111.57606298 15.83034745 102.94057368 13.33642578 94.30224609 C9.46252773 80.8891969 5.56507264 67.48422735 1.58510399 54.10221481 C0.97199016 52.0396659 0.36007157 49.97676653 -0.25138855 47.91372681 C-0.4489956 47.24709707 -0.64660265 46.58046734 -0.85019779 45.8936367 C-1.24293526 44.56869879 -1.63563274 43.24374903 -2.02828884 41.918787 C-3.33350956 37.51824071 -4.65236671 33.1219084 -5.97338867 28.72607422 C-6.64419203 26.46596112 -7.31454748 24.205715 -7.984375 21.9453125 C-8.29266739 20.93204895 -8.60095978 19.9187854 -8.91859436 18.87481689 C-10.42442238 13.75343919 -11.51520691 9.34461233 -11 4 C-8.11188513 -0.5054592 -5.11821063 -0.73117295 0 0 Z " fill="#010102" transform="translate(139,199)"/>
<path d="M0 0 C3.96 0 7.92 0 12 0 C12.55312466 5.60081956 13.10439495 11.20181765 13.65405273 16.80297852 C13.84073524 18.70276651 14.02789756 20.60250742 14.21557617 22.50219727 C14.39783166 24.34759479 14.57936722 26.19306357 14.76016235 28.03860474 C14.93770344 29.84810427 15.11719518 31.65741352 15.29867554 33.46652222 C15.68049372 37.34107173 16.03547926 41.20242397 16.21142578 45.09228516 C16.26669434 46.24390137 16.32196289 47.39551758 16.37890625 48.58203125 C16.40670166 49.54987549 16.43449707 50.51771973 16.46313477 51.51489258 C17.17354829 54.80334153 18.41348914 55.88652361 21 58 C23.50955632 58.59378874 23.50955632 58.59378874 26.27172852 58.50170898 C27.32284317 58.51108994 28.37395782 58.52047089 29.45692444 58.53013611 C30.58617844 58.51890213 31.71543243 58.50766815 32.87890625 58.49609375 C34.62432961 58.4982766 34.62432961 58.4982766 36.40501404 58.50050354 C38.86370346 58.49884411 41.32240323 58.48727807 43.78100586 58.46655273 C47.55171636 58.43758285 51.32102285 58.44594693 55.09179688 58.45898438 C57.47917352 58.45274762 59.86654572 58.44435717 62.25390625 58.43359375 C63.38518448 58.43652939 64.51646271 58.43946503 65.68202209 58.44248962 C67.25396584 58.42346336 67.25396584 58.42346336 68.85766602 58.40405273 C69.78047867 58.39864975 70.70329132 58.39324677 71.65406799 58.38768005 C74.02350675 58.16033842 74.02350675 58.16033842 75.79437256 56.81158447 C77.44427577 54.33242803 77.39839961 52.57987442 77.43237305 49.6105957 C77.45216721 48.50968094 77.47196136 47.40876617 77.49235535 46.27449036 C77.49874527 45.08691635 77.50513519 43.89934235 77.51171875 42.67578125 C77.53864555 40.85097481 77.53864555 40.85097481 77.56611633 38.98930359 C77.62037397 35.09707117 77.6541655 31.20496246 77.6875 27.3125 C77.72065932 24.67641502 77.75514766 22.04034639 77.79101562 19.40429688 C77.87610974 12.93628696 77.9428477 6.46831474 78 0 C82.29 0 86.58 0 91 0 C91.02187378 2.47560425 91.02187378 2.47560425 91.04418945 5.0012207 C91.10206999 11.1122833 91.17930374 17.22297345 91.26245117 23.33374023 C91.29574872 25.98081426 91.32376542 28.62796011 91.34643555 31.27514648 C91.37989211 35.0756701 91.43220486 38.87553255 91.48828125 42.67578125 C91.49786613 44.45714226 91.49786613 44.45714226 91.50764465 46.27449036 C91.52743881 47.37540512 91.54723297 48.47631989 91.56762695 49.6105957 C91.57873001 50.58100296 91.58983307 51.55141022 91.60127258 52.55122375 C91.82930074 55.01380566 91.82930074 55.01380566 93.20562744 56.81257629 C95.62056786 58.41065997 97.25431964 58.38071398 100.14233398 58.38818359 C101.19029648 58.39764008 102.23825897 58.40709656 103.31797791 58.4168396 C105.01489525 58.40773056 105.01489525 58.40773056 106.74609375 58.3984375 C108.49008202 58.40274277 108.49008202 58.40274277 110.26930237 58.40713501 C112.72975145 58.40917783 115.19021669 58.40363286 117.65063477 58.39111328 C121.4191521 58.37507807 125.18659449 58.39094814 128.95507812 58.41015625 C131.34375237 58.40817357 133.73242595 58.4043294 136.12109375 58.3984375 C137.25034775 58.40451019 138.37960175 58.41058289 139.54307556 58.4168396 C140.59419022 58.40738312 141.64530487 58.39792664 142.72827148 58.38818359 C143.65187973 58.38579681 144.57548798 58.38341003 145.52708435 58.38095093 C148.48527783 57.92524329 149.85668536 57.06447885 152 55 C152.79689791 52.11900966 152.79689791 52.11900966 152.9765625 48.76953125 C153.14514771 46.86796265 153.14514771 46.86796265 153.31713867 44.92797852 C153.42015652 43.55618213 153.52276881 42.18435523 153.625 40.8125 C153.74224198 39.4177473 153.86115103 38.02313378 153.98168945 36.62866211 C154.28283411 33.09936292 154.56315496 29.56874115 154.83856201 26.03735352 C155.08768119 22.89346003 155.35849164 19.7514985 155.62890625 16.609375 C156.10338211 11.07422475 156.55801308 5.53783608 157 0 C161.29 0 165.58 0 170 0 C169.57542304 7.89936601 169.04727866 15.75849921 168.21386719 23.62548828 C167.03836721 34.78858435 166.78310282 45.78159599 167 57 C170.17509982 58.05836661 172.64282383 58.20243789 175.98046875 58.31640625 C177.14384766 58.35830078 178.30722656 58.40019531 179.50585938 58.44335938 C180.72080078 58.48267578 181.93574219 58.52199219 183.1875 58.5625 C184.41404297 58.60568359 185.64058594 58.64886719 186.90429688 58.69335938 C189.93608381 58.7995309 192.96795315 58.90157952 196 59 C195.85904936 60.6254308 195.71207913 62.25034051 195.5625 63.875 C195.44068359 65.23238281 195.44068359 65.23238281 195.31640625 66.6171875 C195 69 195 69 194 71 C193.23333008 71.0093457 192.46666016 71.01869141 191.67675781 71.02832031 C188.20051897 71.08202773 184.72562526 71.16567576 181.25 71.25 C180.0434375 71.26417969 178.836875 71.27835937 177.59375 71.29296875 C176.43359375 71.32519531 175.2734375 71.35742188 174.078125 71.390625 C173.00981445 71.41157227 171.94150391 71.43251953 170.84082031 71.45410156 C167.25309654 72.14352665 166.10476687 73.02869028 164 76 C163.20918839 79.08972569 163.20918839 79.08972569 163.0234375 82.58203125 C162.85485229 84.55429687 162.85485229 84.55429687 162.68286133 86.56640625 C162.57989579 87.98174577 162.47728209 89.39711093 162.375 90.8125 C162.25781683 92.25274459 162.13890904 93.69284987 162.01831055 95.1328125 C161.77790222 98.03271889 161.54706336 100.93312718 161.32470703 103.83447266 C160.94874021 108.71557609 160.51721692 113.59134258 160.08251953 118.4675293 C159.71062643 122.64409731 159.35513195 126.82197711 159 131 C155.04 131 151.08 131 147 131 C146.62716072 119.69054181 147.62835498 108.75951924 148.93286133 97.52075195 C150.69479075 85.15782743 150.69479075 85.15782743 149 73 C146.08669601 71.87836379 143.20761718 71.85887721 140.11132812 71.82299805 C139.14352417 71.81016281 138.17572021 71.79732758 137.17858887 71.78410339 C135.62065613 71.77302299 135.62065613 71.77302299 134.03125 71.76171875 C132.95879028 71.753647 131.88633057 71.74557526 130.78137207 71.73725891 C128.51523446 71.72344024 126.24907622 71.7127082 123.98291016 71.70483398 C120.51294975 71.68756445 117.04392841 71.64365122 113.57421875 71.59960938 C111.37240283 71.58948698 109.17057883 71.58096946 106.96875 71.57421875 C105.93012817 71.55671066 104.89150635 71.53920258 103.82141113 71.52116394 C102.3697052 71.52555229 102.3697052 71.52555229 100.88867188 71.5300293 C100.0391394 71.52416306 99.18960693 71.51829681 98.31433105 71.51225281 C95.10552665 72.188511 93.94704773 73.39290783 92 76 C91.38819555 78.61154889 91.38819555 78.61154889 91.45410156 81.50292969 C91.43438293 82.60376892 91.41466431 83.70460815 91.39434814 84.83880615 C91.39311951 86.02121887 91.39189087 87.20363159 91.390625 88.421875 C91.37408875 89.63699768 91.35755249 90.85212036 91.34051514 92.10406494 C91.29192037 95.98609413 91.2706376 99.86773123 91.25 103.75 C91.2218501 106.38153026 91.19192407 109.01304217 91.16015625 111.64453125 C91.08615759 118.09632191 91.03665252 124.54789344 91 131 C87.04 131 83.08 131 79 131 C78.99589111 129.39036377 78.99178223 127.78072754 78.98754883 126.12231445 C78.96577369 120.14900715 78.91149918 114.17636006 78.84741211 108.20336914 C78.82421827 105.61847258 78.80983319 103.03348133 78.80444336 100.44848633 C78.79516459 96.73198337 78.75419291 93.01697271 78.70703125 89.30078125 C78.7109639 88.14540359 78.71489655 86.99002594 78.71894836 85.79963684 C78.63320722 81.08224741 78.5184948 77.904496 76.14746094 73.76831055 C71.44580518 71.12682027 67.24263657 71.32202506 61.93359375 71.40625 C60.86254898 71.40620972 59.79150421 71.40616943 58.68800354 71.40612793 C56.42776611 71.41148119 54.16752903 71.42905539 51.9074707 71.45800781 C48.44619967 71.49989472 44.98687259 71.4990726 41.52539062 71.4921875 C39.32811147 71.502679 37.13084234 71.51561689 34.93359375 71.53125 C33.38036659 71.53155212 33.38036659 71.53155212 31.79576111 71.53186035 C30.83118484 71.54777222 29.86660858 71.56368408 28.87280273 71.58007812 C27.60302834 71.59270691 27.60302834 71.59270691 26.30760193 71.60559082 C23.47864837 72.08910803 22.07975635 73.04953709 20 75 C19.43237699 77.37650267 19.43237699 77.37650267 19.625 80.1875 C19.65851563 81.34378906 19.69203125 82.50007813 19.7265625 83.69140625 C20.08485934 90.05040963 20.70570359 96.39306722 21.28320312 102.73510742 C22.1055837 112.17547441 22.20097121 121.53202319 22 131 C18.04 131 14.08 131 10 131 C9.84180786 128.73757446 9.84180786 128.73757446 9.68041992 126.42944336 C9.28469735 120.81700987 8.87268077 115.20586976 8.45581055 109.5949707 C8.27787976 107.16951024 8.10432941 104.74372419 7.93530273 102.31762695 C7.69113372 98.82407681 7.43107126 95.33201281 7.16796875 91.83984375 C7.09595749 90.76041 7.02394623 89.68097626 6.94975281 88.5688324 C6.49640731 82.77527755 5.81787862 78.12466489 3 73 C-0.21903085 71.39048457 -3.74838832 71.75765252 -7.2890625 71.68359375 C-8.51669815 71.6524221 -8.51669815 71.6524221 -9.76913452 71.62062073 C-12.38766966 71.55515188 -15.00630639 71.49625274 -17.625 71.4375 C-19.39844807 71.39431224 -21.17188581 71.35069786 -22.9453125 71.30664062 C-27.29677046 71.19947324 -31.64833077 71.09819831 -36 71 C-36.99 67.04 -37.98 63.08 -39 59 C-37.30472168 58.98598145 -37.30472168 58.98598145 -35.57519531 58.97167969 C-31.37785579 58.93177608 -27.18124896 58.86601674 -22.984375 58.79248047 C-21.16871561 58.7642729 -19.35293348 58.74305726 -17.53710938 58.72900391 C-14.92514211 58.70757091 -12.31465026 58.66092115 -9.703125 58.609375 C-8.89256653 58.60814636 -8.08200806 58.60691772 -7.24688721 58.60565186 C-3.68226104 58.51322478 -1.42647924 58.29896368 1.52880859 56.22729492 C3.17584623 53.73377943 3.44550626 52.69614438 3.2421875 49.75390625 C3.19441162 48.92689209 3.14663574 48.09987793 3.09741211 47.24780273 C2.98731812 45.91857788 2.98731812 45.91857788 2.875 44.5625 C2.81513916 43.63961182 2.75527832 42.71672363 2.69360352 41.76586914 C2.17947975 34.2611874 1.4340067 26.77486837 0.66601562 19.29248047 C0.01978132 12.8313707 -0.17326281 6.49735536 0 0 Z " fill="#C7E0E3" transform="translate(228,172)"/>
<path d="M0 0 C6.6 0 13.2 0 20 0 C20.99 2.97 20.99 2.97 22 6 C24.92797437 6.97599146 26.94476912 7.15043238 30 7.2109375 C30.969375 7.23929688 31.93875 7.26765625 32.9375 7.296875 C34.97898243 7.34895363 37.02067893 7.39322641 39.0625 7.4296875 C40.031875 7.460625 41.00125 7.4915625 42 7.5234375 C43.3303125 7.5531665 43.3303125 7.5531665 44.6875 7.58349609 C47.51186974 8.09219276 48.2486434 8.76217594 50 11 C50.36076355 13.10710144 50.36076355 13.10710144 50.34057617 15.56323242 C50.34034958 16.48396042 50.34012299 17.40468842 50.33988953 18.35331726 C50.32440567 19.34402725 50.30892181 20.33473724 50.29296875 21.35546875 C50.28872391 22.37224197 50.28447906 23.3890152 50.28010559 24.43659973 C50.26329997 27.68716812 50.22564382 30.9371187 50.1875 34.1875 C50.17245562 36.38996501 50.15876679 38.59243973 50.14648438 40.79492188 C50.11339036 46.19682572 50.06317223 51.59836872 50 57 C36.15282622 57.18704954 22.30584886 57.32750355 8.45767021 57.41449738 C2.02732406 57.4562504 -4.40217352 57.51288381 -10.83203125 57.60351562 C-17.03719291 57.69043298 -23.2415384 57.73827326 -29.44726181 57.75901794 C-31.81485724 57.7738012 -34.18240793 57.80267039 -36.54965591 57.84584045 C-39.86627989 57.90391877 -43.17953145 57.91191303 -46.49658203 57.90820312 C-47.4755394 57.93696533 -48.45449677 57.96572754 -49.46311951 57.99536133 C-56.02925329 57.91588431 -56.02925329 57.91588431 -58.86098862 55.2441864 C-60.443573 53.09655762 -60.443573 53.09655762 -61.72411919 50.95763397 C-64.03181286 47.41684905 -66.98632134 46.03887074 -71 45 C-76.16923096 44.41165605 -81.30565061 44.30245585 -86.5 44.25 C-87.90889016 44.22179626 -89.31774681 44.19186277 -90.7265625 44.16015625 C-94.15109877 44.08978907 -97.57496705 44.03692415 -101 44 C-101.07416067 39.35526018 -101.12860615 34.71086501 -101.16479492 30.06567383 C-101.17988094 28.48553464 -101.2003525 26.90543731 -101.22631836 25.32543945 C-101.26271126 23.05409415 -101.27972762 20.78330241 -101.29296875 18.51171875 C-101.30845261 17.80536789 -101.32393646 17.09901703 -101.33988953 16.3712616 C-101.34157781 11.45037598 -101.34157781 11.45037598 -99.72024441 9.31262112 C-96.68203629 6.99433651 -92.85934208 7.59784192 -89.18579102 7.63110352 C-88.28469604 7.62733704 -87.38360107 7.62357056 -86.4552002 7.61968994 C-84.4974274 7.61325096 -82.53962336 7.61359359 -80.58185005 7.61987495 C-77.48444268 7.62896336 -74.38764348 7.61878716 -71.29026794 7.60325623 C-62.4838051 7.56309213 -53.67738876 7.5619561 -44.87084961 7.56420898 C-39.48563394 7.56426002 -34.10074597 7.54512334 -28.71562004 7.51487541 C-25.66205306 7.50402404 -22.60910462 7.51619652 -19.55555725 7.52870178 C-17.68489972 7.51979932 -15.81424728 7.50972563 -13.94360352 7.49829102 C-12.66781685 7.51290627 -12.66781685 7.51290627 -11.36625671 7.52781677 C-6.59562363 7.47406612 -6.59562363 7.47406612 -2.50352478 5.15635681 C-0.83710522 2.98331545 -0.83710522 2.98331545 0 0 Z " fill="#FDDF76" transform="translate(397,17)"/>
<path d="M0 0 C1.19308273 -0.01272446 2.38616547 -0.02544891 3.61540222 -0.03855896 C5.57375504 -0.02877014 5.57375504 -0.02877014 7.57167053 -0.01878357 C8.96315425 -0.02584236 10.35463028 -0.03458721 11.74609375 -0.04489136 C15.52305738 -0.06740088 19.29960228 -0.06444208 23.07660747 -0.05556989 C26.23024738 -0.05046087 29.38380855 -0.05775189 32.53744036 -0.06504196 C39.97763132 -0.08204612 47.41761722 -0.07847027 54.85780334 -0.06175232 C62.53218063 -0.04483106 70.20598912 -0.06066399 77.88030428 -0.0929752 C84.47068488 -0.11967098 91.06088842 -0.12694717 97.65131766 -0.11846012 C101.58685621 -0.11353069 105.52205254 -0.11574687 109.45754814 -0.13624763 C113.15878227 -0.15460488 116.8591984 -0.14864685 120.56038857 -0.12404823 C122.56446221 -0.11665378 124.56857938 -0.1338957 126.57258606 -0.15187073 C127.76848862 -0.13921677 128.96439117 -0.12656281 130.1965332 -0.11352539 C131.23388579 -0.11293908 132.27123838 -0.11235277 133.3400259 -0.1117487 C136.16175842 0.5146637 136.16175842 0.5146637 141.16175842 5.5146637 C141.16175842 19.0446637 141.16175842 32.5746637 141.16175842 46.5146637 C91.33175842 46.5146637 41.50175842 46.5146637 -9.83824158 46.5146637 C-9.83824158 0.02663049 -9.83824158 0.02663049 0 0 Z " fill="#FC7F86" transform="translate(185.83824157714844,74.48533630371094)"/>
<path d="M0 0 C5.32020022 -0.07429915 10.64009669 -0.12867247 15.96069336 -0.16479492 C17.76966617 -0.17985755 19.5786026 -0.20031177 21.38745117 -0.22631836 C23.99146515 -0.2628132 26.5949952 -0.27975157 29.19921875 -0.29296875 C30.40731453 -0.31619453 30.40731453 -0.31619453 31.63981628 -0.33988953 C36.27354947 -0.34127032 39.20888541 0.0388038 43 3 C45.75274405 6.53924235 45.24760934 10.72518628 45 15 C44.49677695 18.89740027 43.81670015 22.75714436 43.125 26.625 C42.75271122 28.77713737 42.38160933 30.9294804 42.01171875 33.08203125 C41.83431152 34.10893066 41.6569043 35.13583008 41.47412109 36.19384766 C40.72440332 40.63115767 40.1074354 45.08121371 39.4921875 49.5390625 C38.53828289 56.24667744 37.44532431 62.93321108 36.37792969 69.62353516 C36.03273951 71.79413023 35.69110191 73.96523364 35.3515625 76.13671875 C34.10898513 84.07324055 32.83897246 92.0049904 31.546875 99.93359375 C31.35029045 101.14103241 31.35029045 101.14103241 31.1497345 102.37286377 C30.48724274 106.4414117 29.82333277 110.50971897 29.15698242 114.57763672 C27.83207898 122.69158125 26.57262487 130.80811231 25.43139648 138.95043945 C24.85331482 143.03692396 24.21611144 147.11252646 23.5625 151.1875 C23.30329894 152.8137883 23.04418698 154.44009081 22.78515625 156.06640625 C22.65512207 156.88125488 22.52508789 157.69610352 22.39111328 158.53564453 C21.87786717 161.76954356 21.37570667 165.00512633 20.87329102 168.24072266 C20.50303318 170.60562653 20.1235835 172.96890065 19.7421875 175.33203125 C19.23574333 178.47132737 18.76720017 181.61342753 18.3203125 184.76171875 C18.08913573 186.27873648 17.85738845 187.79566741 17.625 189.3125 C17.53541016 189.99973145 17.44582031 190.68696289 17.35351562 191.39501953 C16.5071851 196.69247038 14.69979626 199.30579255 11 203 C7.05168033 204.31610656 3.28870974 204.13421069 -0.82670593 204.12025452 C-2.19649911 204.12153615 -2.19649911 204.12153615 -3.59396487 204.12284368 C-6.66642272 204.12449616 -9.73882645 204.11898087 -12.8112793 204.11352539 C-15.00873819 204.11324344 -17.20619717 204.1134014 -19.40365601 204.1139679 C-25.38056868 204.11425557 -31.3574614 204.10836359 -37.33436942 204.10139394 C-43.57641229 204.0951555 -49.81845559 204.09455621 -56.0605011 204.09336853 C-66.54106977 204.09061054 -77.02163226 204.08435834 -87.50219727 204.07543945 C-98.29776981 204.06626204 -109.09334036 204.05918281 -119.88891602 204.05493164 C-120.55422786 204.05466892 -121.2195397 204.05440619 -121.90501251 204.05413551 C-125.24264849 204.05283048 -128.58028447 204.05156903 -131.91792047 204.05032361 C-159.61195209 204.03986249 -187.30597553 204.02226584 -215 204 C-215 203.67 -215 203.34 -215 203 C-150.98 203 -86.96 203 -21 203 C-18.26213521 195.84049819 -18.26213521 195.84049819 -19 183 C-87.31 183 -155.62 183 -226 183 C-226 182.67 -226 182.34 -226 182 C-224.86894427 181.99853344 -223.73788855 181.99706688 -222.5725584 181.99555588 C-195.0823385 181.95900039 -167.5922408 181.89960287 -140.10212231 181.81609726 C-126.80821692 181.77624662 -113.51441535 181.74388482 -100.22045898 181.72900391 C-88.63674291 181.71601856 -77.0531579 181.6891339 -65.46951562 181.64538693 C-59.33306934 181.6227019 -53.19678513 181.60709353 -47.0602932 181.60811615 C-41.2892583 181.60885861 -35.51858262 181.59107513 -29.74764061 181.55883217 C-27.62517941 181.55028501 -25.50267813 181.5486156 -23.38020706 181.55419731 C-20.49065048 181.56078646 -17.60225398 181.54303936 -14.71281433 181.51898193 C-13.86554423 181.52674235 -13.01827413 181.53450277 -12.14532918 181.54249835 C-7.62215854 181.52656347 -7.62215854 181.52656347 -3.99097157 179.09184647 C-2.97686233 176.95115858 -2.46238947 175.24697043 -2.15625 172.90234375 C-2.04603516 172.11077881 -1.93582031 171.31921387 -1.82226562 170.50366211 C-1.71591797 169.65682861 -1.60957031 168.80999512 -1.5 167.9375 C-1.25082536 166.12488635 -1.00080515 164.31238876 -0.75 162.5 C-0.564375 161.12134766 -0.564375 161.12134766 -0.375 159.71484375 C0.19160781 155.6128393 0.84551211 151.52620887 1.5 147.4375 C4.36268395 129.46295814 7.18154691 111.48151919 10 93.5 C11.17828274 85.98264452 12.35697107 78.46535328 13.53720093 70.94830322 C13.83803858 69.03178982 14.13868786 67.11524684 14.43911743 65.19866943 C15.91946254 55.75706777 17.41205133 46.32081486 19.08007812 36.91015625 C19.93520653 31.92416945 20.61244757 27.83734272 19 23 C16.34394625 22.01780597 13.70367523 21.83277066 10.890625 21.68359375 C10.13652344 21.64169922 9.38242187 21.59980469 8.60546875 21.55664062 C7.82816406 21.51732422 7.05085937 21.47800781 6.25 21.4375 C5.45722656 21.39431641 4.66445313 21.35113281 3.84765625 21.30664062 C1.89862185 21.20097009 -0.05066748 21.10002034 -2 21 C-1.67 19.7625 -1.34 18.525 -1 17.25 C-0.1100552 13.32459661 0.1068246 9.69433241 0.0625 5.671875 C0.05347656 4.60549805 0.04445313 3.53912109 0.03515625 2.44042969 C0.02355469 1.63508789 0.01195312 0.82974609 0 0 Z " fill="#C4DDE0" transform="translate(429,136)"/>
<path d="M0 0 C13.67302856 -0.02254844 27.34604488 -0.04091359 41.01908779 -0.05181217 C47.36730576 -0.05704164 53.7155104 -0.06414044 60.0637207 -0.07543945 C66.18448582 -0.08626606 72.30523809 -0.09227635 78.42601204 -0.09487724 C80.76690943 -0.0967319 83.10780609 -0.10035329 85.44869804 -0.10573006 C88.71508202 -0.11293748 91.98141215 -0.11399107 95.24780273 -0.11352539 C96.226035 -0.11712067 97.20426727 -0.12071594 98.21214294 -0.12442017 C99.09700378 -0.1230455 99.98186462 -0.12167084 100.89353943 -0.12025452 C101.66692374 -0.12117631 102.44030806 -0.1220981 103.23712826 -0.12304783 C105 0 105 0 106 1 C106 11.56 106 22.12 106 33 C71.02 33 36.04 33 0 33 C0 22.11 0 11.22 0 0 Z " fill="#FFE077" transform="translate(341,88)"/>
<path d="M0 0 C7.08267062 4.76718215 11.75377825 11.80850325 14 20 C15.04789303 29.60162455 13.83848544 37.47222719 8.3046875 45.44140625 C2.99450487 51.96626628 -3.10010458 55.36670153 -11 58 C-19.22537515 58.69494167 -25.8833203 58.32953898 -33 54 C-34.04800781 53.38125 -34.04800781 53.38125 -35.1171875 52.75 C-42.15068132 48.07869845 -47.30615554 40.29983786 -49 32 C-50.14880086 22.38469413 -47.92643845 14.0884212 -41.98046875 6.3828125 C-30.94674182 -5.4045315 -14.30663435 -8.33183303 0 0 Z " fill="#638893" transform="translate(248,439)"/>
<path d="M0 0 C6.85081273 4.20390781 11.3149228 12.0128185 13.52734375 19.6171875 C15.41074003 29.11199518 13.62911067 35.99928205 8.71484375 44.125 C3.87207403 51.24751369 -2.71766885 55.7109135 -11 58 C-21.41314794 59.13646031 -29.92064661 57.43989705 -38.25 51 C-43.79530796 45.82587898 -48.46486319 37.27241353 -49.23828125 29.65234375 C-49.48644798 20.57466595 -47.10550788 12.85476029 -41.546875 5.59765625 C-30.6307739 -5.67680171 -13.58003969 -7.58262917 0 0 Z " fill="#638893" transform="translate(434,439)"/>
<path d="M0 0 C1.14603195 0.48162346 1.14603195 0.48162346 2.31521606 0.97297668 C4.73944355 1.99610121 7.15458576 3.03901935 9.5703125 4.08203125 C11.18307243 4.76360467 12.79635029 5.44395393 14.41015625 6.12304688 C15.98223229 6.78927675 17.55386185 7.45656134 19.125 8.125 C19.83574677 8.42730026 20.54649353 8.72960052 21.27877808 9.0410614 C26.88134774 11.46179188 32.21112448 14.15243724 37.6953125 16.89453125 C37.6953125 25.47453125 37.6953125 34.05453125 37.6953125 42.89453125 C9.3153125 42.89453125 -19.0646875 42.89453125 -48.3046875 42.89453125 C-43.98021616 34.9663338 -39.59163846 27.33230566 -34.8046875 19.70703125 C-34.16660156 18.67900391 -33.52851563 17.65097656 -32.87109375 16.59179688 C-23.94895525 2.33279639 -17.61815134 -7.70051002 0 0 Z " fill="#29BBC6" transform="translate(243.3046875,18.10546875)"/>
<path d="M0 0 C13.53 0 27.06 0 41 0 C41.495 5.775 41.99 11.55 42.5 17.5 C42.65662109 19.30662109 42.81324219 21.11324219 42.97460938 22.97460938 C43.09792234 24.43096708 43.2209854 25.88734597 43.34375 27.34375 C43.40852539 28.08012695 43.47330078 28.81650391 43.54003906 29.57519531 C43.60094727 30.30512695 43.66185547 31.03505859 43.72460938 31.78710938 C43.77790405 32.40888062 43.83119873 33.03065186 43.8861084 33.67126465 C44.0543003 37.1102753 44 40.55687891 44 44 C33.44 44 22.88 44 12 44 C11.13375 40.9475 10.2675 37.895 9.375 34.75 C6.95675992 26.24032908 4.45129881 17.76086173 1.82958984 9.31152344 C1.46921631 8.13251465 1.46921631 8.13251465 1.1015625 6.9296875 C0.88838379 6.24116699 0.67520508 5.55264648 0.45556641 4.84326172 C0 3 0 3 0 0 Z " fill="#658B96" transform="translate(172,172)"/>
<path d="M0 0 C12.21 0 24.42 0 37 0 C37 14.52 37 29.04 37 44 C25.78 44 14.56 44 3 44 C2.57096643 38.53748324 2.14311181 33.07490057 1.71826172 27.61206055 C1.57344759 25.75458446 1.42794643 23.8971618 1.28173828 22.03979492 C1.07142382 19.36651212 0.86359956 16.69304546 0.65625 14.01953125 C0.59062866 13.19226028 0.52500732 12.36498932 0.45739746 11.51264954 C0.39733521 10.73221786 0.33727295 9.95178619 0.27539062 9.14770508 C0.22209595 8.46597733 0.16880127 7.78424957 0.1138916 7.0818634 C-0.01507374 4.72446201 0 2.36092639 0 0 Z " fill="#658A95" transform="translate(255,172)"/>
<path d="M0 0 C11.88 0 23.76 0 36 0 C35.39060204 14.72711735 34.35078177 29.32150473 33 44 C22.11 44 11.22 44 0 44 C0 29.48 0 14.96 0 0 Z " fill="#668C97" transform="translate(334,172)"/>
<path d="M0 0 C18.42808263 -0.11679308 36.85606923 -0.20496834 55.28444195 -0.25906086 C63.84103961 -0.28484439 72.39740734 -0.31999755 80.95385742 -0.37719727 C88.41153247 -0.42702793 95.86904099 -0.45928994 103.32687789 -0.47044247 C107.27597117 -0.4769619 111.22458806 -0.49228675 115.17352867 -0.52865028 C118.89101531 -0.56260494 122.60782964 -0.57305437 126.32545662 -0.56553841 C128.33918967 -0.56756846 130.35284959 -0.5944665 132.36639404 -0.62210083 C133.56807724 -0.61522751 134.76976044 -0.60835419 136.00785828 -0.60127258 C137.05040614 -0.60588155 138.09295401 -0.61049051 139.16709423 -0.61523914 C142 0 142 0 147 5 C147 18.53 147 32.06 147 46 C97.17 46 47.34 46 -4 46 C-4 32.14 -4 18.28 -4 4 C-3.67 4 -3.34 4 -3 4 C-3 17.53 -3 31.06 -3 45 C38.25 45 79.5 45 122 45 C121.67 30.48 121.34 15.96 121 1 C81.07 1 41.14 1 0 1 C0 0.67 0 0.34 0 0 Z " fill="#E35D66" transform="translate(180,75)"/>
<path d="M0 0 C1.65 0 3.3 0 5 0 C5.4021875 1.4540625 5.4021875 1.4540625 5.8125 2.9375 C6.4003125 4.4534375 6.4003125 4.4534375 7 6 C9.92797437 6.97599146 11.94476912 7.15043238 15 7.2109375 C16.4540625 7.25347656 16.4540625 7.25347656 17.9375 7.296875 C19.97898243 7.34895363 22.02067893 7.39322641 24.0625 7.4296875 C25.031875 7.460625 26.00125 7.4915625 27 7.5234375 C28.3303125 7.5531665 28.3303125 7.5531665 29.6875 7.58349609 C32 8 32 8 35 11 C35 26.18 35 41.36 35 57 C-0.31 57 -35.62 57 -72 57 C-72 56.67 -72 56.34 -72 56 C-45.6 56 -19.2 56 8 56 C7.896875 48.53375 7.79375 41.0675 7.6875 33.375 C7.66260498 31.02810059 7.63770996 28.68120117 7.61206055 26.26318359 C7.57975886 24.39158144 7.54638348 22.51999738 7.51171875 20.6484375 C7.50547485 19.68591064 7.49923096 18.72338379 7.49279785 17.73168945 C7.35164258 11.12562297 6.43240861 6.64090078 1.8125 1.625 C1.214375 1.08875 0.61625 0.5525 0 0 Z " fill="#F1C47E" transform="translate(412,17)"/>
<path d="M0 0 C5.58383285 2.51164682 9.90959958 6.86998042 12.6484375 12.34765625 C12.79820789 14.59421212 12.86993924 16.84629393 12.8984375 19.09765625 C12.92421875 20.309375 12.95 21.52109375 12.9765625 22.76953125 C12.38980112 29.16802442 9.47963941 33.26797464 4.6484375 37.34765625 C-0.78278945 40.99620477 -5.84019442 42.45379058 -12.3515625 41.34765625 C-18.51172033 39.4444265 -22.84820143 35.71426986 -26.3515625 30.34765625 C-29.02359459 24.80158277 -29.11986347 19.39214651 -28.3515625 13.34765625 C-26.02638486 7.40019774 -21.98229596 3.53084239 -16.55859375 0.26953125 C-11.51807716 -1.83588807 -5.19827598 -1.44204666 0 0 Z " fill="#010202" transform="translate(238.3515625,445.65234375)"/>
<path d="M0 0 C5.93666585 2.71390439 10.16760393 7.21446757 12.61328125 13.3125 C13.2697142 19.91092991 13.78099435 26.84237656 9.61328125 32.3125 C4.36021243 37.65653105 -0.05901861 41.25724982 -7.69921875 41.6875 C-13.73317472 41.50738191 -18.06162836 39.54764492 -22.40625 35.37109375 C-27.95286575 29.23705637 -28.79866268 24.86437812 -28.734375 16.6171875 C-28.09197974 10.51082354 -25.21074339 7.00305942 -20.82421875 2.9375 C-14.34550143 -1.38164488 -7.60351122 -2.19020945 0 0 Z " fill="#020202" transform="translate(424.38671875,445.6875)"/>
<path d="M0 0 C9.9 0 19.8 0 30 0 C30 15.18 30 30.36 30 46 C21.42 46 12.84 46 4 46 C3.42808164 40.25273114 2.85765129 34.50535481 2.29101562 28.75756836 C2.09788121 26.80305452 1.90387873 24.84862624 1.70898438 22.89428711 C1.42869422 20.08209021 1.1515467 17.26959844 0.875 14.45703125 C0.78750488 13.58601273 0.70000977 12.7149942 0.60986328 11.81758118 C0.52978027 10.997108 0.44969727 10.17663483 0.3671875 9.33129883 C0.29612793 8.61404129 0.22506836 7.89678375 0.15185547 7.15779114 C-0.01567882 4.77721174 0 2.38646726 0 0 Z " fill="#628792" transform="translate(262,258)"/>
<path d="M0 0 C9.57 0 19.14 0 29 0 C28.33154223 15.04029993 27.2503461 29.99584677 26 45 C17.42 45 8.84 45 0 45 C0 30.15 0 15.3 0 0 Z " fill="#658B96" transform="translate(334,258)"/>
<path d="M0 0 C5.05946813 2.84217134 8.52233127 6.9995385 10.75 12.375 C11.67669206 18.53215591 11.54440733 23.97682712 8.25 29.375 C4.22864401 34.52794687 0.32631764 36.82367136 -6.11328125 37.81640625 C-12.79835455 38.21564189 -17.14917832 37.11862426 -22.47265625 33.02734375 C-27.15354588 28.67565955 -28.36850501 23.82034052 -28.625 17.625 C-28.55146294 12.07703704 -26.92216233 8.49588042 -23.25 4.375 C-16.4009811 -1.64973873 -8.52965059 -3.90065615 0 0 Z " fill="#F97E84" transform="translate(66.25,61.625)"/>
<path d="M0 0 C13.67302856 -0.02254844 27.34604488 -0.04091359 41.01908779 -0.05181217 C47.36730576 -0.05704164 53.7155104 -0.06414044 60.0637207 -0.07543945 C66.18448582 -0.08626606 72.30523809 -0.09227635 78.42601204 -0.09487724 C80.76690943 -0.0967319 83.10780609 -0.10035329 85.44869804 -0.10573006 C88.71508202 -0.11293748 91.98141215 -0.11399107 95.24780273 -0.11352539 C96.226035 -0.11712067 97.20426727 -0.12071594 98.21214294 -0.12442017 C99.09700378 -0.1230455 99.98186462 -0.12167084 100.89353943 -0.12025452 C101.66692374 -0.12117631 102.44030806 -0.1220981 103.23712826 -0.12304783 C105 0 105 0 106 1 C106 11.56 106 22.12 106 33 C71.02 33 36.04 33 0 33 C0 22.11 0 11.22 0 0 Z M1 1 C1 11.23 1 21.46 1 32 C26.74 32 52.48 32 79 32 C79 21.77 79 11.54 79 1 C53.26 1 27.52 1 1 1 Z " fill="#E1B874" transform="translate(341,88)"/>
<path d="M0 0 C6.6 0 13.2 0 20 0 C18.49948368 14.75507712 16.33147177 29.35473557 14 44 C8.39 44 2.78 44 -3 44 C-3.23969207 29.25893777 -2.90062689 14.50313444 0 0 Z " fill="#658A95" transform="translate(413,172)"/>
<path d="M0 0 C7.59 0 15.18 0 23 0 C23.43464385 3.99717109 23.86408668 7.99446514 24.28173828 11.9934082 C24.49362247 14.00204192 24.71348496 16.00982903 24.93359375 18.01757812 C25.872754 27.07376622 26.17635686 35.9004761 26 45 C21.71 45 17.42 45 13 45 C10.34979811 39.28279888 8.65833742 33.5249745 7.0625 27.4375 C6.54111411 25.48287283 6.01897797 23.52844563 5.49609375 21.57421875 C5.11686768 20.15181885 5.11686768 20.15181885 4.72998047 18.70068359 C3.44367435 13.94178116 2.05564121 9.21347988 0.6640625 4.484375 C0 2 0 2 0 0 Z " fill="#648994" transform="translate(197,258)"/>
<path d="M0 0 C6.48408915 2.04977094 12.74519931 4.46109893 19 7.125 C19.85722656 7.48464844 20.71445312 7.84429688 21.59765625 8.21484375 C27.86811041 10.86811041 27.86811041 10.86811041 29 12 C29 20.58 29 29.16 29 38 C0.62 38 -27.76 38 -57 38 C-57 37.67 -57 37.34 -57 37 C-33.24 37 -9.48 37 15 37 C11.88139084 23.58902855 11.88139084 23.58902855 6.375 11.75 C5.98054688 11.04488281 5.58609375 10.33976562 5.1796875 9.61328125 C4.45838951 8.32420477 3.72964801 7.03923118 2.98974609 5.76074219 C1.92710076 3.87031343 0.95600644 1.94621323 0 0 Z " fill="#0DA1AE" transform="translate(252,23)"/>
<path d="M0 0 C4.95 0 9.9 0 15 0 C12.93095552 15.04759619 10.55378839 30.02728126 8 45 C4.37 45 0.74 45 -3 45 C-3.20585137 35.35071694 -2.39817885 25.90613516 -1.5 16.3125 C-1.3550161 14.72465064 -1.21048156 13.13676018 -1.06640625 11.54882812 C-0.71693541 7.69862355 -0.35828531 3.84943444 0 0 Z " fill="#638893" transform="translate(405,258)"/>
<path d="M0 0 C6.72586865 -0.12699773 13.45142701 -0.21443406 20.17822266 -0.2746582 C22.46544957 -0.29976942 24.7525965 -0.33386516 27.03955078 -0.37719727 C30.33125565 -0.43799581 33.6218977 -0.4662444 36.9140625 -0.48828125 C37.93303619 -0.51408768 38.95200989 -0.5398941 40.00186157 -0.56648254 C47.94832766 -0.56960684 47.94832766 -0.56960684 51.63037109 2.40551758 C55.29539077 6.41831009 55.09939497 8.63267171 55 14 C51.73114279 12.93762141 48.58354124 11.81976211 45.42578125 10.453125 C40.5204329 8.6148877 35.88242284 8.50331733 30.6875 8.5625 C29.75905273 8.57007324 28.83060547 8.57764648 27.87402344 8.58544922 C16.70300702 8.8538514 8.91266519 12.39802578 0 19 C0.08378906 18.04738281 0.16757812 17.09476562 0.25390625 16.11328125 C0.35574219 14.85902344 0.45757812 13.60476563 0.5625 12.3125 C0.66691406 11.07113281 0.77132813 9.82976562 0.87890625 8.55078125 C0.98592155 5.41281637 0.67513464 3.03014974 0 0 Z " fill="#C5DEE1" transform="translate(386,412)"/>
<path d="M0 0 C3.5625 0.375 3.5625 0.375 5.5625 2.0625 C6.84050253 5.01788086 6.64301862 6.36498383 5.5625 9.375 C4.3125 11.1875 4.3125 11.1875 2.5625 12.375 C-0.25865488 12.79817323 -1.77700907 12.76218434 -4.25 11.3125 C-6.084421 8.31949731 -5.74857576 5.79683337 -5.4375 2.375 C-3.4375 0.375 -3.4375 0.375 0 0 Z " fill="#D0DDE2" transform="translate(230.4375,459.625)"/>
<path d="M0 0 C3.5 0.25 3.5 0.25 5.5 2.25 C6.05416667 8.34583333 6.05416667 8.34583333 4.3125 11.1875 C1.83950907 12.63718434 0.32115488 12.67317323 -2.5 12.25 C-4.3125 11.1875 -4.3125 11.1875 -5.5 9.25 C-5.8125 5.6875 -5.8125 5.6875 -5.5 2.25 C-3.5 0.25 -3.5 0.25 0 0 Z " fill="#D4E1E6" transform="translate(416.5,459.75)"/>
</svg>
