<?xml version="1.0" encoding="UTF-8"?>
<svg version="1.1" xmlns="http://www.w3.org/2000/svg" width="512" height="512">
<path d="M0 0 C11.12070871 8.93879751 19.4948632 21.12265889 21.31640625 35.49682617 C21.47202356 38.0258569 21.5077657 40.52893997 21.5 43.0625 C21.52835938 43.87654297 21.55671875 44.69058594 21.5859375 45.52929688 C21.60314303 51.18561488 20.50262381 56.26404185 18.86303711 61.65014648 C18.64190719 62.38805168 18.42077726 63.12595688 18.19294643 63.88622284 C15.49222815 72.81083687 12.55457323 81.65768785 9.59765625 90.5 C9.30081877 91.38887909 9.00398129 92.27775818 8.69814873 93.193573 C7.13242528 97.88017509 5.56258964 102.56537667 3.98950195 107.24951172 C2.37683797 112.05458589 0.77979494 116.86470688 -0.81403255 121.67605591 C-2.055152 125.41272199 -3.30815627 129.14532512 -4.56433296 132.87695312 C-5.15843273 134.64870621 -5.74807587 136.42196075 -6.33296013 138.19677734 C-14.33559155 162.44610676 -14.33559155 162.44610676 -25 168 C-29.80077262 169.80028973 -33.89103646 170.20852912 -39 170 C-39.26425781 171.28028076 -39.52851563 172.56056152 -39.80078125 173.87963867 C-40.94393603 179.01300226 -42.50964358 183.94556385 -44.1875 188.92578125 C-44.64225708 190.29080025 -44.64225708 190.29080025 -45.10620117 191.68339539 C-45.7427915 193.59084163 -46.38157436 195.49755742 -47.02246094 197.40356445 C-48.00248407 200.31989203 -48.97439369 203.23883346 -49.9453125 206.15820312 C-50.56723192 208.01838852 -51.18961158 209.87842011 -51.8125 211.73828125 C-52.10213623 212.60810135 -52.39177246 213.47792145 -52.69018555 214.37409973 C-52.96386963 215.18561996 -53.23755371 215.9971402 -53.51953125 216.83325195 C-53.87688354 217.89839775 -53.87688354 217.89839775 -54.24145508 218.98506165 C-55.02780942 221.07387073 -55.96831852 223.02231559 -57 225 C-55.81277344 225.23203125 -54.62554687 225.4640625 -53.40234375 225.703125 C-47.28759535 227.06647591 -41.39969416 229.05824608 -35.48022461 231.09375 C-33.57329897 231.74630457 -31.6610512 232.38114892 -29.74804688 233.015625 C-17.01227985 237.37382175 -6.31127602 242.63431481 0.53515625 254.70703125 C8.70563518 271.73878762 5.4734478 286.47518539 -0.5 303.5625 C-1.04896494 305.1658317 -1.59762748 306.76926698 -2.14599609 308.37280273 C-6.21181398 320.15963349 -10.57642679 331.76187952 -16 343 C-16.38333496 343.79567383 -16.76666992 344.59134766 -17.16162109 345.41113281 C-24.59769641 360.61174812 -33.75768919 374.55302598 -44 388 C-43.04480469 388.36351562 -42.08960938 388.72703125 -41.10546875 389.1015625 C-28.79007334 393.85756639 -18.01675426 399.2227772 -8 408 C-6.96746094 408.88945313 -6.96746094 408.88945313 -5.9140625 409.796875 C8.77033503 423.37849168 17.75949803 444.39800695 18.5625 464.25 C18.62890625 467.328125 18.62890625 467.328125 18 470 C15.69140625 472.359375 15.69140625 472.359375 13 474 C9.375 474 9.375 474 6 473 C4.0625 471.0625 4.0625 471.0625 3 469 C3 468.34 3 467.68 3 467 C-42.62404785 467.00979564 -88.24809154 467.0255367 -133.87211609 467.07429504 C-134.5469662 467.0750145 -135.22181631 467.07573395 -135.91711643 467.0764752 C-150.58211613 467.09214657 -165.24711436 467.10892869 -179.91211148 467.12685562 C-187.1034354 467.13563975 -194.29475961 467.14417833 -201.48608398 467.15258789 C-202.20172136 467.15342894 -202.91735873 467.15426999 -203.65468208 467.15513652 C-226.86608347 467.18230039 -250.07745818 467.19323839 -273.28887422 467.19579524 C-297.13423152 467.19850739 -320.97952124 467.21752273 -344.82484712 467.25716115 C-348.18996016 467.26274739 -351.55507347 467.26814653 -354.920187 467.27343178 C-355.58251381 467.27447781 -356.24484062 467.27552385 -356.92723794 467.27660158 C-368.2645083 467.29399538 -379.60169207 467.29106371 -390.93896677 467.28351311 C-401.00430815 467.27821447 -411.06952107 467.29114501 -421.13482586 467.3186629 C-426.94983052 467.33401453 -432.76454787 467.3410873 -438.57956123 467.32659721 C-443.89619068 467.3135256 -449.21226116 467.32318105 -454.52882709 467.35143773 C-456.45887312 467.35758981 -458.38896801 467.35517409 -460.31898931 467.34362926 C-462.93005706 467.32922456 -465.53918128 467.34516956 -468.15013599 467.36914349 C-469.29103663 467.3518474 -469.29103663 467.3518474 -470.45498577 467.3342019 C-472.79482151 467.32048415 -472.79482151 467.32048415 -476 468 C-477.82523167 470.40308715 -477.82523167 470.40308715 -479 473 C-482.53205948 473.96328895 -484.88189582 474.38250933 -488.375 473.1875 C-490 472 -490 472 -491 470 C-492.41267175 450.12996132 -487.43924758 430.28923042 -474.9375 414.4375 C-473.63671875 412.9480174 -472.3249779 411.46799995 -471 410 C-470.45988281 409.319375 -469.91976563 408.63875 -469.36328125 407.9375 C-457.3758049 393.07651237 -437.23451387 382.967371 -418.4609375 380.54296875 C-415.63835251 380.29508365 -412.83113726 380.10370466 -410 380 C-409.82984375 378.03546875 -409.82984375 378.03546875 -409.65625 376.03125 C-409.12399194 371.30006727 -408.02646884 366.99999776 -406.5 362.5 C-406.24009277 361.73099365 -405.98018555 360.9619873 -405.71240234 360.16967773 C-394.93029557 329.65151936 -371.69927888 304.639139 -342.625 290.6875 C-314.06869716 277.47800399 -279.20519504 275.142838 -249.515625 285.94140625 C-242.72781066 288.53249558 -236.19581186 291.17986837 -230 295 C-229.82778931 293.92407593 -229.82778931 293.92407593 -229.65209961 292.82641602 C-226.00567173 270.40809904 -220.5841196 249.03492966 -213.20709229 227.56216431 C-212.74294606 226.20852801 -212.28359453 224.85323624 -211.82952881 223.4961853 C-207.62104755 210.99856102 -201.19835709 199.67795235 -189.03515625 193.4921875 C-168.71051763 184.69908056 -151.57158843 191.96507171 -131.86767578 198.76391602 C-131.0167334 199.05451904 -130.16579102 199.34512207 -129.2890625 199.64453125 C-128.53318848 199.90596924 -127.77731445 200.16740723 -126.99853516 200.43676758 C-124.86481054 201.13562815 -124.86481054 201.13562815 -122 201 C-120.06068684 195.32591172 -118.12181911 189.65167149 -116.18334961 183.97729492 C-115.52494101 182.05017057 -114.86641438 180.12308654 -114.20776367 178.19604492 C-113.25668192 175.41335682 -112.30603604 172.63052013 -111.35546875 169.84765625 C-111.0647197 168.99728287 -110.77397064 168.14690948 -110.47441101 167.27076721 C-109.91815565 165.64176579 -109.36507525 164.01167598 -108.81552124 162.38040161 C-108.25895328 160.75585133 -107.68252037 159.1380052 -107.08901978 157.52658081 C-106.66270767 156.34251144 -106.66270767 156.34251144 -106.2277832 155.13452148 C-105.8381414 154.08445168 -105.8381414 154.08445168 -105.44062805 153.01316833 C-104.92157003 150.64166435 -105.19036921 149.27083598 -106 147 C-107.29186684 145.28134775 -107.29186684 145.28134775 -108.875 143.6875 C-114.52718005 137.23368864 -115.42694304 132.12226957 -115.33105469 123.68994141 C-114.7345629 117.04143335 -112.43043748 110.98298087 -110.1875 104.75 C-109.37953917 102.43600628 -108.57845088 100.11969178 -107.7771759 97.80337524 C-107.18648608 96.09808787 -106.59329469 94.39366535 -105.99784851 92.69003296 C-103.30949535 84.97778128 -100.7562477 77.22394878 -98.21875 69.4609375 C-97.80068653 68.18608986 -97.38241711 66.91130974 -96.96394348 65.63659668 C-96.65197163 64.68627312 -96.65197163 64.68627312 -96.33369732 63.7167511 C-95.91254331 62.43401502 -95.49135554 61.15129001 -95.07013416 59.86857605 C-94.03085524 56.70198341 -92.99550645 53.53422849 -91.96542358 50.36462402 C-78.03878543 7.57865106 -78.03878543 7.57865106 -58 -4 C-38.99901574 -13.45602805 -17.69032385 -11.71945183 0 0 Z " fill="#111117" transform="translate(491,24)"/>
<path d="M0 0 C1.10214844 0.474375 2.20429688 0.94875 3.33984375 1.4375 C20.24855791 9.25861351 36.37189552 24.03072701 46 40 C46 40.66 46 41.32 46 42 C53.75539452 42.93599589 58.36863406 40.65013328 65.08203125 36.82421875 C74.19094534 32.18748923 83.95591008 31.51764037 94 31.625 C95.08539063 31.61339844 96.17078125 31.60179687 97.2890625 31.58984375 C118.1956114 31.6646882 135.36870168 40.67501064 150.3125 54.875 C160.18957535 65.13135505 166.84741818 78.31905452 170.359375 92.07421875 C170.90961536 94.20812063 170.90961536 94.20812063 173 96 C175.66620763 96.23325626 178.26686415 96.36760456 180.9375 96.4375 C200.75054776 97.3084032 218.3088095 105.64251923 232 120 C238.18792398 127.67341924 242.70897567 135.66621251 246 145 C246.433125 146.175625 246.86625 147.35125 247.3125 148.5625 C248 152 248 152 248 163 C89.6 163 -68.8 163 -232 163 C-232 143.38188225 -224.86645102 125.14331859 -211 111 C-207.81961977 108.08422741 -204.52334597 105.48771239 -201 103 C-200.24332031 102.45601563 -199.48664063 101.91203125 -198.70703125 101.3515625 C-191.40903823 96.53513159 -183.3465332 94.31233977 -175 92 C-173.99066406 91.69449219 -173.99066406 91.69449219 -172.9609375 91.3828125 C-168.82296924 90.57500196 -164.51732417 90.70339237 -160.3125 90.57421875 C-157.03662348 90.21582844 -157.03662348 90.21582844 -154.70703125 88.59765625 C-152.08975711 84.61484777 -151.55405366 80.38690473 -150.6875 75.75 C-146.55089985 55.86206064 -137.50575919 39.25694999 -124 24 C-123.38769531 23.30390625 -122.77539062 22.6078125 -122.14453125 21.890625 C-90.67129911 -11.66292739 -40.83924736 -18.05714695 0 0 Z " fill="#AC623F" transform="translate(246,328)"/>
<path d="M0 0 C1.72270693 0.57991151 3.44601169 1.15805025 5.16992188 1.734375 C9.34961421 3.13592758 13.52050812 4.5611489 17.6875 6 C17.01859831 9.7958104 15.97230252 13.29650584 14.69140625 16.9296875 C14.29759766 18.05503906 13.90378906 19.18039063 13.49804688 20.33984375 C13.08619141 21.50644531 12.67433594 22.67304688 12.25 23.875 C4.67647255 44.13852557 4.67647255 44.13852557 8.55859375 64.85546875 C12.75513145 72.82743829 18.45954784 78.8623671 26.90625 82.3046875 C37.85963465 85.04303366 48.24848354 83.33174587 57.89453125 77.71484375 C68.48893025 70.65846297 71.19527867 57.37464629 75 45.9375 C75.55453597 44.29204702 76.10986806 42.64686211 76.66601562 41.00195312 C78.0157116 37.00433458 79.35457253 33.0032393 80.6875 29 C85.70326498 29.5890228 90.3009352 30.66880431 95.08984375 32.29296875 C96.11193687 32.63573601 96.11193687 32.63573601 97.15467834 32.98542786 C98.58692241 33.46877987 100.01801992 33.95554154 101.44799805 34.44555664 C103.61093806 35.18270756 105.78051158 35.89728542 107.95117188 36.61132812 C117.43829241 39.8012312 126.07594285 42.96188567 131.125 52.1875 C131.59808594 53.02667969 132.07117188 53.86585938 132.55859375 54.73046875 C136.46575274 62.58534546 135.33381098 70.66865028 132.76643372 78.77262878 C131.32714797 83.03996235 129.80138011 87.27232436 128.25 91.5 C127.60068813 93.30476353 126.95184597 95.10969611 126.3034668 96.91479492 C116.04253431 125.26730806 102.88557348 153.98087438 81.6875 176 C78.77731245 174.54490623 78.59589048 172.62909263 77.4375 169.625 C67.53251326 145.25237958 49.69969699 127.79702181 25.64453125 117.5078125 C5.4342197 109.48023434 -17.93069816 109.29492321 -38.21875 117.12109375 C-39.67887027 117.76819251 -41.12753713 118.44335562 -42.55078125 119.16796875 C-44.44463049 120.06240309 -46.27070039 120.55377889 -48.3125 121 C-48.73917969 120.42894531 -49.16585938 119.85789062 -49.60546875 119.26953125 C-53.82218306 113.80084403 -58.30488997 108.81469318 -63.1875 103.9375 C-63.75879639 103.36555908 -64.33009277 102.79361816 -64.91870117 102.2043457 C-67.84402633 99.2419802 -67.84402633 99.2419802 -71.3125 97 C-72.82471324 72.58055657 -64.12266856 47.91514444 -56.57250977 25.05847168 C-56.11398419 23.66419764 -55.66227351 22.26766057 -55.21801758 20.86877441 C-51.82586968 10.25693025 -47.54652121 1.72688212 -37.625 -4.0625 C-24.9565518 -9.56922678 -12.19857861 -4.21999779 0 0 Z " fill="#DCDCE8" transform="translate(347.3125,234)"/>
<path d="M0 0 C20.5508242 7.25108868 34.96913646 22.1818732 44.25 41.5625 C46.38318748 46.31678486 48.07068133 51.0268352 49.359375 56.07421875 C49.90961536 58.20812063 49.90961536 58.20812063 52 60 C54.66620763 60.23325626 57.26686415 60.36760456 59.9375 60.4375 C79.75054776 61.3084032 97.3088095 69.64251923 111 84 C117.18792398 91.67341924 121.70897567 99.66621251 125 109 C125.433125 110.175625 125.86625 111.35125 126.3125 112.5625 C127 116 127 116 127 127 C78.49 127 29.98 127 -20 127 C-18.6564225 123.64105625 -17.43632187 120.84380071 -15.6796875 117.76171875 C5.18950418 80.22636665 8.60661879 41.5986575 0 0 Z " fill="#9C5939" transform="translate(367,364)"/>
<path d="M0 0 C2.07640589 1.45025236 3.90442949 2.98914683 5.7578125 4.71484375 C6.79228516 5.67003906 6.79228516 5.67003906 7.84765625 6.64453125 C15.04330092 13.96077332 18.89874234 22.74722218 19.3828125 33.02734375 C19.11053003 37.94239132 18.15695464 42.18739789 16.6484375 46.8671875 C16.42896454 47.55137756 16.20949158 48.23556763 15.98336792 48.94049072 C13.3449481 57.1051099 10.56940123 65.2250439 7.78369141 73.34033203 C6.88876593 75.94749975 5.99684239 78.55567856 5.10546875 81.1640625 C1.04447376 93.03363461 -3.08395423 104.8790185 -7.2421875 116.71484375 C-14.69570919 114.75935385 -22.02032255 112.55071772 -29.32421875 110.09765625 C-30.34086105 109.75862274 -31.35750336 109.41958923 -32.404953 109.07028198 C-34.54070908 108.35736331 -36.67598323 107.64299939 -38.81079102 106.92724609 C-42.03483297 105.84649928 -45.26043761 104.7705274 -48.48632812 103.6953125 C-53.52658432 102.01329889 -58.56144323 100.31590616 -63.59332275 98.60900879 C-66.00471827 97.79500514 -68.42027523 96.99501756 -70.83740234 96.19824219 C-72.12231391 95.76439265 -73.40700461 95.3298881 -74.69140625 94.89453125 C-76.29568481 94.36061768 -76.29568481 94.36061768 -77.93237305 93.81591797 C-78.69461182 93.45256348 -79.45685059 93.08920898 -80.2421875 92.71484375 C-81.48026338 89.0006161 -80.84394968 87.77589161 -79.61499023 84.10449219 C-79.23386581 82.95188904 -78.85274139 81.79928589 -78.46006775 80.61175537 C-78.0362532 79.36186829 -77.61243866 78.1119812 -77.17578125 76.82421875 C-76.73966313 75.51944573 -76.30421349 74.2144491 -75.86940002 72.90924072 C-74.95258774 70.16350443 -74.02975784 67.41989098 -73.10229492 64.67773438 C-71.92904576 61.20830775 -70.76729006 57.73518104 -69.60981655 54.26046371 C-68.70820256 51.55644998 -67.8018472 48.85404389 -66.89402962 46.15210724 C-66.25994772 44.26374379 -65.62839539 42.37453154 -64.99693298 40.48529053 C-53.43301353 6.34247569 -53.43301353 6.34247569 -38.87109375 -1.57421875 C-26.18560444 -7.36496756 -12.23084028 -7.01035967 0 0 Z " fill="#8F50B0" transform="translate(479.2421875,34.28515625)"/>
<path d="M0 0 C5.01576498 0.5890228 9.6134352 1.66880431 14.40234375 3.29296875 C15.08373917 3.52148026 15.76513458 3.74999176 16.46717834 3.98542786 C17.89942241 4.46877987 19.33051992 4.95554154 20.76049805 5.44555664 C22.92343806 6.18270756 25.09301158 6.89728542 27.26367188 7.61132812 C36.75079241 10.8012312 45.38844285 13.96188567 50.4375 23.1875 C50.91058594 24.02667969 51.38367188 24.86585938 51.87109375 25.73046875 C55.77825274 33.58534546 54.64631098 41.66865028 52.07893372 49.77262878 C50.63964797 54.03996235 49.11388011 58.27232436 47.5625 62.5 C46.91318813 64.30476353 46.26434597 66.10969611 45.6159668 67.91479492 C35.35503431 96.26730806 22.19807348 124.98087438 1 147 C-1.91018755 145.54490623 -2.09160952 143.62909263 -3.25 140.625 C-9.76023478 124.60564677 -19.74900125 110.16527663 -34 100 C-32.48897027 96.49824857 -30.4237042 94.134517 -27.8125 91.375 C-10.26727391 72.09483927 0.53869295 47.56494589 0.125 21.375 C0.11597656 20.27542969 0.10695313 19.17585938 0.09765625 18.04296875 C0.07434124 15.36174242 0.0416204 12.68099393 0 10 C-0.66 9.67 -1.32 9.34 -2 9 C-1.34 6.03 -0.68 3.06 0 0 Z " fill="#C9C9D4" transform="translate(428,263)"/>
<path d="M0 0 C5.01078749 0.4748387 9.49085919 1.67286642 14.24609375 3.28515625 C14.90207047 3.50570175 15.55804718 3.72624725 16.23390198 3.95347595 C18.30373666 4.65081199 20.37060953 5.35649132 22.4375 6.0625 C23.85072317 6.54027085 25.2641331 7.01748965 26.67773438 7.49414062 C30.12067028 8.65639084 33.56100429 9.82613495 37 11 C35.69414261 17.34573748 33.99684459 23.3588339 31.8671875 29.47265625 C31.40360085 30.82423073 31.40360085 30.82423073 30.9306488 32.20310974 C29.91651217 35.15777824 28.89592122 38.11016959 27.875 41.0625 C26.42538926 45.27110926 24.97937181 49.48094273 23.53515625 53.69140625 C23.16349838 54.77414825 22.79184052 55.85689026 22.40892029 56.97244263 C19.72925722 64.80396265 17.12681223 72.65864462 14.55859375 80.52734375 C13.83941831 82.72194442 13.12018087 84.91652478 12.40087891 87.11108398 C11.36119579 90.28469038 10.32558438 93.459325 9.30291748 96.63845825 C8.35454858 99.58548861 7.39154466 102.52738238 6.42578125 105.46875 C6.15237411 106.33342392 5.87896698 107.19809784 5.59727478 108.088974 C3.27057227 115.10202198 0.09824122 121.82889776 -6.84765625 125.33984375 C-12.64544326 127.11811236 -19.4827687 127.21575722 -24.9375 124.375 C-30.05319017 120.40773007 -33.56698261 116.5137154 -35 110 C-35.74578847 102.15889475 -33.17315392 95.58797813 -30.609375 88.265625 C-30.14720812 86.91661654 -29.68616786 85.56722164 -29.22618103 84.21746826 C-28.00008438 80.62889606 -26.75960554 77.04545643 -25.51626205 73.46282959 C-24.23881761 69.77379548 -22.97477037 66.08018344 -21.71020508 62.38671875 C-20.20554858 57.99397608 -18.70012545 53.60151198 -17.188797 49.21105957 C-13.01664956 37.0878695 -8.94884445 24.93171279 -4.94885254 12.75061035 C-4.28459434 10.72881087 -3.61711241 8.70810067 -2.94921875 6.6875 C-2.59174561 5.59824219 -2.23427246 4.50898438 -1.8659668 3.38671875 C-1 1 -1 1 0 0 Z " fill="#A5A5B1" transform="translate(401,178)"/>
<path d="M0 0 C11.46692738 3.312917 19.56588991 9.49565481 25.81640625 19.765625 C30.49509482 28.59800078 31.63917943 37.69426773 29.09912109 47.46557617 C28.70289551 48.68736572 28.30666992 49.90915527 27.8984375 51.16796875 C27.67840057 51.85103088 27.45836365 52.53409302 27.23165894 53.237854 C26.49908263 55.49580116 25.75196743 57.74843939 25 60 C24.73779663 60.78553253 24.47559326 61.57106506 24.20544434 62.38040161 C22.50000251 67.46935786 20.76842464 72.54913015 19.02587891 77.62548828 C18.13095343 80.232656 17.23902989 82.84083481 16.34765625 85.44921875 C12.28666126 97.31879086 8.15823327 109.16417475 4 121 C-5.03931969 118.69049368 -13.85450836 115.79417637 -22.6875 112.8125 C-24.08258729 112.34411798 -25.47776903 111.87601717 -26.87304688 111.40820312 C-30.24979034 110.27536759 -33.62524882 109.13875892 -37 108 C-36.21463867 107.21858643 -35.42927734 106.43717285 -34.62011719 105.63208008 C-10.19513016 81.09557383 0.1507706 44.24659869 0.125 10.5 C0.10047804 6.99962675 0.0598045 3.49994312 0 0 Z " fill="#8349A1" transform="translate(468,30)"/>
<path d="M0 0 C1.0209375 -0.01611328 2.041875 -0.03222656 3.09375 -0.04882812 C19.76466047 -0.05940611 34.36988424 6.69796059 46.25 18.3125 C51.540295 24.115383 55.8457646 29.21816728 56.25 37.3125 C54.75 39.75 54.75 39.75 52.25 41.3125 C48.8828125 41.734375 48.8828125 41.734375 45.25 41.3125 C42.7734375 39.08203125 42.7734375 39.08203125 40.625 36.125 C32.12748495 24.66715931 22.44335396 17.61740363 8.25 15.3125 C-1.77405565 14.68727771 -10.59184984 14.6902261 -19.75 19.3125 C-20.61109375 19.73660156 -21.4721875 20.16070312 -22.359375 20.59765625 C-30.19913425 24.86201015 -35.63615361 30.8027737 -40.25 38.375 C-42.75 41.3125 -42.75 41.3125 -44.7265625 41.8828125 C-47.99704165 42.06120227 -50.18608844 41.77067815 -52.75 39.6875 C-54.03330852 36.63964227 -54.04458571 34.60943866 -53.75 31.3125 C-45.44602586 16.1496589 -31.45081096 6.94364936 -15.546875 1.14453125 C-10.3351853 0.00246345 -5.31970872 -0.01654138 0 0 Z " fill="#121116" transform="translate(213.75,405.6875)"/>
<path d="M0 0 C5.13484877 0.6720873 9.74304486 2.14533136 14.60546875 3.84375 C15.43505096 4.12910614 16.26463318 4.41446228 17.11935425 4.70846558 C19.81018378 5.63483727 22.49879589 6.56747973 25.1875 7.5 C28.8873399 8.77541813 32.58826857 10.04766576 36.2890625 11.3203125 C37.20464432 11.63569977 38.12022614 11.95108704 39.06355286 12.27603149 C47.04731351 15.02400605 55.04913364 17.71475934 63.0625 20.375 C64.19002686 20.74947266 65.31755371 21.12394531 66.47924805 21.50976562 C68.98572452 22.34118612 71.49257426 23.17144767 74 24 C73.56787318 25.60444991 73.12260634 27.2053644 72.671875 28.8046875 C72.4253418 29.69655762 72.17880859 30.58842773 71.92480469 31.50732422 C70.42390575 35.5527778 68.73559167 36.84485096 65 39 C58.33656885 39.7624713 52.66237045 37.54756417 46.40625 35.421875 C45.30075806 35.05402893 44.19526611 34.68618286 43.05627441 34.30718994 C40.72478677 33.52869706 38.39501988 32.74503405 36.06689453 31.95654297 C32.51645382 30.75556569 28.96002444 29.57386476 25.40234375 28.39453125 C23.13242963 27.6339542 20.8628855 26.87227187 18.59375 26.109375 C17.53627563 25.75816589 16.47880127 25.40695679 15.38928223 25.04510498 C2.0546067 20.50126033 2.0546067 20.50126033 -1.4375 16.25 C-2.89075474 10.43698104 -2.19640634 5.49101585 0 0 Z " fill="#D8D8E3" transform="translate(393,140)"/>
<path d="M0 0 C6.12566497 0.65856125 11.64610934 2.92248213 17.375 5.0625 C18.39722656 5.43955078 19.41945313 5.81660156 20.47265625 6.20507812 C22.98356127 7.13200101 25.49255574 8.06376447 28 9 C24.80095746 12.25606647 21.56027862 15.37834448 18.0625 18.3125 C17.24910156 19.00988281 16.43570312 19.70726562 15.59765625 20.42578125 C12.42949582 22.34573411 10.64835677 22.42490902 7 22 C3.6725645 20.80618726 0.82825368 19.00830882 -1.4375 16.25 C-2.89075474 10.43698104 -2.19640634 5.49101585 0 0 Z " fill="#EDEDF9" transform="translate(393,140)"/>
</svg>
