<?xml version="1.0" encoding="UTF-8"?>
<svg version="1.1" xmlns="http://www.w3.org/2000/svg" width="512" height="512">
<path d="M0 0 C5.01424747 3.46221849 7.45991935 8.13199747 10.05859375 13.53515625 C10.37248047 14.18385681 10.68636719 14.83255737 11.00976562 15.50091553 C12.03392834 17.62251223 13.04844029 19.74855814 14.0625 21.875 C14.78164916 23.37149809 15.50113616 24.86783387 16.22094727 26.36401367 C21.10452802 36.53638277 25.89155442 46.7523796 30.61889648 56.99829102 C35.06345614 66.63054996 39.5860266 76.22444874 44.125 85.8125 C49.82530038 97.85585707 55.48035634 109.91796654 61.06518555 122.01538086 C63.62428596 127.54739194 66.21497421 133.06069959 68.87109375 138.546875 C69.38752441 139.61446045 69.90395508 140.6820459 70.43603516 141.78198242 C71.41079031 143.78997803 72.39064335 145.79550989 73.37646484 147.7980957 C74.01962646 149.12200317 74.01962646 149.12200317 74.67578125 150.47265625 C75.24292847 151.62713257 75.24292847 151.62713257 75.8215332 152.80493164 C76.625 154.8125 76.625 154.8125 76.625 157.8125 C77.7791454 157.88448955 77.7791454 157.88448955 78.95660686 157.95793343 C87.44433064 158.54210075 95.7858616 159.60866851 104.19262695 160.89794922 C105.60020804 161.11035633 107.00784846 161.32237052 108.4155426 161.5340271 C112.19688848 162.10393467 115.97728618 162.67990107 119.75745797 163.25753927 C122.92587974 163.74124163 126.09471403 164.22221235 129.26353329 164.7033025 C136.73962095 165.83849463 144.21489027 166.97896687 151.68969727 168.12255859 C159.38149889 169.29923161 167.07477778 170.46586437 174.7688182 171.62779987 C181.40025543 172.62968677 188.03064543 173.63830817 194.66026086 174.65217984 C198.60901472 175.25596487 202.5581227 175.85712421 206.50829506 176.45156479 C210.21879035 177.01019267 213.92790432 177.57723893 217.63614464 178.15063858 C219.63508768 178.45762545 221.63533733 178.75606671 223.63562012 179.05419922 C240.04127447 181.61334323 240.04127447 181.61334323 244.5625 186.875 C247.33538431 190.82425947 247.82421607 192.76880096 247.9375 197.5625 C247.97488281 198.58859375 248.01226563 199.6146875 248.05078125 200.671875 C246.97321739 208.62014419 239.76888933 213.86908833 234.3125 219.1875 C232.64727065 220.81779447 230.98447487 222.45057867 229.32421875 224.0859375 C228.59033936 224.80185059 227.85645996 225.51776367 227.1003418 226.25537109 C225.09003281 228.33210217 223.19650768 230.43924559 221.30981445 232.62548828 C217.7032059 236.77998402 213.8819348 240.66698892 209.96875 244.53125 C208.9098053 245.58451477 208.9098053 245.58451477 207.82946777 246.65905762 C204.84602625 249.62633766 201.8565929 252.58755363 198.86767578 255.54931641 C196.67009421 257.72868465 194.47562062 259.91114947 192.28125 262.09375 C191.61750366 262.749198 190.95375732 263.404646 190.26989746 264.07995605 C187.10117152 267.23226476 184.04619618 270.42849534 181.125 273.8125 C177.5870453 277.91097694 173.81980725 281.72833973 169.96875 285.53125 C168.9098053 286.58451477 168.9098053 286.58451477 167.82946777 287.65905762 C164.84602625 290.62633766 161.8565929 293.58755363 158.86767578 296.54931641 C156.67009421 298.72868465 154.47562062 300.91114947 152.28125 303.09375 C151.61750366 303.749198 150.95375732 304.404646 150.26989746 305.07995605 C146.41578045 308.91410481 142.77757788 312.85522337 139.27770996 317.01647949 C137.625 318.8125 137.625 318.8125 135.60803223 320.43566895 C133.52973292 322.14065477 132.09106253 323.55510974 130.625 325.8125 C130.389241 328.33166304 130.389241 328.33166304 130.78697205 331.09086609 C130.90653196 332.16021078 131.02609188 333.22955547 131.14927483 334.33130455 C132.00710723 340.60863109 132.98825233 346.86012999 134.03344727 353.10864258 C134.28032023 354.60635527 134.5267574 356.10413986 134.77279663 357.60198975 C135.29939213 360.80253631 135.82886737 364.00258767 136.36062813 367.20228004 C137.20200538 372.26602729 138.03587506 377.33099377 138.86863708 382.39616394 C140.9366646 394.96740259 143.01490294 407.53695069 145.09423828 420.10632324 C146.71371856 429.8968087 148.33056659 439.68771448 149.93984646 449.47988242 C150.76707393 454.51154978 151.599586 459.54230488 152.4361707 464.57242453 C152.95539224 467.70132196 153.46995522 470.83097252 153.98325729 473.96084595 C154.22155343 475.40793159 154.46176693 476.85470305 154.70407295 478.30112267 C155.03544965 480.28088543 155.35921151 482.26191823 155.68263245 484.24299622 C155.86569222 485.34923245 156.048752 486.45546869 156.23735905 487.59522724 C157.1105749 494.84258731 156.69628553 499.7712376 152.625 505.8125 C148.35007474 509.87889232 144.45987995 511.45339955 138.48046875 511.3203125 C131.68538333 510.11188418 125.59922898 506.11717584 119.625 502.8125 C118.66770996 502.28672363 117.71041992 501.76094727 116.72412109 501.21923828 C110.49431446 497.79269832 104.28364066 494.33253241 98.0796814 490.85949707 C91.48511441 487.17018234 84.86822872 483.52164235 78.25 479.875 C77.03635263 479.20585466 75.82272966 478.53666506 74.60913086 477.86743164 C70.94801213 475.84865249 67.28653949 473.83051587 63.625 471.8125 C49.71937887 464.14857497 35.81434124 456.48362037 21.93103027 448.77932739 C20.21550338 447.82802851 18.49887371 446.8787192 16.78222656 445.92944336 C12.15384449 443.36355888 7.53948296 440.78974828 3.00390625 438.0625 C2.02538696 437.47855469 2.02538696 437.47855469 1.02709961 436.8828125 C-0.58109533 435.91422799 -2.17798259 434.9269294 -3.7734375 433.9375 C-6.96949679 432.55542031 -8.05847682 432.8877118 -11.375 433.8125 C-13.34064364 434.72280864 -15.27378391 435.70483713 -17.1796875 436.734375 C-18.30858398 437.34104004 -19.43748047 437.94770508 -20.60058594 438.57275391 C-21.81721153 439.23571964 -23.03367905 439.89897551 -24.25 440.5625 C-25.51317488 441.24559713 -26.77652344 441.92837319 -28.04003906 442.61083984 C-36.72829248 447.31614776 -45.34549489 452.14268897 -53.92919922 457.03613281 C-60.69592964 460.88769216 -67.51851499 464.62335287 -74.375 468.3125 C-82.26112655 472.55642423 -90.09154544 476.88307578 -97.875 481.3125 C-106.80086148 486.39194666 -115.79753312 491.32490273 -124.84057617 496.19238281 C-131.48944139 499.77529371 -138.0949899 503.42445677 -144.64428711 507.18652344 C-150.36808116 510.45278059 -154.83857097 511.58469045 -161.375 510.8125 C-166.6975758 508.9968065 -169.68554379 505.6742093 -172.375 500.8125 C-175.49340488 491.45728536 -171.56002643 478.89858257 -169.96655273 469.38696289 C-169.71961374 467.88749096 -169.47317878 466.38793596 -169.22720337 464.88830566 C-168.70109703 461.68714557 -168.17159973 458.4865726 -167.63937187 455.28642464 C-166.79737794 450.22297219 -165.96379446 445.15815638 -165.13136292 440.09312439 C-163.51502592 430.26513809 -161.89078842 420.4384664 -160.26524353 410.61199951 C-158.19206991 398.07891001 -156.12098422 385.54548449 -154.06015354 373.01035875 C-153.23245026 367.97765783 -152.39999785 362.94577281 -151.5638293 357.91447175 C-151.04514421 354.78772181 -150.53041751 351.66032955 -150.01674271 348.53275299 C-149.7781675 347.08529252 -149.53794167 345.63810298 -149.29592705 344.19121361 C-148.96530513 342.21321872 -148.6411825 340.23414078 -148.31736755 338.25502014 C-148.04277789 336.59623132 -148.04277789 336.59623132 -147.76264095 334.90393162 C-147.37297631 331.7963611 -147.1416597 328.93800233 -147.375 325.8125 C-149.18212512 323.58697645 -150.83199832 321.82969102 -152.9375 319.9375 C-153.98324978 318.96391614 -155.02618463 317.98730069 -156.06640625 317.0078125 C-156.83405052 316.28617416 -156.83405052 316.28617416 -157.61720276 315.54995728 C-159.38437929 313.80322924 -160.9912469 311.9854039 -162.60327148 310.09521484 C-166.24031916 305.90944125 -170.0870816 301.98860731 -174.03125 298.09375 C-174.73721313 297.39157349 -175.44317627 296.68939697 -176.17053223 295.96594238 C-178.40291358 293.74565397 -180.63852111 291.52866045 -182.875 289.3125 C-185.82590378 286.38840521 -188.77333203 283.46086943 -191.71875 280.53125 C-192.38249634 279.875802 -193.04624268 279.220354 -193.73010254 278.54504395 C-197.53201303 274.76283123 -201.10809695 270.85933553 -204.61169434 266.80065918 C-207.60824651 263.42199215 -210.81903159 260.26580837 -214.03125 257.09375 C-214.73721313 256.39157349 -215.44317627 255.68939697 -216.17053223 254.96594238 C-218.40291358 252.74565397 -220.63852111 250.52866045 -222.875 248.3125 C-225.82590378 245.38840521 -228.77333203 242.46086943 -231.71875 239.53125 C-232.38249634 238.875802 -233.04624268 238.220354 -233.73010254 237.54504395 C-237.60307233 233.69214008 -241.25997106 229.71703989 -244.8288269 225.58129883 C-246.63160877 223.51894341 -248.52340549 221.5798976 -250.48828125 219.671875 C-251.5237207 218.65480469 -251.5237207 218.65480469 -252.58007812 217.6171875 C-254.00285016 216.23001773 -255.42737365 214.84464242 -256.85351562 213.4609375 C-257.53736328 212.78804687 -258.22121094 212.11515625 -258.92578125 211.421875 C-259.54106689 210.82342773 -260.15635254 210.22498047 -260.7902832 209.60839844 C-264.85200888 205.00540135 -264.80307352 200.66415185 -264.6875 194.7265625 C-264.13723539 189.59534503 -261.84920032 187.11115433 -258.10179138 183.8099823 C-252.88945455 180.44039786 -246.38547545 180.20860097 -240.37133789 179.3527832 C-238.98102623 179.14354579 -237.59093555 178.93283521 -236.20105839 178.72073078 C-233.33216257 178.28496798 -230.46224873 177.85720962 -227.59117508 177.43603897 C-222.45813225 176.68101579 -217.3332241 175.8756512 -212.20773983 175.07110882 C-205.95165217 174.09069871 -199.6924471 173.13053651 -193.43359375 172.16796875 C-192.08801601 171.96088005 -190.74244071 171.75377545 -189.39686775 171.54665565 C-183.10310289 170.57801549 -176.80917988 169.61041181 -170.515037 168.64423102 C-163.3194798 167.53964656 -156.12452542 166.43123106 -148.93002552 165.31978148 C-143.30011317 164.450287 -137.66967802 163.58423432 -132.03883702 162.72077447 C-128.70093216 162.20884113 -125.36326553 161.69546283 -122.02615166 161.17839622 C-118.33374119 160.60714596 -114.6405099 160.04152735 -110.94702148 159.47729492 C-109.85780396 159.30748611 -108.76858643 159.13767731 -107.6463623 158.96272278 C-102.84775 158.23519704 -98.24598232 157.58989125 -93.375 157.8125 C-93.20352951 157.26065536 -93.03205902 156.70881073 -92.85539246 156.14024353 C-91.10204934 150.67045585 -88.99194138 145.54325791 -86.48828125 140.37890625 C-86.11427689 139.59621872 -85.74027252 138.81353119 -85.35493469 138.00712585 C-84.55340543 136.33124039 -83.74950591 134.65648681 -82.94342041 132.98278809 C-81.664401 130.32703734 -80.39164526 127.66836728 -79.12060547 125.00878906 C-77.81329559 122.27339125 -76.50567008 119.53815114 -75.19616699 116.80380249 C-71.09522802 108.24002618 -67.03913235 99.6555683 -63 91.0625 C-62.67132935 90.36381805 -62.34265869 89.66513611 -62.00402832 88.94528198 C-57.61919678 79.622858 -53.26729137 70.28563702 -48.9375 60.9375 C-46.75333504 56.22761341 -44.56609399 51.51916687 -42.375 46.8125 C-41.8617215 45.70992859 -41.8617215 45.70992859 -41.33807373 44.58508301 C-39.06907545 39.71411982 -36.79285129 34.84660824 -34.50949097 29.98236084 C-33.76218237 28.38835712 -33.01663354 26.79352701 -32.27297974 25.19781494 C-21.89607775 2.94111073 -21.89607775 2.94111073 -16.375 -0.1875 C-10.93882947 -1.99955684 -5.39284814 -1.8974836 0 0 Z " fill="#FFC106" transform="translate(264.375,1.1875)"/>
</svg>
