<?xml version="1.0" encoding="UTF-8"?>
<svg version="1.1" xmlns="http://www.w3.org/2000/svg" width="512" height="512">
<path d="M0 0 C0.74765625 -0.04898438 1.4953125 -0.09796875 2.265625 -0.1484375 C8.20696062 1.10335334 11.77893841 6.46509646 14.9584198 11.24720764 C15.44780533 12.00351974 15.93719086 12.75983185 16.44140625 13.5390625 C16.97538528 14.34705795 17.50936432 15.15505341 18.05952454 15.98753357 C19.21391189 17.73648818 20.36407455 19.48823712 21.51043701 21.24246216 C23.97692013 25.01670345 26.46360325 28.77748192 28.94903564 32.53926086 C30.25017648 34.50901562 31.55025135 36.47947489 32.8493042 38.4506073 C39.69555624 48.83305858 46.65613072 59.13713771 53.625 69.4375 C60.57682947 79.72058455 67.52100945 90.00809776 74.39453125 100.34375 C74.91345947 101.12390976 75.4323877 101.90406952 75.96704102 102.70787048 C78.3912264 106.35422034 80.81192514 110.00283048 83.22802734 113.65454102 C84.0725603 114.92726656 84.91712225 116.19997287 85.76171875 117.47265625 C86.48834717 118.57101807 87.21497559 119.66937988 87.96362305 120.80102539 C89.64953233 123.3930328 89.64953233 123.3930328 91.75 125.375 C92.27464844 124.58222656 92.79929687 123.78945312 93.33984375 122.97265625 C96.13071114 118.76504848 98.94001808 114.56985737 101.75 110.375 C102.4409375 109.34149414 103.131875 108.30798828 103.84375 107.24316406 C105.7363903 104.41405476 107.63599656 101.58971181 109.53933716 98.76779175 C110.30392949 97.63219239 111.06652988 96.4952493 111.82711792 95.35696411 C112.90931961 93.73827679 113.99944363 92.12489473 115.08984375 90.51171875 C115.72269287 89.57030029 116.35554199 88.62888184 117.00756836 87.65893555 C118.95905576 85.10097498 120.56555875 83.58932747 123.80078125 83.00390625 C124.54714844 82.98199219 125.29351562 82.96007812 126.0625 82.9375 C127.17044922 82.87755859 127.17044922 82.87755859 128.30078125 82.81640625 C134.82884203 84.30526222 138.59777205 90.60368741 142.00390625 95.8828125 C142.49385574 96.62476364 142.98380524 97.36671478 143.48860168 98.13114929 C144.5491999 99.7394198 145.60557251 101.35048332 146.65814209 102.96401978 C148.92419791 106.43767726 151.21044225 109.89787792 153.49554443 113.35902405 C154.70479141 115.19097224 155.91298443 117.02361651 157.12017822 118.85691833 C164.03879267 129.35641401 171.08100554 139.77189813 178.125 150.1875 C182.6715117 156.91340681 187.21432837 163.64177777 191.75 170.375 C192.3107019 171.20652588 192.87140381 172.03805176 193.44909668 172.89477539 C195.09669442 175.34059334 196.74033341 177.78902379 198.3828125 180.23828125 C198.87341156 180.96570023 199.36401062 181.6931192 199.86947632 182.44258118 C213.51849295 202.84731821 219.23122558 226.83196886 215.02734375 251.22265625 C211.50883662 268.26724305 204.13313978 283.64809195 191.74975586 295.92358398 C188.72725182 298.98193757 186.9616639 301.01882044 186.75 305.375 C186.83454559 307.35773047 186.98584168 309.33824014 187.1875 311.3125 C191.27772016 359.53404291 175.7029115 408.26602618 144.75 445.375 C141.20510433 449.49194201 137.49751632 453.44282345 133.75 457.375 C132.98429687 458.20515625 132.21859375 459.0353125 131.4296875 459.890625 C120.5706986 471.30176588 107.41728676 480.62699589 93.75 488.375 C93.15380859 488.72481934 92.55761719 489.07463867 91.94335938 489.43505859 C67.88860003 503.48764587 39.08122612 512.42006035 11.10546875 512.578125 C10.29620438 512.58382507 9.48694 512.58952515 8.65315247 512.59539795 C6.94464398 512.60479274 5.23611782 512.61135979 3.52758789 512.61523438 C0.98223797 512.62483132 -1.56226449 512.65586164 -4.10742188 512.6875 C-18.88096097 512.78300835 -33.40542309 511.08417449 -47.6875 507.1875 C-48.83762573 506.87776245 -48.83762573 506.87776245 -50.01098633 506.56176758 C-76.5885005 499.07700131 -101.54633049 485.62815931 -122.25 467.375 C-123.23355469 466.51261719 -124.21710938 465.65023438 -125.23046875 464.76171875 C-158.35373718 435.29836377 -178.71208662 395.03228805 -185.25 351.375 C-185.4046875 350.36058838 -185.4046875 350.36058838 -185.5625 349.32568359 C-190.15207904 314.55142665 -184.30530332 277.92742856 -169.25 246.375 C-168.8895459 245.61300293 -168.5290918 244.85100586 -168.15771484 244.06591797 C-162.74789291 232.80789606 -156.21298293 222.56210774 -149.078125 212.33203125 C-143.32047523 204.07580243 -137.70584835 195.72347764 -132.08242798 187.37548828 C-130.18376972 184.55696246 -128.28373719 181.73936679 -126.38354492 178.921875 C-117.79113275 166.17611747 -109.23858225 153.40429819 -100.74194336 140.59448242 C-95.6704324 132.9559676 -90.52460626 125.37171019 -85.338974 117.81021118 C-78.94941389 108.48878613 -72.62904215 99.1209959 -66.3125 89.75 C-65.68881531 88.82522858 -65.06513062 87.90045715 -64.42254639 86.94766235 C-56.03575672 74.51083267 -47.68351931 62.05173922 -39.375 49.5625 C-6.59188775 0.29147803 -6.59188775 0.29147803 0 0 Z " fill="#A2DFFA" transform="translate(241.25,-0.375)"/>
<path d="M0 0 C0.74765625 -0.04898438 1.4953125 -0.09796875 2.265625 -0.1484375 C8.20696062 1.10335334 11.77893841 6.46509646 14.9584198 11.24720764 C15.44780533 12.00351974 15.93719086 12.75983185 16.44140625 13.5390625 C16.97538528 14.34705795 17.50936432 15.15505341 18.05952454 15.98753357 C19.21391189 17.73648818 20.36407455 19.48823712 21.51043701 21.24246216 C23.97692013 25.01670345 26.46360325 28.77748192 28.94903564 32.53926086 C30.25017648 34.50901562 31.55025135 36.47947489 32.8493042 38.4506073 C39.69555624 48.83305858 46.65613072 59.13713771 53.625 69.4375 C60.57682947 79.72058455 67.52100945 90.00809776 74.39453125 100.34375 C74.91345947 101.12390976 75.4323877 101.90406952 75.96704102 102.70787048 C78.3912264 106.35422034 80.81192514 110.00283048 83.22802734 113.65454102 C84.0725603 114.92726656 84.91712225 116.19997287 85.76171875 117.47265625 C86.48834717 118.57101807 87.21497559 119.66937988 87.96362305 120.80102539 C89.64953233 123.3930328 89.64953233 123.3930328 91.75 125.375 C92.27464844 124.58222656 92.79929687 123.78945312 93.33984375 122.97265625 C96.13071114 118.76504848 98.94001808 114.56985737 101.75 110.375 C102.4409375 109.34149414 103.131875 108.30798828 103.84375 107.24316406 C105.7363903 104.41405476 107.63599656 101.58971181 109.53933716 98.76779175 C110.30392949 97.63219239 111.06652988 96.4952493 111.82711792 95.35696411 C112.90931961 93.73827679 113.99944363 92.12489473 115.08984375 90.51171875 C115.72269287 89.57030029 116.35554199 88.62888184 117.00756836 87.65893555 C118.95905576 85.10097498 120.56555875 83.58932747 123.80078125 83.00390625 C124.54714844 82.98199219 125.29351562 82.96007812 126.0625 82.9375 C127.17044922 82.87755859 127.17044922 82.87755859 128.30078125 82.81640625 C134.82884203 84.30526222 138.59777205 90.60368741 142.00390625 95.8828125 C142.49385574 96.62476364 142.98380524 97.36671478 143.48860168 98.13114929 C144.5491999 99.7394198 145.60557251 101.35048332 146.65814209 102.96401978 C148.92419791 106.43767726 151.21044225 109.89787792 153.49554443 113.35902405 C154.70479141 115.19097224 155.91298443 117.02361651 157.12017822 118.85691833 C164.03879267 129.35641401 171.08100554 139.77189813 178.125 150.1875 C182.6715117 156.91340681 187.21432837 163.64177777 191.75 170.375 C192.3107019 171.20652588 192.87140381 172.03805176 193.44909668 172.89477539 C195.09669442 175.34059334 196.74033341 177.78902379 198.3828125 180.23828125 C198.87341156 180.96570023 199.36401062 181.6931192 199.86947632 182.44258118 C213.51849295 202.84731821 219.23122558 226.83196886 215.02734375 251.22265625 C211.50883662 268.26724305 204.13313978 283.64809195 191.74975586 295.92358398 C188.72725182 298.98193757 186.9616639 301.01882044 186.75 305.375 C186.83454559 307.35773047 186.98584168 309.33824014 187.1875 311.3125 C191.27772016 359.53404291 175.7029115 408.26602618 144.75 445.375 C141.20510433 449.49194201 137.49751632 453.44282345 133.75 457.375 C132.98429687 458.20515625 132.21859375 459.0353125 131.4296875 459.890625 C120.5706986 471.30176588 107.41728676 480.62699589 93.75 488.375 C93.15380859 488.72481934 92.55761719 489.07463867 91.94335938 489.43505859 C67.88860003 503.48764587 39.08122612 512.42006035 11.10546875 512.578125 C10.29620438 512.58382507 9.48694 512.58952515 8.65315247 512.59539795 C6.94464398 512.60479274 5.23611782 512.61135979 3.52758789 512.61523438 C0.98223797 512.62483132 -1.56226449 512.65586164 -4.10742188 512.6875 C-18.88096097 512.78300835 -33.40542309 511.08417449 -47.6875 507.1875 C-48.83762573 506.87776245 -48.83762573 506.87776245 -50.01098633 506.56176758 C-76.5885005 499.07700131 -101.54633049 485.62815931 -122.25 467.375 C-123.23355469 466.51261719 -124.21710938 465.65023438 -125.23046875 464.76171875 C-158.35373718 435.29836377 -178.71208662 395.03228805 -185.25 351.375 C-185.4046875 350.36058838 -185.4046875 350.36058838 -185.5625 349.32568359 C-190.15207904 314.55142665 -184.30530332 277.92742856 -169.25 246.375 C-168.8895459 245.61300293 -168.5290918 244.85100586 -168.15771484 244.06591797 C-162.74789291 232.80789606 -156.21298293 222.56210774 -149.078125 212.33203125 C-143.32047523 204.07580243 -137.70584835 195.72347764 -132.08242798 187.37548828 C-130.18376972 184.55696246 -128.28373719 181.73936679 -126.38354492 178.921875 C-117.79113275 166.17611747 -109.23858225 153.40429819 -100.74194336 140.59448242 C-95.6704324 132.9559676 -90.52460626 125.37171019 -85.338974 117.81021118 C-78.94941389 108.48878613 -72.62904215 99.1209959 -66.3125 89.75 C-65.68881531 88.82522858 -65.06513062 87.90045715 -64.42254639 86.94766235 C-56.03575672 74.51083267 -47.68351931 62.05173922 -39.375 49.5625 C-6.59188775 0.29147803 -6.59188775 0.29147803 0 0 Z M-0.25 28.375 C-1.1487098 29.59302944 -1.99730657 30.84796874 -2.828125 32.11328125 C-3.39644043 32.9731665 -3.96475586 33.83305176 -4.55029297 34.71899414 C-5.51539795 36.18840454 -5.51539795 36.18840454 -6.5 37.6875 C-7.96487842 39.90189479 -9.43080699 42.11555651 -10.8984375 44.328125 C-11.30671783 44.94406021 -11.71499817 45.55999542 -12.13565063 46.19459534 C-17.46492299 54.22288466 -22.86942143 62.20052682 -28.26467896 70.18453979 C-38.58754142 85.46062864 -48.85779434 100.76974038 -59.0625 116.125 C-66.28385316 126.99005382 -73.56613742 137.7959693 -81.07324219 148.46655273 C-88.63030413 159.2588721 -95.87486939 170.26122569 -103.16577148 181.23413086 C-111.57314992 193.88369097 -120.05619828 206.47980096 -128.60180664 219.03637695 C-140.54190395 236.3401176 -140.54190395 236.3401176 -150.5 254.8125 C-150.91910645 255.70936523 -151.33821289 256.60623047 -151.77001953 257.53027344 C-170.42852358 298.19083894 -170.74282588 344.18604444 -155.29150391 385.96679688 C-153.20554545 391.23636317 -150.81923676 396.3256608 -148.25 401.375 C-147.91274902 402.04789062 -147.57549805 402.72078125 -147.22802734 403.4140625 C-140.03512854 417.56089337 -130.67436506 430.35677843 -119.25 441.375 C-114.25 446.375 -114.25 446.375 -112.796875 448.00390625 C-87.50191639 475.29283683 -46.03073053 490.97919507 -9.31933594 492.49609375 C13.06309089 493.18542011 33.59522443 490.78083195 54.75 483.375 C55.57886719 483.08496094 56.40773438 482.79492188 57.26171875 482.49609375 C75.93841416 475.80723074 92.72661071 466.34827943 107.75 453.375 C108.27674316 452.92125 108.80348633 452.4675 109.34619141 452 C132.70429155 431.66726121 148.23746886 407.32638178 158.75 378.375 C159.36488281 376.70244141 159.36488281 376.70244141 159.9921875 374.99609375 C166.70298263 355.0457842 167.32156585 335.20198018 166.75 314.375 C166.1945752 314.5603833 165.63915039 314.7457666 165.06689453 314.93676758 C163.46332645 315.47168588 161.85928805 316.00519553 160.25488281 316.53759766 C158.73059142 317.04718045 157.20845333 317.56334731 155.69042969 318.09130859 C133.45468568 325.74285659 109.06944102 324.2456846 87.75 314.375 C64.70862755 302.95093522 50.43257543 284.25145445 41.609375 260.3359375 C34.74617714 236.68910122 38.0035088 211.89173594 49.58300781 190.41748047 C52.69018727 184.97926638 56.34204504 179.91715427 59.98974609 174.83349609 C63.3017675 170.20769088 66.57774558 165.55830561 69.81838989 160.88232422 C70.60235459 159.75785656 71.39225699 158.63750402 72.1882019 157.52148438 C73.31100283 155.94715327 74.4137217 154.35855908 75.515625 152.76953125 C76.16305664 151.85018799 76.81048828 150.93084473 77.47753906 149.98364258 C78.91387662 147.51055592 78.91387662 147.51055592 78.77856445 145.05102539 C77.2402787 141.0488535 74.93052772 137.69906037 72.52734375 134.1640625 C71.99540909 133.3683786 71.46347443 132.5726947 70.91542053 131.75289917 C69.1807758 129.16312839 67.43442931 126.58149665 65.6875 124 C64.48061645 122.2041142 63.2742386 120.40788846 62.06835938 118.61132812 C55.46219634 108.78626303 48.78039652 99.01962115 41.96435547 89.33886719 C34.091663 78.10505387 26.55283493 66.64377481 18.97070312 55.21289062 C14.19425567 48.01461409 9.41490553 40.81882538 4.52734375 33.6953125 C3.46181274 32.14094482 3.46181274 32.14094482 2.37475586 30.55517578 C1.83858643 29.83571777 1.30241699 29.11625977 0.75 28.375 C0.42 28.375 0.09 28.375 -0.25 28.375 Z " fill="#000101" transform="translate(241.25,-0.375)"/>
<path d="M0 0 C0.66 0 1.32 0 2 0 C3.33081055 1.66357422 3.33081055 1.66357422 4.88671875 4.0546875 C5.48323242 4.9617041 6.07974609 5.8687207 6.69433594 6.80322266 C7.68095215 8.32375244 7.68095215 8.32375244 8.6875 9.875 C10.14317914 12.08944769 11.60019743 14.3029701 13.05859375 16.515625 C13.44906891 17.10949005 13.83954407 17.7033551 14.24185181 18.31521606 C18.69357588 25.07647198 23.24150635 31.77199163 27.7880249 38.46969604 C30.73435985 42.81330448 33.67120166 47.16333978 36.60992432 51.51210022 C39.50085713 55.78837923 42.40009369 60.05886878 45.30551147 64.32531738 C47.13277608 67.01291825 48.95194396 69.70593027 50.76916504 72.40032959 C51.61446184 73.65008436 52.46304316 74.89762553 53.31530762 76.14263916 C65.41224135 93.82375476 73.20918505 112.41169575 69.34375 134.08203125 C65.58082023 152.0527798 55.87506007 168.05085101 41 179 C23.8000144 189.83512757 5.48039974 193.20776617 -14.5 190 C-28.92860454 186.71593406 -39.86140746 179.52734226 -50 169 C-51.01320313 168.01580078 -51.01320313 168.01580078 -52.046875 167.01171875 C-65.36797769 153.24854407 -68.57238665 134.17900338 -68.2734375 115.828125 C-67.4890641 96.05570249 -54.41244317 79.8179367 -43.6875 64.125 C-41.09899173 60.31815039 -38.51457685 56.50852621 -35.9296875 52.69921875 C-35.27468765 51.73530716 -34.61968781 50.77139557 -33.94483948 49.77827454 C-29.38951904 43.06903551 -24.87278836 36.33515751 -20.3828125 29.58203125 C-19.7814296 28.67757263 -19.18004669 27.77311401 -18.56044006 26.84124756 C-16.24072217 23.35028351 -13.92250155 19.85833907 -11.60775757 16.36407471 C-10.02810085 13.97977389 -8.44584882 11.59721304 -6.86328125 9.21484375 C-6.39693268 8.50858353 -5.93058411 7.8023233 -5.45010376 7.07466125 C-3.75805621 4.52993884 -2.16690997 2.16690997 0 0 Z " fill="#4595E4" transform="translate(367,112)"/>
<path d="M0 0 C2.8100346 1.79363911 4.50940468 3.01880935 6 6 C6.21488562 12.44656855 4.44668328 16.35849207 0.875 21.625 C-16.57334991 47.3656695 -21.91740067 78.78132088 -16.1015625 109.23828125 C-11.77078954 129.19875587 -2.88127347 146.34127028 10 162 C10.52207031 162.67546875 11.04414063 163.3509375 11.58203125 164.046875 C15.95346216 169.53950864 21.46844089 173.7314929 27 178 C27.78246094 178.60972656 28.56492187 179.21945312 29.37109375 179.84765625 C38.69348465 186.74905525 49.28519127 191.76840099 60.1875 195.625 C65.44436 197.57512548 68.2675015 199.04102125 71 204 C71.59077522 207.61849825 71.26276677 209.4219131 69.75 212.75 C67.84757178 215.19597914 66.94413861 216.10040209 64 217 C58.74808516 217.3157593 54.54111945 216.52035781 49.6875 214.625 C49.00453857 214.36170898 48.32157715 214.09841797 47.61791992 213.82714844 C33.85055461 208.29838645 21.26549633 200.62578404 10 191 C9.46036621 190.54399414 8.92073242 190.08798828 8.36474609 189.61816406 C-18.35711162 166.78981654 -35.59197782 133.1808514 -38.83447266 98.16357422 C-41.23147343 66.83286497 -34.11727314 35.91895495 -16.75 9.625 C-16.33790283 9.00044922 -15.92580566 8.37589844 -15.5012207 7.73242188 C-11.273492 1.56866254 -7.74941934 -1.42995238 0 0 Z " fill="#020203" transform="translate(136,243)"/>
<path d="M0 0 C3.5386994 1.65139305 4.81070153 2.71605229 7 6 C7.28821242 9.74676148 7.11592856 12.62047198 6.015625 16.22265625 C3.30129521 26.31787511 3.68079323 37.10820334 8.9375 46.26953125 C12.07918605 50.42869517 15.71284836 53.70788162 19.70703125 57.0390625 C22.6610308 59.56531083 22.92694834 60.36688566 23.375 64.25 C22.88072704 69.19272958 21.46171699 70.53828301 18 74 C15.02536663 75.48731668 13.32721157 75.4313052 10 75 C0.4032708 69.62662477 -7.15922039 60.72452471 -12 51 C-12.41507812 50.17628906 -12.83015625 49.35257813 -13.2578125 48.50390625 C-17.94743823 37.20617153 -18.18157145 20.98221436 -14.3125 9.375 C-11.12431985 2.51929793 -7.96471706 -1.13781672 0 0 Z " fill="#010203" transform="translate(329,204)"/>
<path d="M0 0 C5.53846154 3.07692308 5.53846154 3.07692308 7 6 C7.43103448 13.75862069 7.43103448 13.75862069 5 17 C2.32378584 19.0814999 0.40875611 19.93042449 -2.9375 20.5 C-7.25011712 19.79589925 -8.88856971 18.03907145 -12 15 C-13.41000664 12.17998673 -13.24548451 10.12992745 -13 7 C-10.03303639 0.78350483 -6.7996674 -0.6914916 0 0 Z " fill="#010306" transform="translate(371,268)"/>
<path d="M0 0 C2.87029869 1.79393668 4.49131638 2.98263276 6 6 C6.4136968 10.65408901 5.81070393 13.25239476 3 17 C-1.01544992 19.67696661 -4.28325925 19.92517507 -9 19 C-12.17457096 16.4085135 -13.54580349 14.92564305 -14.47265625 10.99609375 C-14.74924348 7.25862018 -14.07962876 5.12329615 -12.0625 2 C-7.96602574 -0.67524849 -4.76875356 -0.95893414 0 0 Z " fill="#040607" transform="translate(232,449)"/>
</svg>
