<?xml version="1.0" encoding="UTF-8"?>
<svg version="1.1" xmlns="http://www.w3.org/2000/svg" width="512" height="512">
<path d="M0 0 C0.79981293 -0.00696899 1.59962585 -0.01393799 2.42367554 -0.02111816 C4.98432747 -0.03838357 7.54476109 -0.04483424 10.10546875 -0.046875 C10.97547516 -0.04788208 11.84548157 -0.04888916 12.74185181 -0.04992676 C22.70146748 -0.04211016 32.60609426 -0.00461691 42.48046875 1.453125 C43.24915283 1.56237305 44.01783691 1.67162109 44.80981445 1.78417969 C47.82853912 2.32193964 50.11104827 3.08244212 52.671875 4.78125 C54.97929591 8.22848124 55.51247484 11.67191977 56.04296875 15.703125 C56.16365723 16.59459229 56.2843457 17.48605957 56.40869141 18.40454102 C58.9970685 40.58879982 58.70179268 64.30524925 54.29296875 86.203125 C54.1213623 87.06856934 53.94975586 87.93401367 53.77294922 88.82568359 C45.35099765 129.98712515 25.39332554 166.11352095 -3.70703125 196.203125 C-4.45210938 196.99976563 -5.1971875 197.79640625 -5.96484375 198.6171875 C-11.77340695 204.68295645 -18.22110796 209.80194579 -24.91162109 214.84765625 C-26.06245724 215.71649529 -27.20904355 216.59100969 -28.35009766 217.47265625 C-52.70446918 236.25839737 -89.24666492 255.203125 -120.70703125 255.203125 C-120.70703125 296.123125 -120.70703125 337.043125 -120.70703125 379.203125 C-94.55891726 379.04479464 -94.55891726 379.04479464 -68.41113281 378.84277344 C-63.35107422 378.82470703 -63.35107422 378.82470703 -60.98138428 378.8213501 C-59.32818292 378.81521224 -57.67499936 378.8011529 -56.02191162 378.78082275 C-53.51591949 378.75154701 -51.0110203 378.7475006 -48.50488281 378.74902344 C-47.76980625 378.734631 -47.03472969 378.72023857 -46.27737808 378.70541 C-42.98832034 378.73216989 -41.00827467 379.00051231 -38.25378418 380.85314941 C-36.28751892 383.84048841 -36.1906087 385.69025299 -36.16113281 389.25683594 C-36.14141418 390.47779968 -36.12169556 391.69876343 -36.10137939 392.95672607 C-36.09953644 394.92720917 -36.09953644 394.92720917 -36.09765625 396.9375 C-36.08267132 398.29943812 -36.0659435 399.66135809 -36.04754639 401.02325439 C-36.00389455 404.60053348 -35.98387902 408.17756746 -35.96881104 411.75506592 C-35.94923179 415.4084725 -35.90726284 419.06161468 -35.8671875 422.71484375 C-35.79190918 429.87753305 -35.74160381 437.04011129 -35.70703125 444.203125 C-35.01706055 444.54448486 -34.32708984 444.88584473 -33.61621094 445.23754883 C-32.71290039 445.68638428 -31.80958984 446.13521973 -30.87890625 446.59765625 C-29.98268555 447.04214111 -29.08646484 447.48662598 -28.16308594 447.94458008 C-21.4017926 451.40923884 -17.77448469 456.34050394 -14.70703125 463.203125 C-11.94185771 473.06839478 -12.26544185 481.7110063 -16.83203125 490.890625 C-20.82457311 497.49816504 -26.76759526 502.65970536 -33.95703125 505.54296875 C-42.19349858 507.52018889 -52.19008265 507.64125544 -59.75390625 503.52734375 C-68.01426947 497.92681749 -74.39942156 491.22578354 -76.42578125 481.19140625 C-77.74048618 471.89717279 -76.10285329 462.95315656 -70.45703125 455.328125 C-65.88609661 449.93750799 -61.32581473 446.85063839 -54.70703125 444.203125 C-54.37703125 428.363125 -54.04703125 412.523125 -53.70703125 396.203125 C-61.95767578 396.25533203 -61.95767578 396.25533203 -70.375 396.30859375 C-73.86133875 396.32392385 -77.3476359 396.3383658 -80.83398438 396.34960938 C-86.36670572 396.36753714 -91.89927801 396.38873726 -97.43188477 396.42944336 C-101.89281662 396.46205892 -106.35358861 396.47998268 -110.81463051 396.48775673 C-112.51587757 396.49329629 -114.21711597 396.50411376 -115.91829491 396.52031517 C-118.30273669 396.54211891 -120.68651935 396.54509074 -123.07104492 396.54370117 C-124.12409065 396.55987991 -124.12409065 396.55987991 -125.19841003 396.5763855 C-129.54500923 396.54900866 -132.26013048 395.87721277 -135.70703125 393.203125 C-137.94142678 389.85153171 -137.96318475 388.74818511 -137.98550415 384.83113098 C-137.99666763 383.71633865 -138.00783112 382.60154633 -138.01933289 381.45297241 C-138.02149307 380.22946075 -138.02365326 379.0059491 -138.02587891 377.74536133 C-138.03592453 376.45745193 -138.04597015 375.16954254 -138.05632019 373.84260559 C-138.08365142 370.30985074 -138.09877877 366.77713584 -138.11174822 363.24430299 C-138.12736515 359.55268912 -138.15415993 355.861157 -138.17977905 352.16960144 C-138.22659237 345.17862011 -138.26332408 338.18762344 -138.29645193 331.19656533 C-138.33465531 323.2377092 -138.38407012 315.27893512 -138.43443608 307.32014811 C-138.53779389 290.94786597 -138.62704173 274.57553834 -138.70703125 258.203125 C-140.0825415 258.21098022 -140.0825415 258.21098022 -141.48583984 258.21899414 C-144.93376309 258.23617937 -148.38163988 258.24864424 -151.82958984 258.25805664 C-153.31332117 258.26304208 -154.79704771 258.26983285 -156.28076172 258.27856445 C-158.43067622 258.29088696 -160.58052501 258.29641126 -162.73046875 258.30078125 C-164.01872559 258.30601807 -165.30698242 258.31125488 -166.63427734 258.31665039 C-171.33803026 258.18553631 -176.02480423 257.6713477 -180.70703125 257.203125 C-180.37703125 318.913125 -180.04703125 380.623125 -179.70703125 444.203125 C-176.40703125 445.853125 -173.10703125 447.503125 -169.70703125 449.203125 C-162.3769553 455.38616969 -158.37900184 462.82488795 -157.51171875 472.34765625 C-157.09834564 481.097387 -159.36706208 488.80534663 -165.01953125 495.578125 C-170.86948936 501.67808132 -176.59442618 505.71458718 -185.22265625 506.5390625 C-196.48690032 506.65688932 -204.59725326 505.04788611 -212.94921875 497.203125 C-219.9589959 489.22755633 -221.19166891 481.30506067 -220.98046875 470.96875 C-220.35099978 462.30006299 -215.99224909 456.01948586 -209.70703125 450.203125 C-206.20485814 447.60868426 -202.84654366 445.58296247 -198.70703125 444.203125 C-198.37703125 383.483125 -198.04703125 322.763125 -197.70703125 260.203125 C-203.97703125 262.183125 -210.24703125 264.163125 -216.70703125 266.203125 C-220.35982052 267.0845077 -223.90277436 267.90861081 -227.58203125 268.578125 C-228.40832031 268.74183594 -229.23460937 268.90554688 -230.0859375 269.07421875 C-234.04621349 269.83311222 -237.66669213 270.23212028 -241.70703125 270.203125 C-241.70334408 270.82303944 -241.69965691 271.44295387 -241.695858 272.08165359 C-241.60753577 287.16279788 -241.54133582 302.24386288 -241.49978256 317.32519913 C-241.47915377 324.61842382 -241.4510274 331.91147592 -241.40527344 339.20458984 C-241.36541503 345.56098888 -241.33960073 351.91726292 -241.33067727 358.27378345 C-241.32546072 361.63984572 -241.31319416 365.0055504 -241.28411102 368.37149811 C-241.25517871 372.12841717 -241.25107115 375.88458947 -241.25292969 379.64160156 C-241.23854858 380.75865982 -241.22416748 381.87571808 -241.20935059 383.02662659 C-241.21484924 384.05023788 -241.2203479 385.07384918 -241.22601318 386.128479 C-241.22232601 387.01708744 -241.21863884 387.90569588 -241.21483994 388.82123184 C-241.86768264 391.98057561 -243.26485649 393.16849893 -245.70703125 395.203125 C-248.71208955 396.70565415 -251.79960058 396.33305259 -255.09423828 396.31665039 C-255.85530884 396.31679642 -256.61637939 396.31694244 -257.4005127 396.3170929 C-259.92198514 396.31639493 -262.44338417 396.30860794 -264.96484375 396.30078125 C-266.71076416 396.29891666 -268.45668509 396.29749295 -270.2026062 396.29649353 C-274.80248453 396.29267159 -279.40233139 396.28284405 -284.00219727 396.27178955 C-289.51880747 396.25977209 -295.03542819 396.25517165 -300.55204773 396.24933624 C-308.93706414 396.23963214 -317.32201147 396.22047332 -325.70703125 396.203125 C-325.37703125 412.043125 -325.04703125 427.883125 -324.70703125 444.203125 C-321.40703125 445.853125 -318.10703125 447.503125 -314.70703125 449.203125 C-308.58896452 454.43308527 -304.25148986 460.1632797 -302.70703125 468.203125 C-301.86202843 479.20201421 -302.89728059 487.77719802 -309.89453125 496.515625 C-315.39067485 502.36712272 -322.03307238 505.86769972 -330.02734375 506.44140625 C-339.48453159 506.62588938 -347.27966297 505.79325182 -355.01953125 499.890625 C-362.14476413 492.76539212 -365.74946228 485.50773554 -366.14453125 475.328125 C-365.83697655 465.64630296 -362.60388948 458.52135083 -356.29296875 451.2734375 C-353.77205613 449.25518419 -351.43509323 447.98955561 -348.54541016 446.57373047 C-347.6406192 446.1283493 -346.73582825 445.68296814 -345.80361938 445.22409058 C-345.1117453 444.88717194 -344.41987122 444.5502533 -343.70703125 444.203125 C-343.70560623 443.46254349 -343.70418121 442.72196198 -343.70271301 441.9589386 C-343.68486277 434.97005117 -343.64318947 427.98166519 -343.57494068 420.99310017 C-343.54068997 417.40034496 -343.51556387 413.80801407 -343.51147461 410.21508789 C-343.50718724 406.74578392 -343.47869109 403.27743677 -343.43359947 399.80843163 C-343.41434195 397.84489946 -343.41997768 395.88117419 -343.42597961 393.91755676 C-343.39651497 392.11625557 -343.39651497 392.11625557 -343.36645508 390.27856445 C-343.35979324 389.22377396 -343.35313141 388.16898346 -343.3462677 387.08222961 C-342.45439627 383.06526352 -341.01070795 381.61938155 -337.70703125 379.203125 C-334.88985702 378.73265474 -332.69216451 378.56562184 -329.88745117 378.63549805 C-329.10378583 378.63489537 -328.32012049 378.6342927 -327.51270771 378.63367176 C-324.98690545 378.63739098 -322.46297019 378.67539967 -319.9375 378.71484375 C-318.3739104 378.72219931 -316.81030849 378.72729766 -315.2467041 378.73010254 C-309.46245818 378.7562692 -303.67847618 378.82607587 -297.89453125 378.890625 C-284.96265625 378.99375 -272.03078125 379.096875 -258.70703125 379.203125 C-258.70703125 343.563125 -258.70703125 307.923125 -258.70703125 271.203125 C-259.36703125 271.533125 -260.02703125 271.863125 -260.70703125 272.203125 C-305.93927567 274.1719518 -352.42904969 256.65170846 -385.95703125 226.578125 C-386.76269531 225.83433594 -387.56835938 225.09054688 -388.3984375 224.32421875 C-390.52198561 222.37314155 -392.69378806 220.50344218 -394.89453125 218.640625 C-425.91124993 191.54665781 -445.18193013 146.77063123 -448.98046875 106.2890625 C-449.01398438 105.39445312 -449.0475 104.49984375 -449.08203125 103.578125 C-449.13101562 102.67835937 -449.18 101.77859375 -449.23046875 100.8515625 C-448.45338189 96.91973496 -446.84833641 95.66673742 -443.70703125 93.203125 C-440.58784709 91.60717794 -437.37502183 90.3918946 -434.08203125 89.203125 C-433.15197266 88.86063721 -432.22191406 88.51814941 -431.26367188 88.1652832 C-422.21371698 84.9051798 -413.1165846 82.20243714 -403.70703125 80.203125 C-402.94116699 80.03941406 -402.17530273 79.87570313 -401.38623047 79.70703125 C-353.07047668 69.94505052 -302.58350657 81.50771255 -261.51855469 107.98925781 C-234.66066751 125.98621402 -215.61896456 150.46520367 -199.70703125 178.203125 C-198.15826559 173.89474053 -197.06193624 169.58367989 -196.06054688 165.12646484 C-189.89005538 137.79358384 -179.17196102 112.03557001 -162.70703125 89.203125 C-162.07933838 88.32744873 -162.07933838 88.32744873 -161.43896484 87.43408203 C-155.44809215 79.16653747 -148.76740901 71.56548841 -141.70703125 64.203125 C-140.95099609 63.40624268 -140.95099609 63.40624268 -140.1796875 62.59326172 C-104.65343588 25.30620149 -51.86097013 0.30637485 0 0 Z " fill="#010101" transform="translate(451.70703125,2.796875)"/>
<path d="M0 0 C1.26376465 -0.0093457 2.5275293 -0.01869141 3.82958984 -0.02832031 C11.64202657 -0.0016672 19.03017886 0.69317982 26.6875 2.25 C30.20889035 20.98091756 29.58556315 40.46368372 26.6875 59.25 C26.5745459 60.03697266 26.4615918 60.82394531 26.34521484 61.63476562 C20.81905012 99.12687116 3.40436436 134.32998379 -22.3046875 162.03125 C-23.70600678 163.57978959 -25.04767893 165.18349309 -26.33984375 166.82421875 C-28.11480757 169.00689704 -29.85833211 170.75308247 -32 172.5625 C-34.11490946 174.36094491 -36.2103811 176.15410786 -38.234375 178.0546875 C-72.15524995 209.74046604 -120.5186481 226.14155954 -166.4375 225.4375 C-168.18618612 225.42239431 -169.93488517 225.40871653 -171.68359375 225.39648438 C-175.89355957 225.36401697 -180.10287856 225.31257632 -184.3125 225.25 C-183.53237549 224.34749512 -182.75225098 223.44499023 -181.94848633 222.51513672 C-179.14298189 219.24900572 -176.40468854 215.93205355 -173.6706543 212.60595703 C-167.65404661 205.34108273 -161.40812567 198.2963883 -155 191.375 C-154.42690094 190.7553537 -153.85380188 190.1357074 -153.26333618 189.49728394 C-139.10592645 174.32850701 -126.74218628 162.71992378 -105.35539246 161.48269653 C-95.63760071 161.33962844 -85.81018133 162.04537121 -76.21577454 163.61605835 C-70.32640539 164.6430829 -70.32640539 164.6430829 -65.11914062 162.05273438 C-62.97952287 159.28919498 -62.97952287 159.28919498 -63.3125 155.5625 C-64.00633331 151.99460887 -64.00633331 151.99460887 -67.3125 150.25 C-69.26770809 149.92508765 -69.26770809 149.92508765 -71.41674805 149.93115234 C-72.23737228 149.91128265 -73.05799652 149.89141296 -73.90348816 149.87094116 C-74.78482925 149.85938995 -75.66617035 149.84783875 -76.57421875 149.8359375 C-77.48001175 149.81657135 -78.38580475 149.7972052 -79.31904602 149.7772522 C-82.21260151 149.71746458 -85.1061968 149.67107432 -88 149.625 C-89.96160591 149.58681946 -91.92319506 149.54776769 -93.88476562 149.5078125 C-98.6938744 149.41176368 -103.50306166 149.32772957 -108.3125 149.25 C-107.93847046 148.82326996 -107.56444092 148.39653992 -107.17907715 147.95687866 C-104.61683375 145.0051876 -102.1142261 142.04548186 -99.79101562 138.90087891 C-82.33058954 115.3854407 -82.33058954 115.3854407 -68.57861328 112.93701172 C-57.53499454 111.65838505 -46.21962917 112.103355 -35.17701721 113.2542572 C-30.67967466 113.63073189 -28.99084797 113.74316416 -25.21459961 110.99780273 C-22.96270105 108.30166099 -22.96270105 108.30166099 -23.3125 104.5625 C-24.00633331 100.99460887 -24.00633331 100.99460887 -27.3125 99.25 C-30.51240054 98.88000663 -30.51240054 98.88000663 -34.16796875 98.8359375 C-34.82960526 98.81657135 -35.49124176 98.7972052 -36.17292786 98.7772522 C-38.28182164 98.71757313 -40.39077037 98.67111913 -42.5 98.625 C-43.93166415 98.58680934 -45.36330559 98.54775697 -46.79492188 98.5078125 C-50.30057312 98.41188227 -53.80639445 98.32780803 -57.3125 98.25 C-52.48375963 92.38394062 -47.20910634 87.02720352 -41.81928062 81.68161583 C-40.232461 80.1076989 -38.6489088 78.53055708 -37.06611633 76.95259094 C-33.71356611 73.61138604 -30.35706443 70.27416842 -27 66.9375 C-23.0903428 63.05146106 -19.18233129 59.16379574 -15.27848244 55.27192116 C-13.71776923 53.71769216 -12.154079 52.16650102 -10.59025574 50.61540222 C-9.63904402 49.66782094 -8.68797125 48.72010015 -7.73706055 47.7722168 C-6.90466354 46.94505661 -6.07226654 46.11789642 -5.21464539 45.26567078 C-2.16644008 42.03554 -1.95827095 39.60759774 -2.0390625 35.1640625 C-2.17889602 33.07994159 -2.17889602 33.07994159 -3.875 31.1875 C-7.42468142 29.82223791 -9.63102761 30.35529474 -13.3125 31.25 C-15.62052607 33.05847316 -17.45138462 34.70517897 -19.4296875 36.81640625 C-19.97231232 37.36989243 -20.51493713 37.9233786 -21.07400513 38.49363708 C-22.79328381 40.25291162 -24.4906411 42.03161673 -26.1875 43.8125 C-27.91002486 45.59236239 -29.6367446 47.36803562 -31.36526489 49.14207458 C-32.43701689 50.24505779 -33.50442463 51.35228151 -34.56710815 52.46400452 C-35.79708689 53.7440259 -37.05223829 54.99978288 -38.3125 56.25 C-38.6425 56.25 -38.9725 56.25 -39.3125 56.25 C-39.3218457 55.50838623 -39.33119141 54.76677246 -39.34082031 54.00268555 C-39.39445751 50.64694286 -39.47811793 47.29260438 -39.5625 43.9375 C-39.57667969 42.77025391 -39.59085938 41.60300781 -39.60546875 40.40039062 C-39.63769531 39.28212891 -39.66992188 38.16386719 -39.703125 37.01171875 C-39.72407227 35.98006592 -39.74501953 34.94841309 -39.76660156 33.88549805 C-40.08139602 31.14068995 -40.08139602 31.14068995 -42.16308594 29.42114258 C-45.14709431 27.79525796 -46.96679404 27.69238234 -50.3125 28.25 C-52.72846787 30.25596878 -52.72846787 30.25596878 -54.3125 33.25 C-54.144875 35.95115168 -53.80151121 38.18847001 -53.234375 40.80078125 C-51.35710737 53.09704901 -50.33104207 65.65163708 -57.44506836 76.50286865 C-63.85809495 85.01479108 -71.58195013 92.45255636 -79.3125 99.75 C-79.88385178 100.29006809 -80.45520355 100.83013618 -81.04386902 101.38656998 C-102.14448685 121.25 -102.14448685 121.25 -104.3125 121.25 C-104.31836624 120.5447821 -104.32423248 119.83956421 -104.33027649 119.11297607 C-104.38821462 112.4623079 -104.46029735 105.81196041 -104.54821491 99.16161728 C-104.59291555 95.74269728 -104.63217187 92.32389635 -104.65893555 88.90478516 C-104.68995412 84.9727227 -104.74474353 81.04116374 -104.80078125 77.109375 C-104.80717117 75.88321472 -104.8135611 74.65705444 -104.82014465 73.39373779 C-104.83993881 72.25285706 -104.85973297 71.11197632 -104.88012695 69.93652344 C-104.89123001 68.93280701 -104.90233307 67.92909058 -104.91377258 66.8949585 C-105.37220876 63.85392193 -106.20837859 62.46173535 -108.3125 60.25 C-110.24994199 59.65914 -110.24994199 59.65914 -112.3125 59.8125 C-112.993125 59.81378906 -113.67375 59.81507812 -114.375 59.81640625 C-116.97860396 60.39906762 -117.73891138 61.08432294 -119.3125 63.25 C-119.59620496 66.3924951 -119.59620496 66.3924951 -119.30053711 70.03100586 C-119.22969695 71.45693633 -119.15957699 72.88290272 -119.09007263 74.30889893 C-119.04810698 75.06615517 -119.00614132 75.82341141 -118.96290398 76.60361481 C-115.81005532 137.09917636 -115.81005532 137.09917636 -128.42405701 151.58668518 C-134.248237 157.49232224 -140.9508428 162.44185138 -148.3125 166.25 C-148.6425 166.25 -148.9725 166.25 -149.3125 166.25 C-149.32651855 164.59230591 -149.32651855 164.59230591 -149.34082031 162.90112305 C-149.38067981 158.8025678 -149.44642637 154.70476642 -149.52001953 150.60668945 C-149.54825279 148.83269939 -149.56945563 147.05858299 -149.58349609 145.28442383 C-149.60489381 142.73452968 -149.65152435 140.18615834 -149.703125 137.63671875 C-149.70435364 136.84287277 -149.70558228 136.04902679 -149.70684814 135.23112488 C-149.80176959 130.81805498 -149.80176959 130.81805498 -152.15917969 127.24145508 C-156.04062624 125.45431739 -159.34988744 125.92912915 -163.3125 127.25 C-164.33525961 130.31827883 -164.32216471 131.82020195 -164.04174805 134.97973633 C-160.52630839 179.80334618 -160.52630839 179.80334618 -172.0546875 193.4375 C-178.94458808 200.98438416 -186.95211648 207.40928623 -195.3125 213.25 C-195.9725 212.92 -196.6325 212.59 -197.3125 212.25 C-197.78769141 193.11075233 -197.34986045 175.06337872 -193.3125 156.25 C-193.01959503 154.75675278 -192.72784803 153.26327775 -192.4375 151.76953125 C-182.55432774 103.39489253 -151.05077679 60.206629 -110.54394531 32.71923828 C-104.66559308 28.84878711 -98.57351913 25.45664918 -92.3125 22.25 C-91.58482422 21.87391602 -90.85714844 21.49783203 -90.10742188 21.11035156 C-71.68417203 11.69349764 -52.71938809 5.57598452 -32.3125 2.25 C-31.30268066 2.07428467 -31.30268066 2.07428467 -30.27246094 1.89501953 C-20.22016574 0.18922158 -10.17709132 0.04786002 0 0 Z " fill="#ABFDAB" transform="translate(464.3125,18.75)"/>
<path d="M0 0 C1.12148437 0.54140625 2.24296875 1.0828125 3.3984375 1.640625 C18.26514994 9.20245898 31.1291208 19.39001924 43 31 C43.7734375 31.7115625 44.546875 32.423125 45.34375 33.15625 C57.38643792 44.50081108 66.43537491 58.40034869 74 73 C74.64299987 74.20715341 75.28622373 75.41418755 75.9296875 76.62109375 C82.46503048 89.20092777 90 105.49127473 90 120 C61.52887667 109.01258005 61.52887667 109.01258005 56.390625 99.0703125 C55.19430061 95.63873931 54.72899771 92.14908055 54.34716797 88.54589844 C53.63640036 83.33360266 52.12969641 78.27317251 50.8125 73.1875 C50.56081055 72.14279541 50.30912109 71.09809082 50.04980469 70.02172852 C49.81293945 69.03873779 49.57607422 68.05574707 49.33203125 67.04296875 C49.01842651 65.72848755 49.01842651 65.72848755 48.69848633 64.38745117 C48.01549306 62.05295584 47.24501555 60.08825318 46 58 C42.95016004 56.47508002 40.3576631 56.76437452 37 57 C34.89757556 57.85219923 34.89757556 57.85219923 34 60 C33.58787809 66.39499517 34.75523834 71.64270199 36.5625 77.75 C37.05196957 79.40882897 37.53279889 81.07023803 38.00390625 82.734375 C38.21861572 83.45850586 38.4333252 84.18263672 38.65454102 84.92871094 C39.04285826 87.25696784 38.72236212 88.77300432 38 91 C34.33157655 89.06451513 30.68604234 87.09257246 27.05639648 85.08569336 C25.82134369 84.40952011 24.58079551 83.74327862 23.3347168 83.08764648 C11.65506019 76.9274111 11.65506019 76.9274111 9.87890625 71.7421875 C9.55262557 70.16799682 9.26166426 68.58621159 9 67 C8.48849862 65.11188614 7.9614131 63.22795044 7.421875 61.34765625 C6.86232121 59.25320721 6.30513546 57.15812445 5.75 55.0625 C5.29983521 53.38776611 5.29983521 53.38776611 4.84057617 51.67919922 C3.23100058 45.68234694 1.65805705 39.6780269 0.12890625 33.66015625 C-0.32790527 31.89176392 -0.32790527 31.89176392 -0.79394531 30.08764648 C-1.37898048 27.8205553 -1.95298933 25.55058319 -2.51464844 23.27758789 C-2.78180664 22.25012451 -3.04896484 21.22266113 -3.32421875 20.1640625 C-3.55197998 19.26123535 -3.77974121 18.3584082 -4.0144043 17.42822266 C-5.19667517 14.51544929 -6.57937733 12.98564265 -9 11 C-12.63632575 10.39394571 -14.28314769 10.52838664 -17.375 12.5625 C-19.63333574 15.95000361 -19.2796843 17.93658673 -19 22 C-18.25551137 25.38767551 -17.26392505 28.68433813 -16.25 32 C-15.69965124 33.86432685 -15.15017777 35.7289123 -14.6015625 37.59375 C-14.32989258 38.50769531 -14.05822266 39.42164063 -13.77832031 40.36328125 C-12.68575223 44.06457841 -11.6392757 47.77656546 -10.625 51.5 C-10.30789062 52.6446875 -9.99078125 53.789375 -9.6640625 54.96875 C-9.05137607 57.76548334 -8.86181168 60.15119468 -9 63 C-17.32839906 59.01398334 -25.44267743 54.79445213 -33.30371094 49.94433594 C-37.14986178 47.5866819 -40.9439133 45.53608972 -45.09375 43.7578125 C-57.37519405 38.19732998 -57.37519405 38.19732998 -60.36572266 32.3125 C-62.4784618 26.27109759 -63.55560439 20.12018031 -64.50292969 13.80712891 C-65.3780868 8.86481235 -66.52173106 3.79504086 -69.75 -0.125 C-73.13062235 -1.43968647 -75.54246233 -0.89639865 -79 0 C-81.52709825 3.79064738 -81.47756345 6.61887445 -81 11 C-80.14405858 15.04222046 -79.11390887 19.02175402 -78 23 C-81.3544756 21.73880836 -84.32839518 20.29970536 -87.36328125 18.3984375 C-88.16830078 17.90859375 -88.97332031 17.41875 -89.80273438 16.9140625 C-91.47091245 15.89108638 -93.13248245 14.85725259 -94.78710938 13.8125 C-100.17226501 10.56853374 -103.69717137 9.22437475 -110 10 C-112.25463249 11.4228264 -112.25463249 11.4228264 -113 14 C-113.48108188 17.47910224 -113.48108188 17.47910224 -112 21 C-105.51133395 26.58399626 -97.17314005 30.42894009 -89.75 34.625 C-88.51706186 35.32518507 -87.28431666 36.02570998 -86.05175781 36.7265625 C-83.5678865 38.1385113 -81.08313181 39.54888506 -78.59765625 40.95800781 C-73.3074714 43.95863866 -68.02904963 46.97983668 -62.75 50 C-61.03651546 50.97926663 -59.32298006 51.95844428 -57.609375 52.9375 C-56.40625 53.625 -55.203125 54.3125 -54 55 C-54 55.66 -54 56.32 -54 57 C-54.58491211 57.14099121 -55.16982422 57.28198242 -55.77246094 57.42724609 C-58.43287758 58.07150804 -61.09142708 58.72317358 -63.75 59.375 C-64.67039062 59.59671875 -65.59078125 59.8184375 -66.5390625 60.046875 C-67.42851563 60.26601562 -68.31796875 60.48515625 -69.234375 60.7109375 C-70.05131836 60.90993652 -70.86826172 61.10893555 -71.70996094 61.31396484 C-73.99864547 61.99959422 -75.9443645 62.78334136 -78 64 C-79.40457737 66.80915474 -79.24895157 68.88810534 -79 72 C-78.23608998 74.51869332 -78.23608998 74.51869332 -76 76 C-68.93291597 76.50032453 -63.21450463 75.22633696 -56.5 73.125 C-34.9168426 66.55894484 -34.9168426 66.55894484 -27.30419922 70.33837891 C-24.13810572 72.09686575 -21.03531353 73.93646564 -17.9375 75.8125 C-16.87466797 76.44220703 -15.81183594 77.07191406 -14.71679688 77.72070312 C-9.72471497 80.69225469 -4.78654091 83.70666076 0 87 C-2.85921354 88.52731739 -5.61938635 89.56357991 -8.73828125 90.4375 C-10.09276367 90.82035156 -10.09276367 90.82035156 -11.47460938 91.2109375 C-12.41111328 91.47132813 -13.34761719 91.73171875 -14.3125 92 C-15.23740234 92.26039063 -16.16230469 92.52078125 -17.11523438 92.7890625 C-18.02208984 93.04429687 -18.92894531 93.29953125 -19.86328125 93.5625 C-20.74193848 93.81128906 -21.6205957 94.06007813 -22.52587891 94.31640625 C-24.06408253 94.74140824 -25.60750377 95.14847343 -27.15771484 95.52734375 C-31.32262856 96.56767564 -31.32262856 96.56767564 -34 100 C-34.34745351 103.26606297 -34.28373354 105.36577208 -32.9375 108.375 C-29.99997183 110.8387333 -27.78209556 110.22445671 -24 110 C-20.91528394 109.4459022 -17.90399354 108.67570629 -14.875 107.875 C-14.01769287 107.65561768 -13.16038574 107.43623535 -12.27709961 107.21020508 C-4.76944502 105.26443102 2.68410847 103.12420803 10.10791016 100.88037109 C11.35193604 100.51226318 11.35193604 100.51226318 12.62109375 100.13671875 C13.3473999 99.91717529 14.07370605 99.69763184 14.82202148 99.47143555 C19.69679125 98.41626455 22.56492226 98.96507288 26.82421875 101.53515625 C27.7579834 102.09009766 28.69174805 102.64503906 29.65380859 103.21679688 C30.65492676 103.82587891 31.65604492 104.43496094 32.6875 105.0625 C34.83930696 106.34595248 36.99167105 107.62847126 39.14453125 108.91015625 C40.26424316 109.58062988 41.38395508 110.25110352 42.53759766 110.94189453 C48.2756573 114.36514913 54.0797506 117.67488429 59.875 121 C67.29476843 125.26134208 74.68056608 129.56816089 82 134 C50.06033404 150.2370841 6.00968978 146.61334497 -27.21923828 136.31201172 C-47.92420955 129.49069988 -67.65273928 118.39874822 -84 104 C-84.87398437 103.23558594 -85.74796875 102.47117187 -86.6484375 101.68359375 C-89.12692361 99.48421644 -91.57050397 97.25326316 -94 95 C-94.59167969 94.46246094 -95.18335938 93.92492187 -95.79296875 93.37109375 C-119.42429205 70.97466145 -138.27064243 34.39531503 -142 2 C-142.02656833 -0.33318207 -142.03107069 -2.66687354 -142 -5 C-95.50042825 -23.77506262 -45.04411497 -22.30450838 0 0 Z " fill="#73DD73" transform="translate(162,114)"/>
<path d="M0 0 C8.19973869 4.86179197 13.3523236 11.10893369 16.20703125 20.30859375 C17.93648685 31.0489979 16.02759909 40.46537235 10.08203125 49.55859375 C5.20861676 54.22012065 -0.23422928 57.66890888 -6.79296875 59.30859375 C-6.79296875 72.50859375 -6.79296875 85.70859375 -6.79296875 99.30859375 C-3.48692627 99.28240967 -0.18088379 99.25622559 3.2253418 99.22924805 C14.14168886 99.1464438 25.0580497 99.09118779 35.97462749 99.04953289 C42.59417504 99.02342615 49.21340114 98.9880071 55.83276367 98.93139648 C62.21941607 98.87711714 68.60575905 98.84718133 74.99262428 98.83420753 C77.43074223 98.82496048 79.86884303 98.80690334 82.30682945 98.77994347 C85.71884284 98.7437091 89.12957358 98.7386463 92.54174805 98.7409668 C93.55235291 98.72299042 94.56295776 98.70501404 95.60418701 98.68649292 C100.2769454 98.72093772 102.48986617 98.7773496 106.33454895 101.62532043 C108.20703125 104.30859375 108.20703125 104.30859375 108.83203125 107.80859375 C108.01140621 112.404094 106.98449376 113.5567904 103.20703125 116.30859375 C99.34569324 117.0539669 95.53368809 116.98117763 91.61132812 116.93969727 C90.43844742 116.94685257 89.26556671 116.95400787 88.05714417 116.96138 C84.17962717 116.97829048 80.30326242 116.95884858 76.42578125 116.9375 C73.73204876 116.93596863 71.03833351 116.9407316 68.34460449 116.94480896 C62.69883962 116.94932708 57.05340637 116.93347804 51.40771484 116.90551758 C44.88588936 116.87346652 38.36466188 116.87348206 31.84279394 116.89073235 C25.56203579 116.90661115 19.28149631 116.89985531 13.00074768 116.88279533 C10.33088373 116.87593296 7.6614806 116.87810072 4.99156189 116.88434029 C1.26157475 116.88978476 -2.46739443 116.86943934 -6.19726562 116.84204102 C-7.30287338 116.84856689 -8.40848114 116.85509277 -9.54759216 116.86181641 C-17.03128795 116.76825216 -17.03128795 116.76825216 -20.9552002 114.4002533 C-23.71133108 111.26335803 -23.92773891 109.49192453 -23.99829102 105.39990234 C-24.01823624 104.37899506 -24.03818146 103.35808777 -24.05873108 102.3062439 C-24.07544357 101.20100372 -24.09215607 100.09576355 -24.109375 98.95703125 C-24.1301561 97.82786285 -24.15093719 96.69869446 -24.17234802 95.53530884 C-24.2378821 91.91813403 -24.29674649 88.30088494 -24.35546875 84.68359375 C-24.39865029 82.23566931 -24.44226446 79.78775247 -24.48632812 77.33984375 C-24.59356742 71.32950625 -24.69532662 65.3190944 -24.79296875 59.30859375 C-25.83016808 58.80566299 -25.83016808 58.80566299 -26.88832092 58.29257202 C-27.79279465 57.84845978 -28.69726837 57.40434753 -29.62915039 56.94677734 C-30.52686661 56.50836517 -31.42458282 56.069953 -32.34950256 55.61825562 C-39.07342808 52.01433063 -43.46692227 45.42355944 -45.79296875 38.30859375 C-48.44291958 29.39512278 -46.95039876 20.47672095 -42.79296875 12.30859375 C-33.07172726 -1.84014386 -16.1105923 -7.72132865 0 0 Z " fill="#000000" transform="translate(68.79296875,248.69140625)"/>
<path d="M0 0 C5.87166118 4.6929634 10.44153388 10.9729778 11.7890625 18.4921875 C12.5883523 29.74776021 11.77984258 37.81133976 4.5390625 46.7421875 C0.35671741 51.25803856 -4.3641836 54.54326953 -10.2109375 56.4921875 C-10.21236252 57.1325444 -10.21378754 57.77290131 -10.21525574 58.43266296 C-10.23494897 65.10031923 -10.28921503 71.76705956 -10.36352539 78.43432617 C-10.38671606 80.92221505 -10.40110357 83.41020224 -10.40649414 85.89819336 C-10.4157753 89.47572177 -10.45675161 93.05170129 -10.50390625 96.62890625 C-10.4999736 97.74053635 -10.49604095 98.85216644 -10.49198914 99.9974823 C-10.52145378 101.55853447 -10.52145378 101.55853447 -10.55151367 103.15112305 C-10.55817551 104.0637944 -10.56483734 104.97646576 -10.57170105 105.91679382 C-11.55140422 109.86388 -12.85695603 111.16845796 -16.2109375 113.4921875 C-20.0753075 114.22649858 -23.88302688 114.16478464 -27.80664062 114.12329102 C-28.97952133 114.13044632 -30.15240204 114.13760162 -31.36082458 114.14497375 C-35.23834158 114.16188423 -39.11470633 114.14244233 -42.9921875 114.12109375 C-45.68591999 114.11956238 -48.37963524 114.12432535 -51.07336426 114.12840271 C-56.71912913 114.13292083 -62.36456238 114.11707179 -68.01025391 114.08911133 C-74.53207939 114.05706027 -81.05330687 114.05707581 -87.57517481 114.0743261 C-93.85593296 114.0902049 -100.13647244 114.08344906 -106.41722107 114.06638908 C-109.08708502 114.05952671 -111.75648815 114.06169447 -114.42640686 114.06793404 C-118.156394 114.07337851 -121.88536318 114.05303309 -125.61523438 114.02563477 C-126.72084213 114.03216064 -127.82644989 114.03868652 -128.96556091 114.04541016 C-136.41179951 113.95231421 -136.41179951 113.95231421 -140.3692627 111.6736908 C-142.96746219 108.59606778 -143.28107754 106.49016978 -143.2109375 102.4921875 C-141.44452578 99.69029304 -140.18043928 97.97693839 -137.2109375 96.4921875 C-135.75376662 96.40016188 -134.29243985 96.37025474 -132.83236694 96.37193298 C-131.91247482 96.37055832 -130.9925827 96.36918365 -130.04481506 96.36776733 C-129.03277512 96.37136261 -128.02073517 96.37495789 -126.97802734 96.37866211 C-125.9145961 96.37851608 -124.85116486 96.37837006 -123.75550842 96.3782196 C-120.22761013 96.37891831 -116.69976411 96.38670879 -113.171875 96.39453125 C-110.73092681 96.39639558 -108.28997824 96.39781941 -105.84902954 96.39881897 C-99.41445895 96.40264299 -92.97991082 96.4124723 -86.54534912 96.42352295 C-79.98336084 96.43373955 -73.42136894 96.43831712 -66.859375 96.44335938 C-53.97655103 96.45409466 -41.09374964 96.47169054 -28.2109375 96.4921875 C-28.5409375 83.2921875 -28.8709375 70.0921875 -29.2109375 56.4921875 C-32.5109375 54.8421875 -35.8109375 53.1921875 -39.2109375 51.4921875 C-46.47597812 45.67576525 -50.4476083 37.84449031 -51.55078125 28.6640625 C-51.85438739 19.96878266 -49.72346836 12.31031777 -44.2109375 5.4921875 C-32.02593627 -7.07811021 -15.1932741 -10.36149082 0 0 Z " fill="#000000" transform="translate(490.2109375,251.5078125)"/>
<path d="M0 0 C3.4804087 3.16233971 5.26886934 4.89257894 6.22265625 9.58203125 C5.32034739 13.56722871 4.67833441 15.31435127 1.47265625 17.89453125 C-1.80047401 19.03537333 -4.22874188 18.9415451 -7.52734375 17.89453125 C-10.39153977 15.68717893 -12.8747482 13.237733 -15.44921875 10.69921875 C-23.92882022 2.62526008 -35.48741598 -2.6681286 -46.52734375 -6.10546875 C-48.03361328 -6.58306641 -48.03361328 -6.58306641 -49.5703125 -7.0703125 C-72.35190989 -13.09175785 -97.03547463 -9.37779746 -117.52734375 1.89453125 C-123.9377486 5.83778956 -129.95727495 10.32028948 -135.40234375 15.51953125 C-138.41865321 17.81192644 -139.16929055 18.31211315 -142.71484375 18.51953125 C-146.52734375 17.89453125 -146.52734375 17.89453125 -149.02734375 16.39453125 C-150.70104337 13.60503189 -151.04481443 11.32803017 -151.15625 8.08984375 C-148.18621267 -2.27761575 -132.95265434 -10.30726332 -124.0390625 -15.33618164 C-116.86888942 -19.17187045 -109.30597188 -21.79881928 -101.52734375 -24.10546875 C-100.39554688 -24.44707031 -99.26375 -24.78867187 -98.09765625 -25.140625 C-62.7417382 -33.91836447 -27.33801108 -22.77463365 0 0 Z " fill="#000000" transform="translate(311.52734375,30.10546875)"/>
<path d="M0 0 C3.75894406 3.39004599 6.60363256 6.16229643 7.6875 11.1875 C6.82046292 14.73446988 5.65049116 16.49277863 3 19 C0.06394065 20.1292536 -1.38527048 20.19683458 -4.37890625 19.23828125 C-7.21975778 17.89618 -9.14975542 16.32658597 -11.5 14.25 C-23.28993752 4.60049756 -36.95659449 0.81975772 -52 2 C-64.76806157 3.83724223 -75.12938662 8.82052111 -84.74609375 17.36328125 C-87.26565714 19.19291221 -88.90996876 19.7603853 -92 20 C-97.63855422 17.72289157 -97.63855422 17.72289157 -99 15 C-99.75116745 10.71834551 -99.95002647 8.40790005 -97.484375 4.75390625 C-72.05571684 -22.41708589 -28.27906433 -22.01291194 0 0 Z " fill="#000000" transform="translate(285,54)"/>
<path d="M0 0 C5.78840229 4.40102333 5.78840229 4.40102333 7.2109375 7.24609375 C7.77965788 14.29822645 7.77965788 14.29822645 5.7109375 17.74609375 C2.15456366 19.87991805 -0.82966824 20.19773763 -4.7890625 19.24609375 C-7.29202193 17.88121134 -9.52741946 16.36410261 -11.80859375 14.65625 C-15.77803191 11.82988476 -20.0798668 11.62491642 -24.7890625 12.24609375 C-28.53063585 13.61281675 -31.7897545 15.37169925 -34.7890625 17.99609375 C-37.97248966 19.98573573 -41.14878722 19.91883456 -44.7890625 19.24609375 C-47.57618253 17.31654912 -48.52597302 15.97898588 -49.6640625 12.80859375 C-49.823529 9.53953059 -49.4547439 8.09163281 -47.7890625 5.24609375 C-35.63923374 -8.0395547 -14.95371419 -9.40366621 0 0 Z " fill="#000000" transform="translate(259.7890625,78.75390625)"/>
<path d="M0 0 C1.65 0 3.3 0 5 0 C8.72951916 18.61429652 7.88252316 38.31441968 5 57 C4.8870459 57.78697266 4.7740918 58.57394531 4.65771484 59.38476562 C-0.86844988 96.87687116 -18.28313564 132.07998379 -43.9921875 159.78125 C-45.39104473 161.32706888 -46.73029074 162.92804839 -48.01953125 164.56640625 C-49.83058076 166.79181818 -51.6317265 168.58539705 -53.8125 170.4375 C-54.49957031 171.0253125 -55.18664062 171.613125 -55.89453125 172.21875 C-56.58933594 172.8065625 -57.28414063 173.394375 -58 174 C-59.33374065 175.1453592 -60.66710528 176.29115647 -62 177.4375 C-62.99 178.283125 -63.98 179.12875 -65 180 C-65 177 -65 177 -63.71484375 175.67578125 C-62.83505859 175.00095703 -62.83505859 175.00095703 -61.9375 174.3125 C-57.78119444 170.91264205 -54.4447425 167.10452181 -51 163 C-49.8553125 161.68708984 -49.8553125 161.68708984 -48.6875 160.34765625 C-25.44729761 133.29460816 -9.95146694 99.86176987 -3 65 C-2.83483887 64.21544434 -2.66967773 63.43088867 -2.49951172 62.62255859 C1.65068279 42.14626281 0.27493813 20.77968287 0 0 Z " fill="#8BE78B" transform="translate(486,21)"/>
<path d="M0 0 C3.93792318 2.56821077 6.74612583 5.61725165 8.875 9.875 C9.35793379 17.1190069 8.23954189 21.08605316 3.4375 26.75 C-0.39811448 29.69383411 -4.52421146 29.62556028 -9.20703125 29.43359375 C-13.68862079 28.57567233 -16.38216361 26.45546906 -19.125 22.875 C-21.8501162 18.40065381 -21.76211394 13.97191153 -21.125 8.875 C-17.0804593 0.13879209 -9.09890332 -3.2756052 0 0 Z " fill="#FBE784" transform="translate(60.125,263.125)"/>
<path d="M0 0 C4.61294872 2.34149675 7.23908719 5.57259599 8.92578125 10.3515625 C9.56924631 15.59120657 8.80597118 18.93527127 5.92578125 23.3515625 C2.1990697 27.12918541 -0.99865194 29.19491595 -6.38671875 29.6015625 C-11.73852112 29.23872844 -14.79371238 27.77050199 -18.38671875 23.7890625 C-21.79174595 18.87068988 -22.06950812 14.22850928 -21.07421875 8.3515625 C-16.10997128 0.13846198 -9.39368006 -2.93663068 0 0 Z " fill="#FCE884" transform="translate(124.07421875,463.6484375)"/>
<path d="M0 0 C3.93792318 2.56821077 6.74612583 5.61725165 8.875 9.875 C9.48643762 15.78556366 8.79305264 19.2908042 5.34765625 24.17578125 C1.89113963 28.16406966 -1.924205 29.08025585 -7 29.5 C-12.26699581 29.3645402 -14.9178691 27.26091839 -18.62890625 23.69921875 C-21.66228615 20.00055449 -21.46494224 15.94778176 -21.3984375 11.37890625 C-20.98502561 7.59323448 -19.69653267 5.64434288 -17.125 2.875 C-11.69081448 -1.42930536 -6.67432178 -2.40275584 0 0 Z " fill="#FBE784" transform="translate(477.125,263.125)"/>
<path d="M0 0 C5.36787898 1.88869816 8.45991584 4.91983169 11 10 C11.5326579 16.17883163 10.93697116 21.01537545 7 26 C3.37871935 28.79647703 -0.06137159 29.86826268 -4.5625 30.5 C-9.46887692 29.78634518 -13.01280587 28.2560498 -16.328125 24.4921875 C-19.33501202 19.93950645 -19.96506595 15.34198123 -19 10 C-14.59423312 1.35164279 -9.37859766 -1.23442216 0 0 Z " fill="#FBE884" transform="translate(411,463)"/>
<path d="M0 0 C4.34468141 2.1723407 7.60032162 4.75441518 10 9 C10.69896395 13.68855591 10.36728594 17.78336534 9 22.3125 C5.87532613 26.51128051 2.09688208 29.33431507 -3.08984375 30.44921875 C-8.18115771 30.73261243 -11.18533375 29.20778753 -15 26 C-18.33997264 22.29894924 -19.83029663 19.76491504 -20.3125 14.75 C-19.82139175 8.85670096 -17.6645254 5.54563073 -13.375 1.5625 C-8.79769908 -0.5566208 -4.96305268 -0.80023162 0 0 Z " fill="#FBE784" transform="translate(267,463)"/>
<path d="M0 0 C3.85981588 2.42410867 6.54307697 4.62923092 8 9 C8.52438572 13.99455908 8.55003096 17.87956656 6.3125 22.4375 C3.28115306 25.79656012 1.25860352 27.69355631 -3.33203125 28.31640625 C-9.07269186 28.58321356 -12.54031967 27.91581688 -17 24 C-20.23493785 20.98816131 -20.79351537 17.64997111 -21.1171875 13.37890625 C-20.91326996 9.23938016 -19.62009725 6.1959428 -17 3 C-11.90397348 -1.17782355 -6.22328816 -2.13751579 0 0 Z " fill="#000000" transform="translate(245,107)"/>
<path d="M0 0 C25.87973596 20.81630936 42.97008185 55.03154541 50 87 C50 88.32 50 89.64 50 91 C46.54074837 89.7508258 43.85306797 88.32472205 41 86 C41.66 86 42.32 86 43 86 C37.36685901 56.27716663 23.55373744 24.5421441 1.25390625 3.33984375 C0 2 0 2 0 0 Z " fill="#5BC66E" transform="translate(202,143)"/>
<path d="M0 0 C4.875 3.75 4.875 3.75 6 6 C6.56057057 11.99379306 6.43586934 16.84619599 3 22 C2.34 22.33 1.68 22.66 1 23 C1.16113281 22.28585937 1.32226562 21.57171875 1.48828125 20.8359375 C2.77652472 13.69651184 2.42599966 6.82312405 0 0 Z " fill="#F2D757" transform="translate(271,466)"/>
<path d="M0 0 C5.89341544 5.74230223 5.89341544 5.74230223 6.3125 10.6875 C6.28669557 15.39250704 4.57537358 18.13693964 2 22 C0.875 18.25 0.875 18.25 2 16 C2.50030131 10.28725709 1.83950258 5.40353883 0 0 Z " fill="#E9CF52" transform="translate(480,266)"/>
<path d="M0 0 C5.91773309 5.76599634 5.91773309 5.76599634 6.25 10.75 C6.20582665 14.79186129 5.18705533 17.55118198 3 21 C2.34 21.33 1.68 21.66 1 22 C1.165 21.21625 1.33 20.4325 1.5 19.625 C2.44296022 12.78853839 2.72402622 6.46956228 0 0 Z " fill="#EDD254" transform="translate(63,266)"/>
<path d="M0 0 C3.93162866 3.66952008 5.81049118 5.9533047 6.3125 11.375 C5.97687168 15.26828854 4.95897983 17.65340945 3 21 C2.67 21 2.34 21 2 21 C2.03480469 19.7315625 2.03480469 19.7315625 2.0703125 18.4375 C2.17438066 11.89607279 1.9612306 6.25142254 0 0 Z " fill="#E4CB50" transform="translate(127,466)"/>
<path d="M0 0 C3.06500356 2.93174254 3.93498045 4.2457732 4.3125 8.625 C4.28610133 13.4295586 2.41756432 16.9419456 0 21 C-1.125 17.25 -1.125 17.25 0 15 C0.0716735 12.44842345 0.09308442 9.92527029 0.0625 7.375 C0.05573242 6.31539063 0.05573242 6.31539063 0.04882812 5.234375 C0.03703875 3.48954725 0.01910324 1.744763 0 0 Z " fill="#EDD253" transform="translate(418,468)"/>
<path d="M0 0 C0.66 0.33 1.32 0.66 2 1 C-1.465 3.97 -1.465 3.97 -5 7 C-5 6.01 -5 5.02 -5 4 C-2.5 1.8125 -2.5 1.8125 0 0 Z " fill="#87DC87" transform="translate(426,194)"/>
</svg>
